<svg width="30" height="31" viewBox="0 0 30 31" fill="none" xmlns="http://www.w3.org/2000/svg">
<g clip-path="url(#clip0_2990_14495)">
<path d="M14.993 0.457031C6.71475 0.457031 0 7.17178 0 15.4501C0 23.7283 6.71475 30.4431 14.993 30.4431C23.2713 30.4431 29.986 23.7283 29.986 15.4501C29.986 7.17178 23.2852 0.457031 14.993 0.457031Z" fill="#F77636"/>
<path d="M14.9463 23.737C12.6063 23.737 11.0263 22.857 9.98633 21.677L11.3663 19.817C12.2463 20.677 13.3263 21.337 14.6663 21.337C16.1663 21.337 17.1863 20.597 17.1863 19.257C17.1863 17.817 16.3263 16.897 13.1063 16.897V14.797C15.8263 14.797 16.7063 13.857 16.7063 12.537C16.7063 11.377 15.9863 10.697 14.7263 10.697C13.6663 10.697 12.8063 11.177 11.9263 11.997L10.4263 10.197C11.7063 9.07695 13.1263 8.37695 14.8663 8.37695C17.7263 8.37695 19.6663 9.79695 19.6663 12.317C19.6663 13.917 18.7663 15.077 17.2063 15.697V15.797C18.8663 16.257 20.1463 17.497 20.1463 19.437C20.1463 22.157 17.7663 23.737 14.9463 23.737Z" fill="white"/>
</g>
<defs>
<clipPath id="clip0_2990_14495">
<rect width="30" height="30" fill="white" transform="translate(0 0.457031)"/>
</clipPath>
</defs>
</svg>
