<svg width="72" height="72" viewBox="0 0 72 72" fill="none" xmlns="http://www.w3.org/2000/svg">
<path d="M52.623 60.2049V64.2594L60.2587 55.7754H56.6873C54.4459 55.7754 52.623 57.7621 52.623 60.2049Z" fill="#FF8201"/>
<path d="M20.1657 61.786V16.0563C20.1657 15.1203 20.3792 14.2038 20.7858 13.3555L9.47046 15.5201C7.14232 15.9393 5.60717 18.0844 6.03417 20.3173L15.1841 64.3309C15.1841 64.3309 15.1841 64.3504 15.1841 64.3601C15.6619 66.593 17.9392 68.0263 20.2572 67.568L22.931 67.061C21.1925 65.813 20.1657 63.8629 20.1555 61.786H20.1657Z" fill="#FF8201"/>
<path d="M56.5509 53.6626H61.957V15.911C61.957 13.5717 60.0432 11.6729 57.6854 11.6729H26.3537C26.1367 11.6533 25.9196 11.6533 25.7026 11.6729L25.3475 11.7414C23.4237 12.1916 22.0722 13.9045 22.0821 15.8621V61.7669C22.1018 64.0083 23.8874 65.8484 26.1465 65.9561H49.7736V60.3868C49.7736 56.6772 52.812 53.6724 56.5509 53.6626ZM27.1133 19.787H56.9455C57.6262 19.787 58.1787 20.3351 58.1787 21.0105C58.1787 21.6858 57.6262 22.2339 56.9455 22.2339H27.1133C26.4326 22.2339 25.8802 21.6858 25.8802 21.0105C25.8802 20.3351 26.4326 19.787 27.1133 19.787ZM27.1133 25.8065H56.9455C57.6262 25.8065 58.1787 26.3546 58.1787 27.03C58.1787 27.7053 57.6262 28.2534 56.9455 28.2534H27.1133C26.4326 28.2534 25.8802 27.7053 25.8802 27.03C25.8802 26.3546 26.4326 25.8065 27.1133 25.8065ZM27.1133 31.826H56.9455C57.6262 31.826 58.1787 32.3741 58.1787 33.0495C58.1787 33.7248 57.6262 34.2729 56.9455 34.2729H27.1133C26.4326 34.2729 25.8802 33.7248 25.8802 33.0495C25.8802 32.3741 26.4326 31.826 27.1133 31.826ZM27.1133 37.8455H56.9455C57.6262 37.8455 58.1787 38.3936 58.1787 39.069C58.1787 39.7443 57.6262 40.2924 56.9455 40.2924H27.1133C26.4326 40.2924 25.8802 39.7443 25.8802 39.069C25.8802 38.3936 26.4326 37.8455 27.1133 37.8455ZM27.1133 46.312C26.4326 46.312 25.8802 45.7638 25.8802 45.0885C25.8802 44.4131 26.4326 43.865 27.1133 43.865H56.9455C57.6262 43.865 58.1787 44.4131 58.1787 45.0885C58.1787 45.7638 57.6262 46.312 56.9455 46.312H27.1133Z" fill="#FF8201"/>
</svg>
