<svg width="100" height="100" viewBox="0 0 100 100" fill="none" xmlns="http://www.w3.org/2000/svg">
<g clip-path="url(#clip0_2818_32776)">
<path d="M75.3765 59.9076C74.5397 57.0036 73.7047 54.0977 72.8697 51.1936C72.5969 50.2488 72.3241 49.304 72.0531 48.3573L69.7862 50.6242C70.5205 53.5155 71.2547 56.4067 71.989 59.2997C72.3515 60.7243 71.4011 61.9914 69.8393 61.5044C67.2813 60.4423 64.4614 59.6952 61.6911 59.5506C58.5417 59.3895 55.3154 60.034 52.4131 61.2443C52.0854 61.3798 49.8955 62.9563 49.8076 61.8377C49.76 59.2229 49.7106 56.6082 49.663 53.9934C49.5623 48.5917 49.4634 43.192 49.3626 37.7903C49.3571 37.4808 50.1042 37.3252 50.2581 37.2666C51.4813 36.8034 52.7611 36.4847 54.0501 36.276C57.1904 35.7652 60.2812 36.027 63.3519 36.8052C64.3297 37.0543 65.3551 37.3582 66.0765 37.9881L67.5341 36.5324C67.0598 36.1735 66.5306 35.8696 65.9648 35.6187C63.3593 34.4523 60.0524 33.9909 57.2252 33.925C54.2058 33.8536 51.1204 34.326 48.264 35.3075C47.7074 35.4979 46.7973 34.9925 46.2279 34.8387C45.5577 34.6574 44.8802 34.5054 44.1972 34.3772C42.6921 34.0989 41.165 33.9469 39.6342 33.9231C36.71 33.8773 33.7217 34.4377 30.9275 35.2782C30.3123 35.5089 30.7517 35.3459 30.8891 35.2947C29.1459 35.9539 27.2342 37.0306 26.685 38.9422C26.5476 39.42 26.4085 39.8979 26.2712 40.3758C25.5753 42.7947 24.8796 45.2117 24.1837 47.6304C23.2316 50.9373 22.2813 54.2424 21.3292 57.5474C20.7761 59.4719 19.6794 61.9438 20.0895 63.9671C20.5912 66.472 23.0413 67.6255 25.4088 67.1439C26.2419 66.9718 27.0055 66.5873 27.8001 66.3034C29.1276 65.8273 30.4863 65.4264 31.8688 65.1388C35.1976 64.4485 38.5777 64.8147 41.8499 65.6589C42.5804 65.8475 45.3179 66.32 45.3967 67.1365C45.4718 67.8982 46.3469 67.6913 46.8982 67.6913C47.4457 67.6913 47.9932 67.6913 48.5407 67.6913C49.0424 67.6913 49.8828 67.8652 50.359 67.6565C50.8368 67.4495 50.4689 66.9259 50.9192 66.73C51.5326 66.4645 52.168 66.2447 52.8052 66.047C54.2957 65.5819 55.8265 65.2359 57.3719 65.0106C60.677 64.5291 63.8007 64.8769 66.974 65.8785C68.8325 66.4645 70.6343 67.5448 72.6504 67.1841C75.3988 66.6971 76.5231 63.8882 75.8016 61.3833C75.6713 60.8872 75.5175 60.3982 75.3765 59.9076ZM46.5429 44.2117C46.4329 50.018 46.3268 55.8224 46.2187 61.6287C46.2113 62.017 46.1052 62.2586 45.6731 62.2476C43.322 60.8505 40.5315 60.0429 37.8326 59.7024C34.6611 59.3014 31.5575 59.7336 28.518 60.6766C27.575 60.9677 26.5203 61.6086 25.5206 61.6086C24.3761 61.6086 23.7115 60.5904 23.9789 59.5266C24.6784 56.7782 25.3741 54.0279 26.0736 51.2795C26.8939 48.0477 27.7124 44.8141 28.5345 41.5823C28.7396 40.7785 28.9428 39.9728 29.1479 39.1672C29.6478 37.1969 32.4347 36.8234 34.0991 36.4773C37.2064 35.8347 40.3558 35.8383 43.4522 36.5671C43.9869 36.6934 46.6748 37.1072 46.6602 37.8745C46.6197 39.9875 46.5813 42.1006 46.5429 44.2117Z" fill="#2F5BC1"/>
<path d="M55.6963 56.54L63.8463 54.8115L79.9999 38.6617L73.5765 32.2383L57.4267 48.3882L55.6963 56.54ZM76.9018 38.6617L63.0517 52.51L61.6216 51.0799L75.4718 37.2316L76.9018 38.6617ZM73.5766 35.3365L75.0067 36.7665L61.1565 50.6148L59.7265 49.1848L73.5766 35.3365ZM59.4023 49.789L62.4473 52.8359L59.6111 53.4602L58.7761 52.6271L59.4023 49.789Z" fill="#2F5BC1"/>
</g>
<defs>
<clipPath id="clip0_2818_32776">
<rect width="60" height="60" fill="white" transform="translate(20 20)"/>
</clipPath>
</defs>
</svg>
