<svg width="100" height="100" viewBox="0 0 100 100" fill="none" xmlns="http://www.w3.org/2000/svg">
<g clip-path="url(#clip0_2910_133075)">
<path d="M65.6742 51.3477C57.775 51.3477 51.3477 57.775 51.3477 65.6742C51.3477 73.5734 57.775 80.0007 65.6742 80.0007C73.5734 80.0007 80.0007 73.5734 80.0007 65.6742C80.0007 57.775 73.5734 51.3477 65.6742 51.3477ZM64.3272 59.7966C64.3272 59.0534 64.9309 58.4497 65.6742 58.4497C66.4175 58.4497 67.0211 59.0534 67.0211 59.7966V63.715C67.0211 64.053 67.2954 64.3272 67.6334 64.3272H71.5517C72.295 64.3272 72.8987 64.9309 72.8987 65.6742C72.8987 66.4175 72.295 67.0211 71.5517 67.0211H65.6742C64.9309 67.0211 64.3272 66.4175 64.3272 65.6742V59.7966Z" fill="#2F5BC1"/>
<path d="M20.6122 32.9796H71.551C71.889 32.9796 72.1633 32.7053 72.1633 32.3673V30.4082C72.1633 26.8302 69.2514 23.9184 65.6735 23.9184H64.3265V22.5714C64.3265 21.1535 63.1731 20 61.7551 20C60.3371 20 59.1837 21.1535 59.1837 22.5714V23.9184H48.6531V22.5714C48.6531 21.1535 47.4996 20 46.0816 20C44.6637 20 43.5102 21.1535 43.5102 22.5714V23.9184H32.9796V22.5714C32.9796 21.1535 31.8261 20 30.4082 20C28.9902 20 27.8367 21.1535 27.8367 22.5714V23.9184H26.4898C22.9118 23.9184 20 26.8302 20 30.4082V32.3673C20 32.7053 20.2743 32.9796 20.6122 32.9796Z" fill="#2F5BC1"/>
<path d="M48.6531 65.6709C48.6531 56.2864 56.2878 48.6505 65.6735 48.6505C67.6339 48.6505 69.5404 48.9811 71.3429 49.6325C71.4102 49.657 71.4812 49.6693 71.551 49.6693C71.6747 49.6693 71.7984 49.6313 71.9024 49.5578C72.0653 49.4427 72.1633 49.2566 72.1633 49.057V36.2831C72.1633 35.9452 71.889 35.6709 71.551 35.6709H20.6122C20.2743 35.6709 20 35.9452 20 36.2831V65.6709C20 69.2489 22.9118 72.1607 26.4898 72.1607H49.0596C49.2592 72.1607 49.4465 72.064 49.5604 71.8999C49.6743 71.7358 49.7024 71.5276 49.6351 71.3403C48.9837 69.5378 48.6531 67.6313 48.6531 65.6709ZM48.0408 47.426H44.1224C43.3792 47.426 42.7755 46.8223 42.7755 46.0791C42.7755 45.3358 43.3792 44.7321 44.1224 44.7321H48.0408C48.7841 44.7321 49.3878 45.3358 49.3878 46.0791C49.3878 46.8223 48.7841 47.426 48.0408 47.426ZM32.3673 60.4056H36.2857C37.029 60.4056 37.6327 61.0093 37.6327 61.7525C37.6327 62.4958 37.029 63.0995 36.2857 63.0995H32.3673C31.6241 63.0995 31.0204 62.4958 31.0204 61.7525C31.0204 61.0093 31.6241 60.4056 32.3673 60.4056ZM36.2857 55.2627H32.3673C31.6241 55.2627 31.0204 54.6591 31.0204 53.9158C31.0204 53.1725 31.6241 52.5689 32.3673 52.5689H36.2857C37.029 52.5689 37.6327 53.1725 37.6327 53.9158C37.6327 54.6591 37.029 55.2627 36.2857 55.2627ZM36.2857 47.426H32.3673C31.6241 47.426 31.0204 46.8223 31.0204 46.0791C31.0204 45.3358 31.6241 44.7321 32.3673 44.7321H36.2857C37.029 44.7321 37.6327 45.3358 37.6327 46.0791C37.6327 46.8223 37.029 47.426 36.2857 47.426Z" fill="#2F5BC1"/>
</g>
<defs>
<clipPath id="clip0_2910_133075">
<rect width="60" height="60" fill="white" transform="translate(20 20)"/>
</clipPath>
</defs>
</svg>
