<svg width="62" height="64" viewBox="0 0 62 64" fill="none" xmlns="http://www.w3.org/2000/svg">
<g clip-path="url(#clip0_2990_13589)">
<path d="M23.3135 5.76855H38.6867C41.0152 5.76855 42.9025 4.65375 42.9025 3.27809V3.02953C42.9025 1.65387 41.0152 0.539062 38.6867 0.539062H23.3135C20.985 0.539062 19.0977 1.65387 19.0977 3.02953V3.27809C19.0977 4.65375 20.985 5.76855 23.3135 5.76855Z" fill="white"/>
<path d="M14.6336 4.27512H16.6178V2.0332H13.8897C13.6422 2.0332 13.1458 2.28176 12.897 2.53154L4.71289 20.4607H7.19338L14.6336 4.27512Z" fill="white"/>
<path d="M3.96875 32.9102L7.68949 57.5626C8.18583 61.0485 11.1614 63.539 14.6334 63.539H47.3675C50.8395 63.539 53.8163 61.0485 54.3114 57.5626L58.0322 32.9102H3.96875ZM17.3614 54.3252C17.3614 55.0721 16.8651 55.5705 16.1212 55.5705C15.6248 55.5705 14.8809 55.0721 14.8809 54.3252V39.3849C14.8809 38.638 15.6248 38.1396 16.1212 38.1396C16.8651 38.1396 17.3614 38.638 17.3614 39.3849V54.3252ZM24.8017 54.3252C24.8017 55.0721 24.3053 55.5705 23.5614 55.5705C23.0651 55.5705 22.3212 55.0721 22.3212 54.3252V39.3849C22.3212 38.638 23.0651 38.1396 23.5614 38.1396C24.3053 38.1396 24.8017 38.638 24.8017 39.3849V54.3252ZM44.6382 39.3849C44.6382 38.638 45.1346 38.1396 45.8785 38.1396C46.3748 38.1396 47.1187 38.638 47.1187 39.3849V54.3252C47.1187 55.0721 46.3748 55.5705 45.8785 55.5705C45.1346 55.5705 44.6382 55.0721 44.6382 54.3252V39.3849ZM37.198 39.3849C37.198 38.638 37.6943 38.1396 38.4383 38.1396C38.9346 38.1396 39.6785 38.638 39.6785 39.3849V54.3252C39.6785 55.0721 38.9346 55.5705 38.4383 55.5705C37.6943 55.5705 37.198 55.0721 37.198 54.3252V39.3849ZM32.2382 39.3849V54.3252C32.2382 55.0721 31.7431 55.5692 31.0005 55.5705C30.2578 55.5705 29.7627 55.0721 29.7627 54.3252V39.3849C29.7627 38.638 30.2578 38.1409 31.0005 38.1396C31.7431 38.1396 32.2382 38.638 32.2382 39.3849Z" fill="white"/>
<path d="M57.2866 22.9492H4.7122C2.10915 22.9492 0 24.5661 0 26.5594C0 28.5528 2.11038 30.1696 4.7122 30.1708H57.2866C59.8896 30.1708 61.9988 28.554 61.9988 26.5594C61.9988 24.5648 59.8884 22.9492 57.2866 22.9492Z" fill="white"/>
<path d="M54.8084 20.4607H57.2889L49.1035 2.53154C48.856 2.28299 48.3596 2.0332 48.1109 2.0332H45.3828V4.27389H47.367L54.8072 20.4595L54.8084 20.4607Z" fill="white"/>
</g>
<defs>
<clipPath id="clip0_2990_13589">
<rect width="62" height="63" fill="white" transform="translate(0 0.539062)"/>
</clipPath>
</defs>
</svg>
