<svg width="109" height="109" viewBox="0 0 109 109" fill="none" xmlns="http://www.w3.org/2000/svg">
<g clip-path="url(#clip0_2981_27498)">
<path d="M51.3147 73.7047C52.0992 74.1427 52.815 74.5407 53.4262 74.9329V70.6326L46.4031 65.3846C45.9278 65.0296 45.8305 64.3568 46.1855 63.8815C46.5405 63.4062 47.2134 63.3089 47.6886 63.6639L53.4262 67.9514V50.176L49.9447 46.8434C49.5167 46.4339 49.5009 45.754 49.9118 45.3259C50.3212 44.8979 51.0012 44.8822 51.4292 45.293L53.4262 47.2041V42.0993C53.4262 41.5066 53.9072 41.0256 54.4999 41.0256C55.0925 41.0256 55.5735 41.5066 55.5735 42.0993V58.4273L61.9467 54.1456C62.4392 53.8149 63.1063 53.9452 63.4369 54.4377C63.7676 54.9301 63.6374 55.5972 63.1449 55.9279L55.5735 61.0141V74.9301C56.1848 74.5378 56.9006 74.1384 57.685 73.7018C62.4019 71.0735 69.531 67.101 69.531 57.0788C69.531 51.0922 65.4182 45.9401 60.6555 39.9763C58.6069 37.411 56.4983 34.7698 54.4999 31.8223C52.5014 34.7698 50.3928 37.4095 48.3457 39.9749L48.0007 40.4072C44.2057 45.23 39.4688 51.6834 39.4688 57.0803C39.4688 67.1025 46.5978 71.075 51.3147 73.7033V73.7047ZM62.0154 49.6162C61.4228 49.6162 60.9418 49.1353 60.9418 48.5426C60.9418 47.9499 61.4228 47.4689 62.0154 47.4689C62.6081 47.4689 63.0891 47.9499 63.0891 48.5426C63.0891 49.1353 62.6081 49.6162 62.0154 49.6162ZM59.8681 43.1743C60.4608 43.1743 60.9418 43.6553 60.9418 44.248C60.9418 44.8406 60.4608 45.3216 59.8681 45.3216C59.2755 45.3216 58.7945 44.8406 58.7945 44.248C58.7945 43.6553 59.2755 43.1743 59.8681 43.1743Z" fill="#FF8201"/>
<path d="M31.6226 31.6226C37.7324 25.5128 45.8578 22.1473 54.5 22.1473C63.1422 22.1473 71.2676 25.5128 77.3774 31.6226L78.1361 32.3813L76.4325 34.0849H81.3556V29.1618L79.6521 30.8654L78.8934 30.1066C72.3784 23.5889 63.7148 20 54.5 20C45.2852 20 36.6216 23.5889 30.1052 30.1052C23.5889 36.6216 20 45.2852 20 54.5C20 58.567 20.7 62.5424 22.0815 66.3259H24.3762C22.896 62.5653 22.1473 58.5956 22.1473 54.5C22.1473 45.8578 25.5128 37.7324 31.6226 31.6226Z" fill="#FF8201"/>
<path d="M77.3775 77.3771C71.2677 83.4869 63.1423 86.8524 54.5001 86.8524C45.858 86.8524 37.7326 83.4869 31.6228 77.3771L30.8641 76.6184L32.5676 74.9149H27.6445V79.8379L29.3481 78.1344L30.1068 78.8931C36.6231 85.4095 45.2868 88.9997 54.5001 88.9997C63.7149 88.9997 72.3786 85.4109 78.8949 78.8945C85.4113 72.3782 89.0001 63.7145 89.0001 54.4997C89.0001 50.4327 88.3001 46.4574 86.9187 42.6738H84.6239C86.1041 46.4345 86.8528 50.4041 86.8528 54.4997C86.8528 63.1419 83.4873 71.2673 77.3775 77.3771Z" fill="#FF8201"/>
</g>
<defs>
<clipPath id="clip0_2981_27498">
<rect width="69" height="69" fill="white" transform="translate(20 20)"/>
</clipPath>
</defs>
</svg>
