<svg width="113" height="114" viewBox="0 0 113 114" fill="none" xmlns="http://www.w3.org/2000/svg">
<g clip-path="url(#clip0_2981_30225)">
<path d="M69.054 85.0173C69.054 85.696 68.505 86.2454 67.8268 86.2454H28.6006C27.9055 86.2454 27.3549 85.6945 27.3549 85.0173V31.9295C27.3549 31.2524 27.9039 30.6845 28.6006 30.6845H67.8268C68.505 30.6845 69.054 31.2524 69.054 31.9295V35.9985C69.5123 36.0355 69.9706 36.0724 70.4089 36.1278V26.2662C70.4089 23.7192 68.0836 21.6309 65.2446 21.6309H31.1828C28.3253 21.6309 26 23.7192 26 26.2662V89.0125C26 91.541 28.3253 93.6309 31.1828 93.6309H65.2446C68.0836 93.6309 70.4089 91.541 70.4089 89.0125V79.1539C69.9691 79.2093 69.5108 79.2463 69.054 79.2647V85.0189V85.0173ZM38.6355 23.9947C39.3122 23.9947 39.8628 24.5626 39.8628 25.2412C39.8628 26.14 40.5964 26.8725 41.493 26.8725H54.9344C55.8125 26.8725 56.5461 26.14 56.5461 25.2412C56.5461 24.5641 57.0952 23.9947 57.7918 23.9947C58.4885 23.9947 59.0191 24.5626 59.0191 25.2412C59.0191 27.5143 57.1874 29.3472 54.9359 29.3472H41.4945C39.2246 29.3472 37.3929 27.5143 37.3929 25.2412C37.3929 24.5641 37.9419 23.9947 38.6386 23.9947H38.6355ZM49.4594 91.1747H46.968C46.2713 91.1747 45.7223 90.6253 45.7223 89.9466C45.7223 89.2679 46.2713 88.7001 46.968 88.7001H49.4594C50.1361 88.7001 50.6867 89.2679 50.6867 89.9466C50.6867 90.6253 50.1376 91.1747 49.4594 91.1747Z" fill="#FF8201"/>
<path d="M66.5809 83.7709V79.2633C55.2095 78.6216 46.1619 69.1663 46.1619 57.6395C46.1619 46.1127 55.2095 36.6574 66.5809 35.9972V33.1562H29.8262V83.7709H66.5809Z" fill="#FF8201"/>
<path d="M71.6543 38.8222C70.4163 38.5699 69.1368 38.4375 67.8265 38.4375C67.8203 38.4375 67.8141 38.4375 67.808 38.4375C57.2317 38.4467 48.6348 47.0556 48.6348 57.6421C48.6348 68.2286 57.2317 76.819 67.808 76.8283C67.8141 76.8283 67.8203 76.8283 67.8265 76.8283C69.1368 76.8283 70.4163 76.6959 71.6543 76.4435C80.3959 74.6645 86.9997 66.9189 86.9997 57.6421C86.9997 48.3653 80.3943 40.6043 71.6543 38.8222ZM78.5934 68.1778H72.0004C72.0004 68.2517 72.0188 68.3071 72.0188 68.3609C72.0188 68.9688 71.8866 69.5444 71.6528 70.0661C70.9961 71.5235 69.5259 72.5392 67.8249 72.5392C67.8188 72.5392 67.8126 72.5392 67.8065 72.5392C65.4888 72.53 63.6126 70.6648 63.6126 68.3609C63.6126 68.3055 63.631 68.2517 63.631 68.1778H57.038C56.5612 68.1778 56.1229 67.9223 55.9214 67.4822C55.72 67.0605 55.7753 66.548 56.0675 66.1818L58.6681 62.8823V51.888C58.6681 46.8356 62.7605 42.7173 67.8065 42.7066C67.8126 42.7066 67.8188 42.7066 67.8249 42.7066C69.1906 42.7066 70.4871 43.0128 71.6528 43.5545C74.784 45.0135 76.9632 48.2006 76.9632 51.888V62.9007L79.4716 66.0694C79.6915 66.2895 79.8376 66.6019 79.8376 66.9497C79.8376 67.6284 79.2886 68.1778 78.5919 68.1778H78.5934Z" fill="#FF8201"/>
<path d="M67.8088 68.1773H66.1063C66.1063 68.2512 66.0879 68.3066 66.0879 68.3605C66.0879 69.2884 66.8476 70.0533 67.8088 70.0625C67.815 70.0625 67.8211 70.0625 67.8273 70.0625C68.7792 70.0625 69.5482 69.2931 69.5482 68.3589C69.5482 68.3035 69.5482 68.2497 69.5298 68.1758H67.8088V68.1773Z" fill="#FF8201"/>
<path d="M74.493 63.3185V51.8841C74.493 49.6141 73.3703 47.6089 71.6555 46.3946C70.5713 45.6282 69.2533 45.1758 67.8276 45.1758C67.8215 45.1758 67.8153 45.1758 67.8092 45.1758C64.1366 45.1866 61.1438 48.186 61.1438 51.8825V63.317C61.1438 63.5925 61.0516 63.8664 60.8686 64.0865L59.5859 65.6993H76.0494L74.7683 64.0865C74.5853 63.8664 74.493 63.5909 74.493 63.317V63.3185Z" fill="#FF8201"/>
</g>
<defs>
<clipPath id="clip0_2981_30225">
<rect width="61" height="72" fill="white" transform="translate(26 21.6309)"/>
</clipPath>
</defs>
</svg>
