<svg width="100" height="100" viewBox="0 0 100 100" fill="none" xmlns="http://www.w3.org/2000/svg">
<path d="M59.5472 44.1975V34.8535L54.5302 35.7505V39.5959H45.4696V35.7505L40.4529 34.8535V44.1975H34.4901L27.6836 59.0945V62.04V64.1566V70.4275V71.2591V72.4709C27.6836 73.7438 28.623 74.7758 29.781 74.7758H70.2184C71.3771 74.7758 72.3163 73.7438 72.3163 72.4709V71.2591V70.4275V64.1566V62.04V59.0945L65.4234 44.1975H59.5472ZM50.0001 68.1043C45.3194 68.1043 41.5251 64.3098 41.5251 59.6291C41.5251 54.9484 45.3195 51.1538 50.0001 51.1538C54.6807 51.1538 58.4751 54.9484 58.4751 59.6291C58.4751 64.3098 54.6808 68.1043 50.0001 68.1043Z" fill="#2F5BC1"/>
<path d="M70.8617 28.2598C66.3491 26.346 56.4174 25.2246 50 25.2246C43.7867 25.2246 33.6509 26.3459 29.1383 28.2598C24.5722 30.1962 20 34.5304 20 39.6363C20 42.4359 21.3952 44.0982 21.729 44.4847C21.729 44.4847 23.6396 44.4847 24.1491 44.4847H26.9977C28.5642 44.4847 30.4346 44.4847 31.4436 44.4847C32.0218 44.4847 33.2874 41.9747 33.2874 40.9496C33.2874 39.1466 32.3326 36.6395 32.3326 36.6395C32.3875 35.3987 32.8805 34.4921 34.9011 33.6236C38.5646 32.0488 46.6221 31.9781 50 31.9781C53.3778 31.9781 61.4354 32.0489 65.0989 33.6236C67.1195 34.4921 67.6125 35.3987 67.6674 36.6395C67.6674 36.6395 66.7126 39.1466 66.7126 40.9496C66.7126 41.9747 67.9783 44.4847 68.5564 44.4847C69.5649 44.4847 71.4352 44.4847 73.0023 44.4847H75.8509C76.3604 44.4847 78.271 44.4847 78.271 44.4847C78.6048 44.0982 80 42.4358 80 39.6363C80 34.5304 75.4278 30.1962 70.8617 28.2598Z" fill="#2F5BC1"/>
</svg>
