<svg width="49" height="50" viewBox="0 0 49 50" fill="none" xmlns="http://www.w3.org/2000/svg">
<path d="M24.5345 49.4362C38.022 49.4362 48.9557 38.5024 48.9557 25.015C48.9557 11.5275 38.022 0.59375 24.5345 0.59375C11.047 0.59375 0.113281 11.5275 0.113281 25.015C0.113281 38.5024 11.047 49.4362 24.5345 49.4362Z" fill="#FE1322"/>
<path d="M36.314 19.1961V13.8298C36.314 12.2153 34.9951 10.8965 33.3807 10.8965H15.7356C14.1211 10.8965 12.8023 12.2153 12.8023 13.8298V19.1961C11.4607 19.4689 10.4375 20.6513 10.4375 22.0839V23.2663C10.4375 24.244 11.2334 25.0399 12.2111 25.0399H12.8023V33.8624C12.8023 35.2722 13.8255 36.4774 15.1671 36.7502V37.3869C15.1671 38.3647 15.963 39.1605 16.9407 39.1605H19.3055C20.2833 39.1605 21.0791 38.3647 21.0791 37.3869V36.7957H28.1508V37.3869C28.1508 38.3647 28.9467 39.1605 29.9244 39.1605H32.2893C33.267 39.1605 34.0629 38.3647 34.0629 37.3869V36.7502C35.4044 36.4774 36.4277 35.295 36.4277 33.8624V25.0399H37.0189C37.9966 25.0399 38.7925 24.244 38.7925 23.2663V22.0839C38.7925 20.6741 37.7692 19.4689 36.4277 19.1961H36.314ZM18.1913 33.3849C17.1454 33.3849 16.304 32.5436 16.304 31.4976C16.304 30.4516 17.1454 29.6103 18.1913 29.6103C19.2373 29.6103 20.0786 30.4516 20.0786 31.4976C20.0786 32.5436 19.2373 33.3849 18.1913 33.3849ZM30.9022 33.3849C29.8562 33.3849 29.0149 32.5436 29.0149 31.4976C29.0149 30.4516 29.8562 29.6103 30.9022 29.6103C31.9482 29.6103 32.7895 30.4516 32.7895 31.4976C32.7895 32.5436 31.9482 33.3849 30.9022 33.3849ZM33.9719 25.6083C33.9719 26.5861 33.1761 27.3819 32.1983 27.3819H16.8953C15.9175 27.3819 15.1216 26.5861 15.1216 25.6083V19.719C15.1216 18.7413 15.9175 17.9454 16.8953 17.9454H32.1983C33.1761 17.9454 33.9719 18.7413 33.9719 19.719V25.6083Z" fill="white"/>
</svg>
