<svg width="110" height="104" viewBox="0 0 110 104" fill="none" xmlns="http://www.w3.org/2000/svg">
<g clip-path="url(#clip0_2981_31271)">
<path d="M40.5644 35.9153L60.7383 24.4356C61.7522 23.8604 62.1003 22.5845 61.5166 21.5853C60.9329 20.586 59.6385 20.2429 58.6246 20.8182C58.6246 20.8182 58.6219 20.8182 58.6219 20.8195L38.448 32.2992C37.4341 32.8745 37.086 34.1503 37.6697 35.1496C38.2534 36.1488 39.5479 36.4919 40.5617 35.9166C40.5617 35.9166 40.5644 35.9166 40.5644 35.9153Z" fill="#FF8201"/>
<path d="M42.5391 37.1998L60.8785 26.7637L62.4668 29.4744L44.1274 39.9105L42.5391 37.1998Z" fill="#FF8201"/>
<path d="M81.3787 65.4637L78.6561 68.6611C78.2802 69.102 78.3384 69.7608 78.7858 70.1313C79.2332 70.5017 79.9016 70.4443 80.2775 70.0034L83.0001 66.8048C83.376 66.3638 83.3177 65.7051 82.8704 65.3346C82.423 64.9641 81.7546 65.0202 81.3787 65.4624V65.4637Z" fill="#FF8201"/>
<path d="M74.5492 67.8036C75.1249 67.9041 75.6742 67.5245 75.7761 66.957L76.5107 62.8465C76.6126 62.279 76.2275 61.7377 75.6517 61.6372C75.076 61.5368 74.5267 61.9164 74.4248 62.4838L73.6902 66.5943C73.5883 67.1618 73.9734 67.7032 74.5492 67.8036Z" fill="#FF8201"/>
<path d="M86.4601 71.0774L82.4801 72.5045C81.9321 72.7067 81.6555 73.3081 81.8607 73.8482C82.0632 74.3804 82.6601 74.6544 83.2041 74.4652L87.1841 73.0381C87.7321 72.8359 88.0087 72.2345 87.8035 71.6944C87.601 71.1622 87.0041 70.8882 86.4601 71.0774Z" fill="#FF8201"/>
<path d="M78.3521 74.1464C78.3521 72.418 76.9293 71.0156 75.1755 71.0156H56.116C54.3623 71.0156 52.9395 72.418 52.9395 74.1464V76.2337H78.3521V74.1464Z" fill="#FF8201"/>
<path d="M78.3527 78.3203H52.94C51.7699 78.3203 50.8223 79.2543 50.8223 80.4075V82.4947C50.8223 83.0713 51.2961 83.5384 51.8811 83.5384H79.4115C79.9965 83.5384 80.4704 83.0713 80.4704 82.4947V80.4075C80.4704 79.2543 79.5227 78.3203 78.3527 78.3203Z" fill="#FF8201"/>
<path d="M53.5542 62.265C54.1393 63.263 55.4337 63.6048 56.4476 63.0295L72.9049 53.6644C71.2915 53.1648 69.7773 52.3964 68.4286 51.3906L54.3285 59.4134C53.316 59.99 52.9692 61.2658 53.5529 62.265H53.5542Z" fill="#FF8201"/>
<path d="M51.5413 52.5656L63.7486 45.6191C61.8586 41.446 62.073 36.6402 64.3257 32.6458L63.5289 31.2852L45.1895 41.7212L51.5413 52.5669V52.5656Z" fill="#FF8201"/>
<path d="M52.5996 54.3722L54.1879 57.083L66.7341 49.9434C65.9836 49.1868 65.3192 48.3532 64.75 47.457L52.5996 54.3709V54.3722Z" fill="#FF8201"/>
<path d="M77.2942 52.2302C84.3118 52.2302 90.0006 46.6234 90.0006 39.7069C90.0006 32.7904 84.3118 27.1836 77.2942 27.1836C70.2766 27.1836 64.5879 32.7904 64.5879 39.7069C64.5879 46.6234 70.2766 52.2302 77.2942 52.2302ZM78.3531 40.7505H76.2354C74.4816 40.7492 73.0601 39.3481 73.0588 37.6197V35.5325C73.0601 33.804 74.4816 32.4029 76.2354 32.4016V31.358C76.2354 30.7814 76.7092 30.3144 77.2942 30.3144C77.8792 30.3144 78.3531 30.7814 78.3531 31.358V32.4016C80.1068 32.4029 81.5283 33.804 81.5297 35.5325C81.5297 36.109 81.0558 36.5761 80.4708 36.5761C79.8858 36.5761 79.412 36.109 79.412 35.5325C79.412 34.9559 78.9381 34.4888 78.3531 34.4888H76.2354C75.6503 34.4888 75.1765 34.9559 75.1765 35.5325V37.6197C75.1765 38.1963 75.6503 38.6633 76.2354 38.6633H78.3531C80.1068 38.6646 81.5283 40.0656 81.5297 41.7941V43.8813C81.5283 45.6098 80.1068 47.0108 78.3531 47.0121V48.0557C78.3531 48.6323 77.8792 49.0994 77.2942 49.0994C76.7092 49.0994 76.2354 48.6323 76.2354 48.0557V47.0121C74.4816 47.0108 73.0601 45.6098 73.0588 43.8813C73.0588 43.3047 73.5326 42.8377 74.1176 42.8377C74.7027 42.8377 75.1765 43.3047 75.1765 43.8813C75.1765 44.4579 75.6503 44.9249 76.2354 44.9249H78.3531C78.9381 44.9249 79.412 44.4579 79.412 43.8813V41.7941C79.412 41.2175 78.9381 40.7505 78.3531 40.7505Z" fill="#FF8201"/>
<path d="M40.7441 46.6575L44.4118 44.5703L48.6472 51.7999L44.9796 53.8871L40.7441 46.6575Z" fill="#FF8201"/>
<path d="M26.2891 64.125L43.1462 54.9308L38.9108 47.7012L22.1874 56.8171C20.1716 57.9155 19.4158 60.3993 20.4852 62.4108C21.5891 64.4863 24.2098 65.2612 26.2905 64.1263L26.2891 64.125Z" fill="#FF8201"/>
</g>
<defs>
<clipPath id="clip0_2981_31271">
<rect width="70" height="63" fill="white" transform="translate(20 20.5391)"/>
</clipPath>
</defs>
</svg>
