<svg width="39" height="49" viewBox="0 0 39 49" fill="none" xmlns="http://www.w3.org/2000/svg">
<g clip-path="url(#clip0_2910_131372)">
<path d="M14.2989 11.8416V0.707031L1.51172 13.5138H12.6291C13.8307 13.5138 14.2989 13.0449 14.2989 11.8416Z" fill="#2F5BC1"/>
<path d="M36.1137 0.0507812H16.7713V13.3303C16.7713 14.7953 15.5812 15.9881 14.1183 15.9881H0.886719V46.7798C0.886719 47.9745 1.85751 48.9477 3.05145 48.9477H36.1137C37.3077 48.9477 38.2794 47.9755 38.2794 46.7798V2.21676C38.2794 1.02203 37.3077 0.0507812 36.1137 0.0507812ZM23.3141 11.1557H29.5194C30.1059 11.1557 30.5808 11.6313 30.5808 12.2187C30.5808 12.806 30.1059 13.2816 29.5194 13.2816H23.3141C22.7277 13.2816 22.2528 12.806 22.2528 12.2187C22.2528 11.6313 22.7277 11.1557 23.3141 11.1557ZM30.5531 41.5196H8.61301C7.97313 41.5196 7.45435 41 7.45435 40.3592C7.45435 39.7184 7.97313 39.1989 8.61301 39.1989H30.5531C31.193 39.1989 31.7118 39.7184 31.7118 40.3592C31.7118 41 31.193 41.5196 30.5531 41.5196ZM30.5531 32.1059H8.61206C7.97217 32.1059 7.4534 31.5864 7.4534 30.9456C7.4534 30.3048 7.97217 29.7853 8.61206 29.7853H30.5522C31.1921 29.7853 31.7108 30.3048 31.7108 30.9456C31.7108 31.5864 31.1921 32.1059 30.5522 32.1059H30.5531ZM30.5531 22.6933H8.61301C7.97313 22.6933 7.45435 22.1738 7.45435 21.5329C7.45435 20.8921 7.97313 20.3726 8.61301 20.3726H30.5531C31.193 20.3726 31.7118 20.8921 31.7118 21.5329C31.7118 22.1738 31.193 22.6933 30.5531 22.6933Z" fill="#2F5BC1"/>
</g>
<defs>
<clipPath id="clip0_2910_131372">
<rect width="37.3918" height="48.8969" fill="white" transform="translate(0.886719 0.0507812)"/>
</clipPath>
</defs>
</svg>
