<svg width="14" height="14" viewBox="0 0 14 14" fill="none" xmlns="http://www.w3.org/2000/svg">
<path d="M0.962402 3.21289V10.7879C0.962402 12.0254 1.97489 13.0379 3.2124 13.0379H10.7874C12.0249 13.0379 13.0374 12.0254 13.0374 10.7879V7.79538C13.0374 7.38289 12.6999 7.04538 12.2874 7.04538C11.8749 7.04538 11.5374 7.38289 11.5374 7.79538V10.7879C11.5374 11.2004 11.1999 11.5379 10.7874 11.5379H3.2124C2.79991 11.5379 2.4624 11.2004 2.4624 10.7879V3.21289C2.4624 2.80035 2.79991 2.46289 3.2124 2.46289H6.23488C6.64742 2.46289 6.98488 2.12538 6.98488 1.71289C6.98488 1.30035 6.64742 0.962891 6.23488 0.962891H3.2124C1.97489 0.962891 0.962402 1.97538 0.962402 3.21289Z" fill="white"/>
<path d="M12.2874 5.83789C12.6999 5.83789 13.0374 5.50038 13.0374 5.08789V1.71289C13.0374 1.30035 12.6999 0.962891 12.2874 0.962891H8.91239C8.4999 0.962891 8.16239 1.30035 8.16239 1.71289C8.16239 2.12538 8.4999 2.46289 8.91239 2.46289H10.4799L7.21738 5.71787C6.92492 6.01038 6.92492 6.49039 7.21738 6.78285C7.36739 6.92535 7.55489 7.00038 7.7499 7.00038C7.9449 7.00038 8.1324 6.92535 8.28241 6.78285L11.5374 3.52037V5.08789C11.5374 5.50038 11.8749 5.83789 12.2874 5.83789Z" fill="white"/>
</svg>
