<svg width="110" height="110" viewBox="0 0 110 110" fill="none" xmlns="http://www.w3.org/2000/svg">
<rect width="110" height="110" rx="55" fill="white"/>
<path d="M78.6697 70.006C79.7453 69.1247 80.4349 67.7852 80.4349 66.289C80.4349 64.8898 79.8324 63.6275 78.8739 62.7486C79.322 60.8689 79.5511 58.9319 79.5511 56.9825C79.5511 51.3383 77.7013 46.0205 74.2032 41.6036C70.872 37.3985 66.2114 34.3561 61.0526 33.0094C60.2135 31.9239 59.1006 31.06 57.816 30.5247C58.8915 29.6434 59.5812 28.3039 59.5812 26.8076C59.5812 24.1561 57.4251 22 54.7785 22C52.1295 22 49.9759 24.1561 49.9759 26.8076C49.9759 28.3039 50.663 29.6434 51.741 30.5247C50.4564 31.06 49.3435 31.9214 48.5045 33.0094C43.3458 34.3563 38.6853 37.4012 35.3538 41.6036C31.8558 46.0178 30.0059 51.3361 30.0059 56.9825C30.0059 58.9244 30.235 60.8564 30.6807 62.7361C29.7246 63.615 29.1246 64.8748 29.1246 66.274C29.1246 67.7703 29.8142 69.1097 30.8898 69.9911C28.0216 71.1861 26 74.0194 26 77.3131C26 77.7811 26.3784 78.1595 26.8465 78.1595L41.0055 78.162C41.2221 78.162 41.4163 78.0799 41.5656 77.9479C45.5193 80.4426 50.0553 81.7572 54.7711 81.7572C59.4866 81.7572 64.0231 80.4451 67.9715 77.9504C68.1234 78.0898 68.3226 78.1745 68.5441 78.1745H82.7108C83.1788 78.1745 83.5572 77.796 83.5572 77.328C83.5572 74.0316 81.5356 71.1984 78.665 70.0034L78.6697 70.006ZM75.6298 69.3986C73.9144 69.3986 72.5202 68.0043 72.5202 66.2889C72.5202 64.5735 73.9144 63.1793 75.6298 63.1793C77.3452 63.1793 78.7395 64.5735 78.7395 66.2889C78.7395 68.0043 77.3452 69.3986 75.6298 69.3986ZM51.6619 26.8101C51.6619 25.0947 53.0561 23.6955 54.7715 23.6955C56.4869 23.6955 57.8811 25.0922 57.8811 26.8101C57.8811 28.528 56.4869 29.9197 54.7715 29.9197C53.0561 29.9197 51.6619 28.5255 51.6619 26.8101ZM54.7715 31.6127C57.9234 31.6127 60.5376 33.963 60.9509 37.0029H48.5918C49.0051 33.963 51.6196 31.6127 54.7715 31.6127ZM30.8105 66.2743C30.8105 64.5589 32.2073 63.1598 33.9251 63.1598C35.643 63.1598 37.0348 64.5565 37.0348 66.2743C37.0348 67.9922 35.6405 69.384 33.9251 69.384C32.2097 69.384 30.8105 67.9897 30.8105 66.2743ZM27.7432 76.467C28.1565 73.4271 30.7707 71.0769 33.9227 71.0769C37.0746 71.0769 39.6888 73.4271 40.1021 76.467H27.7432ZM41.7505 76.0413C41.3074 73.3001 39.455 71.027 36.9629 69.9913C38.0384 69.11 38.728 67.7705 38.728 66.2742C38.728 63.6227 36.572 61.4666 33.9254 61.4666C33.3179 61.4666 32.7353 61.5811 32.1976 61.7878C31.864 60.2118 31.6922 58.601 31.6922 56.9802C31.6922 47.0016 38.0284 38.2749 47.3247 35.1257C47.0135 35.9747 46.8417 36.8934 46.8417 37.8494C46.8417 38.3175 47.2202 38.6959 47.6882 38.6959H61.8548C62.3229 38.6959 62.7013 38.3174 62.7013 37.8494C62.7013 36.8934 62.532 35.9747 62.2183 35.1257C71.5149 38.2752 77.8509 47.0042 77.8509 56.9802C77.8509 58.606 77.6791 60.2242 77.343 61.8002C76.8077 61.5961 76.2301 61.4815 75.6251 61.4815C72.9761 61.4815 70.8224 63.6376 70.8224 66.2842C70.8224 67.7805 71.5096 69.1199 72.5876 70.0013C70.1029 71.037 68.2555 73.3001 67.8049 76.0288C63.9609 78.6679 59.4619 80.0596 54.7715 80.0596C50.0809 80.0596 45.5948 78.6703 41.7477 76.0363L41.7505 76.0413ZM69.4509 76.4795C69.8642 73.4396 72.4783 71.0893 75.6303 71.0893C78.7822 71.0893 81.3964 73.4396 81.8097 76.4795H69.4509ZM67.3297 55.8124C68.3803 54.6945 69.0924 52.9965 69.0924 50.7459H69.0899C69.0899 50.6164 69.06 50.4845 68.9978 50.365L65.6093 43.7224C65.4649 43.4386 65.1736 43.2593 64.8549 43.2593H44.6882C44.3695 43.2593 44.0782 43.4386 43.9338 43.7224L40.5453 50.365C40.4831 50.487 40.4532 50.6214 40.4532 50.7534H40.4507C40.4507 53.004 41.1628 54.6995 42.2134 55.8174V68.5723C42.2258 70.3349 43.2566 70.6959 44.8027 70.6959H64.6826C66.3009 70.6959 67.3067 70.3399 67.3266 68.5673V55.8124L67.3297 55.8124ZM42.1915 51.5973H49.3943C49.108 54.4231 47.3951 55.7203 45.7918 55.7203C44.1884 55.7203 42.4753 54.4231 42.1915 51.5973ZM63.7547 55.7153C62.1539 55.7153 60.441 54.4181 60.1546 51.5973H67.3549C67.0686 54.4207 65.3556 55.7153 63.7547 55.7153ZM45.2088 44.9547H64.3398L66.8643 49.9017L42.6841 49.9067L45.2087 44.9597L45.2088 44.9547ZM58.3767 51.5973C58.0904 54.4206 56.3775 55.7177 54.7741 55.7177C53.1708 55.7177 51.4579 54.4205 51.1716 51.5973H58.3767ZM53.1209 69.0004H47.8552V60.3986H53.1209V69.0004ZM65.6068 68.9183C65.5222 68.9481 65.2906 69.0004 64.6856 69.0004H54.8142V60.2992C54.8142 59.4203 54.0997 58.7033 53.2183 58.7033H47.7535C46.8746 58.7033 46.1576 59.4178 46.1576 60.2992V69.0004H44.8032C44.2405 69.0004 44.0189 68.9531 43.9367 68.9257C43.9243 68.8759 43.9094 68.7689 43.9094 68.5672V57.0201C44.5119 57.2816 45.1517 57.416 45.7891 57.416C47.2157 57.416 48.5377 56.7961 49.5162 55.6707C49.8099 55.3321 50.0664 54.9562 50.2805 54.5454C50.4971 54.9562 50.751 55.3297 51.0448 55.6682C52.0233 56.7935 53.3453 57.4135 54.7719 57.4135C56.5072 57.4135 58.255 56.435 59.2583 54.5354C59.4749 54.9487 59.7314 55.3272 60.0276 55.6682C61.0061 56.7935 62.3281 57.4135 63.7547 57.4135C64.3921 57.4135 65.0319 57.2791 65.6344 57.0177V58.7081H58.5036C57.7243 58.7081 57.092 59.3405 57.092 60.1223V65.6295C57.092 66.4088 57.7244 67.0411 58.5036 67.0411H65.6344V68.5623C65.632 68.769 65.617 68.876 65.6046 68.9258L65.6068 68.9183ZM65.6367 60.3961V65.3406H58.7876V60.3961H65.6367Z" fill="#555555"/>
</svg>
