<svg width="49" height="49" viewBox="0 0 49 49" fill="none" xmlns="http://www.w3.org/2000/svg">
<path d="M24.5345 48.985C38.022 48.985 48.9557 38.0513 48.9557 24.5638C48.9557 11.0763 38.022 0.142578 24.5345 0.142578C11.047 0.142578 0.113281 11.0763 0.113281 24.5638C0.113281 38.0513 11.047 48.985 24.5345 48.985Z" fill="#5C616E"/>
<path d="M36.314 18.7449V13.3786C36.314 11.7641 34.9951 10.4453 33.3807 10.4453H15.7356C14.1211 10.4453 12.8023 11.7641 12.8023 13.3786V18.7449C11.4607 19.0177 10.4375 20.2002 10.4375 21.6327V22.8151C10.4375 23.7928 11.2334 24.5887 12.2111 24.5887H12.8023V33.4113C12.8023 34.821 13.8255 36.0262 15.1671 36.299V36.9357C15.1671 37.9135 15.963 38.7093 16.9407 38.7093H19.3055C20.2833 38.7093 21.0791 37.9135 21.0791 36.9357V36.3445H28.1508V36.9357C28.1508 37.9135 28.9467 38.7093 29.9244 38.7093H32.2893C33.267 38.7093 34.0629 37.9135 34.0629 36.9357V36.299C35.4044 36.0262 36.4277 34.8438 36.4277 33.4113V24.5887H37.0189C37.9966 24.5887 38.7925 23.7928 38.7925 22.8151V21.6327C38.7925 20.2229 37.7692 19.0177 36.4277 18.7449H36.314ZM18.1913 32.9337C17.1454 32.9337 16.304 32.0924 16.304 31.0464C16.304 30.0005 17.1454 29.1591 18.1913 29.1591C19.2373 29.1591 20.0786 30.0005 20.0786 31.0464C20.0786 32.0924 19.2373 32.9337 18.1913 32.9337ZM30.9022 32.9337C29.8562 32.9337 29.0149 32.0924 29.0149 31.0464C29.0149 30.0005 29.8562 29.1591 30.9022 29.1591C31.9482 29.1591 32.7895 30.0005 32.7895 31.0464C32.7895 32.0924 31.9482 32.9337 30.9022 32.9337ZM33.9719 25.1572C33.9719 26.1349 33.1761 26.9308 32.1983 26.9308H16.8953C15.9175 26.9308 15.1216 26.1349 15.1216 25.1572V19.2679C15.1216 18.2901 15.9175 17.4943 16.8953 17.4943H32.1983C33.1761 17.4943 33.9719 18.2901 33.9719 19.2679V25.1572Z" fill="white"/>
</svg>
