<svg width="21" height="18" viewBox="0 0 21 18" fill="none" xmlns="http://www.w3.org/2000/svg">
<path d="M9.49314 16.9386C9.25772 16.7329 9.13444 16.4711 9.12331 16.1531C9.11304 15.8352 9.22561 15.5734 9.46103 15.3677L15.7532 9.8693H1.40325C1.03942 9.8693 0.734229 9.76158 0.48768 9.54614C0.241987 9.33144 0.119141 9.06512 0.119141 8.74719C0.119141 8.42926 0.241987 8.16257 0.48768 7.94713C0.734229 7.73243 1.03942 7.62508 1.40325 7.62508H15.7532L9.46103 2.12673C9.22561 1.92101 9.11304 1.65918 9.12331 1.34125C9.13444 1.02332 9.25772 0.761493 9.49314 0.555773C9.72856 0.350052 10.0282 0.247192 10.392 0.247192C10.7558 0.247192 11.0555 0.350052 11.2909 0.555773L19.766 7.96171C19.8944 8.05522 19.9856 8.17192 20.0395 8.31181C20.0926 8.45245 20.1191 8.59758 20.1191 8.74719C20.1191 8.89681 20.0926 9.03707 20.0395 9.16798C19.9856 9.2989 19.8944 9.42046 19.766 9.53267L11.2909 16.9386C11.0555 17.1443 10.7558 17.2472 10.392 17.2472C10.0282 17.2472 9.72856 17.1443 9.49314 16.9386Z" fill="white"/>
</svg>
