<svg width="113" height="114" viewBox="0 0 113 114" fill="none" xmlns="http://www.w3.org/2000/svg">
<g clip-path="url(#clip0_2981_29718)">
<path d="M77.4859 47.847L73.1328 48.7266L76.7434 67.0968L81.0965 66.2173L77.4859 47.847Z" fill="#FF8201"/>
<path d="M32.0163 80.5174H32.022C34.1247 80.516 35.8352 78.7817 35.8352 76.6484C35.8352 74.515 34.1233 72.7793 32.0192 72.7793C29.915 72.7793 28.2031 74.515 28.2031 76.6484C28.2031 78.7817 29.9136 80.516 32.0163 80.5174Z" fill="#FF8201"/>
<path d="M32.0196 33.0117C28.0232 33.0117 24.6309 36.0376 24.0684 39.9952H39.9709C39.4084 36.0362 36.016 33.0117 32.0196 33.0117Z" fill="#FF8201"/>
<path d="M59.3328 48.3373C58.1133 47.3171 56.6117 47.2605 55.5082 48.1951L49.1443 53.5822C48.805 53.8695 48.4286 54.3412 48.5631 54.9638L50.225 62.6874C52.9446 61.5583 53.1407 59.3016 53.4012 56.3033C53.4226 56.0639 53.4427 55.8215 53.4656 55.5806C53.4656 55.5719 53.467 55.5617 53.4684 55.553C53.5615 54.749 54.0281 54.1337 54.7452 53.8623C56.1623 53.3253 58.3208 54.2628 60.6682 56.431C60.684 56.4455 60.6983 56.46 60.7126 56.4746L71.6412 67.716L74.0473 65.2765L71.2876 51.2297C68.1472 52.1745 64.115 52.337 59.3328 48.3373Z" fill="#FF8201"/>
<path d="M81.9547 32.0087C84.0588 32.0087 85.7707 30.273 85.7707 28.1411C85.7707 26.0091 84.0588 24.2734 81.9547 24.2734C79.8506 24.2734 78.1387 26.0091 78.1387 28.1411C78.1387 30.273 79.8506 32.0087 81.9547 32.0087Z" fill="#FF8201"/>
<path d="M89.9045 41.3116C89.342 37.3526 85.9496 34.3281 81.9532 34.3281C77.9568 34.3281 74.5645 37.354 74.002 41.3116H89.9045Z" fill="#FF8201"/>
<path d="M35.519 47.8529L31.9082 66.2246L36.2613 67.1041L39.8721 48.7324L35.519 47.8529Z" fill="#FF8201"/>
<path d="M70.6819 70.0369L59.1021 58.1249C57.4589 56.6127 56.2337 56.096 55.7227 56.0351C55.7084 56.1918 55.6955 56.3485 55.6812 56.5053C55.3777 59.9985 55.0342 63.959 49.6479 65.3043C49.3473 65.3783 49.031 65.3275 48.7691 65.1621C48.5071 64.9966 48.3225 64.7296 48.2552 64.4248L46.3243 55.456C46.0337 54.1034 46.5261 52.7697 47.6755 51.7974L49.4618 50.2852H41.8985L38.9141 65.477L50.8417 77.5704C51.1351 77.8679 51.5288 78.0319 51.9496 78.0319C52.3704 78.0319 52.764 77.8679 53.0575 77.5704C53.3509 77.2729 53.5126 76.8738 53.5126 76.4471C53.5126 76.0204 53.3509 75.6213 53.0575 75.3238L49.8512 72.073C49.4046 71.6202 49.4046 70.8844 49.8512 70.4316C50.2978 69.9788 51.0235 69.9788 51.4701 70.4316L58.3664 77.4238C58.9776 78.0435 59.971 78.0435 60.5822 77.4238C61.1934 76.8041 61.1934 75.7969 60.5822 75.1772L54.1424 68.648C53.6958 68.1952 53.6958 67.4594 54.1424 67.0066C54.589 66.5538 55.3147 66.5538 55.7613 67.0066L64.2923 75.6561C64.5857 75.9537 64.9794 76.1176 65.4002 76.1176C65.821 76.1176 66.2146 75.9537 66.5081 75.6561C67.1193 75.0365 67.1193 74.0293 66.5081 73.4096L58.4337 65.223C57.9871 64.7702 57.9871 64.0344 58.4337 63.5816C58.8803 63.1288 59.606 63.1288 60.0526 63.5816L68.1269 71.7682C68.7381 72.3879 69.7315 72.3879 70.3427 71.7682C70.7879 71.3169 70.9181 70.6217 70.6791 70.0354L70.6819 70.0369Z" fill="#FF8201"/>
<path d="M32.0192 30.6893C34.1233 30.6893 35.8352 28.9536 35.8352 26.8202C35.8352 24.6869 34.1233 22.9512 32.0192 22.9512C29.915 22.9512 28.2031 24.6869 28.2031 26.8202C28.2031 28.9536 29.915 30.6893 32.0192 30.6893Z" fill="#FF8201"/>
<path d="M81.9561 82.8398H81.9504C77.9554 82.8413 74.5645 85.8657 74.002 89.8233H89.9045C89.342 85.8657 85.9511 82.8413 81.9561 82.8398Z" fill="#FF8201"/>
<path d="M32.0225 82.8398H32.0168C28.0218 82.8413 24.6309 85.8657 24.0684 89.8233H39.9709C39.4084 85.8657 36.0175 82.8413 32.0225 82.8398Z" fill="#FF8201"/>
<path d="M81.9518 80.5174H81.9576C84.0603 80.516 85.7707 78.7817 85.7707 76.6484C85.7707 74.515 84.0588 72.7793 81.9547 72.7793C79.8506 72.7793 78.1387 74.515 78.1387 76.6484C78.1387 78.7803 79.8492 80.516 81.9518 80.5174Z" fill="#FF8201"/>
<path d="M91.2669 67.2874L90.4166 67.804C91.6361 64.1396 92.2559 60.3112 92.2559 56.3884C92.2559 52.9794 91.7807 49.6023 90.8446 46.3515C90.6671 45.7361 90.0316 45.3835 89.4247 45.562C88.8178 45.7419 88.4699 46.3863 88.646 47.0016C89.522 50.042 89.9657 53.2 89.9657 56.3884C89.9657 60.1849 89.3474 63.8842 88.1264 67.4166L87.5782 66.0248C87.3435 65.4283 86.6779 65.1395 86.0896 65.3761C85.5027 65.6141 85.2164 66.2889 85.4512 66.8854L87.0629 70.9794C87.1874 71.2958 87.4422 71.5396 87.76 71.6484C87.8788 71.6891 88.0033 71.7094 88.1264 71.7094C88.3311 71.7094 88.5358 71.6528 88.7147 71.544L92.4449 69.2785C92.9874 68.9491 93.1634 68.2365 92.8385 67.685C92.5136 67.135 91.8108 66.9565 91.2683 67.2859L91.2669 67.2874Z" fill="#FF8201"/>
<path d="M24.5866 70.5247C24.7727 70.963 25.195 71.2271 25.6387 71.2271C25.7904 71.2271 25.9436 71.1966 26.091 71.1313C26.6721 70.8774 26.9398 70.1953 26.6893 69.6061C24.9115 65.4235 24.0098 60.9754 24.0098 56.3879C24.0098 53.7046 24.3218 51.0546 24.9387 48.4771L25.6172 49.8094C25.8205 50.2085 26.2212 50.4378 26.6349 50.4378C26.8124 50.4378 26.9913 50.3957 27.1602 50.3072C27.7213 50.0125 27.9418 49.313 27.6512 48.7427L25.6544 44.8272C25.4998 44.5253 25.2236 44.3062 24.8958 44.2293C24.5694 44.1523 24.2245 44.2249 23.9554 44.4266L20.46 47.0491C19.9518 47.4307 19.8445 48.1578 20.2209 48.673C20.5974 49.1882 21.3145 49.2971 21.8226 48.9154L22.6213 48.316C22.0216 50.9501 21.7167 53.6523 21.7167 56.3879C21.7167 61.2947 22.6815 66.0505 24.5838 70.5261L24.5866 70.5247Z" fill="#FF8201"/>
<path d="M69.8736 88.4528C69.6546 87.852 68.9962 87.5443 68.4036 87.7663C64.7536 89.132 60.9132 89.8242 56.9884 89.8242C54.0169 89.8242 51.0911 89.4251 48.2613 88.6385L49.5939 87.9898C50.1636 87.7126 50.4041 87.0189 50.1307 86.4399C49.8573 85.8623 49.1731 85.6185 48.6034 85.8957L44.6843 87.8055C44.3823 87.9536 44.159 88.2278 44.0731 88.5558C43.9872 88.8853 44.0488 89.235 44.2406 89.5151L46.724 93.1331C46.9459 93.4567 47.3023 93.6309 47.6644 93.6309C47.8906 93.6309 48.1182 93.5627 48.3171 93.4219C48.8367 93.0562 48.9641 92.332 48.6034 91.8052L48.0366 90.9794C50.9451 91.7515 53.9453 92.1434 56.9898 92.1434C61.1852 92.1434 65.2932 91.4032 69.198 89.9418C69.792 89.7197 70.0955 89.0522 69.8765 88.4513L69.8736 88.4528Z" fill="#FF8201"/>
<path d="M41.6027 26.8074C46.3091 24.2851 51.6295 22.9529 56.9885 22.9529C61.4788 22.9529 65.9375 23.8904 70.0341 25.6784L68.6313 26.1326C68.0287 26.3271 67.6966 26.9801 67.8884 27.5911C68.043 28.0845 68.4939 28.3995 68.9792 28.3995C69.0951 28.3995 69.211 28.3821 69.327 28.3443L73.4694 27.0034C73.7886 26.9003 74.0476 26.6594 74.1779 26.3459C74.3067 26.0325 74.2953 25.6769 74.1435 25.3721L72.1783 21.4407C71.892 20.8689 71.2035 20.6396 70.6395 20.9298C70.0756 21.2201 69.8494 21.9181 70.1357 22.4899L70.5852 23.3897C66.2996 21.5785 61.6591 20.6309 56.9871 20.6309C51.2573 20.6309 45.5662 22.0575 40.5321 24.7539C39.9724 25.0543 39.7591 25.7567 40.0554 26.3227C40.3503 26.8902 41.0431 27.1064 41.6027 26.8074Z" fill="#FF8201"/>
</g>
<defs>
<clipPath id="clip0_2981_29718">
<rect width="73" height="73" fill="white" transform="translate(20 20.6309)"/>
</clipPath>
</defs>
</svg>
