<svg width="30" height="31" viewBox="0 0 30 31" fill="none" xmlns="http://www.w3.org/2000/svg">
<path d="M4.39225 4.93131C-1.46459 10.7912 -1.46459 20.2877 4.39528 26.1445C10.2552 32.0014 19.7517 32.0014 25.6085 26.1415C28.4202 23.3268 30.0004 19.5112 30.0004 15.5349C30.0004 11.5555 28.4202 7.74296 25.6055 4.93131C19.7456 -0.925527 10.2491 -0.925526 4.39225 4.93435V4.93131Z" fill="#FFB724"/>
<path d="M14.5392 24.994C14.7454 25.2519 15.1185 25.2913 15.3763 25.085C15.4097 25.0577 15.44 25.0274 15.4673 24.994C15.4825 24.9758 16.9899 23.0923 18.4731 20.8266C20.5113 17.7208 21.5456 15.3944 21.5456 13.9173C21.5456 10.308 18.6126 7.375 15.0032 7.375C11.3939 7.375 8.46094 10.308 8.46094 13.9173C8.46094 15.3974 9.49521 17.7238 11.5334 20.8266C13.0166 23.0893 14.524 24.9728 14.5392 24.994ZM15.0032 10.5476C16.8655 10.5476 18.373 12.055 18.373 13.9173C18.373 15.7796 16.8655 17.287 15.0032 17.287C13.1409 17.287 11.6335 15.7796 11.6335 13.9173C11.6335 12.058 13.144 10.5506 15.0032 10.5476Z" fill="white"/>
</svg>
