<svg width="158" height="160" viewBox="0 0 158 160" fill="none" xmlns="http://www.w3.org/2000/svg">
<path d="M103.918 116.006C100.038 116.006 96.3915 114.643 93.6443 112.174C90.5572 109.397 88.8225 105.408 88.6172 100.64C88.6172 99.8336 88.688 99.0057 88.8225 98.1992C90.0545 90.691 96.4128 85.2383 103.953 85.2383C104.789 85.2383 105.639 85.3097 106.474 85.4453C113.852 86.7085 119.219 93.1033 119.219 100.647C118.801 111.189 110.998 115.992 103.918 115.992V116.006ZM97.404 98.9557C96.965 98.9557 96.5473 99.127 96.2357 99.4411C95.9242 99.7551 95.7543 100.176 95.7543 100.619C95.7543 101.061 95.9242 101.475 96.2357 101.789L100.59 106.178C100.902 106.493 101.319 106.657 101.751 106.657C102.183 106.657 102.601 106.485 102.913 106.178L111.614 97.4141C112.238 96.7575 112.23 95.7441 111.614 95.1017C111.303 94.7734 110.878 94.595 110.425 94.595C109.972 94.595 109.589 94.7591 109.278 95.066L101.751 102.653L98.5794 99.4411C98.2678 99.127 97.8501 98.9557 97.4111 98.9557H97.404Z" fill="#FF8201"/>
<path d="M53.777 116.078C51.752 116.078 50.1094 114.415 50.1094 112.381V46.8767C50.1094 44.8355 51.7591 43.1797 53.777 43.1797H102.512C104.537 43.1797 106.179 44.8426 106.179 46.8767V82.0554C105.464 81.9697 104.742 81.9269 104.02 81.9198C93.7107 81.9198 85.3487 90.3201 85.3204 100.655C85.3275 106.8 88.3792 112.602 93.3567 116.078H53.77H53.777ZM74.0696 98.4421C73.6306 98.4421 73.2199 98.6205 72.9084 98.9346C72.5969 99.2486 72.4269 99.6626 72.4269 100.112V108.298C72.4269 109.212 73.1704 109.961 74.0767 109.961H82.2121C83.1184 109.961 83.8618 109.212 83.8618 108.298V100.112C83.8618 99.1915 83.1184 98.4493 82.2192 98.4493H74.0696V98.4421ZM57.8271 98.4421C57.3881 98.4421 56.9774 98.6205 56.6659 98.9346C56.3543 99.2486 56.1844 99.6626 56.1844 100.112V108.298C56.1844 109.212 56.9278 109.961 57.8341 109.961H65.9554C66.4086 109.961 66.8192 109.783 67.1237 109.469C67.4352 109.155 67.6051 108.741 67.5981 108.291V100.105C67.591 99.1772 66.8546 98.4421 65.9625 98.4421H57.82H57.8271ZM74.0696 82.0697C73.6306 82.0697 73.2199 82.2481 72.9084 82.5621C72.5969 82.8761 72.4269 83.2901 72.434 83.7397V91.926C72.434 92.8395 73.1774 93.5889 74.0837 93.5889H82.2192C83.1255 93.5889 83.8689 92.8395 83.8689 91.926V83.7397C83.8689 82.819 83.1255 82.0768 82.2262 82.0768H74.0767L74.0696 82.0697ZM57.8271 82.0697C57.3881 82.0697 56.9774 82.2481 56.6659 82.5621C56.3543 82.8761 56.1844 83.2901 56.1915 83.7397V91.926C56.1915 92.8395 56.9349 93.5889 57.8412 93.5889H65.9625C66.4156 93.5889 66.8263 93.4105 67.1308 93.0965C67.4423 92.7824 67.6122 92.3685 67.6051 91.9188V83.7326C67.5981 82.8048 66.8617 82.0697 65.9696 82.0697H57.8271ZM90.3263 65.6829C89.8873 65.6829 89.4766 65.8613 89.1651 66.1754C88.8535 66.4894 88.6836 66.9034 88.6907 67.353V75.5392C88.6978 76.467 89.4341 77.2022 90.3263 77.2022H98.4617C98.9148 77.2022 99.3255 77.0237 99.63 76.7097C99.9415 76.3957 100.111 75.9817 100.104 75.5392V67.353C100.104 66.4394 99.3609 65.6901 98.4546 65.6901H90.3192L90.3263 65.6829ZM74.0767 65.6829C73.1704 65.6829 72.434 66.4323 72.4269 67.3459V75.5321C72.4269 76.4528 73.1704 77.195 74.0696 77.195H82.2121C83.1325 77.195 83.8618 76.4456 83.8618 75.5321V67.3459C83.8618 66.4323 83.1184 65.6829 82.2121 65.6829H74.0767ZM57.8341 65.6829C56.9278 65.6829 56.1915 66.4323 56.1844 67.3459V75.5321C56.1844 76.4528 56.9278 77.195 57.8271 77.195H65.9554C66.4227 77.195 66.8334 77.0166 67.1378 76.7026C67.4423 76.3885 67.6122 75.9746 67.6051 75.5321V67.3459C67.6051 66.4252 66.8617 65.6829 65.9625 65.6829H57.8341ZM56.4818 47.9401C55.5755 47.9401 54.8391 48.6895 54.832 49.6031V60.5228C54.832 61.4363 55.5755 62.1857 56.4818 62.1857H99.8211C100.727 62.1857 101.471 61.4363 101.471 60.5228V49.6031C101.471 48.6895 100.727 47.9401 99.8211 47.9401H56.4818Z" fill="#FF8201"/>
<path d="M80.9165 101.426H75.3867V106.986H80.9165V101.426Z" fill="#FF8201"/>
<path d="M80.5703 101.775H75.7344V106.636H80.5703V101.775Z" fill="#FF8201"/>
<path d="M64.6602 101.426H59.1445V106.986H64.6602V101.426Z" fill="#FF8201"/>
<path d="M64.314 101.775H59.4922V106.636H64.314V101.775Z" fill="#FF8201"/>
<path d="M64.6602 85.0527H59.1445V90.6125H64.6602V85.0527Z" fill="#FF8201"/>
<path d="M64.314 85.3945H59.4922V90.2549H64.314V85.3945Z" fill="#FF8201"/>
<path d="M80.9165 85.0527H75.3867V90.6125H80.9165V85.0527Z" fill="#FF8201"/>
<path d="M80.5703 85.3945H75.7344V90.2549H80.5703V85.3945Z" fill="#FF8201"/>
<path d="M97.1641 68.6582H91.6484V74.218H97.1641V68.6582Z" fill="#FF8201"/>
<path d="M96.8218 69.0078H92V73.8682H96.8218V69.0078Z" fill="#FF8201"/>
<path d="M80.9165 68.6582H75.3867V74.218H80.9165V68.6582Z" fill="#FF8201"/>
<path d="M80.5703 69.0078H75.7344V73.8682H80.5703V69.0078Z" fill="#FF8201"/>
<path d="M64.6602 68.6602H59.1445V74.2199H64.6602V68.6602Z" fill="#FF8201"/>
<path d="M64.314 69.0078H59.4922V73.8682H64.314V69.0078Z" fill="#FF8201"/>
<path d="M98.1727 51.2656H58.1328V58.8595H98.1727V51.2656Z" fill="#FF8201"/>
</svg>
