<svg width="158" height="160" viewBox="0 0 158 160" fill="none" xmlns="http://www.w3.org/2000/svg">
<path d="M116.124 103.017H54.1912V40.5887C54.1912 39.1327 53.0229 37.9551 51.5785 37.9551H41.8783C40.4339 37.9551 39.2656 39.1327 39.2656 40.5887C39.2656 42.0446 40.4339 43.2222 41.8783 43.2222H48.9658V105.65C48.9658 107.106 50.1341 108.284 51.5785 108.284H116.124C117.568 108.284 118.736 107.106 118.736 105.65C118.736 104.194 117.568 103.017 116.124 103.017Z" fill="#FF8201"/>
<path d="M62.1665 121.309C64.9077 121.309 67.1299 119.069 67.1299 116.306C67.1299 113.543 64.9077 111.303 62.1665 111.303C59.4253 111.303 57.2031 113.543 57.2031 116.306C57.2031 119.069 59.4253 121.309 62.1665 121.309Z" fill="#FF8201"/>
<path d="M105.706 121.309C108.447 121.309 110.669 119.069 110.669 116.306C110.669 113.543 108.447 111.303 105.706 111.303C102.964 111.303 100.742 113.543 100.742 116.306C100.742 119.069 102.964 121.309 105.706 121.309Z" fill="#FF8201"/>
<path d="M60.4598 99.2274H112.99C114.087 99.2274 114.972 98.3352 114.972 97.229V44.2718C114.972 43.1656 114.087 42.2734 112.99 42.2734H94.4601C94.4743 42.3591 94.4955 42.4519 94.4955 42.5375V57.0044C94.4955 57.7395 93.9007 58.339 93.1714 58.339H80.285C79.5558 58.339 78.961 57.7395 78.961 57.0044V42.5375C78.961 42.4519 78.9752 42.3591 78.9964 42.2734H60.4669C59.3694 42.2734 58.4844 43.1656 58.4844 44.2718V97.2218C58.4844 98.3281 59.3694 99.2202 60.4669 99.2202L60.4598 99.2274ZM75.4208 77.5092L85.6945 67.6458C86.4804 66.8892 87.7337 66.9106 88.4842 67.6957L98.0428 77.5592C98.6021 78.1373 98.7579 79.0009 98.4464 79.736C98.1348 80.4711 97.4197 80.9636 96.6196 80.9636H92.0598V89.8849C92.0598 90.9912 91.1748 91.8833 90.0773 91.8833H83.3367C82.2392 91.8833 81.3542 90.9912 81.3542 89.8849V80.9493H76.7944C75.9731 80.9493 75.265 80.4568 74.9464 79.686C74.6703 78.9295 74.8402 78.073 75.4349 77.5092H75.4208Z" fill="#FF8201"/>
</svg>
