<svg width="40" height="40" viewBox="0 0 40 40" fill="none" xmlns="http://www.w3.org/2000/svg">
<rect x="-1" y="1" width="38" height="38" rx="19" transform="matrix(1 0 0 -1 2 40)" stroke="#BDBDBD" stroke-width="2"/>
<path d="M21.5347 24.7557L17.5558 22.5957C17.2021 22.9621 16.7853 23.2526 16.3053 23.4673C15.8253 23.6821 15.32 23.7894 14.7895 23.7894C14.1074 23.7894 13.4758 23.6189 12.8947 23.2778C12.3137 22.9368 11.8526 22.4757 11.5116 21.8947C11.1705 21.3136 11 20.6821 11 19.9999C11 19.3178 11.1705 18.6863 11.5116 18.1052C11.8526 17.5242 12.3137 17.0631 12.8947 16.7221C13.4758 16.381 14.1074 16.2105 14.7895 16.2105C15.32 16.2105 15.8253 16.3178 16.3053 16.5326C16.7853 16.7473 17.2021 17.0378 17.5558 17.4042L21.5347 15.2442C21.4589 14.941 21.4211 14.6315 21.4211 14.3157C21.4211 13.6336 21.5916 13.0021 21.9326 12.421C22.2737 11.84 22.7347 11.3789 23.3158 11.0378C23.8968 10.6968 24.5284 10.5263 25.2105 10.5263C25.8926 10.5263 26.5242 10.6968 27.1053 11.0378C27.6863 11.3789 28.1474 11.84 28.4884 12.421C28.8295 13.0021 29 13.6336 29 14.3157C29 14.9978 28.8295 15.6294 28.4884 16.2105C28.1474 16.7915 27.6863 17.2526 27.1053 17.5936C26.5242 17.9347 25.8926 18.1052 25.2105 18.1052C24.68 18.1052 24.1747 17.9978 23.6947 17.7831C23.2147 17.5684 22.7979 17.2778 22.4442 16.9115L18.4653 19.0715C18.5411 19.3747 18.5789 19.6842 18.5789 19.9999C18.5789 20.3157 18.5411 20.6252 18.4653 20.9284L22.4442 23.0884C22.7979 22.7221 23.2147 22.4315 23.6947 22.2168C24.1747 22.0021 24.68 21.8947 25.2105 21.8947C25.8926 21.8947 26.5242 22.0652 27.1053 22.4063C27.6863 22.7473 28.1474 23.2084 28.4884 23.7894C28.8295 24.3705 29 25.0021 29 25.6842C29 26.3663 28.8295 26.9978 28.4884 27.5789C28.1474 28.1599 27.6863 28.621 27.1053 28.9621C26.5242 29.3031 25.8926 29.4736 25.2105 29.4736C24.5284 29.4736 23.8968 29.3031 23.3158 28.9621C22.7347 28.621 22.2737 28.1599 21.9326 27.5789C21.5916 26.9978 21.4211 26.3663 21.4211 25.6842C21.4211 25.3684 21.4589 25.0589 21.5347 24.7557ZM14.7895 21.8947C15.1305 21.8947 15.4463 21.8094 15.7368 21.6389C16.0274 21.4684 16.2579 21.2378 16.4284 20.9473C16.5989 20.6568 16.6842 20.341 16.6842 19.9999C16.6842 19.6589 16.5989 19.3431 16.4284 19.0526C16.2579 18.7621 16.0274 18.5315 15.7368 18.361C15.4463 18.1905 15.1305 18.1052 14.7895 18.1052C14.4484 18.1052 14.1326 18.1905 13.8421 18.361C13.5516 18.5315 13.3211 18.7621 13.1505 19.0526C12.98 19.3431 12.8947 19.6589 12.8947 19.9999C12.8947 20.341 12.98 20.6568 13.1505 20.9473C13.3211 21.2378 13.5516 21.4684 13.8421 21.6389C14.1326 21.8094 14.4484 21.8947 14.7895 21.8947ZM25.2105 16.2105C25.5516 16.2105 25.8674 16.1252 26.1579 15.9547C26.4484 15.7842 26.6789 15.5536 26.8495 15.2631C27.02 14.9726 27.1053 14.6568 27.1053 14.3157C27.1053 13.9747 27.02 13.6589 26.8495 13.3684C26.6789 13.0778 26.4484 12.8473 26.1579 12.6768C25.8674 12.5063 25.5516 12.421 25.2105 12.421C24.8695 12.421 24.5537 12.5063 24.2632 12.6768C23.9726 12.8473 23.7421 13.0778 23.5716 13.3684C23.4011 13.6589 23.3158 13.9747 23.3158 14.3157C23.3158 14.6568 23.4011 14.9726 23.5716 15.2631C23.7421 15.5536 23.9726 15.7842 24.2632 15.9547C24.5537 16.1252 24.8695 16.2105 25.2105 16.2105ZM25.2105 27.5789C25.5516 27.5789 25.8674 27.4936 26.1579 27.3231C26.4484 27.1526 26.6789 26.9221 26.8495 26.6315C27.02 26.341 27.1053 26.0252 27.1053 25.6842C27.1053 25.3431 27.02 25.0273 26.8495 24.7368C26.6789 24.4463 26.4484 24.2157 26.1579 24.0452C25.8674 23.8747 25.5516 23.7894 25.2105 23.7894C24.8695 23.7894 24.5537 23.8747 24.2632 24.0452C23.9726 24.2157 23.7421 24.4463 23.5716 24.7368C23.4011 25.0273 23.3158 25.3431 23.3158 25.6842C23.3158 26.0252 23.4011 26.341 23.5716 26.6315C23.7421 26.9221 23.9726 27.1526 24.2632 27.3231C24.5537 27.4936 24.8695 27.5789 25.2105 27.5789Z" fill="#999999"/>
</svg>
