<svg width="100" height="100" viewBox="0 0 100 100" fill="none" xmlns="http://www.w3.org/2000/svg">
<g clip-path="url(#clip0_2910_132316)">
<path d="M62.0905 46.1461L62.922 46.9775C64.572 48.6275 65.5405 50.862 65.5172 53.1961C65.494 55.5301 64.6095 57.5448 63.0203 59.134L61.3793 60.7749L59.3103 58.706L56.2069 61.8094L38.1927 43.7952L41.2961 40.6917L39.2272 38.6228L40.7698 37.0801C42.4198 35.4301 44.6543 34.4616 46.9884 34.4848C49.2319 34.5081 51.3371 35.3926 52.9263 36.9818L53.8547 37.9103L55.4569 34.7047L60.659 32.6241L64.325 26.209H32.4138V38.6228H20V76.3659C20 78.3741 21.628 80.0021 23.6362 80.0021H63.9487C65.9569 80.0021 67.5849 78.3741 67.5849 76.3659V39.2215L67.3767 39.3417L65.2961 44.5439L62.0905 46.1461ZM47.2315 68.0396C46.5759 68.5659 46.2345 69.3741 46.3095 70.2081L46.3147 70.256C46.4634 71.6357 45.9862 72.9909 45.0047 73.9723C44.0233 74.9551 42.6655 75.4335 41.2858 75.2835C40.4362 75.1892 39.6073 75.5344 39.0707 76.2004C38.2004 77.2814 36.9047 77.9021 35.5159 77.9034C34.1259 77.9034 32.8315 77.2827 31.9599 76.2004C31.4336 75.5448 30.6216 75.1995 29.7927 75.2784L29.7448 75.2835C28.3651 75.4323 27.0112 74.9551 26.0284 73.9736C25.0457 72.9922 24.5672 71.6357 24.7172 70.2547C24.8103 69.4025 24.4664 68.5762 23.8004 68.0396C22.7194 67.1693 22.0987 65.8736 22.0974 64.4848C22.0974 63.0973 22.7181 61.8004 23.8004 60.9288C24.456 60.4025 24.7974 59.5956 24.7224 58.7616L24.7172 58.7137C24.5685 57.334 25.0457 55.9788 26.0272 54.9973C27.0086 54.0146 28.3677 53.5361 29.7461 53.6861C30.5983 53.7818 31.4246 53.4366 31.9599 52.7693C32.8302 51.6883 34.1272 51.0663 35.5159 51.0663C36.9034 51.0663 38.1991 51.687 39.0707 52.7693C39.5983 53.4249 40.4129 53.7676 41.2392 53.6913L41.2871 53.6861C42.6642 53.5336 44.0207 54.0146 45.0034 54.9961C45.9862 55.9775 46.4647 57.334 46.3147 58.715C46.2216 59.5659 46.5642 60.3935 47.2315 60.9288C48.3125 61.7991 48.9345 63.0961 48.9345 64.4848C48.9345 65.8736 48.3138 67.168 47.2315 68.0396Z" fill="#2F5BC1"/>
<path d="M45.9348 62.5379C44.7167 61.5577 44.0895 60.0461 44.2589 58.4905C44.3404 57.734 44.0792 56.9944 43.5426 56.4564C43.0189 55.9314 42.3012 55.6702 41.5564 55.7375L41.5072 55.7426C39.949 55.9146 38.4413 55.2849 37.4598 54.0668C36.9839 53.4745 36.2753 53.137 35.5176 53.1357C34.7585 53.1357 34.0499 53.4745 33.574 54.0668C32.5939 55.2862 31.0745 55.912 29.5266 55.7426C28.765 55.6586 28.0292 55.9224 27.4926 56.459C26.9676 56.9853 26.7077 57.7069 26.7736 58.4452L26.7788 58.4944C26.9469 60.0487 26.321 61.5616 25.1029 62.5405C24.5107 63.0163 24.1719 63.7263 24.1719 64.484C24.1732 65.2418 24.5107 65.9504 25.1029 66.4263C26.321 67.4077 26.9482 68.9207 26.7788 70.4737C26.6973 71.2301 26.9585 71.9698 27.4952 72.5077C28.0202 73.0327 28.7378 73.2978 29.4814 73.2267L29.5305 73.2215C29.6973 73.2034 29.8628 73.1944 30.027 73.1944C31.4016 73.1944 32.7012 73.8112 33.5766 74.8987C34.5283 76.0832 36.512 76.0832 37.4624 74.8987C38.4439 73.6793 39.9645 73.0573 41.5098 73.2228C42.265 73.3056 43.0059 73.0431 43.5439 72.5064C44.0689 71.9801 44.3288 71.2586 44.2628 70.5202L44.2577 70.4711C44.0895 68.9168 44.7154 67.4051 45.9335 66.4237C46.527 65.9478 46.8645 65.2392 46.8645 64.4814C46.8645 63.7237 46.5258 63.0138 45.9335 62.5379H45.9348ZM35.5189 72.7573C30.9555 72.7573 27.243 69.0448 27.243 64.4814C27.243 59.9181 30.9555 56.2056 35.5189 56.2056C40.0822 56.2056 43.7947 59.9181 43.7947 64.4814C43.7947 69.0448 40.0822 72.7573 35.5189 72.7573Z" fill="#2F5BC1"/>
<path d="M36.5501 62.4141H35.5156V64.483H36.5501C37.1204 64.483 37.5846 64.0188 37.5846 63.4485C37.5846 62.8783 37.1204 62.4141 36.5501 62.4141Z" fill="#2F5BC1"/>
<path d="M35.5155 58.2773C32.0926 58.2773 29.3086 61.0614 29.3086 64.4842C29.3086 67.9071 32.0926 70.6911 35.5155 70.6911C38.9383 70.6911 41.7224 67.9071 41.7224 64.4842C41.7224 61.0614 38.9383 58.2773 35.5155 58.2773ZM36.55 66.5532H35.5155V68.6222H33.4465V60.3463H36.55C38.2607 60.3463 39.6534 61.739 39.6534 63.4498C39.6534 65.1605 38.2607 66.5532 36.55 66.5532Z" fill="#2F5BC1"/>
<path d="M30.3433 36.5532V27.6709L21.4609 36.5532H30.3433Z" fill="#2F5BC1"/>
<path d="M42.7576 42.1497L41.1172 43.79L56.206 58.8788L57.8464 57.2385L42.7576 42.1497Z" fill="#2F5BC1"/>
<path d="M46.8928 36.5508C45.1678 36.5508 43.5463 37.2219 42.3269 38.4413L42.1484 38.6197L61.3756 57.8469L61.554 57.6685C62.7734 56.4491 63.4446 54.8262 63.4446 53.1025C63.4446 51.3788 62.7734 49.756 61.554 48.5366L51.4601 38.4426C50.2407 37.2232 48.6178 36.5521 46.8941 36.5521L46.8928 36.5508Z" fill="#2F5BC1"/>
<path d="M73.8329 20C71.6256 20 69.5747 21.1897 68.4807 23.1073L62.098 34.2759L56.9553 36.3332L55.3945 39.4534L60.5463 44.6052L63.6665 43.0444L65.7238 37.9017L76.8924 31.5203C78.8088 30.425 79.9984 28.3728 79.9984 26.1668C79.9984 22.7659 77.2325 20 73.8316 20H73.8329ZM75.1713 24.6642C74.7924 24.3254 74.3023 24.1379 73.7928 24.1379C72.6523 24.1379 71.7238 25.0664 71.7238 26.2069H69.6549C69.6549 23.9246 71.5105 22.069 73.7928 22.069C74.8131 22.069 75.7919 22.4427 76.5523 23.1228L75.1725 24.6642H75.1713Z" fill="#2F5BC1"/>
</g>
<defs>
<clipPath id="clip0_2910_132316">
<rect width="60" height="60" fill="white" transform="translate(20 20)"/>
</clipPath>
</defs>
</svg>
