<svg width="110" height="125" viewBox="0 0 110 125" fill="none" xmlns="http://www.w3.org/2000/svg">
<g clip-path="url(#clip0_2981_27161)">
<path d="M33.9723 100.572C32.7671 99.7129 31.1161 100.027 30.2868 101.175L27.6846 104.772C26.8318 105.951 27.104 107.587 28.2884 108.431C29.4703 109.275 31.1265 109.005 31.974 107.829L34.5762 104.232C35.4264 103.056 35.1542 101.416 33.9697 100.572H33.9723Z" fill="#FFB724"/>
<path d="M51.7738 107.242C50.5919 106.397 48.9358 106.668 48.0882 107.844L42.6143 115.414C41.7667 116.588 42.0389 118.23 43.2208 119.074C44.4052 119.918 46.0562 119.647 46.9064 118.474L49.9492 114.267L52.3803 110.903C53.2304 109.727 52.9583 108.086 51.7738 107.244V107.242Z" fill="#FFB724"/>
<path d="M45.3761 103.625C45.262 102.933 44.8836 102.328 44.3108 101.919C43.8573 101.595 43.3233 101.428 42.7765 101.428C42.6339 101.428 42.4888 101.438 42.3436 101.464C41.6464 101.577 41.0373 101.953 40.6252 102.521L37.7535 106.492L35.1513 110.089C34.3012 111.263 34.5733 112.907 35.7578 113.749C36.9448 114.595 38.5932 114.325 39.4434 113.147L44.9173 105.576C45.3294 105.007 45.4927 104.312 45.3787 103.623L45.3761 103.625Z" fill="#FFB724"/>
<path d="M24.493 95.1069L37.6181 73.1103C38.6574 71.3682 38.0975 69.0908 36.3118 68.0409L32.2892 65.6734C32.1104 65.5679 31.8797 65.6271 31.7735 65.8047L15.2324 93.5243C15.1261 93.7019 15.1857 93.9309 15.3646 94.0364L19.3871 96.4039C21.1547 97.4435 23.4459 96.8619 24.493 95.1069Z" fill="#FFB724"/>
<path d="M75.1639 18.678H84.6189L69.1094 3.2793V12.6667C69.1094 15.9811 71.8256 18.678 75.1639 18.678Z" fill="#FFB724"/>
<path d="M26.0142 111.58C23.0751 109.485 22.4038 105.427 24.5136 102.512L26.2838 100.064L25.444 99.5728C24.2025 100.371 22.7485 100.795 21.2738 100.795C19.9519 100.795 18.6145 100.455 17.3964 99.7375L13.3739 97.3701C11.3367 96.1735 10.668 93.5667 11.8732 91.5467L28.4143 63.827C29.6169 61.8095 32.2476 61.143 34.2796 62.3371L38.3021 64.7045C41.1143 66.3591 42.4413 69.496 41.9411 72.4682L42.9648 73.0677C44.5692 74.0122 46.4845 74.1691 48.2211 73.5026L51.974 72.0616C56.1832 70.4455 58.5677 71.112 62.5332 73.3534C63.1448 73.1449 62.9401 73.2299 69.7125 71.5186C73.7014 70.5176 76.117 72.5119 79.292 73.5052C80.6604 74.0302 82.1456 74.0379 83.5011 73.5515C82.4281 70.2577 83.7499 66.5393 86.8705 64.7045L87.3733 64.4086V23.1121C87.3733 22.9243 87.3552 22.739 87.3318 22.5563H75.158C69.6685 22.5563 65.2002 18.1225 65.2002 12.6696V0.580235C65.0161 0.554502 64.8295 0.539062 64.6403 0.539062H6.05452C2.71624 0.539062 0 3.23589 0 6.55031V108.94C0 112.254 2.71624 114.951 6.05452 114.951H31.6774C31.2627 114.259 30.9802 113.502 30.8454 112.717C29.0804 112.993 27.3724 112.55 26.0116 111.582L26.0142 111.58ZM75.4638 32.1238C76.542 32.1238 77.4155 32.9911 77.4155 34.0615C77.4155 35.132 76.542 35.9992 75.4638 35.9992H11.9147C10.8365 35.9992 9.96301 35.132 9.96301 34.0615C9.96301 32.9911 10.8365 32.1238 11.9147 32.1238H75.4638ZM11.9147 18.6783H43.6879C44.7661 18.6783 45.6396 19.5455 45.6396 20.616C45.6396 21.6865 44.7661 22.5537 43.6879 22.5537H11.9147C10.8365 22.5537 9.96301 21.6865 9.96301 20.616C9.96301 19.5455 10.8365 18.6783 11.9147 18.6783ZM9.96301 45.976C9.96301 44.9055 10.8365 44.0383 11.9147 44.0383H75.4638C76.542 44.0383 77.4155 44.9055 77.4155 45.976C77.4155 47.0465 76.542 47.9137 75.4638 47.9137H11.9147C10.8365 47.9137 9.96301 47.0465 9.96301 45.976Z" fill="#FFB724"/>
<path d="M93.4073 65.8047C93.2985 65.622 93.0652 65.5705 92.889 65.6735L88.8664 68.0409C87.0936 69.0831 86.5105 71.3502 87.5602 73.1103L89.8799 76.9986C90.4293 77.9198 90.1235 79.1087 89.1956 79.6542C88.2677 80.1998 87.0703 79.8961 86.5208 78.9749L85.3416 77.0012C82.9804 78.0022 80.3238 78.0588 77.8771 77.1195C74.3548 75.9358 73.0252 74.6878 70.6718 75.2796L64.187 76.9085C62.0824 77.4386 60.5273 79.3326 60.5273 81.5765V90.1688C60.5273 90.3155 60.6466 90.4338 60.7917 90.4338H60.7943C62.0565 90.4338 63.2436 89.9449 64.1352 89.0597C65.7214 87.4848 65.5011 85.4931 65.5192 85.3773C65.5192 83.877 67.1676 82.9455 68.4661 83.7098L94.9858 99.304C95.3046 99.0596 95.6363 98.8357 95.981 98.6324L97.6916 97.6417C97.5621 97.4615 97.4351 97.2763 97.321 97.0833L91.168 86.772C90.6185 85.8508 90.9244 84.6619 91.8522 84.1164C92.7801 83.5708 93.9775 83.8745 94.527 84.7957L100.68 95.107C101.727 96.8619 104.018 97.4435 105.786 96.4039L109.808 94.0365C109.987 93.9309 110.047 93.7019 109.941 93.5244L93.3996 65.8047H93.4073Z" fill="#FFB724"/>
<path d="M94.7273 103.654C92.3143 102.233 71.4889 89.9894 68.9671 88.5071C68.5472 89.7346 67.8448 90.8591 66.8962 91.801C65.2659 93.4196 63.0992 94.31 60.795 94.31H60.7898C58.4935 94.31 56.6248 92.4494 56.6248 90.1669V81.5721C56.6248 79.3796 57.449 77.3441 58.8408 75.7924C56.7155 74.7966 55.5336 74.8506 53.385 75.6741L49.632 77.1151C46.7136 78.2371 43.5619 77.9206 40.9805 76.4023L40.3947 76.0601L28.1172 96.6362L29.0114 97.1612C31.1911 95.8411 34.0473 95.8539 36.2478 97.4237C37.0357 97.9846 37.6603 98.6923 38.1113 99.4797C40.3351 97.2461 43.9326 96.8833 46.5814 98.7721C47.9888 99.7757 48.9218 101.26 49.2147 102.954C50.8553 102.699 52.5919 103.057 54.0433 104.091C56.4952 105.838 57.366 108.968 56.3552 111.649C57.3064 111.808 58.2369 112.179 59.074 112.773C61.9199 114.801 62.6378 118.695 60.751 121.584L65.1493 124.171C66.4038 124.909 68.0262 124.495 68.7701 123.249C69.5165 121.999 69.0967 120.393 67.8422 119.654L64.0711 117.436C63.1432 116.891 62.8374 115.702 63.3869 114.781C63.9363 113.859 65.1338 113.556 66.0616 114.101L69.8302 116.319L74.9957 119.359C76.2501 120.097 77.8726 119.683 78.6165 118.437C79.3603 117.189 78.9456 115.583 77.6912 114.842L68.0651 109.179C67.1372 108.633 66.8314 107.444 67.3809 106.523C67.9303 105.602 69.1278 105.298 70.0556 105.844C74.371 108.381 78.2951 110.689 83.1263 113.533C84.3807 114.269 86.0032 113.857 86.7471 112.611C87.4935 111.361 87.0736 109.755 85.8192 109.016L72.7563 101.333C71.8285 100.787 71.5226 99.5981 72.0721 98.6769C72.6216 97.7556 73.819 97.452 74.7469 97.9975C76.2061 98.857 89.9039 106.911 92.0266 108.162C93.2811 108.898 94.9036 108.486 95.6474 107.241C96.0077 106.639 96.1088 105.931 95.9351 105.254C95.7615 104.575 95.3286 104.004 94.7221 103.648L94.7273 103.654Z" fill="#FFB724"/>
<path d="M56.8016 115.923C55.6197 115.079 53.9636 115.349 53.116 116.523L51.294 119.042C50.4464 120.218 50.7186 121.857 51.9005 122.699C53.0823 123.543 54.7359 123.273 55.586 122.097L57.4055 119.58C58.2556 118.404 57.9835 116.762 56.8016 115.921V115.923Z" fill="#FFB724"/>
</g>
<defs>
<clipPath id="clip0_2981_27161">
<rect width="110" height="124" fill="white" transform="translate(0 0.539062)"/>
</clipPath>
</defs>
</svg>
