<svg width="49" height="65" viewBox="0 0 49 65" fill="none" xmlns="http://www.w3.org/2000/svg">
<g clip-path="url(#clip0_2987_36756)">
<path d="M28.8245 32.2609V4.37982C28.8245 4.34103 28.7936 4.31026 28.7547 4.31026H8.29797C7.74192 4.31026 7.29064 3.86078 7.29064 3.30696C7.29064 2.75314 7.74192 2.30366 8.29797 2.30366H11.4395C11.0137 0.981977 9.76731 0.0214844 8.29931 0.0214844C6.48076 0.0214844 5.00201 1.49433 4.99932 3.30562C4.99932 3.30562 4.99932 3.30696 4.99932 3.3083C4.99932 3.30963 4.99932 3.31097 4.99932 3.31231V14.0316C4.99932 15.8429 6.47941 17.317 8.29797 17.317C10.1165 17.317 11.598 15.8429 11.598 14.0302V9.74146C11.598 9.11272 11.0835 8.60037 10.4523 8.60037C9.82104 8.60037 9.30663 9.11272 9.30663 9.74146V11.8858C9.30663 12.4397 8.85535 12.8891 8.29931 12.8891C7.74327 12.8891 7.29199 12.4397 7.29199 11.8858V9.74146C7.29199 8.00508 8.7103 6.59377 10.4523 6.59377C12.1943 6.59377 13.6126 8.00642 13.6126 9.74146V14.0316C13.6126 16.9505 11.2286 19.325 8.29931 19.325C5.37002 19.325 2.98468 16.9505 2.98468 14.0329V4.3116H0.7632C0.724251 4.3116 0.693359 4.34236 0.693359 4.38116V32.2622C0.693359 32.2997 0.724251 32.3318 0.7632 32.3318H28.756C28.7949 32.3318 28.8258 32.301 28.8258 32.2622L28.8245 32.2609ZM23.3729 24.6853H6.14633C5.59029 24.6853 5.13901 24.2358 5.13901 23.682C5.13901 23.1282 5.59029 22.6787 6.14633 22.6787H23.3729C23.9289 22.6787 24.3802 23.1282 24.3802 23.682C24.3802 24.2358 23.9289 24.6853 23.3729 24.6853ZM23.3729 19.3236H17.9897C17.4337 19.3236 16.9824 18.8742 16.9824 18.3203C16.9824 17.7665 17.4337 17.317 17.9897 17.317H23.3729C23.9289 17.317 24.3802 17.7665 24.3802 18.3203C24.3802 18.8742 23.9289 19.3236 23.3729 19.3236ZM23.3729 13.962H17.9897C17.4337 13.962 16.9824 13.5125 16.9824 12.9587C16.9824 12.4049 17.4337 11.9554 17.9897 11.9554H23.3729C23.9289 11.9554 24.3802 12.4049 24.3802 12.9587C24.3802 13.5125 23.9289 13.962 23.3729 13.962Z" fill="#FF8201"/>
<path d="M36.2925 52.5645C36.2535 52.5645 36.2227 52.5952 36.2227 52.634V58.7903L42.4734 52.5645H36.2925Z" fill="#FF8201"/>
<path d="M34.2066 52.6356C34.2066 51.4905 35.1414 50.5594 36.2911 50.5594H43.8971V5.45237C43.8971 5.41492 43.8662 5.38281 43.8272 5.38281H30.8381V32.2606C30.8381 33.4057 29.9033 34.3367 28.7537 34.3367H1.76953V60.1416C1.76953 60.1804 1.80042 60.2112 1.83937 60.2112H34.208V52.6356H34.2066ZM36.2911 11.9551H38.4441C39.0001 11.9551 39.4514 12.4046 39.4514 12.9584C39.4514 13.5122 39.0001 13.9617 38.4441 13.9617H36.2911C35.7351 13.9617 35.2838 13.5122 35.2838 12.9584C35.2838 12.4046 35.7351 11.9551 36.2911 11.9551ZM36.2911 17.3167H38.4441C39.0001 17.3167 39.4514 17.7662 39.4514 18.32C39.4514 18.8739 39.0001 19.3233 38.4441 19.3233H36.2911C35.7351 19.3233 35.2838 18.8739 35.2838 18.32C35.2838 17.7662 35.7351 17.3167 36.2911 17.3167ZM36.2911 22.6784H38.4441C39.0001 22.6784 39.4514 23.1278 39.4514 23.6817C39.4514 24.2355 39.0001 24.685 38.4441 24.685H36.2911C35.7351 24.685 35.2838 24.2355 35.2838 23.6817C35.2838 23.1278 35.7351 22.6784 36.2911 22.6784ZM36.2911 28.04H38.4441C39.0001 28.04 39.4514 28.4895 39.4514 29.0433C39.4514 29.5971 39.0001 30.0466 38.4441 30.0466H36.2911C35.7351 30.0466 35.2838 29.5971 35.2838 29.0433C35.2838 28.4895 35.7351 28.04 36.2911 28.04ZM14.7586 37.6917H38.4441C39.0001 37.6917 39.4514 38.1412 39.4514 38.695C39.4514 39.2489 39.0001 39.6984 38.4441 39.6984H14.7586C14.2026 39.6984 13.7513 39.2489 13.7513 38.695C13.7513 38.1412 14.2026 37.6917 14.7586 37.6917ZM14.7586 43.0534H38.4441C39.0001 43.0534 39.4514 43.5029 39.4514 44.0567C39.4514 44.6105 39.0001 45.06 38.4441 45.06H14.7586C14.2026 45.06 13.7513 44.6105 13.7513 44.0567C13.7513 43.5029 14.2026 43.0534 14.7586 43.0534ZM9.37548 50.4216H7.2225C6.66646 50.4216 6.21518 49.9721 6.21518 49.4183C6.21518 48.8645 6.66646 48.415 7.2225 48.415H9.37548C9.93152 48.415 10.3828 48.8645 10.3828 49.4183C10.3828 49.9721 9.93152 50.4216 9.37548 50.4216ZM9.37548 45.06H7.2225C6.66646 45.06 6.21518 44.6105 6.21518 44.0567C6.21518 43.5029 6.66646 43.0534 7.2225 43.0534H9.37548C9.93152 43.0534 10.3828 43.5029 10.3828 44.0567C10.3828 44.6105 9.93152 45.06 9.37548 45.06ZM9.37548 39.6984H7.2225C6.66646 39.6984 6.21518 39.2489 6.21518 38.695C6.21518 38.1412 6.66646 37.6917 7.2225 37.6917H9.37548C9.93152 37.6917 10.3828 38.1412 10.3828 38.695C10.3828 39.2489 9.93152 39.6984 9.37548 39.6984ZM29.8308 50.4216H14.7573C14.2012 50.4216 13.7499 49.9721 13.7499 49.4183C13.7499 48.8645 14.2012 48.415 14.7573 48.415H29.8308C30.3869 48.415 30.8381 48.8645 30.8381 49.4183C30.8381 49.9721 30.3869 50.4216 29.8308 50.4216Z" fill="#FF8201"/>
<path d="M48.1333 9.67321H45.9104V50.6761C45.9104 51.5175 45.5814 52.3068 44.985 52.9021L36.5571 61.2963C35.9608 61.8916 35.167 62.218 34.3222 62.218H6.07422V64.432C6.07422 64.4708 6.10511 64.5015 6.14406 64.5015H48.1333C48.1722 64.5015 48.2031 64.4708 48.2031 64.432V9.74144C48.2031 9.70264 48.1722 9.67188 48.1333 9.67188V9.67321Z" fill="#FF8201"/>
</g>
<defs>
<clipPath id="clip0_2987_36756">
<rect width="47.5107" height="64.4788" fill="white" transform="translate(0.693359 0.0214844)"/>
</clipPath>
</defs>
</svg>
