<svg width="48" height="44" viewBox="0 0 48 44" fill="none" xmlns="http://www.w3.org/2000/svg">
<rect width="48" height="44" rx="22" fill="#565656"/>
<g clip-path="url(#clip0_2818_38597)">
<path d="M24.7083 11.2971C24.6133 11.2022 24.5013 11.1278 24.3787 11.0782C24.1355 10.9739 23.8628 10.9739 23.6196 11.0782C23.497 11.1278 23.385 11.2022 23.29 11.2971L20.2937 14.424C20.1057 14.6203 20 14.8865 20 15.1641C20 15.4416 20.1057 15.7078 20.2937 15.9041C20.4818 16.1004 20.7369 16.2106 21.0029 16.2106C21.2688 16.2106 21.5239 16.1004 21.712 15.9041L23.0004 14.5491V19.9577C23.0004 20.2341 23.1056 20.4992 23.2929 20.6947C23.4802 20.8902 23.7343 21 23.9992 21C24.264 21 24.5181 20.8902 24.7054 20.6947C24.8927 20.4992 24.9979 20.2341 24.9979 19.9577V14.5491L26.2863 15.9041C26.3792 16.0018 26.4896 16.0793 26.6113 16.1323C26.733 16.1852 26.8636 16.2124 26.9954 16.2124C27.1273 16.2124 27.2578 16.1852 27.3795 16.1323C27.5012 16.0793 27.6117 16.0018 27.7046 15.9041C27.7982 15.8072 27.8725 15.6919 27.9232 15.5649C27.9739 15.4379 28 15.3017 28 15.1641C28 15.0265 27.9739 14.8902 27.9232 14.7632C27.8725 14.6362 27.7982 14.5209 27.7046 14.424L24.7083 11.2971Z" fill="white"/>
</g>
<path d="M28.9879 23.5156H32.316C32.9449 23.5156 33.4879 23.6367 33.9449 23.8789C34.4019 24.1211 34.7496 24.459 34.9879 24.8926C35.2301 25.3223 35.3512 25.8164 35.3512 26.375C35.3512 26.9414 35.2281 27.4414 34.982 27.875C34.7398 28.3047 34.3863 28.6387 33.9215 28.877C33.4605 29.1152 32.9098 29.2344 32.2691 29.2344H30.7457V32H28.9879V23.5156ZM31.9879 27.8164C32.4957 27.8164 32.8805 27.6875 33.1422 27.4297C33.4078 27.168 33.5387 26.8164 33.5348 26.375C33.5387 25.9414 33.4078 25.5977 33.1422 25.3438C32.8805 25.0898 32.4957 24.9609 31.9879 24.957H30.7457V27.8164H31.9879Z" fill="white"/>
<path d="M28.0023 27.7578C28.0023 28.6602 27.8304 29.4395 27.4866 30.0957C27.1429 30.752 26.6702 31.2539 26.0687 31.6016C25.471 31.9453 24.7952 32.1172 24.0413 32.1172C23.2835 32.1172 22.6038 31.9453 22.0023 31.6016C21.4007 31.2539 20.928 30.752 20.5843 30.0957C20.2405 29.4355 20.0687 28.6562 20.0687 27.7578C20.0687 26.8555 20.2405 26.0762 20.5843 25.4199C20.928 24.7637 21.4007 24.2637 22.0023 23.9199C22.6038 23.5723 23.2835 23.3984 24.0413 23.3984C24.7952 23.3984 25.471 23.5723 26.0687 23.9199C26.6702 24.2637 27.1429 24.7637 27.4866 25.4199C27.8304 26.0762 28.0023 26.8555 28.0023 27.7578ZM21.8616 27.7578C21.8616 28.3516 21.9495 28.8594 22.1253 29.2812C22.305 29.6992 22.5589 30.0156 22.887 30.2305C23.2151 30.4453 23.5999 30.5547 24.0413 30.5586C24.4788 30.5547 24.8597 30.4453 25.1839 30.2305C25.512 30.0117 25.764 29.6934 25.9398 29.2754C26.1194 28.8574 26.2093 28.3516 26.2093 27.7578C26.2093 27.1641 26.1194 26.6582 25.9398 26.2402C25.764 25.8184 25.512 25.5 25.1839 25.2852C24.8597 25.0703 24.4788 24.9609 24.0413 24.957C23.5999 24.9609 23.2151 25.0703 22.887 25.2852C22.5589 25.5 22.305 25.8184 22.1253 26.2402C21.9495 26.6582 21.8616 27.1641 21.8616 27.7578Z" fill="white"/>
<path d="M12.8487 23.5156H19.7979V24.9688H17.1963V32H15.4502V24.9688H12.8487V23.5156Z" fill="white"/>
<defs>
<clipPath id="clip0_2818_38597">
<rect width="8" height="10" fill="white" transform="translate(20 11)"/>
</clipPath>
</defs>
</svg>
