<svg width="158" height="158" viewBox="0 0 158 158" fill="none" xmlns="http://www.w3.org/2000/svg">
<path d="M120.43 79.902L111.551 66.8244L120.43 53.7468C120.912 53.0246 121.025 52.1396 120.749 51.3182C120.466 50.504 119.814 49.8596 119.007 49.5906L89.6233 39.8479C89.3401 39.7488 89.0428 39.6992 88.7383 39.6992C87.8178 39.6992 86.9611 40.1594 86.4442 40.9312L79.0027 52.09L71.5611 40.9312C71.0443 40.1594 70.1875 39.6992 69.2671 39.6992C68.9697 39.6992 68.6723 39.7488 68.3891 39.8479L38.9982 49.5906C38.184 49.8596 37.5326 50.504 37.2564 51.3182C36.9732 52.1396 37.0936 53.0246 37.575 53.7539L46.4539 66.8315L37.575 79.909C37.0936 80.6312 36.9803 81.5163 37.2564 82.3376C37.5326 83.1519 38.191 83.7962 38.9982 84.0653L68.3891 93.8079C68.6723 93.9 68.9697 93.9495 69.2671 93.9495C70.1946 93.9495 71.0584 93.4893 71.5682 92.7175L79.0098 81.5588L86.4513 92.7175C86.9682 93.4893 87.8249 93.9495 88.7525 93.9495C89.0498 93.9495 89.3472 93.9 89.6233 93.8079L119.014 84.0653C119.828 83.7962 120.48 83.1519 120.756 82.3376C121.032 81.5163 120.919 80.6312 120.437 79.902H120.43ZM99.4793 66.8244L78.9956 73.6499L58.5119 66.8244L78.9956 59.9988L99.4793 66.8244Z" fill="#FF8201"/>
<path d="M110.661 91.2452C110.661 91.2452 110.59 91.2452 110.555 91.2594L90.949 97.7946C90.241 98.0354 89.4975 98.1557 88.747 98.1557C86.4105 98.1557 84.2368 96.9945 82.941 95.0474L79.2805 89.553C79.2167 89.4609 79.1176 89.4043 79.0043 89.4043C78.891 89.4043 78.7919 89.4609 78.7282 89.553L75.0676 95.0474C73.7719 96.9945 71.5982 98.1557 69.2616 98.1557C68.504 98.1557 67.7606 98.0354 67.0384 97.7946L47.4397 91.2665C47.4397 91.2665 47.3689 91.2523 47.3335 91.2523C47.2627 91.2523 47.199 91.2735 47.1423 91.316C47.0574 91.3797 47.0078 91.4789 47.0078 91.5851V105.803C47.0078 106.992 47.7654 108.047 48.8983 108.422L78.1051 118.158C78.1971 118.186 78.2892 118.215 78.3812 118.236C78.3954 118.236 78.4096 118.243 78.4237 118.25C78.6149 118.292 78.8131 118.307 78.9972 118.307C79.2026 118.307 79.4079 118.285 79.6203 118.236C79.7124 118.215 79.7973 118.193 79.8894 118.158L109.103 108.415C110.236 108.04 110.994 106.985 110.994 105.788V91.5709C110.994 91.4647 110.944 91.3656 110.859 91.3019C110.803 91.2594 110.732 91.2381 110.668 91.2381L110.661 91.2452Z" fill="#FF8201"/>
</svg>
