<svg width="9" height="10" viewBox="0 0 9 10" fill="none" xmlns="http://www.w3.org/2000/svg">
<g clip-path="url(#clip0_2818_26211)">
<path d="M8.18243 5.67402L8.62824 5.22821C8.67317 5.18358 8.70883 5.13051 8.73316 5.07204C8.75749 5.01357 8.77002 4.95087 8.77002 4.88754C8.77002 4.82421 8.75749 4.76151 8.73316 4.70304C8.70883 4.64457 8.67317 4.5915 8.62824 4.54687L4.72416 0.641781C4.67953 0.596851 4.62645 0.561194 4.56799 0.536861C4.50952 0.512528 4.44682 0.500001 4.38349 0.500001C4.32016 0.500001 4.25746 0.512528 4.19899 0.536861C4.14052 0.561194 4.08745 0.596851 4.04282 0.641781L0.141774 4.54485C0.0968439 4.58948 0.0611855 4.64255 0.0368527 4.70102C0.0125199 4.75949 -7.374e-06 4.82219 -7.36846e-06 4.88552C-7.36292e-06 4.94885 0.0125199 5.01155 0.0368527 5.07002C0.0611855 5.12848 0.0968439 5.18156 0.141774 5.22619L0.587579 5.672C0.633021 5.71738 0.687071 5.75324 0.746559 5.77745C0.806047 5.80166 0.869773 5.81374 0.933995 5.81299C0.998217 5.81224 1.06164 5.79866 1.12054 5.77306C1.17945 5.74746 1.23264 5.71035 1.27701 5.66391L3.58084 3.24585L3.58084 9.01907C3.58071 9.08243 3.59309 9.14519 3.61727 9.20376C3.64146 9.26232 3.67697 9.31553 3.72177 9.36033C3.76658 9.40513 3.81979 9.44065 3.87835 9.46483C3.93691 9.48902 3.99968 9.5014 4.06304 9.50127L4.70597 9.50127C4.76933 9.5014 4.83209 9.48902 4.89065 9.46483C4.94921 9.44065 5.00242 9.40513 5.04723 9.36033C5.09203 9.31553 5.12754 9.26232 5.15173 9.20376C5.17591 9.14519 5.1883 9.08243 5.18816 9.01907L5.18816 3.24585L7.49401 5.66593C7.53816 5.71275 7.59128 5.75019 7.65021 5.77603C7.70914 5.80187 7.77267 5.81558 7.83701 5.81633C7.90135 5.81709 7.96519 5.80487 8.02471 5.78042C8.08423 5.75597 8.13821 5.71978 8.18344 5.67402L8.18243 5.67402Z" fill="#EB003B"/>
</g>
<defs>
<clipPath id="clip0_2818_26211">
<rect width="8.77053" height="9" fill="white" transform="translate(0 0.5)"/>
</clipPath>
</defs>
</svg>
