<svg width="158" height="160" viewBox="0 0 158 160" fill="none" xmlns="http://www.w3.org/2000/svg">
<path d="M64.218 85.688C64.218 85.688 64.218 85.688 64.225 85.6952C66.4908 87.9719 70.1584 87.9719 72.4171 85.688L72.9481 85.1528L47.7064 59.7305L47.1753 60.2658C47.1753 60.2658 47.1541 60.2872 47.1399 60.3014C44.8884 62.5924 44.9025 66.2894 47.1753 68.559L64.2109 85.6809L64.218 85.688Z" fill="#FF8201"/>
<path d="M105.382 52.4635C107.634 50.1867 107.634 46.4969 105.382 44.213L88.3466 27.0412C86.0597 24.8144 82.4345 24.8144 80.1404 27.0412L79.6094 27.5765L104.851 52.9987L105.382 52.4635Z" fill="#FF8201"/>
<path d="M97.706 52.0784L81.3573 35.3848L55.7969 61.5564L72.1244 78.2287L97.706 52.0784Z" fill="#FF8201"/>
<path d="M128.167 98.8899L91.4971 65.8809L85.7266 71.719L118.573 108.653C118.615 108.703 118.665 108.746 118.707 108.796C121.384 111.572 125.788 111.63 128.542 108.932H128.45C129.795 107.597 130.539 105.763 130.489 103.864C130.418 101.959 129.583 100.16 128.174 98.8899H128.167Z" fill="#FF8201"/>
<path d="M91.9794 120.26H85.607V112.316H39.393V120.26H33.0206C32.2559 120.26 31.6328 120.888 31.6328 121.659C31.6328 122.43 32.2559 123.058 33.0206 123.058H91.9865C92.7512 123.058 93.3742 122.43 93.3742 121.659C93.3742 120.888 92.7512 120.26 91.9865 120.26H91.9794Z" fill="#FF8201"/>
</svg>
