<svg width="637" height="332" viewBox="0 0 637 332" fill="none" xmlns="http://www.w3.org/2000/svg">
<g clip-path="url(#clip0_3448_24353)">
<circle cx="97.3505" cy="155.101" r="97.1005" fill="#FFB724"/>
<g clip-path="url(#clip1_3448_24353)">
<path d="M73.4166 147.438C72.6437 148.281 72.6968 149.593 73.5346 150.371C73.93 150.739 74.4315 150.92 74.933 150.92C75.4877 150.92 76.0423 150.694 76.4494 150.252C76.5498 150.142 78.9217 147.515 80.093 142.925C81.1491 138.78 81.4206 132.115 76.7209 123.921C69.2214 110.856 76.1338 102.84 76.4554 102.477C77.2224 101.634 77.1664 100.325 76.3314 99.5502C75.4936 98.7724 74.1896 98.8258 73.4166 99.669C73.3163 99.7788 70.9443 102.406 69.7761 106.996C68.7169 111.144 68.4455 117.806 73.1452 126C80.6565 139.089 73.7087 147.111 73.4166 147.438Z" fill="white"/>
<path d="M142.917 195.852H51.2683C50.1265 195.852 49.2031 196.781 49.2031 197.927C49.2031 199.073 50.1265 200.002 51.2683 200.002H142.914C144.056 200.002 144.979 199.073 144.979 197.927C144.979 196.781 144.056 195.852 142.917 195.852Z" fill="white"/>
<path d="M117.738 147.438C116.965 148.281 117.018 149.593 117.856 150.371C118.251 150.739 118.753 150.92 119.254 150.92C119.809 150.92 120.363 150.694 120.771 150.252C120.871 150.142 123.243 147.515 124.414 142.925C125.47 138.78 125.742 132.115 121.042 123.921C113.543 110.856 120.455 102.84 120.776 102.477C121.544 101.634 121.487 100.325 120.653 99.5502C119.815 98.7724 118.508 98.8258 117.738 99.669C117.637 99.7788 115.265 102.406 114.094 106.996C113.038 111.144 112.767 117.806 117.466 126C124.978 139.089 118.027 147.111 117.738 147.438Z" fill="white"/>
<path d="M95.5737 147.438C94.8007 148.281 94.8538 149.593 95.6917 150.371C96.087 150.739 96.5886 150.92 97.0901 150.92C97.6447 150.92 98.1994 150.694 98.6065 150.252C98.7068 150.142 101.079 147.515 102.25 142.925C103.306 138.78 103.578 132.115 98.8779 123.921C91.3755 110.85 98.2967 102.831 98.6124 102.477C99.3795 101.631 99.3234 100.325 98.4885 99.5502C97.6506 98.7724 96.3466 98.8258 95.5737 99.669C95.4734 99.7788 93.1014 102.406 91.9302 106.996C90.874 111.144 90.6026 117.806 95.3023 126C102.814 139.089 95.8658 147.111 95.5737 147.438Z" fill="white"/>
<path d="M142.917 180.379H51.2683C50.1265 180.379 49.2031 181.308 49.2031 182.457C49.2031 183.606 50.1265 184.532 51.2683 184.532H142.914C144.056 184.532 144.979 183.603 144.979 182.457C144.979 181.311 144.056 180.379 142.917 180.379Z" fill="white"/>
<path d="M142.917 164.91H51.2683C50.1265 164.91 49.2031 165.839 49.2031 166.985C49.2031 168.131 50.1265 169.064 51.2683 169.064H142.914C144.056 169.064 144.979 168.131 144.979 166.985C144.979 165.839 144.056 164.91 142.917 164.91Z" fill="white"/>
</g>
<path d="M95.3522 281.02H97.7956V282.408H95.3522V290.477H93.6823V274.744H95.3522V281.02ZM83.1003 286.275C85.069 285.291 86.5896 284.09 87.6618 282.672C88.7399 281.254 89.364 279.625 89.5339 277.785H83.8913V276.396H91.239C91.2272 278.799 90.6442 280.958 89.4899 282.874C88.3356 284.784 86.5163 286.352 84.0319 287.576L83.1003 286.275ZM102.999 275.254C103.667 275.254 104.279 275.368 104.836 275.597C105.392 275.819 105.858 276.139 106.233 276.555H110.1V274.744H111.753V282.76H110.1V281.107H106.268C105.893 281.535 105.422 281.866 104.853 282.101C104.291 282.329 103.667 282.443 102.981 282.443C102.196 282.443 101.49 282.291 100.863 281.986C100.236 281.682 99.7468 281.257 99.3952 280.712C99.0437 280.167 98.8679 279.543 98.8679 278.84C98.8679 278.143 99.0437 277.524 99.3952 276.985C99.7526 276.44 100.245 276.016 100.872 275.711C101.505 275.406 102.214 275.254 102.999 275.254ZM100.467 278.84C100.467 279.285 100.573 279.681 100.784 280.026C101.001 280.366 101.302 280.633 101.689 280.826C102.076 281.014 102.512 281.107 102.999 281.107C103.473 281.107 103.898 281.014 104.273 280.826C104.654 280.633 104.953 280.366 105.17 280.026C105.386 279.681 105.495 279.285 105.495 278.84C105.495 278.406 105.386 278.022 105.17 277.688C104.953 277.349 104.654 277.088 104.273 276.906C103.898 276.719 103.473 276.625 102.999 276.625C102.512 276.625 102.076 276.719 101.689 276.906C101.302 277.088 101.001 277.349 100.784 277.688C100.573 278.022 100.467 278.406 100.467 278.84ZM101.452 283.533H111.753V287.453H103.157V288.965H112.315V290.301H101.487V286.205H110.1V284.834H101.452V283.533ZM106.963 277.873C107.05 278.178 107.094 278.5 107.094 278.84C107.094 279.162 107.053 279.479 106.971 279.789H110.1V277.873H106.963ZM74.0827 311.148C74.0886 309.525 74.3112 308.02 74.7507 306.631C75.196 305.236 75.8405 303.936 76.6843 302.729H78.4069C77.9968 303.32 77.6101 304.082 77.2468 305.014C76.8835 305.939 76.5905 306.941 76.3679 308.02C76.1452 309.098 76.0339 310.141 76.0339 311.148C76.0339 312.156 76.1452 313.202 76.3679 314.286C76.5905 315.364 76.8835 316.369 77.2468 317.301C77.6101 318.232 77.9968 318.994 78.4069 319.586H76.6843C75.8405 318.373 75.196 317.069 74.7507 315.675C74.3112 314.28 74.0886 312.771 74.0827 311.148ZM84.5593 316.176C83.6511 316.176 82.8396 316.023 82.1247 315.719C81.4157 315.414 80.862 314.992 80.4636 314.453C80.071 313.908 79.8776 313.293 79.8835 312.607C79.8776 312.074 79.989 311.579 80.2175 311.122C80.4519 310.659 80.7712 310.278 81.1755 309.979C81.5856 309.675 82.0397 309.484 82.5378 309.408V309.338C82.1042 309.238 81.7233 309.054 81.3952 308.784C81.0671 308.509 80.8122 308.172 80.6306 307.773C80.4489 307.375 80.3581 306.947 80.3581 306.49C80.3581 305.846 80.5368 305.266 80.8942 304.75C81.2575 304.234 81.7585 303.83 82.3972 303.537C83.0358 303.244 83.7565 303.098 84.5593 303.098C85.3503 303.098 86.0622 303.244 86.695 303.537C87.3337 303.83 87.8347 304.234 88.198 304.75C88.5612 305.266 88.7429 305.846 88.7429 306.49C88.7429 306.947 88.6491 307.375 88.4616 307.773C88.28 308.172 88.0222 308.509 87.6882 308.784C87.3601 309.054 86.9851 309.238 86.5632 309.338V309.408C87.0554 309.484 87.5036 309.675 87.9079 309.979C88.3181 310.278 88.6403 310.659 88.8747 311.122C89.1149 311.579 89.2351 312.074 89.2351 312.607C89.2351 313.293 89.0329 313.908 88.6286 314.453C88.2302 314.992 87.6765 315.414 86.9675 315.719C86.2585 316.023 85.4558 316.176 84.5593 316.176ZM81.8522 312.467C81.8464 312.883 81.9519 313.249 82.1687 313.565C82.3855 313.882 82.6989 314.131 83.1091 314.312C83.5251 314.488 84.0085 314.576 84.5593 314.576C85.1042 314.576 85.5788 314.488 85.9831 314.312C86.3933 314.137 86.7097 313.891 86.9323 313.574C87.155 313.252 87.2663 312.883 87.2663 312.467C87.2663 312.033 87.1491 311.646 86.9147 311.307C86.6804 310.961 86.3581 310.691 85.948 310.498C85.5378 310.299 85.0749 310.199 84.5593 310.199C84.0378 310.199 83.569 310.299 83.153 310.498C82.737 310.691 82.4147 310.961 82.1862 311.307C81.9577 311.652 81.8464 312.039 81.8522 312.467ZM82.239 306.666C82.239 307.059 82.3386 307.407 82.5378 307.712C82.737 308.017 83.0095 308.254 83.3552 308.424C83.7067 308.588 84.1081 308.67 84.5593 308.67C84.9987 308.67 85.3913 308.588 85.737 308.424C86.0886 308.254 86.361 308.017 86.5544 307.712C86.7478 307.407 86.8444 307.059 86.8444 306.666C86.8444 306.273 86.7478 305.928 86.5544 305.629C86.3669 305.324 86.1003 305.09 85.7546 304.926C85.4089 304.762 85.0105 304.68 84.5593 304.68C84.1022 304.68 83.698 304.762 83.3464 304.926C82.9948 305.09 82.7224 305.324 82.529 305.629C82.3356 305.928 82.239 306.273 82.239 306.666ZM95.5632 316.176C94.7722 316.176 94.0544 316.026 93.4099 315.728C92.7653 315.429 92.2526 315.013 91.8718 314.479C91.4909 313.946 91.2858 313.346 91.2565 312.678H93.1374C93.1726 313.035 93.3015 313.357 93.5241 313.645C93.7468 313.926 94.0368 314.148 94.3942 314.312C94.7517 314.477 95.1413 314.559 95.5632 314.559C96.073 314.559 96.5271 314.444 96.9255 314.216C97.3298 313.987 97.6462 313.674 97.8747 313.275C98.1032 312.871 98.2175 312.42 98.2175 311.922C98.2175 311.412 98.1003 310.955 97.8659 310.551C97.6315 310.141 97.3064 309.821 96.8903 309.593C96.4743 309.358 96.0026 309.238 95.4753 309.232C94.3972 309.232 93.653 309.607 93.2429 310.357H91.4147L92.2409 303.273H99.448V304.926H93.8405L93.4187 308.494H93.5417C93.8112 308.236 94.1569 308.031 94.5788 307.879C95.0065 307.721 95.4577 307.639 95.9323 307.633C96.7233 307.633 97.4353 307.817 98.0681 308.187C98.7009 308.55 99.196 309.054 99.5534 309.698C99.9167 310.337 100.098 311.061 100.098 311.869C100.098 312.695 99.905 313.437 99.5183 314.093C99.1315 314.743 98.5925 315.253 97.9011 315.622C97.2155 315.991 96.4362 316.176 95.5632 316.176ZM105.073 309.32C104.505 309.326 104.018 309.197 103.614 308.934C103.21 308.67 102.905 308.301 102.7 307.826C102.495 307.346 102.395 306.789 102.401 306.156C102.395 305.535 102.498 304.987 102.709 304.513C102.92 304.032 103.227 303.663 103.632 303.405C104.036 303.142 104.516 303.01 105.073 303.01C105.641 303.01 106.125 303.142 106.523 303.405C106.927 303.663 107.229 304.029 107.428 304.504C107.633 304.979 107.739 305.529 107.745 306.156C107.739 306.795 107.631 307.354 107.42 307.835C107.215 308.31 106.913 308.679 106.514 308.942C106.116 309.2 105.635 309.326 105.073 309.32ZM112.579 303.273H114.178L105.442 316H103.842L112.579 303.273ZM103.842 306.156C103.848 306.754 103.954 307.226 104.159 307.571C104.37 307.911 104.675 308.084 105.073 308.09C105.477 308.084 105.779 307.911 105.978 307.571C106.183 307.231 106.286 306.76 106.286 306.156C106.286 305.564 106.186 305.099 105.987 304.759C105.794 304.413 105.495 304.24 105.091 304.24C104.686 304.24 104.379 304.413 104.168 304.759C103.957 305.099 103.848 305.564 103.842 306.156ZM110.434 313.1C110.428 312.473 110.531 311.922 110.742 311.447C110.959 310.967 111.266 310.595 111.665 310.331C112.069 310.067 112.55 309.936 113.106 309.936C113.675 309.936 114.158 310.067 114.556 310.331C114.955 310.589 115.257 310.958 115.462 311.438C115.667 311.913 115.772 312.467 115.778 313.1C115.772 313.732 115.664 314.286 115.453 314.761C115.248 315.235 114.946 315.604 114.548 315.868C114.149 316.132 113.669 316.264 113.106 316.264C112.538 316.264 112.051 316.132 111.647 315.868C111.249 315.604 110.944 315.235 110.733 314.761C110.528 314.28 110.428 313.727 110.434 313.1ZM111.876 313.1C111.882 313.691 111.987 314.16 112.192 314.506C112.403 314.846 112.708 315.016 113.106 315.016C113.51 315.016 113.812 314.846 114.011 314.506C114.217 314.166 114.319 313.697 114.319 313.1C114.319 312.496 114.219 312.024 114.02 311.685C113.821 311.339 113.516 311.166 113.106 311.166C112.714 311.172 112.412 311.348 112.201 311.693C111.99 312.039 111.882 312.508 111.876 313.1ZM122.036 311.148C122.03 312.771 121.804 314.28 121.359 315.675C120.92 317.069 120.278 318.373 119.434 319.586H117.712C118.122 318.994 118.508 318.232 118.872 317.301C119.235 316.369 119.528 315.364 119.751 314.286C119.973 313.202 120.085 312.156 120.085 311.148C120.085 310.141 119.973 309.098 119.751 308.02C119.528 306.941 119.235 305.939 118.872 305.014C118.508 304.082 118.122 303.32 117.712 302.729H119.434C120.278 303.936 120.92 305.236 121.359 306.631C121.804 308.02 122.03 309.525 122.036 311.148Z" fill="#0F172A" fill-opacity="0.68"/>
<circle cx="359.431" cy="155.427" r="77.4272" fill="#98690A"/>
<g clip-path="url(#clip2_3448_24353)">
<path d="M326.099 183.127C325.667 183.708 325.151 184.223 324.57 184.655C325.151 185.088 325.667 185.603 326.099 186.184C326.531 185.601 327.047 185.088 327.627 184.655C327.045 184.223 326.531 183.708 326.099 183.127Z" fill="white"/>
<path d="M367.618 144.574C367.186 145.155 366.67 145.67 366.09 146.103C366.67 146.535 367.186 147.05 367.618 147.631C368.05 147.049 368.566 146.535 369.147 146.103C368.564 145.67 368.05 145.155 367.618 144.574Z" fill="white"/>
<path d="M397.271 190.585C398.09 190.585 398.753 189.922 398.753 189.103C398.753 188.285 398.09 187.621 397.271 187.621C396.453 187.621 395.789 188.285 395.789 189.103C395.789 189.922 396.453 190.585 397.271 190.585Z" fill="white"/>
<path d="M354.885 124.476C356.044 123.318 356.044 121.44 354.885 120.282C353.727 119.123 351.849 119.123 350.691 120.282C349.533 121.44 349.533 123.318 350.691 124.476C351.849 125.634 353.727 125.634 354.885 124.476Z" fill="white"/>
<path d="M352.791 171.311C345.42 171.311 339.445 177.285 339.445 184.656C339.445 192.027 345.42 198.002 352.791 198.002C360.158 197.994 366.127 192.024 366.137 184.656C366.137 177.287 360.162 171.311 352.791 171.311Z" fill="white"/>
<path d="M329.341 130.71C322.081 133.134 317.19 139.934 317.203 147.587C317.187 153.485 320.102 159.007 324.984 162.318C329.866 165.631 336.074 166.301 341.548 164.106C341.14 162.084 340.93 160.029 340.927 157.967C340.917 150.158 343.867 142.635 349.181 136.912C344.594 130.788 336.597 128.289 329.339 130.712L329.341 130.71ZM334.997 153.517H332.031V150.551H334.997V153.517ZM334.997 135.723C331.808 135.529 328.69 136.723 326.448 139.001C322.541 143.291 323.128 150.347 323.133 150.419L320.167 150.686C320.141 150.345 319.466 142.249 324.252 137.007C327.045 134.097 330.966 132.548 334.995 132.759V135.725L334.997 135.723Z" fill="white"/>
<path d="M372.064 129.793C356.505 129.793 343.891 142.406 343.891 157.966C343.891 160.22 344.161 162.468 344.694 164.659C345.113 166.369 345.694 168.036 346.432 169.637C351.47 167.506 357.238 168.042 361.797 171.063C366.357 174.085 369.098 179.189 369.098 184.658C369.098 185.095 369.066 185.526 369.033 185.954C370.04 186.071 371.051 186.132 372.064 186.14C387.624 186.14 400.237 173.527 400.237 157.966C400.237 142.406 387.624 129.793 372.064 129.793ZM369.098 152.034C369.098 152.852 368.434 153.516 367.616 153.516C366.798 153.516 366.134 152.852 366.134 152.034C366.134 149.579 364.142 147.587 361.686 147.587C360.868 147.587 360.204 146.922 360.204 146.104C360.204 145.287 360.868 144.622 361.686 144.622C364.142 144.622 366.134 142.632 366.134 140.175C366.134 139.357 366.798 138.693 367.616 138.693C368.434 138.693 369.098 139.357 369.098 140.175C369.098 142.632 371.09 144.622 373.546 144.622C374.364 144.622 375.028 145.287 375.028 146.104C375.028 146.922 374.364 147.587 373.546 147.587C371.09 147.587 369.098 149.579 369.098 152.034ZM376.512 177.24H373.546V174.274H376.512V177.24ZM391.339 160.93C388.884 160.93 386.892 162.922 386.892 165.378C386.892 166.196 386.228 166.86 385.41 166.86C384.592 166.86 383.928 166.196 383.928 165.378C383.928 162.922 381.935 160.93 379.48 160.93C378.662 160.93 377.998 160.266 377.998 159.448C377.998 158.63 378.662 157.966 379.48 157.966C381.935 157.966 383.928 155.976 383.928 153.518C383.928 152.7 384.592 152.036 385.41 152.036C386.228 152.036 386.892 152.7 386.892 153.518C386.892 155.976 388.884 157.966 391.339 157.966C392.157 157.966 392.821 158.63 392.821 159.448C392.821 160.266 392.157 160.93 391.339 160.93ZM394.322 156.679C391.569 136.04 374.288 135.725 373.546 135.725V132.759C373.752 132.759 394.157 133.03 397.26 156.288L394.322 156.679Z" fill="white"/>
<path d="M385.411 157.922C384.979 158.502 384.463 159.018 383.883 159.45C384.463 159.882 384.979 160.398 385.411 160.979C385.843 160.396 386.359 159.882 386.94 159.45C386.357 159.018 385.843 158.502 385.411 157.922Z" fill="white"/>
<path d="M388.372 120.942C388.804 120.359 389.32 119.845 389.901 119.413C389.318 118.981 388.804 118.465 388.372 117.885C387.94 118.465 387.424 118.981 386.844 119.413C387.424 119.845 387.94 120.361 388.372 120.942Z" fill="white"/>
<path d="M332.029 183.172C329.574 183.172 327.581 181.182 327.581 178.724C327.581 177.906 326.917 177.242 326.099 177.242C325.281 177.242 324.617 177.906 324.617 178.724C324.617 181.182 322.625 183.172 320.17 183.172C319.352 183.172 318.688 183.836 318.688 184.654C318.688 185.472 319.352 186.136 320.17 186.136C322.625 186.136 324.617 188.128 324.617 190.584C324.617 191.402 325.281 192.066 326.099 192.066C326.917 192.066 327.581 191.402 327.581 190.584C327.581 188.128 329.574 186.136 332.029 186.136C332.847 186.136 333.511 185.472 333.511 184.654C333.511 183.836 332.847 183.172 332.029 183.172ZM326.098 186.184C325.665 185.602 325.15 185.088 324.569 184.656C325.15 184.224 325.665 183.708 326.098 183.128C326.53 183.708 327.045 184.224 327.626 184.656C327.044 185.088 326.53 185.604 326.098 186.184Z" fill="white"/>
<path d="M382.443 120.896C384.899 120.896 386.891 122.888 386.891 125.344C386.891 126.162 387.555 126.826 388.373 126.826C389.191 126.826 389.855 126.162 389.855 125.344C389.855 122.888 391.847 120.896 394.303 120.896C395.121 120.896 395.785 120.232 395.785 119.414C395.785 118.596 395.121 117.932 394.303 117.932C391.847 117.932 389.855 115.942 389.855 113.484C389.855 112.666 389.191 112.002 388.373 112.002C387.555 112.002 386.891 112.666 386.891 113.484C386.891 115.942 384.899 117.932 382.443 117.932C381.625 117.932 380.961 118.596 380.961 119.414C380.961 120.232 381.625 120.896 382.443 120.896Z" fill="white"/>
<path d="M334.993 172.793H332.027V175.759H334.993V172.793Z" fill="white"/>
<path d="M320.169 193.551H317.203V196.517H320.169V193.551Z" fill="white"/>
<path d="M397.268 184.652C394.812 184.652 392.82 186.644 392.82 189.1C392.82 191.556 394.812 193.548 397.268 193.548C399.724 193.548 401.716 191.558 401.716 189.1C401.716 186.643 399.724 184.652 397.268 184.652Z" fill="white"/>
<path d="M370.583 119.414H367.617V122.38H370.583V119.414Z" fill="white"/>
<path d="M385.407 193.551H382.441V196.517H385.407V193.551Z" fill="white"/>
</g>
<ellipse cx="566.703" cy="155" rx="60.5" ry="61" fill="#FFD47C"/>
<g clip-path="url(#clip3_3448_24353)">
<path d="M546.097 123.356C546.837 123.356 547.436 122.757 547.436 122.017C547.436 121.277 546.837 120.678 546.097 120.678C545.357 120.678 544.758 121.277 544.758 122.017C544.758 122.757 545.357 123.356 546.097 123.356Z" fill="white"/>
<path d="M570.203 120.679C570.942 120.679 571.542 120.079 571.542 119.339C571.542 118.6 570.942 118 570.203 118C569.463 118 568.863 118.6 568.863 119.339C568.863 120.079 569.463 120.679 570.203 120.679Z" fill="white"/>
<path d="M534.042 146.126C534.782 146.126 535.382 145.526 535.382 144.787C535.382 144.047 534.782 143.447 534.042 143.447C533.303 143.447 532.703 144.047 532.703 144.787C532.703 145.526 533.303 146.126 534.042 146.126Z" fill="white"/>
<path d="M576.902 134.069C577.641 134.069 578.241 133.47 578.241 132.73C578.241 131.99 577.641 131.391 576.902 131.391C576.162 131.391 575.562 131.99 575.562 132.73C575.562 133.47 576.162 134.069 576.902 134.069Z" fill="white"/>
<path d="M534.042 120.679C534.782 120.679 535.382 120.079 535.382 119.339C535.382 118.6 534.782 118 534.042 118C533.303 118 532.703 118.6 532.703 119.339C532.703 120.079 533.303 120.679 534.042 120.679Z" fill="white"/>
<path d="M586.277 140.768C587.016 140.768 587.616 140.169 587.616 139.429C587.616 138.689 587.016 138.09 586.277 138.09C585.537 138.09 584.938 138.689 584.938 139.429C584.938 140.169 585.537 140.768 586.277 140.768Z" fill="white"/>
<path d="M596.988 135.413C597.727 135.413 598.327 134.813 598.327 134.074C598.327 133.334 597.727 132.734 596.988 132.734C596.248 132.734 595.648 133.334 595.648 134.074C595.648 134.813 596.248 135.413 596.988 135.413Z" fill="white"/>
<path d="M598.33 152.821C600.549 152.821 602.348 151.022 602.348 148.803C602.348 146.584 600.549 144.785 598.33 144.785C596.111 144.785 594.312 146.584 594.312 148.803C594.312 151.022 596.111 152.821 598.33 152.821Z" fill="white"/>
<path d="M584.933 126.038C585.673 126.038 586.272 125.438 586.272 124.699C586.272 123.959 585.673 123.359 584.933 123.359C584.193 123.359 583.594 123.959 583.594 124.699C583.594 125.438 584.193 126.038 584.933 126.038Z" fill="white"/>
<path d="M536.722 131.393C537.462 131.393 538.061 130.794 538.061 130.054C538.061 129.314 537.462 128.715 536.722 128.715C535.982 128.715 535.383 129.314 535.383 130.054C535.383 130.794 535.982 131.393 536.722 131.393Z" fill="white"/>
<path d="M593.348 167.163L588.814 157.179C588.747 157.033 588.655 156.899 588.543 156.787L572.79 141.033C572.537 140.777 572.191 140.635 571.831 140.637C571.091 140.642 570.495 141.244 570.5 141.984C570.5 142.336 570.64 142.672 570.888 142.922L581.314 153.348C581.837 153.871 581.837 154.716 581.314 155.237C580.794 155.759 579.948 155.759 579.426 155.237L569 144.822L565.21 141.032C564.709 140.603 563.969 140.603 563.467 141.032C562.904 141.512 562.839 142.358 563.321 142.92L577.524 157.137C578.045 157.659 578.045 158.504 577.524 159.025C577.004 159.547 576.158 159.547 575.636 159.025L561.419 144.822L558.58 141.983C558.058 141.464 557.214 141.464 556.692 141.983C556.173 142.505 556.173 143.349 556.692 143.871L573.734 160.927C574.255 161.449 574.255 162.295 573.734 162.815C573.212 163.338 572.366 163.338 571.846 162.815L557.643 148.612C557.117 148.09 556.266 148.09 555.741 148.612C555.222 149.135 555.222 149.978 555.741 150.501L569.944 164.717C570.465 165.239 570.465 166.085 569.944 166.605C569.422 167.128 568.576 167.128 568.056 166.605L562.37 160.92C561.845 160.411 561.008 160.411 560.482 160.92C560.226 161.171 560.082 161.513 560.08 161.871C560.08 162.224 560.226 162.564 560.482 162.809L571.492 173.833C571.606 173.946 571.739 174.039 571.886 174.105L581.87 178.639C582.018 178.704 582.15 178.8 582.259 178.92L594.573 191.222C595.096 191.742 595.939 191.742 596.462 191.222L605.931 181.753C606.451 181.232 606.453 180.387 605.931 179.864L593.629 167.55C593.509 167.441 593.413 167.309 593.348 167.161V167.163Z" fill="white"/>
<path d="M554.789 145.776C554.531 145.503 554.31 145.197 554.133 144.865V146.486C554.386 146.273 554.665 146.094 554.963 145.95L554.789 145.776Z" fill="white"/>
<path d="M603.686 126.036C605.905 126.036 607.704 124.237 607.704 122.018C607.704 119.799 605.905 118 603.686 118C601.467 118 599.668 119.799 599.668 122.018C599.668 124.237 601.467 126.036 603.686 126.036Z" fill="white"/>
<path d="M556.811 138.999V127.374C556.818 127.026 556.676 126.69 556.423 126.45C556.18 126.183 555.834 126.032 555.472 126.035C554.732 126.035 554.133 126.635 554.133 127.374V140.995C554.31 140.664 554.531 140.357 554.789 140.084C555.348 139.54 556.05 139.165 556.811 138.999Z" fill="white"/>
<path d="M558.57 164.706C557.007 163.138 557.01 160.6 558.579 159.036C558.908 158.715 559.294 158.455 559.717 158.273L554.132 152.822H552.793C552.053 152.822 551.454 152.222 551.454 151.482V131.438C551.454 130.725 550.915 130.102 550.203 130.056C549.423 130.005 548.775 130.623 548.775 131.392V151.481C548.775 152.221 548.176 152.82 547.436 152.82C546.696 152.82 546.097 152.221 546.097 151.481V136.749C546.103 136.4 545.961 136.064 545.708 135.825C545.465 135.557 545.119 135.406 544.757 135.409C544.017 135.409 543.418 136.009 543.418 136.749V159.275L547.355 169.762C547.409 169.913 547.436 170.072 547.436 170.231V192.999H563.507V170.231C563.507 170.072 563.534 169.913 563.588 169.762L563.601 169.735L558.579 164.713C558.579 164.713 558.574 164.708 558.57 164.705V164.706Z" fill="white"/>
<path d="M560.479 140.084L560.653 140.258C560.967 139.55 561.497 138.959 562.167 138.571V131.392C562.174 131.044 562.031 130.707 561.778 130.468C561.536 130.2 561.189 130.049 560.828 130.053C560.088 130.053 559.488 130.652 559.488 131.392V139.388C559.852 139.57 560.185 139.804 560.479 140.084Z" fill="white"/>
</g>
<path d="M331.59 256.051C331.59 256.906 331.71 257.753 331.95 258.591C332.19 259.423 332.548 260.185 333.022 260.876C333.497 261.567 334.074 262.121 334.754 262.537L333.822 263.82C333.107 263.393 332.495 262.81 331.985 262.071C331.481 261.327 331.089 260.483 330.808 259.54C330.515 260.565 330.096 261.479 329.551 262.282C329.012 263.085 328.367 263.715 327.617 264.172L326.58 262.924C327.301 262.49 327.916 261.913 328.426 261.192C328.941 260.472 329.328 259.675 329.586 258.802C329.85 257.923 329.979 257.029 329.973 256.121V253.186H331.59V256.051ZM333.049 257.281H335.492V252.043H337.074V266.721H335.492V258.67H333.049V257.281ZM338.744 251.744H340.344V267.494H338.744V251.744ZM355.865 267.494H354.266V251.744H355.865V267.494ZM342.119 263.152C342.84 262.719 343.452 262.133 343.956 261.395C344.466 260.656 344.847 259.836 345.099 258.934C345.356 258.025 345.488 257.094 345.494 256.139V254.873H342.594V253.52H349.801V254.873H347.094V256.139C347.094 257.053 347.217 257.94 347.463 258.802C347.715 259.663 348.087 260.442 348.579 261.14C349.077 261.837 349.684 262.391 350.398 262.801L349.396 264.031C348.664 263.598 348.037 263 347.516 262.238C347 261.477 346.599 260.606 346.312 259.628C346.024 260.688 345.611 261.632 345.072 262.458C344.533 263.284 343.889 263.932 343.139 264.4L342.119 263.152ZM348.641 257.316H351.084V252.078H352.666V266.703H351.084V258.688H348.641V257.316ZM367.098 256.051C367.098 256.906 367.218 257.753 367.458 258.591C367.698 259.423 368.056 260.185 368.53 260.876C369.005 261.567 369.582 262.121 370.262 262.537L369.33 263.82C368.615 263.393 368.003 262.81 367.493 262.071C366.989 261.327 366.597 260.483 366.315 259.54C366.022 260.565 365.604 261.479 365.059 262.282C364.52 263.085 363.875 263.715 363.125 264.172L362.088 262.924C362.809 262.49 363.424 261.913 363.934 261.192C364.449 260.472 364.836 259.675 365.094 258.802C365.357 257.923 365.486 257.029 365.48 256.121V253.186H367.098V256.051ZM368.557 257.281H371V252.043H372.582V266.721H371V258.67H368.557V257.281ZM374.252 251.744H375.852V267.494H374.252V251.744ZM390.986 267.512H389.316V263.469H380.316V262.08H390.986V267.512ZM377.855 259.918C378.641 259.666 379.323 259.303 379.903 258.828C380.489 258.348 380.938 257.794 381.248 257.167C381.564 256.54 381.723 255.887 381.723 255.207V254.926H378.295V253.572H381.723V251.674H383.393V253.572H386.803V254.926H383.375V255.207C383.375 255.846 383.533 256.458 383.85 257.044C384.166 257.63 384.617 258.146 385.203 258.591C385.789 259.036 386.475 259.373 387.26 259.602L386.504 260.938C385.59 260.656 384.796 260.237 384.122 259.681C383.448 259.124 382.933 258.465 382.575 257.703C382.229 258.523 381.72 259.238 381.046 259.848C380.378 260.457 379.584 260.914 378.664 261.219L377.855 259.918ZM386.258 256.262H389.316V251.744H390.986V261.342H389.316V257.633H386.258V256.262ZM335.817 288.148C335.823 286.525 336.046 285.02 336.485 283.631C336.931 282.236 337.575 280.936 338.419 279.729H340.142C339.731 280.32 339.345 281.082 338.981 282.014C338.618 282.939 338.325 283.941 338.103 285.02C337.88 286.098 337.769 287.141 337.769 288.148C337.769 289.156 337.88 290.202 338.103 291.286C338.325 292.364 338.618 293.369 338.981 294.301C339.345 295.232 339.731 295.994 340.142 296.586H338.419C337.575 295.373 336.931 294.069 336.485 292.675C336.046 291.28 335.823 289.771 335.817 288.148ZM341.565 288.957L347.19 280.273H349.581V288.887H351.321V290.521H349.581V293H347.753V290.521H341.565V288.957ZM347.753 288.887V282.576H347.612L343.604 288.781V288.887H347.753ZM359.39 282.031V281.926H352.833V280.273H361.394V281.996L355.733 293H353.712L359.39 282.031ZM366.263 286.32C365.694 286.326 365.208 286.197 364.804 285.934C364.399 285.67 364.095 285.301 363.89 284.826C363.685 284.346 363.585 283.789 363.591 283.156C363.585 282.535 363.688 281.987 363.898 281.513C364.109 281.032 364.417 280.663 364.821 280.405C365.226 280.142 365.706 280.01 366.263 280.01C366.831 280.01 367.314 280.142 367.713 280.405C368.117 280.663 368.419 281.029 368.618 281.504C368.823 281.979 368.929 282.529 368.935 283.156C368.929 283.795 368.82 284.354 368.609 284.835C368.404 285.31 368.103 285.679 367.704 285.942C367.306 286.2 366.825 286.326 366.263 286.32ZM373.769 280.273H375.368L366.632 293H365.032L373.769 280.273ZM365.032 283.156C365.038 283.754 365.144 284.226 365.349 284.571C365.56 284.911 365.864 285.084 366.263 285.09C366.667 285.084 366.969 284.911 367.168 284.571C367.373 284.231 367.476 283.76 367.476 283.156C367.476 282.564 367.376 282.099 367.177 281.759C366.983 281.413 366.685 281.24 366.28 281.24C365.876 281.24 365.568 281.413 365.357 281.759C365.146 282.099 365.038 282.564 365.032 283.156ZM371.624 290.1C371.618 289.473 371.721 288.922 371.932 288.447C372.148 287.967 372.456 287.595 372.854 287.331C373.259 287.067 373.739 286.936 374.296 286.936C374.864 286.936 375.348 287.067 375.746 287.331C376.145 287.589 376.446 287.958 376.651 288.438C376.856 288.913 376.962 289.467 376.968 290.1C376.962 290.732 376.854 291.286 376.643 291.761C376.438 292.235 376.136 292.604 375.737 292.868C375.339 293.132 374.858 293.264 374.296 293.264C373.728 293.264 373.241 293.132 372.837 292.868C372.438 292.604 372.134 292.235 371.923 291.761C371.718 291.28 371.618 290.727 371.624 290.1ZM373.065 290.1C373.071 290.691 373.177 291.16 373.382 291.506C373.593 291.846 373.897 292.016 374.296 292.016C374.7 292.016 375.002 291.846 375.201 291.506C375.406 291.166 375.509 290.697 375.509 290.1C375.509 289.496 375.409 289.024 375.21 288.685C375.011 288.339 374.706 288.166 374.296 288.166C373.903 288.172 373.602 288.348 373.391 288.693C373.18 289.039 373.071 289.508 373.065 290.1ZM383.226 288.148C383.22 289.771 382.994 291.28 382.549 292.675C382.109 294.069 381.468 295.373 380.624 296.586H378.901C379.312 295.994 379.698 295.232 380.062 294.301C380.425 293.369 380.718 292.364 380.94 291.286C381.163 290.202 381.274 289.156 381.274 288.148C381.274 287.141 381.163 286.098 380.94 285.02C380.718 283.941 380.425 282.939 380.062 282.014C379.698 281.082 379.312 280.32 378.901 279.729H380.624C381.468 280.936 382.109 282.236 382.549 283.631C382.994 285.02 383.22 286.525 383.226 288.148Z" fill="#0F172A" fill-opacity="0.68"/>
<path d="M278.089 22.1927H280.176V23.3034C280.176 26.693 278.587 29.7379 275.197 30.8677L273.895 28.857C276.844 27.8803 278.089 25.5631 278.089 23.3034V22.1927ZM278.606 22.1927H280.674V23.3034C280.674 25.4099 281.88 27.5739 284.753 28.4931L283.393 30.4273C280.157 29.3549 278.606 26.5015 278.606 23.3034V22.1927ZM274.622 21.2735H284.14V23.3034H274.622V21.2735ZM285.557 19.9713H288.104V32.9551H285.557V19.9713ZM287.377 25.1227H290.46V27.21H287.377V25.1227ZM276.672 35.368H288.736V37.398H276.672V35.368ZM276.672 31.6912H279.219V36.4405H276.672V31.6912ZM291.582 30.3698H307.649V32.3806H291.582V30.3698ZM295.278 31.4231H297.844V37.7044H295.278V31.4231ZM301.406 31.4231H303.972V37.7044H301.406V31.4231ZM293.42 20.5075H305.791V25.6972H296.044V28.4548H293.458V23.8205H303.206V22.5374H293.42V20.5075ZM293.458 27.0951H306.232V29.1059H293.458V27.0951ZM311.05 24.3758H323.287V26.4057H311.05V24.3758ZM311.05 20.2585H313.577V25.295H311.05V20.2585ZM309.039 28.1676H325.087V30.1783H309.039V28.1676ZM315.78 25.5631H318.327V29.0676H315.78V25.5631ZM317.005 31.1358C320.835 31.1358 323.153 32.3232 323.153 34.4297C323.153 36.5171 320.835 37.7044 317.005 37.7044C313.175 37.7044 310.839 36.5171 310.839 34.4297C310.839 32.3232 313.175 31.1358 317.005 31.1358ZM317.005 33.07C314.631 33.07 313.424 33.4913 313.424 34.4297C313.424 35.3297 314.631 35.7702 317.005 35.7702C319.38 35.7702 320.586 35.3297 320.586 34.4297C320.586 33.4913 319.38 33.07 317.005 33.07ZM339.633 22.2693H342.697V24.3567H339.633V22.2693ZM339.633 26.1185H342.697V28.2059H339.633V26.1185ZM337.871 19.9713H340.418V30.4273H337.871V19.9713ZM328.583 31.155H340.418V37.7044H337.871V33.1849H328.583V31.155ZM331.398 20.9288C334.137 20.9288 336.224 22.748 336.224 25.2759C336.224 27.8037 334.137 29.6038 331.398 29.6038C328.66 29.6038 326.573 27.8037 326.573 25.2759C326.573 22.748 328.66 20.9288 331.398 20.9288ZM331.398 23.0927C330.058 23.0927 329.062 23.8779 329.062 25.2759C329.062 26.6738 330.058 27.4781 331.398 27.4781C332.739 27.4781 333.735 26.6738 333.735 25.2759C333.735 23.8779 332.739 23.0927 331.398 23.0927ZM356.707 19.9713H359.12V37.7044H356.707V19.9713ZM350.866 26.0227H353.796V28.091H350.866V26.0227ZM353.126 20.2585H355.501V36.9001H353.126V20.2585ZM347.036 22.8629H348.951V24.6822C348.951 28.6655 347.86 32.6296 345.045 34.3914L343.532 32.5147C346.136 30.8869 347.036 27.7079 347.036 24.6822V22.8629ZM347.611 22.8629H349.507V24.6822C349.507 27.6313 350.388 30.6188 352.954 32.1125L351.46 33.9701C348.645 32.304 347.611 28.5889 347.611 24.6822V22.8629ZM344.202 21.7522H352.111V23.8013H344.202V21.7522ZM373.628 19.9713H376.175V37.7044H373.628V19.9713ZM370.2 26.7696H374.854V28.8378H370.2V26.7696ZM367.806 21.8097H370.315C370.315 27.1909 368.611 31.5763 362.463 34.6595L361.123 32.6679C366.14 30.1783 367.806 26.9611 367.806 22.2693V21.8097ZM361.966 21.8097H369.147V23.8205H361.966V21.8097ZM382.774 27.8229H385.302V31.2316H382.774V27.8229ZM388.308 27.8229H390.836V31.2316H388.308V27.8229ZM386.796 20.1436C390.836 20.1436 393.211 21.1969 393.211 23.1502C393.211 25.1035 390.836 26.1759 386.796 26.1759C382.736 26.1759 380.38 25.1035 380.38 23.1502C380.38 21.1969 382.736 20.1436 386.796 20.1436ZM386.796 22.0012C384.229 22.0012 383.023 22.365 383.023 23.1502C383.023 23.9737 384.229 24.3184 386.796 24.3184C389.362 24.3184 390.568 23.9737 390.568 23.1502C390.568 22.365 389.362 22.0012 386.796 22.0012ZM378.772 26.8845H394.8V28.8761H378.772V26.8845ZM380.61 30.1017H392.866V34.6595H383.138V36.2298H380.629V32.8977H390.357V31.9976H380.61V30.1017ZM380.629 35.6744H393.326V37.5895H380.629V35.6744Z" fill="#333333"/>
</g>
<defs>
<clipPath id="clip0_3448_24353">
<rect width="637" height="332" fill="white"/>
</clipPath>
<clipPath id="clip1_3448_24353">
<rect width="95.7759" height="101" fill="white" transform="translate(49.2031 99)"/>
</clipPath>
<clipPath id="clip2_3448_24353">
<rect width="84.518" height="86" fill="white" transform="translate(317.203 112)"/>
</clipPath>
<clipPath id="clip3_3448_24353">
<rect width="75" height="75" fill="white" transform="translate(532.703 118)"/>
</clipPath>
</defs>
</svg>
