<svg width="47" height="48" viewBox="0 0 47 48" fill="none" xmlns="http://www.w3.org/2000/svg">
<path d="M23.354 47.3632C36.252 47.3632 46.708 36.9073 46.708 24.0093C46.708 11.1112 36.252 0.655273 23.354 0.655273C10.4559 0.655273 0 11.1112 0 24.0093C0 36.9073 10.4559 47.3632 23.354 47.3632Z" fill="#2350A1"/>
<path d="M34.6185 18.4437V13.3119C34.6185 11.768 33.3573 10.5068 31.8134 10.5068H14.9394C13.3955 10.5068 12.1343 11.768 12.1343 13.3119V18.4437C10.8513 18.7046 9.8728 19.8354 9.8728 21.2053V22.336C9.8728 23.2711 10.6339 24.0321 11.5689 24.0321H12.1343V32.4691C12.1343 33.8173 13.1128 34.9698 14.3957 35.2307V35.8396C14.3957 36.7746 15.1568 37.5357 16.0918 37.5357H18.3533C19.2883 37.5357 20.0494 36.7746 20.0494 35.8396V35.2742H26.812V35.8396C26.812 36.7746 27.5731 37.5357 28.5081 37.5357H30.7696C31.7046 37.5357 32.4657 36.7746 32.4657 35.8396V35.2307C33.7487 34.9698 34.7272 33.8391 34.7272 32.4691V24.0321H35.2925C36.2276 24.0321 36.9886 23.2711 36.9886 22.336V21.2053C36.9886 19.8571 36.0101 18.7046 34.7272 18.4437H34.6185ZM17.2878 32.0125C16.2875 32.0125 15.483 31.2079 15.483 30.2077C15.483 29.2074 16.2875 28.4029 17.2878 28.4029C18.2881 28.4029 19.0926 29.2074 19.0926 30.2077C19.0926 31.2079 18.2881 32.0125 17.2878 32.0125ZM29.4432 32.0125C28.4429 32.0125 27.6384 31.2079 27.6384 30.2077C27.6384 29.2074 28.4429 28.4029 29.4432 28.4029C30.4434 28.4029 31.248 29.2074 31.248 30.2077C31.248 31.2079 30.4434 32.0125 29.4432 32.0125ZM32.3787 24.5758C32.3787 25.5108 31.6177 26.2719 30.6826 26.2719H16.0483C15.1133 26.2719 14.3522 25.5108 14.3522 24.5758V18.9438C14.3522 18.0088 15.1133 17.2477 16.0483 17.2477H30.6826C31.6177 17.2477 32.3787 18.0088 32.3787 18.9438V24.5758Z" fill="white"/>
</svg>
