<svg width="158" height="161" viewBox="0 0 158 161" fill="none" xmlns="http://www.w3.org/2000/svg">
<path d="M125.635 90.9789C125.607 90.9357 125.579 90.8853 125.557 90.835C125.55 90.8134 124.715 88.9358 122.598 88.9358C121.734 88.9358 120.778 89.2524 119.744 89.8926L98.8145 102.237C98.7154 102.295 98.6021 102.331 98.4888 102.338C97.5967 102.935 96.4072 103.287 95.2531 103.287H79.5557C79.0884 103.287 78.6353 103.086 78.2742 102.719C77.8777 102.309 77.6511 101.741 77.6582 101.151C77.6653 100.101 78.522 99.2516 79.5699 99.2516H95.1681C95.8337 99.2516 96.4922 98.9783 96.9595 98.4963C97.4126 98.0359 97.6604 97.4316 97.6533 96.7986C97.6533 95.6044 96.7471 94.3671 95.246 94.3671H77.6794C77.1626 94.3671 76.759 94.3239 76.1571 93.7053C72.8435 89.7056 67.3137 88.8711 63.2495 88.8711C61.4369 88.8711 59.858 89.0366 58.8242 89.1876V114.071H62.5414C63.03 114.071 63.5185 114.2 63.9505 114.445C64.7505 114.905 65.6356 115.344 66.4428 115.668C68.6377 116.783 70.9034 117.934 73.1196 118.876C73.1692 118.898 78.1397 120.977 82.1259 120.977C83.4854 120.977 84.5545 120.732 85.3334 120.243L124.198 97.6546C125.239 97.0216 125.968 95.9785 126.244 94.7196C126.534 93.4031 126.308 92.0004 125.635 90.9717V90.9789Z" fill="#FF8201"/>
<path d="M36.7695 119.956H55.0371V88.001C54.945 87.6413 54.945 87.2816 55.0371 86.9507V82.4043H36.7695V119.956ZM45.9033 95.648C48.8983 95.648 51.1641 98.0291 51.1641 101.18C51.1641 104.331 48.8558 106.525 45.9033 106.525C42.9508 106.525 40.4584 104.129 40.4584 101.18C40.4584 98.0794 42.8516 95.648 45.9033 95.648Z" fill="#FF8201"/>
<path d="M45.9008 103.459C47.2106 103.459 48.1452 102.51 48.1452 101.179C48.1452 99.848 47.2106 98.8984 45.9008 98.8984C44.5909 98.8984 43.6562 99.848 43.6562 101.179C43.6562 102.51 44.5909 103.459 45.9008 103.459Z" fill="#FF8201"/>
<path d="M115.173 67.608H107.887L109.99 61.2344H115.173C116.235 61.2344 117.099 60.3568 117.099 59.2777C117.099 58.1986 116.235 57.321 115.173 57.321H111.279L113.75 49.8251C114.422 47.7821 113.339 45.5665 111.328 44.8831C109.317 44.1996 107.137 45.3003 106.457 47.3433L103.165 57.321H97.5144L94.5264 46.3793C94.0733 44.7248 92.643 43.6241 91.0499 43.5234C91.0499 43.5234 91.0358 43.5234 91.0287 43.5234C90.9508 43.5234 90.8729 43.5234 90.795 43.5234C90.7171 43.5234 90.6393 43.5234 90.5614 43.5234H90.5472C88.947 43.617 87.5239 44.7248 87.0707 46.3793L84.0828 57.321H78.4326L75.1402 47.3433C74.4675 45.3003 72.2868 44.1925 70.2688 44.8831C68.258 45.5665 67.1676 47.7821 67.8473 49.8251L70.3184 57.321H66.7853C65.7232 57.321 64.8594 58.1986 64.8594 59.2777C64.8594 60.3568 65.7232 61.2344 66.7853 61.2344H71.607L73.7099 67.608H66.7853C65.7232 67.608 64.8594 68.4857 64.8594 69.5647C64.8594 70.6438 65.7232 71.5214 66.7853 71.5214H74.9986L78.2202 81.2977C78.7441 82.8947 80.2169 83.9666 81.8666 83.9666C81.902 83.9666 81.9374 83.9666 81.9657 83.9666C83.6579 83.9234 85.1165 82.758 85.5697 81.1035L88.1823 71.5286H93.4006L96.0133 81.1035C96.4665 82.758 97.925 83.9162 99.6173 83.9666C99.6527 83.9666 99.6881 83.9666 99.7164 83.9666C101.366 83.9666 102.839 82.8947 103.363 81.2977L106.584 71.5214H115.159C116.221 71.5214 117.085 70.6438 117.085 69.5647C117.085 68.4857 116.221 67.608 115.159 67.608H115.173ZM101.876 61.2344L100.07 66.7016L98.5764 61.2344H101.876ZM83.0136 61.2344L81.5196 66.7016L79.7141 61.2344H83.0136ZM89.2586 67.608L90.8021 61.961L92.3456 67.608H89.2586Z" fill="#FF8201"/>
</svg>
