<svg width="128" height="129" viewBox="0 0 128 129" fill="none" xmlns="http://www.w3.org/2000/svg">
<g clip-path="url(#clip0_2981_27194)">
<path d="M124.251 121.041H3.74911C1.67849 121.041 0 122.72 0 124.79C0 126.861 1.67849 128.539 3.74911 128.539H124.251C126.322 128.539 128 126.861 128 124.79C128 122.72 126.322 121.041 124.251 121.041Z" fill="#FFB724"/>
<path d="M78.3557 55.8306V4.28817C78.3557 2.21756 76.6772 0.539062 74.6065 0.539062H14.1046C12.034 0.539062 10.3555 2.21756 10.3555 4.28817V124.79C10.3555 126.861 12.034 128.539 14.1046 128.539H74.6065C76.6772 128.539 78.3557 126.861 78.3557 124.79V108.626C73.2186 106.705 69.0238 103.72 65.6978 100.555C62.9897 97.9764 60.8542 95.2767 59.2575 92.9324C58.3237 91.5614 57.5705 90.3117 56.995 89.282C55.7961 87.1381 55.1614 84.7007 55.1614 82.2295C55.1614 79.7583 55.7961 77.321 56.995 75.177C59.7653 70.2206 66.5836 60.2314 78.3557 55.8335V55.8306ZM58.4197 19.2874C58.4197 17.2168 60.0981 15.5383 62.1688 15.5383C64.2394 15.5383 65.9179 17.2168 65.9179 19.2874V23.2876C65.9179 25.3582 64.2394 27.0367 62.1688 27.0367C60.0981 27.0367 58.4197 25.3582 58.4197 23.2876V19.2874ZM58.4197 38.2897C58.4197 36.2191 60.0981 34.5406 62.1688 34.5406C64.2394 34.5406 65.9179 36.2191 65.9179 38.2897V42.2898C65.9179 44.3605 64.2394 46.0389 62.1688 46.0389C60.0981 46.0389 58.4197 44.3605 58.4197 42.2898V38.2897ZM58.4197 57.2891C58.4197 55.2185 60.0981 53.54 62.1688 53.54C64.2394 53.54 65.9179 55.2185 65.9179 57.2891V61.2893C65.9179 63.3599 64.2394 65.0384 62.1688 65.0384C60.0981 65.0384 58.4197 63.3599 58.4197 61.2893V57.2891ZM23.0443 19.2874C23.0443 17.2168 24.7228 15.5383 26.7934 15.5383C28.864 15.5383 30.5425 17.2168 30.5425 19.2874V23.2876C30.5425 25.3582 28.864 27.0367 26.7934 27.0367C24.7228 27.0367 23.0443 25.3582 23.0443 23.2876V19.2874ZM23.0443 38.2897C23.0443 36.2191 24.7228 34.5406 26.7934 34.5406C28.864 34.5406 30.5425 36.2191 30.5425 38.2897V42.2898C30.5425 44.3605 28.864 46.0389 26.7934 46.0389C24.7228 46.0389 23.0443 44.3605 23.0443 42.2898V38.2897ZM23.0443 57.2891C23.0443 55.2185 24.7228 53.54 26.7934 53.54C28.864 53.54 30.5425 55.2185 30.5425 57.2891V61.2893C30.5425 63.3599 28.864 65.0384 26.7934 65.0384C24.7228 65.0384 23.0443 63.3599 23.0443 61.2893V57.2891ZM23.0443 76.2913C23.0443 74.2207 24.7228 72.5422 26.7934 72.5422C28.864 72.5422 30.5425 74.2207 30.5425 76.2913V80.2915C30.5425 82.3621 28.864 84.0406 26.7934 84.0406C24.7228 84.0406 23.0443 82.3621 23.0443 80.2915V76.2913ZM30.9177 124.014H23.4167V109.266C23.4167 107.195 25.0952 105.517 27.1658 105.517C29.2364 105.517 30.9149 107.195 30.9149 109.266V124.014H30.9177ZM48.1061 99.2909C48.1061 99.5505 48.0807 99.8015 48.0299 100.047C47.9058 100.656 47.6321 101.215 47.2485 101.678C47.1723 101.771 47.0905 101.858 47.0059 101.943C46.6674 102.281 46.2611 102.558 45.8126 102.747C45.6998 102.795 45.5841 102.837 45.4684 102.874C45.1158 102.984 44.7406 103.043 44.3541 103.043C42.2835 103.043 40.605 101.364 40.605 99.2938V95.2936C40.605 93.223 42.2835 91.5445 44.3541 91.5445C44.7434 91.5445 45.1158 91.6037 45.4684 91.7137C45.5869 91.7504 45.6998 91.7927 45.8126 91.8407C46.2611 92.0297 46.6646 92.3062 47.0059 92.6447C47.0905 92.7293 47.1723 92.8196 47.2485 92.9098C47.6293 93.3725 47.903 93.9282 48.0299 94.5404C48.0807 94.7858 48.1061 95.0369 48.1061 95.2964V99.2966V99.2909ZM48.1061 80.2915C48.1061 80.551 48.0807 80.8021 48.0299 81.0475C47.9058 81.6569 47.6321 82.2126 47.2485 82.6781C47.1723 82.7712 47.0905 82.8586 47.0059 82.9433C46.6674 83.2818 46.2611 83.5582 45.8126 83.7472C45.6998 83.7952 45.5841 83.8375 45.4684 83.8742C45.1158 83.9842 44.7406 84.0434 44.3541 84.0434C42.2835 84.0434 40.605 82.365 40.605 80.2943V76.2942C40.605 74.2235 42.2835 72.5451 44.3541 72.5451C44.7434 72.5451 45.1158 72.6043 45.4684 72.7143C45.5869 72.751 45.6998 72.7933 45.8126 72.8413C46.2611 73.0303 46.6646 73.3067 47.0059 73.6452C47.0905 73.7299 47.1723 73.8201 47.2485 73.9104C47.6293 74.3731 47.903 74.9288 48.0299 75.541C48.0807 75.7864 48.1061 76.0374 48.1061 76.297V80.2972V80.2915ZM48.1061 61.2893C48.1061 61.5488 48.0807 61.7999 48.0299 62.0453C47.9058 62.6546 47.6321 63.2132 47.2485 63.6758C47.1723 63.7689 47.0905 63.8564 47.0059 63.941C46.6674 64.2795 46.2611 64.556 45.8126 64.745C45.6998 64.793 45.5841 64.8353 45.4684 64.8719C45.1158 64.982 44.7406 65.0412 44.3541 65.0412C42.2835 65.0412 40.605 63.3627 40.605 61.2921V57.2919C40.605 55.2213 42.2835 53.5428 44.3541 53.5428C44.7434 53.5428 45.1158 53.6021 45.4684 53.7121C45.5869 53.7487 45.6998 53.7911 45.8126 53.839C46.2611 54.028 46.6646 54.3045 47.0059 54.643C47.0905 54.7276 47.1723 54.8179 47.2485 54.9082C47.6293 55.3708 47.903 55.9266 48.0299 56.5387C48.0807 56.7841 48.1061 57.0352 48.1061 57.2947V61.2949V61.2893ZM48.1061 42.2898C48.1061 42.5494 48.0807 42.8004 48.0299 43.0459C47.9058 43.6552 47.6321 44.2109 47.2485 44.6764C47.1723 44.7695 47.0905 44.857 47.0059 44.9416C46.6674 45.2801 46.2611 45.5566 45.8126 45.7456C45.6998 45.7935 45.5841 45.8358 45.4684 45.8725C45.1158 45.9825 44.7406 46.0418 44.3541 46.0418C42.2835 46.0418 40.605 44.3633 40.605 42.2927V38.2925C40.605 36.2219 42.2835 34.5434 44.3541 34.5434C44.7434 34.5434 45.1158 34.6026 45.4684 34.7126C45.5869 34.7493 45.6998 34.7916 45.8126 34.8396C46.2611 35.0286 46.6646 35.305 47.0059 35.6436C47.0905 35.7282 47.1723 35.8185 47.2485 35.9087C47.6293 36.3714 47.903 36.9271 48.0299 37.5393C48.0807 37.7847 48.1061 38.0358 48.1061 38.2953V42.2955V42.2898ZM48.1061 23.2876C48.1061 25.3582 46.4276 27.0367 44.357 27.0367C42.2864 27.0367 40.6079 25.3582 40.6079 23.2876V19.2874C40.6079 17.2168 42.2864 15.5383 44.357 15.5383C46.4276 15.5383 48.1061 17.2168 48.1061 19.2874V23.2876Z" fill="#FFB724"/>
<path d="M122.65 76.8121C119.278 70.758 109.451 56.5391 91.5 56.5391C73.5489 56.5391 63.7193 70.758 60.3504 76.8121C59.4603 78.4077 59 80.2095 59 82.0391C59 83.8686 59.4631 85.6704 60.3504 87.266C63.7221 93.3201 73.5489 107.539 91.5 107.539C109.451 107.539 119.281 93.3201 122.65 87.266C123.54 85.6676 124 83.8686 124 82.0391C124 80.2095 123.537 78.4077 122.65 76.8121ZM91.5 99.8893C81.6981 99.8893 73.7263 91.8832 73.7263 82.0391C73.7263 72.195 81.6981 64.1888 91.5 64.1888C101.302 64.1888 109.274 72.195 109.274 82.0391C109.274 91.8832 101.302 99.8893 91.5 99.8893Z" fill="#FFB724"/>
<path d="M92 92.5391C97.5228 92.5391 102 87.8381 102 82.0391C102 76.2401 97.5228 71.5391 92 71.5391C86.4772 71.5391 82 76.2401 82 82.0391C82 87.8381 86.4772 92.5391 92 92.5391Z" fill="#FFB724"/>
</g>
<defs>
<clipPath id="clip0_2981_27194">
<rect width="128.003" height="128" fill="white" transform="translate(0 0.539062)"/>
</clipPath>
</defs>
</svg>
