<svg width="49" height="49" viewBox="0 0 49 49" fill="none" xmlns="http://www.w3.org/2000/svg">
<path d="M24.5345 48.9752C38.022 48.9752 48.9557 38.0415 48.9557 24.554C48.9557 11.0666 38.022 0.132812 24.5345 0.132812C11.047 0.132812 0.113281 11.0666 0.113281 24.554C0.113281 38.0415 11.047 48.9752 24.5345 48.9752Z" fill="#67A118"/>
<path d="M36.314 18.7332V13.3669C36.314 11.7524 34.9951 10.4336 33.3807 10.4336H15.7356C14.1211 10.4336 12.8023 11.7524 12.8023 13.3669V18.7332C11.4607 19.006 10.4375 20.1884 10.4375 21.621V22.8034C10.4375 23.7811 11.2334 24.577 12.2111 24.577H12.8023V33.3995C12.8023 34.8093 13.8255 36.0145 15.1671 36.2873V36.924C15.1671 37.9018 15.963 38.6976 16.9407 38.6976H19.3055C20.2833 38.6976 21.0791 37.9018 21.0791 36.924V36.3328H28.1508V36.924C28.1508 37.9018 28.9467 38.6976 29.9244 38.6976H32.2893C33.267 38.6976 34.0629 37.9018 34.0629 36.924V36.2873C35.4044 36.0145 36.4277 34.8321 36.4277 33.3995V24.577H37.0189C37.9966 24.577 38.7925 23.7811 38.7925 22.8034V21.621C38.7925 20.2112 37.7692 19.006 36.4277 18.7332H36.314ZM18.1913 32.922C17.1454 32.922 16.304 32.0807 16.304 31.0347C16.304 29.9888 17.1454 29.1474 18.1913 29.1474C19.2373 29.1474 20.0786 29.9888 20.0786 31.0347C20.0786 32.0807 19.2373 32.922 18.1913 32.922ZM30.9022 32.922C29.8562 32.922 29.0149 32.0807 29.0149 31.0347C29.0149 29.9888 29.8562 29.1474 30.9022 29.1474C31.9482 29.1474 32.7895 29.9888 32.7895 31.0347C32.7895 32.0807 31.9482 32.922 30.9022 32.922ZM33.9719 25.1454C33.9719 26.1232 33.1761 26.919 32.1983 26.919H16.8953C15.9175 26.919 15.1216 26.1232 15.1216 25.1454V19.2562C15.1216 18.2784 15.9175 17.4825 16.8953 17.4825H32.1983C33.1761 17.4825 33.9719 18.2784 33.9719 19.2562V25.1454Z" fill="white"/>
</svg>
