<svg width="110" height="110" viewBox="0 0 110 110" fill="none" xmlns="http://www.w3.org/2000/svg">
<rect width="110" height="110" rx="55" fill="white"/>
<path d="M55.0004 88.0755C54.8781 88.0755 54.7577 88.0442 54.6508 87.9847C54.5439 87.9251 54.4541 87.8392 54.3897 87.7351L34.9726 56.3316C34.9444 56.2861 34.9213 56.2377 34.9038 56.1871C32.9549 52.686 31.9545 48.7365 32.0016 44.7297C32.0487 40.723 33.1418 36.7981 35.1725 33.3438C37.2033 29.8895 40.1013 27.0256 43.5794 25.0359C47.0575 23.0462 50.9951 21.9997 55.0021 22C59.0091 22.0003 62.9465 23.0475 66.4243 25.0377C69.9021 27.028 72.7996 29.8923 74.8298 33.3469C76.86 36.8015 77.9525 40.7266 77.999 44.7333C78.0455 48.7401 77.0444 52.6895 75.0949 56.1903C75.0782 56.2398 75.0559 56.2872 75.0283 56.3316L55.6111 87.7351C55.5468 87.8392 55.4569 87.9251 55.35 87.9847C55.2431 88.0442 55.1228 88.0755 55.0004 88.0755ZM36.2648 55.6904L55.0004 85.9923L73.7375 55.689C73.7491 55.6586 73.7629 55.6292 73.7789 55.601C75.6311 52.3201 76.5913 48.6111 76.564 44.8436C76.5367 41.076 75.5228 37.3814 73.6232 34.1277C71.7236 30.874 69.0048 28.1747 65.7373 26.2988C62.4699 24.4229 58.7681 23.4357 55.0004 23.4357C51.2328 23.4357 47.5309 24.4229 44.2635 26.2988C40.9961 28.1747 38.2772 30.874 36.3776 34.1277C34.4781 37.3814 33.4642 41.076 33.4368 44.8436C33.4095 48.6111 34.3698 52.3201 36.222 55.601C36.2379 55.6299 36.2522 55.6598 36.2648 55.6904ZM55.0004 60.5995C51.8763 60.5995 48.8224 59.6731 46.2248 57.9375C43.6272 56.2018 41.6026 53.7349 40.4071 50.8486C39.2116 47.9623 38.8988 44.7863 39.5082 41.7222C40.1177 38.6582 41.6221 35.8436 43.8312 33.6346C46.0402 31.4255 48.8548 29.9211 51.9188 29.3116C54.9829 28.7021 58.1589 29.015 61.0452 30.2105C63.9315 31.406 66.3984 33.4306 68.1341 36.0282C69.8697 38.6258 70.7961 41.6797 70.7961 44.8038C70.7914 48.9916 69.1257 53.0066 66.1645 55.9679C63.2032 58.9291 59.1883 60.5948 55.0004 60.5995ZM55.0004 30.4441C52.1603 30.4441 49.384 31.2863 47.0226 32.8641C44.6611 34.442 42.8206 36.6847 41.7338 39.3086C40.6469 41.9325 40.3625 44.8197 40.9166 47.6053C41.4707 50.3908 42.8383 52.9494 44.8466 54.9577C46.8548 56.9659 49.4135 58.3336 52.199 58.8876C54.9845 59.4417 57.8718 59.1573 60.4957 58.0705C63.1196 56.9836 65.3622 55.1431 66.9401 52.7817C68.518 50.4202 69.3602 47.6439 69.3602 44.8038C69.3559 40.9967 67.8416 37.3467 65.1495 34.6547C62.4575 31.9627 58.8075 30.4484 55.0004 30.4441Z" fill="#555555"/>
<path d="M52.744 55.0479C52.2958 55.0495 51.8572 54.918 51.4837 54.6702C51.1103 54.4223 50.8188 54.0693 50.6462 53.6556C50.4736 53.242 50.4276 52.7865 50.5141 52.3467C50.6005 51.9069 50.8155 51.5027 51.1319 51.1852C51.4483 50.8677 51.8517 50.6513 52.2912 50.5632C52.7307 50.4752 53.1864 50.5196 53.6006 50.6907C54.0148 50.8619 54.3689 51.1521 54.6181 51.5246C54.8673 51.8972 55.0003 52.3353 55.0003 52.7835C55.0006 53.3828 54.7633 53.9577 54.3403 54.3822C53.9173 54.8067 53.3432 55.0461 52.744 55.0479ZM52.744 51.9551C52.5798 51.9535 52.4188 52.0007 52.2815 52.0908C52.1442 52.1808 52.0367 52.3096 51.9728 52.4609C51.9088 52.6121 51.8913 52.779 51.9223 52.9402C51.9534 53.1014 52.0316 53.2498 52.1472 53.3665C52.2627 53.4832 52.4103 53.5629 52.5712 53.5955C52.7322 53.6281 52.8992 53.6122 53.051 53.5497C53.2029 53.4873 53.3328 53.3811 53.4242 53.2446C53.5155 53.1082 53.5643 52.9477 53.5643 52.7835C53.5651 52.565 53.4791 52.3551 53.3253 52.1998C53.1716 52.0445 52.9625 51.9565 52.744 51.9551ZM59.9238 55.0479C59.4756 55.0495 59.037 54.918 58.6636 54.6702C58.2902 54.4223 57.9987 54.0693 57.8261 53.6556C57.6535 53.242 57.6075 52.7865 57.6939 52.3467C57.7804 51.9069 57.9954 51.5027 58.3118 51.1852C58.6281 50.8677 59.0316 50.6513 59.4711 50.5632C59.9105 50.4752 60.3662 50.5196 60.7805 50.6907C61.1947 50.8619 61.5488 51.1521 61.798 51.5246C62.0472 51.8972 62.1802 52.3353 62.1802 52.7835C62.1805 53.3828 61.9431 53.9577 61.5201 54.3822C61.0972 54.8067 60.5231 55.0461 59.9238 55.0479ZM59.9238 51.9551C59.7596 51.9535 59.5986 52.0007 59.4613 52.0908C59.324 52.1808 59.2166 52.3096 59.1526 52.4609C59.0887 52.6121 59.0711 52.779 59.1022 52.9402C59.1332 53.1014 59.2115 53.2498 59.327 53.3665C59.4426 53.4832 59.5902 53.5629 59.7511 53.5955C59.912 53.6281 60.079 53.6122 60.2309 53.5497C60.3828 53.4873 60.5126 53.3811 60.604 53.2446C60.6954 53.1082 60.7442 52.9477 60.7442 52.7835C60.7449 52.565 60.659 52.3551 60.5052 52.1998C60.3514 52.0445 60.1424 51.9565 59.9238 51.9551ZM64.3341 39.6973H49.2564V36.5454C49.2559 36.3551 49.18 36.1728 49.0455 36.0383C48.911 35.9038 48.7287 35.8279 48.5384 35.8274H45.6665C45.4761 35.8274 45.2934 35.903 45.1588 36.0377C45.0241 36.1723 44.9485 36.355 44.9485 36.5454C44.9485 36.7358 45.0241 36.9184 45.1588 37.0531C45.2934 37.1877 45.4761 37.2634 45.6665 37.2634H47.8204V45.0392C47.8216 46.2575 48.306 47.4256 49.1676 48.2872C50.0291 49.1487 51.1972 49.6332 52.4155 49.6343H60.7442C61.8864 49.6334 62.9816 49.1792 63.7893 48.3715C64.597 47.5638 65.0512 46.4686 65.0521 45.3264V40.4153C65.0524 40.3209 65.0341 40.2274 64.9981 40.1402C64.9622 40.0529 64.9093 39.9736 64.8426 39.9069C64.7758 39.8402 64.6965 39.7873 64.6093 39.7513C64.522 39.7154 64.4285 39.697 64.3341 39.6973ZM63.6161 45.3264C63.6162 45.7035 63.542 46.077 63.3977 46.4255C63.2534 46.774 63.0419 47.0907 62.7752 47.3574C62.5085 47.6241 62.1918 47.8356 61.8434 47.9799C61.4949 48.1242 61.1214 48.1984 60.7442 48.1983H52.4155C51.5777 48.1983 50.7742 47.8655 50.1817 47.273C49.5892 46.6806 49.2564 45.877 49.2564 45.0392V41.1333H63.6161V45.3264Z" fill="#555555"/>
</svg>
