<svg width="84" height="100" viewBox="0 0 84 100" fill="none" xmlns="http://www.w3.org/2000/svg">
<g clip-path="url(#clip0_2934_31358)">
<path fill-rule="evenodd" clip-rule="evenodd" d="M63.1755 59.8361C54.7055 59.841 50.4759 59.841 50.4893 59.8361V38.3934H63.1743C63.5095 38.3934 63.7838 38.6701 63.7838 39.0082V59.2213C63.7838 59.5594 63.5107 59.8361 63.1743 59.8361H63.1755ZM22.6316 34.6939H30.6641V36.4262H22.6316V34.6939ZM33.2944 59.8348C26.3273 59.8398 22.0977 59.841 20.6082 59.8373C20.273 59.8373 20 59.5607 20 59.2225V39.007C20 38.6689 20.2743 38.3922 20.6094 38.3922H33.2944V59.8348ZM25.307 52.4504H22.9973C22.7961 52.4504 22.6316 52.6164 22.6316 52.8193V54.8221C22.6316 55.025 22.7961 55.191 22.9973 55.191H25.307C25.5082 55.191 25.6727 55.025 25.6727 54.8221V52.8193C25.6727 52.6164 25.5082 52.4504 25.307 52.4504ZM22.9973 45.7766H25.307C25.5082 45.7766 25.6727 45.6107 25.6727 45.4078V43.4061C25.6727 43.2033 25.5082 43.0373 25.307 43.0373H22.9973C22.7961 43.0373 22.6316 43.2033 22.6316 43.4061V45.4078C22.6316 45.6107 22.7961 45.7766 22.9973 45.7766ZM27.9886 45.7766H30.2984C30.4995 45.7766 30.6641 45.6107 30.6641 45.4078V43.4061C30.6641 43.2033 30.4995 43.0373 30.2984 43.0373H27.9886C27.7875 43.0373 27.6229 43.2033 27.6229 43.4061V45.4078C27.6229 45.6107 27.7875 45.7766 27.9886 45.7766ZM30.2984 47.7439H27.9886C27.7875 47.7439 27.6229 47.9098 27.6229 48.1127V50.1143C27.6229 50.3172 27.7875 50.4832 27.9886 50.4832H30.2984C30.4995 50.4832 30.6641 50.3172 30.6641 50.1143V48.1127C30.6641 47.9098 30.4995 47.7439 30.2984 47.7439ZM25.307 47.7439H22.9973C22.7961 47.7439 22.6316 47.9098 22.6316 48.1127V50.1143C22.6316 50.3172 22.7961 50.4832 22.9973 50.4832H25.307C25.5082 50.4832 25.6727 50.3172 25.6727 50.1143V48.1127C25.6727 47.9098 25.5082 47.7439 25.307 47.7439ZM30.2984 52.4504H27.9886C27.7875 52.4504 27.6229 52.6164 27.6229 52.8193V54.8221C27.6229 55.025 27.7875 55.191 27.9886 55.191H30.2984C30.4995 55.191 30.6641 55.025 30.6641 54.8221V52.8193C30.6641 52.6164 30.4995 52.4504 30.2984 52.4504ZM40.1909 49.041H43.5941C44.5363 49.041 45.3054 49.7406 45.3054 50.5975V59.8361H48.5391V27.468C48.5391 27.1299 48.2648 26.8533 47.9297 26.8533H35.8541C35.5189 26.8533 35.2447 27.1299 35.2447 27.468V59.8361H38.4784V50.5975C38.4784 49.7406 39.2475 49.041 40.1897 49.041H40.1909ZM37.8762 23.3811H40.9174V20.9836C40.9174 20.4402 41.3537 20 41.8925 20C42.4312 20 42.8676 20.4402 42.8676 20.9836V23.3811H45.9087V24.8848H37.8762V23.3811ZM40.5517 43.3434H38.2419C38.0408 43.3434 37.8762 43.1775 37.8762 42.9746V40.9717C37.8762 40.7689 38.0408 40.6029 38.2419 40.6029H40.5517C40.7528 40.6029 40.9174 40.7689 40.9174 40.9717V42.9746C40.9174 43.1775 40.7528 43.3434 40.5517 43.3434ZM40.5517 38.6369H38.2419C38.0408 38.6369 37.8762 38.4709 37.8762 38.268V36.2664C37.8762 36.0635 38.0408 35.8975 38.2419 35.8975H40.5517C40.7528 35.8975 40.9174 36.0635 40.9174 36.2664V38.268C40.9174 38.4709 40.7528 38.6369 40.5517 38.6369ZM40.5517 33.9303H38.2419C38.0408 33.9303 37.8762 33.7643 37.8762 33.5615V31.5598C37.8762 31.357 38.0408 31.191 38.2419 31.191H40.5517C40.7528 31.191 40.9174 31.357 40.9174 31.5598V33.5615C40.9174 33.7643 40.7528 33.9303 40.5517 33.9303ZM42.8676 38.268V36.2664C42.8676 36.0635 43.0322 35.8975 43.2333 35.8975H45.5431C45.7442 35.8975 45.9087 36.0635 45.9087 36.2664V38.268C45.9087 38.4709 45.7442 38.6369 45.5431 38.6369H43.2333C43.0322 38.6369 42.8676 38.4709 42.8676 38.268ZM45.5431 33.9303H43.2333C43.0322 33.9303 42.8676 33.7643 42.8676 33.5615V31.5598C42.8676 31.357 43.0322 31.191 43.2333 31.191H45.5431C45.7442 31.191 45.9087 31.357 45.9087 31.5598V33.5615C45.9087 33.7643 45.7442 33.9303 45.5431 33.9303ZM42.8676 42.9746V40.9717C42.8676 40.7689 43.0322 40.6029 43.2333 40.6029H45.5431C45.7442 40.6029 45.9087 40.7689 45.9087 40.9717V42.9746C45.9087 43.1775 45.7442 43.3434 45.5431 43.3434H43.2333C43.0322 43.3434 42.8676 43.1775 42.8676 42.9746ZM36.6208 62.5877C36.6208 65.525 38.9793 67.9053 41.8925 67.9053C44.8056 67.9053 47.1642 65.5262 47.1642 62.5877H36.622H36.6208ZM59.1532 62.5877V64.9447L56.2925 66.0549C55.9292 67.5918 55.3259 69.0611 54.5043 70.4061L55.7488 73.234L52.4456 76.5672L49.6434 75.3119C48.3087 76.1406 46.8534 76.7504 45.3285 77.1156L44.2279 80H39.5559L38.4552 77.1143C36.9316 76.748 35.475 76.1393 34.1416 75.3107L31.3381 76.566L28.0349 73.234L29.2794 70.4074C28.4579 69.0611 27.8533 67.593 27.4901 66.0549L24.6306 64.9447V62.5877H33.7442C33.7442 67.1271 37.3923 70.807 41.8925 70.807C46.3926 70.807 50.0408 67.1271 50.0408 62.5877H59.1544H59.1532ZM53.1209 34.6939H61.1534V36.4262H53.1209V34.6939ZM55.7964 52.4504H53.4866C53.2855 52.4504 53.1209 52.6164 53.1209 52.8193V54.8221C53.1209 55.025 53.2855 55.191 53.4866 55.191H55.7964C55.9975 55.191 56.162 55.025 56.162 54.8221V52.8193C56.162 52.6164 55.9975 52.4504 55.7964 52.4504ZM53.4866 45.7766H55.7964C55.9975 45.7766 56.162 45.6107 56.162 45.4078V43.4061C56.162 43.2033 55.9975 43.0373 55.7964 43.0373H53.4866C53.2855 43.0373 53.1209 43.2033 53.1209 43.4061V45.4078C53.1209 45.6107 53.2855 45.7766 53.4866 45.7766ZM58.4779 45.7766H60.7877C60.9888 45.7766 61.1534 45.6107 61.1534 45.4078V43.4061C61.1534 43.2033 60.9888 43.0373 60.7877 43.0373H58.4779C58.2768 43.0373 58.1123 43.2033 58.1123 43.4061V45.4078C58.1123 45.6107 58.2768 45.7766 58.4779 45.7766ZM60.7877 47.7439H58.4779C58.2768 47.7439 58.1123 47.9098 58.1123 48.1127V50.1143C58.1123 50.3172 58.2768 50.4832 58.4779 50.4832H60.7877C60.9888 50.4832 61.1534 50.3172 61.1534 50.1143V48.1127C61.1534 47.9098 60.9888 47.7439 60.7877 47.7439ZM55.7964 47.7439H53.4866C53.2855 47.7439 53.1209 47.9098 53.1209 48.1127V50.1143C53.1209 50.3172 53.2855 50.4832 53.4866 50.4832H55.7964C55.9975 50.4832 56.162 50.3172 56.162 50.1143V48.1127C56.162 47.9098 55.9975 47.7439 55.7964 47.7439ZM60.7877 52.4504H58.4779C58.2768 52.4504 58.1123 52.6164 58.1123 52.8193V54.8221C58.1123 55.025 58.2768 55.191 58.4779 55.191H60.7877C60.9888 55.191 61.1534 55.025 61.1534 54.8221V52.8193C61.1534 52.6164 60.9888 52.4504 60.7877 52.4504Z" fill="#2F5BC1"/>
</g>
<defs>
<clipPath id="clip0_2934_31358">
<rect width="43.7838" height="60" fill="white" transform="translate(20 20)"/>
</clipPath>
</defs>
</svg>
