<svg width="18" height="21" viewBox="0 0 18 21" fill="none" xmlns="http://www.w3.org/2000/svg">
<g id="Icon" clip-path="url(#clip0_2818_25870)">
<path id="Vector" d="M9.1816 1.8369C9.40968 1.63416 9.62508 1.63416 9.82782 1.8369L17.8486 9.89574C18.0767 10.0985 18.0767 10.3012 17.8486 10.504L9.82782 18.5628C9.62508 18.7655 9.40968 18.7655 9.1816 18.5628L8.9155 18.2587C8.71276 18.0559 8.71276 17.8405 8.9155 17.6125L15.7199 10.8461H1.42686C1.12276 10.8461 0.970703 10.694 0.970703 10.3899V10.0098C0.970703 9.70567 1.12276 9.55362 1.42686 9.55362H15.7199L8.9155 2.78723C8.71276 2.55915 8.71276 2.34374 8.9155 2.141L9.1816 1.8369Z" fill="#313030"/>
</g>
<defs>
<clipPath id="clip0_2818_25870">
<rect width="17.03" height="20" fill="white" transform="matrix(1 0 0 -1 0.970703 20.2002)"/>
</clipPath>
</defs>
</svg>
