<svg width="83" height="82" viewBox="0 0 83 82" fill="none" xmlns="http://www.w3.org/2000/svg">
<g clip-path="url(#clip0_6059_42530)">
<mask id="mask0_6059_42530" style="mask-type:luminance" maskUnits="userSpaceOnUse" x="10" y="1" width="57" height="77">
<path d="M66.5 1.60001H10.5V77.6H66.5V1.60001Z" fill="white"/>
</mask>
<g mask="url(#mask0_6059_42530)">
<path d="M43.7 39.6V6.80001H19.6C18.9 6.80001 18.4 6.30001 18.4 5.60001C18.4 4.90001 18.9 4.40001 19.6 4.40001H23.3C22.8 2.80001 21.3 1.70001 19.6 1.70001C17.9 1.70001 15.7 3.40001 15.7 5.60001V18.2C15.7 20.3 17.4 22.1 19.6 22.1C21.8 22.1 23.5 20.4 23.5 18.2V13.1C23.5 12.4 22.9 11.8 22.1 11.8C21.3 11.8 20.7 12.4 20.7 13.1V15.6C20.7 16.3 20.2 16.8 19.5 16.8C18.8 16.8 18.3 16.3 18.3 15.6V13.1C18.3 11.1 20 9.40001 22 9.40001C24 9.40001 25.7 11.1 25.7 13.1V18.2C25.7 21.6 22.9 24.4 19.4 24.4C15.9 24.4 13.1 21.6 13.1 18.2V6.70001H10.5V39.6H43.5H43.7ZM37.2 30.7H16.9C16.2 30.7 15.7 30.2 15.7 29.5C15.7 28.8 16.2 28.3 16.9 28.3H37.2C37.9 28.3 38.4 28.8 38.4 29.5C38.4 30.2 37.9 30.7 37.2 30.7ZM37.2 24.4H30.9C30.2 24.4 29.7 23.9 29.7 23.2C29.7 22.5 30.2 22 30.9 22H37.2C37.9 22 38.4 22.5 38.4 23.2C38.4 23.9 37.9 24.4 37.2 24.4ZM37.2 18.1H30.9C30.2 18.1 29.7 17.6 29.7 16.9C29.7 16.2 30.2 15.7 30.9 15.7H37.2C37.9 15.7 38.4 16.2 38.4 16.9C38.4 17.6 37.9 18.1 37.2 18.1Z" fill="#FF8201"/>
<path d="M52.5 63.6V70.9L59.9 63.6H52.6H52.5Z" fill="#FF8201"/>
<path d="M50.0008 63.6C50.0008 62.3 51.1008 61.2 52.5008 61.2H61.5008V8H46.2008V39.7C46.2008 41 45.1008 42.1 43.7008 42.1H11.8008V72.5H50.0008V63.6ZM52.5008 15.7H55.0008C55.7008 15.7 56.2008 16.2 56.2008 16.9C56.2008 17.6 55.7008 18.1 55.0008 18.1H52.5008C51.8008 18.1 51.3008 17.6 51.3008 16.9C51.3008 16.2 51.8008 15.7 52.5008 15.7ZM52.5008 22H55.0008C55.7008 22 56.2008 22.5 56.2008 23.2C56.2008 23.9 55.7008 24.4 55.0008 24.4H52.5008C51.8008 24.4 51.3008 23.9 51.3008 23.2C51.3008 22.5 51.8008 22 52.5008 22ZM52.5008 28.3H55.0008C55.7008 28.3 56.2008 28.8 56.2008 29.5C56.2008 30.2 55.7008 30.7 55.0008 30.7H52.5008C51.8008 30.7 51.3008 30.2 51.3008 29.5C51.3008 28.8 51.8008 28.3 52.5008 28.3ZM52.5008 34.7H55.0008C55.7008 34.7 56.2008 35.2 56.2008 35.9C56.2008 36.6 55.7008 37.1 55.0008 37.1H52.5008C51.8008 37.1 51.3008 36.6 51.3008 35.9C51.3008 35.2 51.8008 34.7 52.5008 34.7ZM27.1008 46H55.0008C55.7008 46 56.2008 46.5 56.2008 47.2C56.2008 47.9 55.7008 48.4 55.0008 48.4H27.1008C26.4008 48.4 25.9008 47.9 25.9008 47.2C25.9008 46.5 26.4008 46 27.1008 46ZM27.1008 52.4H55.0008C55.7008 52.4 56.2008 52.9 56.2008 53.6C56.2008 54.3 55.7008 54.8 55.0008 54.8H27.1008C26.4008 54.8 25.9008 54.3 25.9008 53.6C25.9008 52.9 26.4008 52.4 27.1008 52.4ZM20.7008 61H18.2008C17.5008 61 17.0008 60.5 17.0008 59.8C17.0008 59.1 17.5008 58.6 18.2008 58.6H20.7008C21.4008 58.6 21.9008 59.1 21.9008 59.8C21.9008 60.5 21.4008 61 20.7008 61ZM20.7008 54.7H18.2008C17.5008 54.7 17.0008 54.2 17.0008 53.5C17.0008 52.8 17.5008 52.3 18.2008 52.3H20.7008C21.4008 52.3 21.9008 52.8 21.9008 53.5C21.9008 54.2 21.4008 54.7 20.7008 54.7ZM20.7008 48.4H18.2008C17.5008 48.4 17.0008 47.9 17.0008 47.2C17.0008 46.5 17.5008 46 18.2008 46H20.7008C21.4008 46 21.9008 46.5 21.9008 47.2C21.9008 47.9 21.4008 48.4 20.7008 48.4ZM44.8008 61H27.0008C26.3008 61 25.8008 60.5 25.8008 59.8C25.8008 59.1 26.3008 58.6 27.0008 58.6H44.8008C45.5008 58.6 46.0008 59.1 46.0008 59.8C46.0008 60.5 45.5008 61 44.8008 61Z" fill="#FF8201"/>
<path d="M66.4008 13H63.8008V61.3C63.8008 62.3 63.4008 63.2 62.7008 63.9L52.8008 73.8C52.1008 74.5 51.2008 74.9 50.2008 74.9H16.8008V77.5H66.3008V13.1L66.4008 13Z" fill="#FF8201"/>
</g>
</g>
<defs>
<clipPath id="clip0_6059_42530">
<rect width="82" height="82" fill="white" transform="translate(0.5)"/>
</clipPath>
</defs>
</svg>
