<svg width="31" height="31" viewBox="0 0 31 31" fill="none" xmlns="http://www.w3.org/2000/svg">
<path d="M15.0961 30.536C23.3796 30.536 30.0946 23.821 30.0946 15.5375C30.0946 7.25411 23.3796 0.539062 15.0961 0.539062C6.81271 0.539062 0.0976562 7.25411 0.0976562 15.5375C0.0976562 23.821 6.81271 30.536 15.0961 30.536Z" fill="#FFB724"/>
<path d="M20.8655 7.4969C20.641 7.36041 20.4136 7.36041 20.1891 7.4969L13.6377 11.4277V19.6504L20.1891 23.5357C20.2801 23.5812 20.4136 23.6267 20.55 23.6267C20.6865 23.6267 20.7745 23.5812 20.8655 23.5357C21.0899 23.3992 21.2264 23.1748 21.2264 22.9473V8.08531C21.2264 7.86086 21.0899 7.63338 20.8655 7.4969Z" fill="white"/>
<path d="M7.60156 12.738V18.3856C7.60156 18.7465 7.91699 19.0619 8.27793 19.0619H9.22728L10.4921 22.5863C10.5831 22.8563 10.853 23.0383 11.126 23.0383C11.217 23.0383 11.2625 23.0383 11.3504 22.9928C11.7114 22.8563 11.8933 22.4954 11.7568 22.1344L10.6741 19.0619H12.0298V12.0586H8.28097C7.92003 12.0586 7.60459 12.3285 7.60459 12.735L7.60156 12.738Z" fill="white"/>
</svg>
