<svg width="110" height="110" viewBox="0 0 110 110" fill="none" xmlns="http://www.w3.org/2000/svg">
<rect width="110" height="110" rx="55" fill="white"/>
<path d="M37.5838 66.0488H26.4075C25.9289 66.0488 25.542 66.4357 25.542 66.9143V77.1299C25.542 77.6085 25.9289 77.9954 26.4075 77.9954H37.5838C38.0615 77.9954 38.4493 77.6085 38.4493 77.1299V66.9143C38.4493 66.4366 38.0607 66.0488 37.5838 66.0488ZM36.7183 76.2644H27.273V67.7798H36.7183V76.2644ZM52.7673 54.1368H41.5902C41.1116 54.1368 40.7247 54.5237 40.7247 55.0023V77.1299C40.7247 77.6085 41.1116 77.9954 41.5902 77.9954H52.7665C53.2442 77.9954 53.632 77.6085 53.632 77.1299V55.0023C53.6328 54.5237 53.2442 54.1368 52.7673 54.1368ZM51.9018 76.2644H42.4557V55.8679H51.901V76.2644H51.9018ZM67.9518 59.1135H56.7738C56.2951 59.1135 55.9083 59.5004 55.9083 59.979V77.1299C55.9083 77.6085 56.2951 77.9954 56.7738 77.9954H67.9509C68.4295 77.9954 68.8164 77.6085 68.8164 77.1299V59.979C68.8173 59.5004 68.4295 59.1135 67.9518 59.1135ZM67.0863 76.2644H57.6393V60.8445H67.0854L67.0863 76.2644ZM83.1345 43.5344H71.9573C71.4787 43.5344 71.0918 43.9213 71.0918 44.3999V77.1299C71.0918 77.6085 71.4787 77.9954 71.9573 77.9954H83.1345C83.6131 77.9954 84 77.6085 84 77.1299V44.3999C84 43.9213 83.6131 43.5344 83.1345 43.5344ZM82.269 76.2644H72.8228V45.2654H82.269V76.2644ZM29.8314 55.0023C29.8314 53.8071 30.7999 52.8386 31.9952 52.8386C32.2488 52.8386 32.4885 52.8905 32.7144 52.9701L45.1362 41.761C45.0643 41.5463 45.0159 41.3204 45.0159 41.0816C45.0159 39.8863 45.9844 38.9178 47.1796 38.9178C48.3749 38.9178 49.3434 39.8863 49.3434 41.0816C49.3434 41.1041 49.3373 41.1257 49.3365 41.1482L60.7837 46.5853C61.1809 46.1127 61.7686 45.8064 62.4342 45.8064C62.7241 45.8064 62.9993 45.8652 63.2521 45.9691L75.5925 31.9003C75.4618 31.6216 75.383 31.3135 75.383 30.9846C75.383 29.7893 76.3515 28.8208 77.5468 28.8208C78.742 28.8208 79.7105 29.7893 79.7105 30.9846C79.7105 32.1798 78.742 33.1483 77.5468 33.1483C77.3183 33.1483 77.1028 33.1033 76.8968 33.0384L64.456 47.2206C64.5434 47.4551 64.5971 47.7061 64.5971 47.9701C64.5971 49.1654 63.6286 50.1339 62.4333 50.1339C61.3419 50.1339 60.4487 49.3229 60.2998 48.2739L48.5904 42.7096C48.2105 43.0393 47.7214 43.2453 47.1788 43.2453C46.8611 43.2453 46.5617 43.1726 46.2899 43.0497L33.985 54.1542C34.0967 54.4147 34.1581 54.7012 34.1581 55.0015C34.1581 56.1967 33.1896 57.1652 31.9943 57.1652C30.7991 57.1652 29.8314 56.1976 29.8314 55.0023Z" fill="#555555"/>
</svg>
