<svg width="53" height="51" viewBox="0 0 53 51" fill="none" xmlns="http://www.w3.org/2000/svg">
<g clip-path="url(#clip0_2910_131359)">
<path d="M15.3246 0.0507812H0.824277C0.44252 0.0507812 0.132812 0.357262 0.132812 0.735792V50.1802C0.132812 50.5587 0.44252 50.8652 0.824277 50.8652H15.3246C15.7064 50.8652 16.0161 50.5587 16.0161 50.1802V0.735792C16.0161 0.357262 15.7064 0.0507812 15.3246 0.0507812ZM8.07444 45.44C6.19361 45.44 4.66981 43.9151 4.66981 42.0354C4.66981 40.1556 6.19469 38.6307 8.07444 38.6307C9.95419 38.6307 11.4791 40.1556 11.4791 42.0354C11.4791 43.9151 9.95419 45.44 8.07444 45.44ZM13.1405 20.3064H3.00943V3.10806H13.1405V20.3064Z" fill="#2F5BC1"/>
<path d="M33.7465 0.0507812H19.2462C18.8644 0.0507812 18.5547 0.357262 18.5547 0.735792V50.1802C18.5547 50.5587 18.8644 50.8652 19.2462 50.8652H33.7465C34.1282 50.8652 34.4379 50.5587 34.4379 50.1802V0.735792C34.4379 0.357262 34.1282 0.0507812 33.7465 0.0507812ZM26.4963 45.44C24.6155 45.44 23.0917 43.9151 23.0917 42.0354C23.0917 40.1556 24.6166 38.6307 26.4963 38.6307C28.3761 38.6307 29.9009 40.1556 29.9009 42.0354C29.9009 43.9151 28.3761 45.44 26.4963 45.44ZM31.5613 20.3064H21.4302V3.10806H31.5613V20.3064Z" fill="#2F5BC1"/>
<path d="M52.1762 0.0507812H37.6758C37.2941 0.0507812 36.9844 0.357262 36.9844 0.735792V50.1802C36.9844 50.5587 37.2941 50.8652 37.6758 50.8652H52.1762C52.5579 50.8652 52.8676 50.5587 52.8676 50.1802V0.735792C52.8676 0.357262 52.5579 0.0507812 52.1762 0.0507812ZM44.9249 45.44C43.0441 45.44 41.5203 43.9151 41.5203 42.0354C41.5203 40.1556 43.0452 38.6307 44.9249 38.6307C46.8047 38.6307 48.3296 40.1556 48.3296 42.0354C48.3296 43.9151 46.8047 45.44 44.9249 45.44ZM49.991 20.3064H39.8599V3.10806H49.991V20.3064Z" fill="#2F5BC1"/>
</g>
<defs>
<clipPath id="clip0_2910_131359">
<rect width="52.732" height="50.8144" fill="white" transform="translate(0.132812 0.0507812)"/>
</clipPath>
</defs>
</svg>
