<svg width="52" height="49" viewBox="0 0 52 49" fill="none" xmlns="http://www.w3.org/2000/svg">
<g clip-path="url(#clip0_2910_131397)">
<path d="M14.3067 11.8443V1.00781L1.84375 13.4717H12.6801C13.8513 13.4717 14.3077 13.0154 14.3077 11.8443H14.3067Z" fill="#2F5BC1"/>
<path d="M51.1815 12.2173L47.2023 8.23817C46.5091 7.54497 45.3864 7.54625 44.6932 8.23817L42.1133 10.8181L48.6029 17.3064L51.1815 14.7252C51.8734 14.032 51.8747 12.9092 51.1815 12.2173Z" fill="#2F5BC1"/>
<path d="M17.0974 43.7228C16.6893 43.8269 16.2573 43.7085 15.9598 43.4095C15.6622 43.1106 15.543 42.678 15.646 42.2692L18.4134 31.3591L33.5246 16.224L34.7357 15.0111L37.4145 12.3275L37.8198 11.9226C37.9609 11.7813 38.1221 11.6676 38.2775 11.5463V2.21676C38.2775 1.02203 37.3067 0.0507812 36.1128 0.0507812H16.7694V13.3303C16.7694 14.7953 15.5793 15.9881 14.1174 15.9881H0.886719V46.7798C0.886719 47.9745 1.85847 48.9477 3.05145 48.9477H36.1137C37.3067 48.9477 38.2785 47.9755 38.2785 46.7798V30.6429L27.9907 40.9475L17.0974 43.7228Z" fill="#2F5BC1"/>
<path d="M20.2481 33.0013L18.1445 41.2785L26.4219 39.1728L46.9074 18.6884L40.7349 12.5156L20.2481 33.0013ZM24.1189 34.4035L22.7164 33.0013L40.566 15.1548L41.9696 16.5582L24.1189 34.4035Z" fill="#2F5BC1"/>
</g>
<defs>
<clipPath id="clip0_2910_131397">
<rect width="50.8144" height="48.8969" fill="white" transform="translate(0.886719 0.0507812)"/>
</clipPath>
</defs>
</svg>
