<svg width="9" height="10" viewBox="0 0 9 10" fill="none" xmlns="http://www.w3.org/2000/svg">
<g id="i_arrow_down.svg" clip-path="url(#clip0_2818_26159)">
<path id="Vector" d="M0.587585 4.32725L0.14178 4.77306C0.0968505 4.81768 0.0611927 4.87076 0.0368598 4.92923C0.012527 4.9877 0 5.0504 0 5.11373C0 5.17705 0.012527 5.23976 0.0368598 5.29822C0.0611927 5.35669 0.0968505 5.40977 0.14178 5.4544L4.04586 9.35949C4.09049 9.40442 4.14356 9.44007 4.20203 9.46441C4.2605 9.48874 4.3232 9.50127 4.38653 9.50127C4.44986 9.50127 4.51256 9.48874 4.57103 9.46441C4.6295 9.44007 4.68257 9.40442 4.7272 9.35949L8.62825 5.45642C8.67317 5.41179 8.70883 5.35871 8.73317 5.30025C8.7575 5.24178 8.77003 5.17908 8.77003 5.11575C8.77003 5.05242 8.7575 4.98972 8.73317 4.93125C8.70883 4.87278 8.67317 4.81971 8.62825 4.77508L8.18244 4.32927C8.137 4.28388 8.08295 4.24803 8.02346 4.22382C7.96397 4.19961 7.90025 4.18752 7.83602 4.18828C7.7718 4.18903 7.70838 4.20261 7.64948 4.22821C7.59057 4.25381 7.53738 4.29092 7.49301 4.33736L5.18918 6.75542V0.982198C5.18931 0.918838 5.17693 0.856075 5.15275 0.797512C5.12856 0.738949 5.09305 0.685739 5.04825 0.640936C5.00344 0.596133 4.95023 0.56062 4.89167 0.536435C4.83311 0.512249 4.77034 0.499868 4.70698 0.500001H4.06405C4.00069 0.499868 3.93793 0.512249 3.87937 0.536435C3.8208 0.56062 3.76759 0.596133 3.72279 0.640936C3.67799 0.685739 3.64248 0.738949 3.61829 0.797512C3.59411 0.856075 3.58172 0.918838 3.58186 0.982198V6.75542L1.276 4.33534C1.23186 4.28852 1.17874 4.25108 1.11981 4.22524C1.06088 4.1994 0.997348 4.18569 0.933006 4.18494C0.868665 4.18418 0.80483 4.19639 0.74531 4.22084C0.68579 4.24529 0.631805 4.28148 0.586574 4.32725H0.587585Z" fill="#3465D6"/>
</g>
<defs>
<clipPath id="clip0_2818_26159">
<rect width="8.77053" height="9" fill="white" transform="translate(0 0.5)"/>
</clipPath>
</defs>
</svg>
