<svg width="674" height="151" viewBox="0 0 674 151" fill="none" xmlns="http://www.w3.org/2000/svg">
<path d="M671.605 149.264C670.245 149.264 669.191 148.21 669.191 146.85C669.191 145.49 670.245 144.436 671.605 144.436C672.965 144.436 673.985 145.49 673.985 146.85C673.985 148.21 672.965 149.264 671.605 149.264Z" fill="#692300"/>
<path d="M667.746 132.264V135.494H663.666V149.536H660.3V120.5H663.666V132.264H667.746ZM642.178 144.742H650.27C653.024 144.742 656.016 144.198 657.784 143.348V146.408C656.016 147.292 652.888 147.802 650.1 147.802H638.744V121.554H655.506V124.614H642.178V144.742Z" fill="#692300"/>
<path d="M629.411 149.57V120.5H632.777V149.536L629.411 149.57ZM607.345 147.802V121.384H610.779V144.708H619.211C621.965 144.708 624.957 144.13 626.725 143.28V146.374C624.957 147.258 621.999 147.802 619.211 147.802H607.345Z" fill="#692300"/>
<path d="M600.936 131.04L588.22 125.906C585.024 129.034 579.958 130.904 575.028 131.006V128.218C580.638 128.014 586.894 124.784 588.016 119.82L591.382 120.398C591.144 121.588 590.668 122.71 590.022 123.73L602.058 128.49L600.936 131.04ZM573.974 133.284H602.976V135.97H573.974V133.284ZM597.638 140.866V138.146H600.936V149.196H575.98V138.146H579.312V140.866H597.638ZM579.312 146.544H597.638V143.484H579.312V146.544Z" fill="#692300"/>
<path d="M569.366 120.5V136.65H566V120.5H569.366ZM560.866 128.354C560.866 132.842 557.33 135.902 551.788 135.902C546.212 135.902 542.676 132.842 542.676 128.354C542.676 123.9 546.212 120.806 551.788 120.806C557.33 120.806 560.866 123.9 560.866 128.354ZM546.042 128.354C546.042 131.346 548.388 133.114 551.788 133.114C555.154 133.114 557.5 131.346 557.5 128.354C557.5 125.362 555.154 123.594 551.788 123.594C548.388 123.594 546.042 125.362 546.042 128.354ZM571.712 146.918L569.706 149.298L564.13 144.64C562.362 147.326 559.744 148.992 556.888 149.162L551.958 144.81C550.156 147.36 547.572 148.958 544.784 149.162V146.102C547.98 145.796 550.802 142.022 551.176 137.534L554.44 137.976C554.27 139.54 553.896 140.968 553.352 142.26L557.806 145.932C560.526 145.082 562.804 141.614 563.11 137.534L566.374 138.01C566.238 139.472 565.932 140.798 565.456 142.056L571.712 146.918Z" fill="#692300"/>
<path d="M526.004 120.5H529.37V149.536H526.004V135.698H520.428C520.156 144.198 516.654 148.176 511.792 148.176C506.692 148.176 503.122 143.892 503.122 134.678C503.122 125.464 506.692 121.18 511.792 121.18C516.45 121.18 519.85 124.784 520.36 132.536H526.004V120.5ZM511.792 145.082C514.784 145.082 517.062 142.056 517.062 134.678C517.062 127.334 514.784 124.274 511.792 124.274C508.766 124.274 506.488 127.334 506.488 134.678C506.488 142.056 508.766 145.082 511.792 145.082Z" fill="#692300"/>
<path d="M494.129 120.5H497.495V149.536H494.129V120.5ZM481.991 144.64H482.195C486.105 144.64 489.641 144.3 491.715 143.416V146.578C489.641 147.428 486.207 147.802 482.229 147.802H470.329V144.64H478.625V137.228H472.029V121.622H488.893V124.716H475.361V134.134H489.233V137.228H481.991V144.64Z" fill="#692300"/>
<path d="M462.594 136.82V128.218H455.59V125.226H462.594V120.5H465.96V136.82H462.594ZM448.348 129.952C446.274 133.318 442.942 135.664 438.692 136.242V133.182C444.132 132.162 447.328 126.96 447.396 120.772L450.762 120.976C450.762 123.22 450.388 125.328 449.674 127.232L458.514 133.284L456.644 135.664L448.348 129.952ZM453.652 137.772C460.69 137.772 466.198 139.404 466.198 143.654C466.198 147.904 460.69 149.536 453.652 149.536C446.614 149.536 441.106 147.904 441.106 143.654C441.106 139.404 446.614 137.772 453.652 137.772ZM453.652 146.782C458.65 146.782 462.628 145.796 462.628 143.654C462.628 141.512 458.65 140.526 453.652 140.526C448.654 140.526 444.676 141.512 444.676 143.654C444.676 145.796 448.654 146.782 453.652 146.782Z" fill="#692300"/>
<path d="M430.345 134.44V124.342H408.823V121.18H433.847V134.44H430.345ZM435.921 136.854V140.05H422.967V150.216H419.499V140.05H406.919V136.854H435.921Z" fill="#692300"/>
<path d="M382.835 145.048H395.687V148.142H366.685V145.048H379.401V139.574H368.623V129.102H390.451V124.546H368.623V121.554H393.783V131.992H371.989V136.582H394.225V139.574H382.835V145.048Z" fill="#692300"/>
<path d="M349.464 139.54C341.542 139.54 336.408 135.902 336.408 130.326C336.408 124.75 341.542 121.112 349.464 121.112C357.386 121.112 362.52 124.75 362.52 130.326C362.52 135.902 357.386 139.54 349.464 139.54ZM349.464 136.48C355.176 136.48 358.983 133.998 358.983 130.326C358.983 126.654 355.176 124.172 349.464 124.172C343.752 124.172 339.944 126.654 339.944 130.326C339.944 133.998 343.752 136.48 349.464 136.48ZM334.979 148.142V144.98H363.982V148.142H334.979Z" fill="#692300"/>
<path d="M320.614 132.91H332.446V137.33H303.07V132.91H314.902V131.312H304.838V120.5H330.678V124.886H310.55V126.926H331.018V131.312H320.614V132.91ZM317.758 138.452C325.612 138.452 331.086 140.016 331.086 144.198C331.086 148.38 325.612 149.944 317.758 149.944C309.904 149.944 304.43 148.38 304.43 144.198C304.43 140.016 309.904 138.452 317.758 138.452ZM317.758 145.66C322.008 145.66 324.966 145.252 324.966 144.198C324.966 143.178 322.008 142.736 317.758 142.736C313.508 142.736 310.55 143.178 310.55 144.198C310.55 145.252 313.508 145.66 317.758 145.66Z" fill="#D96500"/>
<path d="M299.041 120.84V135.97H273.065V120.84H299.041ZM293.363 130.734V126.11H278.743V130.734H293.363ZM300.741 138.384V143.688H289.011V150.216H283.095V143.688H271.365V138.384H300.741Z" fill="#D96500"/>
<path d="M262.134 120.5H267.88V135.528H262.134V130.632H257.714C256.558 133.658 253.294 135.494 248.874 135.494C243.298 135.494 239.558 132.57 239.558 128.014C239.558 123.492 243.298 120.534 248.874 120.534C253.226 120.534 256.456 122.336 257.646 125.26H262.134V120.5ZM248.874 130.87C251.084 130.87 252.478 129.748 252.478 128.014C252.478 126.28 251.084 125.158 248.874 125.158C246.664 125.158 245.27 126.28 245.27 128.014C245.27 129.748 246.664 130.87 248.874 130.87ZM262.236 138.452V136.548H267.88V149.536H242.244V136.548H247.888V138.452H262.236ZM247.888 144.98H262.236V142.906H247.888V144.98Z" fill="#D96500"/>
<path d="M226.66 133.658L213.298 129.646C210.238 132.196 205.376 133.59 200.786 133.692V130.904C205.648 130.768 211.428 128.83 212.72 125.226H201.33V122.506H212.414V119.344H215.848V122.506H226.898V125.226H216.222C216.018 126.008 215.712 126.756 215.27 127.47L227.544 131.006L226.66 133.658ZM199.63 135.936H228.632V138.758H215.814V143.28H212.414V138.758H199.63V135.936ZM205.07 141.376V146.34H227.136V149.196H201.636V141.376H205.07Z" fill="#692300"/>
<path d="M194.207 126.45H198.287V129.68H194.207V136.276H190.841V120.5H194.207V126.45ZM185.401 124.376C185.401 132.298 178.737 135.46 168.673 135.46V132.536C176.867 132.502 182.001 130.156 182.001 124.954V124.07H168.673V121.214H185.401V124.376ZM184.449 140.696C184.245 141.478 183.905 142.192 183.531 142.838L195.363 146.646L194.411 149.536L181.661 145.116C178.737 147.802 174.147 149.162 169.523 149.162V146.238C174.691 146.238 179.485 144.198 180.913 140.696H169.863V137.874H194.581V140.696H184.449Z" fill="#692300"/>
<path d="M142.174 130.972C135.17 130.972 129.424 129.544 129.424 125.668C129.424 121.826 135.17 120.398 142.174 120.398C149.178 120.398 154.924 121.826 154.924 125.668C154.924 129.544 149.178 130.972 142.174 130.972ZM142.174 128.388C147.24 128.388 151.456 127.606 151.456 125.668C151.456 123.764 147.24 122.948 142.174 122.948C137.108 122.948 132.892 123.764 132.892 125.668C132.892 127.606 137.108 128.388 142.174 128.388ZM127.69 135.392V132.774H156.692V135.392H127.69ZM129.696 149.196V142.26H151.388V140.22H129.628V137.704H154.686V144.64H132.994V146.68H155.196V149.196H129.696Z" fill="#692300"/>
<path d="M119.955 134.984V127.572H112.951V124.58H119.955V120.5H123.321V134.984H119.955ZM105.675 129.034C103.601 132.06 100.269 134.168 96.0532 134.746V131.72C101.493 130.734 104.689 126.144 104.757 120.772L108.123 120.976C108.123 122.948 107.749 124.784 107.069 126.484L115.841 132.026L114.107 134.406L105.675 129.034ZM101.935 146.544H124.035V149.162H98.6032V141.614H119.989V139.2H98.5352V136.582H123.321V144.096H101.935V146.544Z" fill="#692300"/>
<path d="M88.012 120.5H91.378V149.536H88.012V120.5ZM77.268 121.35C77.234 125.804 76.86 129.816 76.112 133.284L85.496 145.796L82.776 147.734L75.058 137.194C72.916 143.586 69.38 147.462 64.79 147.802V144.402C70.604 143.484 73.8 133.42 73.834 121.214L77.268 121.35Z" fill="#692300"/>
<path d="M56.4092 149.536V120.5H59.7752V149.536H56.4092ZM42.5372 139.404C37.3012 139.404 33.5612 135.664 33.5612 130.258C33.5612 124.852 37.3012 121.112 42.5372 121.112C47.7392 121.112 51.5132 124.852 51.5132 130.258C51.5132 135.664 47.7392 139.404 42.5372 139.404ZM42.5372 136.344C45.9712 136.344 48.2152 133.726 48.2152 130.258C48.2152 126.79 45.9712 124.138 42.5372 124.138C39.0692 124.138 36.8592 126.79 36.8592 130.258C36.8592 133.726 39.0692 136.344 42.5372 136.344ZM32.5752 147.802V144.64H44.4412C48.4192 144.64 51.9892 144.198 53.9612 143.28V146.408C52.0232 147.292 48.4192 147.802 44.2372 147.802H32.5752Z" fill="#692300"/>
<path d="M24.8742 142.124V133.386H20.5902V130.53H24.8742V127.096H20.5902V124.24H24.8742V120.5H28.2062V142.124H24.8742ZM20.4542 136.616C18.6182 137.262 15.2862 137.704 11.0702 137.704H1.07422V134.848H4.47422V124.07H1.17622V121.214H19.6722V124.07H16.3062V134.644C18.0062 134.44 19.4002 134.168 20.4542 133.794V136.616ZM7.70422 124.07V134.848H11.3082C11.9202 134.848 12.4982 134.848 13.0762 134.814V124.07H7.70422ZM6.88822 146.136H28.8862V149.162H3.48822V140.322H6.88822V146.136Z" fill="#692300"/>
<path d="M451.641 84.5718L449.941 92.2558H447.153L448.241 84.5718H451.641Z" fill="#692300"/>
<path d="M432.788 72.91H444.62V77.33H415.244V72.91H427.076V71.312H417.012V60.5H442.852V64.886H422.724V66.926H443.192V71.312H432.788V72.91ZM429.932 78.452C437.786 78.452 443.26 80.016 443.26 84.198C443.26 88.38 437.786 89.944 429.932 89.944C422.078 89.944 416.604 88.38 416.604 84.198C416.604 80.016 422.078 78.452 429.932 78.452ZM429.932 85.66C434.182 85.66 437.14 85.252 437.14 84.198C437.14 83.178 434.182 82.736 429.932 82.736C425.682 82.736 422.724 83.178 422.724 84.198C422.724 85.252 425.682 85.66 429.932 85.66Z" fill="#D96500"/>
<path d="M414.207 71.108V76.684H410.807V89.536H405.061V60.5H410.807V71.108H414.207ZM384.525 88.176V61.18H401.423V88.176H384.525ZM390.271 66.518V82.838H395.677V66.518H390.271Z" fill="#D96500"/>
<path d="M375.362 60.5H380.734V89.536H375.362V60.5ZM368.052 71.652V60.636H373.356V89.026H368.052V77.058H365.468V71.652H368.052ZM357.75 83.28H359.858C362.136 83.28 364.856 82.974 366.624 82.328V87.156C364.89 87.87 361.762 88.176 359.348 88.176H352.344V61.18H365.196V66.076H357.75V72.094H364.006V76.99H357.75V83.28Z" fill="#D96500"/>
<path d="M313.878 71.754V60.5H317.278V68.762H339.004V71.754H313.878ZM311.804 77.942V74.95H340.806V77.942H311.804ZM313.81 89.196V80.526H317.244V86.204H339.31V89.196H313.81Z" fill="#692300"/>
<path d="M307.196 60.5V76.65H303.83V60.5H307.196ZM298.696 68.354C298.696 72.842 295.16 75.902 289.618 75.902C284.042 75.902 280.506 72.842 280.506 68.354C280.506 63.9 284.042 60.806 289.618 60.806C295.16 60.806 298.696 63.9 298.696 68.354ZM283.872 68.354C283.872 71.346 286.218 73.114 289.618 73.114C292.984 73.114 295.33 71.346 295.33 68.354C295.33 65.362 292.984 63.594 289.618 63.594C286.218 63.594 283.872 65.362 283.872 68.354ZM309.542 86.918L307.536 89.298L301.96 84.64C300.192 87.326 297.574 88.992 294.718 89.162L289.788 84.81C287.986 87.36 285.402 88.958 282.614 89.162V86.102C285.81 85.796 288.632 82.022 289.006 77.534L292.27 77.976C292.1 79.54 291.726 80.968 291.182 82.26L295.636 85.932C298.356 85.082 300.634 81.614 300.94 77.534L304.204 78.01C304.068 79.472 303.762 80.798 303.286 82.056L309.542 86.918Z" fill="#692300"/>
<path d="M270.226 72.264V75.494H266.146V89.536H262.78V60.5H266.146V72.264H270.226ZM240.918 64.648V61.554H256.728V68.558C256.728 80.118 250.778 87.734 240.918 87.734V84.538C248.806 84.504 253.294 78.35 253.294 68.626V64.648H240.918Z" fill="#692300"/>
<path d="M231.891 89.536V60.5H235.257V89.536H231.891ZM209.825 87.802V72.91H222.813V64.648H209.757V61.554H226.179V76.004H213.191V84.708H221.691C224.445 84.708 227.437 84.164 229.205 83.314V86.408C227.437 87.292 224.411 87.802 221.589 87.802H209.825Z" fill="#692300"/>
<path d="M200.424 60.5H203.79V89.536H200.424V75.46H192.672C190.734 83.042 185.396 87.734 177.678 87.734V84.538C185.566 84.504 190.054 78.35 190.054 68.626V64.648H177.678V61.554H193.488V68.558C193.488 69.85 193.42 71.108 193.25 72.298H200.424V60.5Z" fill="#692300"/>
<path d="M168.719 60.5H172.085V77.84H168.719V70.122H162.701V76.242H145.973V61.214H162.701V66.96H168.719V60.5ZM159.369 73.352V64.07H149.305V73.352H159.369ZM147.129 82.362V79.438H172.085V89.536H168.651V82.362H147.129Z" fill="#692300"/>
<path d="M126.275 85.0481H133.517V88.1421H104.515V85.0481H111.757V78.2481H106.011V75.1881H111.145V64.8181H106.317V61.7241H131.681V64.8181H126.853V75.1881H131.987V78.2481H126.275V85.0481ZM114.545 64.8181V75.1881H123.453V64.8181H114.545ZM115.123 78.2481V85.0481H122.909V78.2481H115.123Z" fill="#692300"/>
<path d="M97.5274 60.5H100.723V89.536H97.5274V75.358H92.8014V89.026H89.6054V60.67H92.8014V72.196H97.5274V60.5ZM76.9914 84.81H80.7314C83.2134 84.81 85.7294 84.402 87.4974 83.688V86.646C85.7634 87.394 82.9754 87.802 80.3574 87.802H73.6934V61.554H86.2394V64.546H76.9914V84.81Z" fill="#692300"/>
<path d="M56.0352 70.6998V63.7638H34.5812V60.8398H59.4352V70.6998H56.0352ZM61.5772 75.2558H48.7592V79.9478H59.5372V89.5698H56.1372V82.8378H34.3432V79.9478H45.3592V75.2558H32.5752V72.3658H61.5772V75.2558Z" fill="#692300"/>
<path d="M20.4881 63.2542V66.0082H0.768066V63.2542H8.92807V59.9902H12.3281V63.2542H20.4881ZM27.1521 68.4562H31.2321V71.6862H27.1521V82.2602H23.7861V60.5002H27.1521V68.4562ZM10.6281 79.5402C5.80007 79.5402 2.02607 77.3982 2.02607 73.5902C2.02607 69.7822 5.80007 67.6402 10.6281 67.6402C15.4561 67.6402 19.1961 69.7822 19.1961 73.5902C19.1961 77.3982 15.4561 79.5402 10.6281 79.5402ZM10.6281 70.2242C7.36407 70.2242 5.29007 71.6522 5.29007 73.5902C5.29007 75.5622 7.36407 76.9562 10.6281 76.9562C13.8921 76.9562 15.9661 75.5622 15.9661 73.5902C15.9661 71.6522 13.8921 70.2242 10.6281 70.2242ZM6.27607 81.2062V86.1702H27.9341V89.1622H2.87607V81.2062H6.27607Z" fill="#692300"/>
<path d="M572.631 11.992V15.222H568.619V29.536H565.253V0.5H568.619V11.992H572.631ZM556.549 20.118V4.75H543.323V1.622H559.949V20.118H556.549ZM550.735 24.64H553.319C557.229 24.64 560.765 24.3 562.839 23.416V26.578C560.765 27.428 557.331 27.802 553.353 27.802H542.269V24.64H547.335V12.332H550.735V24.64Z" fill="#692300"/>
<path d="M527.903 12.91H539.735V17.33H510.359V12.91H522.191V11.312H512.127V0.5H537.967V4.886H517.839V6.926H538.307V11.312H527.903V12.91ZM525.047 18.452C532.901 18.452 538.375 20.016 538.375 24.198C538.375 28.38 532.901 29.944 525.047 29.944C517.193 29.944 511.719 28.38 511.719 24.198C511.719 20.016 517.193 18.452 525.047 18.452ZM525.047 25.66C529.297 25.66 532.255 25.252 532.255 24.198C532.255 23.178 529.297 22.736 525.047 22.736C520.797 22.736 517.839 23.178 517.839 24.198C517.839 25.252 520.797 25.66 525.047 25.66Z" fill="#D96500"/>
<path d="M502.182 0.5H507.554V29.536H502.182V16.616H499.768V29.026H494.464V0.636H499.768V11.176H502.182V0.5ZM479.164 28.176V1.18H492.356V28.176H479.164ZM484.502 6.382V22.974H487.052V6.382H484.502Z" fill="#D96500"/>
<path d="M474.217 6.382H477.617V11.958H474.217V21.988H468.471V0.5H474.217V6.382ZM467.111 16.786C465.615 17.432 462.487 17.806 459.733 17.806H446.983V13.114H449.601V5.566H447.187V0.840002H466.193V5.566H463.779V12.91C465.105 12.774 466.261 12.502 467.111 12.162V16.786ZM455.075 5.566V13.114H458.305V5.566H455.075ZM454.429 19.506V24.368H474.625V29.536H448.581V19.506H454.429Z" fill="#D96500"/>
<path d="M426.537 3.25424V6.00823H406.817V3.25424H414.977V-0.00976562H418.377V3.25424H426.537ZM433.201 8.45623H437.281V11.6862H433.201V22.2602H429.835V0.500234H433.201V8.45623ZM416.677 19.5402C411.849 19.5402 408.075 17.3982 408.075 13.5902C408.075 9.78224 411.849 7.64023 416.677 7.64023C421.505 7.64023 425.245 9.78224 425.245 13.5902C425.245 17.3982 421.505 19.5402 416.677 19.5402ZM416.677 10.2242C413.413 10.2242 411.339 11.6522 411.339 13.5902C411.339 15.5622 413.413 16.9562 416.677 16.9562C419.941 16.9562 422.015 15.5622 422.015 13.5902C422.015 11.6522 419.941 10.2242 416.677 10.2242ZM412.325 21.2062V26.1702H433.983V29.1622H408.925V21.2062H412.325Z" fill="#692300"/>
<path d="M377.288 10.734V0.5H380.688V8.014H402.482V10.734H377.288ZM375.214 16.344V13.624H404.216V16.344H375.214ZM389.698 29.604C382.762 29.604 376.948 28.244 376.948 24.266C376.948 20.288 382.762 18.962 389.698 18.962C396.634 18.962 402.448 20.288 402.448 24.266C402.448 28.244 396.634 29.604 389.698 29.604ZM389.698 26.952C394.39 26.952 398.912 26.272 398.912 24.266C398.912 22.294 394.39 21.614 389.698 21.614C385.006 21.614 380.484 22.294 380.484 24.266C380.484 26.272 385.006 26.952 389.698 26.952Z" fill="#692300"/>
<path d="M373.87 12.264V15.494H369.79V29.536H366.424V0.5H369.79V12.264H373.87ZM344.562 4.648V1.554H360.372V8.558C360.372 20.118 354.423 27.734 344.562 27.734V24.538C352.451 24.504 356.938 18.35 356.938 8.626V4.648H344.562Z" fill="#692300"/>
<path d="M327.006 29.536V0.5H330.406V29.536H327.006ZM313.304 28.176C308.136 28.176 304.498 23.892 304.498 14.678C304.498 5.464 308.136 1.18 313.304 1.18C318.438 1.18 322.076 5.464 322.076 14.678C322.076 23.892 318.438 28.176 313.304 28.176ZM313.304 25.082C316.33 25.082 318.71 22.056 318.71 14.678C318.71 7.334 316.33 4.274 313.304 4.274C310.21 4.274 307.864 7.334 307.864 14.678C307.864 22.056 310.21 25.082 313.304 25.082Z" fill="#692300"/>
<path d="M298.701 0.5V17.432H295.301V0.5H298.701ZM293.193 14.066C291.425 14.848 288.229 15.358 284.115 15.358H271.909V12.57H275.751V4.002H272.011V1.214H291.935V4.002H288.195V12.4C290.269 12.162 291.901 11.788 293.193 11.21V14.066ZM278.981 12.57H284.081H284.965V4.002H278.981V12.57ZM286.495 17.942C293.533 17.942 299.109 19.574 299.109 23.756C299.109 27.938 293.533 29.536 286.495 29.536C279.457 29.536 273.881 27.938 273.881 23.756C273.881 19.574 279.457 17.942 286.495 17.942ZM286.495 26.782C291.527 26.782 295.539 25.864 295.539 23.756C295.539 21.682 291.527 20.696 286.495 20.696C281.497 20.696 277.451 21.682 277.451 23.756C277.451 25.864 281.497 26.782 286.495 26.782Z" fill="#692300"/>
<path d="M254.178 9.20423C250.914 13.9642 245.916 16.9902 240.544 16.9902V13.7942C246.698 13.7942 252.546 8.04823 254.008 0.63623L257.476 1.24823C257.102 3.11823 256.49 4.92023 255.708 6.55223L268.186 14.4402L266.452 17.1942L254.178 9.20423ZM261.386 25.0142H268.866V28.1422H239.864V25.0142H247.31V18.0442H250.71V25.0142H257.986V18.0442H261.386V25.0142Z" fill="#692300"/>
<path d="M215.78 15.0518H228.632V17.6358H199.63V15.0518H212.448V12.5018H201.738V0.839844H226.694V3.32184H205.104V5.46384H226.218V7.87784H205.104V10.0198H226.966V12.5018H215.78V15.0518ZM223.294 21.5458V19.1658H226.592V29.1958H201.636V19.1658H204.934V21.5458H223.294ZM204.934 26.6798H223.294V24.0278H204.934V26.6798Z" fill="#692300"/>
<path d="M182.035 10.2582C178.771 15.3922 173.841 18.7582 168.503 18.7582V15.5622C174.793 15.5622 180.573 8.76223 182.069 0.63623L185.537 1.24823C185.129 3.49223 184.449 5.63423 183.497 7.57223L196.281 16.1742L194.445 18.8602L182.035 10.2582ZM167.925 24.9802H196.927V28.1422H167.925V24.9802Z" fill="#692300"/>
<path d="M151.384 18.724H160.19V0.5H163.556V23.246H160.19V21.444H151.384V18.724ZM146.556 11.89C141.524 11.89 137.954 9.884 137.954 6.212C137.954 2.574 141.524 0.568001 146.556 0.568001C151.622 0.568001 155.158 2.574 155.158 6.212C155.158 9.884 151.622 11.89 146.556 11.89ZM146.556 3.22C143.496 3.22 141.252 4.206 141.252 6.212C141.252 8.218 143.496 9.238 146.556 9.238C149.616 9.238 151.86 8.218 151.86 6.212C151.86 4.206 149.616 3.22 146.556 3.22ZM144.244 21.92V16.718H136.22V13.93H148.222C152.2 13.93 155.736 13.624 157.742 12.774V15.562C155.906 16.378 152.268 16.718 148.12 16.718H147.61V21.92H144.244ZM142.272 26.306H164.304V29.162H138.906V20.356H142.272V26.306Z" fill="#692300"/>
<path d="M110.469 13.0121C103.431 13.0121 97.5834 10.9721 97.5834 6.65408C97.5834 2.37008 103.431 0.330078 110.469 0.330078C117.507 0.330078 123.355 2.37008 123.355 6.65408C123.355 10.9721 117.507 13.0121 110.469 13.0121ZM110.469 10.2921C115.535 10.2921 119.785 9.03408 119.785 6.65408C119.785 4.30808 115.535 3.05008 110.469 3.05008C105.403 3.05008 101.153 4.30808 101.153 6.65408C101.153 9.03408 105.403 10.2921 110.469 10.2921ZM95.9854 18.4521V15.5961H124.987V18.4521H95.9854ZM97.9913 29.1961V20.9341H101.425V26.3061H123.491V29.1961H97.9913Z" fill="#692300"/>
<path d="M80.4303 12.8758H93.2823V15.4938H64.2803V12.8758H77.0983V10.2578H66.3543V0.839844H91.1743V10.2578H80.4303V12.8758ZM69.6863 3.38984V7.67384H87.8423V3.38984H69.6863ZM69.5843 24.6398V26.6798H91.7863V29.1958H66.2863V22.2598H87.9783V20.2198H66.2183V17.7038H91.2763V24.6398H69.5843Z" fill="#692300"/>
<path d="M62.9369 7.334V10.564H58.8569V18.656H55.4909V0.5H58.8569V7.334H62.9369ZM33.5949 7.912H47.1269V4.036H33.5269V1.214H50.4589V10.666H36.9269V14.61H44.2369C48.1809 14.61 51.5129 14.168 53.3829 13.318V16.14C51.6149 16.922 48.1469 17.432 44.0329 17.432H33.5949V7.912ZM34.3089 23.144V20.254H58.8569V29.536H55.4569V23.144H34.3089Z" fill="#692300"/>
<path d="M31.2318 12.264V15.494H27.1518V29.536H23.7858V0.5H27.1518V12.264H31.2318ZM1.92383 4.648V1.554H17.7338V8.558C17.7338 20.118 11.7838 27.734 1.92383 27.734V24.538C9.81183 24.504 14.2998 18.35 14.2998 8.626V4.648H1.92383Z" fill="#692300"/>
</svg>
