<svg width="294" height="291" viewBox="0 0 294 291" fill="none" xmlns="http://www.w3.org/2000/svg">
<g clip-path="url(#clip0_3618_16414)">
<path d="M144.563 96.6455H10.0671C4.5072 96.6455 0 101.153 0 106.713V202.149C0 207.709 4.5072 212.216 10.0671 212.216H144.563C150.123 212.216 154.631 207.709 154.631 202.149V106.713C154.631 101.153 150.123 96.6455 144.563 96.6455Z" fill="#3268F6"/>
<path d="M71.1896 174.515C70.3935 168.044 65.3753 162.9 58.9261 161.944L43.7178 159.691C40.0323 159.145 36.5334 161.482 35.6256 165.095L24.6606 208.743H75.3989L71.1889 174.515H71.1896Z" fill="#BAD4F1"/>
<path d="M60.1097 181.534L64.3552 179.988C64.675 179.872 64.9961 180.046 65.073 180.378L67.7523 191.983C67.8286 192.315 67.6319 192.678 67.3121 192.794L63.0667 194.34C62.7469 194.456 62.4258 194.281 62.3488 193.95L59.6695 182.344C59.5932 182.013 59.7899 181.65 60.1097 181.534Z" fill="#565656"/>
<path fill-rule="evenodd" clip-rule="evenodd" d="M67.5781 192.326C67.5018 192.475 67.3734 192.597 67.2128 192.655L63.0938 194.155C62.9546 194.205 62.8148 194.199 62.6971 194.147L60.3964 184.181C60.3221 183.859 60.5134 183.507 60.8239 183.394L64.5917 182.023C64.9021 181.91 65.2138 182.079 65.2881 182.401L67.5794 192.325L67.5781 192.326Z" fill="#7B7B7B"/>
<path d="M47.5171 160.268C49.8787 161.602 58.1281 174.746 62.5087 181.523C62.5087 181.523 61.7594 169.817 58.7917 161.676" stroke="#BC6D6D" stroke-width="0.410766" stroke-linecap="round" stroke-linejoin="round"/>
<path d="M77.7332 153.789C78.6142 152.462 78.3928 150.69 77.2127 149.62C75.9596 148.485 74.0416 148.511 72.8207 149.681L63.6527 158.463C62.0732 159.975 61.7073 162.36 62.7596 164.278L66.3856 170.884L77.7338 153.789H77.7332Z" fill="#F0C5C6"/>
<path d="M72.3088 195.777C74.3218 200.428 79.4403 202.902 84.3361 201.59C90.3356 199.983 93.5268 193.44 91.1003 187.722L78.6957 158.5C78.1746 157.271 76.7556 156.698 75.5273 157.22L60.9505 163.407C59.7162 163.931 59.1449 165.359 59.6774 166.59L72.3088 195.776V195.777Z" fill="#CDE2FA"/>
<path fill-rule="evenodd" clip-rule="evenodd" d="M90.8614 193.815C93.8391 193.815 96.1076 196.482 95.6313 199.421L94.2993 207.636C93.92 209.975 91.8996 211.694 89.5294 211.694H78.903H37.9033V197.198H77.9369L86.0499 194.128C86.5965 193.921 87.1758 193.815 87.7599 193.815H90.862H90.8614Z" fill="#FDCDCF"/>
<path d="M48.9219 171.033C50.4472 166.019 47.5244 160.737 42.466 159.368C37.8439 158.116 33.0278 160.585 31.3453 165.068L19.1106 197.672L39.1813 203.05L48.9212 171.032L48.9219 171.033Z" fill="#CDE2FA"/>
<path d="M27.8765 192.347C22.8082 192.383 18.5306 196.127 17.8254 201.147C16.9611 207.297 21.7371 212.792 27.9481 212.792H59.6941C61.0281 212.792 62.1105 211.71 62.1105 210.375V194.54C62.1105 193.199 61.0181 192.114 59.6774 192.123L27.8765 192.347V192.347Z" fill="#CDE2FA"/>
<path fill-rule="evenodd" clip-rule="evenodd" d="M115.89 181.682C116.865 181.682 117.561 182.624 117.276 183.556L108.904 210.899C108.593 211.915 107.655 212.608 106.594 212.608H61.3136C60.7798 212.608 60.3469 212.175 60.3469 211.641C60.3469 211.107 60.7798 210.674 61.3136 210.674H70.1203L78.161 184.415C78.6581 182.791 80.1587 181.681 81.8573 181.681H115.891L115.89 181.682Z" fill="white"/>
<path d="M52.6663 113.49C56.5832 117.541 56.7478 122.838 56.3411 124.98C47.6468 137.825 40.9213 163.771 29.0733 167.779C19.1708 171.129 13.212 165.364 12.4119 161.815C13.1217 162.589 17.3016 164.107 20.676 161.778C27.4282 157.117 18.9353 125.331 27.1499 115.426C34.9351 106.037 47.7698 108.426 52.6669 113.49H52.6663Z" fill="url(#paint0_linear_3618_16414)"/>
<path d="M64.8305 121.657C73.8861 119.981 80.6684 133.317 78.0921 140.131L39.7591 140.365C34.272 121.636 59.1414 114.427 64.8312 121.657H64.8305Z" fill="#4E4347"/>
<path d="M60.143 156.707L51.2748 154.331L49.9568 159.544C49.4517 161.544 50.5583 163.598 52.5064 164.275L53.1654 164.505C54.124 164.838 55.1443 164.954 56.1531 164.845C57.2764 164.722 58.2096 163.923 58.502 162.831L60.143 156.707Z" fill="#F0C5C6"/>
<path d="M77.6313 149.496C80.2263 148.873 81.8249 146.265 81.2019 143.67C80.5789 141.075 77.9702 139.476 75.3752 140.099C72.7802 140.722 71.1816 143.331 71.8046 145.926C72.4276 148.521 75.0363 150.119 77.6313 149.496Z" fill="#F9CBCC"/>
<path d="M40.2689 145.747C42.9977 155.929 55.5134 162.049 65.6962 159.321C75.8784 156.592 79.871 146.049 77.1428 135.866C74.414 125.684 63.9481 119.641 53.766 122.37C43.5838 125.098 37.5414 135.564 40.2696 145.747H40.2689Z" fill="#FBD4D5"/>
<path d="M68.2144 151.044C68.2144 152.224 66.9159 153.18 65.315 153.18C63.7141 153.18 62.4155 152.223 62.4155 151.044C62.4155 149.864 63.7134 149.797 65.315 149.797C66.9166 149.797 68.2144 149.864 68.2144 151.044Z" fill="#E3A9AA"/>
<path d="M76.5581 147.725C76.938 146.307 76.4637 144.948 75.4987 144.689C74.5336 144.431 73.4433 145.371 73.0634 146.789C72.6835 148.207 73.1578 149.566 74.1228 149.824C75.0878 150.083 76.1781 149.143 76.5581 147.725Z" fill="#F5BCBE"/>
<path d="M56.3201 151.426C57.769 151.191 58.753 149.826 58.5178 148.377C58.2826 146.928 56.9173 145.944 55.4683 146.179C54.0194 146.414 53.0354 147.78 53.2706 149.229C53.5058 150.678 54.8711 151.662 56.3201 151.426Z" fill="#F5BCBE"/>
<path d="M69.4708 142.37C68.8567 142.37 68.3596 142.868 68.3596 143.481V144.641C68.3596 145.256 68.8574 145.753 69.4708 145.753C70.085 145.753 70.582 145.255 70.582 144.641V143.481C70.582 142.867 70.0843 142.37 69.4708 142.37Z" fill="#46383D"/>
<path d="M60.3183 142.56C59.6513 142.56 59.1101 143.1 59.1101 143.768V144.734C59.1101 145.401 59.6507 145.943 60.3183 145.943C60.9853 145.943 61.5265 145.402 61.5265 144.734V143.768C61.5265 143.101 60.986 142.56 60.3183 142.56Z" fill="#46383D"/>
<path d="M66.6597 147.323L66.176 147.807" stroke="#E3A9AA" stroke-width="0.966705" stroke-linecap="round"/>
<path fill-rule="evenodd" clip-rule="evenodd" d="M39.8963 136.889C36.5165 149.501 62.1078 142.84 66.7065 134.078C66.7065 134.078 74.5518 145.744 78.0915 140.131C77.9377 138.839 77.2988 136.452 77.1001 135.71C74.3257 125.357 63.8278 119.173 53.6523 121.9C46.4197 123.838 41.7361 130.021 39.8956 136.889H39.8963Z" fill="#4E4347"/>
<path d="M36.5192 148.548C38.187 151.437 41.8812 152.427 44.7707 150.759C47.6594 149.092 46.4385 146.931 44.7707 144.042C43.1028 141.153 41.619 138.629 38.7303 140.297C35.8408 141.965 34.8514 145.659 36.5192 148.548Z" fill="url(#paint1_linear_3618_16414)"/>
<path fill-rule="evenodd" clip-rule="evenodd" d="M97.3286 109.53C91.8354 109.53 87.3826 113.983 87.3826 119.476C87.3826 124.158 90.6172 128.084 94.973 129.142V135.966L101.517 129.423H129.369C134.862 129.423 139.315 124.97 139.315 119.477C139.315 113.984 134.862 109.531 129.369 109.531L97.3286 109.53Z" fill="white"/>
<path d="M192.128 284.794L214.438 278.815L214.794 280.141L192.483 286.119L192.128 284.794Z" fill="#D4D4D4"/>
<path opacity="0.4" d="M269.567 175.235H135.07C129.51 175.235 125.003 179.743 125.003 185.302V280.739C125.003 286.299 129.51 290.806 135.07 290.806H269.567C275.127 290.806 279.634 286.299 279.634 280.739V185.302C279.634 179.743 275.127 175.235 269.567 175.235Z" fill="#ACC6F7"/>
<path fill-rule="evenodd" clip-rule="evenodd" d="M205.54 190.538C203.081 189.975 197.192 190.772 193.06 196.684C190.461 200.404 188.036 204.522 186.625 209.469C185.213 214.415 174.136 257.625 189.202 261.53C189.786 261.647 190.875 261.813 191.537 261.813H233.429C234.09 261.813 235.515 261.551 236.1 261.435C252.508 256.406 236.1 204.104 236.1 204.104C236.1 204.104 234.824 199.893 231.21 195.018C224.424 185.864 210.928 184.347 205.54 190.539V190.538Z" fill="#473D41"/>
<path d="M162.154 228.911C163.838 230.86 163.624 233.806 161.675 235.491L155.974 240.419" stroke="#E3A9AA" stroke-width="1.01487" stroke-linecap="round"/>
<path fill-rule="evenodd" clip-rule="evenodd" d="M174.715 211.371C172.784 210.257 170.315 210.919 169.2 212.849L165.389 219.451L163.549 217.611C161.237 215.299 157.488 215.299 155.176 217.611L147.703 225.085C145.391 227.397 145.391 231.145 147.703 233.457L152.219 237.974C152.907 238.661 153.722 239.144 154.588 239.423L156.426 246.285L172.023 242.106L169.838 233.947L170.542 226.679C170.542 226.679 170.542 226.673 170.543 226.67L176.192 216.886C177.306 214.955 176.645 212.487 174.714 211.371H174.715Z" fill="url(#paint2_linear_3618_16414)"/>
<path d="M158.968 221.212C160.755 223.28 160.528 226.404 158.46 228.191L152.414 233.417" stroke="#E3A9AA" stroke-width="1.07642" stroke-linecap="round"/>
<path d="M163.604 280.807C165.483 286.13 171.066 289.189 176.564 287.906C182.521 286.516 186.224 280.56 184.832 274.603L177.368 242.631C177.034 241.2 175.559 240.351 174.154 240.781L154.415 246.824C153.035 247.247 152.284 248.734 152.765 250.095L163.604 280.806V280.807Z" fill="#B0C5FF"/>
<path d="M196.955 241.47C201.478 237.488 208.373 237.927 212.354 242.45C216.336 246.973 215.897 253.867 211.375 257.849L181.554 284.104L167.135 267.725L196.955 241.471V241.47Z" fill="#B0C5FF"/>
<path fill-rule="evenodd" clip-rule="evenodd" d="M230.953 290.806H185.776L193.232 250.591C195.322 242.531 201.143 237.103 207.693 237.103H212.903C224.641 237.668 224.627 240.329 224.603 244.684C224.597 245.811 224.59 247.051 224.786 248.396L230.953 290.806H230.953Z" fill="#A6BAF1"/>
<path fill-rule="evenodd" clip-rule="evenodd" d="M213.842 290.806H189.42L181.132 259.877C180.838 258.78 181.414 257.673 182.418 257.403L209.331 250.192C210.335 249.923 211.388 250.594 211.681 251.692L221.072 286.74C221.366 287.837 220.79 288.945 219.786 289.214L213.842 290.806V290.806Z" fill="#AF9488"/>
<path fill-rule="evenodd" clip-rule="evenodd" d="M206.658 290.806H191.07L183.039 260.836C182.77 259.833 183.285 258.823 184.187 258.581L208.386 252.097C209.29 251.855 210.24 252.472 210.509 253.476L219.096 285.526C219.365 286.529 218.851 287.539 217.948 287.781L206.658 290.806Z" fill="white"/>
<path d="M190.088 255.305C189.98 254.902 190.219 254.488 190.621 254.381L201.887 251.362C202.29 251.255 202.704 251.493 202.811 251.896L203.497 254.454C203.605 254.856 203.366 255.27 202.963 255.378L191.697 258.396C191.295 258.504 190.881 258.265 190.773 257.862L190.088 255.305H190.088Z" fill="#2C2C2C"/>
<path d="M186.788 263.351L208.657 257.492L208.977 258.685L187.109 264.544L186.789 263.351H186.788Z" fill="#D4D4D4"/>
<path d="M187.898 267.493L209.767 261.633L210.087 262.826L188.218 268.685L187.899 267.492L187.898 267.493Z" fill="#D4D4D4"/>
<path d="M189.789 276.065L212.1 270.087L212.455 271.412L190.144 277.39L189.789 276.065Z" fill="#D4D4D4"/>
<path d="M189.061 271.582L210.93 265.722L211.285 267.047L189.417 272.907L189.061 271.582Z" fill="#D4D4D4"/>
<path d="M191.4 280.311L213.269 274.451L213.624 275.776L191.756 281.636L191.401 280.311H191.4Z" fill="#D4D4D4"/>
<path fill-rule="evenodd" clip-rule="evenodd" d="M236.424 290.805H178.487C177.825 290.093 177.363 289.185 177.197 288.165L175.798 279.538C175.298 276.451 177.681 273.651 180.808 273.651H184.066C184.679 273.651 185.287 273.763 185.862 273.979L194.382 277.203H236.425V290.805L236.424 290.805Z" fill="#FCD1D2"/>
<path fill-rule="evenodd" clip-rule="evenodd" d="M239.734 290.806H194.711V276.749C194.711 275.34 195.858 274.202 197.267 274.211L217.348 274.352L211.003 248.994C210.127 245.493 211.551 241.819 214.559 239.824C219.173 236.762 225.437 238.846 227.297 244.063L240.424 280.874C240.622 281.327 240.791 281.797 240.927 282.282L240.928 282.288C241.055 282.742 241.153 283.209 241.22 283.687C241.585 286.281 240.994 288.764 239.734 290.806Z" fill="#B0C5FF"/>
<path d="M203.221 231.418H212.914L212.833 237.095C212.802 239.272 211.112 241.064 208.94 241.223L208.206 241.276C207.138 241.354 206.065 241.194 205.066 240.807C203.954 240.375 203.221 239.305 203.221 238.112V231.418Z" fill="#F0C5C6"/>
<path d="M226.482 223.342C220.918 232.979 206.482 235.8 196.844 230.236C187.207 224.671 186.016 212.829 191.58 203.191C197.145 193.554 209.468 190.252 219.106 195.816C228.744 201.38 232.046 213.704 226.482 223.342Z" fill="#FBD4D5"/>
<path d="M199.701 202.416C194.869 206.644 189.934 211.199 187.789 211.47C187.789 211.47 191.806 192.807 202.291 191.482C206.835 190.908 213.959 192.293 213.959 192.293C213.959 192.293 224.31 194.559 227.808 199.663C231.768 205.441 228.947 217.782 228.947 217.782C228.947 217.782 217.479 218.727 212.68 210.05L215.095 214.527C215.095 214.527 199.989 214.542 199.701 202.416V202.416Z" fill="#473D41"/>
<path d="M190.847 218.247C191.902 218.247 192.757 216.991 192.757 215.442C192.757 213.892 191.902 212.636 190.847 212.636C189.792 212.636 188.937 213.892 188.937 215.442C188.937 216.991 189.792 218.247 190.847 218.247Z" fill="#F5BCBE"/>
<path d="M212.487 222.639C212.734 221.109 211.694 219.669 210.164 219.422C208.634 219.176 207.194 220.216 206.947 221.746C206.701 223.275 207.741 224.716 209.271 224.962C210.801 225.209 212.241 224.169 212.487 222.639Z" fill="#F5BCBE"/>
<path d="M197.627 211.919C198.253 212.087 198.624 212.73 198.456 213.356L198.139 214.539C197.971 215.165 197.328 215.537 196.702 215.369C196.076 215.201 195.704 214.558 195.872 213.932L196.19 212.749C196.357 212.123 197 211.751 197.627 211.919Z" fill="#46383D"/>
<path d="M206.908 214.613C207.588 214.796 207.992 215.495 207.81 216.176L207.546 217.161C207.363 217.841 206.664 218.245 205.984 218.063C205.303 217.88 204.9 217.181 205.082 216.501L205.346 215.515C205.528 214.835 206.228 214.432 206.908 214.613Z" fill="#46383D"/>
<path d="M199.14 217.739L199.501 218.365" stroke="#E3A9AA" stroke-width="1.02022" stroke-linecap="round"/>
<path d="M202.851 221.747C202.386 222.016 201.872 222.189 201.339 222.26C200.805 222.33 200.264 222.295 199.745 222.155C199.226 222.016 198.739 221.776 198.313 221.449C197.886 221.122 197.529 220.714 197.26 220.248" stroke="#E3A9AA" stroke-width="1.02022" stroke-linecap="round"/>
<path d="M229.951 226.223C227.461 228.713 223.423 228.713 220.933 226.223C218.443 223.733 220.278 221.864 222.768 219.373C225.258 216.883 227.461 214.714 229.951 217.205C232.441 219.695 232.441 223.733 229.951 226.223Z" fill="url(#paint3_linear_3618_16414)"/>
<path d="M294 181.207C294 191.215 285.887 199.328 275.879 199.328C265.872 199.328 257.759 191.215 257.759 181.207C257.759 171.2 265.872 163.087 275.879 163.087C285.887 163.087 294 171.2 294 181.207Z" fill="white"/>
<path d="M268.231 179.667C268.19 179.196 268.562 178.792 269.033 178.792H270.973C271.418 178.792 271.779 179.153 271.779 179.597V187.248C271.779 187.693 271.418 188.054 270.973 188.054H269.698C269.281 188.054 268.932 187.734 268.896 187.318L268.23 179.667H268.231Z" fill="#3268F6"/>
<path d="M272.182 179.345C272.182 179.009 272.391 178.708 272.695 178.564C273.359 178.252 276.504 177.621 277.015 176.77C277.672 175.674 277.796 173.692 277.816 173.238C277.819 173.174 277.817 173.111 277.826 173.048C277.935 172.262 279.452 173.18 280.035 174.151C280.351 174.678 280.392 175.37 280.358 175.911C280.323 176.489 280.154 177.048 279.987 177.603L279.632 178.785H283.199C283.733 178.785 284.119 179.296 283.974 179.81L282.617 187.467C282.519 187.814 282.203 188.054 281.842 188.054H272.989C272.544 188.054 272.183 187.693 272.183 187.248V179.345H272.182Z" fill="#3268F6"/>
<path opacity="0.2" d="M269.396 18.1216H134.899C129.339 18.1216 124.832 22.6288 124.832 28.1887V123.625C124.832 129.185 129.339 133.692 134.899 133.692H269.396C274.955 133.692 279.463 129.185 279.463 123.625V28.1887C279.463 22.6288 274.955 18.1216 269.396 18.1216Z" fill="white"/>
<path d="M229.362 93.0053C230.65 90.1293 229.007 86.1012 227.248 83.0332C225.492 79.9719 222.311 77.5354 218.978 78.6954C215.231 80.0006 211.505 83.4386 209.85 86.5796L193.069 118.017L214.277 126.677L229.361 93.0047L229.362 93.0053Z" fill="#CDE2FA"/>
<path d="M209.632 91.0094C210.713 84.0973 216.165 78.6918 223.086 77.6689L238.547 75.3849C242.609 74.7848 246.465 77.3605 247.465 81.3431L259.555 129.467H203.615L209.632 91.0094Z" fill="#F0C5C6"/>
<path d="M216.51 83.1175L229.83 82.0518V98.5674L216.51 99.6331V83.1181V83.1175Z" fill="white"/>
<path d="M209.631 91.009C210.574 84.9813 214.84 80.0997 220.506 78.2706C220.506 78.2706 219.864 83.8119 219.707 87.379C219.546 91.0164 219.707 96.7022 219.707 96.7022C219.707 96.7022 223.464 90.2812 226.1 86.3133C228.863 82.1535 233.558 75.9244 233.558 75.9244L239.951 75.1256C244.014 74.5255 246.464 77.3601 247.465 81.3427L259.554 129.466H203.615L209.631 91.009Z" fill="#BAD4F1"/>
<path fill-rule="evenodd" clip-rule="evenodd" d="M186.569 113.007C183.286 113.007 180.784 115.948 181.31 119.188L182.778 128.244C183.196 130.824 185.424 132.719 188.037 132.719H201.351H244.955V116.737H200.817L191.873 113.353C191.27 113.124 190.632 113.007 189.988 113.007H186.568H186.569Z" fill="#FDCDCF"/>
<path d="M232.843 88.0432C231.18 82.5728 234.369 76.8107 239.888 75.3162C244.934 73.9494 250.191 76.6455 252.024 81.5406L265.434 117.323L243.53 123.192L232.843 88.0432H232.843Z" fill="#CDE2FA"/>
<path d="M255.597 111.437C261.179 111.484 265.885 115.609 266.662 121.137C267.616 127.923 262.342 133.982 255.49 133.974L220.923 133.933C219.455 133.931 218.264 132.74 218.262 131.272L218.242 113.817C218.24 112.336 219.447 111.138 220.928 111.15L255.596 111.437H255.597Z" fill="#CDE2FA"/>
<path fill-rule="evenodd" clip-rule="evenodd" d="M158.975 99.6325C157.9 99.6325 157.131 100.671 157.447 101.698L166.677 131.845C167.02 132.964 168.054 133.729 169.224 133.729H219.146C219.734 133.729 220.211 133.252 220.211 132.663C220.211 132.074 219.734 131.597 219.146 131.597H209.437L200.572 102.646C200.023 100.855 198.369 99.6318 196.496 99.6318H158.975V99.6325Z" fill="white"/>
<path d="M220.772 72.0885L230.741 70.3311L231.687 76.1835C232.05 78.428 230.637 80.5775 228.433 81.1347L227.687 81.3227C226.601 81.597 225.47 81.6258 224.372 81.409C223.15 81.1668 222.202 80.1988 221.986 78.9718L220.772 72.0878V72.0885Z" fill="#F0C5C6"/>
<path d="M205.445 60.8817C207.332 58.9946 207.332 55.935 205.445 54.048C203.558 52.1609 200.499 52.1609 198.611 54.048C196.724 55.935 196.724 58.9946 198.611 60.8817C200.499 62.7688 203.558 62.7688 205.445 60.8817Z" fill="#F9CBCC"/>
<path d="M242.346 60.0142C239.339 71.2407 225.539 77.9876 214.313 74.9791C203.088 71.9713 198.686 60.3474 201.693 49.1209C204.701 37.8944 216.241 31.2325 227.467 34.241C238.692 37.2489 245.354 48.7878 242.346 60.0142Z" fill="#FBD4D5"/>
<path d="M210.151 56.2915C210.828 56.2915 211.377 56.8401 211.377 57.5171V58.7956C211.377 59.4726 210.828 60.0212 210.151 60.0212C209.474 60.0212 208.926 59.4726 208.926 58.7956V57.5171C208.926 56.8401 209.474 56.2915 210.151 56.2915Z" fill="#46383D"/>
<path d="M220.242 56.5C220.978 56.5 221.574 57.0961 221.574 57.832V58.8977C221.574 59.6336 220.978 60.2297 220.242 60.2297C219.506 60.2297 218.91 59.6336 218.91 58.8977V57.832C218.91 57.0961 219.506 56.5 220.242 56.5Z" fill="#46383D"/>
<path d="M213.251 61.751L213.785 62.2848" stroke="#E3A9AA" stroke-width="1.06572" stroke-linecap="round"/>
<path d="M217.929 64.8813C217.533 65.2781 217.061 65.5932 216.542 65.8079C216.024 66.0227 215.468 66.133 214.907 66.133C214.345 66.133 213.79 66.0227 213.27 65.8079C212.752 65.5925 212.28 65.2781 211.884 64.8813" stroke="#E3A9AA" stroke-width="1.06572" stroke-linecap="round"/>
<path fill-rule="evenodd" clip-rule="evenodd" d="M236.93 33.0963C238.007 34.1814 239.248 35.4318 240.829 36.5644C247.466 41.3223 244.663 49.7216 243.597 52.9101C241.905 60.7407 228.946 57.2532 225.745 46.3566C222.545 57.5402 210.274 52.9094 210.274 52.9094L213.762 49.3263C206.858 56.2698 200.974 52.9094 200.974 52.9094V52.9061L200.973 52.9074C199.912 50.0501 197.087 37.3739 205.356 34.2698C207.499 33.4649 209.575 32.5002 211.566 31.5744C218.796 28.212 224.909 25.3694 229.082 32.6193C232.531 28.6642 234.206 30.3508 236.93 33.0957L236.93 33.0963Z" fill="#4E4347"/>
<path fill-rule="evenodd" clip-rule="evenodd" d="M228.91 30.4704C228.736 29.3404 228.161 28.9738 227.616 28.4399C228.665 28.7243 229.126 29.1096 229.534 30.1446C229.941 31.1802 229.534 32.9858 229.534 32.9858H228.499C228.758 32.4787 229.062 31.4538 228.911 30.4697L228.91 30.4704Z" fill="#4E4347"/>
<path d="M246.843 61.4512C245.208 64.2824 241.588 65.2524 238.757 63.6181C235.925 61.983 237.122 59.8663 238.757 57.0351C240.391 54.2039 241.845 51.7306 244.676 53.365C247.507 54.9993 248.477 58.62 246.843 61.4512Z" fill="url(#paint4_linear_3618_16414)"/>
<path d="M206.479 63.9927C207.444 63.7341 207.918 62.3751 207.539 60.9571C207.159 59.5392 206.068 58.5994 205.103 58.858C204.138 59.1166 203.664 60.4756 204.044 61.8935C204.424 63.3115 205.514 64.2513 206.479 63.9927Z" fill="#F5BCBE"/>
<path d="M224.712 65.6337C226.18 65.6337 227.37 64.4437 227.37 62.9758C227.37 61.5079 226.18 60.3179 224.712 60.3179C223.244 60.3179 222.054 61.5079 222.054 62.9758C222.054 64.4437 223.244 65.6337 224.712 65.6337Z" fill="#F5BCBE"/>
<path fill-rule="evenodd" clip-rule="evenodd" d="M176.617 51.1411C182.111 51.1411 186.563 55.594 186.563 61.0871C186.563 65.7688 183.329 69.6952 178.973 70.7528V77.5773L172.429 71.0338H154.577C149.084 71.0338 144.631 66.581 144.631 61.0878C144.631 55.5946 149.085 51.1418 154.577 51.1418L176.617 51.1411Z" fill="white"/>
<path d="M178.594 61.2891H172.156V60.5859H174.93V60.0547H172.969V57.8516H177.766V60.0547H175.789V60.5859H178.594V61.2891ZM172.914 61.7188H177.789V63.4531H173.773V63.9688H177.984V64.6328H172.922V62.8281H176.938V62.375H172.914V61.7188ZM176.898 59.375V58.5312H173.82V59.375H176.898Z" fill="#474747"/>
<path d="M168.734 60.1328H166.383V60.9219C167.023 60.9167 167.566 60.8997 168.012 60.8711C168.46 60.8424 168.911 60.7891 169.367 60.7109L169.461 61.4062C168.969 61.4922 168.479 61.5521 167.992 61.5859C167.508 61.6172 166.926 61.6328 166.246 61.6328H166.094H165.516V59.4609H167.883V58.7422H165.508V58.0391H168.734V60.1328ZM166.109 62.2656H170.812V64.6875H169.945V62.9609H166.109V62.2656ZM169.945 57.6406H170.812V59.3672H171.805V60.0859H170.812V61.9297H169.945V57.6406Z" fill="#474747"/>
<path d="M163.859 60.3906H164.906V61.1172H163.859V64.6797H162.992V57.6328H163.859V60.3906ZM158.289 62.75C159.151 62.3203 159.815 61.8034 160.281 61.1992C160.747 60.5924 161.023 59.888 161.109 59.0859H158.672V58.3672H161.992C161.987 60.6849 160.917 62.3698 158.781 63.4219L158.289 62.75Z" fill="#474747"/>
<path d="M156.012 62.5391H154.793L154.555 64H153.781L154.02 62.5391H153.227L153.352 61.7734H154.148L154.344 60.5703H153.555L153.68 59.8047H154.473L154.711 58.3438H155.484L155.246 59.8047H156.465L156.703 58.3438H157.469L157.23 59.8047H158.031L157.898 60.5703H157.102L156.906 61.7734H157.703L157.578 62.5391H156.777L156.539 64H155.773L156.012 62.5391ZM156.141 61.7734L156.336 60.5703H155.117L154.922 61.7734H156.141Z" fill="#474747"/>
<path d="M128.566 121.844H122.113V121.133H124.895V119.758H122.824V116.102H123.691V117.258H126.965V116.102H127.832V119.758H125.754V121.133H128.566V121.844ZM126.965 119.055V117.953H123.691V119.055H126.965Z" fill="#474747"/>
<path d="M121.113 119.828H120.246V118.102H119.043V117.391H120.246V115.633H121.113V119.828ZM115.176 119.125C115.543 119 115.857 118.819 116.117 118.582C116.38 118.345 116.578 118.077 116.711 117.777C116.844 117.478 116.91 117.169 116.91 116.852V116.797H115.441V116.094H119.254V116.797H117.793V116.844C117.793 117.135 117.857 117.419 117.984 117.695C118.112 117.969 118.301 118.215 118.551 118.434C118.801 118.65 119.103 118.818 119.457 118.938L119.02 119.625C118.637 119.495 118.306 119.303 118.027 119.051C117.749 118.796 117.529 118.497 117.367 118.156C117.208 118.542 116.982 118.878 116.688 119.164C116.393 119.451 116.04 119.667 115.629 119.812L115.176 119.125ZM116.324 121.352C116.322 121.073 116.417 120.833 116.609 120.633C116.802 120.43 117.078 120.275 117.438 120.168C117.799 120.061 118.228 120.008 118.723 120.008C119.22 120.008 119.65 120.061 120.012 120.168C120.374 120.275 120.651 120.428 120.844 120.629C121.039 120.829 121.137 121.07 121.137 121.352C121.137 121.633 121.039 121.874 120.844 122.074C120.651 122.275 120.374 122.428 120.012 122.535C119.65 122.642 119.22 122.695 118.723 122.695C118.228 122.695 117.799 122.642 117.438 122.535C117.078 122.428 116.802 122.273 116.609 122.07C116.417 121.87 116.322 121.63 116.324 121.352ZM117.184 121.352C117.181 121.568 117.311 121.734 117.574 121.852C117.84 121.966 118.215 122.023 118.699 122.023C119.204 122.023 119.592 121.966 119.863 121.852C120.134 121.737 120.27 121.57 120.27 121.352C120.27 121.133 120.135 120.965 119.867 120.848C119.602 120.73 119.22 120.672 118.723 120.672C118.23 120.672 117.85 120.73 117.582 120.848C117.314 120.965 117.181 121.133 117.184 121.352Z" fill="#474747"/>
<path d="M114.723 119.992H108.27V119.305H111.059V118.781H109.098V115.82H113.949V116.492H109.965V116.977H113.777V117.617H109.965V118.117H114.004V118.781H111.926V119.305H114.723V119.992ZM109.035 121.531C109.035 121.286 109.13 121.078 109.32 120.906C109.513 120.734 109.793 120.604 110.16 120.516C110.527 120.427 110.973 120.383 111.496 120.383C112.012 120.383 112.452 120.427 112.816 120.516C113.181 120.604 113.46 120.734 113.652 120.906C113.845 121.078 113.941 121.286 113.941 121.531C113.939 121.906 113.725 122.193 113.301 122.391C112.879 122.589 112.277 122.688 111.496 122.688C110.704 122.688 110.096 122.589 109.672 122.391C109.247 122.195 109.035 121.909 109.035 121.531ZM109.902 121.531C109.902 121.703 110.034 121.831 110.297 121.914C110.562 121.997 110.962 122.039 111.496 122.039C112.02 122.039 112.413 121.997 112.676 121.914C112.939 121.831 113.072 121.703 113.074 121.531C113.066 121.198 112.54 121.031 111.496 121.031C110.434 121.031 109.902 121.198 109.902 121.531Z" fill="#474747"/>
<path d="M107.816 120.297H106.246V122.695H105.363V120.297H103.801V122.695H102.91V120.297H101.363V119.594H107.816V120.297ZM102.043 117.461C102.043 117.146 102.148 116.87 102.359 116.633C102.57 116.393 102.867 116.208 103.25 116.078C103.635 115.948 104.077 115.883 104.574 115.883C105.074 115.883 105.516 115.948 105.898 116.078C106.284 116.208 106.583 116.393 106.797 116.633C107.013 116.87 107.121 117.146 107.121 117.461C107.121 117.773 107.013 118.047 106.797 118.281C106.583 118.513 106.284 118.693 105.898 118.82C105.516 118.945 105.074 119.008 104.574 119.008C104.074 119.008 103.633 118.945 103.25 118.82C102.867 118.693 102.57 118.513 102.359 118.281C102.148 118.047 102.043 117.773 102.043 117.461ZM102.934 117.461C102.934 117.638 103 117.792 103.133 117.922C103.268 118.049 103.46 118.148 103.707 118.219C103.954 118.286 104.243 118.32 104.574 118.32C104.908 118.32 105.198 118.286 105.445 118.219C105.693 118.148 105.884 118.049 106.02 117.922C106.155 117.792 106.223 117.638 106.223 117.461C106.223 117.279 106.155 117.122 106.02 116.992C105.884 116.859 105.693 116.759 105.445 116.691C105.198 116.621 104.908 116.586 104.574 116.586C104.243 116.586 103.954 116.621 103.707 116.691C103.46 116.759 103.268 116.859 103.133 116.992C103 117.122 102.934 117.279 102.934 117.461Z" fill="#474747"/>
<path d="M99.0547 120.539H97.8359L97.5977 122H96.8242L97.0625 120.539H96.2695L96.3945 119.773H97.1914L97.3867 118.57H96.5977L96.7227 117.805H97.5156L97.7539 116.344H98.5273L98.2891 117.805H99.5078L99.7461 116.344H100.512L100.273 117.805H101.074L100.941 118.57H100.145L99.9492 119.773H100.746L100.621 120.539H99.8203L99.582 122H98.8164L99.0547 120.539ZM99.1836 119.773L99.3789 118.57H98.1602L97.9648 119.773H99.1836Z" fill="#474747"/>
<path d="M146.98 18.1205C146.98 28.1281 138.867 36.2411 128.86 36.2411C118.852 36.2411 110.739 28.1281 110.739 18.1205C110.739 8.11296 118.851 0 128.859 0C138.866 0 146.979 8.11296 146.979 18.1205H146.98Z" fill="#3268F6"/>
<path d="M121.211 16.5801C121.17 16.1092 121.541 15.7051 122.013 15.7051H123.953C124.398 15.7051 124.759 16.0657 124.759 16.5106V24.1612C124.759 24.6061 124.398 24.9667 123.953 24.9667H122.678C122.26 24.9667 121.912 24.6469 121.876 24.2315L121.21 16.5808L121.211 16.5801Z" fill="white"/>
<path d="M125.162 16.2584C125.162 15.9219 125.371 15.6209 125.675 15.477C126.339 15.1646 129.484 14.5344 129.994 13.6834C130.652 12.5869 130.775 10.6054 130.796 10.1511C130.798 10.0876 130.797 10.024 130.806 9.96111C130.915 9.17504 132.432 10.0936 133.015 11.0643C133.33 11.5915 133.371 12.2839 133.338 12.8238C133.302 13.4024 133.133 13.9611 132.966 14.5157L132.612 15.6978H136.178C136.712 15.6978 137.098 16.2082 136.954 16.722L135.596 24.3794C135.499 24.7266 135.182 24.9661 134.822 24.9661H125.968C125.523 24.9661 125.163 24.6055 125.163 24.1606V16.2577L125.162 16.2584Z" fill="white"/>
</g>
<defs>
<linearGradient id="paint0_linear_3618_16414" x1="53.6437" y1="123.775" x2="5.7299" y2="156.961" gradientUnits="userSpaceOnUse">
<stop stop-color="#42373B"/>
<stop offset="1" stop-color="#4E4347"/>
</linearGradient>
<linearGradient id="paint1_linear_3618_16414" x1="36.5754" y1="148.116" x2="44.7901" y2="144.009" gradientUnits="userSpaceOnUse">
<stop offset="0.4" stop-color="#F9CBCC"/>
<stop offset="1" stop-color="#FBD4D5"/>
</linearGradient>
<linearGradient id="paint2_linear_3618_16414" x1="171.996" y1="197.904" x2="152.861" y2="252.778" gradientUnits="userSpaceOnUse">
<stop stop-color="#FDC9CB"/>
<stop offset="1" stop-color="#FBD4D5"/>
</linearGradient>
<linearGradient id="paint3_linear_3618_16414" x1="230.012" y1="225.767" x2="222.757" y2="219.334" gradientUnits="userSpaceOnUse">
<stop offset="0.4" stop-color="#F9CBCC"/>
<stop offset="1" stop-color="#FBD4D5"/>
</linearGradient>
<linearGradient id="paint4_linear_3618_16414" x1="246.788" y1="61.0284" x2="238.738" y2="57.003" gradientUnits="userSpaceOnUse">
<stop offset="0.4" stop-color="#F9CBCC"/>
<stop offset="1" stop-color="#FBD4D5"/>
</linearGradient>
<clipPath id="clip0_3618_16414">
<rect width="294" height="290.806" fill="white"/>
</clipPath>
</defs>
</svg>
