<svg width="30" height="30" viewBox="0 0 30 30" fill="none" xmlns="http://www.w3.org/2000/svg">
<g clip-path="url(#clip0_2818_25806)">
<g clip-path="url(#clip1_2818_25806)">
<path d="M29.4161 15.3041C29.4161 23.3659 22.877 29.9012 14.8106 29.9012C6.7442 29.9012 0.205078 23.3659 0.205078 15.3041C0.205078 7.24236 6.7442 0.707031 14.8106 0.707031C22.877 0.707031 29.4161 7.24236 29.4161 15.3041Z" fill="#00C73C"/>
<path d="M20.0288 9.17188H9.30338C7.721 9.17188 6.44141 10.4542 6.44141 12.0322V17.5843C6.44141 19.1623 7.721 20.4446 9.30338 20.4446H13.3348L14.6661 23.0676L16.1727 20.4446H20.0288C21.6111 20.4446 22.8907 19.1623 22.8907 17.5843V12.0322C22.8907 10.4508 21.6076 9.17188 20.0288 9.17188Z" fill="white"/>
<path d="M9.99428 13.6164C9.70189 13.6164 9.4302 13.6955 9.19628 13.8364V12.3994H8.12305V16.7517H9.19628V16.5523C9.4302 16.6899 9.70189 16.7723 9.99428 16.7723C10.8646 16.7723 11.5732 16.0676 11.5732 15.1944C11.5732 14.3212 10.868 13.6164 9.99428 13.6164ZM9.87735 15.8338C9.52305 15.8338 9.23412 15.545 9.23412 15.191C9.23412 14.8369 9.52305 14.5481 9.87735 14.5481C10.2317 14.5481 10.5206 14.8369 10.5206 15.191C10.5206 15.545 10.235 15.8338 9.87735 15.8338Z" fill="#F57F1F"/>
<path d="M13.2802 13.4487C13.1701 13.0086 12.8503 12.3829 11.9043 12.3967V13.239C11.9043 13.239 12.3034 13.239 12.3034 13.8681V16.7696H13.3353V13.8612C13.3353 13.8303 13.3353 13.6584 13.2802 13.4452V13.4487Z" fill="#F57F1F"/>
<path d="M15.6722 13.5693C14.7504 13.5693 14.0039 14.3154 14.0039 15.2367C14.0039 16.158 14.7504 16.9006 15.6722 16.9006C16.5941 16.9006 17.3406 16.1546 17.3406 15.2367C17.3406 14.3188 16.5941 13.5693 15.6722 13.5693ZM15.6722 15.9209C15.2938 15.9209 14.9878 15.6149 14.9878 15.2367C14.9878 14.8586 15.2938 14.5526 15.6722 14.5526C16.0506 14.5526 16.3568 14.8586 16.3568 15.2367C16.3568 15.6149 16.0506 15.9209 15.6722 15.9209Z" fill="#F57F1F"/>
<path d="M21.2008 17.007V13.7685H20.2032V13.9026C19.9762 13.7685 19.7079 13.6895 19.4258 13.6895C18.5761 13.6895 17.8848 14.3805 17.8848 15.2296C17.8848 16.0788 18.5761 16.7698 19.4258 16.7698C19.7113 16.7698 19.9762 16.6907 20.2032 16.5566V17.0035C20.2032 17.533 19.2676 17.4229 19.2676 17.4229V18.2618C21.4175 18.2618 21.2008 17.0001 21.2008 17.0001V17.007ZM19.4258 15.8656C19.075 15.8656 18.7929 15.5803 18.7929 15.2331C18.7929 14.8858 19.0784 14.6005 19.4258 14.6005C19.7732 14.6005 20.0588 14.8858 20.0588 15.2331C20.0588 15.5803 19.7732 15.8656 19.4258 15.8656Z" fill="#F57F1F"/>
</g>
</g>
<defs>
<clipPath id="clip0_2818_25806">
<rect width="30" height="30" fill="white"/>
</clipPath>
<clipPath id="clip1_2818_25806">
<rect width="30" height="30" fill="white"/>
</clipPath>
</defs>
</svg>
