<svg width="154" height="53" viewBox="0 0 154 53" fill="none" xmlns="http://www.w3.org/2000/svg">
<path d="M21.7885 52.5626C12.3737 52.5626 3.09343 45.2325 3.09343 27.0082C3.09343 8.91831 12.6427 0.646749 22.999 0.646749C29.5893 0.646749 34.4312 3.40394 37.5919 6.63186L31.2705 13.693C29.6566 11.9445 26.5631 10.196 23.806 10.196C18.2916 10.196 13.9877 14.4327 13.9877 27.0082C13.9877 40.0544 17.7536 43.6185 21.5195 43.6185C24.6802 43.6185 27.3701 41.2648 27.3701 35.5487C27.3701 30.1016 24.6129 28.2859 21.3178 28.2859C18.8296 28.2859 16.0724 29.5636 14.0549 33.195L13.5169 25.4614C15.9379 21.8973 20.578 19.8798 23.6042 19.8798C31.943 19.8798 38.2644 24.7217 38.2644 35.5487C38.2644 46.174 30.7326 52.5626 21.7885 52.5626Z" fill="#FFB724"/>
<path d="M50.482 51.6211V47.5171L62.68 28.9731H51.66V23.3111H71.04V27.4151L58.842 45.9211H71.154V51.6211H50.482ZM86.1227 52.1531C78.4087 52.1531 73.1647 46.6051 73.1647 37.3331C73.1647 28.0611 78.4087 22.8171 86.1227 22.8171C93.8367 22.8171 99.0807 28.0991 99.0807 37.3331C99.0807 46.6051 93.8367 52.1531 86.1227 52.1531ZM86.1227 46.3011C89.8467 46.3011 92.1647 42.8051 92.1647 37.3331C92.1647 31.8611 89.8467 28.6311 86.1227 28.6311C82.3987 28.6311 80.1187 31.8611 80.1187 37.3331C80.1187 42.8051 82.3987 46.3011 86.1227 46.3011ZM104.141 51.6211V23.3111H111.057L118.087 36.8771L120.861 43.1471H121.051C120.709 40.1451 120.139 36.0791 120.139 32.6971V23.3111H126.599V51.6211H119.683L112.691 37.9791L109.917 31.7851H109.727C110.031 34.9391 110.601 38.8151 110.601 42.2351V51.6211H104.141ZM132.973 51.6211V23.3111H150.909V28.9731H139.775V34.2171H149.237V39.9171H139.775V45.9211H151.327V51.6211H132.973Z" fill="#FFB724"/>
</svg>
