<svg width="1110" height="462" viewBox="0 0 1110 462" fill="none" xmlns="http://www.w3.org/2000/svg">
<rect x="95.0508" y="20.1328" width="239.977" height="241.655" rx="119.988" fill="url(#paint0_linear_3192_83847)"/>
<rect x="95.0508" y="20.1328" width="239.977" height="241.655" rx="119.988" stroke="#E3E4FF" stroke-width="13.4253"/>
<path d="M153.961 138.84C153.951 140.413 154.216 141.96 154.758 143.48C155.299 144.991 156.107 146.355 157.18 147.574C158.253 148.783 159.555 149.704 161.086 150.34L158.93 153.465C157.305 152.777 155.909 151.772 154.742 150.449C153.576 149.116 152.659 147.559 151.992 145.777C151.326 147.704 150.398 149.402 149.211 150.871C148.034 152.329 146.628 153.434 144.992 154.184L142.711 151.027C144.232 150.35 145.529 149.366 146.602 148.074C147.685 146.783 148.497 145.335 149.039 143.73C149.591 142.116 149.867 140.486 149.867 138.84V137.09H143.836V133.84H159.898V137.09H153.961V138.84ZM162.711 131.09H166.742V159.527H162.711V131.09ZM194.805 159.527H190.836V152.309H175.273V149.184H194.805V159.527ZM171.211 139.559C171.201 138.246 171.518 137.064 172.164 136.012C172.82 134.949 173.721 134.121 174.867 133.527C176.013 132.923 177.294 132.621 178.711 132.621C179.867 132.621 180.94 132.819 181.93 133.215C182.919 133.611 183.758 134.173 184.445 134.902H190.836V131.09H194.805V147.902H190.836V144.309H184.445C183.758 145.048 182.924 145.621 181.945 146.027C180.966 146.434 179.909 146.642 178.773 146.652C177.346 146.652 176.055 146.35 174.898 145.746C173.742 145.132 172.836 144.288 172.18 143.215C171.523 142.132 171.201 140.913 171.211 139.559ZM174.992 139.559C174.992 140.319 175.148 140.98 175.461 141.543C175.784 142.095 176.232 142.517 176.805 142.809C177.378 143.1 178.034 143.246 178.773 143.246C179.471 143.246 180.102 143.1 180.664 142.809C181.227 142.517 181.669 142.095 181.992 141.543C182.326 140.98 182.492 140.319 182.492 139.559C182.492 138.84 182.326 138.21 181.992 137.668C181.669 137.116 181.227 136.694 180.664 136.402C180.102 136.111 179.471 135.965 178.773 135.965C178.034 135.965 177.378 136.111 176.805 136.402C176.232 136.694 175.784 137.111 175.461 137.652C175.148 138.194 174.992 138.829 174.992 139.559ZM190.836 141.121V138.121H186.117C186.221 138.548 186.273 139.027 186.273 139.559C186.273 140.079 186.216 140.6 186.102 141.121H190.836ZM229.117 137.809H232.742V141.121H229.117V147.84H225.117V131.09H229.117V137.809ZM206.055 144.777C209.013 144.777 211.315 144.762 212.961 144.73V143.48C211.378 143.283 210.143 142.866 209.258 142.23C208.383 141.595 207.951 140.777 207.961 139.777C207.961 139.017 208.237 138.366 208.789 137.824C209.352 137.272 210.154 136.85 211.195 136.559C212.237 136.267 213.456 136.121 214.852 136.121C216.268 136.121 217.503 136.267 218.555 136.559C219.617 136.84 220.44 137.257 221.023 137.809C221.607 138.361 221.898 139.017 221.898 139.777C221.888 140.767 221.445 141.579 220.57 142.215C219.695 142.85 218.482 143.267 216.93 143.465V144.59C219.471 144.454 221.763 144.257 223.805 143.996L224.086 146.465C221.409 146.913 218.654 147.204 215.82 147.34C212.997 147.465 209.878 147.527 206.461 147.527L206.055 144.777ZM206.805 132.871H212.961V130.84H216.93V132.871H223.086V135.527H206.805V132.871ZM209.836 148.84H229.117V155.215H213.867V156.684H230.055V159.34H209.867V152.809H225.117V151.496H209.836V148.84ZM211.773 139.777C211.763 140.204 212.029 140.527 212.57 140.746C213.112 140.965 213.898 141.079 214.93 141.09C215.94 141.079 216.716 140.965 217.258 140.746C217.799 140.527 218.076 140.204 218.086 139.777C218.076 138.986 217.023 138.59 214.93 138.59C212.815 138.59 211.763 138.986 211.773 139.777ZM245.023 134.965C245.013 136.277 245.237 137.507 245.695 138.652C246.164 139.798 246.883 140.809 247.852 141.684C248.831 142.559 250.055 143.225 251.523 143.684L249.43 146.809C247.93 146.288 246.648 145.559 245.586 144.621C244.534 143.673 243.701 142.543 243.086 141.23C242.44 142.762 241.534 144.079 240.367 145.184C239.201 146.288 237.784 147.121 236.117 147.684L234.023 144.496C235.586 143.996 236.888 143.272 237.93 142.324C238.971 141.366 239.737 140.277 240.227 139.059C240.727 137.829 240.982 136.527 240.992 135.152V132.559H245.023V134.965ZM238.742 154.027C238.742 152.871 239.133 151.876 239.914 151.043C240.706 150.21 241.836 149.579 243.305 149.152C244.773 148.715 246.513 148.496 248.523 148.496C250.544 148.496 252.289 148.715 253.758 149.152C255.227 149.579 256.357 150.21 257.148 151.043C257.94 151.876 258.336 152.871 258.336 154.027C258.336 155.184 257.94 156.173 257.148 156.996C256.357 157.829 255.227 158.46 253.758 158.887C252.289 159.314 250.544 159.527 248.523 159.527C246.503 159.527 244.758 159.314 243.289 158.887C241.831 158.46 240.706 157.829 239.914 156.996C239.133 156.173 238.742 155.184 238.742 154.027ZM242.711 154.027C242.711 154.819 243.206 155.418 244.195 155.824C245.195 156.23 246.638 156.434 248.523 156.434C250.419 156.434 251.862 156.23 252.852 155.824C253.852 155.418 254.357 154.819 254.367 154.027C254.357 153.215 253.857 152.605 252.867 152.199C251.878 151.793 250.43 151.59 248.523 151.59C246.628 151.59 245.185 151.798 244.195 152.215C243.206 152.621 242.711 153.225 242.711 154.027ZM248.93 136.309H254.273V131.09H258.242V147.746H254.273V139.559H248.93V136.309ZM284.93 142.652H288.648V145.965H284.93V159.527H280.898V131.09H284.93V142.652ZM261.836 151.496C264.836 151.496 267.18 151.475 268.867 151.434V148.996C267.867 148.798 266.992 148.46 266.242 147.98C265.492 147.501 264.914 146.908 264.508 146.199C264.102 145.491 263.898 144.704 263.898 143.84C263.898 142.798 264.19 141.871 264.773 141.059C265.367 140.246 266.195 139.616 267.258 139.168C268.32 138.72 269.534 138.496 270.898 138.496C272.242 138.496 273.44 138.72 274.492 139.168C275.555 139.616 276.383 140.246 276.977 141.059C277.581 141.871 277.888 142.798 277.898 143.84C277.888 144.704 277.674 145.496 277.258 146.215C276.841 146.923 276.253 147.517 275.492 147.996C274.742 148.475 273.867 148.809 272.867 148.996V151.293C275.398 151.158 277.607 150.954 279.492 150.684L279.742 153.59C277.242 154.048 274.654 154.355 271.977 154.512C269.299 154.668 266.477 154.746 263.508 154.746H262.367L261.836 151.496ZM262.398 134.246H268.867V131.246H272.867V134.246H279.273V137.371H262.398V134.246ZM267.68 143.84C267.669 144.579 267.951 145.152 268.523 145.559C269.107 145.954 269.898 146.152 270.898 146.152C271.867 146.152 272.633 145.954 273.195 145.559C273.768 145.152 274.055 144.579 274.055 143.84C274.055 143.121 273.768 142.559 273.195 142.152C272.622 141.746 271.857 141.538 270.898 141.527C269.909 141.538 269.122 141.746 268.539 142.152C267.956 142.559 267.669 143.121 267.68 143.84Z" fill="white"/>
<path d="M366.404 158.617H351.027L368.113 140.962L351.027 123.308H366.404L383.489 140.962L366.404 158.617Z" fill="url(#paint1_linear_3192_83847)"/>
<circle cx="519.988" cy="140.961" r="120.5" fill="#EDF4FF"/>
<circle cx="519.988" cy="140.961" r="97.5" fill="white"/>
<path d="M459.41 134.648C459.4 136.221 459.665 137.768 460.207 139.289C460.749 140.799 461.556 142.164 462.629 143.383C463.702 144.591 465.004 145.513 466.535 146.148L464.379 149.273C462.754 148.586 461.358 147.581 460.191 146.258C459.025 144.924 458.108 143.367 457.441 141.586C456.775 143.513 455.848 145.211 454.66 146.68C453.483 148.138 452.077 149.242 450.441 149.992L448.16 146.836C449.681 146.159 450.978 145.174 452.051 143.883C453.134 142.591 453.947 141.143 454.488 139.539C455.04 137.924 455.316 136.294 455.316 134.648V132.898H449.285V129.648H465.348V132.898H459.41V134.648ZM468.16 126.898H472.191V155.336H468.16V126.898ZM500.254 155.336H496.285V148.117H480.723V144.992H500.254V155.336ZM476.66 135.367C476.65 134.055 476.967 132.872 477.613 131.82C478.27 130.758 479.171 129.93 480.316 129.336C481.462 128.732 482.743 128.43 484.16 128.43C485.316 128.43 486.389 128.628 487.379 129.023C488.368 129.419 489.207 129.982 489.895 130.711H496.285V126.898H500.254V143.711H496.285V140.117H489.895C489.207 140.857 488.374 141.43 487.395 141.836C486.415 142.242 485.358 142.451 484.223 142.461C482.796 142.461 481.504 142.159 480.348 141.555C479.191 140.94 478.285 140.096 477.629 139.023C476.973 137.94 476.65 136.721 476.66 135.367ZM480.441 135.367C480.441 136.128 480.598 136.789 480.91 137.352C481.233 137.904 481.681 138.326 482.254 138.617C482.827 138.909 483.483 139.055 484.223 139.055C484.921 139.055 485.551 138.909 486.113 138.617C486.676 138.326 487.118 137.904 487.441 137.352C487.775 136.789 487.941 136.128 487.941 135.367C487.941 134.648 487.775 134.018 487.441 133.477C487.118 132.924 486.676 132.503 486.113 132.211C485.551 131.919 484.921 131.773 484.223 131.773C483.483 131.773 482.827 131.919 482.254 132.211C481.681 132.503 481.233 132.919 480.91 133.461C480.598 134.003 480.441 134.638 480.441 135.367ZM496.285 136.93V133.93H491.566C491.671 134.357 491.723 134.836 491.723 135.367C491.723 135.888 491.665 136.409 491.551 136.93H496.285ZM535.785 143.555H531.816V139.93H526.504V141.992H513.004V128.992H526.504V131.055H531.816V126.898H535.785V143.555ZM516.285 149.836C516.285 148.68 516.676 147.685 517.457 146.852C518.249 146.018 519.379 145.388 520.848 144.961C522.316 144.523 524.056 144.305 526.066 144.305C528.087 144.305 529.832 144.523 531.301 144.961C532.77 145.388 533.9 146.018 534.691 146.852C535.483 147.685 535.879 148.68 535.879 149.836C535.879 150.992 535.483 151.982 534.691 152.805C533.9 153.638 532.77 154.268 531.301 154.695C529.832 155.122 528.087 155.336 526.066 155.336C524.046 155.336 522.301 155.122 520.832 154.695C519.374 154.268 518.249 153.638 517.457 152.805C516.676 151.982 516.285 150.992 516.285 149.836ZM522.598 138.836V132.148H516.973V138.836H522.598ZM520.254 149.836C520.254 150.648 520.749 151.263 521.738 151.68C522.738 152.096 524.181 152.305 526.066 152.305C527.962 152.305 529.405 152.096 530.395 151.68C531.395 151.263 531.9 150.648 531.91 149.836C531.9 149.003 531.4 148.378 530.41 147.961C529.421 147.544 527.973 147.336 526.066 147.336C524.16 147.336 522.712 147.544 521.723 147.961C520.743 148.378 520.254 149.003 520.254 149.836ZM531.816 136.711V134.211H526.504V136.711H531.816ZM565.754 151.93H539.723V148.742H550.598V142.305H554.566V148.742H565.754V151.93ZM540.348 139.898C542.41 139.576 544.202 138.935 545.723 137.977C547.254 137.018 548.421 135.883 549.223 134.57C550.025 133.258 550.431 131.919 550.441 130.555V128.523H554.691V130.555C554.681 131.93 555.077 133.273 555.879 134.586C556.691 135.898 557.868 137.034 559.41 137.992C560.952 138.94 562.764 139.576 564.848 139.898L563.16 143.211C560.702 142.763 558.561 141.914 556.738 140.664C554.915 139.414 553.525 137.888 552.566 136.086C551.618 137.888 550.233 139.419 548.41 140.68C546.598 141.93 544.473 142.773 542.035 143.211L540.348 139.898ZM590.379 138.461H594.098V141.773H590.379V155.336H586.348V126.898H590.379V138.461ZM567.285 147.305C570.285 147.305 572.629 147.284 574.316 147.242V144.805C573.316 144.607 572.441 144.268 571.691 143.789C570.941 143.31 570.363 142.716 569.957 142.008C569.551 141.299 569.348 140.513 569.348 139.648C569.348 138.607 569.639 137.68 570.223 136.867C570.816 136.055 571.645 135.424 572.707 134.977C573.77 134.529 574.983 134.305 576.348 134.305C577.691 134.305 578.889 134.529 579.941 134.977C581.004 135.424 581.832 136.055 582.426 136.867C583.03 137.68 583.337 138.607 583.348 139.648C583.337 140.513 583.124 141.305 582.707 142.023C582.29 142.732 581.702 143.326 580.941 143.805C580.191 144.284 579.316 144.617 578.316 144.805V147.102C580.848 146.966 583.056 146.763 584.941 146.492L585.191 149.398C582.691 149.857 580.103 150.164 577.426 150.32C574.749 150.477 571.926 150.555 568.957 150.555H567.816L567.285 147.305ZM567.848 130.055H574.316V127.055H578.316V130.055H584.723V133.18H567.848V130.055ZM573.129 139.648C573.118 140.388 573.4 140.961 573.973 141.367C574.556 141.763 575.348 141.961 576.348 141.961C577.316 141.961 578.082 141.763 578.645 141.367C579.217 140.961 579.504 140.388 579.504 139.648C579.504 138.93 579.217 138.367 578.645 137.961C578.072 137.555 577.306 137.346 576.348 137.336C575.358 137.346 574.572 137.555 573.988 137.961C573.405 138.367 573.118 138.93 573.129 139.648Z" fill="#04329A"/>
<path d="M671.865 158.617H656.488L673.573 140.962L656.488 123.308H671.865L688.95 140.962L671.865 158.617Z" fill="url(#paint2_linear_3192_83847)"/>
<rect x="706.094" y="2.64453" width="296" height="62" rx="12.5" fill="#EDF4FF"/>
<path d="M752.073 27.9922C752.067 28.9941 752.217 29.9609 752.521 30.8926C752.826 31.8242 753.283 32.6533 753.893 33.3799C754.502 34.1064 755.243 34.6543 756.116 35.0234L754.798 36.8164C753.907 36.4121 753.14 35.832 752.495 35.0762C751.856 34.3203 751.35 33.4326 750.975 32.4131C750.605 33.5264 750.087 34.4961 749.419 35.3223C748.751 36.1426 747.942 36.7695 746.993 37.2031L745.64 35.3398C746.542 34.959 747.304 34.3936 747.925 33.6436C748.552 32.8877 749.021 32.0234 749.331 31.0508C749.642 30.0723 749.8 29.0527 749.806 27.9922V25.6016H752.073V27.9922ZM756.978 24.3711H759.245V40.4023H756.978V24.3711ZM770.038 33.3711H762.216V25.6543H770.038V33.3711ZM764.079 34.707H766.347V38.2051H775.224V40.0156H764.079V34.707ZM767.806 31.5957V27.4297H764.431V31.5957H767.806ZM772.552 24.3887H774.802V35.7617H772.552V24.3887ZM791.589 32.3691H776.964V30.6113H791.589V32.3691ZM778.651 33.3184H789.778V37.502H780.866V38.4863H790.2V40.2266H778.669V35.9023H787.563V35.0059H778.651V33.3184ZM778.792 24.6875H789.726V26.4805H781.024V27.9746H789.849V29.7324H778.792V24.6875ZM806.39 40.3672H804.245V24.3711H806.39V40.3672ZM792.661 31.2969C792.661 30.1191 792.802 29.0938 793.083 28.2207C793.37 27.3477 793.774 26.6797 794.296 26.2168C794.823 25.748 795.438 25.5137 796.142 25.5137C796.78 25.5137 797.346 25.7041 797.838 26.085C798.336 26.4658 798.737 27.0166 799.042 27.7373C799.353 28.4521 799.549 29.3047 799.631 30.2949H800.94V24.5996H803.05V39.6289H800.94V32.0703H799.648C799.584 33.1074 799.399 34.0068 799.095 34.7686C798.79 35.5244 798.383 36.1045 797.873 36.5088C797.369 36.9131 796.792 37.1152 796.142 37.1152C795.438 37.1152 794.823 36.8809 794.296 36.4121C793.774 35.9375 793.37 35.2637 793.083 34.3906C792.802 33.5117 792.661 32.4805 792.661 31.2969ZM794.735 31.2969C794.729 32.5098 794.847 33.4268 795.087 34.0479C795.333 34.6631 795.685 34.9648 796.142 34.9531C796.604 34.9648 796.962 34.666 797.214 34.0566C797.472 33.4473 797.601 32.5479 797.601 31.3584C797.601 30.1221 797.475 29.1904 797.223 28.5635C796.971 27.9365 796.61 27.623 796.142 27.623C795.685 27.623 795.333 27.9336 795.087 28.5547C794.847 29.1758 794.729 30.0898 794.735 31.2969ZM821.946 40.3672H819.837V24.3711H821.946V40.3672ZM807.884 35.4629C809.472 34.5195 810.655 33.4531 811.435 32.2637C812.22 31.0742 812.691 29.6797 812.85 28.0801H808.763V26.2695H815.073C815.073 27.8574 814.889 29.2812 814.52 30.541H816.444V24.7227H818.536V39.6641H816.444V32.3164H813.825C813.356 33.2539 812.738 34.1152 811.971 34.9004C811.203 35.6855 810.263 36.4004 809.149 37.0449L807.884 35.4629ZM943.007 40.3672H940.88V24.3711H943.007V40.3672ZM928.839 35.6914C929.946 35.0117 930.761 34.042 931.282 32.7822C931.81 31.5166 932.073 30.1426 932.073 28.6602V27.7988H929.454V26.0059H936.661V27.7988H934.235V28.6602C934.229 30.1074 934.479 31.4258 934.982 32.6152C935.492 33.8047 936.298 34.7129 937.399 35.3398L936.081 36.9922C934.733 36.1953 933.764 34.8652 933.172 33.002C932.891 33.9746 932.501 34.833 932.003 35.5771C931.505 36.3213 930.901 36.9102 930.192 37.3438L928.839 35.6914ZM935.519 29.8555H937.628V24.6348H939.737V39.6289H937.628V31.666H935.519V29.8555ZM951.937 34.3379C953.103 34.3379 954.113 34.458 954.969 34.6982C955.824 34.9326 956.483 35.2783 956.946 35.7354C957.409 36.1865 957.644 36.7285 957.649 37.3613C957.644 37.9824 957.409 38.5186 956.946 38.9697C956.483 39.4268 955.821 39.7725 954.96 40.0068C954.104 40.2471 953.097 40.3672 951.937 40.3672C950.782 40.3672 949.774 40.2471 948.913 40.0068C948.058 39.7725 947.398 39.4268 946.936 38.9697C946.473 38.5186 946.241 37.9824 946.241 37.3613C946.241 36.7285 946.473 36.1865 946.936 35.7354C947.398 35.2783 948.058 34.9326 948.913 34.6982C949.774 34.458 950.782 34.3379 951.937 34.3379ZM944.765 31.5078H950.214V28.7129H952.429V31.5078H959.284V33.3184H944.765V31.5078ZM946.399 25.0918H957.562V26.3926V26.8584C957.562 27.5615 957.532 28.2119 957.474 28.8096C957.415 29.4072 957.292 30.0312 957.104 30.6816L954.907 30.4707C955.071 29.8145 955.18 29.2168 955.232 28.6777C955.285 28.1328 955.317 27.5234 955.329 26.8496H946.399V25.0918ZM948.474 37.3613C948.468 37.7891 948.764 38.1143 949.361 38.3369C949.965 38.5537 950.823 38.6621 951.937 38.6621C953.05 38.6621 953.908 38.5537 954.512 38.3369C955.115 38.1143 955.417 37.7891 955.417 37.3613C955.417 36.9219 955.118 36.5879 954.521 36.3594C953.929 36.125 953.088 36.0078 951.998 36.0078C950.861 36.0078 949.988 36.1221 949.379 36.3506C948.77 36.5791 948.468 36.916 948.474 37.3613Z" fill="#0F172A"/>
<path d="M842.319 34.2148H827.606V32.1934H833.653V31.0156H829.47V24.7051H831.948V26.0586H837.942V24.7051H840.438V31.0156H836.202V32.1934H842.319V34.2148ZM829.241 35.1641H840.544V40.4375H838.013V37.1504H829.241V35.1641ZM837.942 29.0293V27.9043H831.948V29.0293H837.942ZM856.013 28.1152H858.104V30.207H856.013V33.7754H853.481V24.3008H856.013V28.1152ZM843.146 25.6367H846.661V24.2129H849.192V25.6367H852.708V27.623H843.146V25.6367ZM843.901 30.8398C843.901 30.2773 844.068 29.7793 844.402 29.3457C844.742 28.9121 845.217 28.5752 845.826 28.335C846.441 28.0947 847.142 27.9746 847.927 27.9746C848.706 27.9746 849.397 28.0947 850.001 28.335C850.61 28.5752 851.085 28.9121 851.425 29.3457C851.765 29.7793 851.935 30.2773 851.935 30.8398C851.935 31.4023 851.765 31.9004 851.425 32.334C851.085 32.7676 850.61 33.1016 850.001 33.3359C849.397 33.5703 848.706 33.6875 847.927 33.6875C847.142 33.6875 846.441 33.5703 845.826 33.3359C845.217 33.1016 844.742 32.7676 844.402 32.334C844.068 31.9004 843.901 31.4023 843.901 30.8398ZM845.343 34.3555H847.856V35.4453H853.481V34.3555H856.013V40.2617H845.343V34.3555ZM846.362 30.8398C846.362 31.1738 846.497 31.4287 846.767 31.6045C847.042 31.7744 847.417 31.8594 847.892 31.8594C848.396 31.8594 848.791 31.7744 849.078 31.6045C849.371 31.4346 849.521 31.1797 849.526 30.8398C849.521 30.5176 849.377 30.2686 849.096 30.0928C848.814 29.9111 848.437 29.8203 847.962 29.8203C847.47 29.8203 847.08 29.9082 846.793 30.084C846.506 30.2598 846.362 30.5117 846.362 30.8398ZM853.481 38.293V37.3613H847.856V38.293H853.481ZM877.476 34.1797H871.569V36.7988H869.073V34.1797H862.728V32.1758H877.476V34.1797ZM864.397 35.4629H866.929V38.1523H875.858V40.1738H864.397V35.4629ZM864.538 24.9863H875.595V31.0332H864.538V24.9863ZM873.116 29.082V26.9375H867.017V29.082H873.116ZM891.327 30.7695H893.278V32.8438H891.327V40.4375H888.761V24.3008H891.327V30.7695ZM878.126 35.7969C879.749 35.7969 881.021 35.7881 881.94 35.7705V34.5049C881.39 34.3877 880.906 34.1914 880.49 33.916C880.08 33.6406 879.764 33.3037 879.541 32.9053C879.324 32.5068 879.216 32.0703 879.216 31.5957C879.216 31.0039 879.383 30.4766 879.717 30.0137C880.057 29.5508 880.531 29.1934 881.141 28.9414C881.75 28.6836 882.444 28.5547 883.224 28.5547C883.991 28.5547 884.68 28.6836 885.289 28.9414C885.898 29.1992 886.373 29.5596 886.713 30.0225C887.059 30.4795 887.231 31.0039 887.231 31.5957C887.231 32.0762 887.117 32.5156 886.889 32.9141C886.66 33.3125 886.338 33.6494 885.922 33.9248C885.506 34.2002 885.022 34.3965 884.472 34.5137V35.6826C885.872 35.6006 887.056 35.4922 888.022 35.3574L888.198 37.1855C886.692 37.4727 885.16 37.6572 883.602 37.7393C882.049 37.8154 880.329 37.8535 878.442 37.8535L878.126 35.7969ZM878.425 26.041H881.94V24.4062H884.472V26.041H887.952V28.0273H878.425V26.041ZM881.624 31.5957C881.618 31.9648 881.759 32.2461 882.046 32.4395C882.333 32.6328 882.726 32.7324 883.224 32.7383C883.716 32.7324 884.103 32.6328 884.384 32.4395C884.671 32.2461 884.812 31.9648 884.806 31.5957C884.812 31.2324 884.671 30.9541 884.384 30.7607C884.097 30.5674 883.71 30.4707 883.224 30.4707C882.726 30.4707 882.333 30.5674 882.046 30.7607C881.759 30.9541 881.618 31.2324 881.624 31.5957ZM901.118 34.3027C902.296 34.3027 903.318 34.4258 904.186 34.6719C905.053 34.9121 905.721 35.2637 906.189 35.7266C906.658 36.1836 906.896 36.7344 906.901 37.3789C906.896 38.0117 906.658 38.5596 906.189 39.0225C905.721 39.4854 905.05 39.8369 904.177 40.0771C903.31 40.3232 902.29 40.4434 901.118 40.4375C899.952 40.4434 898.933 40.3232 898.06 40.0771C897.192 39.8369 896.521 39.4854 896.047 39.0225C895.572 38.5596 895.335 38.0117 895.335 37.3789C895.335 36.7344 895.569 36.1836 896.038 35.7266C896.513 35.2637 897.184 34.9121 898.051 34.6719C898.924 34.4258 899.946 34.3027 901.118 34.3027ZM893.911 31.4023H899.202V28.6602H901.698V31.4023H908.536V33.4414H893.911V31.4023ZM895.528 25.0039H906.831V26.3047V26.7705C906.831 27.4795 906.802 28.1357 906.743 28.7393C906.685 29.3428 906.562 29.9727 906.374 30.6289L903.878 30.4004C904.036 29.7734 904.142 29.1963 904.194 28.6689C904.253 28.1357 904.285 27.5703 904.291 26.9727H895.528V25.0039ZM897.866 37.3789C897.86 37.7715 898.13 38.0615 898.675 38.249C899.226 38.4365 900.04 38.5332 901.118 38.5391C903.298 38.5273 904.388 38.1406 904.388 37.3789C904.388 36.9805 904.112 36.6816 903.562 36.4824C903.017 36.2832 902.226 36.1836 901.188 36.1836C898.968 36.1836 897.86 36.582 897.866 37.3789ZM922.265 28.6953H924.356V30.7695H922.265V35.7793H919.698V24.3008H922.265V28.6953ZM909.274 32.3164C910.991 31.8535 912.336 31.209 913.309 30.3828C914.287 29.5566 914.87 28.6133 915.058 27.5527H909.978V25.4961H917.853C917.853 27.7051 917.208 29.5596 915.919 31.0596C914.636 32.5537 912.767 33.6348 910.312 34.3027L909.274 32.3164ZM911.647 34.6016H914.214V38.1523H922.757V40.1738H911.647V34.6016Z" fill="#2F5BC1"/>
<path d="M836.793 92.3767L836.793 77L854.448 94.0852L872.102 77L872.102 92.3767L854.448 109.462L836.793 92.3767Z" fill="url(#paint3_linear_3192_83847)"/>
<rect x="704.949" y="119.461" width="299" height="55" rx="12.5" fill="#EDF4FF"/>
<path d="M770.127 152.662H755.484V150.869H761.602V147.248H763.834V150.869H770.127V152.662ZM755.836 145.895C756.996 145.713 758.004 145.353 758.859 144.813C759.721 144.274 760.377 143.636 760.828 142.897C761.279 142.159 761.508 141.406 761.514 140.639V139.496H763.904V140.639C763.898 141.412 764.121 142.168 764.572 142.906C765.029 143.645 765.691 144.283 766.559 144.822C767.426 145.355 768.445 145.713 769.617 145.895L768.668 147.758C767.285 147.506 766.081 147.028 765.056 146.325C764.03 145.622 763.248 144.764 762.709 143.75C762.176 144.764 761.396 145.625 760.371 146.334C759.352 147.037 758.156 147.512 756.785 147.758L755.836 145.895ZM776.877 141.096C776.871 141.764 777 142.399 777.264 143.003C777.533 143.601 777.94 144.134 778.485 144.603C779.036 145.071 779.719 145.432 780.533 145.684L779.338 147.424C778.506 147.148 777.791 146.75 777.193 146.229C776.596 145.707 776.121 145.089 775.77 144.374C775.412 145.2 774.917 145.915 774.284 146.519C773.657 147.116 772.898 147.564 772.008 147.863L770.795 146.105C771.656 145.818 772.371 145.408 772.939 144.875C773.508 144.342 773.93 143.735 774.205 143.056C774.48 142.37 774.621 141.646 774.627 140.885V139.426H776.877V141.096ZM773.01 151.484C773.01 150.846 773.229 150.295 773.669 149.832C774.114 149.363 774.75 149.006 775.576 148.76C776.402 148.514 777.375 148.391 778.494 148.391C779.596 148.391 780.551 148.514 781.359 148.76C782.168 149.006 782.792 149.363 783.231 149.832C783.671 150.295 783.891 150.846 783.891 151.484C783.891 152.129 783.671 152.683 783.231 153.146C782.792 153.614 782.168 153.969 781.359 154.209C780.551 154.455 779.596 154.578 778.494 154.578C777.375 154.578 776.402 154.455 775.576 154.209C774.75 153.969 774.114 153.614 773.669 153.146C773.229 152.683 773.01 152.129 773.01 151.484ZM775.26 151.484C775.254 151.93 775.523 152.264 776.068 152.486C776.619 152.709 777.428 152.82 778.494 152.82C780.615 152.82 781.676 152.375 781.676 151.484C781.676 151.051 781.403 150.72 780.858 150.491C780.319 150.263 779.531 150.148 778.494 150.148C777.439 150.148 776.634 150.263 776.077 150.491C775.526 150.72 775.254 151.051 775.26 151.484ZM781.482 138.582H783.732V142.326H785.895V144.189H783.732V148.074H781.482V138.582ZM793.805 148.549C794.971 148.549 795.981 148.669 796.837 148.909C797.692 149.144 798.352 149.489 798.814 149.946C799.277 150.397 799.512 150.939 799.518 151.572C799.512 152.193 799.277 152.729 798.814 153.181C798.352 153.638 797.689 153.983 796.828 154.218C795.973 154.458 794.965 154.578 793.805 154.578C792.65 154.578 791.643 154.458 790.781 154.218C789.926 153.983 789.267 153.638 788.804 153.181C788.341 152.729 788.109 152.193 788.109 151.572C788.109 150.939 788.341 150.397 788.804 149.946C789.267 149.489 789.926 149.144 790.781 148.909C791.643 148.669 792.65 148.549 793.805 148.549ZM786.633 145.719H792.082V142.924H794.297V145.719H801.152V147.529H786.633V145.719ZM788.268 139.303H799.43V140.604V141.069C799.43 141.772 799.4 142.423 799.342 143.021C799.283 143.618 799.16 144.242 798.973 144.893L796.775 144.682C796.939 144.025 797.048 143.428 797.101 142.889C797.153 142.344 797.186 141.734 797.197 141.061H788.268V139.303ZM790.342 151.572C790.336 152 790.632 152.325 791.229 152.548C791.833 152.765 792.691 152.873 793.805 152.873C794.918 152.873 795.776 152.765 796.38 152.548C796.983 152.325 797.285 152 797.285 151.572C797.285 151.133 796.986 150.799 796.389 150.57C795.797 150.336 794.956 150.219 793.866 150.219C792.729 150.219 791.856 150.333 791.247 150.562C790.638 150.79 790.336 151.127 790.342 151.572ZM815.549 150.096H813.299V138.6H815.549V150.096ZM802.4 143.645C802.4 142.877 802.594 142.186 802.98 141.57C803.367 140.955 803.892 140.478 804.554 140.138C805.222 139.792 805.963 139.619 806.777 139.619C807.586 139.619 808.324 139.792 808.992 140.138C809.66 140.478 810.188 140.955 810.574 141.57C810.961 142.186 811.154 142.877 811.154 143.645C811.154 144.424 810.961 145.124 810.574 145.745C810.188 146.36 809.66 146.841 808.992 147.187C808.324 147.532 807.586 147.705 806.777 147.705C805.963 147.705 805.222 147.532 804.554 147.187C803.886 146.841 803.358 146.36 802.972 145.745C802.591 145.124 802.4 144.424 802.4 143.645ZM804.598 143.645C804.592 144.078 804.683 144.456 804.87 144.778C805.058 145.095 805.315 145.338 805.644 145.508C805.978 145.672 806.355 145.754 806.777 145.754C807.188 145.754 807.554 145.672 807.876 145.508C808.204 145.338 808.462 145.095 808.649 144.778C808.843 144.456 808.939 144.078 808.939 143.645C808.939 143.223 808.843 142.854 808.649 142.537C808.462 142.221 808.204 141.98 807.876 141.816C807.548 141.646 807.182 141.564 806.777 141.57C806.355 141.564 805.978 141.646 805.644 141.816C805.315 141.98 805.058 142.221 804.87 142.537C804.683 142.854 804.592 143.223 804.598 143.645ZM804.826 148.936H807.094V152.504H815.971V154.297H804.826V148.936ZM832.336 146.58H817.711V144.822H832.336V146.58ZM819.398 147.529H830.525V151.713H821.613V152.697H830.947V154.438H819.416V150.113H828.311V149.217H819.398V147.529ZM819.539 138.898H830.473V140.691H821.771V142.186H830.596V143.943H819.539V138.898ZM838.453 139.654C839.291 139.654 840.047 139.821 840.721 140.155C841.395 140.489 841.922 140.955 842.303 141.553C842.689 142.145 842.883 142.818 842.883 143.574C842.883 144.33 842.689 145.007 842.303 145.604C841.922 146.202 841.395 146.671 840.721 147.011C840.047 147.345 839.291 147.512 838.453 147.512C837.621 147.512 836.865 147.345 836.186 147.011C835.506 146.671 834.973 146.202 834.586 145.604C834.199 145.007 834.006 144.33 834.006 143.574C834.006 142.824 834.199 142.15 834.586 141.553C834.973 140.955 835.506 140.489 836.186 140.155C836.865 139.821 837.621 139.654 838.453 139.654ZM833.997 149.516C835.755 149.516 837.434 149.48 839.033 149.41C840.639 149.34 842.15 149.205 843.568 149.006L843.744 150.623C842.174 150.928 840.577 151.124 838.954 151.212C837.337 151.3 835.553 151.344 833.602 151.344L833.338 149.516H833.997ZM836.238 143.574C836.238 143.984 836.332 144.342 836.52 144.646C836.713 144.945 836.977 145.174 837.311 145.332C837.65 145.49 838.031 145.566 838.453 145.561C838.881 145.566 839.265 145.49 839.604 145.332C839.944 145.174 840.211 144.945 840.404 144.646C840.604 144.342 840.703 143.984 840.703 143.574C840.703 143.17 840.604 142.818 840.404 142.52C840.211 142.215 839.944 141.983 839.604 141.825C839.265 141.667 838.881 141.588 838.453 141.588C838.031 141.588 837.65 141.667 837.311 141.825C836.977 141.983 836.713 142.215 836.52 142.52C836.332 142.818 836.238 143.17 836.238 143.574ZM844.482 138.582H846.715V154.613H844.482V138.582ZM937.893 152.715H923.25V150.887H929.42V147.934H924.797V139.602H927.047V142.08H934.025V139.602H936.258V147.934H931.652V150.887H937.893V152.715ZM934.025 146.141V143.873H927.047V146.141H934.025ZM947.895 141.447H944.713C944.719 142.086 944.854 142.695 945.117 143.275C945.387 143.855 945.797 144.371 946.348 144.822C946.898 145.273 947.584 145.619 948.404 145.859L947.332 147.617C946.471 147.354 945.729 146.967 945.108 146.457C944.487 145.947 943.995 145.341 943.632 144.638C943.263 145.464 942.747 146.182 942.085 146.791C941.429 147.395 940.635 147.852 939.703 148.162L938.561 146.387C939.41 146.117 940.125 145.728 940.705 145.218C941.285 144.708 941.716 144.128 941.997 143.478C942.284 142.827 942.434 142.15 942.445 141.447H939.176V139.654H947.895V141.447ZM940.775 151.467C940.775 150.822 940.995 150.269 941.435 149.806C941.874 149.343 942.507 148.991 943.333 148.751C944.159 148.511 945.135 148.391 946.26 148.391C947.367 148.391 948.325 148.511 949.134 148.751C949.942 148.991 950.563 149.343 950.997 149.806C951.437 150.269 951.656 150.822 951.656 151.467C951.656 152.117 951.437 152.674 950.997 153.137C950.563 153.605 949.942 153.963 949.134 154.209C948.325 154.455 947.367 154.578 946.26 154.578C945.135 154.578 944.159 154.455 943.333 154.209C942.513 153.963 941.88 153.605 941.435 153.137C940.995 152.668 940.775 152.111 940.775 151.467ZM943.025 151.467C943.02 151.918 943.292 152.261 943.843 152.495C944.394 152.724 945.199 152.838 946.26 152.838C947.303 152.838 948.094 152.724 948.633 152.495C949.172 152.267 949.441 151.924 949.441 151.467C949.441 151.027 949.175 150.696 948.642 150.474C948.114 150.245 947.341 150.131 946.321 150.131C945.237 150.131 944.414 150.242 943.852 150.465C943.295 150.688 943.02 151.021 943.025 151.467ZM949.248 138.582H951.498V142.291H953.66V144.119H951.498V148.074H949.248V138.582Z" fill="#0F172A"/>
<path d="M858.879 140.059C858.867 141.137 859.151 142.083 859.731 142.897C860.312 143.706 861.24 144.301 862.518 144.682L861.182 146.633C860.35 146.375 859.638 146 859.046 145.508C858.46 145.016 857.991 144.427 857.64 143.741C857.265 144.532 856.755 145.212 856.11 145.78C855.466 146.349 854.684 146.779 853.764 147.072L852.463 145.051C853.359 144.787 854.095 144.403 854.669 143.899C855.243 143.396 855.659 142.821 855.917 142.177C856.181 141.532 856.312 140.855 856.312 140.146V139.127H858.879V140.059ZM853.992 147.652H859.389V151.906H856.488V152.68C857.15 152.668 857.713 152.645 858.176 152.609C858.645 152.574 859.119 152.51 859.6 152.416L859.811 154.279C859.166 154.408 858.521 154.49 857.877 154.525C857.232 154.561 856.283 154.578 855.029 154.578H854.01V150.148H856.945V149.48H853.992V147.652ZM860.18 147.652H865.646V154.578H860.18V147.652ZM863.484 152.75V149.48H862.359V152.75H863.484ZM863.115 138.512H865.646V141.623H867.738V143.662H865.646V147.055H863.115V138.512ZM873.557 139.566C874.4 139.566 875.165 139.739 875.851 140.085C876.536 140.425 877.075 140.899 877.468 141.509C877.866 142.118 878.068 142.807 878.074 143.574C878.068 144.342 877.866 145.033 877.468 145.648C877.075 146.258 876.536 146.732 875.851 147.072C875.165 147.412 874.4 147.582 873.557 147.582C872.719 147.582 871.954 147.412 871.263 147.072C870.577 146.732 870.035 146.258 869.637 145.648C869.238 145.033 869.039 144.342 869.039 143.574C869.039 142.807 869.238 142.118 869.637 141.509C870.035 140.899 870.577 140.425 871.263 140.085C871.954 139.739 872.719 139.566 873.557 139.566ZM869.013 149.428C872.956 149.428 876.158 149.258 878.619 148.918L878.812 150.746C877.248 151.051 875.651 151.247 874.022 151.335C872.399 151.423 870.627 151.467 868.705 151.467L868.424 149.428H869.013ZM871.553 143.574C871.553 143.961 871.638 144.292 871.808 144.567C871.983 144.843 872.221 145.051 872.52 145.191C872.818 145.332 873.155 145.402 873.53 145.402C874.134 145.402 874.629 145.244 875.016 144.928C875.408 144.611 875.607 144.16 875.613 143.574C875.607 143.193 875.514 142.865 875.332 142.59C875.156 142.314 874.913 142.106 874.603 141.966C874.298 141.819 873.949 141.746 873.557 141.746C873.176 141.746 872.833 141.819 872.528 141.966C872.224 142.106 871.983 142.314 871.808 142.59C871.638 142.865 871.553 143.193 871.553 143.574ZM879.48 138.512H881.994V154.684H879.48V138.512ZM901.611 154.684H899.115V146.105H896.461V144.084H899.115V138.512H901.611V154.684ZM888.674 139.83H896.215V141.869H891.205V144.312H895.67V146.281H891.205V149.05C892.307 149.038 893.303 149.006 894.193 148.953C895.09 148.9 895.986 148.807 896.883 148.672L897.129 150.676C896.033 150.84 894.938 150.951 893.842 151.01C892.752 151.068 891.463 151.104 889.975 151.115H888.674V139.83ZM917.15 150.289H914.637V144.646H912.211V142.607H914.637V138.529H917.15V150.289ZM903.352 146.527C904.23 146.264 904.951 145.877 905.514 145.367C906.082 144.852 906.495 144.271 906.753 143.627C907.011 142.982 907.143 142.309 907.148 141.605V141.57H904.055V139.549H912.809V141.57H909.732V141.623C909.732 142.262 909.855 142.886 910.102 143.495C910.354 144.099 910.749 144.646 911.288 145.139C911.833 145.625 912.521 146 913.354 146.264L912.123 148.268C911.268 147.992 910.535 147.594 909.926 147.072C909.316 146.551 908.833 145.93 908.476 145.209C908.106 146.006 907.603 146.694 906.964 147.274C906.331 147.849 905.561 148.279 904.652 148.566L903.352 146.527ZM906.34 149.27H908.871V152.363H917.52V154.385H906.34V149.27Z" fill="#2F5BC1"/>
<path d="M836.793 199.838L836.793 184.461L854.448 201.546L872.102 184.461L872.102 199.838L854.448 216.923L836.793 199.838Z" fill="url(#paint4_linear_3192_83847)"/>
<rect x="706.449" y="226.922" width="296" height="55" rx="12.5" fill="#EDF4FF"/>
<path d="M768.457 251.844H763.904V253.443H770.109V255.236H755.484V253.443H761.672V251.844H757.33V246.289H759.562V250.051H768.457V251.844ZM757.154 259.068C757.154 258.441 757.377 257.905 757.822 257.46C758.273 257.015 758.918 256.678 759.756 256.449C760.6 256.215 761.602 256.098 762.762 256.098C763.916 256.098 764.909 256.215 765.741 256.449C766.573 256.678 767.212 257.015 767.657 257.46C768.103 257.905 768.328 258.441 768.334 259.068C768.328 259.695 768.103 260.231 767.657 260.677C767.212 261.122 766.573 261.459 765.741 261.688C764.909 261.922 763.916 262.039 762.762 262.039C761.602 262.039 760.6 261.922 759.756 261.688C758.918 261.459 758.273 261.122 757.822 260.677C757.377 260.231 757.154 259.695 757.154 259.068ZM759.439 259.068C759.434 259.484 759.709 259.801 760.266 260.018C760.828 260.229 761.66 260.334 762.762 260.334C763.846 260.334 764.669 260.229 765.231 260.018C765.794 259.801 766.078 259.484 766.084 259.068C766.078 258.236 764.994 257.82 762.832 257.82C761.689 257.82 760.837 257.923 760.274 258.128C759.712 258.327 759.434 258.641 759.439 259.068ZM779.672 255.043H771.85V247.326H779.672V255.043ZM773.713 256.379H775.98V259.877H784.857V261.688H773.713V256.379ZM777.439 253.268V249.102H774.064V253.268H777.439ZM782.186 246.061H784.436V257.434H782.186V246.061ZM801.223 254.041H786.598V252.283H801.223V254.041ZM788.285 254.99H799.412V259.174H790.5V260.158H799.834V261.898H788.303V257.574H797.197V256.678H788.285V254.99ZM788.426 246.359H799.359V248.152H790.658V249.646H799.482V251.404H788.426V246.359ZM807.34 247.115C808.178 247.115 808.934 247.282 809.607 247.616C810.281 247.95 810.809 248.416 811.189 249.014C811.576 249.605 811.77 250.279 811.77 251.035C811.77 251.791 811.576 252.468 811.189 253.065C810.809 253.663 810.281 254.132 809.607 254.472C808.934 254.806 808.178 254.973 807.34 254.973C806.508 254.973 805.752 254.806 805.072 254.472C804.393 254.132 803.859 253.663 803.473 253.065C803.086 252.468 802.893 251.791 802.893 251.035C802.893 250.285 803.086 249.611 803.473 249.014C803.859 248.416 804.393 247.95 805.072 247.616C805.752 247.282 806.508 247.115 807.34 247.115ZM802.884 256.977C804.642 256.977 806.32 256.941 807.92 256.871C809.525 256.801 811.037 256.666 812.455 256.467L812.631 258.084C811.061 258.389 809.464 258.585 807.841 258.673C806.224 258.761 804.439 258.805 802.488 258.805L802.225 256.977H802.884ZM805.125 251.035C805.125 251.445 805.219 251.803 805.406 252.107C805.6 252.406 805.863 252.635 806.197 252.793C806.537 252.951 806.918 253.027 807.34 253.021C807.768 253.027 808.151 252.951 808.491 252.793C808.831 252.635 809.098 252.406 809.291 252.107C809.49 251.803 809.59 251.445 809.59 251.035C809.59 250.631 809.49 250.279 809.291 249.98C809.098 249.676 808.831 249.444 808.491 249.286C808.151 249.128 807.768 249.049 807.34 249.049C806.918 249.049 806.537 249.128 806.197 249.286C805.863 249.444 805.6 249.676 805.406 249.98C805.219 250.279 805.125 250.631 805.125 251.035ZM813.369 246.043H815.602V262.074H813.369V246.043ZM937.893 260.176H923.25V258.348H929.42V255.395H924.797V247.062H927.047V249.541H934.025V247.062H936.258V255.395H931.652V258.348H937.893V260.176ZM934.025 253.602V251.334H927.047V253.602H934.025ZM947.895 248.908H944.713C944.719 249.547 944.854 250.156 945.117 250.736C945.387 251.316 945.797 251.832 946.348 252.283C946.898 252.734 947.584 253.08 948.404 253.32L947.332 255.078C946.471 254.814 945.729 254.428 945.108 253.918C944.487 253.408 943.995 252.802 943.632 252.099C943.263 252.925 942.747 253.643 942.085 254.252C941.429 254.855 940.635 255.312 939.703 255.623L938.561 253.848C939.41 253.578 940.125 253.188 940.705 252.679C941.285 252.169 941.716 251.589 941.997 250.938C942.284 250.288 942.434 249.611 942.445 248.908H939.176V247.115H947.895V248.908ZM940.775 258.928C940.775 258.283 940.995 257.729 941.435 257.267C941.874 256.804 942.507 256.452 943.333 256.212C944.159 255.972 945.135 255.852 946.26 255.852C947.367 255.852 948.325 255.972 949.134 256.212C949.942 256.452 950.563 256.804 950.997 257.267C951.437 257.729 951.656 258.283 951.656 258.928C951.656 259.578 951.437 260.135 950.997 260.598C950.563 261.066 949.942 261.424 949.134 261.67C948.325 261.916 947.367 262.039 946.26 262.039C945.135 262.039 944.159 261.916 943.333 261.67C942.513 261.424 941.88 261.066 941.435 260.598C940.995 260.129 940.775 259.572 940.775 258.928ZM943.025 258.928C943.02 259.379 943.292 259.722 943.843 259.956C944.394 260.185 945.199 260.299 946.26 260.299C947.303 260.299 948.094 260.185 948.633 259.956C949.172 259.728 949.441 259.385 949.441 258.928C949.441 258.488 949.175 258.157 948.642 257.935C948.114 257.706 947.341 257.592 946.321 257.592C945.237 257.592 944.414 257.703 943.852 257.926C943.295 258.148 943.02 258.482 943.025 258.928ZM949.248 246.043H951.498V249.752H953.66V251.58H951.498V255.535H949.248V246.043Z" fill="#0F172A"/>
<path d="M834.533 250.525H836.625V252.6H834.533V257.68H832.002V245.99H834.533V250.525ZM821.736 251.123C821.73 250.338 821.924 249.632 822.316 249.005C822.715 248.372 823.257 247.88 823.942 247.528C824.634 247.171 825.393 246.992 826.219 246.992C827.039 246.992 827.789 247.171 828.469 247.528C829.148 247.88 829.685 248.372 830.077 249.005C830.47 249.632 830.666 250.338 830.666 251.123C830.666 251.902 830.47 252.608 830.077 253.241C829.685 253.868 829.148 254.36 828.469 254.718C827.789 255.075 827.039 255.254 826.219 255.254C825.393 255.254 824.637 255.075 823.951 254.718C823.266 254.36 822.724 253.868 822.325 253.241C821.927 252.608 821.73 251.902 821.736 251.123ZM823.951 256.449H826.482V259.824H835.061V261.846H823.951V256.449ZM824.215 251.123C824.215 251.516 824.303 251.858 824.479 252.151C824.654 252.444 824.895 252.67 825.199 252.828C825.504 252.98 825.844 253.057 826.219 253.057C826.594 253.057 826.931 252.98 827.229 252.828C827.528 252.67 827.766 252.447 827.941 252.16C828.117 251.867 828.205 251.521 828.205 251.123C828.205 250.713 828.117 250.364 827.941 250.077C827.766 249.784 827.528 249.562 827.229 249.409C826.931 249.257 826.594 249.184 826.219 249.189C825.844 249.184 825.504 249.257 825.199 249.409C824.895 249.562 824.654 249.784 824.479 250.077C824.303 250.37 824.215 250.719 824.215 251.123ZM850.898 255.553H848.385V251.861H846.1V249.822H848.385V245.973H850.898V255.553ZM837.082 253.602C837.914 253.332 838.605 252.954 839.156 252.468C839.713 251.976 840.129 251.425 840.404 250.815C840.686 250.206 840.847 249.57 840.888 248.908H837.803V246.887H846.557V248.908H843.498C843.562 249.852 843.891 250.71 844.482 251.483C845.074 252.257 845.947 252.834 847.102 253.215L845.871 255.201C845.021 254.932 844.292 254.536 843.683 254.015C843.079 253.493 842.596 252.875 842.232 252.16C841.869 252.969 841.368 253.669 840.729 254.261C840.091 254.853 839.314 255.301 838.4 255.605L837.082 253.602ZM839.754 258.998C839.754 258.348 839.977 257.788 840.422 257.319C840.873 256.845 841.518 256.481 842.355 256.229C843.193 255.978 844.184 255.852 845.326 255.852C846.486 255.852 847.485 255.978 848.323 256.229C849.167 256.481 849.814 256.842 850.266 257.311C850.723 257.779 850.951 258.342 850.951 258.998C850.951 259.654 850.723 260.217 850.266 260.686C849.814 261.154 849.167 261.515 848.323 261.767C847.485 262.019 846.486 262.145 845.326 262.145C844.184 262.145 843.193 262.019 842.355 261.767C841.518 261.515 840.873 261.151 840.422 260.677C839.977 260.208 839.754 259.648 839.754 258.998ZM842.268 258.998C842.268 259.807 843.264 260.211 845.256 260.211C846.316 260.211 847.11 260.114 847.638 259.921C848.165 259.722 848.432 259.414 848.438 258.998C848.432 258.576 848.171 258.266 847.655 258.066C847.14 257.867 846.363 257.768 845.326 257.768C844.307 257.768 843.542 257.867 843.032 258.066C842.522 258.266 842.268 258.576 842.268 258.998ZM862.113 248.82H859.046C859.081 249.436 859.228 250.027 859.485 250.596C859.749 251.158 860.145 251.668 860.672 252.125C861.199 252.582 861.861 252.939 862.658 253.197L861.428 255.148C860.572 254.891 859.843 254.504 859.239 253.988C858.636 253.467 858.149 252.846 857.78 252.125C857.417 252.922 856.916 253.607 856.277 254.182C855.639 254.756 854.865 255.184 853.957 255.465L852.656 253.479C853.494 253.215 854.188 252.84 854.739 252.354C855.296 251.867 855.709 251.322 855.979 250.719C856.254 250.109 856.409 249.477 856.444 248.82H853.359V246.816H862.113V248.82ZM855.311 256.238H866.455V262.109H863.941V258.242H855.311V256.238ZM861.674 249.752H863.941V245.973H866.455V255.57H863.941V251.809H861.674V249.752ZM881.906 257.521H879.375V245.99H881.906V257.521ZM868.564 251.088C868.564 250.314 868.761 249.614 869.153 248.987C869.546 248.36 870.082 247.871 870.762 247.52C871.447 247.168 872.203 246.992 873.029 246.992C873.855 246.992 874.608 247.168 875.288 247.52C875.968 247.871 876.504 248.36 876.896 248.987C877.295 249.608 877.494 250.309 877.494 251.088C877.494 251.879 877.295 252.588 876.896 253.215C876.504 253.842 875.968 254.334 875.288 254.691C874.608 255.043 873.855 255.219 873.029 255.219C872.203 255.219 871.447 255.043 870.762 254.691C870.082 254.334 869.546 253.842 869.153 253.215C868.761 252.588 868.564 251.879 868.564 251.088ZM870.973 256.361H873.539V259.824H882.311V261.846H870.973V256.361ZM871.025 251.088C871.025 251.498 871.11 251.85 871.28 252.143C871.456 252.43 871.693 252.649 871.992 252.802C872.297 252.948 872.643 253.021 873.029 253.021C873.398 253.021 873.732 252.948 874.031 252.802C874.33 252.649 874.562 252.427 874.726 252.134C874.896 251.841 874.98 251.492 874.98 251.088C874.98 250.689 874.896 250.347 874.726 250.06C874.556 249.772 874.321 249.556 874.022 249.409C873.729 249.257 873.398 249.184 873.029 249.189C872.643 249.184 872.297 249.257 871.992 249.409C871.693 249.556 871.456 249.772 871.28 250.06C871.11 250.347 871.025 250.689 871.025 251.088ZM896.918 249.277H895.705V253.479C896.455 253.408 897.023 253.35 897.41 253.303L897.604 255.148C896.238 255.389 894.797 255.553 893.279 255.641C891.762 255.723 890.186 255.764 888.551 255.764H888.076L887.795 253.76C888.123 253.76 888.674 253.754 889.447 253.742V249.277H888.217V247.273H896.918V249.277ZM890.203 256.748H892.734V259.824H901.312V261.846H890.203V256.748ZM893.279 253.637V249.277H891.873V253.689L893.279 253.637ZM898.254 245.99H900.785V250.42H902.877V252.494H900.785V257.873H898.254V245.99ZM918.24 260.369H903.492V258.312H909.592V256.062H905.145V250.508H914.092V248.996H905.127V246.975H916.588V252.477H907.676V254.023H916.957V256.062H912.088V258.312H918.24V260.369Z" fill="#2F5BC1"/>
<path d="M5 399.422C5 367.666 30.7436 341.922 62.5 341.922H1047.5C1079.26 341.922 1105 367.666 1105 399.422C1105 431.178 1079.26 456.922 1047.5 456.922H62.5C30.7436 456.922 5 431.178 5 399.422Z" fill="url(#paint5_linear_3192_83847)" stroke="#E3E4FF" stroke-width="10"/>
<path d="M69.0391 391.031L73.75 402.539H73.9375L78.6484 391.031H83.0078V408H79.5859V396.891H79.4453L75.0156 407.93H72.6719L68.2422 396.844H68.1016V408H64.6797V391.031H69.0391ZM85.8672 408V391.031H91.9141C93.6094 391.031 95.0742 391.371 96.3086 392.051C97.5508 392.723 98.5 393.695 99.1562 394.969C99.8125 396.234 100.141 397.742 100.141 399.492C100.141 401.25 99.8086 402.77 99.1445 404.051C98.4883 405.324 97.5352 406.301 96.2852 406.98C95.043 407.66 93.5625 408 91.8438 408H85.8672ZM91.7031 404.977C93.3438 404.977 94.5742 404.531 95.3945 403.641C96.2148 402.75 96.625 401.367 96.625 399.492C96.625 397.633 96.2148 396.262 95.3945 395.379C94.582 394.496 93.3594 394.055 91.7266 394.055H89.3828V404.977H91.7031ZM120.391 410.156H117.578V388.828H120.391V410.156ZM101.57 403.617C103.695 402.367 105.277 400.949 106.316 399.363C107.363 397.77 107.992 395.906 108.203 393.773H102.812V391.359H111.18C111.18 392.398 111.113 393.43 110.98 394.453H113.102V389.297H115.938V409.219H113.102V402.188H110.078V399.773H113.102V396.867H110.488C109.973 398.688 109.133 400.332 107.969 401.801C106.812 403.262 105.266 404.57 103.328 405.727L101.57 403.617ZM136.023 392.578H123.367V390.398H128.195V388.688H131.172V390.398H136.023V392.578ZM122.734 400.57C125.078 400.57 126.898 400.551 128.195 400.512V399.375C126.992 399.211 126.047 398.863 125.359 398.332C124.68 397.793 124.344 397.117 124.352 396.305C124.352 395.648 124.57 395.078 125.008 394.594C125.445 394.102 126.066 393.727 126.871 393.469C127.684 393.203 128.625 393.07 129.695 393.07C130.742 393.07 131.668 393.203 132.473 393.469C133.277 393.727 133.902 394.102 134.348 394.594C134.801 395.086 135.031 395.656 135.039 396.305C135.031 397.109 134.68 397.781 133.984 398.32C133.289 398.859 132.352 399.211 131.172 399.375V400.406C133.109 400.297 134.789 400.156 136.211 399.984L136.422 401.977C134.406 402.328 132.316 402.559 130.152 402.668C127.988 402.777 125.648 402.836 123.133 402.844L122.734 400.57ZM125.734 404.109H140.57V410.156H137.523V406.406H125.734V404.109ZM127.234 396.305C127.227 396.68 127.434 396.969 127.855 397.172C128.285 397.375 128.879 397.477 129.637 397.477C130.41 397.477 131.023 397.379 131.477 397.184C131.93 396.98 132.156 396.688 132.156 396.305C132.156 395.898 131.934 395.59 131.488 395.379C131.051 395.168 130.453 395.062 129.695 395.062C128.914 395.062 128.305 395.168 127.867 395.379C127.438 395.59 127.227 395.898 127.234 396.305ZM137.523 388.875H140.57V403.266H137.523V388.875Z" fill="white"/>
<path d="M192.793 407.335L201.126 399.001L192.793 390.668V407.335Z" fill="white"/>
<path d="M266.719 381.008H269.742V383.469H266.719V394.109H263.719V372.828H266.719V381.008ZM249.656 388.133C252.195 386.859 254.148 385.352 255.516 383.609C256.883 381.867 257.707 379.812 257.988 377.445H250.875V375.008H261.023C261.008 378.406 260.242 381.406 258.727 384.008C257.219 386.609 254.758 388.75 251.344 390.43L249.656 388.133ZM281.18 380.562H274.383V382.602C276.266 382.586 277.852 382.535 279.141 382.449C280.43 382.363 281.719 382.203 283.008 381.969L283.336 384.359C281.906 384.617 280.461 384.797 279 384.898C277.547 384.992 275.777 385.039 273.691 385.039H273.211H271.406V378.289H278.273V376.414H271.383V374.023H281.18V380.562ZM273.188 386.773H287.555V394.133H284.555V389.164H273.188V386.773ZM284.555 372.852H287.555V377.938H290.438V380.398H287.555V385.789H284.555V372.852ZM310.828 383.961H291.375V381.547H299.578V380.164H293.789V373.438H308.367V380.164H302.531V381.547H310.828V383.961ZM293.625 385.016H308.461V390.477H296.578V391.766H309.023V394.016H293.648V388.367H305.508V387.266H293.625V385.016ZM305.391 377.867V375.758H296.719V377.867H305.391ZM337.172 391.578H317.648V389.141H337.172V391.578ZM319.711 374.188H322.711V377.727H332.016V374.188H334.992V385.578H319.711V374.188ZM332.016 383.234V380.047H322.711V383.234H332.016ZM356.719 388.672H353.883V381.312H352.031V388.227H349.242V373.227H352.031V378.898H353.883V372.852H356.719V388.672ZM339.234 374.562H347.367V381.195H342.141V383.387C343.367 383.371 344.445 383.328 345.375 383.258C346.312 383.18 347.266 383.047 348.234 382.859L348.492 385.227C347.32 385.438 346.168 385.578 345.035 385.648C343.902 385.711 342.469 385.742 340.734 385.742H339.258V378.992H344.484V376.906H339.234V374.562ZM342.258 387.172H345.258V391.391H357.258V393.781H342.258V387.172ZM376.523 385.086H361.43V374.609H376.359V377.023H364.383V382.695H376.523V385.086ZM359.133 389.094H378.656V391.555H359.133V389.094ZM301.652 426.203H298.676V404.828H301.652V426.203ZM284.895 406.609H295.043V414.836H288.012V418.75C289.73 418.734 291.309 418.676 292.746 418.574C294.184 418.473 295.652 418.297 297.152 418.047L297.41 420.461C295.77 420.75 294.133 420.949 292.5 421.059C290.867 421.16 288.98 421.211 286.84 421.211H284.918V412.469H291.996V409.023H284.895V406.609ZM321.809 413.945H306.879V405.789H309.855V411.555H321.809V413.945ZM304.512 416.359H323.965V418.75H319.512V426.156H316.488V418.75H312.012V426.156H309.012V418.75H304.512V416.359ZM343.23 415.492H340.254V411.508H336.68C336.484 412.25 336.129 412.906 335.613 413.477C335.098 414.039 334.457 414.473 333.691 414.777C332.934 415.082 332.105 415.234 331.207 415.234C330.129 415.234 329.156 415.027 328.289 414.613C327.43 414.191 326.754 413.605 326.262 412.855C325.77 412.098 325.527 411.242 325.535 410.289C325.527 409.352 325.77 408.516 326.262 407.781C326.754 407.039 327.43 406.465 328.289 406.059C329.156 405.645 330.129 405.438 331.207 405.438C332.105 405.438 332.934 405.59 333.691 405.895C334.457 406.191 335.098 406.617 335.613 407.172C336.129 407.727 336.484 408.367 336.68 409.094H340.254V404.828H343.23V415.492ZM328.371 410.289C328.371 410.812 328.488 411.266 328.723 411.648C328.965 412.031 329.301 412.324 329.73 412.527C330.16 412.723 330.652 412.82 331.207 412.82C331.746 412.82 332.223 412.723 332.637 412.527C333.059 412.324 333.391 412.031 333.633 411.648C333.875 411.266 333.996 410.812 333.996 410.289C333.996 409.797 333.875 409.367 333.633 409C333.391 408.625 333.059 408.34 332.637 408.145C332.215 407.949 331.738 407.852 331.207 407.852C330.652 407.852 330.16 407.949 329.73 408.145C329.301 408.34 328.965 408.625 328.723 409C328.488 409.367 328.371 409.797 328.371 410.289ZM329.027 416.43H343.23V422.195H332.051V423.578H343.863V425.922H329.051V419.992H340.254V418.727H329.027V416.43Z" fill="white"/>
<path d="M429.043 407.335L437.376 399.001L429.043 390.668V407.335Z" fill="white"/>
<path d="M520.535 394.18H517.559V388.789H505.887V386.422H520.535V394.18ZM503.449 374.352H513.574V377.938H517.559V372.828H520.535V385.438H517.559V380.328H513.574V384.289H503.449V374.352ZM510.645 381.922V376.766H506.426V381.922H510.645ZM541.277 394.156H538.301V383.469H534.059V381.031H538.301V372.828H541.277V394.156ZM523.09 388.109C524.871 387.234 526.328 386.27 527.461 385.215C528.594 384.152 529.457 382.984 530.051 381.711C530.645 380.43 531.016 378.992 531.164 377.398H524.098V375.055H534.176C534.168 377.336 533.875 379.398 533.297 381.242C532.719 383.086 531.73 384.785 530.332 386.34C528.934 387.895 527.035 389.266 524.637 390.453L523.09 388.109ZM561.926 394.203H558.949V372.828H561.926V394.203ZM545.168 374.609H555.316V382.836H548.285V386.75C550.004 386.734 551.582 386.676 553.02 386.574C554.457 386.473 555.926 386.297 557.426 386.047L557.684 388.461C556.043 388.75 554.406 388.949 552.773 389.059C551.141 389.16 549.254 389.211 547.113 389.211H545.191V380.469H552.27V377.023H545.168V374.609ZM587.379 379.836H590.098V382.297H587.379V389.469H584.379V372.828H587.379V379.836ZM570.082 385.086C572.043 385.086 573.77 385.062 575.262 385.016V383.785C574.09 383.621 573.168 383.262 572.496 382.707C571.832 382.152 571.504 381.461 571.512 380.633C571.512 379.938 571.723 379.34 572.145 378.84C572.574 378.34 573.184 377.961 573.973 377.703C574.762 377.438 575.684 377.305 576.738 377.305C577.785 377.305 578.699 377.438 579.48 377.703C580.27 377.961 580.879 378.34 581.309 378.84C581.746 379.34 581.965 379.938 581.965 380.633C581.957 381.461 581.621 382.152 580.957 382.707C580.301 383.254 579.395 383.613 578.238 383.785V384.875C580.137 384.758 581.855 384.586 583.395 384.359L583.605 386.422C581.629 386.805 579.59 387.055 577.488 387.172C575.395 387.289 573.027 387.359 570.387 387.383L570.082 385.086ZM570.645 374.562H575.262V372.758H578.238V374.562H582.855V376.695H570.645V374.562ZM573.082 388.367H576.082V391.391H588.105V393.781H573.082V388.367ZM574.371 380.633C574.363 381.023 574.559 381.328 574.957 381.547C575.363 381.766 575.938 381.875 576.68 381.875C577.453 381.875 578.047 381.77 578.461 381.559C578.883 381.34 579.098 381.031 579.105 380.633C579.098 380.188 578.891 379.855 578.484 379.637C578.078 379.41 577.496 379.297 576.738 379.297C575.965 379.297 575.375 379.41 574.969 379.637C574.562 379.855 574.363 380.188 574.371 380.633ZM609.035 385.133H606.059V383.047H601.254V380.656H606.059V378.617H601.477C600.141 381.992 597.121 384.32 592.418 385.602L591.246 383.234C593.629 382.609 595.457 381.738 596.73 380.621C598.012 379.496 598.762 378.18 598.98 376.672H592.395V374.281H602.238C602.238 375 602.188 375.664 602.086 376.273H606.059V372.852H609.035V385.133ZM594.645 389.703C594.645 388.836 594.945 388.078 595.547 387.43C596.148 386.781 597 386.281 598.102 385.93C599.203 385.57 600.48 385.391 601.934 385.391C603.371 385.391 604.637 385.57 605.73 385.93C606.824 386.281 607.676 386.781 608.285 387.43C608.895 388.078 609.199 388.836 609.199 389.703C609.199 390.578 608.895 391.344 608.285 392C607.676 392.664 606.82 393.172 605.719 393.523C604.625 393.883 603.363 394.062 601.934 394.062C600.48 394.062 599.203 393.883 598.102 393.523C597 393.172 596.148 392.668 595.547 392.012C594.945 391.355 594.645 390.586 594.645 389.703ZM597.621 389.703C597.621 390.359 597.996 390.855 598.746 391.191C599.496 391.527 600.559 391.695 601.934 391.695C603.277 391.695 604.32 391.527 605.062 391.191C605.812 390.848 606.191 390.352 606.199 389.703C606.191 389.055 605.812 388.562 605.062 388.227C604.32 387.883 603.277 387.719 601.934 387.734C600.566 387.719 599.504 387.883 598.746 388.227C597.996 388.562 597.621 389.055 597.621 389.703ZM614.379 394.555H611.402L616.863 374.234H619.863L614.379 394.555ZM504.246 420.414H501.27V412.773H497.777V410.359H501.27V404.852H504.246V420.414ZM486.152 415.609C487.285 415.258 488.234 414.742 489 414.062C489.766 413.375 490.336 412.598 490.711 411.73C491.086 410.855 491.277 409.945 491.285 409V408.672H486.996V406.281H498.574V408.672H494.332V409.023C494.324 409.875 494.5 410.711 494.859 411.531C495.219 412.344 495.766 413.078 496.5 413.734C497.234 414.383 498.145 414.883 499.23 415.234L497.754 417.602C496.605 417.227 495.617 416.676 494.789 415.949C493.969 415.215 493.32 414.355 492.844 413.371C492.352 414.473 491.672 415.426 490.805 416.23C489.938 417.035 488.895 417.641 487.676 418.047L486.152 415.609ZM490.09 419.055H493.09V423.391H504.762V425.781H490.09V419.055ZM524.871 426.203H521.848V404.828H524.871V426.203ZM507.645 413.922C507.645 412.398 507.883 411.062 508.359 409.914C508.844 408.766 509.512 407.883 510.363 407.266C511.223 406.641 512.199 406.328 513.293 406.328C514.363 406.328 515.32 406.641 516.164 407.266C517.016 407.883 517.684 408.766 518.168 409.914C518.652 411.062 518.895 412.398 518.895 413.922C518.895 415.453 518.652 416.797 518.168 417.953C517.684 419.102 517.016 419.988 516.164 420.613C515.32 421.23 514.363 421.539 513.293 421.539C512.199 421.539 511.223 421.23 510.363 420.613C509.512 419.988 508.844 419.102 508.359 417.953C507.883 416.797 507.645 415.453 507.645 413.922ZM510.527 413.922C510.527 414.961 510.641 415.852 510.867 416.594C511.094 417.328 511.414 417.887 511.828 418.27C512.25 418.645 512.738 418.828 513.293 418.82C513.832 418.828 514.305 418.645 514.711 418.27C515.125 417.887 515.445 417.328 515.672 416.594C515.898 415.852 516.012 414.961 516.012 413.922C516.012 412.883 515.898 411.996 515.672 411.262C515.445 410.527 515.125 409.973 514.711 409.598C514.305 409.215 513.832 409.023 513.293 409.023C512.738 409.023 512.25 409.215 511.828 409.598C511.414 409.973 511.094 410.527 510.867 411.262C510.641 411.996 510.527 412.883 510.527 413.922ZM537.363 418.117C538.918 418.117 540.266 418.277 541.406 418.598C542.547 418.91 543.426 419.371 544.043 419.98C544.66 420.582 544.973 421.305 544.98 422.148C544.973 422.977 544.66 423.691 544.043 424.293C543.426 424.902 542.543 425.363 541.395 425.676C540.254 425.996 538.91 426.156 537.363 426.156C535.824 426.156 534.48 425.996 533.332 425.676C532.191 425.363 531.312 424.902 530.695 424.293C530.078 423.691 529.77 422.977 529.77 422.148C529.77 421.305 530.078 420.582 530.695 419.98C531.312 419.371 532.191 418.91 533.332 418.598C534.48 418.277 535.824 418.117 537.363 418.117ZM527.801 414.344H535.066V410.617H538.02V414.344H547.16V416.758H527.801V414.344ZM529.98 405.789H544.863V407.523V408.145C544.863 409.082 544.824 409.949 544.746 410.746C544.668 411.543 544.504 412.375 544.254 413.242L541.324 412.961C541.543 412.086 541.688 411.289 541.758 410.57C541.828 409.844 541.871 409.031 541.887 408.133H529.98V405.789ZM532.746 422.148C532.738 422.719 533.133 423.152 533.93 423.449C534.734 423.738 535.879 423.883 537.363 423.883C538.848 423.883 539.992 423.738 540.797 423.449C541.602 423.152 542.004 422.719 542.004 422.148C542.004 421.562 541.605 421.117 540.809 420.812C540.02 420.5 538.898 420.344 537.445 420.344C535.93 420.344 534.766 420.496 533.953 420.801C533.141 421.105 532.738 421.555 532.746 422.148ZM565.418 410.805H568.301V413.266H565.418V420.109H562.395V404.828H565.418V410.805ZM548.355 415.656C550.715 415 552.57 414.086 553.922 412.914C555.281 411.734 556.078 410.383 556.312 408.859H549.293V406.422H559.605C559.605 408.328 559.215 410.047 558.434 411.578C557.66 413.102 556.527 414.406 555.035 415.492C553.543 416.578 551.73 417.422 549.598 418.023L548.355 415.656ZM551.543 418.539H554.566V423.391H566.145V425.781H551.543V418.539ZM592.652 426.203H589.676V404.828H592.652V426.203ZM575.895 406.609H586.043V414.836H579.012V418.75C580.73 418.734 582.309 418.676 583.746 418.574C585.184 418.473 586.652 418.297 588.152 418.047L588.41 420.461C586.77 420.75 585.133 420.949 583.5 421.059C581.867 421.16 579.98 421.211 577.84 421.211H575.918V412.469H582.996V409.023H575.895V406.609ZM612.809 413.945H597.879V405.789H600.855V411.555H612.809V413.945ZM595.512 416.359H614.965V418.75H610.512V426.156H607.488V418.75H603.012V426.156H600.012V418.75H595.512V416.359ZM634.23 415.492H631.254V411.508H627.68C627.484 412.25 627.129 412.906 626.613 413.477C626.098 414.039 625.457 414.473 624.691 414.777C623.934 415.082 623.105 415.234 622.207 415.234C621.129 415.234 620.156 415.027 619.289 414.613C618.43 414.191 617.754 413.605 617.262 412.855C616.77 412.098 616.527 411.242 616.535 410.289C616.527 409.352 616.77 408.516 617.262 407.781C617.754 407.039 618.43 406.465 619.289 406.059C620.156 405.645 621.129 405.438 622.207 405.438C623.105 405.438 623.934 405.59 624.691 405.895C625.457 406.191 626.098 406.617 626.613 407.172C627.129 407.727 627.484 408.367 627.68 409.094H631.254V404.828H634.23V415.492ZM619.371 410.289C619.371 410.812 619.488 411.266 619.723 411.648C619.965 412.031 620.301 412.324 620.73 412.527C621.16 412.723 621.652 412.82 622.207 412.82C622.746 412.82 623.223 412.723 623.637 412.527C624.059 412.324 624.391 412.031 624.633 411.648C624.875 411.266 624.996 410.812 624.996 410.289C624.996 409.797 624.875 409.367 624.633 409C624.391 408.625 624.059 408.34 623.637 408.145C623.215 407.949 622.738 407.852 622.207 407.852C621.652 407.852 621.16 407.949 620.73 408.145C620.301 408.34 619.965 408.625 619.723 409C619.488 409.367 619.371 409.797 619.371 410.289ZM620.027 416.43H634.23V422.195H623.051V423.578H634.863V425.922H620.051V419.992H631.254V418.727H620.027V416.43Z" fill="white"/>
<path d="M686.293 407.335L694.626 399.001L686.293 390.668V407.335Z" fill="white"/>
<path d="M760.227 381.172H763.367V383.633H760.227V394.156H757.273V372.828H760.227V381.172ZM743.281 376.016H748.109V373.156H751.109V376.016H755.82V378.406H743.281V376.016ZM744.148 384.688C744.148 383.711 744.383 382.836 744.852 382.062C745.32 381.289 745.969 380.688 746.797 380.258C747.633 379.82 748.57 379.602 749.609 379.602C750.633 379.602 751.559 379.82 752.387 380.258C753.215 380.688 753.863 381.289 754.332 382.062C754.809 382.836 755.047 383.711 755.047 384.688C755.047 385.664 754.809 386.539 754.332 387.312C753.863 388.078 753.215 388.68 752.387 389.117C751.559 389.555 750.633 389.773 749.609 389.773C748.57 389.773 747.633 389.555 746.797 389.117C745.969 388.68 745.32 388.078 744.852 387.312C744.383 386.539 744.148 385.664 744.148 384.688ZM747.008 384.688C747.008 385.227 747.117 385.695 747.336 386.094C747.562 386.492 747.871 386.797 748.262 387.008C748.652 387.219 749.102 387.32 749.609 387.312C750.109 387.32 750.555 387.219 750.945 387.008C751.336 386.797 751.641 386.492 751.859 386.094C752.078 385.695 752.188 385.227 752.188 384.688C752.188 384.148 752.078 383.68 751.859 383.281C751.641 382.883 751.336 382.574 750.945 382.355C750.555 382.137 750.109 382.023 749.609 382.016C749.102 382.023 748.652 382.137 748.262 382.355C747.871 382.574 747.562 382.883 747.336 383.281C747.117 383.68 747.008 384.148 747.008 384.688ZM781.391 379.508H766.555V373.086H769.531V377.141H781.391V379.508ZM764.117 380.938H783.641V383.305H764.117V380.938ZM766.344 384.594H781.297V390.266H769.391V391.625H781.953V393.922H766.391V388.109H778.32V386.891H766.344V384.594ZM794.492 386.117C796.047 386.117 797.395 386.277 798.535 386.598C799.676 386.91 800.555 387.371 801.172 387.98C801.789 388.582 802.102 389.305 802.109 390.148C802.102 390.977 801.789 391.691 801.172 392.293C800.555 392.902 799.672 393.363 798.523 393.676C797.383 393.996 796.039 394.156 794.492 394.156C792.953 394.156 791.609 393.996 790.461 393.676C789.32 393.363 788.441 392.902 787.824 392.293C787.207 391.691 786.898 390.977 786.898 390.148C786.898 389.305 787.207 388.582 787.824 387.98C788.441 387.371 789.32 386.91 790.461 386.598C791.609 386.277 792.953 386.117 794.492 386.117ZM784.93 382.344H792.195V378.617H795.148V382.344H804.289V384.758H784.93V382.344ZM787.109 373.789H801.992V375.523V376.145C801.992 377.082 801.953 377.949 801.875 378.746C801.797 379.543 801.633 380.375 801.383 381.242L798.453 380.961C798.672 380.086 798.816 379.289 798.887 378.57C798.957 377.844 799 377.031 799.016 376.133H787.109V373.789ZM789.875 390.148C789.867 390.719 790.262 391.152 791.059 391.449C791.863 391.738 793.008 391.883 794.492 391.883C795.977 391.883 797.121 391.738 797.926 391.449C798.73 391.152 799.133 390.719 799.133 390.148C799.133 389.562 798.734 389.117 797.938 388.812C797.148 388.5 796.027 388.344 794.574 388.344C793.059 388.344 791.895 388.496 791.082 388.801C790.27 389.105 789.867 389.555 789.875 390.148ZM823.695 388.953H820.695V387.266H816.617V385.227H820.695V372.852H823.695V388.953ZM805.555 382.297C808.234 382.281 810.688 382.234 812.914 382.156C815.141 382.07 817.25 381.906 819.242 381.664L819.406 383.797C817.781 384.07 816.062 384.273 814.25 384.406V388.461H811.25V391.391H824.164V393.781H808.273V387.406H811.25V384.582C809.766 384.637 807.984 384.664 805.906 384.664L805.555 382.297ZM807.125 377.398C807.125 376.648 807.352 375.984 807.805 375.406C808.258 374.828 808.891 374.379 809.703 374.059C810.516 373.738 811.445 373.578 812.492 373.578C813.516 373.578 814.43 373.738 815.234 374.059C816.039 374.379 816.668 374.828 817.121 375.406C817.582 375.984 817.812 376.648 817.812 377.398C817.812 378.148 817.582 378.809 817.121 379.379C816.668 379.949 816.039 380.387 815.234 380.691C814.43 380.996 813.516 381.148 812.492 381.148C811.438 381.148 810.504 380.996 809.691 380.691C808.887 380.387 808.258 379.949 807.805 379.379C807.352 378.809 807.125 378.148 807.125 377.398ZM809.961 377.398C809.953 377.906 810.18 378.301 810.641 378.582C811.109 378.855 811.742 378.992 812.539 378.992C813.258 378.992 813.84 378.852 814.285 378.57C814.738 378.289 814.969 377.898 814.977 377.398C814.969 376.883 814.734 376.48 814.273 376.191C813.82 375.902 813.227 375.758 812.492 375.758C811.719 375.758 811.102 375.902 810.641 376.191C810.18 376.48 809.953 376.883 809.961 377.398ZM771.652 426.203H768.676V404.828H771.652V426.203ZM754.895 406.609H765.043V414.836H758.012V418.75C759.73 418.734 761.309 418.676 762.746 418.574C764.184 418.473 765.652 418.297 767.152 418.047L767.41 420.461C765.77 420.75 764.133 420.949 762.5 421.059C760.867 421.16 758.98 421.211 756.84 421.211H754.918V412.469H761.996V409.023H754.895V406.609ZM791.809 413.945H776.879V405.789H779.855V411.555H791.809V413.945ZM774.512 416.359H793.965V418.75H789.512V426.156H786.488V418.75H782.012V426.156H779.012V418.75H774.512V416.359ZM813.23 415.492H810.254V411.508H806.68C806.484 412.25 806.129 412.906 805.613 413.477C805.098 414.039 804.457 414.473 803.691 414.777C802.934 415.082 802.105 415.234 801.207 415.234C800.129 415.234 799.156 415.027 798.289 414.613C797.43 414.191 796.754 413.605 796.262 412.855C795.77 412.098 795.527 411.242 795.535 410.289C795.527 409.352 795.77 408.516 796.262 407.781C796.754 407.039 797.43 406.465 798.289 406.059C799.156 405.645 800.129 405.438 801.207 405.438C802.105 405.438 802.934 405.59 803.691 405.895C804.457 406.191 805.098 406.617 805.613 407.172C806.129 407.727 806.484 408.367 806.68 409.094H810.254V404.828H813.23V415.492ZM798.371 410.289C798.371 410.812 798.488 411.266 798.723 411.648C798.965 412.031 799.301 412.324 799.73 412.527C800.16 412.723 800.652 412.82 801.207 412.82C801.746 412.82 802.223 412.723 802.637 412.527C803.059 412.324 803.391 412.031 803.633 411.648C803.875 411.266 803.996 410.812 803.996 410.289C803.996 409.797 803.875 409.367 803.633 409C803.391 408.625 803.059 408.34 802.637 408.145C802.215 407.949 801.738 407.852 801.207 407.852C800.652 407.852 800.16 407.949 799.73 408.145C799.301 408.34 798.965 408.625 798.723 409C798.488 409.367 798.371 409.797 798.371 410.289ZM799.027 416.43H813.23V422.195H802.051V423.578H813.863V425.922H799.051V419.992H810.254V418.727H799.027V416.43Z" fill="white"/>
<path d="M875.543 407.335L883.876 399.001L875.543 390.668V407.335Z" fill="white"/>
<path d="M944.805 393.305H940.492C940.516 394.047 940.711 394.758 941.078 395.438C941.445 396.117 941.996 396.727 942.73 397.266C943.473 397.797 944.391 398.211 945.484 398.508L944.125 400.805C942.938 400.5 941.914 400.031 941.055 399.398C940.203 398.758 939.531 397.992 939.039 397.102C938.555 398.078 937.879 398.918 937.012 399.621C936.152 400.324 935.109 400.844 933.883 401.18L932.477 398.883C933.57 398.578 934.492 398.141 935.242 397.57C935.992 397 936.555 396.348 936.93 395.613C937.305 394.879 937.5 394.109 937.516 393.305H933.227V390.961H937.516V388.734H940.539V390.961H944.805V393.305ZM935.617 402.211H949.562V409.922H935.617V402.211ZM946.609 407.531V404.578H938.57V407.531H946.609ZM946.562 388.828H949.562V393.844H952.445V396.281H949.562V401.32H946.562V388.828ZM959.266 390.328C960.227 390.328 961.094 390.578 961.867 391.078C962.641 391.578 963.27 392.289 963.754 393.211H968.43V388.828H971.383V410.203H968.43V402.211H963.977C963.5 403.266 962.852 404.086 962.031 404.672C961.219 405.25 960.297 405.539 959.266 405.539C958.188 405.539 957.227 405.23 956.383 404.613C955.547 403.988 954.895 403.102 954.426 401.953C953.957 400.797 953.727 399.453 953.734 397.922C953.727 396.398 953.957 395.062 954.426 393.914C954.895 392.766 955.547 391.883 956.383 391.266C957.227 390.641 958.188 390.328 959.266 390.328ZM956.594 397.922C956.594 398.961 956.703 399.852 956.922 400.594C957.141 401.328 957.453 401.887 957.859 402.27C958.266 402.645 958.734 402.828 959.266 402.82C959.805 402.828 960.273 402.645 960.672 402.27C961.078 401.887 961.391 401.328 961.609 400.594C961.828 399.852 961.938 398.961 961.938 397.922C961.938 396.883 961.828 395.996 961.609 395.262C961.391 394.527 961.078 393.973 960.672 393.598C960.273 393.215 959.805 393.023 959.266 393.023C958.734 393.023 958.266 393.215 957.859 393.598C957.453 393.973 957.141 394.531 956.922 395.273C956.703 396.008 956.594 396.891 956.594 397.922ZM964.586 395.625C964.727 396.328 964.797 397.094 964.797 397.922C964.797 398.586 964.75 399.219 964.656 399.82H968.43V395.625H964.586ZM992.453 402.211H989.617V396.539H987.906V401.508H985.117V389.227H987.906V394.102H989.617V388.828H992.453V402.211ZM974.008 391.031H977.781V389.016H980.758V391.031H984.484V393.352H974.008V391.031ZM974.664 397.781C974.664 397.047 974.859 396.398 975.25 395.836C975.648 395.273 976.199 394.836 976.902 394.523C977.605 394.211 978.398 394.055 979.281 394.055C980.18 394.055 980.98 394.211 981.684 394.523C982.387 394.828 982.938 395.266 983.336 395.836C983.742 396.398 983.945 397.047 983.945 397.781C983.945 398.508 983.742 399.152 983.336 399.715C982.938 400.27 982.387 400.703 981.684 401.016C980.98 401.328 980.18 401.484 979.281 401.484C978.398 401.484 977.605 401.328 976.902 401.016C976.199 400.703 975.648 400.27 975.25 399.715C974.859 399.152 974.664 398.508 974.664 397.781ZM977.336 397.758C977.336 398.25 977.508 398.641 977.852 398.93C978.195 399.211 978.66 399.352 979.246 399.352C979.848 399.352 980.328 399.215 980.688 398.941C981.055 398.66 981.242 398.273 981.25 397.781C981.242 397.297 981.062 396.914 980.711 396.633C980.359 396.352 979.895 396.211 979.316 396.211C978.715 396.211 978.234 396.348 977.875 396.621C977.516 396.887 977.336 397.266 977.336 397.758ZM977.781 406.289C977.781 405.477 978.074 404.781 978.66 404.203C979.254 403.617 980.102 403.172 981.203 402.867C982.312 402.555 983.633 402.398 985.164 402.398C986.695 402.398 988.012 402.555 989.113 402.867C990.223 403.172 991.074 403.613 991.668 404.191C992.262 404.77 992.562 405.469 992.57 406.289C992.562 407.102 992.262 407.797 991.668 408.375C991.074 408.961 990.223 409.402 989.113 409.699C988.012 410.004 986.695 410.156 985.164 410.156C983.641 410.156 982.324 410.004 981.215 409.699C980.105 409.402 979.254 408.961 978.66 408.375C978.074 407.797 977.781 407.102 977.781 406.289ZM980.781 406.289C980.773 406.828 981.137 407.234 981.871 407.508C982.613 407.773 983.711 407.906 985.164 407.906C988.086 407.906 989.547 407.367 989.547 406.289C989.547 405.734 989.188 405.324 988.469 405.059C987.758 404.785 986.688 404.648 985.258 404.648C983.758 404.648 982.633 404.781 981.883 405.047C981.141 405.312 980.773 405.727 980.781 406.289ZM1002.72 393.656C1002.71 394.961 1002.89 396.227 1003.27 397.453C1003.64 398.672 1004.21 399.766 1004.97 400.734C1005.73 401.703 1006.66 402.453 1007.76 402.984L1005.95 405.375C1004.84 404.82 1003.89 404.047 1003.11 403.055C1002.32 402.055 1001.7 400.891 1001.24 399.562C1000.76 400.992 1000.1 402.242 999.262 403.312C998.426 404.375 997.422 405.195 996.25 405.773L994.398 403.359C995.562 402.828 996.543 402.059 997.34 401.051C998.137 400.035 998.73 398.891 999.121 397.617C999.52 396.336 999.719 395.016 999.719 393.656V390.469H1002.72V393.656ZM1008.7 388.828H1011.7V397.055H1014.84V399.586H1011.7V410.156H1008.7V388.828ZM1039.54 410.156H1036.66V399.305H1034.71V409.219H1031.92V389.391H1034.71V396.914H1036.66V388.828H1039.54V410.156ZM1020.88 403.711C1023.01 402.461 1024.59 401.039 1025.63 399.445C1026.68 397.852 1027.3 395.984 1027.5 393.844H1021.96V391.453H1030.42C1030.41 393.547 1030.17 395.453 1029.68 397.172C1029.21 398.883 1028.39 400.465 1027.25 401.918C1026.11 403.363 1024.56 404.648 1022.62 405.773L1020.88 403.711ZM1050.44 403.57C1052.34 403.453 1054.06 403.281 1055.62 403.055L1055.85 405.234C1053.77 405.633 1051.64 405.891 1049.48 406.008C1047.32 406.125 1044.94 406.188 1042.33 406.195L1041.98 403.781C1044.04 403.781 1045.87 403.758 1047.46 403.711V400.359H1050.44V403.57ZM1042.4 398.766C1043.95 398.352 1045.14 397.699 1045.97 396.809C1046.82 395.91 1047.29 394.891 1047.39 393.75H1043.08V391.336H1047.46V389.016H1050.44V391.336H1054.84V393.75H1050.48C1050.55 394.461 1050.79 395.133 1051.18 395.766C1051.57 396.391 1052.12 396.945 1052.85 397.43C1053.58 397.914 1054.46 398.281 1055.5 398.531L1054.14 400.852C1052.92 400.547 1051.88 400.07 1051 399.422C1050.13 398.766 1049.45 397.98 1048.95 397.066C1048.47 398.027 1047.8 398.848 1046.93 399.527C1046.07 400.207 1045.03 400.703 1043.8 401.016L1042.4 398.766ZM1056.84 388.828H1059.81V410.203H1056.84V388.828Z" fill="white"/>
<defs>
<linearGradient id="paint0_linear_3192_83847" x1="215.039" y1="20.1328" x2="215.039" y2="261.788" gradientUnits="userSpaceOnUse">
<stop stop-color="#2F5BC1"/>
<stop offset="1" stop-color="#6951CB"/>
</linearGradient>
<linearGradient id="paint1_linear_3192_83847" x1="351.027" y1="140.962" x2="383.489" y2="140.962" gradientUnits="userSpaceOnUse">
<stop stop-color="white"/>
<stop offset="1" stop-color="#0089EC"/>
</linearGradient>
<linearGradient id="paint2_linear_3192_83847" x1="656.488" y1="140.962" x2="688.95" y2="140.962" gradientUnits="userSpaceOnUse">
<stop stop-color="white"/>
<stop offset="1" stop-color="#0089EC"/>
</linearGradient>
<linearGradient id="paint3_linear_3192_83847" x1="854.448" y1="77" x2="854.448" y2="109.462" gradientUnits="userSpaceOnUse">
<stop stop-color="white"/>
<stop offset="1" stop-color="#0089EC"/>
</linearGradient>
<linearGradient id="paint4_linear_3192_83847" x1="854.448" y1="184.461" x2="854.448" y2="216.923" gradientUnits="userSpaceOnUse">
<stop stop-color="white"/>
<stop offset="1" stop-color="#0089EC"/>
</linearGradient>
<linearGradient id="paint5_linear_3192_83847" x1="555" y1="341.922" x2="555" y2="456.922" gradientUnits="userSpaceOnUse">
<stop stop-color="#2F5BC1"/>
<stop offset="1" stop-color="#6951CB"/>
</linearGradient>
</defs>
</svg>
