<svg width="786" height="336" viewBox="0 0 786 336" fill="none" xmlns="http://www.w3.org/2000/svg">
<g clip-path="url(#clip0_3236_14541)">
<path d="M45.6254 254.001H47.5154V270.489H45.6254V254.001ZM47.0834 260.319H50.0714V261.885H47.0834V260.319ZM35.4374 264.891H36.7694C39.6854 264.891 41.8454 264.783 44.2754 264.333L44.4734 265.917C41.9534 266.367 39.7574 266.457 36.7694 266.457H35.4374V264.891ZM35.4374 255.567H43.0874V257.097H37.3094V265.611H35.4374V255.567ZM63.188 256.287H66.032V257.835H63.188V256.287ZM63.188 259.815H66.032V261.363H63.188V259.815ZM55.502 254.955C58.004 254.955 59.876 256.575 59.876 258.897C59.876 261.183 58.004 262.803 55.502 262.803C53 262.803 51.146 261.183 51.146 258.897C51.146 256.575 53 254.955 55.502 254.955ZM55.502 256.539C54.044 256.539 52.982 257.475 52.982 258.897C52.982 260.319 54.044 261.219 55.502 261.219C56.96 261.219 58.04 260.319 58.04 258.897C58.04 257.475 56.96 256.539 55.502 256.539ZM61.874 254.019H63.764V263.703H61.874V254.019ZM58.472 264.135C61.838 264.135 63.944 265.323 63.944 267.303C63.944 269.283 61.838 270.453 58.472 270.453C55.088 270.453 52.982 269.283 52.982 267.303C52.982 265.323 55.088 264.135 58.472 264.135ZM58.472 265.647C56.186 265.647 54.854 266.223 54.854 267.303C54.854 268.383 56.186 268.959 58.472 268.959C60.758 268.959 62.072 268.383 62.072 267.303C62.072 266.223 60.758 265.647 58.472 265.647ZM78.0325 254.037H79.9225V266.349H78.0325V254.037ZM79.3645 259.257H82.2445V260.823H79.3645V259.257ZM67.1065 255.909H76.7905V257.403H67.1065V255.909ZM71.9485 258.159C74.2885 258.159 75.9265 259.419 75.9265 261.273C75.9265 263.145 74.2885 264.387 71.9485 264.387C69.5905 264.387 67.9525 263.145 67.9525 261.273C67.9525 259.419 69.5905 258.159 71.9485 258.159ZM71.9485 259.617C70.6525 259.617 69.7705 260.247 69.7705 261.273C69.7705 262.317 70.6525 262.929 71.9485 262.929C73.2445 262.929 74.1265 262.317 74.1265 261.273C74.1265 260.247 73.2445 259.617 71.9485 259.617ZM71.0125 254.019H72.8845V256.647H71.0125V254.019ZM69.5185 268.617H80.5885V270.147H69.5185V268.617ZM69.5185 265.395H71.4085V269.265H69.5185V265.395ZM88.8341 258.375H100.084V259.887H88.8341V258.375ZM88.8341 254.325H90.7061V259.059H88.8341V254.325ZM86.8901 261.831H101.758V263.343H86.8901V261.831ZM93.3881 259.221H95.2601V262.497H93.3881V259.221ZM94.2881 264.423C97.8161 264.423 99.9581 265.521 99.9581 267.447C99.9581 269.355 97.8161 270.453 94.2881 270.453C90.7601 270.453 88.6181 269.355 88.6181 267.447C88.6181 265.521 90.7601 264.423 94.2881 264.423ZM94.2881 265.881C91.8761 265.881 90.5261 266.421 90.5261 267.447C90.5261 268.437 91.8761 268.995 94.2881 268.995C96.7001 268.995 98.0501 268.437 98.0501 267.447C98.0501 266.421 96.7001 265.881 94.2881 265.881ZM109.493 254.559H111.149V255.405C111.149 258.555 108.251 261.003 104.453 261.615L103.715 260.085C107.045 259.617 109.493 257.565 109.493 255.405V254.559ZM109.835 254.559H111.473V255.405C111.473 257.529 113.939 259.617 117.269 260.085L116.531 261.615C112.733 261.003 109.835 258.537 109.835 255.405V254.559ZM109.493 264.315H111.365V270.471H109.493V264.315ZM103.049 263.127H117.917V264.675H103.049V263.127ZM123.077 255.027H124.643V256.935C124.643 260.175 122.987 262.857 120.053 263.919L119.045 262.443C121.673 261.543 123.077 259.347 123.077 256.935V255.027ZM123.437 255.027H124.967V256.971C124.967 259.131 126.389 261.219 128.891 262.083L127.937 263.559C125.075 262.569 123.437 259.959 123.437 256.971V255.027ZM130.151 254.019H132.041V266.115H130.151V254.019ZM131.483 258.933H134.363V260.499H131.483V258.933ZM121.655 268.617H132.707V270.147H121.655V268.617ZM121.655 264.963H123.563V269.391H121.655V264.963ZM141.828 261.849H143.7V264.279H141.828V261.849ZM135.348 260.769H150.216V262.263H135.348V260.769ZM137.238 254.541H148.308V259.617H137.238V254.541ZM146.454 256.017H139.092V258.141H146.454V256.017ZM137.112 263.613H148.362V267.555H139.002V269.301H137.13V266.205H146.508V265.035H137.112V263.613ZM137.13 268.869H148.83V270.327H137.13V268.869ZM158.767 264.297H160.693V270.471H158.767V264.297ZM164.437 264.297H166.363V270.471H164.437V264.297ZM155.149 263.289H170.053V264.819H155.149V263.289ZM162.565 254.631C166.039 254.631 168.397 256.035 168.397 258.267C168.397 260.463 166.039 261.885 162.565 261.885C159.109 261.885 156.733 260.463 156.733 258.267C156.733 256.035 159.109 254.631 162.565 254.631ZM162.565 256.143C160.207 256.143 158.659 256.935 158.659 258.267C158.659 259.581 160.207 260.373 162.565 260.373C164.923 260.373 166.471 259.581 166.471 258.267C166.471 256.935 164.923 256.143 162.565 256.143ZM171.308 262.623H186.176V264.117H171.308V262.623ZM177.788 260.661H179.66V263.217H177.788V260.661ZM173.216 259.833H184.502V261.273H173.216V259.833ZM173.216 254.469H184.394V255.927H175.088V260.643H173.216V254.469ZM174.548 257.151H183.998V258.555H174.548V257.151ZM178.724 265.125C182.324 265.125 184.394 266.061 184.394 267.789C184.394 269.517 182.324 270.453 178.724 270.453C175.124 270.453 173.054 269.517 173.054 267.789C173.054 266.061 175.124 265.125 178.724 265.125ZM178.724 266.529C176.24 266.529 174.944 266.961 174.944 267.789C174.944 268.635 176.24 269.049 178.724 269.049C181.208 269.049 182.504 268.635 182.504 267.789C182.504 266.961 181.208 266.529 178.724 266.529ZM78.0755 290.333C81.6035 290.333 83.8535 291.485 83.8535 293.411C83.8535 295.301 81.6035 296.453 78.0755 296.453C74.5655 296.453 72.3155 295.301 72.3155 293.411C72.3155 291.485 74.5655 290.333 78.0755 290.333ZM78.0755 291.773C75.6635 291.773 74.1875 292.367 74.1875 293.411C74.1875 294.419 75.6635 295.013 78.0755 295.013C80.5055 295.013 81.9815 294.419 81.9815 293.411C81.9815 292.367 80.5055 291.773 78.0755 291.773ZM72.4595 280.811H82.9715V282.305H72.4595V280.811ZM70.7495 287.543H85.5635V289.037H70.7495V287.543ZM76.5635 284.501H78.4355V287.939H76.5635V284.501ZM81.8735 280.811H83.7455V282.179C83.7455 283.493 83.7455 284.861 83.2955 286.553L81.4235 286.355C81.8735 284.663 81.8735 283.457 81.8735 282.179V280.811ZM94.2341 290.333C97.7621 290.333 100.012 291.485 100.012 293.411C100.012 295.301 97.7621 296.453 94.2341 296.453C90.7241 296.453 88.4741 295.301 88.4741 293.411C88.4741 291.485 90.7241 290.333 94.2341 290.333ZM94.2341 291.773C91.8221 291.773 90.3461 292.367 90.3461 293.411C90.3461 294.419 91.8221 295.013 94.2341 295.013C96.6641 295.013 98.1401 294.419 98.1401 293.411C98.1401 292.367 96.6641 291.773 94.2341 291.773ZM88.6181 280.811H99.1301V282.305H88.6181V280.811ZM86.9081 287.543H101.722V289.037H86.9081V287.543ZM92.7221 284.501H94.5941V287.939H92.7221V284.501ZM98.0321 280.811H99.9041V282.179C99.9041 283.493 99.9041 284.861 99.4541 286.553L97.5821 286.355C98.0321 284.663 98.0321 283.457 98.0321 282.179V280.811ZM115.271 280.019H117.071V296.471H115.271V280.019ZM108.701 286.175H112.697V287.705H108.701V286.175ZM111.923 280.361H113.687V295.679H111.923V280.361ZM103.589 291.089H104.687C107.135 291.089 108.683 291.017 110.501 290.639L110.663 292.187C108.809 292.583 107.207 292.655 104.687 292.655H103.589V291.089ZM103.589 281.963H109.817V283.475H105.443V291.719H103.589V281.963ZM130.853 280.001H132.743V296.489H130.853V280.001ZM123.977 281.225C126.443 281.225 128.225 283.475 128.225 287.021C128.225 290.567 126.443 292.835 123.977 292.835C121.529 292.835 119.747 290.567 119.747 287.021C119.747 283.475 121.529 281.225 123.977 281.225ZM123.977 282.935C122.537 282.935 121.547 284.465 121.547 287.021C121.547 289.595 122.537 291.143 123.977 291.143C125.417 291.143 126.407 289.595 126.407 287.021C126.407 284.465 125.417 282.935 123.977 282.935ZM147.138 280.001H149.01V296.489H147.138V280.001ZM143.988 286.031H147.39V287.579H143.988V286.031ZM136.104 291.107H137.382C140.316 291.107 142.296 291.053 144.618 290.657L144.798 292.169C142.422 292.565 140.37 292.637 137.382 292.637H136.104V291.107ZM136.104 281.459H143.718V283.007H137.976V291.611H136.104V281.459ZM137.526 286.067H143.07V287.561H137.526V286.067Z" fill="#4D4D4D"/>
<circle cx="111.241" cy="127.053" r="97.1821" fill="#2F5BC1"/>
<g clip-path="url(#clip1_3236_14541)">
<path fill-rule="evenodd" clip-rule="evenodd" d="M68.8629 93.3764C68.8665 91.6144 70.2967 90.1879 72.061 90.1843H121.306L117.739 97.8118C117.234 98.9548 116.092 99.6833 114.841 99.6581H72.061C70.9309 99.6581 69.8242 99.9739 68.8629 100.568V93.3764ZM80.3149 167.952C80.3149 167.952 80.3167 167.934 80.3149 167.927V148.816H88.964V167.927C88.964 167.94 88.964 167.952 88.964 167.952H91.8387V159.158H95.6674V167.925C95.6674 167.938 95.6674 167.95 95.6674 167.95H98.5402V133.689H107.193V167.95H110.066C110.066 167.95 110.066 167.938 110.066 167.925V159.158H113.893V167.925C113.893 167.938 113.893 167.95 113.893 167.95H116.766V142.712H125.416V167.95H128.289C128.289 167.95 128.289 167.938 128.289 167.925V159.158H132.118V167.952H134.993C134.993 167.952 134.993 167.94 134.993 167.927V127.229H143.642V167.927C143.642 167.94 143.642 167.952 143.645 167.952H156.535C157.329 167.952 157.972 168.595 157.972 169.388C157.972 170.181 157.329 170.823 156.535 170.823H67.4256C66.6315 170.823 65.9883 170.181 65.9883 169.388C65.9883 168.595 66.6315 167.952 67.4256 167.952H80.3149ZM155.103 153.096V85.006C155.103 83.2404 153.673 81.805 151.905 81.8014H130.427C129.177 81.7763 128.034 82.5048 127.528 83.6477L120.345 99.0301C119.356 101.173 117.204 102.542 114.841 102.529H72.061C70.5536 102.534 69.2528 103.584 68.9312 105.055C68.9168 105.134 68.8935 105.211 68.8629 105.287V153.097C68.8629 154.859 70.2931 156.288 72.0574 156.289H77.4438V147.381C77.4438 146.59 78.0852 145.945 78.8793 145.945H90.4049C91.1991 145.945 91.8423 146.588 91.8423 147.381V156.289H95.6709V132.255C95.6709 131.464 96.3124 130.82 97.1047 130.82H108.632C109.426 130.82 110.069 131.462 110.069 132.255V156.289H113.896V141.278C113.896 140.485 114.539 139.843 115.334 139.843H126.859C127.652 139.843 128.297 140.484 128.297 141.275V156.288H132.125V125.794C132.125 125.001 132.768 124.358 133.563 124.358H145.086C145.879 124.358 146.524 124.999 146.524 125.79V156.288H151.905C153.669 156.288 155.101 154.863 155.103 153.101V153.097V153.096ZM142.779 104.465C142.779 103.674 142.138 103.03 141.344 103.03C141.344 103.03 141.344 103.03 141.342 103.03H132.422C131.628 103.03 130.984 103.672 130.984 104.465C130.984 105.258 131.628 105.9 132.422 105.9H137.627L120.887 123.91L103.684 112.091C103.107 111.694 102.329 111.77 101.841 112.27L83.6135 130.895C83.0602 131.458 83.0692 132.363 83.6333 132.917C83.6333 132.917 83.6351 132.919 83.6369 132.921C83.9064 133.183 84.2657 133.33 84.6412 133.332C85.0293 133.335 85.4012 133.177 85.6671 132.896L103.05 115.143L120.282 126.974C120.871 127.371 121.66 127.283 122.148 126.77L139.903 107.659V113.375C139.903 114.169 140.546 114.811 141.34 114.811C142.134 114.811 142.778 114.169 142.778 113.375V104.467L142.779 104.465Z" fill="white"/>
</g>
<path d="M603.937 264.458C607.465 264.458 609.715 265.61 609.715 267.536C609.715 269.426 607.465 270.578 603.937 270.578C600.427 270.578 598.177 269.426 598.177 267.536C598.177 265.61 600.427 264.458 603.937 264.458ZM603.937 265.898C601.525 265.898 600.049 266.492 600.049 267.536C600.049 268.544 601.525 269.138 603.937 269.138C606.367 269.138 607.843 268.544 607.843 267.536C607.843 266.492 606.367 265.898 603.937 265.898ZM598.321 254.936H608.833V256.43H598.321V254.936ZM596.611 261.668H611.425V263.162H596.611V261.668ZM602.425 258.626H604.297V262.064H602.425V258.626ZM607.735 254.936H609.607V256.304C609.607 257.618 609.607 258.986 609.157 260.678L607.285 260.48C607.735 258.788 607.735 257.582 607.735 256.304V254.936ZM620.095 264.458C623.623 264.458 625.873 265.61 625.873 267.536C625.873 269.426 623.623 270.578 620.095 270.578C616.585 270.578 614.335 269.426 614.335 267.536C614.335 265.61 616.585 264.458 620.095 264.458ZM620.095 265.898C617.683 265.898 616.207 266.492 616.207 267.536C616.207 268.544 617.683 269.138 620.095 269.138C622.525 269.138 624.001 268.544 624.001 267.536C624.001 266.492 622.525 265.898 620.095 265.898ZM614.479 254.936H624.991V256.43H614.479V254.936ZM612.769 261.668H627.583V263.162H612.769V261.668ZM618.583 258.626H620.455V262.064H618.583V258.626ZM623.893 254.936H625.765V256.304C625.765 257.618 625.765 258.986 625.315 260.678L623.443 260.48C623.893 258.788 623.893 257.582 623.893 256.304V254.936ZM641.132 254.144H642.932V270.596H641.132V254.144ZM634.562 260.3H638.558V261.83H634.562V260.3ZM637.784 254.486H639.548V269.804H637.784V254.486ZM629.45 265.214H630.548C632.996 265.214 634.544 265.142 636.362 264.764L636.524 266.312C634.67 266.708 633.068 266.78 630.548 266.78H629.45V265.214ZM629.45 256.088H635.678V257.6H631.304V265.844H629.45V256.088ZM656.715 254.126H658.605V270.614H656.715V254.126ZM649.839 255.35C652.305 255.35 654.087 257.6 654.087 261.146C654.087 264.692 652.305 266.96 649.839 266.96C647.391 266.96 645.609 264.692 645.609 261.146C645.609 257.6 647.391 255.35 649.839 255.35ZM649.839 257.06C648.399 257.06 647.409 258.59 647.409 261.146C647.409 263.72 648.399 265.268 649.839 265.268C651.279 265.268 652.269 263.72 652.269 261.146C652.269 258.59 651.279 257.06 649.839 257.06ZM672.999 254.126H674.871V270.614H672.999V254.126ZM669.849 260.156H673.251V261.704H669.849V260.156ZM661.965 265.232H663.243C666.177 265.232 668.157 265.178 670.479 264.782L670.659 266.294C668.283 266.69 666.231 266.762 663.243 266.762H661.965V265.232ZM661.965 255.584H669.579V257.132H663.837V265.736H661.965V255.584ZM663.387 260.192H668.931V261.686H663.387V260.192ZM677.368 261.668H692.272V263.072H677.368V261.668ZM679.096 264.17H690.454V267.86H681.004V269.552H679.132V266.618H688.6V265.484H679.096V264.17ZM679.132 269.102H690.958V270.416H679.132V269.102ZM679.24 254.54H690.4V258.158H681.13V259.742H679.258V256.934H688.546V255.836H679.24V254.54ZM679.258 259.328H690.706V260.642H679.258V259.328ZM708.167 254.144H710.057V263.828H708.167V254.144ZM709.337 258.194H712.307V259.76H709.337V258.194ZM699.221 264.512H710.057V268.004H701.111V269.57H699.257V266.816H708.203V265.79H699.221V264.512ZM699.257 269.156H710.651V270.452H699.257V269.156ZM701.219 260.822H703.109V263.018H701.219V260.822ZM697.241 263.558L697.043 262.226C699.959 262.226 703.937 262.208 707.303 261.758L707.447 262.928C703.955 263.54 700.103 263.558 697.241 263.558ZM697.457 255.296H706.853V256.592H697.457V255.296ZM702.155 257.006C704.531 257.006 706.061 257.816 706.061 259.166C706.061 260.534 704.531 261.344 702.155 261.344C699.761 261.344 698.249 260.534 698.249 259.166C698.249 257.816 699.761 257.006 702.155 257.006ZM702.155 258.212C700.841 258.212 700.031 258.554 700.031 259.166C700.031 259.778 700.841 260.138 702.155 260.138C703.469 260.138 704.279 259.778 704.279 259.166C704.279 258.554 703.469 258.212 702.155 258.212ZM701.219 254H703.109V255.998H701.219V254ZM716.856 259.688H718.728V262.748H716.856V259.688ZM722.778 259.688H724.65V262.748H722.778V259.688ZM713.328 262.136H728.196V263.63H713.328V262.136ZM720.744 264.692C724.272 264.692 726.414 265.754 726.414 267.626C726.414 269.516 724.272 270.578 720.744 270.578C717.198 270.578 715.074 269.516 715.074 267.626C715.074 265.754 717.198 264.692 720.744 264.692ZM720.744 266.132C718.332 266.132 716.982 266.654 716.982 267.626C716.982 268.616 718.332 269.138 720.744 269.138C723.156 269.138 724.506 268.616 724.506 267.626C724.506 266.654 723.156 266.132 720.744 266.132ZM720.762 254.414C724.362 254.414 726.63 255.584 726.63 257.528C726.63 259.472 724.362 260.606 720.762 260.606C717.162 260.606 714.912 259.472 714.912 257.528C714.912 255.584 717.162 254.414 720.762 254.414ZM720.762 255.872C718.314 255.872 716.856 256.448 716.856 257.528C716.856 258.59 718.314 259.166 720.762 259.166C723.228 259.166 724.686 258.59 724.686 257.528C724.686 256.448 723.228 255.872 720.762 255.872ZM740.449 254.162H742.339V266.474H740.449V254.162ZM741.781 259.382H744.661V260.948H741.781V259.382ZM729.523 256.034H739.207V257.528H729.523V256.034ZM734.365 258.284C736.705 258.284 738.343 259.544 738.343 261.398C738.343 263.27 736.705 264.512 734.365 264.512C732.007 264.512 730.369 263.27 730.369 261.398C730.369 259.544 732.007 258.284 734.365 258.284ZM734.365 259.742C733.069 259.742 732.187 260.372 732.187 261.398C732.187 262.442 733.069 263.054 734.365 263.054C735.661 263.054 736.543 262.442 736.543 261.398C736.543 260.372 735.661 259.742 734.365 259.742ZM733.429 254.144H735.301V256.772H733.429V254.144ZM731.935 268.742H743.005V270.272H731.935V268.742ZM731.935 265.52H733.825V269.39H731.935V265.52ZM598.029 281.638H599.487V284.608C599.487 288.172 598.209 291.628 595.707 293.158L594.519 291.754C596.877 290.368 598.029 287.416 598.029 284.608V281.638ZM598.371 281.638H599.847V284.482C599.847 287.254 600.891 289.99 603.123 291.214L602.007 292.708C599.487 291.268 598.371 287.992 598.371 284.482V281.638ZM607.011 280.144H608.811V296.596H607.011V280.144ZM604.671 286.66H607.641V288.19H604.671V286.66ZM603.411 280.45H605.193V295.804H603.411V280.45ZM610.93 293.122H625.834V294.67H610.93V293.122ZM617.41 289.774H619.282V293.752H617.41V289.774ZM612.676 281.296H624.052V286.498H614.584V289.558H612.712V285.004H622.18V282.808H612.676V281.296ZM612.712 288.784H624.43V290.314H612.712V288.784ZM627.071 288.334H641.975V289.846H627.071V288.334ZM633.695 289.306H635.603V292.96H633.695V289.306ZM628.907 294.724H640.337V296.272H628.907V294.724ZM628.907 291.412H630.797V295.138H628.907V291.412ZM634.505 280.504C638.015 280.504 640.337 281.8 640.337 283.87C640.337 285.922 638.015 287.218 634.505 287.218C630.995 287.218 628.673 285.922 628.673 283.87C628.673 281.8 630.995 280.504 634.505 280.504ZM634.505 282.016C632.201 282.016 630.689 282.7 630.689 283.87C630.689 285.022 632.201 285.688 634.505 285.688C636.827 285.688 638.321 285.022 638.321 283.87C638.321 282.7 636.827 282.016 634.505 282.016ZM648.834 284.5H660.084V286.012H648.834V284.5ZM648.834 280.45H650.706V285.184H648.834V280.45ZM646.89 287.956H661.758V289.468H646.89V287.956ZM653.388 285.346H655.26V288.622H653.388V285.346ZM654.288 290.548C657.816 290.548 659.958 291.646 659.958 293.572C659.958 295.48 657.816 296.578 654.288 296.578C650.76 296.578 648.618 295.48 648.618 293.572C648.618 291.646 650.76 290.548 654.288 290.548ZM654.288 292.006C651.876 292.006 650.526 292.546 650.526 293.572C650.526 294.562 651.876 295.12 654.288 295.12C656.7 295.12 658.05 294.562 658.05 293.572C658.05 292.546 656.7 292.006 654.288 292.006ZM669.493 280.684H671.149V281.53C671.149 284.68 668.251 287.128 664.453 287.74L663.715 286.21C667.045 285.742 669.493 283.69 669.493 281.53V280.684ZM669.835 280.684H671.473V281.53C671.473 283.654 673.939 285.742 677.269 286.21L676.531 287.74C672.733 287.128 669.835 284.662 669.835 281.53V280.684ZM669.493 290.44H671.365V296.596H669.493V290.44ZM663.049 289.252H677.917V290.8H663.049V289.252ZM683.077 281.152H684.643V283.06C684.643 286.3 682.987 288.982 680.053 290.044L679.045 288.568C681.673 287.668 683.077 285.472 683.077 283.06V281.152ZM683.437 281.152H684.967V283.096C684.967 285.256 686.389 287.344 688.891 288.208L687.937 289.684C685.075 288.694 683.437 286.084 683.437 283.096V281.152ZM690.151 280.144H692.041V292.24H690.151V280.144ZM691.483 285.058H694.363V286.624H691.483V285.058ZM681.655 294.742H692.707V296.272H681.655V294.742ZM681.655 291.088H683.563V295.516H681.655V291.088ZM701.828 287.974H703.7V290.404H701.828V287.974ZM695.348 286.894H710.216V288.388H695.348V286.894ZM697.238 280.666H708.308V285.742H697.238V280.666ZM706.454 282.142H699.092V284.266H706.454V282.142ZM697.112 289.738H708.362V293.68H699.002V295.426H697.13V292.33H706.508V291.16H697.112V289.738ZM697.13 294.994H708.83V296.452H697.13V294.994ZM718.767 290.422H720.693V296.596H718.767V290.422ZM724.437 290.422H726.363V296.596H724.437V290.422ZM715.149 289.414H730.053V290.944H715.149V289.414ZM722.565 280.756C726.039 280.756 728.397 282.16 728.397 284.392C728.397 286.588 726.039 288.01 722.565 288.01C719.109 288.01 716.733 286.588 716.733 284.392C716.733 282.16 719.109 280.756 722.565 280.756ZM722.565 282.268C720.207 282.268 718.659 283.06 718.659 284.392C718.659 285.706 720.207 286.498 722.565 286.498C724.923 286.498 726.471 285.706 726.471 284.392C726.471 283.06 724.923 282.268 722.565 282.268ZM731.308 288.748H746.176V290.242H731.308V288.748ZM737.788 286.786H739.66V289.342H737.788V286.786ZM733.216 285.958H744.502V287.398H733.216V285.958ZM733.216 280.594H744.394V282.052H735.088V286.768H733.216V280.594ZM734.548 283.276H743.998V284.68H734.548V283.276ZM738.724 291.25C742.324 291.25 744.394 292.186 744.394 293.914C744.394 295.642 742.324 296.578 738.724 296.578C735.124 296.578 733.054 295.642 733.054 293.914C733.054 292.186 735.124 291.25 738.724 291.25ZM738.724 292.654C736.24 292.654 734.944 293.086 734.944 293.914C734.944 294.76 736.24 295.174 738.724 295.174C741.208 295.174 742.504 294.76 742.504 293.914C742.504 293.086 741.208 292.654 738.724 292.654ZM629.72 307.386H636.884V308.916H629.72V307.386ZM632.006 311.13H633.86V315.234H632.006V311.13ZM636.146 307.386H638V308.322C638 309.438 638 311.076 637.586 313.182L635.75 312.984C636.146 310.878 636.146 309.42 636.146 308.322V307.386ZM639.944 306.144H641.852V318.492H639.944V306.144ZM641.042 311.346H644.03V312.912H641.042V311.346ZM631.196 320.742H642.374V322.272H631.196V320.742ZM631.196 317.376H633.086V321.21H631.196V317.376ZM628.91 316.062L628.73 314.55C631.628 314.55 635.624 314.496 638.936 314.028L639.062 315.378C635.66 315.99 631.772 316.062 628.91 316.062ZM645.717 314.64H646.923C649.893 314.64 651.603 314.568 653.619 314.208L653.817 315.738C651.747 316.098 649.965 316.17 646.923 316.17H645.717V314.64ZM645.681 307.296H652.827V312.318H647.589V315.54H645.717V310.878H650.955V308.808H645.681V307.296ZM656.805 306.162H658.695V318.276H656.805V306.162ZM653.871 308.79H657.201V310.302H653.871V308.79ZM647.913 320.688H659.145V322.218H647.913V320.688ZM647.913 317.376H649.785V321.3H647.913V317.376ZM653.871 312.48H657.201V314.01H653.871V312.48ZM673.114 311.526H677.578V313.056H673.114V311.526ZM668.92 307.494H670.45V310.194C670.45 314.064 668.758 317.736 665.932 319.194L664.744 317.682C667.336 316.44 668.92 313.272 668.92 310.194V307.494ZM669.298 307.494H670.81V310.194C670.81 313.236 672.376 316.224 674.914 317.394L673.78 318.906C670.936 317.484 669.298 314.01 669.298 310.194V307.494ZM676.642 306.126H678.514V322.614H676.642V306.126ZM692.675 306.126H694.565V322.614H692.675V306.126ZM681.893 307.494H683.765V311.688H687.923V307.494H689.795V318.708H681.893V307.494ZM683.765 313.164V317.178H687.923V313.164H683.765ZM703.559 307.188H705.197V308.43C705.197 311.994 702.209 314.946 698.501 315.738L697.673 314.172C700.931 313.578 703.559 311.022 703.559 308.43V307.188ZM703.919 307.188H705.557V308.43C705.557 311.058 708.185 313.578 711.443 314.172L710.615 315.738C706.907 314.946 703.919 312.03 703.919 308.43V307.188ZM697.187 318.924H712.091V320.472H697.187V318.924Z" fill="#4D4D4D"/>
<ellipse cx="671.241" cy="127.182" rx="97.1821" ry="97.1821" fill="#6951CB"/>
<g clip-path="url(#clip2_3236_14541)">
<path fill-rule="evenodd" clip-rule="evenodd" d="M635.584 109.645C636.023 104.743 640.075 100.992 645.076 100.992C650.078 100.992 654.367 105.031 654.597 110.081H683.509V78.6171C683.509 76.353 681.668 74.5117 679.404 74.5117H637.426C635.162 74.5117 633.32 76.353 633.32 78.6171V105.976C633.32 107.547 634.21 108.957 635.584 109.645Z" fill="white"/>
<path fill-rule="evenodd" clip-rule="evenodd" d="M681.169 156.398H676.457V163.41C676.457 164.884 675.26 166.081 673.786 166.081H668.7C667.226 166.081 666.029 164.881 666.029 163.41V156.398H661.317C660.323 156.398 659.516 157.206 659.516 158.2V178.054C659.516 179.048 660.323 179.855 661.317 179.855H681.171C682.165 179.855 682.973 179.048 682.973 178.054V158.2C682.973 157.206 682.165 156.398 681.169 156.398Z" fill="white"/>
<path fill-rule="evenodd" clip-rule="evenodd" d="M697.394 100.988C702.387 100.988 706.532 104.894 706.898 109.81C708.248 109.263 709.151 107.955 709.151 106.461V97.5976H698.897C697.403 97.5976 695.996 97.0134 694.936 95.9533C693.873 94.8932 693.289 93.4879 693.289 91.9896V80.3906H686.605V110.077H687.874C688.106 105.027 692.287 100.988 697.394 100.988Z" fill="white"/>
<path fill-rule="evenodd" clip-rule="evenodd" d="M722.106 156.398H717.395V163.41C717.395 164.884 716.197 166.081 714.723 166.081H709.638C708.164 166.081 706.966 164.881 706.966 163.41V156.398H702.255C701.261 156.398 700.453 157.206 700.453 158.2V178.054C700.453 179.048 701.261 179.855 702.255 179.855H722.109C723.102 179.855 723.91 179.048 723.91 178.054V158.2C723.91 157.206 723.102 156.398 722.106 156.398Z" fill="white"/>
<path fill-rule="evenodd" clip-rule="evenodd" d="M698.9 94.5015H708.946C708.828 94.0987 708.662 93.7026 708.441 93.302L702.866 83.2898C701.839 81.4463 700.042 80.3906 697.933 80.3906H696.391V91.9918C696.391 92.6602 696.652 93.2887 697.128 93.7623C697.606 94.2381 698.234 94.5015 698.9 94.5015Z" fill="white"/>
<path fill-rule="evenodd" clip-rule="evenodd" d="M690.961 110.523C690.961 114.071 693.847 116.957 697.394 116.957C700.942 116.957 703.828 114.071 703.828 110.523C703.828 106.976 700.942 104.09 697.394 104.09C693.847 104.09 690.961 106.976 690.961 110.523ZM700.05 110.523C700.05 111.988 698.86 113.179 697.394 113.179C695.929 113.179 694.739 111.988 694.739 110.523C694.739 109.058 695.929 107.868 697.394 107.868C698.86 107.868 700.05 109.058 700.05 110.523Z" fill="white"/>
<path fill-rule="evenodd" clip-rule="evenodd" d="M632.413 162.969V156.398H628.18L628.195 162.98L632.413 162.969Z" fill="white"/>
<path fill-rule="evenodd" clip-rule="evenodd" d="M640.223 156.398H635.512V163.41C635.512 164.884 634.314 166.081 632.841 166.081H627.755C626.281 166.081 625.084 164.881 625.084 163.41V156.398H620.372C619.378 156.398 618.57 157.206 618.57 158.2V178.054C618.57 179.048 619.378 179.855 620.372 179.855H640.226C641.219 179.855 642.027 179.048 642.027 178.054V158.2C642.027 157.206 641.219 156.398 640.223 156.398Z" fill="white"/>
<path fill-rule="evenodd" clip-rule="evenodd" d="M638.648 110.523C638.648 114.071 641.534 116.957 645.082 116.957C648.63 116.957 651.516 114.071 651.516 110.523C651.516 106.976 648.63 104.09 645.082 104.09C641.534 104.09 638.648 106.976 638.648 110.523ZM647.738 110.523C647.738 111.988 646.547 113.179 645.082 113.179C643.617 113.179 642.426 111.988 642.426 110.523C642.426 109.058 643.617 107.868 645.082 107.868C646.547 107.868 647.738 109.058 647.738 110.523Z" fill="white"/>
<path fill-rule="evenodd" clip-rule="evenodd" d="M669.14 162.98L673.359 162.969V156.398H669.125L669.14 162.98Z" fill="white"/>
<path fill-rule="evenodd" clip-rule="evenodd" d="M710.078 162.98L714.296 162.969V156.398H710.062L710.078 162.98Z" fill="white"/>
<path fill-rule="evenodd" clip-rule="evenodd" d="M709.97 131.691L672.787 131.663V115.768C672.787 114.914 672.092 114.219 671.238 114.219C670.384 114.219 669.689 114.914 669.689 115.768V131.66L632.511 131.632C630.435 131.632 628.746 133.316 628.746 135.387V150.709C628.746 151.563 629.441 152.258 630.295 152.258C631.15 152.258 631.844 151.563 631.844 150.709V135.387C631.844 135.02 632.143 134.721 632.511 134.721L669.689 134.75V150.709C669.689 151.563 670.384 152.258 671.238 152.258C672.092 152.258 672.787 151.563 672.787 150.709V134.752L709.97 134.781C710.335 134.781 710.632 135.08 710.632 135.449V150.709C710.632 151.563 711.327 152.258 712.181 152.258C713.035 152.258 713.73 151.563 713.73 150.709V135.449C713.73 133.378 712.044 131.691 709.97 131.691Z" fill="white"/>
</g>
<path d="M253 143H529" stroke="#2F5BC1" stroke-linecap="square"/>
<path d="M539.187 142.5L529.297 148.995L529.297 136.005L539.187 142.5Z" fill="#2F5BC1"/>
<path d="M394.5 143C394.5 144.933 392.933 146.5 391 146.5C389.067 146.5 387.5 144.933 387.5 143C387.5 141.067 389.067 139.5 391 139.5C392.933 139.5 394.5 141.067 394.5 143Z" fill="white" stroke="#2F5BC1"/>
<rect x="275" y="19" width="231" height="47.1271" rx="23.5635" fill="#EDF4FF"/>
<path d="M370.496 43.5297H368.196V39.6366H365.625V37.7716H368.196V33.7518H370.496V43.5297ZM356.499 41.7189C357.362 41.4292 358.089 41.0158 358.681 40.4786C359.272 39.9414 359.716 39.3378 360.012 38.6679C360.307 37.9979 360.464 37.3068 360.482 36.5946H357.169V34.7477H366.114V36.5946H362.836C362.854 37.2585 363.002 37.8983 363.28 38.514C363.558 39.1236 363.977 39.6728 364.538 40.1617C365.106 40.6506 365.8 41.0309 366.621 41.3025L365.48 43.1132C364.599 42.8295 363.838 42.407 363.198 41.8457C362.565 41.2783 362.064 40.6144 361.695 39.8539C361.321 40.717 360.799 41.4685 360.129 42.1082C359.459 42.742 358.647 43.2218 357.694 43.5478L356.499 41.7189ZM359.197 47.0787C359.197 46.4208 359.423 45.8534 359.876 45.3766C360.334 44.8937 360.989 44.5256 361.84 44.2721C362.691 44.0186 363.699 43.8918 364.864 43.8918C366.035 43.8918 367.046 44.0186 367.897 44.2721C368.748 44.5256 369.403 44.8907 369.862 45.3676C370.321 45.8444 370.55 46.4148 370.55 47.0787C370.55 47.7426 370.321 48.31 369.862 48.7808C369.403 49.2576 368.748 49.6197 367.897 49.8672C367.046 50.1207 366.035 50.2474 364.864 50.2474C363.699 50.2474 362.691 50.1207 361.84 49.8672C360.989 49.6197 360.334 49.2576 359.876 48.7808C359.423 48.3039 359.197 47.7366 359.197 47.0787ZM361.496 47.0787C361.496 47.5434 361.783 47.8965 362.356 48.138C362.93 48.3734 363.766 48.491 364.864 48.491C365.969 48.491 366.808 48.3734 367.381 48.138C367.955 47.9026 368.244 47.5495 368.25 47.0787C368.244 46.6139 367.958 46.2639 367.39 46.0285C366.829 45.787 366.008 45.6663 364.928 45.6663C362.64 45.6663 361.496 46.1371 361.496 47.0787ZM387.813 48.31H372.73V46.4268H379.085V43.3848H374.323V34.802H376.641V37.3551H383.83V34.802H386.129V43.3848H381.385V46.4268H387.813V48.31ZM383.83 41.5379V39.202H376.641V41.5379H383.83ZM400.647 44.0186C401.848 44.0186 402.889 44.1423 403.771 44.3898C404.652 44.6312 405.331 44.9873 405.808 45.4581C406.284 45.9228 406.526 46.4811 406.532 47.133C406.526 47.7728 406.284 48.3251 405.808 48.7898C405.331 49.2606 404.649 49.6167 403.762 49.8581C402.88 50.1056 401.842 50.2293 400.647 50.2293C399.458 50.2293 398.42 50.1056 397.533 49.8581C396.651 49.6167 395.972 49.2606 395.496 48.7898C395.019 48.3251 394.78 47.7728 394.78 47.133C394.78 46.4811 395.019 45.9228 395.496 45.4581C395.972 44.9873 396.651 44.6312 397.533 44.3898C398.42 44.1423 399.458 44.0186 400.647 44.0186ZM393.259 41.1033H398.873V38.2242H401.154V41.1033H408.216V42.9683H393.259V41.1033ZM394.943 34.4942H406.441V35.8341V36.3139C406.441 37.0382 406.411 37.7082 406.351 38.3238C406.29 38.9395 406.164 39.5823 405.971 40.2523L403.707 40.035C403.876 39.359 403.988 38.7433 404.042 38.188C404.096 37.6267 404.13 36.999 404.142 36.3049H394.943V34.4942ZM397.08 47.133C397.074 47.5736 397.379 47.9086 397.994 48.138C398.616 48.3613 399.5 48.4729 400.647 48.4729C401.794 48.4729 402.678 48.3613 403.3 48.138C403.921 47.9086 404.232 47.5736 404.232 47.133C404.232 46.6803 403.924 46.3363 403.309 46.1009C402.699 45.8595 401.833 45.7387 400.71 45.7387C399.54 45.7387 398.64 45.8564 398.012 46.0918C397.385 46.3272 397.074 46.6743 397.08 47.133ZM423.56 50.2293H421.333V41.8457H419.83V49.5051H417.675V34.1863H419.83V39.9988H421.333V33.7518H423.56V50.2293ZM409.146 45.2499C410.788 44.2841 412.01 43.1856 412.813 41.9543C413.622 40.723 414.105 39.2805 414.262 37.6267H409.979V35.7798H416.516C416.51 37.3974 416.32 38.8701 415.946 40.1979C415.577 41.5198 414.95 42.742 414.062 43.8646C413.181 44.9813 411.989 45.9741 410.486 46.8433L409.146 45.2499Z" fill="#2F5BC1"/>
<rect x="275" y="80.0352" width="231" height="47.1271" rx="23.5635" fill="#EDF4FF"/>
<path d="M317.232 100.762H312.543V102.41H318.934V104.257H303.869V102.41H310.243V100.762H305.77V95.0404H308.07V98.9154H317.232V100.762ZM305.589 108.204C305.589 107.559 305.819 107.006 306.277 106.548C306.742 106.089 307.406 105.742 308.269 105.506C309.138 105.265 310.17 105.144 311.366 105.144C312.555 105.144 313.578 105.265 314.435 105.506C315.292 105.742 315.95 106.089 316.408 106.548C316.867 107.006 317.1 107.559 317.106 108.204C317.1 108.85 316.867 109.402 316.408 109.861C315.95 110.32 315.292 110.667 314.435 110.902C313.578 111.144 312.555 111.264 311.366 111.264C310.17 111.264 309.138 111.144 308.269 110.902C307.406 110.667 306.742 110.32 306.277 109.861C305.819 109.402 305.589 108.85 305.589 108.204ZM307.943 108.204C307.937 108.633 308.221 108.959 308.794 109.182C309.374 109.399 310.231 109.508 311.366 109.508C312.482 109.508 313.33 109.399 313.91 109.182C314.489 108.959 314.782 108.633 314.788 108.204C314.782 107.347 313.665 106.919 311.438 106.919C310.261 106.919 309.383 107.024 308.803 107.236C308.224 107.441 307.937 107.764 307.943 108.204ZM328.737 96.0725C328.731 96.7425 328.952 97.4004 329.398 98.0462C329.851 98.686 330.512 99.2413 331.381 99.7121C332.25 100.177 333.288 100.485 334.495 100.636L333.59 102.501C332.178 102.295 330.949 101.885 329.905 101.269C328.867 100.648 328.073 99.8811 327.524 98.9697C326.969 99.8811 326.172 100.648 325.134 101.269C324.102 101.885 322.889 102.295 321.495 102.501L320.571 100.636C321.766 100.485 322.795 100.177 323.658 99.7121C324.527 99.2413 325.185 98.686 325.632 98.0462C326.079 97.4004 326.305 96.7425 326.311 96.0725V95.2758H328.737V96.0725ZM319.992 103.75H335.021V105.633H328.611V111.264H326.329V105.633H319.992V103.75ZM342.198 97.6116C342.192 98.3359 342.328 99.027 342.605 99.6849C342.889 100.343 343.318 100.928 343.891 101.441C344.471 101.954 345.192 102.35 346.055 102.627L344.842 104.438C343.961 104.142 343.203 103.714 342.569 103.152C341.942 102.591 341.444 101.924 341.075 101.152C340.701 101.997 340.182 102.727 339.518 103.343C338.854 103.958 338.058 104.426 337.128 104.746L335.842 102.917C336.748 102.639 337.499 102.229 338.097 101.686C338.7 101.143 339.147 100.521 339.437 99.8207C339.726 99.1145 339.874 98.3721 339.88 97.5935V95.8009H342.198V97.6116ZM338.486 105.669H340.84V109.128H349.803V110.975H338.486V105.669ZM346.87 94.7869H349.187V99.5491H351.415V101.505H349.187V106.864H346.87V94.7869ZM367.265 103.152H360.892V104.203H365.437V108.422H356.256V109.418H365.871V111.156H353.993V106.792H363.155V105.941H353.975V104.203H358.574V103.152H352.236V101.324H367.265V103.152ZM354.102 95.2577H365.364V100.454H354.102V95.2577ZM363.065 98.68V97.0503H356.365V98.68H363.065ZM387.795 105.814H384.264V111.264H381.91V105.814H378.542V111.264H376.17V105.814H372.712V103.949H387.795V105.814ZM374.233 99.0602C374.233 98.3118 374.483 97.6569 374.984 97.0956C375.485 96.5343 376.185 96.0997 377.085 95.7919C377.99 95.484 379.031 95.3301 380.208 95.3301C381.385 95.3301 382.426 95.484 383.332 95.7919C384.243 96.0997 384.952 96.5343 385.459 97.0956C385.966 97.6569 386.22 98.3118 386.22 99.0602C386.22 99.7905 385.966 100.43 385.459 100.98C384.952 101.523 384.243 101.942 383.332 102.238C382.426 102.534 381.385 102.682 380.208 102.682C379.037 102.682 377.999 102.534 377.094 102.238C376.188 101.942 375.485 101.523 374.984 100.98C374.483 100.43 374.233 99.7905 374.233 99.0602ZM376.605 99.0602C376.599 99.6336 376.916 100.077 377.555 100.391C378.201 100.705 379.085 100.865 380.208 100.871C381.337 100.865 382.221 100.705 382.861 100.391C383.507 100.077 383.83 99.6336 383.83 99.0602C383.83 98.4627 383.507 98.001 382.861 97.675C382.221 97.3491 381.337 97.1831 380.208 97.1771C379.085 97.1831 378.201 97.3491 377.555 97.675C376.916 98.001 376.599 98.4627 376.605 99.0602ZM403.881 105.09H388.816V103.279H395.19V102.265H390.699V95.1853H402.125V96.9598H393.017V97.8833H401.745V99.5491H393.017V100.491H402.27V102.265H397.508V103.279H403.881V105.09ZM390.572 108.548C390.572 107.969 390.796 107.477 391.242 107.073C391.695 106.668 392.353 106.363 393.216 106.158C394.079 105.947 395.123 105.844 396.349 105.85C397.556 105.844 398.585 105.947 399.436 106.158C400.293 106.363 400.948 106.671 401.401 107.082C401.853 107.486 402.083 107.975 402.089 108.548C402.083 109.43 401.579 110.103 400.577 110.567C399.581 111.038 398.171 111.271 396.349 111.264C394.496 111.271 393.068 111.038 392.066 110.567C391.07 110.103 390.572 109.43 390.572 108.548ZM392.89 108.548C392.884 108.898 393.159 109.155 393.714 109.318C394.275 109.481 395.154 109.562 396.349 109.562C397.514 109.562 398.374 109.481 398.929 109.318C399.484 109.155 399.765 108.898 399.771 108.548C399.765 108.21 399.49 107.96 398.947 107.797C398.404 107.634 397.571 107.553 396.448 107.553C395.217 107.553 394.315 107.634 393.741 107.797C393.168 107.954 392.884 108.204 392.89 108.548ZM423.234 104.565H420.934V100.672H418.363V98.8067H420.934V94.7869H423.234V104.565ZM409.237 102.754C410.1 102.464 410.827 102.051 411.419 101.514C412.01 100.977 412.454 100.373 412.75 99.703C413.045 99.0331 413.202 98.342 413.22 97.6298H409.907V95.7828H418.852V97.6298H415.574C415.593 98.2937 415.74 98.9335 416.018 99.5491C416.296 100.159 416.715 100.708 417.277 101.197C417.844 101.686 418.538 102.066 419.359 102.338L418.218 104.148C417.337 103.865 416.576 103.442 415.937 102.881C415.303 102.313 414.802 101.65 414.434 100.889C414.059 101.752 413.537 102.504 412.867 103.143C412.197 103.777 411.386 104.257 410.432 104.583L409.237 102.754ZM411.935 108.114C411.935 107.456 412.161 106.889 412.614 106.412C413.073 105.929 413.727 105.561 414.579 105.307C415.43 105.054 416.438 104.927 417.602 104.927C418.773 104.927 419.784 105.054 420.635 105.307C421.486 105.561 422.141 105.926 422.6 106.403C423.059 106.88 423.288 107.45 423.288 108.114C423.288 108.778 423.059 109.345 422.6 109.816C422.141 110.293 421.486 110.655 420.635 110.902C419.784 111.156 418.773 111.283 417.602 111.283C416.438 111.283 415.43 111.156 414.579 110.902C413.727 110.655 413.073 110.293 412.614 109.816C412.161 109.339 411.935 108.772 411.935 108.114ZM414.234 108.114C414.234 108.579 414.521 108.932 415.095 109.173C415.668 109.409 416.504 109.526 417.602 109.526C418.707 109.526 419.546 109.409 420.119 109.173C420.693 108.938 420.982 108.585 420.988 108.114C420.982 107.649 420.696 107.299 420.128 107.064C419.567 106.822 418.746 106.701 417.666 106.701C415.378 106.701 414.234 107.172 414.234 108.114ZM440.551 109.345H425.468V107.462H431.824V104.42H427.061V95.8371H429.379V98.3903H436.568V95.8371H438.867V104.42H434.123V107.462H440.551V109.345ZM436.568 102.573V100.237H429.379V102.573H436.568ZM460.175 111.264H457.948V102.881H456.445V110.54H454.291V95.2215H456.445V101.034H457.948V94.7869H460.175V111.264ZM445.762 106.285C447.404 105.319 448.626 104.221 449.429 102.989C450.238 101.758 450.72 100.316 450.877 98.6619H446.595V96.8149H453.132C453.126 98.4325 452.936 99.9052 452.561 101.233C452.193 102.555 451.565 103.777 450.678 104.9C449.797 106.016 448.605 107.009 447.102 107.878L445.762 106.285ZM469.761 104.873C470.902 104.873 471.889 104.999 472.722 105.253C473.555 105.506 474.194 105.872 474.641 106.348C475.094 106.825 475.32 107.396 475.32 108.06C475.32 108.729 475.094 109.306 474.641 109.789C474.194 110.278 473.555 110.649 472.722 110.902C471.889 111.156 470.902 111.283 469.761 111.283C468.602 111.283 467.597 111.156 466.746 110.902C465.895 110.649 465.243 110.278 464.791 109.789C464.338 109.306 464.112 108.729 464.112 108.06C464.112 107.396 464.338 106.825 464.791 106.348C465.249 105.872 465.901 105.506 466.746 105.253C467.597 104.999 468.602 104.873 469.761 104.873ZM462.573 95.819H464.872V97.9014H468.24V95.819H470.558V103.569H462.573V95.819ZM468.24 101.74V99.694H464.872V101.74H468.24ZM466.429 108.06C466.423 108.53 466.704 108.886 467.271 109.128C467.845 109.369 468.675 109.49 469.761 109.49C470.83 109.49 471.641 109.369 472.197 109.128C472.758 108.886 473.039 108.53 473.039 108.06C473.039 107.142 471.946 106.677 469.761 106.665C467.522 106.677 466.411 107.142 466.429 108.06ZM472.839 94.7869H475.157V98.6075H477.384V100.545H475.157V104.511H472.839V94.7869Z" fill="#2F5BC1"/>
<rect x="275" y="156.004" width="231" height="47.1271" rx="23.5635" fill="#EDF4FF"/>
<path d="M317.232 176.731H312.543V178.379H318.934V180.226H303.869V178.379H310.243V176.731H305.77V171.009H308.07V174.884H317.232V176.731ZM305.589 184.173C305.589 183.527 305.819 182.975 306.277 182.516C306.742 182.058 307.406 181.711 308.269 181.475C309.138 181.234 310.17 181.113 311.366 181.113C312.555 181.113 313.578 181.234 314.435 181.475C315.292 181.711 315.95 182.058 316.408 182.516C316.867 182.975 317.1 183.527 317.106 184.173C317.1 184.819 316.867 185.371 316.408 185.83C315.95 186.289 315.292 186.636 314.435 186.871C313.578 187.113 312.555 187.233 311.366 187.233C310.17 187.233 309.138 187.113 308.269 186.871C307.406 186.636 306.742 186.289 306.277 185.83C305.819 185.371 305.589 184.819 305.589 184.173ZM307.943 184.173C307.937 184.602 308.221 184.928 308.794 185.151C309.374 185.368 310.231 185.477 311.366 185.477C312.482 185.477 313.33 185.368 313.91 185.151C314.489 184.928 314.782 184.602 314.788 184.173C314.782 183.316 313.665 182.888 311.438 182.888C310.261 182.888 309.383 182.993 308.803 183.204C308.224 183.41 307.937 183.733 307.943 184.173ZM328.737 172.041C328.731 172.711 328.952 173.369 329.398 174.015C329.851 174.655 330.512 175.21 331.381 175.681C332.25 176.146 333.288 176.453 334.495 176.604L333.59 178.469C332.178 178.264 330.949 177.854 329.905 177.238C328.867 176.616 328.073 175.85 327.524 174.938C326.969 175.85 326.172 176.616 325.134 177.238C324.102 177.854 322.889 178.264 321.495 178.469L320.571 176.604C321.766 176.453 322.795 176.146 323.658 175.681C324.527 175.21 325.185 174.655 325.632 174.015C326.079 173.369 326.305 172.711 326.311 172.041V171.245H328.737V172.041ZM319.992 179.719H335.021V181.602H328.611V187.233H326.329V181.602H319.992V179.719ZM342.198 173.58C342.192 174.305 342.328 174.996 342.605 175.654C342.889 176.312 343.318 176.897 343.891 177.41C344.471 177.923 345.192 178.318 346.055 178.596L344.842 180.407C343.961 180.111 343.203 179.683 342.569 179.121C341.942 178.56 341.444 177.893 341.075 177.12C340.701 177.965 340.182 178.696 339.518 179.311C338.854 179.927 338.058 180.395 337.128 180.715L335.842 178.886C336.748 178.608 337.499 178.198 338.097 177.655C338.7 177.111 339.147 176.49 339.437 175.789C339.726 175.083 339.874 174.341 339.88 173.562V171.77H342.198V173.58ZM338.486 181.638H340.84V185.097H349.803V186.944H338.486V181.638ZM346.87 170.756H349.187V175.518H351.415V177.473H349.187V182.833H346.87V170.756ZM367.265 179.121H360.892V180.171H365.437V184.39H356.256V185.386H365.871V187.125H353.993V182.761H363.155V181.91H353.975V180.171H358.574V179.121H352.236V177.292H367.265V179.121ZM354.102 171.226H365.364V176.423H354.102V171.226ZM363.065 174.649V173.019H356.365V174.649H363.065ZM387.795 181.783H384.264V187.233H381.91V181.783H378.542V187.233H376.17V181.783H372.712V179.918H387.795V181.783ZM374.233 175.029C374.233 174.281 374.483 173.626 374.984 173.064C375.485 172.503 376.185 172.068 377.085 171.761C377.99 171.453 379.031 171.299 380.208 171.299C381.385 171.299 382.426 171.453 383.332 171.761C384.243 172.068 384.952 172.503 385.459 173.064C385.966 173.626 386.22 174.281 386.22 175.029C386.22 175.759 385.966 176.399 385.459 176.948C384.952 177.492 384.243 177.911 383.332 178.207C382.426 178.503 381.385 178.65 380.208 178.65C379.037 178.65 377.999 178.503 377.094 178.207C376.188 177.911 375.485 177.492 374.984 176.948C374.483 176.399 374.233 175.759 374.233 175.029ZM376.605 175.029C376.599 175.602 376.916 176.046 377.555 176.36C378.201 176.674 379.085 176.834 380.208 176.84C381.337 176.834 382.221 176.674 382.861 176.36C383.507 176.046 383.83 175.602 383.83 175.029C383.83 174.431 383.507 173.97 382.861 173.644C382.221 173.318 381.337 173.152 380.208 173.146C379.085 173.152 378.201 173.318 377.555 173.644C376.916 173.97 376.599 174.431 376.605 175.029ZM403.881 181.059H388.816V179.248H395.19V178.234H390.699V171.154H402.125V172.929H393.017V173.852H401.745V175.518H393.017V176.459H402.27V178.234H397.508V179.248H403.881V181.059ZM390.572 184.517C390.572 183.938 390.796 183.446 391.242 183.041C391.695 182.637 392.353 182.332 393.216 182.127C394.079 181.916 395.123 181.813 396.349 181.819C397.556 181.813 398.585 181.916 399.436 182.127C400.293 182.332 400.948 182.64 401.401 183.05C401.853 183.455 402.083 183.944 402.089 184.517C402.083 185.398 401.579 186.071 400.577 186.536C399.581 187.007 398.171 187.239 396.349 187.233C394.496 187.239 393.068 187.007 392.066 186.536C391.07 186.071 390.572 185.398 390.572 184.517ZM392.89 184.517C392.884 184.867 393.159 185.124 393.714 185.287C394.275 185.45 395.154 185.531 396.349 185.531C397.514 185.531 398.374 185.45 398.929 185.287C399.484 185.124 399.765 184.867 399.771 184.517C399.765 184.179 399.49 183.929 398.947 183.766C398.404 183.603 397.571 183.521 396.448 183.521C395.217 183.521 394.315 183.603 393.741 183.766C393.168 183.923 392.884 184.173 392.89 184.517ZM423.234 180.534H420.934V176.641H418.363V174.775H420.934V170.756H423.234V180.534ZM409.237 178.723C410.1 178.433 410.827 178.02 411.419 177.483C412.01 176.945 412.454 176.342 412.75 175.672C413.045 175.002 413.202 174.311 413.22 173.599H409.907V171.752H418.852V173.599H415.574C415.593 174.262 415.74 174.902 416.018 175.518C416.296 176.127 416.715 176.677 417.277 177.166C417.844 177.655 418.538 178.035 419.359 178.306L418.218 180.117C417.337 179.833 416.576 179.411 415.937 178.85C415.303 178.282 414.802 177.618 414.434 176.858C414.059 177.721 413.537 178.472 412.867 179.112C412.197 179.746 411.386 180.226 410.432 180.552L409.237 178.723ZM411.935 184.083C411.935 183.425 412.161 182.857 412.614 182.381C413.073 181.898 413.727 181.529 414.579 181.276C415.43 181.022 416.438 180.896 417.602 180.896C418.773 180.896 419.784 181.022 420.635 181.276C421.486 181.529 422.141 181.895 422.6 182.371C423.059 182.848 423.288 183.419 423.288 184.083C423.288 184.747 423.059 185.314 422.6 185.785C422.141 186.261 421.486 186.624 420.635 186.871C419.784 187.125 418.773 187.251 417.602 187.251C416.438 187.251 415.43 187.125 414.579 186.871C413.727 186.624 413.073 186.261 412.614 185.785C412.161 185.308 411.935 184.74 411.935 184.083ZM414.234 184.083C414.234 184.547 414.521 184.9 415.095 185.142C415.668 185.377 416.504 185.495 417.602 185.495C418.707 185.495 419.546 185.377 420.119 185.142C420.693 184.906 420.982 184.553 420.988 184.083C420.982 183.618 420.696 183.268 420.128 183.032C419.567 182.791 418.746 182.67 417.666 182.67C415.378 182.67 414.234 183.141 414.234 184.083ZM440.551 185.314H425.468V183.431H431.824V180.389H427.061V171.806H429.379V174.359H436.568V171.806H438.867V180.389H434.123V183.431H440.551V185.314ZM436.568 178.542V176.206H429.379V178.542H436.568ZM453.385 181.022C454.586 181.022 455.628 181.146 456.509 181.394C457.39 181.635 458.069 181.991 458.546 182.462C459.023 182.927 459.264 183.485 459.27 184.137C459.264 184.777 459.023 185.329 458.546 185.794C458.069 186.265 457.387 186.621 456.5 186.862C455.618 187.11 454.58 187.233 453.385 187.233C452.196 187.233 451.158 187.11 450.271 186.862C449.39 186.621 448.711 186.265 448.234 185.794C447.757 185.329 447.519 184.777 447.519 184.137C447.519 183.485 447.757 182.927 448.234 182.462C448.711 181.991 449.39 181.635 450.271 181.394C451.158 181.146 452.196 181.022 453.385 181.022ZM445.998 178.107H451.611V175.228H453.892V178.107H460.954V179.972H445.998V178.107ZM447.681 171.498H459.18V172.838V173.318C459.18 174.042 459.149 174.712 459.089 175.328C459.029 175.943 458.902 176.586 458.709 177.256L456.445 177.039C456.614 176.363 456.726 175.747 456.78 175.192C456.835 174.631 456.868 174.003 456.88 173.309H447.681V171.498ZM449.818 184.137C449.812 184.578 450.117 184.913 450.733 185.142C451.354 185.365 452.238 185.477 453.385 185.477C454.532 185.477 455.416 185.365 456.038 185.142C456.66 184.913 456.971 184.578 456.971 184.137C456.971 183.684 456.663 183.34 456.047 183.105C455.437 182.863 454.571 182.743 453.449 182.743C452.278 182.743 451.378 182.86 450.751 183.096C450.123 183.331 449.812 183.678 449.818 184.137ZM477.149 181.783H473.618V187.233H471.264V181.783H467.896V187.233H465.524V181.783H462.066V179.918H477.149V181.783ZM463.587 175.029C463.587 174.281 463.837 173.626 464.338 173.064C464.839 172.503 465.539 172.068 466.439 171.761C467.344 171.453 468.385 171.299 469.562 171.299C470.739 171.299 471.78 171.453 472.686 171.761C473.597 172.068 474.306 172.503 474.813 173.064C475.32 173.626 475.574 174.281 475.574 175.029C475.574 175.759 475.32 176.399 474.813 176.948C474.306 177.492 473.597 177.911 472.686 178.207C471.78 178.503 470.739 178.65 469.562 178.65C468.391 178.65 467.353 178.503 466.448 178.207C465.542 177.911 464.839 177.492 464.338 176.948C463.837 176.399 463.587 175.759 463.587 175.029ZM465.959 175.029C465.953 175.602 466.27 176.046 466.909 176.36C467.555 176.674 468.439 176.834 469.562 176.84C470.691 176.834 471.575 176.674 472.215 176.36C472.861 176.046 473.183 175.602 473.183 175.029C473.183 174.431 472.861 173.97 472.215 173.644C471.575 173.318 470.691 173.152 469.562 173.146C468.439 173.152 467.555 173.318 466.909 173.644C466.27 173.97 465.953 174.431 465.959 175.029Z" fill="#2F5BC1"/>
<rect x="275" y="217.035" width="231" height="47.1271" rx="23.5635" fill="#EDF4FF"/>
<path d="M363.63 246.291H348.546V244.444H354.848V240.714H357.147V244.444H363.63V246.291ZM348.908 239.32C350.104 239.132 351.142 238.761 352.023 238.206C352.91 237.651 353.586 236.993 354.051 236.232C354.516 235.472 354.751 234.696 354.757 233.905V232.728H357.22V233.905C357.214 234.702 357.443 235.481 357.908 236.241C358.379 237.002 359.061 237.66 359.954 238.215C360.847 238.764 361.897 239.132 363.105 239.32L362.127 241.239C360.702 240.979 359.462 240.487 358.406 239.763C357.349 239.039 356.544 238.155 355.988 237.11C355.439 238.155 354.636 239.042 353.58 239.772C352.53 240.496 351.299 240.985 349.886 241.239L348.908 239.32ZM379.698 242.09H364.633V240.279H371.006V239.265H366.516V232.185H377.941V233.96H368.833V234.883H377.561V236.549H368.833V237.491H378.086V239.265H373.324V240.279H379.698V242.09ZM366.389 245.548C366.389 244.969 366.612 244.477 367.059 244.073C367.512 243.668 368.17 243.363 369.033 243.158C369.896 242.947 370.94 242.844 372.165 242.85C373.372 242.844 374.401 242.947 375.252 243.158C376.11 243.363 376.764 243.671 377.217 244.082C377.67 244.486 377.899 244.975 377.905 245.548C377.899 246.43 377.395 247.103 376.393 247.567C375.397 248.038 373.988 248.271 372.165 248.264C370.312 248.271 368.885 248.038 367.883 247.567C366.887 247.103 366.389 246.43 366.389 245.548ZM368.707 245.548C368.701 245.898 368.975 246.155 369.531 246.318C370.092 246.481 370.97 246.562 372.165 246.562C373.33 246.562 374.19 246.481 374.745 246.318C375.301 246.155 375.581 245.898 375.587 245.548C375.581 245.21 375.307 244.96 374.764 244.797C374.22 244.634 373.387 244.553 372.265 244.553C371.033 244.553 370.131 244.634 369.558 244.797C368.984 244.954 368.701 245.204 368.707 245.548ZM390.062 234.757V235.001C390.05 236.105 390.017 237.11 389.963 238.016C389.908 238.915 389.791 239.935 389.609 241.076L387.328 240.895C387.497 239.833 387.609 238.876 387.663 238.025C387.717 237.174 387.75 236.259 387.763 235.282H381.516V233.435H390.062V234.757ZM380.646 243.05C381.715 243.05 382.723 243.038 383.67 243.013V238.161H385.952V242.941C387.738 242.869 389.332 242.742 390.732 242.561L390.877 244.281C389.471 244.516 387.995 244.679 386.45 244.77C384.905 244.854 383.308 244.897 381.66 244.897H380.864L380.646 243.05ZM391.511 231.787H393.847V238.414H396.092V240.334H393.847V248.264H391.511V231.787ZM410.682 235.245H407.35C407.369 235.819 407.519 236.368 407.803 236.893C408.087 237.418 408.512 237.889 409.08 238.306C409.653 238.716 410.362 239.036 411.207 239.265L410.157 241.04C409.24 240.804 408.449 240.442 407.785 239.953C407.127 239.458 406.608 238.867 406.228 238.179C405.854 238.933 405.332 239.582 404.662 240.125C403.998 240.669 403.192 241.07 402.244 241.329L401.158 239.555C402.003 239.32 402.715 238.982 403.294 238.541C403.874 238.1 404.308 237.596 404.598 237.029C404.888 236.462 405.039 235.867 405.051 235.245H401.737V233.435H405.051V231.714H407.387V233.435H410.682V235.245ZM403.584 242.126H414.358V248.083H403.584V242.126ZM412.076 246.236V243.955H405.866V246.236H412.076ZM412.04 231.787H414.358V235.662H416.585V237.545H414.358V241.438H412.04V231.787ZM421.952 232.946C422.694 232.946 423.364 233.139 423.962 233.525C424.559 233.911 425.045 234.461 425.419 235.173H429.032V231.787H431.313V248.301H429.032V242.126H425.591C425.223 242.941 424.722 243.575 424.089 244.027C423.461 244.474 422.749 244.697 421.952 244.697C421.119 244.697 420.377 244.459 419.725 243.982C419.079 243.499 418.575 242.814 418.213 241.927C417.851 241.034 417.673 239.996 417.679 238.813C417.673 237.636 417.851 236.603 418.213 235.716C418.575 234.829 419.079 234.147 419.725 233.67C420.377 233.187 421.119 232.946 421.952 232.946ZM419.888 238.813C419.888 239.615 419.972 240.303 420.141 240.877C420.31 241.444 420.552 241.876 420.865 242.171C421.179 242.461 421.541 242.603 421.952 242.597C422.368 242.603 422.731 242.461 423.038 242.171C423.352 241.876 423.594 241.444 423.763 240.877C423.932 240.303 424.016 239.615 424.016 238.813C424.016 238.01 423.932 237.325 423.763 236.757C423.594 236.19 423.352 235.761 423.038 235.472C422.731 235.176 422.368 235.028 421.952 235.028C421.541 235.028 421.179 235.176 420.865 235.472C420.552 235.761 420.31 236.193 420.141 236.766C419.972 237.334 419.888 238.016 419.888 238.813ZM426.062 237.038C426.171 237.581 426.225 238.173 426.225 238.813C426.225 239.326 426.189 239.814 426.117 240.279H429.032V237.038H426.062Z" fill="#2F5BC1"/>
</g>
<defs>
<clipPath id="clip0_3236_14541">
<rect width="786" height="336" fill="white"/>
</clipPath>
<clipPath id="clip1_3236_14541">
<rect width="91.9891" height="89.0217" fill="white" transform="translate(65.9883 81.8008)"/>
</clipPath>
<clipPath id="clip2_3236_14541">
<rect width="105.342" height="105.342" fill="white" transform="translate(618.57 74.5117)"/>
</clipPath>
</defs>
</svg>
