<svg width="202" height="52" viewBox="0 0 202 52" fill="none" xmlns="http://www.w3.org/2000/svg">
<path d="M19.1658 51.5626C11.1632 51.5626 5.64887 48.5364 1.68121 44.636L7.12834 37.1042C9.95277 39.7941 13.4497 41.8788 17.4174 41.8788C22.2592 41.8788 25.2854 39.2561 25.2854 34.078C25.2854 29.0343 22.2592 26.3444 17.9553 26.3444C15.1982 26.3444 13.8532 26.8824 10.8943 28.7653L5.64887 25.3357L6.92659 0.520976H35.0365V10.541H17.2156L16.4759 19.0143C18.2916 18.2746 19.7711 18.0056 21.654 18.0056C30.1273 18.0056 37.2557 22.982 37.2557 33.809C37.2557 45.0395 28.7823 51.5626 19.1658 51.5626Z" fill="#67A118"/>
<path d="M64.238 51.1531C57.056 51.1531 50.976 46.2131 50.976 36.6371C50.976 27.2131 57.284 21.8171 64.466 21.8171C68.152 21.8171 71.116 23.5271 73.054 25.5031L69.52 29.8351C68.076 28.5431 66.594 27.6311 64.58 27.6311C60.932 27.6311 57.93 30.8991 57.93 36.4091C57.93 42.0331 60.514 45.3011 64.504 45.3011C66.784 45.3011 68.57 44.1611 69.9 42.7171L73.472 46.9731C71.078 49.7471 67.924 51.1531 64.238 51.1531ZM77.4254 50.6211V22.3111H95.3614V27.9731H84.2274V33.2171H93.6894V38.9171H84.2274V44.9211H95.7794V50.6211H77.4254ZM101.173 50.6211V22.3111H108.089L115.119 35.8771L117.893 42.1471H118.083C117.741 39.1451 117.171 35.0791 117.171 31.6971V22.3111H123.631V50.6211H116.715L109.723 36.9791L106.949 30.7851H106.759C107.063 33.9391 107.633 37.8151 107.633 41.2351V50.6211H101.173ZM135.476 50.6211V27.9731H127.838V22.3111H149.954V27.9731H142.278V50.6211H135.476ZM154.122 50.6211V22.3111H172.058V27.9731H160.924V33.2171H170.386V38.9171H160.924V44.9211H172.476V50.6211H154.122ZM177.869 50.6211V22.3111H188.243C194.285 22.3111 199.301 24.4011 199.301 31.2411C199.301 37.8911 194.285 40.6651 188.243 40.6651H184.671V50.6211H177.869ZM184.671 35.3071H187.711C190.941 35.3071 192.689 33.9011 192.689 31.2411C192.689 28.5811 190.941 27.7071 187.711 27.7071H184.671V35.3071ZM193.145 50.6211L187.027 38.9171L191.625 34.4711L200.745 50.6211H193.145Z" fill="#67A118"/>
</svg>
