<svg width="793" height="142" viewBox="0 0 793 142" fill="none" xmlns="http://www.w3.org/2000/svg">
<path d="M787.904 134.62H746.204V117.46H754.484V127.3H787.904V134.62ZM786.644 121.48H778.364V82.1201H786.644V96.1001H792.944V103.72H786.644V121.48ZM775.964 114.46H739.604V107.26H749.924V97.0601H758.324V107.26H775.964V114.46ZM773.264 104.2H764.984V90.1001H741.824V82.9001H773.264V104.2Z" fill="white"/>
<path d="M716.208 100.3C716.208 102.38 715.968 104.1 715.488 105.46C715.048 106.78 714.248 108.02 713.088 109.18C709.528 112.7 705.888 116.02 702.168 119.14C698.488 122.22 694.688 125.34 690.768 128.5L685.548 122.8C689.348 119.56 692.988 116.46 696.468 113.5C699.988 110.5 703.068 107.7 705.708 105.1C706.508 104.3 707.068 103.36 707.388 102.28C707.748 101.2 707.928 99.8801 707.928 98.3201V91.7201H687.828V84.4001H716.208V100.3ZM733.548 135.1H725.268V82.1201H733.548V135.1Z" fill="white"/>
<path d="M681.653 131.56H629.453V124.24H651.953V113.44H634.313V83.74H676.793V91.06H642.593V106.12H677.393V113.44H660.353V124.24H681.653V131.56Z" fill="white"/>
<path d="M623.998 134.62H581.338V115.9H589.618V127.3H623.998V134.62ZM605.158 112.72C603.958 111.76 602.838 110.86 601.798 110.02C600.758 109.14 599.738 108.26 598.738 107.38C597.738 106.5 596.738 105.62 595.738 104.74C594.738 103.82 593.678 102.84 592.558 101.8C590.278 103.92 588.058 105.94 585.898 107.86C583.778 109.74 581.518 111.68 579.118 113.68L574.138 107.98C576.458 105.94 578.558 104.06 580.438 102.34C582.358 100.58 584.298 98.7801 586.258 96.9401C586.938 96.3401 587.458 95.6001 587.818 94.7201C588.178 93.8001 588.358 92.8801 588.358 91.9601V83.2001H596.758V91.9601C596.758 92.8801 596.938 93.8001 597.298 94.7201C597.658 95.6001 598.178 96.3401 598.858 96.9401C599.818 97.8201 600.698 98.6601 601.498 99.4601C602.338 100.22 603.178 101 604.018 101.8C604.858 102.6 605.738 103.42 606.658 104.26C607.618 105.1 608.698 106.02 609.898 107.02L605.158 112.72ZM622.738 120.04H614.458V98.3201H604.498V91.0001H614.458V82.1201H622.738V120.04Z" fill="white"/>
<path d="M520.562 134.98C518.842 134.98 517.242 134.72 515.762 134.2C514.322 133.68 513.062 132.92 511.982 131.92C510.942 130.96 510.122 129.78 509.522 128.38C508.922 126.98 508.622 125.4 508.622 123.64C508.622 121.88 508.922 120.3 509.522 118.9C510.122 117.5 510.942 116.32 511.982 115.36C513.062 114.36 514.322 113.6 515.762 113.08C517.242 112.56 518.842 112.3 520.562 112.3H539.882C541.602 112.3 543.182 112.56 544.622 113.08C546.102 113.6 547.362 114.36 548.402 115.36C549.482 116.32 550.322 117.5 550.922 118.9C551.522 120.3 551.822 121.88 551.822 123.64C551.822 125.4 551.522 126.98 550.922 128.38C550.322 129.78 549.482 130.96 548.402 131.92C547.362 132.92 546.102 133.68 544.622 134.2C543.182 134.72 541.602 134.98 539.882 134.98H520.562ZM533.642 110.02C531.482 108.46 529.402 106.94 527.402 105.46C525.402 103.94 523.382 102.42 521.342 100.9C519.182 102.58 516.982 104.26 514.742 105.94C512.542 107.62 510.302 109.3 508.022 110.98L503.042 105.52C505.082 103.96 507.122 102.38 509.162 100.78C511.242 99.1801 513.282 97.5601 515.282 95.9201C516.522 94.8801 517.142 93.4201 517.142 91.5401V90.5801H505.382V83.5001H536.942V90.5801H525.542V91.5401C525.542 93.4201 526.162 94.8801 527.402 95.9201C529.122 97.4001 530.922 98.8801 532.802 100.36C534.682 101.8 536.542 103.2 538.382 104.56L533.642 110.02ZM550.442 110.98H542.162V82.1201H550.442V92.0201H557.162V99.6401H550.442V110.98ZM538.982 127.78C540.422 127.78 541.542 127.42 542.342 126.7C543.142 125.98 543.542 124.96 543.542 123.64C543.542 122.32 543.142 121.3 542.342 120.58C541.542 119.86 540.422 119.5 538.982 119.5H521.462C520.022 119.5 518.902 119.86 518.102 120.58C517.302 121.3 516.902 122.32 516.902 123.64C516.902 124.96 517.302 125.98 518.102 126.7C518.902 127.42 520.022 127.78 521.462 127.78H538.982Z" fill="white"/>
<path d="M497.767 135.1H489.487V82.1201H497.767V135.1ZM480.727 127.18C478.727 124.7 476.827 122.38 475.027 120.22C473.267 118.02 471.627 115.9 470.107 113.86C469.707 113.34 469.327 112.84 468.967 112.36C468.647 111.84 468.347 111.3 468.067 110.74C467.467 111.86 466.787 112.9 466.027 113.86C464.467 115.9 462.607 118.16 460.447 120.64C458.327 123.12 456.247 125.58 454.207 128.02L448.567 122.08C450.927 119.28 453.207 116.5 455.407 113.74C457.647 110.94 459.667 108.26 461.467 105.7C462.227 104.62 462.807 103.42 463.207 102.1C463.607 100.78 463.807 99.3001 463.807 97.6601V83.6801H472.207V97.6601C472.207 99.3001 472.407 100.78 472.807 102.1C473.207 103.42 473.767 104.62 474.487 105.7C476.207 108.3 478.007 110.9 479.887 113.5C481.807 116.1 483.907 118.78 486.187 121.54L480.727 127.18Z" fill="white"/>
<path d="M419.112 126.1H395.652V84.4001H419.112V126.1ZM444.672 135.04H436.512V108.64H431.832V133.54H423.792V82.7201H431.832V100.72H436.512V82.1201H444.672V135.04ZM410.952 118.78V91.7201H403.812V118.78H410.952Z" fill="white"/>
<path d="M390.677 131.56H338.477V124.24H360.977V113.44H343.337V83.74H385.817V91.06H351.617V106.12H386.417V113.44H369.377V124.24H390.677V131.56Z" fill="white"/>
<path d="M331.761 110.8H323.481V106.12H311.541C310.141 107.16 308.541 107.96 306.741 108.52C304.941 109.08 302.941 109.36 300.741 109.36C298.261 109.36 296.021 109 294.021 108.28C292.061 107.56 290.381 106.58 288.981 105.34C287.581 104.1 286.501 102.64 285.741 100.96C284.981 99.2801 284.601 97.5001 284.601 95.6201C284.601 93.7401 284.981 91.9601 285.741 90.2801C286.501 88.6001 287.581 87.1401 288.981 85.9001C290.381 84.6601 292.061 83.6801 294.021 82.9601C296.021 82.2401 298.261 81.8801 300.741 81.8801C303.141 81.8801 305.301 82.2201 307.221 82.9001C309.141 83.5801 310.801 84.5001 312.201 85.6601H323.481V82.1201H331.761V110.8ZM300.921 134.98C299.201 134.98 297.601 134.72 296.121 134.2C294.681 133.68 293.421 132.92 292.341 131.92C291.301 130.96 290.481 129.78 289.881 128.38C289.281 126.98 288.981 125.4 288.981 123.64C288.981 121.88 289.281 120.3 289.881 118.9C290.481 117.5 291.301 116.32 292.341 115.36C293.421 114.36 294.681 113.6 296.121 113.08C297.601 112.56 299.201 112.3 300.921 112.3H321.201C322.921 112.3 324.501 112.56 325.941 113.08C327.421 113.6 328.681 114.36 329.721 115.36C330.801 116.32 331.641 117.5 332.241 118.9C332.841 120.3 333.141 121.88 333.141 123.64C333.141 125.4 332.841 126.98 332.241 128.38C331.641 129.78 330.801 130.96 329.721 131.92C328.681 132.92 327.421 133.68 325.941 134.2C324.501 134.72 322.921 134.98 321.201 134.98H300.921ZM320.301 127.78C321.741 127.78 322.861 127.42 323.661 126.7C324.461 125.98 324.861 124.96 324.861 123.64C324.861 122.32 324.461 121.3 323.661 120.58C322.861 119.86 321.741 119.5 320.301 119.5H301.821C300.381 119.5 299.261 119.86 298.461 120.58C297.661 121.3 297.261 122.32 297.261 123.64C297.261 124.96 297.661 125.98 298.461 126.7C299.261 127.42 300.381 127.78 301.821 127.78H320.301ZM306.501 100.48C307.901 99.2801 308.601 97.6601 308.601 95.6201C308.601 93.5801 307.901 91.9601 306.501 90.7601C305.101 89.5601 303.181 88.9601 300.741 88.9601C298.301 88.9601 296.381 89.5601 294.981 90.7601C293.581 91.9601 292.881 93.5801 292.881 95.6201C292.881 97.6601 293.581 99.2801 294.981 100.48C296.381 101.68 298.301 102.28 300.741 102.28C303.181 102.28 305.101 101.68 306.501 100.48ZM323.481 98.7401V93.0401H316.581C316.781 93.9601 316.881 94.8201 316.881 95.6201C316.881 96.1801 316.841 96.7201 316.761 97.2401C316.681 97.7601 316.581 98.2601 316.461 98.7401H323.481Z" fill="white"/>
<path d="M265.046 113.38C266.846 113.38 268.466 113.64 269.906 114.16C271.386 114.64 272.646 115.36 273.686 116.32C274.766 117.24 275.586 118.36 276.146 119.68C276.706 121 276.986 122.48 276.986 124.12C276.986 125.76 276.706 127.24 276.146 128.56C275.586 129.88 274.766 131 273.686 131.92C272.646 132.88 271.386 133.6 269.906 134.08C268.466 134.6 266.846 134.86 265.046 134.86H243.326C241.526 134.86 239.886 134.6 238.406 134.08C236.966 133.6 235.706 132.88 234.626 131.92C233.586 131 232.786 129.88 232.226 128.56C231.666 127.24 231.386 125.76 231.386 124.12C231.386 122.48 231.666 121 232.226 119.68C232.786 118.36 233.586 117.24 234.626 116.32C235.706 115.36 236.966 114.64 238.406 114.16C239.886 113.64 241.526 113.38 243.326 113.38H265.046ZM280.286 110.32H228.086V103.24H247.046V94.2401H255.446V103.24H280.286V110.32ZM275.966 100.66H267.686V89.3801H232.706V82.3H275.966V100.66ZM264.146 127.78C265.586 127.78 266.706 127.44 267.506 126.76C268.306 126.08 268.706 125.2 268.706 124.12C268.706 123.04 268.306 122.16 267.506 121.48C266.706 120.8 265.586 120.46 264.146 120.46H244.226C242.786 120.46 241.666 120.8 240.866 121.48C240.066 122.16 239.666 123.04 239.666 124.12C239.666 125.2 240.066 126.08 240.866 126.76C241.666 127.44 242.786 127.78 244.226 127.78H264.146Z" fill="white"/>
<path d="M195.811 115.3C197.531 115.3 199.111 115.52 200.551 115.96C202.031 116.36 203.291 116.98 204.331 117.82C205.411 118.66 206.251 119.7 206.851 120.94C207.451 122.14 207.751 123.54 207.751 125.14C207.751 126.74 207.451 128.14 206.851 129.34C206.251 130.58 205.411 131.62 204.331 132.46C203.291 133.3 202.031 133.92 200.551 134.32C199.111 134.76 197.531 134.98 195.811 134.98H175.531C173.811 134.98 172.211 134.76 170.731 134.32C169.291 133.92 168.031 133.3 166.951 132.46C165.911 131.62 165.091 130.58 164.491 129.34C163.891 128.14 163.591 126.74 163.591 125.14C163.591 123.54 163.891 122.14 164.491 120.94C165.091 119.7 165.911 118.66 166.951 117.82C168.031 116.98 169.291 116.36 170.731 115.96C172.211 115.52 173.811 115.3 175.531 115.3H195.811ZM170.251 112.54C168.771 112.54 167.411 112.32 166.171 111.88C164.971 111.44 163.931 110.82 163.051 110.02C162.171 109.22 161.491 108.24 161.011 107.08C160.531 105.92 160.291 104.62 160.291 103.18C160.291 101.74 160.531 100.44 161.011 99.2801C161.491 98.1201 162.171 97.1401 163.051 96.3401C163.931 95.5401 164.971 94.9201 166.171 94.4801C167.411 94.0401 168.771 93.8201 170.251 93.8201H181.291C182.771 93.8201 184.111 94.0401 185.311 94.4801C186.551 94.9201 187.611 95.5401 188.491 96.3401C189.371 97.1401 190.051 98.1201 190.531 99.2801C191.011 100.44 191.251 101.74 191.251 103.18C191.251 104.62 191.011 105.92 190.531 107.08C190.051 108.24 189.371 109.22 188.491 110.02C187.611 110.82 186.551 111.44 185.311 111.88C184.111 112.32 182.771 112.54 181.291 112.54H170.251ZM206.371 114.04H198.091V110.26H192.211V103.36H198.091V100.3H192.211V93.4001H198.091V82.1201H206.371V114.04ZM192.511 91.7801H158.911V85.1801H171.631V80.8601H179.911V85.1801H192.511V91.7801ZM194.911 128.02C196.351 128.02 197.471 127.8 198.271 127.36C199.071 126.92 199.471 126.18 199.471 125.14C199.471 124.1 199.071 123.36 198.271 122.92C197.471 122.48 196.351 122.26 194.911 122.26H176.431C174.991 122.26 173.871 122.48 173.071 122.92C172.271 123.36 171.871 124.1 171.871 125.14C171.871 126.18 172.271 126.92 173.071 127.36C173.871 127.8 174.991 128.02 176.431 128.02H194.911ZM178.891 106C180.051 106 181.011 105.76 181.771 105.28C182.571 104.8 182.971 104.1 182.971 103.18C182.971 102.26 182.571 101.56 181.771 101.08C181.011 100.6 180.051 100.36 178.891 100.36H172.651C171.491 100.36 170.511 100.6 169.711 101.08C168.951 101.56 168.571 102.26 168.571 103.18C168.571 104.1 168.951 104.8 169.711 105.28C170.511 105.76 171.491 106 172.651 106H178.891Z" fill="white"/>
<path d="M153.695 135.04H145.535V108.64H140.555V133.54H132.515V82.7201H140.555V100.72H145.535V82.1201H153.695V135.04ZM129.155 126.7H104.675V101.26H119.315V91.3601H104.615V84.0401H127.355V108.46H112.715V119.38H129.155V126.7Z" fill="white"/>
<path d="M96.3999 135.1H88.1199V82.1201H96.3999V135.1ZM79.6599 126.1H50.3799V84.4001H79.6599V126.1ZM71.3799 118.78V91.7201H58.6599V118.78H71.3799Z" fill="white"/>
<path d="M607.138 39.6401H600.898V1.36011H607.138V39.6401ZM608.398 53.3801H566.938V35.5001H573.178V47.8601H608.398V53.3801ZM593.038 32.2601C591.918 31.4201 590.698 30.4801 589.378 29.4401C588.098 28.4001 586.778 27.3401 585.418 26.2601C584.098 25.1401 582.798 24.0401 581.518 22.9601C580.278 21.8801 579.158 20.8601 578.158 19.9001C577.198 20.8601 576.078 21.9201 574.798 23.0801C573.518 24.2001 572.178 25.3401 570.778 26.5001C569.418 27.6601 568.058 28.8001 566.698 29.9201C565.338 31.0001 564.098 31.9801 562.978 32.8601L559.438 28.4801C560.638 27.5201 561.858 26.5201 563.098 25.4801C564.378 24.4001 565.638 23.3201 566.878 22.2401C568.118 21.1601 569.298 20.0801 570.418 19.0001C571.578 17.9201 572.618 16.9001 573.538 15.9401C574.098 15.3401 574.478 14.7401 574.678 14.1401C574.878 13.5401 574.978 12.8401 574.978 12.0401V2.44011H581.338V12.0401C581.338 12.8401 581.438 13.5601 581.638 14.2001C581.838 14.8001 582.218 15.3801 582.778 15.9401C584.698 17.8601 586.858 19.8601 589.258 21.9401C591.698 23.9801 594.138 25.9201 596.578 27.7601L593.038 32.2601Z" fill="white"/>
<path d="M518.223 32.9801C514.823 32.9801 512.103 32.1601 510.063 30.5201C508.063 28.8801 507.063 26.5001 507.063 23.3801C507.063 20.2601 508.063 17.8801 510.063 16.2401C512.103 14.6001 514.823 13.7801 518.223 13.7801H526.323C529.723 13.7801 532.423 14.6001 534.423 16.2401C536.463 17.8801 537.483 20.2601 537.483 23.3801C537.483 26.5001 536.463 28.8801 534.423 30.5201C532.423 32.1601 529.723 32.9801 526.323 32.9801H518.223ZM551.943 53.9801H545.703V41.8601H511.203V36.6401H551.943V53.9801ZM551.943 34.4801H545.703V29.1401H538.803V23.8001H545.703V18.7001H538.803V13.3601H545.703V1.36009H551.943V34.4801ZM539.103 10.9601H505.623V5.44009H519.303V0.340088H525.543V5.44009H539.103V10.9601ZM525.783 27.7001C526.543 27.7001 527.243 27.6401 527.883 27.5201C528.563 27.3601 529.143 27.1201 529.623 26.8001C530.143 26.4401 530.543 25.9801 530.823 25.4201C531.103 24.8601 531.243 24.1801 531.243 23.3801C531.243 22.5801 531.103 21.9001 530.823 21.3401C530.543 20.7801 530.143 20.3401 529.623 20.0201C529.143 19.6601 528.563 19.4201 527.883 19.3001C527.243 19.1401 526.543 19.0601 525.783 19.0601H518.763C517.243 19.0601 515.943 19.3801 514.863 20.0201C513.823 20.6601 513.303 21.7801 513.303 23.3801C513.303 24.1801 513.443 24.8601 513.723 25.4201C514.003 25.9801 514.383 26.4401 514.863 26.8001C515.383 27.1201 515.963 27.3601 516.603 27.5201C517.283 27.6401 518.003 27.7001 518.763 27.7001H525.783Z" fill="white"/>
<path d="M500.827 33.58H449.107V28.36H471.787V24.16H454.387V1.23999H495.547V6.51999H460.627V10.12H494.947V15.28H460.627V18.88H496.567V24.16H478.147V28.36H500.827V33.58ZM484.267 36.34C486.147 36.34 487.867 36.52 489.427 36.88C491.027 37.24 492.387 37.78 493.507 38.5C494.667 39.22 495.567 40.12 496.207 41.2C496.847 42.28 497.167 43.54 497.167 44.98C497.167 46.42 496.847 47.68 496.207 48.76C495.567 49.84 494.667 50.74 493.507 51.46C492.387 52.18 491.027 52.72 489.427 53.08C487.867 53.44 486.147 53.62 484.267 53.62H465.667C463.787 53.62 462.047 53.44 460.447 53.08C458.887 52.72 457.527 52.18 456.367 51.46C455.247 50.74 454.367 49.84 453.727 48.76C453.087 47.68 452.767 46.42 452.767 44.98C452.767 43.54 453.087 42.28 453.727 41.2C454.367 40.12 455.247 39.22 456.367 38.5C457.527 37.78 458.887 37.24 460.447 36.88C462.047 36.52 463.787 36.34 465.667 36.34H484.267ZM483.907 48.4C485.987 48.4 487.667 48.16 488.947 47.68C490.267 47.2 490.927 46.3 490.927 44.98C490.927 43.66 490.267 42.76 488.947 42.28C487.667 41.8 485.987 41.56 483.907 41.56H466.027C463.947 41.56 462.247 41.8 460.927 42.28C459.647 42.76 459.007 43.66 459.007 44.98C459.007 46.3 459.647 47.2 460.927 47.68C462.247 48.16 463.947 48.4 466.027 48.4H483.907Z" fill="white"/>
<path d="M410.952 26.7402C409.032 26.7402 407.272 26.4402 405.672 25.8402C404.072 25.2402 402.692 24.3802 401.532 23.2602C400.372 22.1402 399.452 20.8202 398.772 19.3002C398.132 17.7802 397.812 16.0802 397.812 14.2002C397.812 12.3602 398.132 10.6802 398.772 9.16016C399.452 7.60015 400.372 6.26015 401.532 5.14015C402.692 4.02015 404.072 3.16015 405.672 2.56015C407.272 1.96016 409.032 1.66016 410.952 1.66016H428.592C430.512 1.66016 432.272 1.96016 433.872 2.56015C435.472 3.16015 436.852 4.02015 438.012 5.14015C439.172 6.26015 440.072 7.60015 440.712 9.16016C441.392 10.6802 441.732 12.3602 441.732 14.2002C441.732 16.0802 441.392 17.7802 440.712 19.3002C440.072 20.8202 439.172 22.1402 438.012 23.2602C436.852 24.3802 435.472 25.2402 433.872 25.8402C432.272 26.4402 430.512 26.7402 428.592 26.7402H410.952ZM433.032 53.8602H426.732V37.3602H412.812V53.8602H406.512V37.3602H393.912V31.8402H445.632V37.3602H433.032V53.8602ZM428.232 21.2202C430.392 21.2202 432.132 20.6002 433.452 19.3602C434.812 18.0802 435.492 16.3602 435.492 14.2002C435.492 12.0402 434.812 10.3402 433.452 9.10016C432.132 7.82016 430.392 7.18016 428.232 7.18016H411.312C409.152 7.18016 407.392 7.82016 406.032 9.10016C404.712 10.3402 404.052 12.0402 404.052 14.2002C404.052 16.3602 404.712 18.0802 406.032 19.3602C407.392 20.6002 409.152 21.2202 411.312 21.2202H428.232Z" fill="white"/>
<path d="M363.437 46.1201H324.977V40.6001H363.437V46.1201ZM372.077 53.8601H365.837V1.36011H372.077V53.8601ZM357.617 24.2801C356.817 26.1201 355.697 27.7401 354.257 29.1401C352.817 30.5001 351.117 31.5601 349.157 32.3201C347.197 33.0801 345.057 33.4601 342.737 33.4601C340.417 33.4601 338.277 33.0801 336.317 32.3201C334.357 31.5601 332.657 30.5001 331.217 29.1401C329.777 27.7401 328.657 26.1201 327.857 24.2801C327.057 22.4001 326.657 20.3401 326.657 18.1001C326.657 15.9001 327.057 13.8601 327.857 11.9801C328.657 10.1001 329.777 8.48011 331.217 7.12011C332.657 5.72011 334.357 4.64011 336.317 3.88011C338.277 3.12011 340.417 2.74011 342.737 2.74011C345.057 2.74011 347.197 3.12011 349.157 3.88011C351.117 4.64011 352.817 5.72011 354.257 7.12011C355.697 8.48011 356.817 10.1001 357.617 11.9801C358.417 13.8601 358.817 15.9001 358.817 18.1001C358.817 20.3401 358.417 22.4001 357.617 24.2801ZM346.637 27.2201C347.837 26.7001 348.877 26.0001 349.757 25.1201C350.637 24.2401 351.317 23.2001 351.797 22.0001C352.317 20.8001 352.577 19.5001 352.577 18.1001C352.577 16.7001 352.317 15.4001 351.797 14.2001C351.317 13.0001 350.637 11.9601 349.757 11.0801C348.877 10.2001 347.837 9.52011 346.637 9.04011C345.437 8.52011 344.137 8.26011 342.737 8.26011C341.337 8.26011 340.037 8.52011 338.837 9.04011C337.637 9.52011 336.597 10.2001 335.717 11.0801C334.837 11.9601 334.137 13.0001 333.617 14.2001C333.137 15.4001 332.897 16.7001 332.897 18.1001C332.897 19.5001 333.137 20.8001 333.617 22.0001C334.137 23.2001 334.837 24.2401 335.717 25.1201C336.597 26.0001 337.637 26.7001 338.837 27.2201C340.037 27.7001 341.337 27.9401 342.737 27.9401C344.137 27.9401 345.437 27.7001 346.637 27.2201Z" fill="white"/>
<path d="M315.141 53.38H273.621V35.86H291.201V30.76H268.521V25.48H320.241V30.76H297.561V35.86H315.141V53.38ZM316.461 22.12H272.301V16.72H280.221V6.94004H273.501V1.54004H315.261V6.94004H308.421V16.72H316.461V22.12ZM308.901 47.86V41.26H279.861V47.86H308.901ZM302.181 16.72V6.94004H286.461V16.72H302.181Z" fill="white"/>
<path d="M260.966 31.6001H254.726V1.36011H260.966V31.6001ZM260.966 53.9801H254.726V39.7601H220.166V34.2401H260.966V53.9801ZM246.866 29.5601C245.746 28.7201 244.526 27.7801 243.206 26.7401C241.926 25.7001 240.606 24.6401 239.246 23.5601C237.926 22.4401 236.626 21.3401 235.346 20.2601C234.106 19.1801 232.986 18.1601 231.986 17.2001C231.026 18.1601 229.906 19.2201 228.626 20.3801C227.346 21.5001 226.006 22.6401 224.606 23.8001C223.246 24.9601 221.886 26.1001 220.526 27.2201C219.166 28.3001 217.926 29.2801 216.806 30.1601L213.266 25.7801C214.466 24.8201 215.686 23.8201 216.926 22.7801C218.206 21.7001 219.466 20.6201 220.706 19.5401C221.946 18.4601 223.126 17.3801 224.246 16.3001C225.406 15.2201 226.446 14.2001 227.366 13.2401C227.926 12.6401 228.306 12.0401 228.506 11.4401C228.706 10.8401 228.806 10.1401 228.806 9.34011V2.14011H235.166V9.34011C235.166 10.1401 235.266 10.8601 235.466 11.5001C235.666 12.1001 236.046 12.6801 236.606 13.2401C238.526 15.1601 240.686 17.1601 243.086 19.2401C245.526 21.2801 247.966 23.2201 250.406 25.0601L246.866 29.5601Z" fill="white"/>
<path d="M189.871 32.2601C188.751 31.4201 187.551 30.4801 186.271 29.4401C184.991 28.4001 183.711 27.3401 182.431 26.2601C181.151 25.1401 179.891 24.0401 178.651 22.9601C177.411 21.8801 176.291 20.8601 175.291 19.9001C174.331 20.8601 173.211 21.9201 171.931 23.0801C170.691 24.2001 169.391 25.3401 168.031 26.5001C166.711 27.6601 165.391 28.8001 164.071 29.9201C162.751 31.0001 161.531 31.9801 160.411 32.8601L156.871 28.4801C158.071 27.5201 159.291 26.5201 160.531 25.4801C161.771 24.4001 162.991 23.3201 164.191 22.2401C165.391 21.1601 166.531 20.0801 167.611 19.0001C168.731 17.9201 169.751 16.9001 170.671 15.9401C171.231 15.3401 171.611 14.7401 171.811 14.1401C172.011 13.5401 172.111 12.8401 172.111 12.0401V2.44011H178.471V12.0401C178.471 12.8401 178.571 13.5601 178.771 14.2001C178.971 14.8001 179.351 15.3801 179.911 15.9401C181.831 17.8601 183.951 19.8601 186.271 21.9401C188.591 23.9801 190.971 25.9201 193.411 27.7601L189.871 32.2601ZM204.931 53.3801H164.431V35.5001H170.671V47.8601H204.931V53.3801ZM203.671 39.6401H197.431V1.36011H203.671V14.2601H210.691V19.9001H203.671V39.6401Z" fill="white"/>
<path d="M154.655 37.36H131.975V53.86H125.615V37.36H102.935V31.84H154.655V37.36ZM148.775 28.12C145.375 26.2 141.975 24.12 138.575 21.88C135.175 19.64 131.895 17.26 128.735 14.74C125.575 17.26 122.315 19.64 118.955 21.88C115.595 24.12 112.215 26.2 108.815 28.12L104.855 23.44C106.295 22.64 107.795 21.76 109.355 20.8C110.915 19.84 112.455 18.84 113.975 17.8C115.535 16.76 117.035 15.72 118.475 14.68C119.915 13.64 121.215 12.64 122.375 11.68C123.535 10.76 124.335 9.87997 124.775 9.03997C125.215 8.15997 125.435 7.01997 125.435 5.61997V1.71997H132.035V5.61997C132.035 7.01997 132.255 8.15997 132.695 9.03997C133.135 9.87997 133.935 10.76 135.095 11.68C136.255 12.64 137.555 13.64 138.995 14.68C140.435 15.72 141.935 16.76 143.495 17.8C145.055 18.84 146.615 19.86 148.175 20.86C149.775 21.82 151.295 22.68 152.735 23.44L148.775 28.12Z" fill="white"/>
<path d="M63.82 53.7402C61.98 53.7402 60.3 53.5202 58.78 53.0802C57.26 52.6402 55.94 51.9802 54.82 51.1002C53.74 50.2202 52.9 49.1602 52.3 47.9202C51.7 46.6802 51.4 45.2402 51.4 43.6002C51.4 42.0002 51.7 40.5802 52.3 39.3402C52.9 38.1002 53.74 37.0602 54.82 36.2202C55.94 35.3402 57.26 34.6802 58.78 34.2402C60.3 33.8002 61.98 33.5802 63.82 33.5802H83.38C85.22 33.5802 86.9 33.8002 88.42 34.2402C89.94 34.6802 91.24 35.3402 92.32 36.2202C93.44 37.0602 94.3 38.1002 94.9 39.3402C95.5 40.5802 95.8 42.0002 95.8 43.6002C95.8 45.2402 95.5 46.6802 94.9 47.9202C94.3 49.1602 93.44 50.2202 92.32 51.1002C91.24 51.9802 89.94 52.6402 88.42 53.0802C86.9 53.5202 85.22 53.7402 83.38 53.7402H63.82ZM99.46 29.6802H47.74V24.1602H70.42V18.2202H52.72V0.940186H58.96V12.7002H94.78V18.2202H76.78V24.1602H99.46V29.6802ZM82.84 48.2202C87.32 48.2202 89.56 46.6802 89.56 43.6002C89.56 40.6002 87.32 39.1002 82.84 39.1002H64.36C59.88 39.1002 57.64 40.6002 57.64 43.6002C57.64 46.6802 59.88 48.2202 64.36 48.2202H82.84Z" fill="white"/>
<line x1="3" y1="1" x2="3.00001" y2="142" stroke="white" stroke-width="6"/>
</svg>
