<svg width="200" height="161" viewBox="0 0 200 161" fill="none" xmlns="http://www.w3.org/2000/svg">
<rect x="0.44683" y="0.532768" width="198.436" height="159.037" stroke="#4C4E64" stroke-opacity="0.22" stroke-width="0.893661"/>
<line y1="20.1157" x2="198.436" y2="20.1157" stroke="#4C4E64" stroke-opacity="0.22" stroke-width="0.893661"/>
<line x1="20.1262" y1="160.086" x2="20.1262" y2="0.15535" stroke="#4C4E64" stroke-opacity="0.22" stroke-width="0.893661"/>
<line x1="39.7875" y1="160.086" x2="39.7876" y2="0.15535" stroke="#4C4E64" stroke-opacity="0.22" stroke-width="0.893661"/>
<line x1="59.4492" y1="160.086" x2="59.4492" y2="0.15535" stroke="#4C4E64" stroke-opacity="0.22" stroke-width="0.893661"/>
<line x1="79.1105" y1="160.086" x2="79.1105" y2="0.15535" stroke="#4C4E64" stroke-opacity="0.22" stroke-width="0.893661"/>
<line x1="98.7719" y1="160.086" x2="98.7719" y2="0.15535" stroke="#4C4E64" stroke-opacity="0.22" stroke-width="0.893661"/>
<line x1="118.455" y1="160.086" x2="118.455" y2="0.15535" stroke="#4C4E64" stroke-opacity="0.22" stroke-width="0.893661"/>
<line x1="138.117" y1="160.086" x2="138.117" y2="0.15535" stroke="#4C4E64" stroke-opacity="0.22" stroke-width="0.893661"/>
<line x1="157.778" y1="160.086" x2="157.778" y2="0.15535" stroke="#4C4E64" stroke-opacity="0.22" stroke-width="0.893661"/>
<line x1="177.44" y1="160.086" x2="177.44" y2="0.15535" stroke="#4C4E64" stroke-opacity="0.22" stroke-width="0.893661"/>
<line y1="40.5922" x2="198.436" y2="40.5922" stroke="#4C4E64" stroke-opacity="0.22" stroke-width="0.893661"/>
<line y1="61.4243" x2="198.436" y2="61.4243" stroke="#4C4E64" stroke-opacity="0.22" stroke-width="0.893661"/>
<line y1="80.1586" x2="198.436" y2="80.1586" stroke="#4C4E64" stroke-opacity="0.22" stroke-width="0.893661"/>
<line y1="99.5961" x2="198.436" y2="99.5961" stroke="#4C4E64" stroke-opacity="0.22" stroke-width="0.893661"/>
<line y1="119.377" x2="198.436" y2="119.377" stroke="#4C4E64" stroke-opacity="0.22" stroke-width="0.893661"/>
<line x1="0.000244141" y1="139.159" x2="198.436" y2="139.159" stroke="#4C4E64" stroke-opacity="0.22" stroke-width="0.893661"/>
<g clip-path="url(#clip0_2818_36868)">
<path d="M98.0552 85.5975C98.0552 90.0735 92.8171 93.7106 86.354 93.7106C79.891 93.7106 74.6528 90.0771 74.6528 85.5975C74.6528 81.1178 79.891 77.4844 86.354 77.4844C92.8171 77.4844 98.0552 81.1142 98.0552 85.5975Z" fill="#BD1339"/>
<path d="M95.9116 76.6721C95.9116 76.6721 113.676 75.5558 114.476 86.3048C114.476 86.3048 114.443 106.917 70.9854 110.525L95.2163 130.262C95.2163 130.262 135.659 112.927 126.191 87.2771C126.191 87.2771 121.317 74.5763 95.908 76.6757" fill="#00549C"/>
<path d="M76.9277 95.3455C76.9277 95.3455 53.0174 95.8316 56.8685 82.515C56.8685 82.515 59.2751 64.2218 94.2597 61.5031C94.2597 61.5031 118.494 58.1289 139.519 66.314L169.694 35.8386C169.694 35.8386 126.045 22.0359 77.8968 39.364C77.8968 39.364 45.9563 48.8239 43.8704 73.8474C43.8704 73.8474 40.9847 96.9587 76.9313 95.3455" fill="#35959A"/>
</g>
<defs>
<clipPath id="clip0_2818_36868">
<rect width="125.881" height="99.5322" fill="white" transform="translate(43.8152 30.6289)"/>
</clipPath>
</defs>
</svg>
