<svg width="80" height="80" viewBox="0 0 80 80" fill="none" xmlns="http://www.w3.org/2000/svg">
<path d="M42.5827 17.2373H39.4581V18.7996H42.5827V17.2373Z" fill="#2F5BC1"/>
<path d="M39.4581 23.3563L41.0199 25.3605L42.5827 23.3563V19.4824H39.4581V23.3563Z" fill="#2F5BC1"/>
<path d="M19.473 31.4938C20.4397 31.9604 21.6142 31.9496 22.6045 31.3582L30.0631 27.3382L30.0814 27.4047L30.6475 40.3705H50.6888L50.8156 35.6869L51.9038 40.3705H58.6947L57.5039 26.4693C57.0066 20.6633 52.7908 18.2301 48.4669 17.2129L41.02 26.7671L33.5738 17.2129C31.7222 17.2494 27.8166 19.7493 27.8166 19.7493L22.1427 23.6672L18.1569 14.4668C17.6269 13.0776 16.0716 12.3821 14.6819 12.9121C13.2927 13.4424 12.5981 14.9971 13.1266 16.3861L17.5064 29.5671C17.8639 30.5024 18.6005 31.1786 19.473 31.4938ZM41.0199 30.3605C41.5053 30.3605 41.8994 30.7529 41.8994 31.239C41.8994 31.724 41.5053 32.1174 41.0199 32.1174C40.5361 32.1174 40.142 31.724 40.142 31.239C40.142 30.753 40.5361 30.3605 41.0199 30.3605ZM41.0199 35.1054C41.5053 35.1054 41.8994 35.499 41.8994 35.9838C41.8994 36.4697 41.5053 36.8622 41.0199 36.8622C40.5361 36.8622 40.142 36.4697 40.142 35.9838C40.142 35.499 40.5361 35.1054 41.0199 35.1054Z" fill="#2F5BC1"/>
<path d="M41.0199 13.8325C44.8407 13.8325 47.9377 10.7359 47.9377 6.91672C47.9378 3.09656 44.8407 0 41.0199 0C37.2019 0 34.1031 3.09656 34.1031 6.91672C34.1031 10.7359 37.2019 13.8325 41.0199 13.8325Z" fill="#2F5BC1"/>
<path d="M67.0503 41.7529H14.9894V43.927H67.0503V41.7529Z" fill="#2F5BC1"/>
<path d="M19.7809 48.6661V46.5729H62.2588V48.6661L67.0503 44.8643H14.9894L19.7809 48.6661Z" fill="#2F5BC1"/>
<path d="M21.1874 80H60.8535V47.9795H21.1874V80ZM41.0199 51.219C47.5586 51.219 52.8583 56.5187 52.8583 63.0568C52.8583 69.5951 47.5586 74.8948 41.0199 74.8948C34.4822 74.8948 29.1825 69.5951 29.1825 63.0568C29.1825 56.5187 34.4822 51.219 41.0199 51.219Z" fill="#2F5BC1"/>
<path d="M38.8475 65.6457L45.1973 59.296C45.3946 59.0987 45.6457 59 45.9507 59C46.2556 59 46.5067 59.0987 46.704 59.296C46.9013 59.4933 47 59.7444 47 60.0493C47 60.3543 46.9013 60.6054 46.704 60.8027L39.6009 67.9058C39.3857 68.1211 39.1345 68.2287 38.8475 68.2287C38.5605 68.2287 38.3094 68.1211 38.0942 67.9058L35.296 65.1076C35.0987 64.9103 35 64.6592 35 64.3543C35 64.0493 35.0987 63.7982 35.296 63.6009C35.4933 63.4036 35.7444 63.3049 36.0493 63.3049C36.3543 63.3049 36.6054 63.4036 36.8027 63.6009L38.8475 65.6457Z" fill="#2F5BC1"/>
</svg>
