<svg width="833" height="505" viewBox="0 0 833 505" fill="none" xmlns="http://www.w3.org/2000/svg">
<path d="M423.643 493.182V374.404M18.2697 466.606H807.823M3.76038 374.404H423.643M423.643 374.404V85.3218H733.378M4.88325 249.659H827.385M711.642 62V286.54" stroke="#04329A" stroke-opacity="0.5" stroke-width="1.12287"/>
<rect x="315.918" y="423.007" width="209.977" height="80.8466" rx="9.43857" fill="#2196F3"/>
<rect x="315.918" y="423.007" width="209.977" height="80.8466" rx="9.43857" fill="white" fill-opacity="0.88"/>
<rect x="315.918" y="423.007" width="209.977" height="80.8466" rx="9.43857" stroke="#04329A" stroke-width="1.12287"/>
<path d="M384.358 445.767H380.323C380.33 446.468 380.509 447.148 380.86 447.806C381.211 448.464 381.741 449.049 382.45 449.561C383.159 450.072 384.029 450.46 385.06 450.723L383.766 452.872C382.655 452.595 381.697 452.16 380.893 451.567C380.089 450.968 379.453 450.252 378.985 449.418C378.539 450.376 377.911 451.198 377.099 451.885C376.288 452.565 375.308 453.07 374.16 453.399L372.845 451.227C373.875 450.935 374.738 450.507 375.432 449.945C376.134 449.382 376.657 448.742 377 448.026C377.351 447.302 377.53 446.549 377.538 445.767H373.524V443.574H377.538V441.402H380.367V443.574H384.358V445.767ZM389.797 453.552H387.012V449.078H383.766V446.841H387.012V441.49H389.797V453.552ZM382.977 453.881C384.395 453.888 385.619 454.038 386.65 454.331C387.681 454.623 388.47 455.051 389.019 455.614C389.574 456.169 389.856 456.842 389.863 457.631C389.856 458.428 389.574 459.112 389.019 459.682C388.463 460.259 387.67 460.698 386.639 460.998C385.608 461.297 384.388 461.447 382.977 461.447C381.573 461.447 380.356 461.297 379.325 460.998C378.294 460.698 377.501 460.259 376.946 459.682C376.39 459.112 376.112 458.428 376.112 457.631C376.112 456.842 376.386 456.169 376.935 455.614C377.49 455.051 378.283 454.623 379.314 454.331C380.345 454.038 381.566 453.888 382.977 453.881ZM382.977 456.03C381.639 456.03 380.623 456.166 379.928 456.436C379.241 456.699 378.898 457.098 378.898 457.631C378.898 458.18 379.245 458.6 379.939 458.892C380.641 459.177 381.654 459.32 382.977 459.32C384.322 459.32 385.342 459.177 386.036 458.892C386.731 458.6 387.078 458.18 387.078 457.631C387.078 456.564 385.711 456.03 382.977 456.03ZM409.206 461.206H395.719V454.1H409.206V461.206ZM398.504 459.013H406.443V456.272H398.504V459.013ZM409.206 453.223H406.421V450.372H403.109V448.113H406.421V446.271H403.109V444.012H406.421V441.512H409.206V453.223ZM401.969 448.53H395.938V450.471C397.568 450.456 398.869 450.423 399.842 450.372C400.814 450.314 401.779 450.211 402.737 450.065L402.956 452.28C402.035 452.448 401.099 452.562 400.149 452.62C399.206 452.671 397.956 452.697 396.398 452.697H394.666H393.175V446.425H399.162V444.626H393.131V442.389H401.969V448.53ZM419.536 446.929C419.536 448.033 419.722 449.118 420.095 450.186C420.475 451.246 421.042 452.2 421.795 453.048C422.548 453.896 423.461 454.546 424.536 455L423.023 457.193C421.875 456.71 420.892 456.001 420.073 455.065C419.254 454.13 418.611 453.037 418.143 451.787C417.683 453.146 417.036 454.342 416.202 455.372C415.369 456.396 414.382 457.171 413.242 457.697L411.641 455.482C412.708 455.007 413.618 454.316 414.371 453.41C415.131 452.503 415.701 451.487 416.082 450.361C416.469 449.228 416.663 448.084 416.663 446.929V445.701H412.43V443.42H423.703V445.701H419.536V446.929ZM428.506 461.447H425.676V441.49H428.506V461.447ZM441.993 442.477C441.986 444.356 441.661 446.004 441.017 447.422C440.381 448.841 439.372 450.061 437.991 451.085C436.609 452.108 434.807 452.931 432.585 453.552L431.576 451.337C434.266 450.591 436.214 449.553 437.421 448.223L431.927 448.64L431.532 446.425L438.649 446.183C438.809 445.73 438.923 445.24 438.989 444.714H432.541V442.477H441.993ZM447.915 453.026H445.107V441.512H447.915V453.026ZM447.915 461.228H434.756V453.881H447.915V461.228ZM437.497 458.991H445.173V456.074H437.497V458.991ZM467.324 461.491H464.494V441.49H467.324V461.491ZM456.49 442.894C457.491 442.894 458.387 443.186 459.176 443.771C459.973 444.356 460.598 445.185 461.051 446.26C461.504 447.335 461.731 448.581 461.731 449.999C461.731 451.432 461.504 452.69 461.051 453.771C460.598 454.846 459.973 455.676 459.176 456.261C458.387 456.838 457.491 457.127 456.49 457.127C455.466 457.127 454.552 456.838 453.748 456.261C452.944 455.676 452.315 454.846 451.862 453.771C451.416 452.69 451.197 451.432 451.204 449.999C451.197 448.581 451.416 447.335 451.862 446.26C452.315 445.185 452.944 444.356 453.748 443.771C454.552 443.186 455.466 442.894 456.49 442.894ZM456.49 445.416C455.971 445.416 455.514 445.595 455.119 445.953C454.731 446.304 454.432 446.823 454.22 447.51C454.008 448.197 453.902 449.027 453.902 449.999C453.902 450.979 454.008 451.812 454.22 452.499C454.432 453.187 454.731 453.706 455.119 454.057C455.514 454.407 455.971 454.583 456.49 454.583C457.001 454.583 457.447 454.407 457.827 454.057C458.207 453.698 458.504 453.176 458.716 452.489C458.928 451.801 459.034 450.972 459.034 449.999C459.034 449.034 458.928 448.208 458.716 447.521C458.504 446.827 458.204 446.304 457.816 445.953C457.436 445.595 456.994 445.416 456.49 445.416ZM366.658 480.587C366.658 478.991 366.889 477.499 367.351 476.113C367.813 474.721 368.482 473.411 369.36 472.183H371.834C371.418 472.786 371.021 473.552 370.64 474.482C370.26 475.406 369.95 476.406 369.711 477.482C369.477 478.552 369.36 479.587 369.36 480.587C369.36 481.593 369.477 482.634 369.711 483.71C369.95 484.781 370.26 485.781 370.64 486.71C371.021 487.64 371.418 488.406 371.834 489.009H369.36C367.558 486.477 366.658 483.669 366.658 480.587ZM387.326 481.763H383.904V487.044H381.624V481.763H378.36V487.044H376.062V481.763H372.711V479.956H387.326V481.763ZM379.974 471.604C381.109 471.604 382.115 471.753 382.992 472.052C383.875 472.35 384.562 472.774 385.054 473.324C385.551 473.868 385.799 474.499 385.799 475.219C385.799 475.926 385.554 476.546 385.062 477.078C384.571 477.605 383.884 478.011 383.001 478.298C382.118 478.584 381.109 478.728 379.974 478.728C378.84 478.728 377.831 478.584 376.948 478.298C376.071 478.011 375.389 477.605 374.904 477.078C374.418 476.546 374.179 475.926 374.185 475.219C374.179 474.499 374.418 473.868 374.904 473.324C375.395 472.774 376.079 472.35 376.957 472.052C377.834 471.753 378.84 471.604 379.974 471.604ZM379.974 473.394C379.261 473.394 378.641 473.464 378.115 473.604C377.588 473.745 377.182 473.952 376.895 474.227C376.614 474.502 376.477 474.833 376.483 475.219C376.477 475.587 376.614 475.903 376.895 476.166C377.182 476.429 377.588 476.631 378.115 476.771C378.641 476.906 379.261 476.973 379.974 476.973C380.694 476.973 381.316 476.906 381.843 476.771C382.369 476.631 382.773 476.429 383.053 476.166C383.34 475.903 383.483 475.587 383.483 475.219C383.483 474.64 383.17 474.192 382.545 473.876C381.925 473.555 381.068 473.394 379.974 473.394ZM402.818 481.061H388.22V479.307H394.396V478.324H390.045V471.464H401.116V473.183H392.291V474.078H400.747V475.692H392.291V476.605H401.256V478.324H396.642V479.307H402.818V481.061ZM395.519 481.798C396.689 481.792 397.689 481.891 398.519 482.096C399.35 482.295 399.981 482.59 400.414 482.982C400.853 483.374 401.075 483.851 401.081 484.412C401.075 485.266 400.59 485.918 399.625 486.368C398.66 486.819 397.291 487.044 395.519 487.044C393.718 487.044 392.335 486.819 391.37 486.368C390.405 485.918 389.922 485.266 389.922 484.412C389.922 483.851 390.139 483.374 390.571 482.982C391.01 482.59 391.647 482.295 392.484 482.096C393.32 481.891 394.332 481.792 395.519 481.798ZM395.519 483.447C394.367 483.447 393.519 483.526 392.975 483.684C392.431 483.836 392.162 484.079 392.168 484.412C392.162 484.751 392.428 485 392.966 485.158C393.51 485.316 394.361 485.395 395.519 485.395C396.648 485.395 397.481 485.316 398.019 485.158C398.557 485 398.829 484.751 398.835 484.412C398.829 484.079 398.557 483.836 398.019 483.684C397.481 483.526 396.648 483.447 395.519 483.447ZM416.45 475.657H418.608V477.517H416.45V482.71H414.204V471.078H416.45V475.657ZM417.029 486.763H406.099V481.482H408.327V484.974H417.029V486.763ZM408.274 472.113C409.081 472.113 409.815 472.289 410.476 472.639C411.143 472.985 411.666 473.467 412.046 474.087C412.432 474.701 412.625 475.394 412.625 476.166C412.625 476.932 412.432 477.625 412.046 478.245C411.666 478.859 411.143 479.342 410.476 479.693C409.815 480.043 409.081 480.219 408.274 480.219C407.461 480.219 406.721 480.043 406.055 479.693C405.388 479.342 404.859 478.859 404.467 478.245C404.081 477.625 403.888 476.932 403.888 476.166C403.888 475.394 404.081 474.701 404.467 474.087C404.853 473.467 405.379 472.985 406.046 472.639C406.719 472.289 407.461 472.113 408.274 472.113ZM408.274 474.061C407.865 474.055 407.493 474.137 407.16 474.306C406.833 474.47 406.572 474.713 406.379 475.034C406.186 475.356 406.093 475.733 406.099 476.166C406.093 476.587 406.186 476.958 406.379 477.28C406.572 477.596 406.835 477.842 407.169 478.017C407.502 478.187 407.871 478.271 408.274 478.271C408.684 478.271 409.052 478.187 409.379 478.017C409.707 477.842 409.964 477.596 410.151 477.28C410.344 476.958 410.444 476.587 410.45 476.166C410.444 475.733 410.344 475.356 410.151 475.034C409.964 474.713 409.707 474.47 409.379 474.306C409.052 474.137 408.684 474.055 408.274 474.061ZM436.82 480.114H434.574V471.096H436.82V480.114ZM436.82 486.868H426.117V480.833H436.82V486.868ZM428.328 485.079H434.626V482.605H428.328V485.079ZM428.065 471.815C428.889 471.815 429.632 471.979 430.293 472.306C430.96 472.634 431.483 473.09 431.863 473.675C432.243 474.259 432.433 474.926 432.433 475.675C432.433 476.394 432.243 477.043 431.863 477.622C431.483 478.201 430.96 478.657 430.293 478.991C429.626 479.318 428.883 479.482 428.065 479.482C427.246 479.482 426.503 479.318 425.837 478.991C425.17 478.657 424.646 478.201 424.266 477.622C423.886 477.043 423.696 476.394 423.696 475.675C423.696 474.926 423.886 474.259 424.266 473.675C424.646 473.09 425.167 472.634 425.828 472.306C426.494 471.979 427.24 471.815 428.065 471.815ZM428.065 473.692C427.638 473.692 427.258 473.771 426.924 473.929C426.597 474.087 426.339 474.315 426.152 474.613C425.971 474.912 425.883 475.265 425.889 475.675C425.883 476.067 425.971 476.409 426.152 476.701C426.339 476.988 426.597 477.21 426.924 477.368C427.258 477.526 427.638 477.605 428.065 477.605C428.48 477.605 428.851 477.526 429.179 477.368C429.506 477.21 429.761 476.988 429.942 476.701C430.129 476.409 430.223 476.067 430.223 475.675C430.223 475.265 430.129 474.912 429.942 474.613C429.761 474.315 429.506 474.087 429.179 473.929C428.851 473.771 428.48 473.692 428.065 473.692ZM452.347 480.693H450.101V471.078H452.347V480.693ZM452.347 487.044H450.101V483.184H441.364V481.394H452.347V487.044ZM448.417 473.797H445.206C445.212 474.447 445.352 475.075 445.627 475.684C445.908 476.292 446.332 476.836 446.899 477.315C447.472 477.795 448.177 478.16 449.013 478.412L447.873 480.149C447.001 479.88 446.247 479.473 445.61 478.929C444.972 478.385 444.469 477.742 444.101 476.999C443.726 477.806 443.212 478.508 442.557 479.105C441.902 479.695 441.118 480.143 440.206 480.447L439.048 478.71C439.89 478.435 440.601 478.043 441.179 477.535C441.764 477.02 442.2 476.441 442.487 475.798C442.773 475.148 442.919 474.482 442.925 473.797H439.644V472.008H448.417V473.797ZM468.032 483.149H465.786V481.886H462.733V480.359H465.786V471.096H468.032V483.149ZM468.383 486.763H456.487V481.991H458.716V479.868C457.628 479.915 456.294 479.938 454.715 479.938L454.452 478.166C456.511 478.154 458.362 478.119 460.005 478.061C461.648 478.002 463.213 477.88 464.698 477.692L464.821 479.289C463.605 479.494 462.318 479.646 460.961 479.745V482.78H458.716V484.974H468.383V486.763ZM459.645 471.639C460.412 471.634 461.096 471.751 461.698 471.99C462.301 472.23 462.771 472.569 463.111 473.008C463.456 473.441 463.628 473.938 463.628 474.499C463.628 475.055 463.459 475.546 463.119 475.973C462.78 476.4 462.306 476.73 461.698 476.964C461.096 477.192 460.412 477.306 459.645 477.306C458.862 477.306 458.166 477.192 457.558 476.964C456.949 476.73 456.476 476.403 456.136 475.982C455.797 475.555 455.628 475.061 455.628 474.499C455.628 473.938 455.794 473.441 456.128 473.008C456.467 472.569 456.941 472.23 457.549 471.99C458.163 471.751 458.862 471.634 459.645 471.639ZM459.645 473.271C459.066 473.271 458.604 473.379 458.259 473.596C457.914 473.812 457.745 474.113 457.751 474.499C457.745 474.879 457.911 475.175 458.251 475.385C458.596 475.59 459.061 475.692 459.645 475.692C460.195 475.692 460.64 475.587 460.979 475.376C461.324 475.166 461.499 474.874 461.505 474.499C461.499 474.113 461.324 473.812 460.979 473.596C460.64 473.379 460.195 473.271 459.645 473.271ZM475.155 480.587C475.155 483.669 474.254 486.477 472.453 489.009H469.979C470.395 488.406 470.792 487.64 471.172 486.71C471.553 485.781 471.86 484.781 472.094 483.71C472.333 482.634 472.453 481.593 472.453 480.587C472.453 479.587 472.333 478.552 472.094 477.482C471.86 476.406 471.553 475.406 471.172 474.482C470.792 473.552 470.395 472.786 469.979 472.183H472.453C473.33 473.411 474 474.721 474.462 476.113C474.924 477.499 475.155 478.991 475.155 480.587Z" fill="#04329A"/>
<rect x="1.5148" y="423.007" width="211.1" height="80.8466" rx="9.43857" fill="#2196F3"/>
<rect x="1.5148" y="423.007" width="211.1" height="80.8466" rx="9.43857" fill="white" fill-opacity="0.88"/>
<rect x="1.5148" y="423.007" width="211.1" height="80.8466" rx="9.43857" stroke="#04329A" stroke-width="1.12287"/>
<path d="M51.1075 442.767H47.0722C47.0795 443.468 47.2586 444.148 47.6095 444.806C47.9604 445.464 48.4904 446.049 49.1995 446.561C49.9086 447.072 50.7785 447.46 51.8093 447.723L50.5154 449.872C49.4042 449.595 48.4465 449.16 47.6424 448.567C46.8383 447.968 46.2022 447.252 45.7344 446.418C45.2885 447.376 44.6598 448.198 43.8483 448.885C43.0369 449.565 42.0573 450.07 40.9096 450.399L39.5937 448.227C40.6245 447.935 41.4871 447.507 42.1816 446.945C42.8834 446.382 43.406 445.742 43.7496 445.026C44.1005 444.302 44.2796 443.549 44.2869 442.767H40.2736V440.574H44.2869V438.402H47.116V440.574H51.1075V442.767ZM56.5464 450.552H53.7612V446.078H50.5154V443.841H53.7612V438.49H56.5464V450.552ZM49.7258 450.881C51.144 450.888 52.3685 451.038 53.3993 451.331C54.43 451.623 55.2196 452.051 55.7678 452.614C56.3234 453.169 56.6049 453.842 56.6122 454.631C56.6049 455.428 56.3234 456.112 55.7678 456.682C55.2123 457.259 54.4191 457.698 53.3883 457.998C52.3576 458.297 51.1367 458.447 49.7258 458.447C48.3223 458.447 47.1051 458.297 46.0743 457.998C45.0436 457.698 44.2504 457.259 43.6948 456.682C43.1392 456.112 42.8614 455.428 42.8614 454.631C42.8614 453.842 43.1356 453.169 43.6838 452.614C44.2394 452.051 45.0326 451.623 46.0634 451.331C47.0941 451.038 48.3149 450.888 49.7258 450.881ZM49.7258 453.03C48.388 453.03 47.3719 453.166 46.6774 453.436C45.9902 453.699 45.6467 454.098 45.6467 454.631C45.6467 455.18 45.9939 455.6 46.6884 455.892C47.3902 456.177 48.4027 456.32 49.7258 456.32C51.0709 456.32 52.0907 456.177 52.7852 455.892C53.4797 455.6 53.8269 455.18 53.8269 454.631C53.8269 453.564 52.4599 453.03 49.7258 453.03ZM75.9554 458.206H62.4678V451.1H75.9554V458.206ZM65.253 456.013H73.1921V453.272H65.253V456.013ZM75.9554 450.223H73.1701V447.372H69.8585V445.113H73.1701V443.271H69.8585V441.012H73.1701V438.512H75.9554V450.223ZM68.7181 445.53H62.6871V447.471C64.3173 447.456 65.6185 447.423 66.5908 447.372C67.5631 447.314 68.5281 447.211 69.4857 447.065L69.705 449.28C68.7839 449.448 67.8482 449.562 66.8979 449.62C65.9548 449.671 64.7047 449.697 63.1476 449.697H61.4151H59.9238V443.425H65.911V441.626H59.8799V439.389H68.7181V445.53ZM85.9121 443.929C85.9048 444.974 86.0839 446.023 86.4494 447.076C86.8222 448.129 87.3778 449.094 88.1161 449.971C88.8545 450.841 89.75 451.517 90.8027 452L89.2456 454.193C88.1637 453.696 87.2243 452.976 86.4275 452.033C85.6306 451.082 85.0019 449.986 84.5414 448.743C84.0808 450.11 83.4375 451.312 82.6115 452.351C81.7927 453.389 80.8241 454.171 79.7056 454.697L78.0827 452.482C79.15 451.985 80.0601 451.28 80.8131 450.366C81.5661 449.445 82.1326 448.425 82.5128 447.306C82.9002 446.188 83.0976 445.062 83.1049 443.929V442.701H78.8722V440.42H89.9255V442.701H85.9121V443.929ZM94.2897 446.1H97.2285V448.447H94.2897V458.447H91.4826V438.49H94.2897V446.1ZM107.054 438.666C108.581 438.666 109.886 438.797 110.968 439.06C112.05 439.323 112.876 439.711 113.447 440.223C114.017 440.734 114.305 441.356 114.313 442.087C114.305 442.811 114.017 443.428 113.447 443.94C112.876 444.444 112.05 444.828 110.968 445.091C109.886 445.355 108.581 445.486 107.054 445.486C105.518 445.486 104.206 445.355 103.117 445.091C102.028 444.828 101.198 444.444 100.628 443.94C100.058 443.428 99.7725 442.811 99.7725 442.087C99.7725 441.356 100.058 440.734 100.628 440.223C101.198 439.711 102.028 439.323 103.117 439.06C104.206 438.797 105.518 438.666 107.054 438.666ZM107.054 440.727C105.584 440.727 104.491 440.84 103.775 441.067C103.059 441.286 102.704 441.626 102.711 442.087C102.704 442.562 103.051 442.909 103.753 443.129C104.462 443.341 105.562 443.447 107.054 443.447C108.552 443.447 109.652 443.341 110.354 443.129C111.063 442.909 111.418 442.562 111.418 442.087C111.418 441.626 111.06 441.286 110.343 441.067C109.627 440.84 108.53 440.727 107.054 440.727ZM116.155 448.513H111.593V449.916H113.94V455.004H102.821V456.21H114.466V458.316H100.08V453.052H111.177V451.956H100.058V449.916H102.536V448.513H97.9522V446.319H116.155V448.513ZM108.808 449.916V448.513H105.299V449.916H108.808ZM133.919 441.539H128.414C128.531 442.109 128.842 442.653 129.347 443.172C129.858 443.691 130.571 444.141 131.485 444.521C132.399 444.894 133.488 445.15 134.753 445.289L133.722 447.482C131.901 447.277 130.366 446.82 129.116 446.111C127.866 445.395 126.974 444.507 126.441 443.447C125.9 444.507 125.008 445.395 123.765 446.111C122.522 446.82 120.994 447.277 119.181 447.482L118.173 445.289C119.43 445.15 120.512 444.89 121.418 444.51C122.332 444.13 123.041 443.68 123.546 443.161C124.057 442.642 124.372 442.101 124.489 441.539H119.028V439.345H133.919V441.539ZM135.608 450.662H128.085V454.105H125.322V450.662H117.339V448.425H135.608V450.662ZM133.59 458.096H119.489V452.329H122.274V455.859H133.59V458.096ZM147.363 440.047C147.363 440.851 147.633 441.645 148.174 442.427C148.715 443.202 149.512 443.874 150.565 444.444C151.618 445.015 152.875 445.391 154.337 445.574L153.24 447.833C151.53 447.584 150.042 447.087 148.777 446.341C147.52 445.588 146.555 444.66 145.883 443.556C145.217 444.66 144.26 445.588 143.01 446.341C141.759 447.087 140.286 447.584 138.59 447.833L137.472 445.574C138.919 445.391 140.169 445.015 141.222 444.444C142.275 443.874 143.072 443.202 143.613 442.427C144.154 441.645 144.424 440.851 144.424 440.047V439.082H147.363V440.047ZM154.973 451.627H147.209V458.447H144.446V451.627H136.77V449.346H154.973V451.627ZM167.364 441.188C167.364 442.211 167.338 443.172 167.287 444.072C167.236 444.963 167.108 445.954 166.903 447.043L164.162 446.78C164.44 445.252 164.593 443.732 164.623 442.218H157.1V439.938H167.364V441.188ZM162.408 448.37C164.674 448.268 166.64 448.096 168.307 447.855L168.461 449.872C166.626 450.209 164.714 450.432 162.726 450.541C160.737 450.651 158.548 450.713 156.157 450.728L155.916 448.491C157.502 448.491 158.738 448.48 159.622 448.458V444.543H162.408V448.37ZM172.255 444.565H174.667V446.912H172.255V453.425H169.382V438.49H172.255V444.565ZM172.869 458.096H158.855V452.087H161.662V455.859H172.869V458.096ZM28.2619 479.587C28.2619 477.991 28.4929 476.499 28.9549 475.113C29.417 473.721 30.0866 472.411 30.9638 471.183H33.4377C33.0224 471.786 32.6247 472.552 32.2446 473.482C31.8645 474.406 31.5545 475.406 31.3147 476.482C31.0808 477.552 30.9638 478.587 30.9638 479.587C30.9638 480.593 31.0808 481.634 31.3147 482.71C31.5545 483.781 31.8645 484.781 32.2446 485.71C32.6247 486.64 33.0224 487.406 33.4377 488.009H30.9638C29.1626 485.477 28.2619 482.669 28.2619 479.587ZM46.9998 474.587H49.1578V476.429H46.9998V481.851H44.7541V470.096H46.9998V474.587ZM47.5788 485.763H36.6484V480.64H38.8766V483.974H47.5788V485.763ZM37.0343 473.534H40.2977V471.218H42.5434V479.307H34.8062V471.218H37.0343V473.534ZM40.2977 477.552V475.254H37.0343V477.552H40.2977ZM64.4569 481.044H58.211V486.044H56.0003V481.044H49.8421V479.289H64.4569V481.044ZM53.7721 472.534H60.4743V470.692H62.72V477.745H51.5615V470.692H53.7721V472.534ZM60.4743 475.956V474.289H53.7721V475.956H60.4743ZM79.2297 486.044H77.0892V478.043H75.7734V485.272H73.668V470.341H75.7734V476.236H77.0892V470.078H79.2297V486.044ZM72.8785 473.692H71.8433V480.324C72.3463 480.272 72.7381 480.225 73.0188 480.184L73.1416 481.816C71.3404 482.201 68.7788 482.394 65.457 482.394L65.2114 480.552L66.5623 480.544V473.692H65.5096V471.885H72.8785V473.692ZM69.8432 480.465V473.692H68.58V480.508L69.8432 480.465ZM82.8439 486.342H80.6157L84.7037 471.131H86.9494L82.8439 486.342ZM96.6868 473.499H93.4586C93.4644 474.061 93.6077 474.605 93.8884 475.131C94.1691 475.657 94.5931 476.125 95.1604 476.535C95.7277 476.944 96.4236 477.254 97.2482 477.464L96.2131 479.184C95.3242 478.962 94.558 478.614 93.9147 478.14C93.2714 477.66 92.7626 477.087 92.3883 476.42C92.0316 477.187 91.5286 477.845 90.8795 478.394C90.2303 478.938 89.4466 479.342 88.5285 479.605L87.4758 477.868C88.3004 477.634 88.9905 477.292 89.5461 476.842C90.1075 476.391 90.5256 475.88 90.8005 475.306C91.0812 474.727 91.2245 474.125 91.2304 473.499H88.0197V471.745H91.2304V470.008H93.4936V471.745H96.6868V473.499ZM101.038 479.728H98.8097V476.149H96.2131V474.359H98.8097V470.078H101.038V479.728ZM95.5815 479.991C96.716 479.997 97.6956 480.117 98.5202 480.351C99.3448 480.584 99.9765 480.927 100.415 481.377C100.86 481.821 101.085 482.359 101.091 482.991C101.085 483.628 100.86 484.175 100.415 484.631C99.9706 485.093 99.3361 485.444 98.5115 485.684C97.6869 485.924 96.7102 486.044 95.5815 486.044C94.4586 486.044 93.4849 485.924 92.6603 485.684C91.8357 485.444 91.2011 485.093 90.7566 484.631C90.3122 484.175 90.0899 483.628 90.0899 482.991C90.0899 482.359 90.3093 481.821 90.7479 481.377C91.1923 480.927 91.8269 480.584 92.6515 480.351C93.4761 480.117 94.4528 479.997 95.5815 479.991ZM95.5815 481.71C94.5112 481.71 93.6983 481.818 93.1427 482.035C92.593 482.245 92.3181 482.564 92.3181 482.991C92.3181 483.43 92.5959 483.766 93.1515 484C93.713 484.228 94.5229 484.342 95.5815 484.342C96.6576 484.342 97.4734 484.228 98.029 484C98.5846 483.766 98.8624 483.43 98.8624 482.991C98.8624 482.137 97.7687 481.71 95.5815 481.71ZM116.565 485.851H105.775V480.166H116.565V485.851ZM108.003 484.096H114.354V481.903H108.003V484.096ZM116.565 479.464H114.337V477.184H111.688V475.377H114.337V473.903H111.688V472.096H114.337V470.096H116.565V479.464ZM110.775 475.71H105.95V477.263C107.255 477.251 108.296 477.225 109.073 477.184C109.851 477.137 110.623 477.055 111.389 476.938L111.565 478.71C110.828 478.845 110.079 478.935 109.319 478.982C108.565 479.023 107.565 479.043 106.319 479.043H104.933H103.74V474.026H108.53V472.587H103.705V470.797H110.775V475.71ZM131.987 478.166H129.759V470.078H131.987V478.166ZM132.005 483.184H123.513V484.167H132.443V485.939H121.32V481.517H129.776V480.587H121.285V478.85H132.005V483.184ZM124.759 471.657C124.753 472.318 124.884 472.95 125.153 473.552C125.422 474.148 125.838 474.678 126.399 475.14C126.966 475.602 127.671 475.956 128.513 476.201L127.425 477.921C126.531 477.657 125.762 477.266 125.118 476.745C124.481 476.219 123.978 475.593 123.609 474.868C123.235 475.663 122.715 476.35 122.048 476.929C121.387 477.502 120.595 477.926 119.671 478.201L118.565 476.447C119.419 476.195 120.135 475.821 120.714 475.324C121.293 474.827 121.723 474.262 122.004 473.631C122.285 472.999 122.425 472.341 122.425 471.657V470.429H124.759V471.657ZM140.04 473.833C140.04 474.447 140.178 475.043 140.452 475.622C140.727 476.201 141.145 476.722 141.707 477.184C142.274 477.646 142.976 478.002 143.812 478.254L142.742 479.991C141.871 479.745 141.116 479.365 140.479 478.85C139.841 478.33 139.335 477.713 138.961 476.999C138.599 477.771 138.096 478.438 137.452 479C136.815 479.555 136.046 479.973 135.145 480.254L134.057 478.5C134.894 478.254 135.592 477.891 136.154 477.412C136.715 476.926 137.131 476.377 137.4 475.763C137.674 475.148 137.812 474.505 137.812 473.833V473.71H134.601V471.955H137.812V470.183H140.075V471.955H143.268V473.71H140.04V473.833ZM147.619 481.938H145.391V476.552H142.742V474.745H145.391V470.096H147.619V481.938ZM148.005 485.763H137.022V480.921H139.268V483.974H148.005V485.763ZM163.076 486.079H160.848V470.078H163.076V486.079ZM158.129 477.57H152.865V480.5C154.117 480.494 155.284 480.45 156.366 480.368C157.453 480.286 158.567 480.155 159.708 479.973L159.901 481.78C158.661 481.997 157.427 482.146 156.199 482.228C154.971 482.304 153.567 482.342 151.988 482.342H150.549V475.798H155.848V473.219H150.532V471.411H158.129V477.57ZM173.252 473.306H168.235V480.394C169.457 480.383 170.515 480.342 171.41 480.272C172.311 480.201 173.212 480.084 174.112 479.921L174.34 481.728C173.369 481.915 172.396 482.044 171.419 482.114C170.448 482.184 169.287 482.219 167.936 482.219H167.27H165.971V471.482H173.252V473.306ZM178.709 486.079H176.481V477.429H172.463V475.605H176.481V470.078H178.709V486.079ZM185.867 479.587C185.867 482.669 184.967 485.477 183.165 488.009H180.692C181.107 487.406 181.504 486.64 181.885 485.71C182.265 484.781 182.572 483.781 182.806 482.71C183.045 481.634 183.165 480.593 183.165 479.587C183.165 478.587 183.045 477.552 182.806 476.482C182.572 475.406 182.265 474.406 181.885 473.482C181.504 472.552 181.107 471.786 180.692 471.183H183.165C184.043 472.411 184.712 473.721 185.174 475.113C185.636 476.499 185.867 477.991 185.867 479.587Z" fill="#04329A"/>
<rect x="1.5148" y="352.265" width="211.1" height="46.0377" rx="5.43857" fill="#2196F3"/>
<rect x="1.5148" y="352.265" width="211.1" height="46.0377" rx="5.43857" fill="white" fill-opacity="0.88"/>
<rect x="1.5148" y="352.265" width="211.1" height="46.0377" rx="5.43857" stroke="#04329A" stroke-width="1.12287"/>
<path d="M37.7844 369.863C37.7844 371.113 37.9744 372.323 38.3546 373.493C38.7347 374.655 39.3013 375.69 40.0542 376.596C40.8145 377.495 41.7393 378.175 42.8285 378.636L41.1837 380.873C40.0725 380.368 39.1149 379.648 38.3107 378.713C37.5139 377.769 36.8816 376.662 36.4137 375.39C35.9458 376.779 35.2952 377.985 34.4618 379.009C33.6358 380.032 32.6306 380.814 31.4463 381.355L29.7576 379.031C30.8834 378.555 31.8338 377.85 32.6087 376.914C33.3835 375.971 33.9647 374.893 34.3522 373.679C34.7469 372.466 34.948 371.194 34.9553 369.863V366.881H37.7844V369.863ZM46.7323 385.347H43.9031V365.346H46.7323V385.347ZM60.1979 376.574H50.4386V366.947H60.1979V376.574ZM53.2019 374.359H57.4127V369.162H53.2019V374.359ZM66.1412 379.557H63.3341V365.367H66.1412V379.557ZM66.6676 384.864H52.7633V378.241H55.5924V382.605H66.6676V384.864ZM84.673 369.71H87.3705V372.013H84.673V376.508H81.8658V365.346H84.673V369.71ZM79.0806 366.508C79.0732 369.132 78.2654 371.329 76.6572 373.098C75.0562 374.867 72.7498 376.15 69.7379 376.947L68.6194 374.732C70.8125 374.191 72.5341 373.402 73.7842 372.363C75.0416 371.318 75.7872 370.112 76.0212 368.745H69.6063V366.508H79.0806ZM84.673 385.062H71.624V377.254H84.673V385.062ZM74.4092 382.868H81.9097V379.513H74.4092V382.868ZM95.5946 369.863C95.5873 371.084 95.7591 372.268 96.11 373.416C96.4609 374.557 96.9909 375.58 97.7 376.487C98.4091 377.393 99.2791 378.095 100.31 378.592L98.6211 380.829C97.5831 380.317 96.6948 379.597 95.9565 378.669C95.2255 377.74 94.6443 376.651 94.213 375.401C93.767 376.731 93.1493 377.897 92.3598 378.899C91.5776 379.893 90.6382 380.661 89.5417 381.202L87.8091 378.943C88.8984 378.446 89.8158 377.726 90.5615 376.783C91.3071 375.832 91.8627 374.761 92.2282 373.57C92.601 372.371 92.7875 371.135 92.7875 369.863V366.881H95.5946V369.863ZM103.994 373.043H106.933V375.412H103.994V385.303H101.187V365.346H103.994V373.043ZM116.758 365.631C118.227 365.631 119.507 365.788 120.596 366.102C121.685 366.409 122.526 366.855 123.118 367.44C123.71 368.025 124.01 368.716 124.017 369.512C124.01 370.222 123.765 370.847 123.283 371.388C122.807 371.929 122.128 372.367 121.243 372.703C120.358 373.032 119.309 373.241 118.096 373.328V374.732H125.859V376.969H107.657V374.732H115.355V373.317C114.156 373.222 113.114 373.01 112.229 372.681C111.345 372.345 110.665 371.91 110.19 371.377C109.715 370.836 109.477 370.214 109.477 369.512C109.477 368.716 109.777 368.025 110.376 367.44C110.976 366.855 111.824 366.409 112.92 366.102C114.017 365.788 115.296 365.631 116.758 365.631ZM116.758 367.78C115.362 367.78 114.284 367.93 113.523 368.229C112.763 368.529 112.387 368.957 112.394 369.512C112.387 370.083 112.759 370.514 113.512 370.806C114.265 371.099 115.347 371.245 116.758 371.245C118.162 371.245 119.24 371.099 119.993 370.806C120.746 370.514 121.122 370.083 121.122 369.512C121.122 368.957 120.742 368.529 119.982 368.229C119.222 367.93 118.147 367.78 116.758 367.78ZM123.688 385.084H109.762V378.285H123.688V385.084ZM112.525 382.847H120.947V380.5H112.525V382.847ZM145.312 379.052H137.505V385.303H134.742V379.052H127.044V376.859H145.312V379.052ZM131.956 368.416H140.334V366.113H143.141V374.929H129.193V366.113H131.956V368.416ZM140.334 372.692V370.609H131.956V372.692H140.334ZM164.743 382.89H146.475V380.61H164.743V382.89ZM157.045 369.293C157.045 370.236 157.32 371.132 157.868 371.98C158.423 372.828 159.228 373.555 160.28 374.162C161.34 374.761 162.601 375.171 164.063 375.39L162.967 377.605C161.234 377.298 159.732 376.739 158.46 375.927C157.195 375.116 156.238 374.114 155.587 372.923C154.951 374.136 154.004 375.163 152.747 376.004C151.497 376.845 150.02 377.415 148.317 377.715L147.22 375.478C148.631 375.258 149.856 374.842 150.894 374.228C151.939 373.606 152.736 372.864 153.284 372.002C153.833 371.139 154.107 370.236 154.107 369.293V369.271H147.988V367.034H163.142V369.271H157.045V369.293ZM176.06 376.574H166.476V366.99H176.06V376.574ZM169.239 374.381H173.296V369.227H169.239V374.381ZM181.718 371.091H184.415V373.394H181.718V379.908H178.911V365.346H181.718V371.091ZM182.442 384.952H168.779V378.482H171.564V382.715H182.442V384.952Z" fill="#04329A"/>
<rect x="315.357" y="276.469" width="211.1" height="61.7578" rx="10" fill="#2F5BC1"/>
<path d="M350.376 297.781C351.809 297.788 353.066 297.964 354.148 298.307C355.238 298.644 356.082 299.122 356.681 299.744C357.281 300.365 357.584 301.092 357.591 301.926C357.584 302.752 357.281 303.472 356.681 304.086C356.082 304.7 355.238 305.175 354.148 305.512C353.066 305.841 351.809 306.005 350.376 306.005C348.936 306.005 347.668 305.841 346.571 305.512C345.482 305.175 344.638 304.7 344.038 304.086C343.439 303.472 343.139 302.752 343.139 301.926C343.139 301.092 343.439 300.365 344.038 299.744C344.638 299.122 345.482 298.644 346.571 298.307C347.668 297.964 348.936 297.788 350.376 297.781ZM350.376 299.996C349.053 299.996 348.019 300.164 347.273 300.5C346.527 300.829 346.158 301.304 346.165 301.926C346.158 302.533 346.527 303 347.273 303.329C348.026 303.651 349.06 303.819 350.376 303.834C351.685 303.819 352.712 303.651 353.457 303.329C354.21 303 354.587 302.533 354.587 301.926C354.587 301.304 354.21 300.829 353.457 300.5C352.712 300.164 351.685 299.996 350.376 299.996ZM359.521 309.317H355.245V312.869H352.438V309.317H350.332V312.869H347.503V309.317H341.275V307.08H359.521V309.317ZM357.723 317.014H343.358V311.137H346.165V314.777H357.723V317.014ZM377.417 317.409H374.632V297.408H377.417V317.409ZM371.233 306.773H364.653V310.435C366.218 310.428 367.676 310.373 369.029 310.271C370.388 310.168 371.781 310.004 373.206 309.777L373.448 312.036C371.898 312.307 370.355 312.493 368.82 312.595C367.285 312.69 365.531 312.738 363.557 312.738H361.758V304.558H368.382V301.334H361.736V299.075H371.233V306.773ZM396.914 308.922H394.129V306.97H389.633V304.733H394.129V302.825H389.83C388.595 305.976 385.773 308.154 381.365 309.36L380.268 307.145C382.505 306.561 384.219 305.746 385.411 304.7C386.603 303.647 387.301 302.416 387.505 301.005H381.343V298.768H390.554C390.554 299.44 390.506 300.062 390.411 300.632H394.129V297.43H396.914V308.922ZM390.269 309.163C391.614 309.163 392.798 309.328 393.822 309.657C394.845 309.986 395.638 310.453 396.201 311.06C396.771 311.667 397.06 312.38 397.067 313.198C397.06 314.024 396.771 314.745 396.201 315.359C395.638 315.973 394.845 316.444 393.822 316.773C392.798 317.109 391.614 317.278 390.269 317.278C388.909 317.278 387.714 317.109 386.683 316.773C385.652 316.444 384.852 315.973 384.282 315.359C383.719 314.745 383.441 314.024 383.448 313.198C383.441 312.38 383.719 311.667 384.282 311.06C384.852 310.453 385.652 309.986 386.683 309.657C387.714 309.328 388.909 309.163 390.269 309.163ZM390.269 311.356C388.997 311.342 388.006 311.495 387.297 311.817C386.588 312.131 386.233 312.592 386.233 313.198C386.233 313.805 386.584 314.269 387.286 314.591C387.995 314.905 388.989 315.063 390.269 315.063C391.526 315.063 392.506 314.905 393.208 314.591C393.909 314.269 394.26 313.805 394.26 313.198C394.26 312.592 393.909 312.131 393.208 311.817C392.506 311.495 391.526 311.342 390.269 311.356ZM405.072 298.483C405.854 298.483 406.585 298.618 407.265 298.888C407.945 299.159 408.526 299.543 409.009 300.04H413.538V297.408H416.323V309.097H413.538V306.707H408.987C408.504 307.197 407.92 307.577 407.232 307.847C406.553 308.11 405.818 308.242 405.028 308.242C404.041 308.242 403.146 308.03 402.342 307.606C401.538 307.182 400.905 306.601 400.445 305.862C399.984 305.117 399.758 304.287 399.765 303.373C399.758 302.438 399.984 301.601 400.445 300.862C400.905 300.117 401.541 299.535 402.353 299.119C403.164 298.695 404.071 298.483 405.072 298.483ZM405.072 300.873C404.553 300.873 404.089 300.972 403.68 301.169C403.278 301.367 402.963 301.655 402.737 302.036C402.517 302.416 402.411 302.862 402.419 303.373C402.411 303.878 402.521 304.32 402.748 304.7C402.974 305.08 403.288 305.373 403.691 305.577C404.093 305.782 404.553 305.881 405.072 305.873C405.577 305.881 406.026 305.782 406.421 305.577C406.816 305.373 407.123 305.08 407.342 304.7C407.569 304.32 407.682 303.878 407.682 303.373C407.682 302.862 407.569 302.416 407.342 302.036C407.123 301.655 406.816 301.367 406.421 301.169C406.026 300.972 405.577 300.873 405.072 300.873ZM409.502 309.514C410.906 309.514 412.123 309.671 413.154 309.986C414.192 310.293 414.989 310.742 415.544 311.334C416.1 311.919 416.381 312.621 416.389 313.44C416.381 314.258 416.1 314.96 415.544 315.545C414.989 316.137 414.192 316.587 413.154 316.894C412.123 317.208 410.906 317.365 409.502 317.365C408.099 317.365 406.882 317.208 405.851 316.894C404.82 316.587 404.027 316.137 403.471 315.545C402.916 314.96 402.638 314.258 402.638 313.44C402.638 312.621 402.916 311.919 403.471 311.334C404.027 310.742 404.82 310.293 405.851 309.986C406.882 309.671 408.099 309.514 409.502 309.514ZM409.502 311.641C408.164 311.641 407.141 311.791 406.432 312.091C405.73 312.391 405.379 312.84 405.379 313.44C405.379 314.017 405.73 314.456 406.432 314.756C407.141 315.048 408.164 315.194 409.502 315.194C410.855 315.194 411.882 315.048 412.584 314.756C413.293 314.456 413.647 314.017 413.647 313.44C413.647 312.84 413.296 312.391 412.595 312.091C411.893 311.791 410.862 311.641 409.502 311.641ZM410.215 302.255C410.295 302.62 410.336 302.993 410.336 303.373C410.336 303.739 410.295 304.104 410.215 304.47H413.538V302.255H410.215ZM440.908 311.992H438.122V304.843H434.855V302.584H438.122V297.43H440.908V311.992ZM441.39 317.014H427.661V310.72H430.468V314.777H441.39V317.014ZM431.631 301.334C431.631 302.131 431.795 302.909 432.124 303.669C432.46 304.43 432.972 305.117 433.659 305.731C434.347 306.345 435.198 306.816 436.214 307.145L434.833 309.36C433.758 309.017 432.833 308.502 432.058 307.814C431.291 307.127 430.68 306.316 430.227 305.38C429.774 306.418 429.142 307.314 428.33 308.067C427.526 308.82 426.55 309.39 425.402 309.777L423.977 307.496C425.029 307.167 425.914 306.681 426.63 306.038C427.354 305.395 427.891 304.667 428.242 303.856C428.593 303.037 428.772 302.189 428.78 301.312V301.005H424.766V298.768H435.6V301.005H431.631V301.334ZM459.33 301.904H462.027V304.207H459.33V308.615H456.522V297.408H459.33V301.904ZM453.167 300.873H447.07V305.632C448.92 305.618 450.411 305.57 451.544 305.49C452.685 305.402 453.803 305.245 454.9 305.018L455.185 307.211C454 307.482 452.758 307.661 451.456 307.749C450.162 307.829 448.328 307.869 445.952 307.869H444.263V298.658H453.167V300.873ZM459.33 317.124H446.281V309.448H459.33V317.124ZM449.044 314.931H456.566V311.663H449.044V314.931ZM481.151 311.115H473.344V317.365H470.58V311.115H462.882V308.922H481.151V311.115ZM467.795 300.478H476.173V298.176H478.98V306.992H465.032V298.176H467.795V300.478ZM476.173 304.755V302.672H467.795V304.755H476.173ZM489.858 301.926C489.858 303.212 490.033 304.441 490.384 305.61C490.742 306.773 491.283 307.807 492.007 308.714C492.731 309.613 493.63 310.296 494.704 310.764L492.994 313.001C491.919 312.475 491.002 311.74 490.241 310.797C489.489 309.847 488.896 308.739 488.465 307.474C488.019 308.827 487.401 310.007 486.612 311.016C485.83 312.025 484.887 312.804 483.783 313.352L482.028 311.071C483.125 310.581 484.046 309.861 484.792 308.911C485.537 307.961 486.093 306.882 486.458 305.676C486.831 304.47 487.021 303.22 487.029 301.926V298.943H489.858V301.926ZM499.156 317.409H496.393V305.939H492.467V303.68H496.393V297.408H499.156V317.409Z" fill="white"/>
<rect x="1.5148" y="206.288" width="211.1" height="80.8466" rx="9.43857" fill="#2196F3"/>
<rect x="1.5148" y="206.288" width="211.1" height="80.8466" rx="9.43857" fill="white" fill-opacity="0.88"/>
<rect x="1.5148" y="206.288" width="211.1" height="80.8466" rx="9.43857" stroke="#04329A" stroke-width="1.12287"/>
<path d="M48.8267 237.144C50.2595 237.151 51.5169 237.327 52.5988 237.671C53.688 238.007 54.5324 238.486 55.1318 239.107C55.7313 239.728 56.0347 240.456 56.042 241.289C56.0347 242.115 55.7313 242.835 55.1318 243.449C54.5324 244.063 53.688 244.539 52.5988 244.875C51.5169 245.204 50.2595 245.368 48.8267 245.368C47.3865 245.368 46.1182 245.204 45.0216 244.875C43.9324 244.539 43.088 244.063 42.4886 243.449C41.8891 242.835 41.5894 242.115 41.5894 241.289C41.5894 240.456 41.8891 239.728 42.4886 239.107C43.088 238.486 43.9324 238.007 45.0216 237.671C46.1182 237.327 47.3865 237.151 48.8267 237.144ZM48.8267 239.359C47.5035 239.359 46.4691 239.527 45.7234 239.864C44.9778 240.193 44.6086 240.668 44.6159 241.289C44.6086 241.896 44.9778 242.364 45.7234 242.693C46.4764 243.014 47.5108 243.183 48.8267 243.197C50.1352 243.183 51.1623 243.014 51.908 242.693C52.6609 242.364 53.0374 241.896 53.0374 241.289C53.0374 240.668 52.6609 240.193 51.908 239.864C51.1623 239.527 50.1352 239.359 48.8267 239.359ZM57.9719 248.68H53.6954V252.233H50.8882V248.68H48.7828V252.233H45.9537V248.68H39.7253V246.443H57.9719V248.68ZM56.1736 256.378H41.8087V250.5H44.6159V254.141H56.1736V256.378ZM75.8677 256.772H73.0824V236.771H75.8677V256.772ZM69.6831 246.136H63.1038V249.798C64.6682 249.791 66.1266 249.736 67.479 249.634C68.8388 249.532 70.2314 249.367 71.6569 249.14L71.8981 251.399C70.3483 251.67 68.8059 251.856 67.2707 251.959C65.7355 252.054 63.981 252.101 62.0072 252.101H60.2089V243.921H66.8321V240.697H60.187V238.438H69.6831V246.136ZM95.3644 248.285H92.5791V246.333H88.0832V244.096H92.5791V242.188H88.2806C87.0452 245.339 84.2234 247.518 79.8152 248.724L78.7187 246.509C80.9557 245.924 82.6699 245.109 83.8615 244.063C85.0531 243.011 85.7512 241.779 85.9559 240.368H79.7933V238.131H89.0044C89.0044 238.804 88.9568 239.425 88.8618 239.995H92.5791V236.793H95.3644V248.285ZM88.7192 248.526C90.0644 248.526 91.2486 248.691 92.2721 249.02C93.2955 249.349 94.0887 249.817 94.6516 250.423C95.2218 251.03 95.5106 251.743 95.5179 252.562C95.5106 253.388 95.2218 254.108 94.6516 254.722C94.0887 255.336 93.2955 255.807 92.2721 256.136C91.2486 256.473 90.0644 256.641 88.7192 256.641C87.3595 256.641 86.1643 256.473 85.1335 256.136C84.1028 255.807 83.3023 255.336 82.7321 254.722C82.1692 254.108 81.8914 253.388 81.8987 252.562C81.8914 251.743 82.1692 251.03 82.7321 250.423C83.3023 249.817 84.1028 249.349 85.1335 249.02C86.1643 248.691 87.3595 248.526 88.7192 248.526ZM88.7192 250.719C87.4472 250.705 86.4567 250.858 85.7476 251.18C85.0385 251.494 84.6839 251.955 84.6839 252.562C84.6839 253.168 85.0348 253.633 85.7366 253.954C86.4457 254.269 87.4399 254.426 88.7192 254.426C89.9766 254.426 90.9562 254.269 91.658 253.954C92.3598 253.633 92.7107 253.168 92.7107 252.562C92.7107 251.955 92.3598 251.494 91.658 251.18C90.9562 250.858 89.9766 250.705 88.7192 250.719ZM103.523 237.846C104.305 237.846 105.036 237.981 105.716 238.252C106.396 238.522 106.977 238.906 107.459 239.403H111.988V236.771H114.773V248.461H111.988V246.07H107.437C106.955 246.56 106.37 246.94 105.683 247.211C105.003 247.474 104.268 247.605 103.479 247.605C102.492 247.605 101.596 247.393 100.792 246.969C99.9882 246.545 99.3558 245.964 98.8953 245.226C98.4347 244.48 98.2081 243.65 98.2154 242.737C98.2081 241.801 98.4347 240.964 98.8953 240.225C99.3558 239.48 99.9918 238.899 100.803 238.482C101.615 238.058 102.521 237.846 103.523 237.846ZM103.523 240.236C103.004 240.236 102.539 240.335 102.13 240.533C101.728 240.73 101.414 241.019 101.187 241.399C100.968 241.779 100.862 242.225 100.869 242.737C100.862 243.241 100.971 243.683 101.198 244.063C101.425 244.444 101.739 244.736 102.141 244.941C102.543 245.145 103.004 245.244 103.523 245.237C104.027 245.244 104.477 245.145 104.871 244.941C105.266 244.736 105.573 244.444 105.793 244.063C106.019 243.683 106.133 243.241 106.133 242.737C106.133 242.225 106.019 241.779 105.793 241.399C105.573 241.019 105.266 240.73 104.871 240.533C104.477 240.335 104.027 240.236 103.523 240.236ZM107.953 248.877C109.356 248.877 110.574 249.034 111.604 249.349C112.642 249.656 113.439 250.105 113.995 250.698C114.55 251.282 114.832 251.984 114.839 252.803C114.832 253.622 114.55 254.323 113.995 254.908C113.439 255.5 112.642 255.95 111.604 256.257C110.574 256.571 109.356 256.729 107.953 256.729C106.549 256.729 105.332 256.571 104.301 256.257C103.271 255.95 102.477 255.5 101.922 254.908C101.366 254.323 101.088 253.622 101.088 252.803C101.088 251.984 101.366 251.282 101.922 250.698C102.477 250.105 103.271 249.656 104.301 249.349C105.332 249.034 106.549 248.877 107.953 248.877ZM107.953 251.005C106.615 251.005 105.592 251.154 104.882 251.454C104.181 251.754 103.83 252.203 103.83 252.803C103.83 253.38 104.181 253.819 104.882 254.119C105.592 254.411 106.615 254.557 107.953 254.557C109.305 254.557 110.332 254.411 111.034 254.119C111.743 253.819 112.098 253.38 112.098 252.803C112.098 252.203 111.747 251.754 111.045 251.454C110.343 251.154 109.313 251.005 107.953 251.005ZM108.666 241.618C108.746 241.984 108.786 242.356 108.786 242.737C108.786 243.102 108.746 243.468 108.666 243.833H111.988V241.618H108.666ZM123.875 237.605C124.884 237.597 125.786 237.773 126.583 238.131C127.38 238.482 128.005 238.983 128.458 239.633C128.912 240.277 129.138 241.011 129.138 241.837C129.138 242.656 128.912 243.391 128.458 244.041C128.005 244.685 127.376 245.186 126.572 245.544C125.775 245.902 124.876 246.077 123.875 246.07C122.866 246.077 121.963 245.902 121.166 245.544C120.369 245.186 119.744 244.685 119.291 244.041C118.845 243.391 118.626 242.656 118.633 241.837C118.626 241.011 118.845 240.277 119.291 239.633C119.744 238.983 120.369 238.482 121.166 238.131C121.963 237.773 122.866 237.597 123.875 237.605ZM123.875 239.842C123.114 239.842 122.5 240.021 122.033 240.379C121.565 240.73 121.331 241.216 121.331 241.837C121.331 242.451 121.565 242.934 122.033 243.285C122.5 243.636 123.114 243.804 123.875 243.789C124.657 243.804 125.286 243.636 125.761 243.285C126.243 242.934 126.485 242.451 126.485 241.837C126.485 241.216 126.243 240.73 125.761 240.379C125.286 240.021 124.657 239.842 123.875 239.842ZM134.182 256.729H131.419V236.793H134.182V256.729ZM117.405 247.298C122.712 247.298 126.982 247.057 130.213 246.575L130.388 248.636C128.875 248.936 127.208 249.159 125.388 249.305V256.136H122.603V249.469C121.316 249.528 119.964 249.557 118.545 249.557C118.37 249.572 118.107 249.579 117.756 249.579L117.405 247.298ZM153.679 251.86H150.872V250.281H147.056V248.373H150.872V236.793H153.679V251.86ZM154.118 256.378H139.248V250.412H142.034V247.759C140.674 247.817 139.007 247.847 137.033 247.847L136.704 245.631C139.278 245.617 141.591 245.573 143.646 245.5C145.7 245.427 147.655 245.273 149.512 245.039L149.666 247.035C148.145 247.291 146.537 247.481 144.841 247.605V251.399H142.034V254.141H154.118V256.378ZM143.196 237.473C144.154 237.466 145.009 237.612 145.762 237.912C146.515 238.211 147.103 238.635 147.527 239.184C147.959 239.725 148.174 240.346 148.174 241.048C148.174 241.742 147.962 242.356 147.538 242.89C147.114 243.424 146.522 243.837 145.762 244.129C145.009 244.414 144.154 244.557 143.196 244.557C142.216 244.557 141.346 244.414 140.586 244.129C139.826 243.837 139.234 243.427 138.81 242.901C138.386 242.367 138.174 241.75 138.174 241.048C138.174 240.346 138.382 239.725 138.799 239.184C139.223 238.635 139.815 238.211 140.575 237.912C141.343 237.612 142.216 237.466 143.196 237.473ZM143.196 239.513C142.472 239.513 141.895 239.648 141.463 239.918C141.032 240.189 140.82 240.565 140.827 241.048C140.82 241.523 141.028 241.892 141.452 242.155C141.884 242.411 142.465 242.539 143.196 242.539C143.883 242.539 144.439 242.408 144.863 242.144C145.294 241.881 145.513 241.516 145.521 241.048C145.513 240.565 145.294 240.189 144.863 239.918C144.439 239.648 143.883 239.513 143.196 239.513ZM172.956 256.729H170.171V236.771H172.956V256.729ZM157.298 251.092L161.355 251.037V249.349C160.624 249.217 159.984 248.983 159.436 248.647C158.895 248.311 158.478 247.894 158.186 247.397C157.893 246.893 157.751 246.333 157.758 245.719C157.751 244.981 157.956 244.33 158.372 243.767C158.789 243.197 159.374 242.755 160.127 242.441C160.88 242.126 161.742 241.969 162.715 241.969C163.694 241.969 164.564 242.126 165.324 242.441C166.085 242.755 166.677 243.197 167.101 243.767C167.525 244.33 167.737 244.981 167.737 245.719C167.737 246.333 167.587 246.893 167.287 247.397C166.995 247.894 166.574 248.311 166.026 248.647C165.485 248.983 164.849 249.217 164.118 249.349V250.95C165.99 250.855 167.642 250.712 169.075 250.522L169.272 252.584C167.335 252.913 165.346 253.128 163.307 253.231C161.274 253.326 159.052 253.373 156.64 253.373L156.267 251.092H157.298ZM168.79 241.179H156.662V238.986H161.355V236.859H164.14V238.986H168.79V241.179ZM162.715 244.096C162.02 244.096 161.461 244.243 161.037 244.535C160.613 244.82 160.405 245.215 160.412 245.719C160.405 246.231 160.609 246.629 161.026 246.914C161.45 247.2 162.013 247.342 162.715 247.342C163.431 247.342 164.001 247.203 164.425 246.925C164.849 246.64 165.061 246.238 165.061 245.719C165.061 245.207 164.846 244.809 164.414 244.524C163.99 244.239 163.424 244.096 162.715 244.096Z" fill="#04329A"/>
<rect x="592.706" y="57.5117" width="240.294" height="52.7749" rx="10" fill="#2F5BC1"/>
<path d="M672.006 78.3231H674.704V80.6259H672.006V85.1217H669.199V73.9588H672.006V78.3231ZM666.414 75.1212C666.407 77.7456 665.599 79.9424 663.991 81.7115C662.39 83.4806 660.083 84.7635 657.071 85.5604L655.953 83.3453C658.146 82.8044 659.867 82.0148 661.118 80.9768C662.375 79.9314 663.121 78.7252 663.355 77.3581H656.94V75.1212H666.414ZM672.006 93.6749H658.957V85.8674H672.006V93.6749ZM661.743 91.4817H669.243V88.1263H661.743V91.4817ZM682.928 78.4766C682.921 79.6975 683.092 80.8817 683.443 82.0295C683.794 83.1699 684.324 84.1933 685.033 85.0998C685.742 86.0063 686.612 86.7081 687.643 87.2052L685.954 89.4422C684.916 88.9304 684.028 88.2104 683.29 87.282C682.559 86.3535 681.978 85.2643 681.546 84.0142C681.1 85.3447 680.483 86.5107 679.693 87.5122C678.911 88.5064 677.972 89.274 676.875 89.815L675.142 87.5561C676.232 87.059 677.149 86.3389 677.895 85.3959C678.64 84.4455 679.196 83.3746 679.562 82.183C679.934 80.9841 680.121 79.7486 680.121 78.4766V75.494H682.928V78.4766ZM691.328 81.6566H694.266V84.0252H691.328V93.9161H688.52V73.9588H691.328V81.6566ZM696.152 85.8455C696.152 83.8497 696.441 81.9856 697.019 80.253C697.596 78.5132 698.433 76.8757 699.53 75.3405H702.622C702.103 76.0935 701.606 77.0511 701.131 78.2135C700.656 79.3685 700.268 80.6186 699.968 81.9637C699.676 83.3015 699.53 84.5954 699.53 85.8455C699.53 87.1028 699.676 88.4041 699.968 89.7492C700.268 91.087 700.656 92.3371 701.131 93.4994C701.606 94.6618 702.103 95.6194 702.622 96.3724H699.53C697.278 93.207 696.152 89.698 696.152 85.8455ZM720.452 93.96H717.623V73.9588H720.452V93.96ZM707.535 80.4066H711.833V75.5379H714.596V89.2886H704.727V75.5379H707.535V80.4066ZM711.833 87.0297V82.5777H707.535V87.0297H711.833ZM730.431 77.095C730.431 77.921 730.595 78.7106 730.924 79.4635C731.253 80.2092 731.757 80.8781 732.437 81.4702C733.125 82.0551 733.976 82.5046 734.992 82.819L733.501 84.9902C732.463 84.6466 731.571 84.1495 730.825 83.4988C730.08 82.8482 729.488 82.077 729.049 81.1851C728.603 82.2159 727.985 83.1077 727.196 83.8607C726.414 84.6064 725.467 85.1656 724.356 85.5384L722.842 83.3453C723.917 82.9871 724.809 82.4754 725.518 81.8102C726.227 81.1449 726.754 80.3883 727.097 79.5403C727.441 78.685 727.616 77.7822 727.623 76.8318V75.0115H730.431V77.095ZM738.984 78.6302H741.681V80.9548H738.984V85.8016H736.177V73.9588H738.984V78.6302ZM732.448 86.1964C733.823 86.1964 735.014 86.3499 736.023 86.6569C737.032 86.964 737.81 87.4062 738.359 87.9837C738.907 88.5613 739.181 89.2521 739.181 90.0562C739.181 90.8677 738.907 91.5622 738.359 92.1397C737.818 92.7172 737.039 93.1558 736.023 93.4555C735.014 93.7626 733.823 93.9161 732.448 93.9161C731.045 93.9161 729.828 93.7626 728.797 93.4555C727.773 93.1558 726.984 92.7172 726.428 92.1397C725.88 91.5622 725.606 90.8677 725.606 90.0562C725.606 89.2521 725.88 88.5613 726.428 87.9837C726.984 87.4062 727.777 86.964 728.808 86.6569C729.839 86.3499 731.052 86.1964 732.448 86.1964ZM732.448 88.3895C731.125 88.3895 730.12 88.532 729.433 88.8171C728.746 89.0949 728.406 89.508 728.413 90.0562C728.391 91.1674 729.736 91.723 732.448 91.723C735.095 91.723 736.418 91.1674 736.418 90.0562C736.418 89.508 736.078 89.0949 735.398 88.8171C734.725 88.532 733.742 88.3895 732.448 88.3895ZM759.27 85.2533H756.463V73.9808H759.27V85.2533ZM759.27 93.6968H745.892V86.1525H759.27V93.6968ZM748.655 91.4598H756.529V88.3675H748.655V91.4598ZM748.326 74.8799C749.357 74.8799 750.286 75.0846 751.112 75.494C751.945 75.9034 752.599 76.4736 753.074 77.2046C753.55 77.9357 753.787 78.769 753.787 79.7048C753.787 80.6039 753.55 81.4154 753.074 82.1391C752.599 82.8628 751.945 83.4331 751.112 83.8497C750.278 84.2591 749.35 84.4638 748.326 84.4638C747.303 84.4638 746.375 84.2591 745.541 83.8497C744.708 83.4331 744.053 82.8628 743.578 82.1391C743.103 81.4154 742.866 80.6039 742.866 79.7048C742.866 78.769 743.103 77.9357 743.578 77.2046C744.053 76.4736 744.704 75.9034 745.53 75.494C746.364 75.0846 747.296 74.8799 748.326 74.8799ZM748.326 77.2266C747.793 77.2266 747.318 77.3253 746.901 77.5226C746.491 77.72 746.17 78.0051 745.936 78.3779C745.709 78.7508 745.6 79.193 745.607 79.7048C745.6 80.1946 745.709 80.6222 745.936 80.9877C746.17 81.3459 746.491 81.6237 746.901 81.8211C747.318 82.0185 747.793 82.1172 748.326 82.1172C748.845 82.1172 749.31 82.0185 749.719 81.8211C750.128 81.6237 750.446 81.3459 750.673 80.9877C750.907 80.6222 751.024 80.1946 751.024 79.7048C751.024 79.193 750.907 78.7508 750.673 78.3779C750.446 78.0051 750.128 77.72 749.719 77.5226C749.31 77.3253 748.845 77.2266 748.326 77.2266ZM768.371 85.8455C768.371 89.698 767.246 93.207 764.994 96.3724H761.902C762.421 95.6194 762.918 94.6618 763.393 93.4994C763.868 92.3371 764.252 91.087 764.544 89.7492C764.844 88.4041 764.994 87.1028 764.994 85.8455C764.994 84.5954 764.844 83.3015 764.544 81.9637C764.252 80.6186 763.868 79.3685 763.393 78.2135C762.918 77.0511 762.421 76.0935 761.902 75.3405H764.994C766.091 76.8757 766.928 78.5132 767.505 80.253C768.083 81.9856 768.371 83.8497 768.371 85.8455Z" fill="white"/>
<rect x="592.706" y="195.621" width="240.294" height="101.058" rx="10" fill="#2F5BC1"/>
<path d="M692.7 215.931H695.128V218.003H692.7V222.049H690.174V212.003H692.7V215.931ZM687.667 213.049C687.661 215.411 686.934 217.388 685.486 218.98C684.045 220.572 681.97 221.727 679.259 222.444L678.252 220.451C680.226 219.964 681.776 219.253 682.901 218.319C684.032 217.378 684.703 216.293 684.914 215.062H679.14V213.049H687.667ZM692.7 229.747H680.956V222.721H692.7V229.747ZM683.463 227.773H690.213V224.754H683.463V227.773ZM702.53 216.069C702.523 217.168 702.678 218.233 702.994 219.266C703.31 220.293 703.787 221.214 704.425 222.03C705.063 222.846 705.846 223.477 706.774 223.925L705.254 225.938C704.32 225.477 703.52 224.829 702.856 223.994C702.198 223.158 701.675 222.178 701.286 221.053C700.885 222.25 700.329 223.299 699.619 224.201C698.915 225.096 698.069 225.786 697.082 226.273L695.523 224.24C696.503 223.793 697.329 223.145 698 222.296C698.671 221.441 699.171 220.477 699.5 219.405C699.836 218.326 700.004 217.214 700.004 216.069V213.384H702.53V216.069ZM710.09 218.931H712.734V221.063H710.09V229.964H707.563V212.003H710.09V218.931ZM728.406 221.102H725.9V212.003H728.406V221.102ZM728.426 226.747H718.873V227.852H728.92V229.846H716.406V224.872H725.919V223.826H716.366V221.872H728.426V226.747ZM720.274 213.779C720.268 214.523 720.416 215.233 720.718 215.911C721.021 216.582 721.488 217.177 722.12 217.697C722.758 218.217 723.551 218.615 724.498 218.891L723.275 220.826C722.268 220.53 721.403 220.089 720.679 219.503C719.962 218.911 719.396 218.207 718.982 217.391C718.56 218.286 717.975 219.059 717.225 219.71C716.481 220.355 715.59 220.832 714.55 221.141L713.307 219.168C714.267 218.885 715.073 218.464 715.725 217.904C716.376 217.345 716.86 216.71 717.176 216C717.491 215.289 717.649 214.549 717.649 213.779V212.398H720.274V213.779ZM741.058 215.22H737.486C737.492 215.944 737.644 216.631 737.94 217.283C738.242 217.927 738.703 218.503 739.321 219.01C739.94 219.516 740.71 219.905 741.631 220.174L740.427 222.148C739.46 221.852 738.627 221.418 737.93 220.845C737.233 220.273 736.68 219.592 736.272 218.803C735.864 219.73 735.288 220.536 734.545 221.22C733.808 221.898 732.913 222.411 731.861 222.76L730.578 220.766C731.532 220.464 732.334 220.026 732.986 219.454C733.637 218.881 734.121 218.23 734.436 217.5C734.759 216.77 734.927 216.01 734.94 215.22H731.268V213.207H741.058V215.22ZM745.105 216.168H747.532V218.22H745.105V222.661H742.578V212.003H745.105V216.168ZM739.223 223.017C740.46 223.01 741.532 223.145 742.44 223.421C743.355 223.691 744.055 224.086 744.542 224.605C745.036 225.125 745.282 225.747 745.282 226.471C745.282 227.194 745.036 227.816 744.542 228.336C744.055 228.862 743.355 229.264 742.44 229.54C741.532 229.823 740.46 229.964 739.223 229.964C737.96 229.964 736.864 229.823 735.936 229.54C735.015 229.264 734.305 228.862 733.805 228.336C733.311 227.816 733.065 227.194 733.065 226.471C733.065 225.747 733.311 225.125 733.805 224.605C734.305 224.086 735.015 223.691 735.936 223.421C736.864 223.145 737.96 223.01 739.223 223.017ZM739.223 224.971C738.025 224.971 737.117 225.096 736.499 225.346C735.887 225.596 735.584 225.971 735.591 226.471C735.584 226.977 735.89 227.362 736.509 227.625C737.127 227.882 738.032 228.01 739.223 228.01C740.394 228.01 741.282 227.882 741.887 227.625C742.493 227.369 742.795 226.984 742.795 226.471C742.795 225.971 742.493 225.596 741.887 225.346C741.282 225.096 740.394 224.971 739.223 224.971ZM624.558 248.517C624.558 247.319 624.732 246.201 625.078 245.161C625.425 244.117 625.927 243.135 626.585 242.214H628.44C628.129 242.665 627.831 243.24 627.545 243.937C627.26 244.63 627.028 245.381 626.848 246.188C626.673 246.99 626.585 247.767 626.585 248.517C626.585 249.271 626.673 250.052 626.848 250.859C627.028 251.662 627.26 252.412 627.545 253.109C627.831 253.806 628.129 254.381 628.44 254.833H626.585C625.234 252.934 624.558 250.828 624.558 248.517ZM635.941 243.951H633.52C633.524 244.372 633.631 244.78 633.842 245.174C634.052 245.569 634.37 245.92 634.796 246.227C635.221 246.534 635.743 246.767 636.362 246.924L635.585 248.214C634.919 248.047 634.344 247.786 633.862 247.431C633.379 247.071 632.998 246.642 632.717 246.142C632.449 246.716 632.072 247.21 631.585 247.622C631.098 248.03 630.511 248.332 629.822 248.53L629.032 247.227C629.651 247.052 630.168 246.795 630.585 246.457C631.006 246.12 631.32 245.736 631.526 245.306C631.737 244.872 631.844 244.42 631.848 243.951H629.44V242.635H631.848V241.332H633.546V242.635H635.941V243.951ZM639.204 248.622H637.533V245.938H635.585V244.595H637.533V241.385H639.204V248.622ZM635.112 248.819C635.963 248.824 636.697 248.914 637.316 249.089C637.934 249.265 638.408 249.521 638.737 249.859C639.07 250.192 639.239 250.596 639.244 251.069C639.239 251.548 639.07 251.958 638.737 252.3C638.404 252.646 637.928 252.909 637.309 253.089C636.691 253.269 635.958 253.359 635.112 253.359C634.27 253.359 633.539 253.269 632.921 253.089C632.302 252.909 631.826 252.646 631.493 252.3C631.16 251.958 630.993 251.548 630.993 251.069C630.993 250.596 631.158 250.192 631.487 249.859C631.82 249.521 632.296 249.265 632.914 249.089C633.533 248.914 634.265 248.824 635.112 248.819ZM635.112 250.109C634.309 250.109 633.699 250.19 633.283 250.352C632.87 250.51 632.664 250.749 632.664 251.069C632.664 251.398 632.873 251.651 633.289 251.826C633.71 251.997 634.318 252.083 635.112 252.083C635.919 252.083 636.531 251.997 636.947 251.826C637.364 251.651 637.572 251.398 637.572 251.069C637.572 250.429 636.752 250.109 635.112 250.109ZM646.862 243.503H642.902V244.503H646.612V245.793H642.902V246.832C643.928 246.824 644.783 246.797 645.468 246.753C646.152 246.705 646.832 246.622 647.507 246.503L647.691 247.819C646.924 247.955 646.141 248.047 645.343 248.096C644.549 248.139 643.503 248.161 642.204 248.161H641.204V242.174H646.862V243.503ZM650.257 244.306H651.876V245.701H650.257V248.622H648.573V241.385H650.257V244.306ZM650.257 253.359H648.573V250.451H642.191V249.122H650.257V253.359ZM657.981 248.714C658.806 248.714 659.521 248.806 660.126 248.99C660.736 249.175 661.203 249.44 661.528 249.786C661.857 250.133 662.021 250.547 662.021 251.03C662.021 251.521 661.857 251.942 661.528 252.293C661.203 252.644 660.738 252.912 660.133 253.096C659.528 253.28 658.81 253.372 657.981 253.372C657.135 253.372 656.405 253.28 655.79 253.096C655.176 252.912 654.703 252.644 654.369 252.293C654.04 251.942 653.876 251.521 653.876 251.03C653.876 250.547 654.04 250.133 654.369 249.786C654.703 249.44 655.176 249.175 655.79 248.99C656.409 248.806 657.139 248.714 657.981 248.714ZM657.981 250.017C657.183 250.017 656.578 250.102 656.166 250.273C655.758 250.44 655.556 250.692 655.56 251.03C655.556 251.372 655.76 251.631 656.172 251.806C656.584 251.982 657.188 252.069 657.981 252.069C658.758 252.069 659.348 251.982 659.751 251.806C660.159 251.631 660.363 251.372 660.363 251.03C660.363 250.354 659.569 250.017 657.981 250.017ZM661.903 244.161H663.521V245.569H661.903V248.451H660.218V241.385H661.903V244.161ZM654.429 243.648H656.876V242.135H658.56V247.767H652.757V242.135H654.429V243.648ZM656.876 246.438V244.951H654.429V246.438H656.876ZM668.693 244.648C668.693 245.31 668.804 245.962 669.028 246.602C669.256 247.238 669.596 247.81 670.048 248.319C670.5 248.828 671.048 249.218 671.693 249.49L670.785 250.806C670.096 250.517 669.506 250.091 669.015 249.53C668.524 248.968 668.138 248.313 667.857 247.563C667.581 248.378 667.192 249.096 666.692 249.714C666.192 250.328 665.6 250.793 664.916 251.109L663.955 249.78C664.596 249.495 665.142 249.08 665.594 248.536C666.05 247.993 666.392 247.383 666.62 246.707C666.853 246.027 666.969 245.341 666.969 244.648V243.911H664.429V242.543H671.193V243.911H668.693V244.648ZM674.074 253.359H672.377V241.385H674.074V253.359ZM685.193 244.082H686.812V245.464H685.193V248.109H683.509V241.385H685.193V244.082ZM681.496 243.464H677.838V246.319C678.947 246.31 679.842 246.282 680.522 246.234C681.206 246.181 681.877 246.087 682.535 245.951L682.706 247.267C681.996 247.429 681.25 247.536 680.47 247.589C679.693 247.637 678.592 247.661 677.167 247.661H676.153V242.135H681.496V243.464ZM685.193 253.214H677.364V248.609H685.193V253.214ZM679.022 251.898H683.535V249.938H679.022V251.898ZM696.865 244.227H698.457V245.595H696.865V248.319H695.155V241.385H696.865V244.227ZM692.918 248.53C693.733 248.53 694.446 248.626 695.056 248.819C695.666 249.008 696.135 249.282 696.464 249.642C696.793 250.001 696.957 250.429 696.957 250.925C696.957 251.433 696.793 251.87 696.464 252.234C696.135 252.598 695.666 252.877 695.056 253.07C694.451 253.263 693.738 253.359 692.918 253.359C692.08 253.359 691.352 253.263 690.733 253.07C690.119 252.877 689.645 252.598 689.312 252.234C688.979 251.87 688.812 251.433 688.812 250.925C688.812 250.429 688.979 250.001 689.312 249.642C689.645 249.282 690.121 249.008 690.74 248.819C691.358 248.626 692.084 248.53 692.918 248.53ZM692.918 249.859C692.124 249.859 691.516 249.951 691.095 250.135C690.674 250.315 690.466 250.578 690.47 250.925C690.466 251.284 690.674 251.558 691.095 251.747C691.516 251.936 692.124 252.03 692.918 252.03C693.681 252.03 694.273 251.936 694.694 251.747C695.115 251.558 695.326 251.284 695.326 250.925C695.326 250.578 695.115 250.315 694.694 250.135C694.273 249.951 693.681 249.859 692.918 249.859ZM693.141 243.53H689.431V246.319C690.597 246.31 691.523 246.282 692.207 246.234C692.896 246.185 693.562 246.091 694.207 245.951L694.352 247.293C693.663 247.446 692.931 247.547 692.154 247.596C691.382 247.639 690.251 247.666 688.759 247.675H687.759V242.187H693.141V243.53ZM705.695 243.003C705.695 243.617 705.679 244.194 705.649 244.734C705.618 245.269 705.541 245.863 705.418 246.517L703.773 246.359C703.94 245.442 704.032 244.53 704.05 243.622H699.536V242.253H705.695V243.003ZM702.721 247.313C704.08 247.251 705.26 247.148 706.26 247.003L706.353 248.214C705.252 248.416 704.105 248.55 702.912 248.615C701.719 248.681 700.405 248.718 698.971 248.727L698.826 247.385C699.778 247.385 700.519 247.378 701.05 247.365V245.016H702.721V247.313ZM708.629 245.03H710.076V246.438H708.629V250.346H706.905V241.385H708.629V245.03ZM708.997 253.148H700.589V249.543H702.273V251.806H708.997V253.148ZM712.024 254.925H710.629L711.287 251.175H713.156L712.024 254.925ZM727.459 248.898H725.867V245.714H724.906V248.503H723.34V241.608H724.906V244.345H725.867V241.385H727.459V248.898ZM722.985 243.924H717.103V242.622H719.222V241.49H720.893V242.622H722.985V243.924ZM720.064 244.319C720.568 244.319 721.018 244.407 721.413 244.582C721.807 244.758 722.117 245.003 722.34 245.319C722.564 245.635 722.678 245.999 722.682 246.411C722.678 246.819 722.564 247.181 722.34 247.497C722.117 247.808 721.807 248.052 721.413 248.227C721.018 248.403 720.568 248.49 720.064 248.49C719.568 248.49 719.123 248.403 718.728 248.227C718.333 248.052 718.024 247.808 717.801 247.497C717.581 247.181 717.472 246.819 717.472 246.411C717.472 246.003 717.581 245.641 717.801 245.326C718.024 245.005 718.333 244.758 718.728 244.582C719.123 244.407 719.568 244.319 720.064 244.319ZM720.064 245.53C719.73 245.53 719.465 245.609 719.268 245.767C719.07 245.924 718.972 246.139 718.972 246.411C718.972 246.688 719.07 246.907 719.268 247.069C719.47 247.227 719.735 247.302 720.064 247.293C720.393 247.302 720.658 247.227 720.86 247.069C721.062 246.907 721.165 246.688 721.169 246.411C721.165 246.135 721.062 245.92 720.86 245.767C720.663 245.609 720.397 245.53 720.064 245.53ZM723.367 249.004C724.231 249.004 724.972 249.089 725.59 249.26C726.213 249.431 726.689 249.681 727.018 250.01C727.352 250.335 727.52 250.727 727.525 251.188C727.52 251.644 727.352 252.034 727.018 252.359C726.689 252.684 726.213 252.931 725.59 253.102C724.968 253.274 724.226 253.359 723.367 253.359C722.507 253.359 721.766 253.274 721.143 253.102C720.524 252.931 720.048 252.684 719.715 252.359C719.386 252.034 719.222 251.644 719.222 251.188C719.222 250.727 719.386 250.335 719.715 250.01C720.048 249.681 720.524 249.431 721.143 249.26C721.766 249.089 722.507 249.004 723.367 249.004ZM723.367 250.267C721.713 250.267 720.893 250.574 720.906 251.188C720.902 251.491 721.108 251.719 721.524 251.872C721.941 252.021 722.555 252.096 723.367 252.096C725.007 252.096 725.827 251.793 725.827 251.188C725.827 250.876 725.623 250.646 725.215 250.497C724.808 250.344 724.191 250.267 723.367 250.267ZM739.762 248.359H728.814V247.043H733.472V246.017H730.143V241.911H738.446V243.214H731.814V244.701H738.512V246.017H735.117V247.043H739.762V248.359ZM734.262 248.964C735.126 248.964 735.87 249.05 736.492 249.221C737.115 249.392 737.593 249.644 737.927 249.977C738.26 250.306 738.429 250.705 738.433 251.175C738.429 251.635 738.26 252.03 737.927 252.359C737.593 252.688 737.113 252.938 736.486 253.109C735.863 253.284 735.122 253.372 734.262 253.372C733.394 253.372 732.643 253.284 732.012 253.109C731.385 252.938 730.902 252.688 730.564 252.359C730.231 252.03 730.064 251.635 730.064 251.175C730.064 250.705 730.231 250.306 730.564 249.977C730.898 249.644 731.378 249.392 732.005 249.221C732.637 249.05 733.389 248.964 734.262 248.964ZM734.262 250.24C733.433 250.24 732.81 250.319 732.393 250.477C731.977 250.635 731.771 250.868 731.775 251.175C731.771 251.486 731.975 251.719 732.387 251.872C732.799 252.021 733.424 252.096 734.262 252.096C735.082 252.096 735.701 252.021 736.117 251.872C736.534 251.719 736.745 251.486 736.749 251.175C736.745 250.868 736.532 250.635 736.111 250.477C735.69 250.319 735.073 250.24 734.262 250.24ZM749.96 244.201H751.579V245.569H749.96V248.332H748.276V241.385H749.96V244.201ZM746.618 242.174C746.622 243.231 746.407 244.183 745.973 245.03C745.543 245.876 744.912 246.6 744.078 247.201C743.249 247.802 742.241 248.267 741.052 248.596L740.381 247.24C741.683 246.894 742.71 246.398 743.46 245.753C744.214 245.104 744.657 244.359 744.789 243.516H740.947V242.174H746.618ZM746.052 248.477C746.859 248.477 747.568 248.578 748.177 248.78C748.787 248.977 749.258 249.26 749.592 249.629C749.925 249.997 750.092 250.429 750.092 250.925C750.092 251.425 749.925 251.859 749.592 252.227C749.258 252.596 748.787 252.879 748.177 253.076C747.568 253.274 746.859 253.372 746.052 253.372C745.245 253.372 744.535 253.274 743.92 253.076C743.306 252.879 742.83 252.594 742.493 252.221C742.159 251.852 741.995 251.42 741.999 250.925C741.995 250.429 742.159 249.997 742.493 249.629C742.83 249.26 743.306 248.977 743.92 248.78C744.535 248.578 745.245 248.477 746.052 248.477ZM746.052 249.78C745.289 249.78 744.697 249.881 744.276 250.083C743.859 250.28 743.653 250.561 743.657 250.925C743.653 251.284 743.861 251.565 744.282 251.767C744.703 251.969 745.293 252.065 746.052 252.056C746.798 252.065 747.381 251.969 747.802 251.767C748.223 251.565 748.434 251.284 748.434 250.925C748.434 250.561 748.223 250.28 747.802 250.083C747.386 249.881 746.802 249.78 746.052 249.78ZM757.855 245.727H754.237V246.931C755.18 246.922 755.945 246.898 756.533 246.859C757.121 246.819 757.706 246.749 758.29 246.648L758.448 247.99C757.776 248.109 757.083 248.19 756.368 248.234C755.654 248.273 754.689 248.293 753.474 248.293H752.579V244.464H756.184V243.358H752.552V242.003H757.855V245.727ZM762.198 248.675H760.513V246.806H758.553V245.464H760.513V244.345H758.553V242.99H760.513V241.398H762.198V248.675ZM758.132 248.872C758.978 248.872 759.711 248.962 760.329 249.142C760.948 249.322 761.424 249.583 761.757 249.925C762.09 250.267 762.259 250.675 762.264 251.148C762.259 251.622 762.09 252.028 761.757 252.366C761.424 252.703 760.948 252.96 760.329 253.135C759.715 253.311 758.983 253.399 758.132 253.399C757.272 253.399 756.531 253.311 755.908 253.135C755.289 252.96 754.814 252.703 754.48 252.366C754.151 252.028 753.987 251.622 753.987 251.148C753.987 250.675 754.151 250.267 754.48 249.925C754.814 249.583 755.292 249.322 755.915 249.142C756.537 248.962 757.276 248.872 758.132 248.872ZM758.132 250.148C757.316 250.148 756.704 250.232 756.296 250.398C755.893 250.561 755.693 250.811 755.697 251.148C755.684 251.798 756.496 252.122 758.132 252.122C758.939 252.122 759.551 252.041 759.967 251.879C760.384 251.716 760.592 251.473 760.592 251.148C760.592 250.482 759.772 250.148 758.132 250.148ZM773.251 244.082H774.87V245.464H773.251V248.109H771.567V241.385H773.251V244.082ZM769.553 243.464H765.895V246.319C767.005 246.31 767.9 246.282 768.58 246.234C769.264 246.181 769.935 246.087 770.593 245.951L770.764 247.267C770.053 247.429 769.308 247.536 768.527 247.589C767.751 247.637 766.65 247.661 765.224 247.661H764.211V242.135H769.553V243.464ZM773.251 253.214H765.422V248.609H773.251V253.214ZM767.08 251.898H771.593V249.938H767.08V251.898ZM784.923 244.227H786.515V245.595H784.923V248.319H783.212V241.385H784.923V244.227ZM780.975 248.53C781.791 248.53 782.504 248.626 783.113 248.819C783.723 249.008 784.192 249.282 784.521 249.642C784.85 250.001 785.015 250.429 785.015 250.925C785.015 251.433 784.85 251.87 784.521 252.234C784.192 252.598 783.723 252.877 783.113 253.07C782.508 253.263 781.795 253.359 780.975 253.359C780.137 253.359 779.409 253.263 778.791 253.07C778.177 252.877 777.703 252.598 777.37 252.234C777.036 251.87 776.87 251.433 776.87 250.925C776.87 250.429 777.036 250.001 777.37 249.642C777.703 249.282 778.179 249.008 778.797 248.819C779.416 248.626 780.142 248.53 780.975 248.53ZM780.975 249.859C780.181 249.859 779.574 249.951 779.153 250.135C778.732 250.315 778.523 250.578 778.528 250.925C778.523 251.284 778.732 251.558 779.153 251.747C779.574 251.936 780.181 252.03 780.975 252.03C781.738 252.03 782.33 251.936 782.752 251.747C783.173 251.558 783.383 251.284 783.383 250.925C783.383 250.578 783.173 250.315 782.752 250.135C782.33 249.951 781.738 249.859 780.975 249.859ZM781.199 243.53H777.488V246.319C778.655 246.31 779.58 246.282 780.265 246.234C780.953 246.185 781.62 246.091 782.265 245.951L782.409 247.293C781.721 247.446 780.988 247.547 780.212 247.596C779.44 247.639 778.308 247.666 776.817 247.675H775.817V242.187H781.199V243.53ZM793.752 243.003C793.752 243.617 793.737 244.194 793.706 244.734C793.675 245.269 793.599 245.863 793.476 246.517L791.831 246.359C791.998 245.442 792.09 244.53 792.107 243.622H787.594V242.253H793.752V243.003ZM790.778 247.313C792.138 247.251 793.318 247.148 794.318 247.003L794.41 248.214C793.309 248.416 792.162 248.55 790.969 248.615C789.776 248.681 788.462 248.718 787.028 248.727L786.883 247.385C787.835 247.385 788.576 247.378 789.107 247.365V245.016H790.778V247.313ZM796.687 245.03H798.134V246.438H796.687V250.346H794.963V241.385H796.687V245.03ZM797.055 253.148H788.647V249.543H790.331V251.806H797.055V253.148ZM800.081 254.925H798.687L799.345 251.175H801.213L800.081 254.925ZM668.206 276.385H666.508V264.385H668.206V276.385ZM661.705 265.227C662.306 265.227 662.844 265.402 663.317 265.753C663.795 266.104 664.17 266.602 664.442 267.247C664.714 267.891 664.85 268.639 664.85 269.49C664.85 270.35 664.714 271.104 664.442 271.754C664.17 272.398 663.795 272.896 663.317 273.247C662.844 273.594 662.306 273.767 661.705 273.767C661.091 273.767 660.543 273.594 660.06 273.247C659.578 272.896 659.201 272.398 658.929 271.754C658.661 271.104 658.53 270.35 658.534 269.49C658.53 268.639 658.661 267.891 658.929 267.247C659.201 266.602 659.578 266.104 660.06 265.753C660.543 265.402 661.091 265.227 661.705 265.227ZM661.705 266.74C661.394 266.74 661.12 266.848 660.883 267.062C660.65 267.273 660.471 267.584 660.343 267.997C660.216 268.409 660.153 268.907 660.153 269.49C660.153 270.078 660.216 270.578 660.343 270.99C660.471 271.403 660.65 271.714 660.883 271.925C661.12 272.135 661.394 272.24 661.705 272.24C662.012 272.24 662.28 272.135 662.508 271.925C662.736 271.71 662.914 271.396 663.041 270.984C663.168 270.571 663.232 270.074 663.232 269.49C663.232 268.911 663.168 268.416 663.041 268.003C662.914 267.587 662.734 267.273 662.501 267.062C662.273 266.848 662.008 266.74 661.705 266.74ZM675.601 267.543H669.811V266.214H671.89V264.714H673.548V266.214H675.601V267.543ZM672.732 268.082C673.237 268.082 673.686 268.205 674.081 268.451C674.48 268.692 674.792 269.027 675.015 269.457C675.243 269.887 675.36 270.376 675.364 270.925C675.36 271.473 675.243 271.964 675.015 272.398C674.792 272.833 674.48 273.172 674.081 273.418C673.686 273.659 673.237 273.78 672.732 273.78C672.228 273.78 671.774 273.659 671.37 273.418C670.971 273.172 670.658 272.833 670.429 272.398C670.201 271.964 670.087 271.473 670.087 270.925C670.087 270.381 670.201 269.894 670.429 269.464C670.658 269.03 670.971 268.692 671.37 268.451C671.774 268.205 672.228 268.082 672.732 268.082ZM672.732 269.477C672.377 269.477 672.092 269.606 671.877 269.865C671.666 270.124 671.561 270.477 671.561 270.925C671.561 271.372 671.666 271.723 671.877 271.977C672.092 272.232 672.377 272.359 672.732 272.359C673.074 272.359 673.351 272.232 673.561 271.977C673.776 271.723 673.886 271.372 673.89 270.925C673.886 270.477 673.776 270.124 673.561 269.865C673.351 269.606 673.074 269.477 672.732 269.477ZM680.18 276.359H678.588V270.596H677.614V275.846H676.048V264.622H677.614V269.253H678.588V264.385H680.18V276.359ZM692.391 271.464H687.759V272.319C688.821 272.39 689.639 272.596 690.213 272.938C690.792 273.28 691.084 273.74 691.089 274.319C691.084 274.758 690.917 275.129 690.589 275.431C690.26 275.738 689.784 275.969 689.161 276.122C688.538 276.28 687.79 276.359 686.917 276.359C686.04 276.359 685.286 276.28 684.654 276.122C684.027 275.969 683.546 275.738 683.213 275.431C682.884 275.129 682.72 274.758 682.72 274.319C682.72 273.74 683.011 273.28 683.595 272.938C684.182 272.596 685.014 272.39 686.088 272.319V271.464H681.47V270.148H692.391V271.464ZM687.746 265.451H691.339V266.78H687.904C687.992 267.065 688.194 267.328 688.509 267.569C688.83 267.806 689.273 268.005 689.838 268.168C690.409 268.33 691.097 268.438 691.904 268.49L691.404 269.767C690.317 269.688 689.391 269.497 688.628 269.194C687.869 268.887 687.299 268.488 686.917 267.997C686.531 268.488 685.959 268.887 685.2 269.194C684.441 269.497 683.522 269.688 682.443 269.767L681.93 268.49C682.737 268.438 683.424 268.33 683.989 268.168C684.555 268.005 684.996 267.806 685.312 267.569C685.628 267.328 685.832 267.065 685.924 266.78H682.522V265.451H686.088V264.424H687.746V265.451ZM686.917 273.53C686.075 273.53 685.448 273.596 685.036 273.727C684.628 273.855 684.426 274.052 684.43 274.319C684.426 274.596 684.628 274.8 685.036 274.931C685.448 275.059 686.075 275.122 686.917 275.122C687.742 275.122 688.36 275.056 688.773 274.925C689.189 274.793 689.4 274.591 689.404 274.319C689.4 274.052 689.189 273.855 688.773 273.727C688.36 273.596 687.742 273.53 686.917 273.53ZM702.76 268.464H699.418V269.253H704.037V270.582H693.115V269.253H697.734V268.464H694.483V264.779H702.668V266.122H696.155V267.148H702.76V268.464ZM702.708 274.28H696.036V274.991H703.023V276.267H694.391V273.109H701.05V272.464H694.378V271.227H702.708V274.28ZM710.34 271.714C711.164 271.714 711.879 271.806 712.484 271.99C713.094 272.175 713.561 272.44 713.886 272.786C714.215 273.133 714.379 273.547 714.379 274.03C714.379 274.521 714.215 274.942 713.886 275.293C713.561 275.644 713.096 275.912 712.491 276.096C711.886 276.28 711.169 276.372 710.34 276.372C709.493 276.372 708.763 276.28 708.149 276.096C707.535 275.912 707.061 275.644 706.728 275.293C706.399 274.942 706.234 274.521 706.234 274.03C706.234 273.547 706.399 273.133 706.728 272.786C707.061 272.44 707.535 272.175 708.149 271.99C708.767 271.806 709.497 271.714 710.34 271.714ZM710.34 273.017C709.541 273.017 708.936 273.102 708.524 273.273C708.116 273.44 707.914 273.692 707.918 274.03C707.914 274.372 708.118 274.631 708.53 274.806C708.943 274.982 709.546 275.069 710.34 275.069C711.116 275.069 711.706 274.982 712.109 274.806C712.517 274.631 712.721 274.372 712.721 274.03C712.721 273.354 711.927 273.017 710.34 273.017ZM714.261 267.161H715.879V268.569H714.261V271.451H712.577V264.385H714.261V267.161ZM706.787 266.648H709.234V265.135H710.919V270.767H705.116V265.135H706.787V266.648ZM709.234 269.438V267.951H706.787V269.438H709.234ZM721.051 267.648C721.051 268.31 721.163 268.962 721.386 269.602C721.614 270.238 721.954 270.81 722.406 271.319C722.858 271.828 723.406 272.218 724.051 272.49L723.143 273.806C722.454 273.517 721.864 273.091 721.373 272.53C720.882 271.968 720.496 271.313 720.215 270.563C719.939 271.378 719.551 272.096 719.051 272.714C718.551 273.328 717.958 273.793 717.274 274.109L716.314 272.78C716.954 272.495 717.5 272.08 717.952 271.536C718.408 270.993 718.75 270.383 718.978 269.707C719.211 269.027 719.327 268.341 719.327 267.648V266.911H716.787V265.543H723.551V266.911H721.051V267.648ZM726.433 276.359H724.735V264.385H726.433V276.359ZM737.552 267.082H739.17V268.464H737.552V271.109H735.867V264.385H737.552V267.082ZM733.854 266.464H730.196V269.319C731.306 269.31 732.2 269.282 732.88 269.234C733.565 269.181 734.236 269.087 734.894 268.951L735.065 270.267C734.354 270.429 733.608 270.536 732.828 270.589C732.051 270.637 730.95 270.661 729.525 270.661H728.512V265.135H733.854V266.464ZM737.552 276.214H729.722V271.609H737.552V276.214ZM731.38 274.898H735.894V272.938H731.38V274.898ZM749.223 267.227H750.816V268.595H749.223V271.319H747.513V264.385H749.223V267.227ZM745.276 271.53C746.092 271.53 746.804 271.626 747.414 271.819C748.024 272.008 748.493 272.282 748.822 272.642C749.151 273.001 749.315 273.429 749.315 273.925C749.315 274.433 749.151 274.87 748.822 275.234C748.493 275.598 748.024 275.877 747.414 276.07C746.809 276.263 746.096 276.359 745.276 276.359C744.438 276.359 743.71 276.263 743.091 276.07C742.477 275.877 742.004 275.598 741.67 275.234C741.337 274.87 741.17 274.433 741.17 273.925C741.17 273.429 741.337 273.001 741.67 272.642C742.004 272.282 742.48 272.008 743.098 271.819C743.716 271.626 744.442 271.53 745.276 271.53ZM745.276 272.859C744.482 272.859 743.874 272.951 743.453 273.135C743.032 273.315 742.824 273.578 742.828 273.925C742.824 274.284 743.032 274.558 743.453 274.747C743.874 274.936 744.482 275.03 745.276 275.03C746.039 275.03 746.631 274.936 747.052 274.747C747.473 274.558 747.684 274.284 747.684 273.925C747.684 273.578 747.473 273.315 747.052 273.135C746.631 272.951 746.039 272.859 745.276 272.859ZM745.499 266.53H741.789V269.319C742.955 269.31 743.881 269.282 744.565 269.234C745.254 269.185 745.921 269.091 746.565 268.951L746.71 270.293C746.021 270.446 745.289 270.547 744.513 270.596C743.741 270.639 742.609 270.666 741.118 270.675H740.118V265.187H745.499V266.53ZM758.053 266.003C758.053 266.617 758.037 267.194 758.007 267.734C757.976 268.269 757.899 268.863 757.776 269.517L756.132 269.359C756.298 268.442 756.39 267.53 756.408 266.622H751.895V265.253H758.053V266.003ZM755.079 270.313C756.439 270.251 757.619 270.148 758.619 270.003L758.711 271.214C757.61 271.416 756.463 271.55 755.27 271.615C754.077 271.681 752.763 271.718 751.329 271.727L751.184 270.385C752.136 270.385 752.877 270.378 753.408 270.365V268.016H755.079V270.313ZM760.987 268.03H762.435V269.438H760.987V273.346H759.263V264.385H760.987V268.03ZM761.356 276.148H752.947V272.543H754.632V274.806H761.356V276.148ZM766.83 271.517C766.83 273.828 766.154 275.934 764.803 277.833H762.948C763.259 277.381 763.557 276.806 763.843 276.109C764.128 275.412 764.358 274.662 764.533 273.859C764.713 273.052 764.803 272.271 764.803 271.517C764.803 270.767 764.713 269.99 764.533 269.188C764.358 268.381 764.128 267.63 763.843 266.937C763.557 266.24 763.259 265.665 762.948 265.214H764.803C765.461 266.135 765.963 267.117 766.31 268.161C766.656 269.201 766.83 270.319 766.83 271.517Z" fill="white"/>
<rect x="607.865" y="423.007" width="209.977" height="80.8466" rx="9.43857" fill="#2196F3"/>
<rect x="607.865" y="423.007" width="209.977" height="80.8466" rx="9.43857" fill="white" fill-opacity="0.88"/>
<rect x="607.865" y="423.007" width="209.977" height="80.8466" rx="9.43857" stroke="#04329A" stroke-width="1.12287"/>
<path d="M683.728 436.863C685.161 436.87 686.419 437.046 687.501 437.389C688.59 437.726 689.434 438.204 690.034 438.826C690.633 439.447 690.936 440.175 690.944 441.008C690.936 441.834 690.633 442.554 690.034 443.168C689.434 443.782 688.59 444.257 687.501 444.594C686.419 444.923 685.161 445.087 683.728 445.087C682.288 445.087 681.02 444.923 679.923 444.594C678.834 444.257 677.99 443.782 677.39 443.168C676.791 442.554 676.491 441.834 676.491 441.008C676.491 440.175 676.791 439.447 677.39 438.826C677.99 438.204 678.834 437.726 679.923 437.389C681.02 437.046 682.288 436.87 683.728 436.863ZM683.728 439.078C682.405 439.078 681.371 439.246 680.625 439.582C679.88 439.911 679.51 440.387 679.518 441.008C679.51 441.615 679.88 442.083 680.625 442.411C681.378 442.733 682.413 442.901 683.728 442.916C685.037 442.901 686.064 442.733 686.81 442.411C687.563 442.083 687.939 441.615 687.939 441.008C687.939 440.387 687.563 439.911 686.81 439.582C686.064 439.246 685.037 439.078 683.728 439.078ZM692.874 448.399H688.597V451.951H685.79V448.399H683.685V451.951H680.855V448.399H674.627V446.162H692.874V448.399ZM691.075 456.096H676.71V450.219H679.518V453.859H691.075V456.096ZM710.769 456.491H707.984V436.49H710.769V456.491ZM704.585 445.855H698.006V449.517C699.57 449.51 701.028 449.455 702.381 449.353C703.74 449.25 705.133 449.086 706.559 448.859L706.8 451.118C705.25 451.389 703.708 451.575 702.172 451.677C700.637 451.772 698.883 451.82 696.909 451.82H695.111V443.64H701.734V440.416H695.089V438.157H704.585V445.855ZM730.266 448.004H727.481V446.052H722.985V443.815H727.481V441.907H723.182C721.947 445.058 719.125 447.236 714.717 448.443L713.62 446.227C715.857 445.643 717.572 444.828 718.763 443.782C719.955 442.729 720.653 441.498 720.858 440.087H714.695V437.85H723.906C723.906 438.522 723.859 439.144 723.764 439.714H727.481V436.512H730.266V448.004ZM723.621 448.245C724.966 448.245 726.15 448.41 727.174 448.739C728.197 449.068 728.99 449.535 729.553 450.142C730.124 450.749 730.412 451.462 730.42 452.28C730.412 453.107 730.124 453.827 729.553 454.441C728.99 455.055 728.197 455.526 727.174 455.855C726.15 456.191 724.966 456.36 723.621 456.36C722.261 456.36 721.066 456.191 720.035 455.855C719.005 455.526 718.204 455.055 717.634 454.441C717.071 453.827 716.793 453.107 716.8 452.28C716.793 451.462 717.071 450.749 717.634 450.142C718.204 449.535 719.005 449.068 720.035 448.739C721.066 448.41 722.261 448.245 723.621 448.245ZM723.621 450.438C722.349 450.424 721.358 450.577 720.649 450.899C719.94 451.213 719.586 451.674 719.586 452.28C719.586 452.887 719.937 453.351 720.638 453.673C721.347 453.987 722.342 454.145 723.621 454.145C724.878 454.145 725.858 453.987 726.56 453.673C727.262 453.351 727.612 452.887 727.612 452.28C727.612 451.674 727.262 451.213 726.56 450.899C725.858 450.577 724.878 450.424 723.621 450.438ZM738.424 437.565C739.207 437.565 739.938 437.7 740.618 437.97C741.297 438.241 741.879 438.625 742.361 439.122H746.89V436.49H749.675V448.179H746.89V445.789H742.339C741.857 446.279 741.272 446.659 740.585 446.929C739.905 447.192 739.17 447.324 738.381 447.324C737.394 447.324 736.498 447.112 735.694 446.688C734.89 446.264 734.258 445.683 733.797 444.945C733.336 444.199 733.11 443.369 733.117 442.455C733.11 441.52 733.336 440.683 733.797 439.944C734.258 439.199 734.894 438.617 735.705 438.201C736.516 437.777 737.423 437.565 738.424 437.565ZM738.424 439.955C737.905 439.955 737.441 440.054 737.032 440.251C736.63 440.449 736.315 440.737 736.089 441.118C735.869 441.498 735.763 441.944 735.771 442.455C735.763 442.96 735.873 443.402 736.1 443.782C736.326 444.162 736.641 444.455 737.043 444.659C737.445 444.864 737.905 444.963 738.424 444.955C738.929 444.963 739.378 444.864 739.773 444.659C740.168 444.455 740.475 444.162 740.694 443.782C740.921 443.402 741.034 442.96 741.034 442.455C741.034 441.944 740.921 441.498 740.694 441.118C740.475 440.737 740.168 440.449 739.773 440.251C739.378 440.054 738.929 439.955 738.424 439.955ZM742.855 448.596C744.258 448.596 745.475 448.753 746.506 449.068C747.544 449.375 748.341 449.824 748.897 450.416C749.452 451.001 749.734 451.703 749.741 452.522C749.734 453.34 749.452 454.042 748.897 454.627C748.341 455.219 747.544 455.669 746.506 455.976C745.475 456.29 744.258 456.447 742.855 456.447C741.451 456.447 740.234 456.29 739.203 455.976C738.172 455.669 737.379 455.219 736.823 454.627C736.268 454.042 735.99 453.34 735.99 452.522C735.99 451.703 736.268 451.001 736.823 450.416C737.379 449.824 738.172 449.375 739.203 449.068C740.234 448.753 741.451 448.596 742.855 448.596ZM742.855 450.723C741.517 450.723 740.493 450.873 739.784 451.173C739.082 451.473 738.731 451.922 738.731 452.522C738.731 453.099 739.082 453.538 739.784 453.838C740.493 454.13 741.517 454.276 742.855 454.276C744.207 454.276 745.234 454.13 745.936 453.838C746.645 453.538 746.999 453.099 746.999 452.522C746.999 451.922 746.649 451.473 745.947 451.173C745.245 450.873 744.214 450.723 742.855 450.723ZM743.567 441.337C743.648 441.702 743.688 442.075 743.688 442.455C743.688 442.821 743.648 443.186 743.567 443.552H746.89V441.337H743.567ZM681.612 480.6H678.827V470.49H681.612V480.6ZM681.634 486.873H671.019V488.101H682.182V490.316H668.278V484.789H678.849V483.627H668.234V481.456H681.634V486.873ZM672.576 472.464C672.569 473.29 672.734 474.079 673.07 474.832C673.406 475.578 673.925 476.24 674.627 476.817C675.336 477.395 676.217 477.837 677.27 478.144L675.91 480.293C674.792 479.964 673.83 479.475 673.026 478.824C672.229 478.166 671.601 477.384 671.14 476.477C670.672 477.471 670.021 478.33 669.188 479.054C668.362 479.771 667.371 480.301 666.216 480.644L664.835 478.451C665.902 478.137 666.798 477.669 667.521 477.047C668.245 476.426 668.782 475.721 669.133 474.931C669.484 474.142 669.66 473.319 669.66 472.464V470.929H672.576V472.464ZM702.578 483.89H694.771V490.425H692.007V483.89H684.31V481.653H702.578V483.89ZM700.385 479.504H686.459V471.455H700.385V479.504ZM689.222 477.311H697.6V473.67H689.222V477.311ZM721.943 484.723H714.202V490.469H711.438V484.723H703.74V482.443H721.943V484.723ZM720.277 474.986H714.289C714.399 475.6 714.728 476.199 715.276 476.784C715.825 477.369 716.585 477.877 717.557 478.309C718.529 478.74 719.67 479.029 720.978 479.175L719.969 481.368C718.325 481.178 716.892 480.768 715.671 480.14C714.457 479.511 713.514 478.725 712.842 477.782C712.177 478.725 711.23 479.511 710.002 480.14C708.781 480.768 707.337 481.178 705.67 481.368L704.662 479.175C705.97 479.029 707.111 478.74 708.083 478.309C709.062 477.877 709.83 477.369 710.386 476.784C710.941 476.199 711.277 475.6 711.394 474.986H705.385V472.793H711.438V470.512H714.202V472.793H720.277V474.986ZM730.935 474.438C730.935 475.264 731.107 476.061 731.45 476.828C731.801 477.588 732.331 478.272 733.04 478.879C733.757 479.478 734.641 479.935 735.694 480.249L734.269 482.443C733.179 482.099 732.236 481.587 731.439 480.907C730.643 480.227 730.014 479.423 729.553 478.495C729.085 479.504 728.442 480.381 727.623 481.127C726.805 481.872 725.825 482.435 724.685 482.815L723.237 480.622C724.305 480.279 725.2 479.785 725.924 479.142C726.647 478.499 727.188 477.771 727.547 476.96C727.905 476.148 728.084 475.308 728.084 474.438V474.153H723.983V471.916H734.948V474.153H730.935V474.438ZM739.861 484.943H737.054V470.512H739.861V484.943ZM740.387 490.096H726.483V483.627H729.312V487.859H740.387V490.096ZM758.393 476.126H761.09V478.429H758.393V485.206H755.585V470.512H758.393V476.126ZM759.116 490.096H745.453V483.693H748.239V487.859H759.116V490.096ZM745.936 474.811H750.015V471.916H752.822V482.026H743.151V471.916H745.936V474.811ZM750.015 479.833V476.96H745.936V479.833H750.015Z" fill="#04329A"/>
<rect x="346.797" y="9.22656" width="149.342" height="149.342" rx="74.6708" fill="url(#paint0_linear_2818_37738)"/>
<rect x="346.797" y="9.22656" width="149.342" height="149.342" rx="74.6708" stroke="#E3E4FF" stroke-width="16.843"/>
<path d="M404.484 97.7734H400.453V69.3359H404.484V97.7734ZM380.671 89.7109C383.098 88.5651 385.098 87.2891 386.671 85.8828C388.255 84.4766 389.463 82.9193 390.296 81.2109C391.14 79.4922 391.671 77.5651 391.89 75.4297H382.203V72.3047H395.953C395.942 75.3464 395.531 78.112 394.718 80.6016C393.906 83.0911 392.525 85.3776 390.578 87.4609C388.64 89.5443 386.036 91.3568 382.765 92.8984L380.671 89.7109ZM424.421 73.1797C424.421 74.638 424.385 76.0078 424.312 77.2891C424.239 78.5599 424.057 79.9714 423.765 81.5234L419.859 81.1484C420.265 79.0026 420.489 76.8359 420.531 74.6484H409.796V71.3984H424.421V73.1797ZM408.109 83.5859C410.369 83.5859 412.13 83.5703 413.39 83.5391V77.9609H417.359V83.4141C420.588 83.2682 423.39 83.0234 425.765 82.6797L425.984 85.5547C423.348 86.0443 420.593 86.3672 417.718 86.5234C414.843 86.6797 411.755 86.763 408.453 86.7734L408.109 83.5859ZM412.296 88.7109H416.296V94.0859H432.265V97.2734H412.296V88.7109ZM427.296 69.3359H431.39V77.9922H434.828V81.3359H431.39V90.6172H427.296V69.3359ZM452.546 74.4297H446.89C446.9 75.5651 447.14 76.6484 447.609 77.6797C448.088 78.7109 448.817 79.6276 449.796 80.4297C450.775 81.2318 451.994 81.8464 453.453 82.2734L451.546 85.3984C450.015 84.9297 448.697 84.2422 447.593 83.3359C446.489 82.4297 445.614 81.3516 444.968 80.1016C444.312 81.5703 443.395 82.8464 442.218 83.9297C441.051 85.0026 439.64 85.8151 437.984 86.3672L435.953 83.2109C437.463 82.7318 438.734 82.0391 439.765 81.1328C440.796 80.2266 441.562 79.1953 442.062 78.0391C442.572 76.8828 442.838 75.6797 442.859 74.4297H437.046V71.2422H452.546V74.4297ZM439.89 92.2422C439.89 91.0964 440.281 90.112 441.062 89.2891C441.843 88.4661 442.968 87.8411 444.437 87.4141C445.906 86.987 447.64 86.7734 449.64 86.7734C451.609 86.7734 453.312 86.987 454.749 87.4141C456.187 87.8411 457.291 88.4661 458.062 89.2891C458.843 90.112 459.234 91.0964 459.234 92.2422C459.234 93.3984 458.843 94.388 458.062 95.2109C457.291 96.0443 456.187 96.6797 454.749 97.1172C453.312 97.5547 451.609 97.7734 449.64 97.7734C447.64 97.7734 445.906 97.5547 444.437 97.1172C442.979 96.6797 441.854 96.0443 441.062 95.2109C440.281 94.3776 439.89 93.388 439.89 92.2422ZM443.89 92.2422C443.88 93.0443 444.364 93.6536 445.343 94.0703C446.322 94.4766 447.755 94.6797 449.64 94.6797C451.494 94.6797 452.9 94.4766 453.859 94.0703C454.817 93.6641 455.296 93.0547 455.296 92.2422C455.296 91.4609 454.822 90.8724 453.874 90.4766C452.937 90.0703 451.562 89.8672 449.749 89.8672C447.822 89.8672 446.359 90.0651 445.359 90.4609C444.369 90.8568 443.88 91.4505 443.89 92.2422ZM454.953 69.3359H458.953V75.9297H462.796V79.1797H458.953V86.2109H454.953V69.3359Z" fill="white"/>
<defs>
<linearGradient id="paint0_linear_2818_37738" x1="421.468" y1="9.22656" x2="421.468" y2="158.568" gradientUnits="userSpaceOnUse">
<stop stop-color="#2F5BC1"/>
<stop offset="1" stop-color="#6951CB"/>
</linearGradient>
</defs>
</svg>
