<svg width="803" height="423" viewBox="0 0 803 423" fill="none" xmlns="http://www.w3.org/2000/svg">
<g clip-path="url(#clip0_2818_36897)">
<path d="M7.91108 295.348H1V294.209H7.91108V295.348ZM4.45007 300.342C2.65384 300.342 1.47096 299.313 1.47096 298.174C1.47096 296.958 2.66479 296.027 4.46102 296.027C6.25724 296.027 7.44012 296.958 7.44012 298.174C7.44012 299.39 6.33391 300.342 4.45007 300.342ZM10.5507 304.515H2.58813V301.043H3.90244V303.333H10.5507V304.515ZM6.27915 293.3H2.64289V292.172H6.27915V293.3ZM6.10391 298.163C6.10391 297.517 5.55628 297.046 4.47197 297.046C3.38766 297.046 2.82908 297.517 2.82908 298.163C2.82908 298.809 3.37671 299.247 4.47197 299.247C5.56723 299.247 6.10391 298.809 6.10391 298.163ZM11.7773 297.188H10.2221V301.547H8.99539V292.227H10.2221V295.94H11.7773V297.177V297.188Z" fill="#231F20"/>
<path d="M22.9817 297.812H12.051V296.607H19.8383C19.9478 296.136 20.2655 294.92 20.3421 293.891H13.2996V292.719H21.766C21.7331 293.409 21.3936 295.643 21.1088 296.607H22.9708V297.812H22.9817ZM21.7988 304.657H13.4639V301.251H20.2326V300.112H13.4639V299.016H21.5579V302.335H14.8001V303.562H21.7879V304.657H21.7988Z" fill="#231F20"/>
<path d="M34.4055 303.345H23.4749V302.141H28.283V300.18H24.9973V296.084H31.536V294.353H24.9644V293.148H32.7626V297.278H26.2349V298.975H33.0803V300.18H29.5864V302.141H34.4055V303.345Z" fill="#231F20"/>
<path d="M45.8289 303.134H34.8982V301.929H38.7097V297.581H39.9802V301.929H45.8289V303.134ZM44.5146 293.66C44.4817 294.701 44.1531 298.414 43.6931 300.418H42.4555C42.4883 300.232 43.0798 296.771 43.1564 294.876H36.092V293.66H44.5255H44.5146Z" fill="#231F20"/>
<path d="M53.89 297.934V294.09H55.1277V297.934H58.4134V299.205H55.1277V303.093H53.89V299.205H50.6042V297.934H53.89Z" fill="#231F20"/>
<path d="M69.1033 293.738H71.9839V292.227H73.2215V299.762H71.9839V297.615H69.1691C68.6324 298.349 67.789 298.798 66.7704 298.798C65.0071 298.798 63.7366 297.407 63.7366 295.71C63.7366 294.012 65.0071 292.643 66.7704 292.643C67.7562 292.643 68.5886 293.07 69.1033 293.738ZM68.501 295.71C68.501 294.691 67.8767 293.848 66.7595 293.848C65.6423 293.848 65.0071 294.691 65.0071 295.71C65.0071 296.728 65.6423 297.582 66.7595 297.582C67.8767 297.582 68.501 296.739 68.501 295.71ZM73.3201 302.511C73.3201 303.979 71.9291 304.964 69.2019 304.964C66.4747 304.964 65.0837 303.924 65.0837 302.445C65.0837 300.967 66.4857 299.904 69.2019 299.904C71.9182 299.904 73.3201 301.032 73.3201 302.5V302.511ZM71.9948 302.511C71.9948 301.657 70.8996 301.098 69.2019 301.098C67.5043 301.098 66.3981 301.58 66.3981 302.445C66.3981 303.311 67.4933 303.836 69.2019 303.836C70.9105 303.836 71.9948 303.365 71.9948 302.522V302.511ZM69.7057 296.399H71.9729V294.943H69.6838C69.7386 295.184 69.7715 295.447 69.7715 295.71C69.7715 295.94 69.7495 296.169 69.6948 296.399H69.7057Z" fill="#231F20"/>
<path d="M85.532 299.694H80.8772V302.356H79.6176V299.694H74.6013V298.511H85.532V299.694ZM84.1301 297.241H76.0252V292.641H84.1301V297.241ZM84.4258 304.513H76.0142V301.052H77.2847V303.308H84.4258V304.513ZM82.8815 296.036V293.834H77.2519V296.036H82.8815Z" fill="#231F20"/>
<path d="M96.9556 303.345H86.0249V302.141H90.8331V300.18H87.5473V296.084H94.086V294.353H87.5145V293.148H95.3127V297.278H88.785V298.975H95.6303V300.18H92.1364V302.141H96.9556V303.345Z" fill="#231F20"/>
<path d="M108.379 303.134H97.4485V301.929H101.26V297.581H102.53V301.929H108.379V303.134ZM107.065 293.66C107.032 294.701 106.703 298.414 106.243 300.418H105.006C105.039 300.232 105.63 296.771 105.707 294.876H98.6423V293.66H107.076H107.065Z" fill="#231F20"/>
<path d="M7.00969 320.953L6.62634 321.403C6.26491 321.151 4.28249 319.672 3.72391 317.273C3.32962 319.672 1.30339 321.359 0.843377 321.633L0.405273 321.205C1.38005 320.603 3.45009 318.96 3.45009 315.433V313.418H3.99772V315.433C3.99772 319.004 6.47301 320.592 7.00969 320.943V320.953ZM8.42257 316.748V312.75H8.9702V323.746H8.42257V317.251H5.92538V316.748H8.42257Z" fill="#231F20"/>
<path d="M19.7694 318.158H15.3007V319.549H18.4113V321.773H12.1135V323.12H18.696V323.624H11.5659V321.269H17.8636V320.042H11.5659V319.538H14.764V318.147H10.2078V317.644H19.7694V318.147V318.158ZM18.5536 314.664C18.5536 315.749 17.2612 316.625 14.994 316.625C12.7269 316.625 11.4345 315.749 11.4345 314.664C11.4345 313.58 12.7378 312.715 14.994 312.715C17.2503 312.715 18.5536 313.657 18.5536 314.664ZM17.9951 314.664C17.9951 313.799 16.7026 313.219 14.994 313.219C13.2854 313.219 11.993 313.81 11.993 314.664C11.993 315.519 13.2635 316.11 14.994 316.11C16.7246 316.11 17.9951 315.497 17.9951 314.664Z" fill="#231F20"/>
<path d="M30.9192 317.438C30.2401 317.58 28.4548 317.876 26.1 317.876H24.731V313.265H25.2786V317.372H26.3738C28.1482 317.372 30.2511 317.098 30.9301 316.934V317.438H30.9192ZM32.102 323.626H25.8043V319.628H32.102V323.626ZM26.3519 320.121V323.122H31.5654V320.121H26.3519ZM31.5654 312.75H32.113V315.225H33.6245V315.74H32.113V319.004H31.5654V312.75Z" fill="#231F20"/>
<path d="M37.5673 314.393C37.5673 316.759 39.7359 318.369 40.4917 318.796L40.1412 319.256C39.8126 319.113 37.9507 317.613 37.2935 315.784C36.6145 318.029 34.8182 319.245 34.4897 319.431L34.0625 319.026C34.8949 318.675 37.0197 316.781 37.0197 314.393V313.133H37.5673V314.393ZM36.1435 320.121H36.6911V322.991H42.6712V323.494H36.1544V320.121H36.1435ZM42.2112 316.671V320.745H41.6636V312.75H42.2112V316.178H43.7117V316.682H42.2112V316.671Z" fill="#231F20"/>
<path d="M46.6799 316.123H44.577V315.62H49.2647V316.123H47.2275V316.748C47.2275 319.07 48.8266 320.57 49.5385 320.997L49.188 321.468C49.0018 321.348 47.3809 320.077 46.9537 318.248C46.5704 320.121 44.7413 321.589 44.4018 321.775L43.9746 321.337C44.2922 321.173 46.6799 319.584 46.6799 316.748V316.123ZM45.5408 313.626H48.3009V314.152H45.5408V313.626ZM50.4147 317.536V313.002H50.9624V323.254H50.4147V318.062H48.6733V317.536H50.4147ZM52.3752 312.75H52.9229V323.746H52.3752V312.75Z" fill="#231F20"/>
<path d="M59.8669 322.474H54.4563V313.789H59.7574V314.238H54.9382V317.743H59.5931V318.203H54.9382V322.025H59.8669V322.474Z" fill="#231F20"/>
<path d="M65.179 317.895C65.6609 318.125 66.581 318.859 66.4824 320.196C66.3948 321.554 65.5186 322.474 63.8757 322.474H60.8418V313.777H63.9633C65.2995 313.777 66.0333 314.588 66.1429 315.628C66.2743 316.844 65.6938 317.655 65.179 317.906V317.895ZM64.0619 317.698C65.2557 317.698 65.7157 316.811 65.7157 315.968C65.7157 315.081 65.19 314.226 64.0619 314.226H61.3128V317.687H64.0619V317.698ZM64.1385 322.025C65.2228 322.025 66.0005 321.214 66.0005 319.998C66.0005 318.87 65.1681 318.158 64.1714 318.158H61.3128V322.025H64.1385Z" fill="#231F20"/>
<path d="M73.8206 318.267V314.664H74.204V318.267H77.3255V318.706H74.204V322.309H73.8206V318.706H70.6772V318.267H73.8206Z" fill="#231F20"/>
<path d="M88.3984 317.438C87.7194 317.58 85.9341 317.876 83.5793 317.876H82.2102V313.265H82.7578V317.372H83.8531C85.6274 317.372 87.7303 317.098 88.4094 316.934V317.438H88.3984ZM89.5813 323.626H83.2836V319.628H89.5813V323.626ZM83.8202 320.121V323.122H89.0337V320.121H83.8202ZM89.0337 312.75H89.5813V315.225H91.0928V315.74H89.5813V319.004H89.0337V312.75Z" fill="#231F20"/>
<path d="M95.0356 314.393C95.0356 316.759 97.2042 318.369 97.9599 318.796L97.6095 319.256C97.2809 319.113 95.4189 317.613 94.7618 315.784C94.0827 318.029 92.2865 319.245 91.9579 319.431L91.5308 319.026C92.3632 318.675 94.488 316.781 94.488 314.393V313.133H95.0356V314.393ZM93.6118 320.121H94.1594V322.991H100.139V323.494H93.6227V320.121H93.6118ZM99.6795 316.671V320.745H99.1319V312.75H99.6795V316.178H101.18V316.682H99.6795V316.671Z" fill="#231F20"/>
<path d="M104.148 316.123H102.045V315.62H106.733V316.123H104.696V316.748C104.696 319.07 106.295 320.57 107.007 320.997L106.656 321.468C106.47 321.348 104.849 320.077 104.422 318.248C104.039 320.121 102.21 321.589 101.87 321.775L101.443 321.337C101.76 321.173 104.148 319.584 104.148 316.748V316.123ZM103.009 313.626H105.769V314.152H103.009V313.626ZM107.883 317.536V313.002H108.431V323.254H107.883V318.062H106.142V317.536H107.883ZM109.844 312.75H110.391V323.746H109.844V312.75Z" fill="#231F20"/>
<path d="M116.262 317.895C116.744 318.125 117.664 318.859 117.565 320.196C117.478 321.554 116.601 322.474 114.958 322.474H111.925V313.777H115.046C116.382 313.777 117.116 314.588 117.226 315.628C117.357 316.844 116.777 317.655 116.262 317.906V317.895ZM115.156 317.698C116.349 317.698 116.809 316.811 116.809 315.968C116.809 315.081 116.284 314.226 115.156 314.226H112.406V317.687H115.156V317.698ZM115.232 322.025C116.317 322.025 117.094 321.214 117.094 319.998C117.094 318.87 116.262 318.158 115.265 318.158H112.406V322.025H115.232Z" fill="#231F20"/>
<path d="M0 308.871H803" stroke="#231F20" stroke-width="0.306673"/>
<path d="M193.412 343.14L206.215 357.192L201.988 360.774L191.079 348.682C188.691 353.238 185.274 357.411 180.827 361.267L176.654 357.63C184.244 351.015 188.374 343.261 189.129 334.247V329.526H195.044V332.56C194.989 336.251 194.452 339.778 193.412 343.14ZM218.099 374.552H212.185V345.802H200.794V340.698H212.185V324.258H218.099V374.541V374.552Z" fill="#595B56"/>
<path d="M244.309 355.67V351.278H223.531V346.229H271.164V351.278H250.387V355.67H260.748V368.419H239.917V371.398H261.997V376.448H233.893V363.48H254.724V360.654H233.564V355.66H244.309V355.67ZM234.046 334.576C234.046 331.651 235.295 329.209 237.901 327.248C240.398 325.354 243.542 324.379 247.342 324.379C251.143 324.379 254.286 325.354 256.893 327.248C259.445 329.198 260.748 331.64 260.748 334.576C260.748 337.511 259.445 339.943 256.893 341.848C254.286 343.798 251.143 344.773 247.342 344.773C243.542 344.773 240.398 343.798 237.901 341.848C235.295 339.954 234.046 337.511 234.046 334.576ZM240.07 334.576C240.07 336.043 240.716 337.237 242.074 338.157C243.378 339.132 245.108 339.625 247.331 339.625C249.555 339.625 251.351 339.132 252.698 338.157C254.002 337.237 254.703 336.043 254.703 334.576C254.703 333.108 254.002 331.914 252.698 330.94C251.34 330.02 249.555 329.527 247.331 329.527C245.108 329.527 243.367 330.02 242.074 330.94C240.716 331.914 240.07 333.163 240.07 334.576Z" fill="#595B56"/>
<path d="M289.115 343.141L302.138 356.591L297.91 360.172L286.848 348.562C284.461 353.119 281.043 357.346 276.542 361.256L272.369 357.62C279.959 351.005 284.088 343.25 284.844 334.236V329.516H290.758V332.55C290.704 336.241 290.167 339.767 289.126 343.13L289.115 343.141ZM313.036 374.553H307.121V324.27H313.036V374.553Z" fill="#595B56"/>
<path d="M356.222 343.85H345.587V349.052H366.09V354.211H318.458V349.052H339.563V343.85H328.764V325.789H334.843V338.757H356.211V343.861L356.222 343.85ZM328.994 366.686C328.994 363.652 330.243 361.1 332.794 359.151C335.292 357.201 338.49 356.226 342.29 356.226C346.091 356.226 349.289 357.201 351.896 359.151C354.393 361.1 355.696 363.652 355.696 366.686C355.696 369.72 354.393 372.272 351.896 374.221C349.289 376.171 346.091 377.146 342.29 377.146C338.49 377.146 335.292 376.171 332.794 374.221C330.243 372.272 328.994 369.775 328.994 366.686ZM335.018 366.686C335.018 368.318 335.664 369.556 336.967 370.541C338.271 371.527 340.001 372.009 342.279 372.009C344.558 372.009 346.343 371.516 347.701 370.541C349.004 369.567 349.65 368.318 349.65 366.686C349.65 365.054 349.004 363.816 347.701 362.831C346.343 361.856 344.558 361.363 342.279 361.363C340.001 361.363 338.26 361.856 336.967 362.831C335.675 363.806 335.018 365.109 335.018 366.686Z" fill="#595B56"/>
<path d="M414.928 358.331H394.096V375.636H388.017V358.331H367.295V353.172H414.928V358.331ZM394.26 328.923C394.151 330.446 393.877 331.848 393.45 333.206L408.86 344.87L405.169 348.934L391.008 338.244C388.182 342.472 383.527 346.327 377.12 349.689L373.319 345.626C383.089 340.095 388.017 334.454 388.237 328.704V326.152H394.26V328.923Z" fill="#595B56"/>
<path d="M433 339.34L445.201 351.333L441.028 354.914L430.667 344.443C428.389 348.408 425.026 352.143 420.689 355.67L416.571 352.088C424.161 345.747 428.126 338.901 428.564 331.585V327.565H434.424V330.545C434.424 333.578 433.985 336.514 433.011 339.329L433 339.34ZM456.164 375.91H428.224V357.904H434.139V370.817H456.164V375.921V375.91ZM463.919 343.14H455.562V361.475H449.648V324.258H455.562V337.762H463.919V343.129V343.14Z" fill="#595B56"/>
<path d="M482.308 337.992L494.728 348.945L490.764 352.472L480.129 342.866C477.851 346.831 474.433 350.566 469.877 354.093L465.704 350.621C473.294 344.542 477.259 337.981 477.697 330.928V327.018H483.557V329.942C483.557 332.713 483.173 335.364 482.308 337.97V337.992ZM505.473 376.995H499.559V362.241H476.777V357.137H505.473V376.995ZM500.051 355.615V324.258H505.966V355.615H500.051Z" fill="#595B56"/>
<path d="M532.164 358.386V353.72H511.387V348.561H559.02V353.72H538.243V358.386H548.659V376.184H521.639V358.386H532.164ZM550.718 346.13H519.58V341.026H525.33V339.241C525.33 337.828 525.22 336.689 525.056 335.933C524.837 335.232 524.563 334.411 524.136 333.49L529.448 331.859C530.259 332.943 530.806 334.082 531.025 335.276C531.189 336.524 531.299 337.828 531.299 339.186V341.026H538.999V331.311H520.007V326.207H550.28V331.311H544.913V341.026H550.718V346.13ZM542.69 371.135V363.435H527.663V371.135H542.69Z" fill="#595B56"/>
<path d="M560.225 348.725H578.121V338.309H584.255V348.725H607.858V353.884H560.225V348.725ZM597.924 326.437C597.924 330.61 597.759 334.246 597.486 337.389C597.157 340.587 596.785 343.413 596.237 345.91H590.377C590.761 343.085 591.078 340.379 591.407 337.663C591.681 335.056 591.845 332.997 591.845 331.53H569.337V326.426H597.924V326.437ZM570.794 366.523C570.794 363.697 571.988 361.211 574.485 359.043C576.873 356.929 580.071 355.844 584.091 355.844C588.11 355.844 591.308 356.929 593.805 359.043C596.248 361.211 597.497 363.708 597.497 366.523C597.497 369.338 596.248 371.89 593.805 374.004C591.308 376.172 588.055 377.202 584.091 377.202C580.126 377.202 576.928 376.172 574.485 374.004C571.988 371.89 570.794 369.393 570.794 366.523ZM576.818 366.523C576.818 367.991 577.464 369.294 578.768 370.379C580.016 371.572 581.801 372.109 584.08 372.109C586.358 372.109 588.198 371.561 589.501 370.379C590.804 369.294 591.451 367.991 591.451 366.523C591.451 365.056 590.804 363.807 589.501 362.613C588.198 361.529 586.358 360.926 584.08 360.926C581.801 360.926 580.016 361.518 578.768 362.613C577.464 363.807 576.818 365.11 576.818 366.523Z" fill="#595B56"/>
<path d="M625.809 343.141L638.613 357.193L634.385 360.775L623.476 348.683C621.088 353.239 617.671 357.412 613.224 361.267L609.052 357.631C616.642 351.016 620.771 343.261 621.526 334.247V329.527H627.441V332.561C627.386 336.252 626.849 339.778 625.809 343.141ZM657.057 348.245H648.481V374.553H642.566V324.27H648.481V342.878H657.057V348.245Z" fill="#595B56"/>
<path d="M190.411 397.25C190.411 398.751 189.874 399.857 188.834 400.558C187.76 401.281 186.358 401.653 184.606 401.653C183.927 401.653 183.237 401.587 182.558 401.434C181.857 401.303 181.254 401.182 180.783 401.029V399.003C181.189 399.222 181.725 399.408 182.361 399.583C182.7 399.693 183.105 399.769 183.554 399.857C183.982 399.966 184.387 400.01 184.792 400.01C185.241 400.01 185.668 399.966 186.095 399.857C186.501 399.769 186.862 399.649 187.18 399.452C187.454 399.276 187.738 399.025 188.012 398.685C188.264 398.389 188.396 397.984 188.396 397.513C188.396 397.042 188.264 396.659 188.056 396.319C187.826 396.024 187.563 395.761 187.289 395.553C186.665 395.082 186.052 394.698 185.405 394.359C184.934 394.151 184.42 393.888 183.872 393.592C183.292 393.34 182.766 393.012 182.295 392.65C181.78 392.267 181.375 391.84 181.079 391.369C180.783 390.898 180.63 390.361 180.63 389.77C180.63 388.379 181.101 387.36 182.043 386.714C182.963 386.079 184.157 385.75 185.614 385.75C185.975 385.75 186.358 385.794 186.785 385.838C187.169 385.903 187.53 385.969 187.848 386.024C188.472 386.155 188.998 386.298 189.425 386.451V388.291C189.129 388.116 188.571 387.908 187.782 387.667C186.972 387.448 186.183 387.327 185.416 387.327C184.65 387.327 183.96 387.513 183.434 387.908C182.875 388.313 182.624 388.893 182.624 389.616C182.624 389.934 182.711 390.219 182.875 390.427C183.029 390.657 183.215 390.876 183.434 391.084C183.664 391.303 183.949 391.489 184.266 391.686C184.562 391.905 184.891 392.07 185.186 392.201C186.293 392.738 187.125 393.165 187.727 393.461C188.286 393.778 188.757 394.096 189.118 394.446C189.458 394.742 189.754 395.125 190.017 395.553C190.247 396.024 190.378 396.582 190.422 397.261L190.411 397.25Z" fill="#595B56"/>
<path d="M201.714 401.423H192.744V386.023H201.506V387.688H194.737V392.54H201.232V394.205H194.737V399.758H201.725V401.423H201.714Z" fill="#595B56"/>
<path d="M217.726 393.738C217.726 394.833 217.551 395.873 217.234 396.859C216.894 397.867 216.401 398.743 215.755 399.466C215.109 400.189 214.364 400.747 213.466 401.109C212.568 401.492 211.648 401.667 210.706 401.667C209.764 401.667 208.844 401.492 207.946 401.109C207.048 400.747 206.281 400.189 205.657 399.466C205 398.743 204.507 397.867 204.2 396.859C203.882 395.873 203.729 394.833 203.729 393.738C203.729 392.642 203.882 391.58 204.2 390.572C204.496 389.587 204.989 388.71 205.657 387.966C206.281 387.243 207.048 386.684 207.946 386.301C208.844 385.939 209.764 385.742 210.706 385.742C211.648 385.742 212.568 385.939 213.466 386.301C214.364 386.684 215.109 387.243 215.755 387.966C216.39 388.71 216.883 389.587 217.234 390.572C217.551 391.58 217.726 392.62 217.726 393.738ZM215.744 393.738C215.744 392.861 215.613 392.007 215.361 391.175C215.109 390.364 214.736 389.674 214.309 389.105C213.86 388.546 213.323 388.097 212.71 387.779C212.075 387.484 211.407 387.33 210.728 387.33C210.049 387.33 209.402 387.484 208.789 387.779C208.143 388.097 207.595 388.546 207.146 389.105C206.697 389.685 206.358 390.364 206.139 391.175C205.887 392.007 205.777 392.861 205.777 393.738C205.777 394.614 205.887 395.446 206.139 396.235C206.358 397.045 206.697 397.746 207.146 398.327C207.595 398.907 208.132 399.334 208.767 399.63C209.391 399.926 210.049 400.079 210.728 400.079C211.407 400.079 212.075 399.926 212.71 399.63C213.334 399.334 213.86 398.907 214.309 398.327C214.736 397.746 215.098 397.045 215.361 396.235C215.613 395.446 215.744 394.614 215.744 393.738Z" fill="#595B56"/>
<path d="M225.864 399.991C226.499 400.035 227.08 399.925 227.595 399.652C228.066 399.4 228.449 399.071 228.701 398.666C228.953 398.217 229.172 397.724 229.303 397.187C229.435 396.673 229.5 396.136 229.5 395.566V386.016H231.461V395.643C231.461 396.278 231.395 396.946 231.264 397.647C231.11 398.37 230.837 399.038 230.431 399.597C230.004 400.221 229.424 400.703 228.701 401.065C227.956 401.448 227.014 401.645 225.864 401.645C224.714 401.645 223.772 401.448 223.049 401.065C222.283 400.703 221.702 400.21 221.319 399.608C220.892 399.027 220.618 398.37 220.486 397.647C220.355 396.946 220.289 396.278 220.289 395.643V386.016H222.272V395.566C222.272 396.147 222.316 396.673 222.447 397.187C222.556 397.724 222.743 398.217 223.006 398.666C223.257 399.049 223.63 399.367 224.112 399.608C224.583 399.86 225.185 399.991 225.864 399.991Z" fill="#595B56"/>
<path d="M243.651 401.423H234.659V386.023H236.642V399.758H243.651V401.423Z" fill="#595B56"/>
<path d="M253.531 401.423H251.439L256.904 386.023H259.018L264.527 401.423H262.413L260.814 396.68H255.152L253.531 401.423ZM260.234 394.994L258.01 388.389L255.743 394.994H260.234Z" fill="#595B56"/>
<path d="M277.834 390.374H275.742C275.742 389.815 275.633 389.344 275.447 388.983C275.228 388.643 274.998 388.347 274.702 388.106C274.406 387.876 274.078 387.701 273.694 387.57C273.289 387.46 272.884 387.394 272.5 387.351C271.821 387.351 271.197 387.482 270.617 387.712C270.014 387.964 269.489 388.369 269.039 388.906C268.569 389.421 268.207 390.1 267.966 390.932C267.714 391.786 267.583 392.619 267.583 393.451C267.583 393.988 267.648 394.623 267.791 395.368C267.922 396.135 268.196 396.868 268.579 397.569C268.963 398.249 269.521 398.807 270.244 399.278C270.945 399.771 271.865 400.001 273.004 400.001C273.607 400.001 274.198 399.935 274.757 399.804C275.315 399.672 275.633 399.596 275.721 399.552V394.787H271.986V393.101H277.692V400.516C276.882 400.921 276.115 401.195 275.337 401.37C274.549 401.545 273.629 401.622 272.555 401.622C271.318 401.622 270.266 401.392 269.39 400.899C268.492 400.428 267.769 399.804 267.167 399.015C266.542 398.227 266.115 397.35 265.885 396.365C265.633 395.423 265.524 394.448 265.524 393.44C265.524 392.433 265.655 391.458 265.929 390.516C266.181 389.618 266.608 388.807 267.21 388.085C267.791 387.405 268.514 386.825 269.412 386.376C270.266 385.949 271.296 385.719 272.468 385.719C273.191 385.719 273.881 385.828 274.516 386.036C275.14 386.266 275.688 386.573 276.202 386.956C276.673 387.362 277.079 387.833 277.374 388.391C277.67 388.95 277.823 389.607 277.823 390.352L277.834 390.374Z" fill="#595B56"/>
<path d="M290.966 390.462C290.966 391.163 290.769 391.81 290.43 392.368C290.068 392.949 289.619 393.398 289.083 393.693C288.787 393.869 288.338 394.033 287.779 394.208C288.853 394.789 289.597 395.599 290.024 396.662C290.583 398.053 291.01 399.63 291.35 401.426H289.258C288.831 398.929 288.294 397.242 287.659 396.388C286.914 395.424 286.082 394.931 285.14 394.931H283.628V393.201H285.129C285.643 393.201 286.114 393.157 286.564 393.047C286.991 392.96 287.396 392.817 287.735 392.598C288.075 392.401 288.371 392.105 288.634 391.722C288.864 391.361 288.995 390.933 288.995 390.462C288.995 389.948 288.864 389.499 288.634 389.137C288.382 388.798 288.053 388.513 287.714 388.305C287.352 388.108 286.947 387.965 286.52 387.834C286.071 387.724 285.622 387.659 285.173 387.659H282.84V401.415H280.857V386.016H285.173C285.895 386.016 286.607 386.103 287.286 386.246C287.943 386.421 288.546 386.651 289.083 386.99C289.619 387.352 290.068 387.801 290.452 388.338C290.791 388.896 290.988 389.597 290.988 390.451L290.966 390.462Z" fill="#595B56"/>
<path d="M306.826 393.738C306.826 394.833 306.651 395.873 306.333 396.859C305.993 397.867 305.501 398.743 304.854 399.466C304.208 400.189 303.463 400.747 302.565 401.109C301.667 401.492 300.747 401.667 299.805 401.667C298.863 401.667 297.943 401.492 297.045 401.109C296.147 400.747 295.38 400.189 294.756 399.466C294.099 398.743 293.606 397.867 293.299 396.859C292.982 395.873 292.828 394.833 292.828 393.738C292.828 392.642 292.982 391.58 293.299 390.572C293.595 389.587 294.088 388.71 294.756 387.966C295.38 387.243 296.147 386.684 297.045 386.301C297.943 385.939 298.863 385.742 299.805 385.742C300.747 385.742 301.667 385.939 302.565 386.301C303.463 386.684 304.208 387.243 304.854 387.966C305.49 388.71 305.982 389.587 306.333 390.572C306.651 391.58 306.826 392.62 306.826 393.738ZM304.843 393.738C304.843 392.861 304.712 392.007 304.46 391.175C304.208 390.364 303.836 389.674 303.409 389.105C302.96 388.546 302.423 388.097 301.81 387.779C301.174 387.484 300.506 387.33 299.827 387.33C299.148 387.33 298.502 387.484 297.888 387.779C297.253 388.097 296.695 388.546 296.246 389.105C295.797 389.685 295.457 390.364 295.238 391.175C294.986 392.007 294.877 392.861 294.877 393.738C294.877 394.614 294.986 395.446 295.238 396.235C295.457 397.045 295.797 397.746 296.246 398.327C296.695 398.907 297.231 399.334 297.867 399.63C298.491 399.926 299.148 400.079 299.827 400.079C300.506 400.079 301.174 399.926 301.81 399.63C302.434 399.334 302.96 398.907 303.409 398.327C303.836 397.746 304.197 397.045 304.46 396.235C304.712 395.446 304.843 394.614 304.843 393.738Z" fill="#595B56"/>
<path d="M315.927 394.643H308.775V392.891H315.927V394.643Z" fill="#595B56"/>
<path d="M327.285 387.688H320.517V392.54H327.055V394.205H320.517V401.423H318.534V386.023H327.296V387.688H327.285Z" fill="#595B56"/>
<path d="M331.743 401.423H329.761V386.023H331.743V401.423Z" fill="#595B56"/>
<path d="M344.065 397.25C344.065 398.751 343.528 399.857 342.488 400.558C341.414 401.281 340.012 401.653 338.26 401.653C337.581 401.653 336.891 401.587 336.212 401.434C335.511 401.303 334.908 401.182 334.438 401.029V399.003C334.843 399.222 335.379 399.408 336.015 399.583C336.354 399.693 336.759 399.769 337.209 399.857C337.636 399.966 338.041 400.01 338.446 400.01C338.895 400.01 339.322 399.966 339.75 399.857C340.155 399.769 340.516 399.649 340.834 399.452C341.108 399.276 341.392 399.025 341.666 398.685C341.918 398.389 342.05 397.984 342.05 397.513C342.05 397.042 341.918 396.659 341.71 396.319C341.48 396.024 341.217 395.761 340.943 395.553C340.319 395.082 339.706 394.698 339.06 394.359C338.589 394.151 338.074 393.888 337.526 393.592C336.946 393.34 336.42 393.012 335.949 392.65C335.434 392.267 335.029 391.84 334.733 391.369C334.438 390.898 334.284 390.361 334.284 389.77C334.284 388.379 334.755 387.36 335.697 386.714C336.617 386.079 337.811 385.75 339.268 385.75C339.629 385.75 340.012 385.794 340.44 385.838C340.823 385.903 341.184 385.969 341.502 386.024C342.126 386.155 342.652 386.298 343.079 386.451V388.291C342.783 388.116 342.225 387.908 341.436 387.667C340.626 387.448 339.837 387.327 339.07 387.327C338.304 387.327 337.614 387.513 337.088 387.908C336.529 388.313 336.278 388.893 336.278 389.616C336.278 389.934 336.365 390.219 336.529 390.427C336.683 390.657 336.869 390.876 337.088 391.084C337.318 391.303 337.603 391.489 337.92 391.686C338.216 391.905 338.545 392.07 338.84 392.201C339.947 392.738 340.779 393.165 341.381 393.461C341.94 393.778 342.411 394.096 342.772 394.446C343.112 394.742 343.408 395.125 343.671 395.553C343.901 396.024 344.032 396.582 344.076 397.261L344.065 397.25Z" fill="#595B56"/>
<path d="M357.284 401.423H355.302V394.249H348.38V401.423H346.397V386.023H348.38V392.584H355.302V386.023H357.284V401.423Z" fill="#595B56"/>
<path d="M369.464 401.423H360.493V386.023H369.255V387.688H362.487V392.54H368.982V394.205H362.487V399.758H369.475V401.423H369.464Z" fill="#595B56"/>
<path d="M382.289 390.462C382.289 391.163 382.092 391.81 381.752 392.368C381.391 392.949 380.942 393.398 380.405 393.693C380.11 393.869 379.661 394.033 379.102 394.208C380.175 394.789 380.92 395.599 381.347 396.662C381.906 398.053 382.333 399.63 382.673 401.426H380.581C380.153 398.929 379.617 397.242 378.981 396.388C378.237 395.424 377.404 394.931 376.462 394.931H374.951V393.201H376.451C376.966 393.201 377.437 393.157 377.886 393.047C378.313 392.96 378.719 392.817 379.058 392.598C379.398 392.401 379.693 392.105 379.956 391.722C380.186 391.361 380.318 390.933 380.318 390.462C380.318 389.948 380.186 389.499 379.956 389.137C379.704 388.798 379.376 388.513 379.036 388.305C378.675 388.108 378.27 387.965 377.842 387.834C377.393 387.724 376.944 387.659 376.495 387.659H374.162V401.415H372.18V386.016H376.495C377.218 386.016 377.93 386.103 378.609 386.246C379.266 386.421 379.869 386.651 380.405 386.99C380.942 387.352 381.391 387.801 381.774 388.338C382.114 388.896 382.311 389.597 382.311 390.451L382.289 390.462Z" fill="#595B56"/>
<path d="M386.944 401.423H384.962V386.023H386.944V401.423Z" fill="#595B56"/>
<path d="M399.2 401.423H390.23V386.023H398.992V387.688H392.223V392.54H398.718V394.205H392.223V399.758H399.211V401.423H399.2Z" fill="#595B56"/>
<path d="M410.952 397.25C410.952 398.751 410.415 399.857 409.375 400.558C408.312 401.281 406.9 401.653 405.147 401.653C404.468 401.653 403.778 401.587 403.099 401.434C402.398 401.303 401.796 401.182 401.325 401.029V399.003C401.73 399.222 402.267 399.408 402.902 399.583C403.241 399.693 403.647 399.769 404.096 399.857C404.523 399.966 404.928 400.01 405.333 400.01C405.782 400.01 406.21 399.966 406.637 399.857C407.042 399.769 407.403 399.649 407.721 399.452C407.995 399.276 408.28 399.025 408.553 398.685C408.805 398.389 408.937 397.984 408.937 397.513C408.937 397.042 408.805 396.659 408.597 396.319C408.367 396.024 408.104 395.761 407.831 395.553C407.206 395.082 406.593 394.698 405.947 394.359C405.476 394.151 404.961 393.888 404.413 393.592C403.833 393.34 403.307 393.012 402.836 392.65C402.321 392.267 401.916 391.84 401.62 391.369C401.325 390.898 401.171 390.361 401.171 389.77C401.171 388.379 401.642 387.36 402.584 386.714C403.504 386.079 404.698 385.75 406.155 385.75C406.516 385.75 406.9 385.794 407.327 385.838C407.71 385.903 408.072 385.969 408.389 386.024C409.013 386.155 409.539 386.298 409.966 386.451V388.291C409.671 388.116 409.112 387.908 408.323 387.667C407.513 387.448 406.724 387.327 405.947 387.327C405.169 387.327 404.49 387.513 403.964 387.908C403.406 388.313 403.154 388.893 403.154 389.616C403.154 389.934 403.241 390.219 403.406 390.427C403.559 390.657 403.745 390.876 403.964 391.084C404.194 391.303 404.479 391.489 404.797 391.686C405.092 391.905 405.421 392.07 405.717 392.201C406.823 392.738 407.666 393.165 408.258 393.461C408.816 393.778 409.287 394.096 409.649 394.446C409.988 394.742 410.284 395.125 410.547 395.553C410.777 396.024 410.908 396.582 410.952 397.261V397.25Z" fill="#595B56"/>
<path d="M430.546 399.312C429.911 399.871 429.221 400.375 428.454 400.824C427.469 401.426 426.384 401.722 425.223 401.722C424.303 401.722 423.427 401.525 422.573 401.098C421.718 400.714 421.061 400.09 420.634 399.236C420.273 398.513 420.163 397.702 420.338 396.804C420.47 395.95 420.875 395.205 421.532 394.559C422.233 393.88 422.879 393.365 423.449 393.004C424.008 392.664 424.369 392.401 424.577 392.281C423.975 391.624 423.526 391.043 423.252 390.528C422.956 390.036 422.781 389.565 422.737 389.094C422.693 388.645 422.759 388.217 422.934 387.79C423.109 387.407 423.339 387.067 423.635 386.761C423.975 386.465 424.402 386.202 424.895 386.016C425.366 385.841 425.859 385.742 426.406 385.742C426.833 385.742 427.282 385.808 427.753 385.917C428.202 386.049 428.608 386.213 428.991 386.454C429.352 386.706 429.648 387.035 429.911 387.418C430.119 387.823 430.251 388.272 430.294 388.787C430.294 389.28 430.097 389.795 429.758 390.298C429.396 390.857 428.947 391.328 428.389 391.755C427.961 392.095 427.556 392.39 427.151 392.653L430.722 396.771C431.28 396.169 431.872 395.512 432.518 394.789L433.909 395.961C433.208 396.706 432.518 397.418 431.839 398.075L434.785 401.47H432.375L430.535 399.312H430.546ZM425.683 393.562C424.785 394.121 423.931 394.778 423.12 395.512C422.759 395.873 422.496 396.344 422.376 396.925C422.2 397.527 422.266 398.075 422.551 398.633C422.726 399.061 423.066 399.444 423.602 399.74C424.117 400.079 424.654 400.232 425.245 400.232C425.913 400.232 426.658 400.002 427.512 399.51C428.191 399.126 428.86 398.655 429.495 398.053L425.694 393.562H425.683ZM428.378 388.656C428.378 388.25 428.18 387.889 427.819 387.549C427.436 387.232 426.987 387.057 426.45 387.057C425.957 387.057 425.552 387.232 425.256 387.571C424.917 387.933 424.763 388.338 424.763 388.787C424.763 389.258 424.917 389.729 425.256 390.2C425.574 390.715 425.859 391.098 426.089 391.35C426.286 391.262 426.603 391.054 427.031 390.693C427.304 390.474 427.611 390.2 427.929 389.817C428.224 389.477 428.378 389.094 428.378 388.667V388.656Z" fill="#595B56"/>
<path d="M452.714 387.688H445.946V392.54H452.484V394.205H445.946V401.423H443.963V386.023H452.725V387.688H452.714Z" fill="#595B56"/>
<path d="M468.387 393.738C468.387 394.833 468.212 395.873 467.894 396.859C467.555 397.867 467.062 398.743 466.416 399.466C465.77 400.189 465.025 400.747 464.127 401.109C463.229 401.492 462.309 401.667 461.367 401.667C460.425 401.667 459.505 401.492 458.618 401.109C457.72 400.747 456.953 400.189 456.329 399.466C455.671 398.743 455.179 397.867 454.872 396.859C454.554 395.873 454.401 394.833 454.401 393.738C454.401 392.642 454.554 391.58 454.872 390.572C455.168 389.587 455.66 388.71 456.329 387.966C456.953 387.243 457.72 386.684 458.618 386.301C459.516 385.939 460.436 385.742 461.367 385.742C462.298 385.742 463.229 385.939 464.127 386.301C465.025 386.684 465.77 387.243 466.416 387.966C467.051 388.71 467.544 389.587 467.894 390.572C468.212 391.58 468.387 392.62 468.387 393.738ZM466.405 393.738C466.405 392.861 466.273 392.007 466.022 391.175C465.77 390.364 465.397 389.674 464.97 389.105C464.521 388.546 463.984 388.097 463.371 387.779C462.736 387.484 462.068 387.33 461.389 387.33C460.71 387.33 460.063 387.484 459.45 387.779C458.815 388.097 458.256 388.546 457.807 389.105C457.358 389.685 457.019 390.364 456.799 391.175C456.548 392.007 456.438 392.861 456.438 393.738C456.438 394.614 456.548 395.446 456.799 396.235C457.019 397.045 457.358 397.746 457.807 398.327C458.256 398.907 458.793 399.334 459.428 399.63C460.052 399.926 460.71 400.079 461.389 400.079C462.068 400.079 462.736 399.926 463.371 399.63C463.995 399.334 464.521 398.907 464.97 398.327C465.397 397.746 465.759 397.045 466.022 396.235C466.273 395.446 466.405 394.614 466.405 393.738Z" fill="#595B56"/>
<path d="M484.258 393.738C484.258 394.833 484.083 395.873 483.765 396.859C483.426 397.867 482.933 398.743 482.286 399.466C481.64 400.189 480.895 400.747 479.997 401.109C479.099 401.492 478.179 401.667 477.237 401.667C476.295 401.667 475.375 401.492 474.477 401.109C473.579 400.747 472.812 400.189 472.188 399.466C471.531 398.743 471.038 397.867 470.731 396.859C470.414 395.873 470.26 394.833 470.26 393.738C470.26 392.642 470.414 391.58 470.731 390.572C471.027 389.587 471.52 388.71 472.188 387.966C472.812 387.243 473.579 386.684 474.477 386.301C475.375 385.939 476.295 385.742 477.237 385.742C478.179 385.742 479.099 385.939 479.997 386.301C480.895 386.684 481.64 387.243 482.286 387.966C482.922 388.71 483.415 389.587 483.765 390.572C484.083 391.58 484.258 392.62 484.258 393.738ZM482.265 393.738C482.265 392.861 482.133 392.007 481.881 391.175C481.629 390.364 481.257 389.674 480.83 389.105C480.381 388.546 479.844 388.097 479.231 387.779C478.584 387.484 477.927 387.33 477.248 387.33C476.569 387.33 475.923 387.484 475.31 387.779C474.674 388.097 474.116 388.546 473.667 389.105C473.218 389.685 472.878 390.364 472.659 391.175C472.407 392.007 472.298 392.861 472.298 393.738C472.298 394.614 472.407 395.446 472.659 396.235C472.878 397.045 473.218 397.746 473.667 398.327C474.116 398.907 474.653 399.334 475.288 399.63C475.912 399.926 476.569 400.079 477.248 400.079C477.927 400.079 478.595 399.926 479.231 399.63C479.855 399.334 480.381 398.907 480.83 398.327C481.257 397.746 481.618 397.045 481.881 396.235C482.133 395.446 482.265 394.614 482.265 393.738Z" fill="#595B56"/>
<path d="M486.81 386.023H490.402C490.873 386.023 491.388 386.045 491.935 386.089C492.472 386.155 492.943 386.221 493.348 386.308C494.005 386.462 494.63 386.735 495.21 387.141C495.769 387.568 496.305 388.083 496.787 388.652C497.215 389.254 497.576 389.955 497.872 390.788C498.146 391.642 498.299 392.65 498.299 393.756C498.299 394.862 498.146 395.782 497.872 396.636C497.576 397.513 497.215 398.236 496.787 398.816C496.294 399.418 495.758 399.9 495.21 400.317C494.63 400.744 494.016 401.039 493.348 401.171C492.943 401.258 492.472 401.324 491.935 401.368C491.377 401.412 490.873 401.434 490.402 401.434H486.81V386.034V386.023ZM488.781 387.688V399.758H490.446C490.763 399.758 491.169 399.758 491.662 399.714C492.133 399.692 492.494 399.627 492.768 399.539C493.151 399.451 493.534 399.265 493.962 399.002C494.345 398.75 494.728 398.378 495.09 397.874C495.407 397.403 495.692 396.845 495.944 396.166C496.174 395.508 496.305 394.687 496.305 393.756C496.305 392.825 496.174 391.96 495.944 391.281C495.692 390.645 495.407 390.065 495.09 389.594C494.728 389.101 494.345 388.718 493.962 388.466C493.534 388.214 493.151 388.039 492.768 387.929C492.494 387.842 492.133 387.776 491.662 387.732C491.169 387.71 490.763 387.688 490.446 387.688H488.781Z" fill="#595B56"/>
<path d="M519.492 390.373H517.4C517.4 389.814 517.291 389.343 517.105 388.982C516.897 388.642 516.656 388.347 516.36 388.106C516.064 387.876 515.736 387.7 515.352 387.569C514.947 387.459 514.542 387.394 514.158 387.35C513.479 387.35 512.855 387.481 512.275 387.711C511.672 387.963 511.168 388.369 510.697 388.905C510.226 389.42 509.865 390.099 509.624 390.931C509.372 391.786 509.241 392.64 509.241 393.472C509.241 394.009 509.306 394.644 509.449 395.389C509.58 396.156 509.832 396.901 510.237 397.612C510.643 398.292 511.201 398.872 511.924 399.321C512.603 399.792 513.523 400.022 514.662 400.022C515.495 400.022 516.283 399.891 517.006 399.639C517.707 399.387 518.353 399.08 518.912 398.719V400.679C518.715 400.767 518.507 400.876 518.277 400.975C518.025 401.106 517.718 401.205 517.378 401.293C516.437 401.523 515.374 401.632 514.213 401.632C512.976 401.632 511.924 401.402 511.07 400.931C510.172 400.482 509.427 399.858 508.825 399.047C508.189 398.259 507.762 397.383 507.543 396.397C507.291 395.433 507.182 394.458 507.182 393.451C507.182 392.443 507.313 391.468 507.587 390.526C507.839 389.606 508.266 388.796 508.868 388.073C509.449 387.394 510.172 386.813 511.07 386.364C511.924 385.937 512.954 385.707 514.126 385.707C514.848 385.707 515.538 385.817 516.174 386.025C516.798 386.255 517.346 386.561 517.86 386.945C518.331 387.35 518.737 387.821 519.032 388.379C519.328 388.938 519.481 389.595 519.481 390.34L519.492 390.373Z" fill="#595B56"/>
<path d="M535.176 393.738C535.176 394.833 535.001 395.873 534.684 396.859C534.344 397.867 533.851 398.743 533.205 399.466C532.559 400.189 531.814 400.747 530.916 401.109C530.018 401.492 529.098 401.667 528.156 401.667C527.214 401.667 526.294 401.492 525.407 401.109C524.509 400.747 523.742 400.189 523.118 399.466C522.46 398.743 521.968 397.867 521.661 396.859C521.343 395.873 521.19 394.833 521.19 393.738C521.19 392.642 521.343 391.58 521.661 390.572C521.957 389.587 522.449 388.71 523.118 387.966C523.742 387.243 524.509 386.684 525.407 386.301C526.305 385.939 527.225 385.742 528.156 385.742C529.087 385.742 530.018 385.939 530.916 386.301C531.814 386.684 532.559 387.243 533.205 387.966C533.84 388.71 534.333 389.587 534.684 390.572C535.001 391.58 535.176 392.62 535.176 393.738ZM533.194 393.738C533.194 392.861 533.063 392.007 532.811 391.175C532.559 390.364 532.186 389.674 531.759 389.105C531.31 388.546 530.773 388.097 530.16 387.779C529.525 387.484 528.857 387.33 528.178 387.33C527.499 387.33 526.852 387.484 526.239 387.779C525.604 388.097 525.045 388.546 524.596 389.105C524.147 389.685 523.808 390.364 523.589 391.175C523.337 392.007 523.227 392.861 523.227 393.738C523.227 394.614 523.337 395.446 523.589 396.235C523.808 397.045 524.147 397.746 524.596 398.327C525.045 398.907 525.582 399.334 526.217 399.63C526.842 399.926 527.499 400.079 528.178 400.079C528.857 400.079 529.525 399.926 530.16 399.63C530.784 399.334 531.31 398.907 531.759 398.327C532.186 397.746 532.548 397.045 532.811 396.235C533.063 395.446 533.194 394.614 533.194 393.738Z" fill="#595B56"/>
<path d="M547.859 390.462C547.859 391.163 547.662 391.81 547.323 392.368C546.961 392.949 546.512 393.398 545.976 393.693C545.68 393.869 545.231 394.033 544.672 394.208C545.735 394.789 546.49 395.599 546.918 396.662C547.476 398.053 547.903 399.63 548.243 401.426H546.151C545.724 398.929 545.187 397.242 544.552 396.388C543.807 395.424 542.975 394.931 542.033 394.931H540.521V393.201H542.011C542.526 393.201 542.997 393.157 543.446 393.047C543.873 392.96 544.278 392.817 544.618 392.598C544.957 392.401 545.253 392.105 545.516 391.722C545.746 391.361 545.877 390.933 545.877 390.462C545.877 389.948 545.746 389.499 545.516 389.137C545.264 388.798 544.935 388.513 544.596 388.305C544.234 388.108 543.829 387.965 543.402 387.834C542.953 387.724 542.504 387.659 542.055 387.659H539.733V401.415H537.75V386.016H542.066C542.788 386.016 543.5 386.103 544.179 386.246C544.837 386.421 545.439 386.651 545.976 386.99C546.512 387.352 546.961 387.801 547.345 388.338C547.684 388.896 547.881 389.597 547.881 390.451L547.859 390.462Z" fill="#595B56"/>
<path d="M560.543 390.594C560.543 391.382 560.345 392.094 560.006 392.686C559.644 393.321 559.195 393.814 558.659 394.164C558.122 394.548 557.531 394.8 556.862 394.931C556.183 395.084 555.45 395.15 554.727 395.15H553.314V393.42H554.683C555.198 393.42 555.669 393.376 556.14 393.288C556.567 393.201 556.95 393.058 557.29 392.817C557.629 392.598 557.925 392.302 558.188 391.897C558.418 391.514 558.549 391.087 558.549 390.594C558.549 389.991 558.418 389.499 558.188 389.137C557.936 388.798 557.607 388.535 557.268 388.327C556.906 388.108 556.501 387.965 556.074 387.834C555.625 387.724 555.176 387.659 554.727 387.659H552.405V401.415H550.422V386.016H554.738C555.461 386.016 556.172 386.103 556.83 386.246C557.465 386.421 558.089 386.651 558.648 386.99C559.206 387.33 559.655 387.801 560.017 388.403C560.356 389.006 560.554 389.729 560.554 390.583L560.543 390.594Z" fill="#595B56"/>
<path d="M576.183 393.738C576.183 394.833 576.008 395.873 575.69 396.859C575.35 397.867 574.858 398.743 574.211 399.466C573.565 400.189 572.82 400.747 571.922 401.109C571.024 401.492 570.104 401.667 569.162 401.667C568.22 401.667 567.3 401.492 566.413 401.109C565.515 400.747 564.748 400.189 564.124 399.466C563.467 398.743 562.974 397.867 562.667 396.859C562.35 395.873 562.196 394.833 562.196 393.738C562.196 392.642 562.35 391.58 562.667 390.572C562.963 389.587 563.456 388.71 564.124 387.966C564.748 387.243 565.515 386.684 566.413 386.301C567.311 385.939 568.231 385.742 569.162 385.742C570.093 385.742 571.024 385.939 571.922 386.301C572.82 386.684 573.565 387.243 574.211 387.966C574.847 388.71 575.339 389.587 575.69 390.572C576.008 391.58 576.183 392.62 576.183 393.738ZM574.189 393.738C574.189 392.861 574.058 392.007 573.806 391.175C573.554 390.364 573.182 389.674 572.755 389.105C572.306 388.546 571.769 388.097 571.155 387.779C570.52 387.484 569.852 387.33 569.173 387.33C568.494 387.33 567.848 387.484 567.235 387.779C566.599 388.097 566.041 388.546 565.592 389.105C565.143 389.685 564.803 390.364 564.584 391.175C564.332 392.007 564.223 392.861 564.223 393.738C564.223 394.614 564.332 395.446 564.584 396.235C564.803 397.045 565.143 397.746 565.592 398.327C566.041 398.907 566.577 399.334 567.213 399.63C567.837 399.926 568.494 400.079 569.173 400.079C569.852 400.079 570.52 399.926 571.155 399.63C571.78 399.334 572.306 398.907 572.755 398.327C573.182 397.746 573.543 397.045 573.806 396.235C574.058 395.446 574.189 394.614 574.189 393.738Z" fill="#595B56"/>
<path d="M588.866 390.462C588.866 391.163 588.669 391.81 588.329 392.368C587.968 392.949 587.519 393.398 586.982 393.693C586.687 393.869 586.237 394.033 585.679 394.208C586.741 394.789 587.497 395.599 587.924 396.662C588.483 398.053 588.91 399.63 589.249 401.426H587.158C586.73 398.929 586.194 397.242 585.558 396.388C584.814 395.424 583.981 394.931 583.039 394.931H581.528V393.201H583.017C583.532 393.201 584.003 393.157 584.452 393.047C584.879 392.96 585.285 392.817 585.624 392.598C585.964 392.401 586.259 392.105 586.522 391.722C586.752 391.361 586.884 390.933 586.884 390.462C586.884 389.948 586.752 389.499 586.522 389.137C586.27 388.798 585.942 388.513 585.602 388.305C585.241 388.108 584.836 387.965 584.408 387.834C583.959 387.724 583.51 387.659 583.061 387.659H580.739V401.415H578.757V386.016H583.072C583.795 386.016 584.507 386.103 585.186 386.246C585.843 386.421 586.446 386.651 586.982 386.99C587.519 387.352 587.968 387.801 588.351 388.338C588.691 388.896 588.888 389.597 588.888 390.451L588.866 390.462Z" fill="#595B56"/>
<path d="M592.294 401.423H590.202L595.667 386.023H597.781L603.291 401.423H601.177L599.578 396.68H593.915L592.294 401.423ZM599.008 394.994L596.785 388.389L594.517 394.994H599.008Z" fill="#595B56"/>
<path d="M614.287 387.688H609.413V401.423H607.431V387.688H602.557V386.023H614.287V387.688Z" fill="#595B56"/>
<path d="M618.537 401.423H616.554V386.023H618.537V401.423Z" fill="#595B56"/>
<path d="M635.13 393.738C635.13 394.833 634.955 395.873 634.637 396.859C634.297 397.867 633.805 398.743 633.158 399.466C632.512 400.189 631.767 400.747 630.869 401.109C629.971 401.492 629.051 401.667 628.109 401.667C627.167 401.667 626.247 401.492 625.349 401.109C624.451 400.747 623.684 400.189 623.06 399.466C622.403 398.743 621.91 397.867 621.603 396.859C621.286 395.873 621.132 394.833 621.132 393.738C621.132 392.642 621.286 391.58 621.603 390.572C621.899 389.587 622.392 388.71 623.06 387.966C623.684 387.243 624.451 386.684 625.349 386.301C626.247 385.939 627.167 385.742 628.109 385.742C629.051 385.742 629.971 385.939 630.869 386.301C631.767 386.684 632.512 387.243 633.158 387.966C633.794 388.71 634.286 389.587 634.637 390.572C634.955 391.58 635.13 392.62 635.13 393.738ZM633.147 393.738C633.147 392.861 633.016 392.007 632.764 391.175C632.512 390.364 632.14 389.674 631.713 389.105C631.264 388.546 630.727 388.097 630.113 387.779C629.467 387.484 628.81 387.33 628.131 387.33C627.452 387.33 626.806 387.484 626.192 387.779C625.557 388.097 624.999 388.546 624.55 389.105C624.1 389.685 623.761 390.364 623.542 391.175C623.29 392.007 623.18 392.861 623.18 393.738C623.18 394.614 623.29 395.446 623.542 396.235C623.761 397.045 624.1 397.746 624.55 398.327C624.999 398.907 625.535 399.334 626.171 399.63C626.795 399.926 627.452 400.079 628.131 400.079C628.81 400.079 629.478 399.926 630.113 399.63C630.738 399.334 631.264 398.907 631.713 398.327C632.14 397.746 632.501 397.045 632.764 396.235C633.016 395.446 633.147 394.614 633.147 393.738Z" fill="#595B56"/>
<path d="M648.59 401.423H646.301L639.598 388.794V401.423H637.693V386.023H639.938L646.685 398.685V386.023H648.59V401.423Z" fill="#595B56"/>
<path d="M7.53535 3.34813H0.624268V2.20906H7.53535V3.34813ZM4.07433 8.34251C2.27811 8.34251 1.09523 7.31296 1.09523 6.17389C1.09523 4.95816 2.28906 4.02719 4.08529 4.02719C5.88151 4.02719 7.06439 4.95816 7.06439 6.17389C7.06439 7.38963 5.95818 8.34251 4.07433 8.34251ZM10.1749 12.5154H2.21239V9.04347H3.5267V11.3326H10.1749V12.5154ZM5.90341 1.29999H2.26716V0.171875H5.90341V1.29999ZM5.72817 6.16294C5.72817 5.51674 5.18054 5.04578 4.09624 5.04578C3.01193 5.04578 2.45335 5.51674 2.45335 6.16294C2.45335 6.80914 3.00098 7.24725 4.09624 7.24725C5.1915 7.24725 5.72817 6.80914 5.72817 6.16294ZM11.4016 5.18816H9.84635V9.54729H8.61966V0.226638H9.84635V3.93957H11.4016V5.18816Z" fill="#231F20"/>
<path d="M22.606 5.81247H11.6753V4.60769H19.4626C19.5721 4.13672 19.8897 2.92099 19.9664 1.89144H12.9239V0.730469H21.3902C21.3574 1.42048 21.0179 3.65481 20.7331 4.61864H22.595V5.82342L22.606 5.81247ZM21.4231 12.6578H13.0882V9.26254H19.8569V8.12347H13.0882V7.02821H21.1821V10.3468H14.4244V11.5735H21.4121V12.6688L21.4231 12.6578Z" fill="#231F20"/>
<path d="M34.0298 11.3422H23.0991V10.1374H27.9073V8.17686H24.6215V4.08059H31.1602V2.35008H24.5887V1.15625H32.3869V5.28538H25.8592V6.98303H32.7045V8.18781H29.2107V10.1483H34.0298V11.3531V11.3422Z" fill="#231F20"/>
<path d="M45.4531 11.1341H34.5225V9.92936H38.334V5.58118H39.6045V9.92936H45.4531V11.1341ZM44.1388 1.66016C44.106 2.70065 43.7774 6.41358 43.3174 8.4179H42.0797C42.1126 8.23171 42.704 4.77069 42.7807 2.87589H35.7163V1.66016H44.1498H44.1388Z" fill="#231F20"/>
<path d="M7.00969 28.3793L6.62634 28.8283C6.26491 28.5764 4.28249 27.0978 3.72391 24.6992C3.32962 27.0978 1.30339 28.7845 0.843377 29.0583L0.405273 28.6312C1.38005 28.0288 3.45009 26.3859 3.45009 22.8592V20.8439H3.99772V22.8592C3.99772 26.4297 6.47301 28.0178 7.00969 28.3683V28.3793ZM8.42257 24.1735V20.1758H8.9702V31.1722H8.42257V24.6773H5.92538V24.1735H8.42257Z" fill="#231F20"/>
<path d="M19.7694 25.5841H15.3007V26.975H18.4113V29.1984H12.1135V30.5456H18.696V31.0494H11.5659V28.6946H17.8636V27.4679H11.5659V26.9641H14.764V25.5731H10.2078V25.0693H19.7694V25.5731V25.5841ZM18.5536 22.0902C18.5536 23.1745 17.2612 24.0507 14.994 24.0507C12.7269 24.0507 11.4345 23.1745 11.4345 22.0902C11.4345 21.0059 12.7378 20.1406 14.994 20.1406C17.2503 20.1406 18.5536 21.0825 18.5536 22.0902ZM17.9951 22.0902C17.9951 21.2249 16.7026 20.6444 14.994 20.6444C13.2854 20.6444 11.993 21.2359 11.993 22.0902C11.993 22.9445 13.2635 23.5359 14.994 23.5359C16.7246 23.5359 17.9951 22.9226 17.9951 22.0902Z" fill="#231F20"/>
<path d="M30.9192 24.8635C30.2401 25.0059 28.4548 25.3016 26.1 25.3016H24.731V20.6906H25.2786V24.7978H26.3738C28.1482 24.7978 30.2511 24.524 30.9301 24.3597V24.8635H30.9192ZM32.102 31.0517H25.8043V27.054H32.102V31.0517ZM26.3519 27.5469V30.5479H31.5654V27.5469H26.3519ZM31.5654 20.1758H32.113V22.6511H33.6245V23.1658H32.113V26.4297H31.5654V20.1758Z" fill="#231F20"/>
<path d="M37.5673 21.8187C37.5673 24.1844 39.7359 25.7945 40.4917 26.2216L40.1412 26.6816C39.8126 26.5392 37.9507 25.0387 37.2935 23.2096C36.6145 25.4549 34.8182 26.6707 34.4897 26.8569L34.0625 26.4516C34.8949 26.1011 37.0197 24.2063 37.0197 21.8187V20.5591H37.5673V21.8187ZM36.1435 27.5469H36.6911V30.4165H42.6712V30.9203H36.1544V27.5469H36.1435ZM42.2112 24.0968V28.1712H41.6636V20.1758H42.2112V23.6039H43.7117V24.1078H42.2112V24.0968Z" fill="#231F20"/>
<path d="M46.6799 23.5492H44.577V23.0454H49.2647V23.5492H47.2275V24.1735C47.2275 26.4954 48.8266 27.9959 49.5385 28.4231L49.188 28.894C49.0018 28.7736 47.3809 27.5031 46.9537 25.674C46.5704 27.5469 44.7413 29.0145 44.4018 29.2007L43.9746 28.7626C44.2922 28.5983 46.6799 27.0102 46.6799 24.1735V23.5492ZM45.5408 21.052H48.3009V21.5777H45.5408V21.052ZM50.4147 24.9621V20.4277H50.9624V30.6793H50.4147V25.4878H48.6733V24.9621H50.4147ZM52.3752 20.1758H52.9229V31.1722H52.3752V20.1758Z" fill="#231F20"/>
<path d="M59.8669 29.9002H54.4563V21.2148H59.7574V21.6639H54.9382V25.1687H59.5931V25.6287H54.9382V29.4512H59.8669V29.9002Z" fill="#231F20"/>
<path d="M65.179 25.3213C65.6609 25.5513 66.581 26.2851 66.4824 27.6213C66.3948 28.9795 65.5186 29.8995 63.8757 29.8995H60.8418V21.2031H63.9633C65.2995 21.2031 66.0333 22.0136 66.1429 23.0541C66.2743 24.2698 65.6938 25.0803 65.179 25.3322V25.3213ZM64.0619 25.1242C65.2557 25.1242 65.7157 24.237 65.7157 23.3936C65.7157 22.5065 65.19 21.6522 64.0619 21.6522H61.3128V25.1132H64.0619V25.1242ZM64.1385 29.4504C65.2228 29.4504 66.0005 28.6399 66.0005 27.4242C66.0005 26.2961 65.1681 25.5842 64.1714 25.5842H61.3128V29.4504H64.1385Z" fill="#231F20"/>
<path d="M0 16.293H803" stroke="#231F20" stroke-width="0.306673"/>
<path d="M193.412 47.0034L206.215 61.0555L201.988 64.637L191.079 52.5454C188.691 57.1016 185.274 61.2746 180.827 65.1299L176.654 61.4936C184.244 54.8783 188.374 47.1238 189.129 38.1099V33.3893H195.044V36.4232C194.989 40.1142 194.452 43.6409 193.412 47.0034ZM218.099 78.4154H212.185V49.6648H200.794V44.5609H212.185V28.1211H218.099V78.4044V78.4154Z" fill="#595B56"/>
<path d="M244.309 59.533V55.141H223.531V50.0918H271.164V55.141H250.387V59.533H260.748V72.2818H239.917V75.2609H261.997V80.31H233.893V67.3422H254.724V64.5164H233.564V59.522H244.309V59.533ZM234.046 38.4273C234.046 35.503 235.295 33.0606 237.901 31.1C240.398 29.2052 243.542 28.2305 247.342 28.2305C251.143 28.2305 254.286 29.2052 256.893 31.1C259.445 33.0496 260.748 35.492 260.748 38.4273C260.748 41.3626 259.445 43.7941 256.893 45.6998C254.286 47.6494 251.143 48.6242 247.342 48.6242C243.542 48.6242 240.398 47.6494 237.901 45.6998C235.295 43.805 234.046 41.3626 234.046 38.4273ZM240.07 38.4273C240.07 39.895 240.716 41.0888 242.074 42.0088C243.378 42.9836 245.108 43.4765 247.331 43.4765C249.555 43.4765 251.351 42.9836 252.698 42.0088C254.002 41.0888 254.703 39.895 254.703 38.4273C254.703 36.9597 254.002 35.7659 252.698 34.7911C251.34 33.8711 249.555 33.3782 247.331 33.3782C245.108 33.3782 243.367 33.8711 242.074 34.7911C240.716 35.7659 240.07 37.0144 240.07 38.4273Z" fill="#595B56"/>
<path d="M289.115 47.0034L302.138 60.4531L297.91 64.0346L286.848 52.4249C284.461 56.9812 281.043 61.2089 276.542 65.1189L272.369 61.4827C279.959 54.8673 284.088 47.1129 284.844 38.0989V33.3783H290.758V36.4122C290.704 40.1032 290.167 43.63 289.126 46.9924L289.115 47.0034ZM313.036 78.4154H307.121V28.1211H313.036V78.4044V78.4154Z" fill="#595B56"/>
<path d="M356.222 47.7054H345.587V52.9078H366.09V58.0665H318.458V52.9078H339.563V47.7054H328.764V29.6445H334.843V42.6124H356.211V47.7163L356.222 47.7054ZM328.994 70.5415C328.994 67.5076 330.243 64.9557 332.794 63.0061C335.292 61.0566 338.49 60.0818 342.29 60.0818C346.091 60.0818 349.289 61.0566 351.896 63.0061C354.393 64.9557 355.696 67.5076 355.696 70.5415C355.696 73.5754 354.393 76.1273 351.896 78.0769C349.289 80.0264 346.091 81.0012 342.29 81.0012C338.49 81.0012 335.292 80.0264 332.794 78.0769C330.243 76.1273 328.994 73.6301 328.994 70.5415ZM335.018 70.5415C335.018 72.1734 335.664 73.4111 336.967 74.3968C338.271 75.3825 340.001 75.8645 342.279 75.8645C344.558 75.8645 346.343 75.3716 347.701 74.3968C349.004 73.422 349.65 72.1734 349.65 70.5415C349.65 68.9096 349.004 67.6719 347.701 66.6862C346.343 65.7114 344.558 65.2185 342.279 65.2185C340.001 65.2185 338.26 65.7114 336.967 66.6862C335.675 67.661 335.018 68.9643 335.018 70.5415Z" fill="#595B56"/>
<path d="M414.928 62.1943H394.096V79.4994H388.017V62.1943H367.295V57.0357H414.928V62.1943ZM394.26 32.7866C394.151 34.309 393.877 35.711 393.45 37.0691L408.86 48.7336L405.169 52.797L391.008 42.1073C388.182 46.335 383.527 50.1903 377.12 53.5527L373.319 49.4893C383.089 43.9583 388.017 38.3177 388.237 32.5676V30.0156H394.26V32.7866Z" fill="#595B56"/>
<path d="M433 43.2028L445.201 55.1959L441.028 58.7774L430.667 48.3067C428.389 52.2716 425.026 56.0064 420.689 59.5331L416.571 55.9516C424.161 49.6101 428.126 42.7647 428.564 35.4484V31.4288H434.424V34.4079C434.424 37.4417 433.985 40.377 433.011 43.1919L433 43.2028ZM456.164 79.7625H428.224V61.7565H434.139V74.6696H456.164V79.7735V79.7625ZM463.919 47.0034H455.562V65.338H449.648V28.1211H455.562V41.6256H463.919V46.9924V47.0034Z" fill="#595B56"/>
<path d="M482.308 41.8447L494.728 52.7973L490.764 56.324L480.129 46.7186C477.851 50.6834 474.433 54.4183 469.877 57.945L465.704 54.473C473.294 48.3943 477.259 41.8337 477.697 34.7803V30.8702H483.557V33.7945C483.557 36.5655 483.173 39.2161 482.308 41.8228V41.8447ZM505.473 80.8578H499.559V66.1047H476.777V61.0008H505.473V80.8578ZM500.051 59.4784V28.1211H505.966V59.4784H500.051Z" fill="#595B56"/>
<path d="M532.164 62.2483V57.5824H511.387V52.4238H559.02V57.5824H538.243V62.2483H548.659V80.0462H521.639V62.2483H532.164ZM550.718 49.9814H519.58V44.8774H525.33V43.0922C525.33 41.6793 525.22 40.5402 525.056 39.7845C524.837 39.0835 524.563 38.2621 524.136 37.3421L529.448 35.7101C530.259 36.7944 530.806 37.9335 531.025 39.1273C531.189 40.3759 531.299 41.6793 531.299 43.0374V44.8774H538.999V35.1625H520.007V30.0586H550.28V35.1625H544.913V44.8774H550.718V49.9814ZM542.69 74.9971V67.2974H527.663V74.9971H542.69Z" fill="#595B56"/>
<path d="M560.225 52.5878H578.121V42.1719H584.255V52.5878H607.858V57.7464H560.225V52.5878ZM597.924 30.2883C597.924 34.4612 597.759 38.0975 597.486 41.2409C597.157 44.439 596.785 47.2648 596.237 49.762H590.377C590.761 46.9362 591.078 44.2309 591.407 41.5147C591.681 38.908 591.845 36.8489 591.845 35.3813H569.337V30.2773H597.924V30.2883ZM570.794 70.3857C570.794 67.56 571.988 65.0737 574.485 62.9051C576.873 60.7913 580.071 59.707 584.091 59.707C588.11 59.707 591.308 60.7913 593.805 62.9051C596.248 65.0737 597.497 67.5709 597.497 70.3857C597.497 73.2005 596.248 75.7525 593.805 77.8664C591.308 80.035 588.055 81.0645 584.091 81.0645C580.126 81.0645 576.928 80.035 574.485 77.8664C571.988 75.7525 570.794 73.2553 570.794 70.3857ZM576.818 70.3857C576.818 71.8534 577.464 73.1567 578.768 74.241C580.016 75.4349 581.801 75.9715 584.08 75.9715C586.358 75.9715 588.198 75.4239 589.501 74.241C590.804 73.1567 591.451 71.8534 591.451 70.3857C591.451 68.9181 590.804 67.6695 589.501 66.4757C588.198 65.3913 586.358 64.789 584.08 64.789C581.801 64.789 580.016 65.3804 578.768 66.4757C577.464 67.6695 576.818 68.9728 576.818 70.3857Z" fill="#595B56"/>
<path d="M625.809 47.0034L638.613 61.0555L634.385 64.637L623.476 52.5454C621.088 57.1016 617.671 61.2746 613.224 65.1299L609.052 61.4936C616.642 54.8783 620.771 47.1238 621.526 38.1099V33.3893H627.441V36.4232C627.386 40.1142 626.849 43.6409 625.809 47.0034ZM657.057 52.0963H648.481V78.4044H642.566V28.1211H648.481V46.7295H657.057V52.0963Z" fill="#595B56"/>
<path d="M7.00969 183.309L6.62634 183.758C6.26491 183.506 4.28249 182.028 3.72391 179.629C3.32962 182.028 1.30339 183.714 0.843377 183.988L0.405273 183.561C1.38005 182.958 3.45009 181.316 3.45009 177.789V175.774H3.99772V177.789C3.99772 181.359 6.47301 182.948 7.00969 183.298V183.309ZM8.42257 179.103V175.105H8.9702V186.102H8.42257V179.607H5.92538V179.103H8.42257Z" fill="#231F20"/>
<path d="M19.7694 180.514H15.3007V181.905H18.4113V184.128H12.1135V185.475H18.696V185.979H11.5659V183.624H17.8636V182.398H11.5659V181.894H14.764V180.503H10.2078V179.999H19.7694V180.503V180.514ZM18.5536 177.02C18.5536 178.104 17.2612 178.98 14.994 178.98C12.7269 178.98 11.4345 178.104 11.4345 177.02C11.4345 175.936 12.7378 175.07 14.994 175.07C17.2503 175.07 18.5536 176.012 18.5536 177.02ZM17.9951 177.02C17.9951 176.155 16.7026 175.574 14.994 175.574C13.2854 175.574 11.993 176.166 11.993 177.02C11.993 177.874 13.2635 178.466 14.994 178.466C16.7246 178.466 17.9951 177.852 17.9951 177.02Z" fill="#231F20"/>
<path d="M30.9192 179.793C30.2401 179.925 28.4548 180.231 26.1 180.231H24.731V175.62H25.2786V179.727H26.3738C28.1482 179.727 30.2511 179.454 30.9301 179.289V179.793H30.9192ZM32.102 185.981H25.8043V181.984H32.102V185.981ZM26.3519 182.477V185.478H31.5654V182.477H26.3519ZM31.5654 175.105H32.113V177.581H33.6245V178.096H32.113V181.359H31.5654V175.105Z" fill="#231F20"/>
<path d="M37.5673 176.748C37.5673 179.114 39.7359 180.724 40.4917 181.151L40.1412 181.611C39.8126 181.469 37.9507 179.968 37.2935 178.139C36.6145 180.385 34.8182 181.6 34.4897 181.787L34.0625 181.381C34.8949 181.031 37.0197 179.136 37.0197 176.748V175.489H37.5673V176.748ZM36.1435 182.477H36.6911V185.346H42.6712V185.85H36.1544V182.477H36.1435ZM42.2112 179.026V183.101H41.6636V175.105H42.2112V178.534H43.7117V179.037H42.2112V179.026Z" fill="#231F20"/>
<path d="M46.6799 178.479H44.577V177.975H49.2647V178.479H47.2275V179.103C47.2275 181.425 48.8266 182.926 49.5385 183.353L49.188 183.824C49.0018 183.703 47.3809 182.433 46.9537 180.604C46.5704 182.477 44.7413 183.944 44.4018 184.13L43.9746 183.692C44.2922 183.528 46.6799 181.94 46.6799 179.103V178.479ZM45.5408 175.982H48.3009V176.507H45.5408V175.982ZM50.4147 179.892V175.357H50.9624V185.609H50.4147V180.417H48.6733V179.892H50.4147ZM52.3752 175.105H52.9229V186.102H52.3752V175.105Z" fill="#231F20"/>
<path d="M58.7935 180.251C59.2754 180.481 60.1955 181.215 60.0969 182.551C60.0093 183.909 59.1331 184.829 57.4902 184.829H54.4563V176.133H57.5778C58.914 176.133 59.6478 176.943 59.7574 177.984C59.8888 179.2 59.3083 180.01 58.7935 180.262V180.251ZM57.6873 180.054C58.8811 180.054 59.3412 179.167 59.3412 178.323C59.3412 177.436 58.8154 176.582 57.6873 176.582H54.9382V180.043H57.6873V180.054ZM57.764 184.38C58.8483 184.38 59.6259 183.57 59.6259 182.354C59.6259 181.226 58.7935 180.514 57.7968 180.514H54.9382V184.38H57.764Z" fill="#231F20"/>
<path d="M0 171.227H803" stroke="#231F20" stroke-width="0.306673"/>
<path d="M6.16633 156.683H9.04686V155.172H10.2845V162.707H9.04686V160.561H6.23204C5.69537 161.294 4.85202 161.743 3.83343 161.743C2.07006 161.743 0.799561 160.352 0.799561 158.655C0.799561 156.957 2.07006 155.577 3.83343 155.577C4.81916 155.577 5.65156 156.004 6.16633 156.672V156.683ZM5.57489 158.655C5.57489 157.636 4.95059 156.793 3.83343 156.793C2.71626 156.793 2.08101 157.636 2.08101 158.655C2.08101 159.673 2.71626 160.528 3.83343 160.528C4.95059 160.528 5.57489 159.684 5.57489 158.655ZM10.394 165.456C10.394 166.924 9.00305 167.91 6.27585 167.91C3.54866 167.91 2.15768 166.869 2.15768 165.391C2.15768 163.912 3.55961 162.85 6.27585 162.85C8.9921 162.85 10.394 163.978 10.394 165.456ZM9.06876 165.456C9.06876 164.602 7.97351 164.043 6.27585 164.043C4.5782 164.043 3.47199 164.525 3.47199 165.391C3.47199 166.256 4.56725 166.782 6.27585 166.782C7.98446 166.782 9.06876 166.311 9.06876 165.467V165.456ZM6.77967 159.334H9.04686V157.877H6.75777C6.81253 158.118 6.84539 158.381 6.84539 158.655C6.84539 158.885 6.82348 159.115 6.76872 159.345L6.77967 159.334Z" fill="#231F20"/>
<path d="M22.6062 162.643H17.9514V165.304H16.6918V162.643H11.6755V161.46H22.6062V162.643ZM21.1933 160.178H13.0884V155.578H21.1933V160.178ZM21.5 167.451H13.0884V163.99H14.3589V166.246H21.5V167.451ZM19.9557 158.984V156.783H14.3261V158.984H19.9557Z" fill="#231F20"/>
<path d="M34.0298 166.275H23.0991V165.07H27.9073V163.11H24.6215V159.013H31.1602V157.283H24.5887V156.078H32.3869V160.207H25.8592V161.905H32.7045V163.11H29.2107V165.07H34.0298V166.275Z" fill="#231F20"/>
<path d="M45.4534 166.072H34.5227V164.867H38.3342V160.519H39.6047V164.867H45.4534V166.072ZM44.1391 156.598C44.1062 157.638 43.7776 161.351 43.3176 163.355H42.08C42.1128 163.169 42.7043 159.708 42.781 157.813H35.7165V156.598H44.15H44.1391Z" fill="#231F20"/>
<path d="M190.411 198.004C190.411 199.505 189.874 200.611 188.834 201.312C187.76 202.035 186.358 202.407 184.606 202.407C183.927 202.407 183.237 202.341 182.558 202.188C181.857 202.057 181.254 201.936 180.783 201.783V199.757C181.189 199.976 181.725 200.162 182.361 200.337C182.7 200.447 183.105 200.523 183.554 200.611C183.982 200.72 184.387 200.764 184.792 200.764C185.241 200.764 185.668 200.72 186.095 200.611C186.501 200.523 186.862 200.403 187.18 200.206C187.454 200.03 187.738 199.778 188.012 199.439C188.264 199.143 188.396 198.738 188.396 198.267C188.396 197.796 188.264 197.413 188.056 197.073C187.826 196.777 187.563 196.515 187.289 196.306C186.665 195.836 186.052 195.452 185.405 195.113C184.934 194.905 184.42 194.642 183.872 194.346C183.292 194.094 182.766 193.765 182.295 193.404C181.78 193.021 181.375 192.594 181.079 192.123C180.783 191.652 180.63 191.115 180.63 190.524C180.63 189.133 181.101 188.114 182.043 187.468C182.963 186.832 184.157 186.504 185.614 186.504C185.975 186.504 186.358 186.548 186.785 186.592C187.169 186.657 187.53 186.723 187.848 186.778C188.472 186.909 188.998 187.052 189.425 187.205V189.045C189.129 188.87 188.571 188.662 187.782 188.421C186.972 188.202 186.183 188.081 185.416 188.081C184.65 188.081 183.96 188.267 183.434 188.662C182.875 189.067 182.624 189.647 182.624 190.37C182.624 190.688 182.711 190.973 182.875 191.181C183.029 191.411 183.215 191.63 183.434 191.838C183.664 192.057 183.949 192.243 184.266 192.44C184.562 192.659 184.891 192.824 185.186 192.955C186.293 193.492 187.125 193.919 187.727 194.215C188.286 194.532 188.757 194.85 189.118 195.2C189.458 195.496 189.754 195.879 190.017 196.306C190.247 196.777 190.378 197.336 190.422 198.015L190.411 198.004Z" fill="#595B56"/>
<path d="M201.714 202.169H192.744V186.77H201.506V188.434H194.737V193.286H201.232V194.951H194.737V200.504H201.725V202.169H201.714Z" fill="#595B56"/>
<path d="M217.726 194.476C217.726 195.571 217.551 196.612 217.234 197.597C216.894 198.605 216.401 199.481 215.755 200.204C215.109 200.927 214.364 201.486 213.466 201.847C212.568 202.23 211.648 202.406 210.706 202.406C209.764 202.406 208.844 202.23 207.946 201.847C207.048 201.486 206.281 200.927 205.657 200.204C205 199.481 204.507 198.605 204.2 197.597C203.882 196.612 203.729 195.571 203.729 194.476C203.729 193.381 203.882 192.318 204.2 191.311C204.496 190.325 204.989 189.449 205.657 188.704C206.281 187.981 207.048 187.422 207.946 187.039C208.844 186.678 209.764 186.48 210.706 186.48C211.648 186.48 212.568 186.678 213.466 187.039C214.364 187.422 215.109 187.981 215.755 188.704C216.39 189.449 216.883 190.325 217.234 191.311C217.551 192.318 217.726 193.359 217.726 194.476ZM215.744 194.476C215.744 193.6 215.613 192.745 215.361 191.913C215.109 191.102 214.736 190.412 214.309 189.843C213.86 189.284 213.323 188.835 212.71 188.518C212.075 188.222 211.407 188.069 210.728 188.069C210.049 188.069 209.402 188.222 208.789 188.518C208.143 188.835 207.595 189.284 207.146 189.843C206.697 190.423 206.358 191.102 206.139 191.913C205.887 192.745 205.777 193.6 205.777 194.476C205.777 195.352 205.887 196.184 206.139 196.973C206.358 197.784 206.697 198.485 207.146 199.065C207.595 199.645 208.132 200.073 208.767 200.368C209.391 200.664 210.049 200.817 210.728 200.817C211.407 200.817 212.075 200.664 212.71 200.368C213.334 200.073 213.86 199.645 214.309 199.065C214.736 198.485 215.098 197.784 215.361 196.973C215.613 196.184 215.744 195.352 215.744 194.476Z" fill="#595B56"/>
<path d="M225.864 200.745C226.499 200.789 227.08 200.679 227.595 200.406C228.066 200.154 228.449 199.825 228.701 199.42C228.953 198.971 229.172 198.478 229.303 197.941C229.435 197.426 229.5 196.89 229.5 196.32V186.77H231.461V196.397C231.461 197.032 231.395 197.7 231.264 198.401C231.11 199.124 230.837 199.792 230.431 200.351C230.004 200.975 229.424 201.457 228.701 201.818C227.956 202.202 227.014 202.399 225.864 202.399C224.714 202.399 223.772 202.202 223.049 201.818C222.283 201.457 221.702 200.964 221.319 200.362C220.892 199.781 220.618 199.124 220.486 198.401C220.355 197.7 220.289 197.032 220.289 196.397V186.77H222.272V196.32C222.272 196.901 222.316 197.426 222.447 197.941C222.556 198.478 222.743 198.971 223.006 199.42C223.257 199.803 223.63 200.121 224.112 200.362C224.583 200.614 225.185 200.745 225.864 200.745Z" fill="#595B56"/>
<path d="M243.651 202.169H234.659V186.77H236.642V200.504H243.651V202.169Z" fill="#595B56"/>
<path d="M253.531 202.169H251.439L256.904 186.77H259.018L264.527 202.169H262.413L260.814 197.426H255.152L253.531 202.169ZM260.234 195.74L258.01 189.135L255.743 195.74H260.234Z" fill="#595B56"/>
<path d="M277.834 191.128H275.742C275.742 190.569 275.633 190.098 275.447 189.737C275.228 189.397 274.998 189.101 274.702 188.86C274.406 188.63 274.078 188.455 273.694 188.324C273.289 188.214 272.884 188.148 272.5 188.105C271.821 188.105 271.197 188.236 270.617 188.466C270.014 188.718 269.489 189.123 269.039 189.66C268.569 190.175 268.207 190.854 267.966 191.686C267.714 192.54 267.583 193.373 267.583 194.205C267.583 194.742 267.648 195.377 267.791 196.122C267.922 196.889 268.196 197.622 268.579 198.323C268.963 199.002 269.521 199.561 270.244 200.032C270.945 200.525 271.865 200.755 273.004 200.755C273.607 200.755 274.198 200.689 274.757 200.558C275.315 200.426 275.633 200.35 275.721 200.306V195.541H271.986V193.855H277.692V201.27C276.882 201.675 276.115 201.949 275.337 202.124C274.549 202.299 273.629 202.376 272.555 202.376C271.318 202.376 270.266 202.146 269.39 201.653C268.492 201.182 267.769 200.558 267.167 199.769C266.542 198.981 266.115 198.104 265.885 197.119C265.633 196.177 265.524 195.202 265.524 194.194C265.524 193.187 265.655 192.212 265.929 191.27C266.181 190.372 266.608 189.561 267.21 188.838C267.791 188.159 268.514 187.579 269.412 187.13C270.266 186.703 271.296 186.473 272.468 186.473C273.191 186.473 273.881 186.582 274.516 186.79C275.14 187.02 275.688 187.327 276.202 187.71C276.673 188.116 277.079 188.587 277.374 189.145C277.67 189.704 277.823 190.361 277.823 191.106L277.834 191.128Z" fill="#595B56"/>
<path d="M290.966 191.216C290.966 191.917 290.769 192.563 290.43 193.122C290.068 193.703 289.619 194.152 289.083 194.447C288.787 194.623 288.338 194.787 287.779 194.962C288.853 195.543 289.597 196.353 290.024 197.415C290.583 198.806 291.01 200.384 291.35 202.18H289.258C288.831 199.683 288.294 197.996 287.659 197.142C286.914 196.178 286.082 195.685 285.14 195.685H283.628V193.954H285.129C285.643 193.954 286.114 193.911 286.564 193.801C286.991 193.713 287.396 193.571 287.735 193.352C288.075 193.155 288.371 192.859 288.634 192.476C288.864 192.114 288.995 191.687 288.995 191.216C288.995 190.702 288.864 190.252 288.634 189.891C288.382 189.551 288.053 189.267 287.714 189.059C287.352 188.861 286.947 188.719 286.52 188.588C286.071 188.478 285.622 188.412 285.173 188.412H282.84V202.169H280.857V186.77H285.173C285.895 186.77 286.607 186.857 287.286 187C287.943 187.175 288.546 187.405 289.083 187.744C289.619 188.106 290.068 188.555 290.452 189.091C290.791 189.65 290.988 190.351 290.988 191.205L290.966 191.216Z" fill="#595B56"/>
<path d="M306.826 194.476C306.826 195.571 306.651 196.612 306.333 197.597C305.993 198.605 305.501 199.481 304.854 200.204C304.208 200.927 303.463 201.486 302.565 201.847C301.667 202.23 300.747 202.406 299.805 202.406C298.863 202.406 297.943 202.23 297.045 201.847C296.147 201.486 295.38 200.927 294.756 200.204C294.099 199.481 293.606 198.605 293.299 197.597C292.982 196.612 292.828 195.571 292.828 194.476C292.828 193.381 292.982 192.318 293.299 191.311C293.595 190.325 294.088 189.449 294.756 188.704C295.38 187.981 296.147 187.422 297.045 187.039C297.943 186.678 298.863 186.48 299.805 186.48C300.747 186.48 301.667 186.678 302.565 187.039C303.463 187.422 304.208 187.981 304.854 188.704C305.49 189.449 305.982 190.325 306.333 191.311C306.651 192.318 306.826 193.359 306.826 194.476ZM304.843 194.476C304.843 193.6 304.712 192.745 304.46 191.913C304.208 191.102 303.836 190.412 303.409 189.843C302.96 189.284 302.423 188.835 301.81 188.518C301.174 188.222 300.506 188.069 299.827 188.069C299.148 188.069 298.502 188.222 297.888 188.518C297.253 188.835 296.695 189.284 296.246 189.843C295.797 190.423 295.457 191.102 295.238 191.913C294.986 192.745 294.877 193.6 294.877 194.476C294.877 195.352 294.986 196.184 295.238 196.973C295.457 197.784 295.797 198.485 296.246 199.065C296.695 199.645 297.231 200.073 297.867 200.368C298.491 200.664 299.148 200.817 299.827 200.817C300.506 200.817 301.174 200.664 301.81 200.368C302.434 200.073 302.96 199.645 303.409 199.065C303.836 198.485 304.197 197.784 304.46 196.973C304.712 196.184 304.843 195.352 304.843 194.476Z" fill="#595B56"/>
<path d="M315.927 195.397H308.775V193.645H315.927V195.397Z" fill="#595B56"/>
<path d="M327.285 188.434H320.517V193.286H327.055V194.951H320.517V202.169H318.534V186.77H327.296V188.434H327.285Z" fill="#595B56"/>
<path d="M331.743 202.169H329.761V186.77H331.743V202.169Z" fill="#595B56"/>
<path d="M344.065 198.004C344.065 199.505 343.528 200.611 342.488 201.312C341.414 202.035 340.012 202.407 338.26 202.407C337.581 202.407 336.891 202.341 336.212 202.188C335.511 202.057 334.908 201.936 334.438 201.783V199.757C334.843 199.976 335.379 200.162 336.015 200.337C336.354 200.447 336.759 200.523 337.209 200.611C337.636 200.72 338.041 200.764 338.446 200.764C338.895 200.764 339.322 200.72 339.75 200.611C340.155 200.523 340.516 200.403 340.834 200.206C341.108 200.03 341.392 199.778 341.666 199.439C341.918 199.143 342.05 198.738 342.05 198.267C342.05 197.796 341.918 197.413 341.71 197.073C341.48 196.777 341.217 196.515 340.943 196.306C340.319 195.836 339.706 195.452 339.06 195.113C338.589 194.905 338.074 194.642 337.526 194.346C336.946 194.094 336.42 193.765 335.949 193.404C335.434 193.021 335.029 192.594 334.733 192.123C334.438 191.652 334.284 191.115 334.284 190.524C334.284 189.133 334.755 188.114 335.697 187.468C336.617 186.832 337.811 186.504 339.268 186.504C339.629 186.504 340.012 186.548 340.44 186.592C340.823 186.657 341.184 186.723 341.502 186.778C342.126 186.909 342.652 187.052 343.079 187.205V189.045C342.783 188.87 342.225 188.662 341.436 188.421C340.626 188.202 339.837 188.081 339.07 188.081C338.304 188.081 337.614 188.267 337.088 188.662C336.529 189.067 336.278 189.647 336.278 190.37C336.278 190.688 336.365 190.973 336.529 191.181C336.683 191.411 336.869 191.63 337.088 191.838C337.318 192.057 337.603 192.243 337.92 192.44C338.216 192.659 338.545 192.824 338.84 192.955C339.947 193.492 340.779 193.919 341.381 194.215C341.94 194.532 342.411 194.85 342.772 195.2C343.112 195.496 343.408 195.879 343.671 196.306C343.901 196.777 344.032 197.336 344.076 198.015L344.065 198.004Z" fill="#595B56"/>
<path d="M357.284 202.169H355.302V194.995H348.38V202.169H346.397V186.77H348.38V193.33H355.302V186.77H357.284V202.169Z" fill="#595B56"/>
<path d="M369.464 202.169H360.493V186.77H369.255V188.434H362.487V193.286H368.982V194.951H362.487V200.504H369.475V202.169H369.464Z" fill="#595B56"/>
<path d="M382.289 191.216C382.289 191.917 382.092 192.563 381.752 193.122C381.391 193.703 380.942 194.152 380.405 194.447C380.11 194.623 379.661 194.787 379.102 194.962C380.175 195.543 380.92 196.353 381.347 197.415C381.906 198.806 382.333 200.384 382.673 202.18H380.581C380.153 199.683 379.617 197.996 378.981 197.142C378.237 196.178 377.404 195.685 376.462 195.685H374.951V193.954H376.451C376.966 193.954 377.437 193.911 377.886 193.801C378.313 193.713 378.719 193.571 379.058 193.352C379.398 193.155 379.693 192.859 379.956 192.476C380.186 192.114 380.318 191.687 380.318 191.216C380.318 190.702 380.186 190.252 379.956 189.891C379.704 189.551 379.376 189.267 379.036 189.059C378.675 188.861 378.27 188.719 377.842 188.588C377.393 188.478 376.944 188.412 376.495 188.412H374.162V202.169H372.18V186.77H376.495C377.218 186.77 377.93 186.857 378.609 187C379.266 187.175 379.869 187.405 380.405 187.744C380.942 188.106 381.391 188.555 381.774 189.091C382.114 189.65 382.311 190.351 382.311 191.205L382.289 191.216Z" fill="#595B56"/>
<path d="M386.944 202.169H384.962V186.77H386.944V202.169Z" fill="#595B56"/>
<path d="M399.2 202.169H390.23V186.77H398.992V188.434H392.223V193.286H398.718V194.951H392.223V200.504H399.211V202.169H399.2Z" fill="#595B56"/>
<path d="M410.952 198.004C410.952 199.505 410.415 200.611 409.375 201.312C408.312 202.035 406.9 202.407 405.147 202.407C404.468 202.407 403.778 202.341 403.099 202.188C402.398 202.057 401.796 201.936 401.325 201.783V199.757C401.73 199.976 402.267 200.162 402.902 200.337C403.241 200.447 403.647 200.523 404.096 200.611C404.523 200.72 404.928 200.764 405.333 200.764C405.782 200.764 406.21 200.72 406.637 200.611C407.042 200.523 407.403 200.403 407.721 200.206C407.995 200.03 408.28 199.778 408.553 199.439C408.805 199.143 408.937 198.738 408.937 198.267C408.937 197.796 408.805 197.413 408.597 197.073C408.367 196.777 408.104 196.515 407.831 196.306C407.206 195.836 406.593 195.452 405.947 195.113C405.476 194.905 404.961 194.642 404.413 194.346C403.833 194.094 403.307 193.765 402.836 193.404C402.321 193.021 401.916 192.594 401.62 192.123C401.325 191.652 401.171 191.115 401.171 190.524C401.171 189.133 401.642 188.114 402.584 187.468C403.504 186.832 404.698 186.504 406.155 186.504C406.516 186.504 406.9 186.548 407.327 186.592C407.71 186.657 408.072 186.723 408.389 186.778C409.013 186.909 409.539 187.052 409.966 187.205V189.045C409.671 188.87 409.112 188.662 408.323 188.421C407.513 188.202 406.724 188.081 405.947 188.081C405.169 188.081 404.49 188.267 403.964 188.662C403.406 189.067 403.154 189.647 403.154 190.37C403.154 190.688 403.241 190.973 403.406 191.181C403.559 191.411 403.745 191.63 403.964 191.838C404.194 192.057 404.479 192.243 404.797 192.44C405.092 192.659 405.421 192.824 405.717 192.955C406.823 193.492 407.666 193.919 408.258 194.215C408.816 194.532 409.287 194.85 409.649 195.2C409.988 195.496 410.284 195.879 410.547 196.306C410.777 196.777 410.908 197.336 410.952 198.015V198.004Z" fill="#595B56"/>
<path d="M430.546 200.051C429.911 200.609 429.221 201.113 428.454 201.562C427.469 202.165 426.384 202.46 425.223 202.46C424.303 202.46 423.427 202.263 422.573 201.836C421.718 201.453 421.061 200.828 420.634 199.974C420.273 199.251 420.163 198.441 420.338 197.543C420.47 196.688 420.875 195.944 421.532 195.297C422.233 194.618 422.879 194.103 423.449 193.742C424.008 193.403 424.369 193.14 424.577 193.019C423.975 192.362 423.526 191.782 423.252 191.267C422.956 190.774 422.781 190.303 422.737 189.832C422.693 189.383 422.759 188.956 422.934 188.529C423.109 188.145 423.339 187.806 423.635 187.499C423.975 187.203 424.402 186.94 424.895 186.754C425.366 186.579 425.859 186.48 426.406 186.48C426.833 186.48 427.282 186.546 427.753 186.656C428.202 186.787 428.608 186.951 428.991 187.192C429.352 187.444 429.648 187.773 429.911 188.156C430.119 188.561 430.251 189.011 430.294 189.525C430.294 190.018 430.097 190.533 429.758 191.037C429.396 191.595 428.947 192.066 428.389 192.493C427.961 192.833 427.556 193.129 427.151 193.392L430.722 197.51C431.28 196.907 431.872 196.25 432.518 195.527L433.909 196.699C433.208 197.444 432.518 198.156 431.839 198.813L434.785 202.208H432.375L430.535 200.051H430.546ZM425.683 194.312C424.785 194.87 423.931 195.527 423.12 196.261C422.759 196.623 422.496 197.094 422.376 197.674C422.2 198.276 422.266 198.824 422.551 199.383C422.726 199.81 423.066 200.193 423.602 200.489C424.117 200.828 424.654 200.982 425.245 200.982C425.913 200.982 426.658 200.752 427.512 200.259C428.191 199.875 428.86 199.405 429.495 198.802L425.694 194.312H425.683ZM428.378 189.394C428.378 188.989 428.18 188.627 427.819 188.288C427.436 187.97 426.987 187.795 426.45 187.795C425.957 187.795 425.552 187.97 425.256 188.31C424.917 188.671 424.763 189.076 424.763 189.525C424.763 189.996 424.917 190.467 425.256 190.938C425.574 191.453 425.859 191.836 426.089 192.088C426.286 192.001 426.603 191.792 427.031 191.431C427.304 191.212 427.611 190.938 427.929 190.555C428.224 190.215 428.378 189.832 428.378 189.405V189.394Z" fill="#595B56"/>
<path d="M452.714 188.434H445.946V193.286H452.484V194.951H445.946V202.169H443.963V186.77H452.725V188.434H452.714Z" fill="#595B56"/>
<path d="M468.387 194.476C468.387 195.571 468.212 196.612 467.894 197.597C467.555 198.605 467.062 199.481 466.416 200.204C465.77 200.927 465.025 201.486 464.127 201.847C463.229 202.23 462.309 202.406 461.367 202.406C460.425 202.406 459.505 202.23 458.618 201.847C457.72 201.486 456.953 200.927 456.329 200.204C455.671 199.481 455.179 198.605 454.872 197.597C454.554 196.612 454.401 195.571 454.401 194.476C454.401 193.381 454.554 192.318 454.872 191.311C455.168 190.325 455.66 189.449 456.329 188.704C456.953 187.981 457.72 187.422 458.618 187.039C459.516 186.678 460.436 186.48 461.367 186.48C462.298 186.48 463.229 186.678 464.127 187.039C465.025 187.422 465.77 187.981 466.416 188.704C467.051 189.449 467.544 190.325 467.894 191.311C468.212 192.318 468.387 193.359 468.387 194.476ZM466.405 194.476C466.405 193.6 466.273 192.745 466.022 191.913C465.77 191.102 465.397 190.412 464.97 189.843C464.521 189.284 463.984 188.835 463.371 188.518C462.736 188.222 462.068 188.069 461.389 188.069C460.71 188.069 460.063 188.222 459.45 188.518C458.815 188.835 458.256 189.284 457.807 189.843C457.358 190.423 457.019 191.102 456.799 191.913C456.548 192.745 456.438 193.6 456.438 194.476C456.438 195.352 456.548 196.184 456.799 196.973C457.019 197.784 457.358 198.485 457.807 199.065C458.256 199.645 458.793 200.073 459.428 200.368C460.052 200.664 460.71 200.817 461.389 200.817C462.068 200.817 462.736 200.664 463.371 200.368C463.995 200.073 464.521 199.645 464.97 199.065C465.397 198.485 465.759 197.784 466.022 196.973C466.273 196.184 466.405 195.352 466.405 194.476Z" fill="#595B56"/>
<path d="M484.258 194.476C484.258 195.571 484.083 196.612 483.765 197.597C483.426 198.605 482.933 199.481 482.286 200.204C481.64 200.927 480.895 201.486 479.997 201.847C479.099 202.23 478.179 202.406 477.237 202.406C476.295 202.406 475.375 202.23 474.477 201.847C473.579 201.486 472.812 200.927 472.188 200.204C471.531 199.481 471.038 198.605 470.731 197.597C470.414 196.612 470.26 195.571 470.26 194.476C470.26 193.381 470.414 192.318 470.731 191.311C471.027 190.325 471.52 189.449 472.188 188.704C472.812 187.981 473.579 187.422 474.477 187.039C475.375 186.678 476.295 186.48 477.237 186.48C478.179 186.48 479.099 186.678 479.997 187.039C480.895 187.422 481.64 187.981 482.286 188.704C482.922 189.449 483.415 190.325 483.765 191.311C484.083 192.318 484.258 193.359 484.258 194.476ZM482.265 194.476C482.265 193.6 482.133 192.745 481.881 191.913C481.629 191.102 481.257 190.412 480.83 189.843C480.381 189.284 479.844 188.835 479.231 188.518C478.584 188.222 477.927 188.069 477.248 188.069C476.569 188.069 475.923 188.222 475.31 188.518C474.674 188.835 474.116 189.284 473.667 189.843C473.218 190.423 472.878 191.102 472.659 191.913C472.407 192.745 472.298 193.6 472.298 194.476C472.298 195.352 472.407 196.184 472.659 196.973C472.878 197.784 473.218 198.485 473.667 199.065C474.116 199.645 474.653 200.073 475.288 200.368C475.912 200.664 476.569 200.817 477.248 200.817C477.927 200.817 478.595 200.664 479.231 200.368C479.855 200.073 480.381 199.645 480.83 199.065C481.257 198.485 481.618 197.784 481.881 196.973C482.133 196.184 482.265 195.352 482.265 194.476Z" fill="#595B56"/>
<path d="M486.81 186.77H490.402C490.873 186.77 491.388 186.791 491.935 186.835C492.472 186.901 492.943 186.967 493.348 187.054C494.005 187.208 494.63 187.481 495.21 187.887C495.769 188.314 496.305 188.829 496.787 189.398C497.215 190.001 497.576 190.702 497.872 191.534C498.146 192.388 498.299 193.396 498.299 194.502C498.299 195.608 498.146 196.528 497.872 197.383C497.576 198.259 497.215 198.982 496.787 199.562C496.294 200.165 495.758 200.646 495.21 201.063C494.63 201.49 494.016 201.786 493.348 201.917C492.943 202.005 492.472 202.07 491.935 202.114C491.377 202.158 490.873 202.18 490.402 202.18H486.81V186.78V186.77ZM488.781 188.434V200.504H490.446C490.763 200.504 491.169 200.504 491.662 200.46C492.133 200.438 492.494 200.373 492.768 200.285C493.151 200.197 493.534 200.011 493.962 199.748C494.345 199.496 494.728 199.124 495.09 198.62C495.407 198.149 495.692 197.591 495.944 196.912C496.174 196.254 496.305 195.433 496.305 194.502C496.305 193.571 496.174 192.706 495.944 192.027C495.692 191.392 495.407 190.811 495.09 190.34C494.728 189.847 494.345 189.464 493.962 189.212C493.534 188.96 493.151 188.785 492.768 188.675C492.494 188.588 492.133 188.522 491.662 188.478C491.169 188.456 490.763 188.434 490.446 188.434H488.781Z" fill="#595B56"/>
<path d="M519.492 191.127H517.4C517.4 190.568 517.291 190.097 517.105 189.736C516.897 189.396 516.656 189.101 516.36 188.86C516.064 188.63 515.736 188.454 515.352 188.323C514.947 188.213 514.542 188.148 514.158 188.104C513.479 188.104 512.855 188.235 512.275 188.465C511.672 188.717 511.168 189.122 510.697 189.659C510.226 190.174 509.865 190.853 509.624 191.685C509.372 192.54 509.241 193.394 509.241 194.226C509.241 194.763 509.306 195.398 509.449 196.143C509.58 196.91 509.832 197.654 510.237 198.366C510.643 199.045 511.201 199.626 511.924 200.075C512.603 200.546 513.523 200.776 514.662 200.776C515.495 200.776 516.283 200.645 517.006 200.393C517.707 200.141 518.353 199.834 518.912 199.473V201.433C518.715 201.521 518.507 201.63 518.277 201.729C518.025 201.86 517.718 201.959 517.378 202.046C516.437 202.276 515.374 202.386 514.213 202.386C512.976 202.386 511.924 202.156 511.07 201.685C510.172 201.236 509.427 200.612 508.825 199.801C508.189 199.013 507.762 198.136 507.543 197.151C507.291 196.187 507.182 195.212 507.182 194.204C507.182 193.197 507.313 192.222 507.587 191.28C507.839 190.36 508.266 189.55 508.868 188.827C509.449 188.148 510.172 187.567 511.07 187.118C511.924 186.691 512.954 186.461 514.126 186.461C514.848 186.461 515.538 186.57 516.174 186.779C516.798 187.009 517.346 187.315 517.86 187.699C518.331 188.104 518.737 188.575 519.032 189.133C519.328 189.692 519.481 190.349 519.481 191.094L519.492 191.127Z" fill="#595B56"/>
<path d="M535.176 194.476C535.176 195.571 535.001 196.612 534.684 197.597C534.344 198.605 533.851 199.481 533.205 200.204C532.559 200.927 531.814 201.486 530.916 201.847C530.018 202.23 529.098 202.406 528.156 202.406C527.214 202.406 526.294 202.23 525.407 201.847C524.509 201.486 523.742 200.927 523.118 200.204C522.46 199.481 521.968 198.605 521.661 197.597C521.343 196.612 521.19 195.571 521.19 194.476C521.19 193.381 521.343 192.318 521.661 191.311C521.957 190.325 522.449 189.449 523.118 188.704C523.742 187.981 524.509 187.422 525.407 187.039C526.305 186.678 527.225 186.48 528.156 186.48C529.087 186.48 530.018 186.678 530.916 187.039C531.814 187.422 532.559 187.981 533.205 188.704C533.84 189.449 534.333 190.325 534.684 191.311C535.001 192.318 535.176 193.359 535.176 194.476ZM533.194 194.476C533.194 193.6 533.063 192.745 532.811 191.913C532.559 191.102 532.186 190.412 531.759 189.843C531.31 189.284 530.773 188.835 530.16 188.518C529.525 188.222 528.857 188.069 528.178 188.069C527.499 188.069 526.852 188.222 526.239 188.518C525.604 188.835 525.045 189.284 524.596 189.843C524.147 190.423 523.808 191.102 523.589 191.913C523.337 192.745 523.227 193.6 523.227 194.476C523.227 195.352 523.337 196.184 523.589 196.973C523.808 197.784 524.147 198.485 524.596 199.065C525.045 199.645 525.582 200.073 526.217 200.368C526.842 200.664 527.499 200.817 528.178 200.817C528.857 200.817 529.525 200.664 530.16 200.368C530.784 200.073 531.31 199.645 531.759 199.065C532.186 198.485 532.548 197.784 532.811 196.973C533.063 196.184 533.194 195.352 533.194 194.476Z" fill="#595B56"/>
<path d="M547.859 191.216C547.859 191.917 547.662 192.563 547.323 193.122C546.961 193.703 546.512 194.152 545.976 194.447C545.68 194.623 545.231 194.787 544.672 194.962C545.735 195.543 546.49 196.353 546.918 197.415C547.476 198.806 547.903 200.384 548.243 202.18H546.151C545.724 199.683 545.187 197.996 544.552 197.142C543.807 196.178 542.975 195.685 542.033 195.685H540.521V193.954H542.011C542.526 193.954 542.997 193.911 543.446 193.801C543.873 193.713 544.278 193.571 544.618 193.352C544.957 193.155 545.253 192.859 545.516 192.476C545.746 192.114 545.877 191.687 545.877 191.216C545.877 190.702 545.746 190.252 545.516 189.891C545.264 189.551 544.935 189.267 544.596 189.059C544.234 188.861 543.829 188.719 543.402 188.588C542.953 188.478 542.504 188.412 542.055 188.412H539.733V202.169H537.75V186.77H542.066C542.788 186.77 543.5 186.857 544.179 187C544.837 187.175 545.439 187.405 545.976 187.744C546.512 188.106 546.961 188.555 547.345 189.091C547.684 189.65 547.881 190.351 547.881 191.205L547.859 191.216Z" fill="#595B56"/>
<path d="M560.543 191.348C560.543 192.136 560.345 192.848 560.006 193.44C559.644 194.075 559.195 194.568 558.659 194.918C558.122 195.302 557.531 195.554 556.862 195.685C556.183 195.838 555.45 195.904 554.727 195.904H553.314V194.173H554.683C555.198 194.173 555.669 194.13 556.14 194.042C556.567 193.954 556.95 193.812 557.29 193.571C557.629 193.352 557.925 193.056 558.188 192.651C558.418 192.268 558.549 191.841 558.549 191.348C558.549 190.745 558.418 190.252 558.188 189.891C557.936 189.551 557.607 189.289 557.268 189.081C556.906 188.861 556.501 188.719 556.074 188.588C555.625 188.478 555.176 188.412 554.727 188.412H552.405V202.169H550.422V186.77H554.738C555.461 186.77 556.172 186.857 556.83 187C557.465 187.175 558.089 187.405 558.648 187.744C559.206 188.084 559.655 188.555 560.017 189.157C560.356 189.76 560.554 190.482 560.554 191.337L560.543 191.348Z" fill="#595B56"/>
<path d="M576.183 194.476C576.183 195.571 576.008 196.612 575.69 197.597C575.35 198.605 574.858 199.481 574.211 200.204C573.565 200.927 572.82 201.486 571.922 201.847C571.024 202.23 570.104 202.406 569.162 202.406C568.22 202.406 567.3 202.23 566.413 201.847C565.515 201.486 564.748 200.927 564.124 200.204C563.467 199.481 562.974 198.605 562.667 197.597C562.35 196.612 562.196 195.571 562.196 194.476C562.196 193.381 562.35 192.318 562.667 191.311C562.963 190.325 563.456 189.449 564.124 188.704C564.748 187.981 565.515 187.422 566.413 187.039C567.311 186.678 568.231 186.48 569.162 186.48C570.093 186.48 571.024 186.678 571.922 187.039C572.82 187.422 573.565 187.981 574.211 188.704C574.847 189.449 575.339 190.325 575.69 191.311C576.008 192.318 576.183 193.359 576.183 194.476ZM574.189 194.476C574.189 193.6 574.058 192.745 573.806 191.913C573.554 191.102 573.182 190.412 572.755 189.843C572.306 189.284 571.769 188.835 571.155 188.518C570.52 188.222 569.852 188.069 569.173 188.069C568.494 188.069 567.848 188.222 567.235 188.518C566.599 188.835 566.041 189.284 565.592 189.843C565.143 190.423 564.803 191.102 564.584 191.913C564.332 192.745 564.223 193.6 564.223 194.476C564.223 195.352 564.332 196.184 564.584 196.973C564.803 197.784 565.143 198.485 565.592 199.065C566.041 199.645 566.577 200.073 567.213 200.368C567.837 200.664 568.494 200.817 569.173 200.817C569.852 200.817 570.52 200.664 571.155 200.368C571.78 200.073 572.306 199.645 572.755 199.065C573.182 198.485 573.543 197.784 573.806 196.973C574.058 196.184 574.189 195.352 574.189 194.476Z" fill="#595B56"/>
<path d="M588.866 191.216C588.866 191.917 588.669 192.563 588.329 193.122C587.968 193.703 587.519 194.152 586.982 194.447C586.687 194.623 586.237 194.787 585.679 194.962C586.741 195.543 587.497 196.353 587.924 197.415C588.483 198.806 588.91 200.384 589.249 202.18H587.158C586.73 199.683 586.194 197.996 585.558 197.142C584.814 196.178 583.981 195.685 583.039 195.685H581.528V193.954H583.017C583.532 193.954 584.003 193.911 584.452 193.801C584.879 193.713 585.285 193.571 585.624 193.352C585.964 193.155 586.259 192.859 586.522 192.476C586.752 192.114 586.884 191.687 586.884 191.216C586.884 190.702 586.752 190.252 586.522 189.891C586.27 189.551 585.942 189.267 585.602 189.059C585.241 188.861 584.836 188.719 584.408 188.588C583.959 188.478 583.51 188.412 583.061 188.412H580.739V202.169H578.757V186.77H583.072C583.795 186.77 584.507 186.857 585.186 187C585.843 187.175 586.446 187.405 586.982 187.744C587.519 188.106 587.968 188.555 588.351 189.091C588.691 189.65 588.888 190.351 588.888 191.205L588.866 191.216Z" fill="#595B56"/>
<path d="M592.294 202.169H590.202L595.667 186.77H597.781L603.291 202.169H601.177L599.578 197.426H593.915L592.294 202.169ZM599.008 195.74L596.785 189.135L594.517 195.74H599.008Z" fill="#595B56"/>
<path d="M614.287 188.434H609.413V202.169H607.431V188.434H602.557V186.77H614.287V188.434Z" fill="#595B56"/>
<path d="M618.537 202.169H616.554V186.77H618.537V202.169Z" fill="#595B56"/>
<path d="M635.13 194.476C635.13 195.571 634.955 196.612 634.637 197.597C634.297 198.605 633.805 199.481 633.158 200.204C632.512 200.927 631.767 201.486 630.869 201.847C629.971 202.23 629.051 202.406 628.109 202.406C627.167 202.406 626.247 202.23 625.349 201.847C624.451 201.486 623.684 200.927 623.06 200.204C622.403 199.481 621.91 198.605 621.603 197.597C621.286 196.612 621.132 195.571 621.132 194.476C621.132 193.381 621.286 192.318 621.603 191.311C621.899 190.325 622.392 189.449 623.06 188.704C623.684 187.981 624.451 187.422 625.349 187.039C626.247 186.678 627.167 186.48 628.109 186.48C629.051 186.48 629.971 186.678 630.869 187.039C631.767 187.422 632.512 187.981 633.158 188.704C633.794 189.449 634.286 190.325 634.637 191.311C634.955 192.318 635.13 193.359 635.13 194.476ZM633.147 194.476C633.147 193.6 633.016 192.745 632.764 191.913C632.512 191.102 632.14 190.412 631.713 189.843C631.264 189.284 630.727 188.835 630.113 188.518C629.467 188.222 628.81 188.069 628.131 188.069C627.452 188.069 626.806 188.222 626.192 188.518C625.557 188.835 624.999 189.284 624.55 189.843C624.1 190.423 623.761 191.102 623.542 191.913C623.29 192.745 623.18 193.6 623.18 194.476C623.18 195.352 623.29 196.184 623.542 196.973C623.761 197.784 624.1 198.485 624.55 199.065C624.999 199.645 625.535 200.073 626.171 200.368C626.795 200.664 627.452 200.817 628.131 200.817C628.81 200.817 629.478 200.664 630.113 200.368C630.738 200.073 631.264 199.645 631.713 199.065C632.14 198.485 632.501 197.784 632.764 196.973C633.016 196.184 633.147 195.352 633.147 194.476Z" fill="#595B56"/>
<path d="M648.59 202.169H646.301L639.598 189.541V202.169H637.693V186.77H639.938L646.685 199.431V186.77H648.59V202.169Z" fill="#595B56"/>
</g>
<defs>
<clipPath id="clip0_2818_36897">
<rect width="803" height="422" fill="white" transform="translate(0 0.171875)"/>
</clipPath>
</defs>
</svg>
