<svg width="546" height="123" viewBox="0 0 546 123" fill="none" xmlns="http://www.w3.org/2000/svg">
<path d="M545.304 113.95C545.304 114.783 545.004 115.483 544.404 116.05C543.804 116.65 543.104 116.95 542.304 116.95C541.471 116.95 540.754 116.65 540.154 116.05C539.587 115.483 539.304 114.783 539.304 113.95C539.304 113.15 539.587 112.45 540.154 111.85C540.754 111.25 541.471 110.95 542.304 110.95C543.104 110.95 543.804 111.25 544.404 111.85C545.004 112.45 545.304 113.15 545.304 113.95Z" fill="#535353"/>
<path d="M529.377 79.9V94.15C530.11 94.15 530.843 94.1 531.577 94C532.31 93.9 532.877 93.65 533.277 93.25C533.477 92.95 534.043 92.7833 534.977 92.75C535.943 92.7167 536.793 92.7667 537.527 92.9C538.36 93.1 538.96 93.4 539.327 93.8C539.693 94.2 539.843 94.5833 539.777 94.95C539.71 95.35 539.427 95.7 538.927 96C538.46 96.2667 537.793 96.4 536.927 96.4H529.377V110.3C529.377 113.833 529.16 116.667 528.727 118.8C528.293 120.967 527.66 122.05 526.827 122.05C526.46 122.117 526.16 121.9 525.927 121.4C525.727 120.9 525.56 120.233 525.427 119.4C525.293 118.6 525.193 117.667 525.127 116.6C525.093 115.533 525.077 114.433 525.077 113.3V101.75C523.677 102.25 522.043 102.783 520.177 103.35C518.31 103.917 516.377 104.45 514.377 104.95C512.377 105.483 510.377 105.95 508.377 106.35C506.41 106.717 504.643 106.967 503.077 107.1C501.777 107.233 500.827 107.017 500.227 106.45C499.627 105.883 499.327 104.85 499.327 103.35V88.05C499.327 87.05 499.01 86.4 498.377 86.1C497.777 85.8 496.943 85.5333 495.877 85.3C495.243 85.1333 494.96 84.7667 495.027 84.2C495.093 83.6333 495.493 83.3167 496.227 83.25C496.527 83.2167 496.977 83.2 497.577 83.2C498.21 83.2 498.877 83.2333 499.577 83.3C500.31 83.3333 501.06 83.3833 501.827 83.45C502.627 83.5167 503.36 83.5833 504.027 83.65C504.827 83.6833 505.81 83.7 506.977 83.7C508.143 83.6667 509.127 83.6 509.927 83.5C510.127 83.5 510.327 83.4667 510.527 83.4C510.76 83.3333 510.927 83.25 511.027 83.15C511.227 83.05 511.427 82.95 511.627 82.85C511.827 82.7167 512.043 82.6333 512.277 82.6C512.977 82.4667 513.71 82.4167 514.477 82.45C515.277 82.4833 516.06 82.5333 516.827 82.6C517.56 82.7 518.093 82.9333 518.427 83.3C518.793 83.6667 518.96 84.05 518.927 84.45C518.927 84.85 518.743 85.2167 518.377 85.55C518.043 85.8833 517.543 86.05 516.877 86.05C516.01 86.0833 515.01 86.1 513.877 86.1C512.743 86.1 511.593 86.1 510.427 86.1C509.227 86.1 508.06 86.1 506.927 86.1C505.793 86.1 504.81 86.1 503.977 86.1V101.9C503.977 102.5 504.143 102.867 504.477 103C504.81 103.1 505.227 103.15 505.727 103.15C506.76 103.15 508.11 103.05 509.777 102.85C511.477 102.617 513.243 102.317 515.077 101.95C516.943 101.583 518.76 101.183 520.527 100.75C522.293 100.283 523.81 99.8333 525.077 99.4V80.85C525.077 80.05 524.993 79.3833 524.827 78.85C524.693 78.3167 524.427 77.8833 524.027 77.55C523.527 77.15 522.893 76.8333 522.127 76.6C521.36 76.3667 520.627 76.1833 519.927 76.05C519.66 76.0167 519.477 75.8833 519.377 75.65C519.277 75.4167 519.243 75.1667 519.277 74.9C519.343 74.6667 519.46 74.4667 519.627 74.3C519.827 74.1 520.11 74.0167 520.477 74.05C521.743 74.0833 523.21 74.2167 524.877 74.45C526.543 74.65 527.977 74.9333 529.177 75.3C529.443 75.4 529.643 75.5833 529.777 75.85C529.91 76.1167 529.943 76.45 529.877 76.85C529.71 77.35 529.577 77.8667 529.477 78.4C529.41 78.9 529.377 79.4 529.377 79.9Z" fill="#535353"/>
<path d="M485.049 100.65C483.516 101.217 481.799 101.817 479.899 102.45C478.033 103.083 476.116 103.7 474.149 104.3C472.149 104.867 470.149 105.367 468.149 105.8C466.183 106.2 464.333 106.45 462.599 106.55C461.199 106.717 460.166 106.533 459.499 106C458.866 105.433 458.549 104.4 458.549 102.9V87.9C458.549 87.4333 458.466 87.0167 458.299 86.65C458.133 86.25 457.899 85.9333 457.599 85.7C457.233 85.4333 456.716 85.2167 456.049 85.05C455.416 84.8833 454.799 84.7667 454.199 84.7C453.933 84.7 453.749 84.6 453.649 84.4C453.549 84.1667 453.516 83.9333 453.549 83.7C453.583 83.4333 453.683 83.2 453.849 83C454.016 82.8 454.283 82.6833 454.649 82.65C455.849 82.55 457.233 82.5667 458.799 82.7C460.366 82.8333 461.749 83 462.949 83.2C463.216 83.2667 463.399 83.45 463.499 83.75C463.599 84.05 463.616 84.3833 463.549 84.75C463.483 84.95 463.399 85.2667 463.299 85.7C463.233 86.1333 463.183 86.5833 463.149 87.05V101.35C463.149 101.983 463.316 102.4 463.649 102.6C464.016 102.767 464.483 102.85 465.049 102.85C466.349 102.817 467.866 102.65 469.599 102.35C471.366 102.05 473.183 101.683 475.049 101.25C476.883 100.817 478.666 100.333 480.399 99.8C482.166 99.2667 483.716 98.75 485.049 98.25V80.85C485.049 80.05 484.983 79.3833 484.849 78.85C484.716 78.3167 484.449 77.8833 484.049 77.55C483.516 77.15 482.866 76.8333 482.099 76.6C481.366 76.3667 480.633 76.1833 479.899 76.05C479.633 76.0167 479.449 75.8833 479.349 75.65C479.249 75.4167 479.216 75.1667 479.249 74.9C479.316 74.6667 479.433 74.4667 479.599 74.3C479.799 74.1 480.083 74.0167 480.449 74.05C481.716 74.0833 483.183 74.2167 484.849 74.45C486.516 74.65 487.949 74.9333 489.149 75.3C489.383 75.4 489.566 75.5833 489.699 75.85C489.833 76.1167 489.866 76.45 489.799 76.85C489.633 77.35 489.499 77.8667 489.399 78.4C489.333 78.9 489.299 79.4 489.299 79.9V110.1C489.333 113.733 489.133 116.633 488.699 118.8C488.266 120.967 487.633 122.05 486.799 122.05C486.433 122.117 486.133 121.9 485.899 121.4C485.699 120.9 485.533 120.233 485.399 119.4C485.266 118.6 485.166 117.667 485.099 116.6C485.066 115.533 485.049 114.433 485.049 113.3V100.65Z" fill="#535353"/>
<path d="M427.522 79.9C426.922 79.9667 426.372 80.0167 425.872 80.05C425.405 80.0833 424.955 80.1 424.522 80.1C424.089 80.1333 423.655 80.15 423.222 80.15C422.789 80.1167 422.339 80.0667 421.872 80C421.272 79.9667 420.589 79.7667 419.822 79.4C419.055 79.0333 418.222 78.5 417.322 77.8C416.622 77.1667 416.439 76.6667 416.772 76.3C417.139 75.9333 417.922 75.9 419.122 76.2C420.422 76.5 421.705 76.7 422.972 76.8C424.272 76.8667 425.739 76.9 427.372 76.9C428.305 76.9 428.989 77.05 429.422 77.35C429.855 77.65 430.072 77.9833 430.072 78.35C430.039 78.6833 429.805 79.0167 429.372 79.35C428.939 79.6833 428.322 79.8667 427.522 79.9ZM437.622 83.2C437.622 83.7333 437.372 84.1 436.872 84.3C436.372 84.5 435.772 84.6 435.072 84.6C434.905 84.6 434.489 84.6 433.822 84.6C433.155 84.6 432.405 84.6 431.572 84.6C430.739 84.6 429.889 84.6 429.022 84.6C428.155 84.6 427.439 84.6 426.872 84.6C426.305 84.6333 425.622 84.6667 424.822 84.7C424.055 84.7 423.272 84.7167 422.472 84.75C421.672 84.75 420.922 84.7667 420.222 84.8C419.555 84.8333 419.055 84.8667 418.722 84.9C418.555 84.9333 418.389 84.9833 418.222 85.05C418.055 85.0833 417.889 85.1167 417.722 85.15C417.589 85.2167 417.439 85.2833 417.272 85.35C417.139 85.3833 417.005 85.4167 416.872 85.45C416.372 85.65 415.855 85.7833 415.322 85.85C414.789 85.8833 414.055 85.75 413.122 85.45C412.622 85.35 412.055 85.1833 411.422 84.95C410.822 84.6833 410.205 84.35 409.572 83.95C408.739 83.45 408.355 83 408.422 82.6C408.489 82.1667 408.922 81.9833 409.722 82.05C410.922 82.15 412.189 82.25 413.522 82.35C414.855 82.4167 416.455 82.45 418.322 82.45C418.755 82.45 419.389 82.4667 420.222 82.5C421.089 82.5 421.989 82.5 422.922 82.5C423.822 82.5 424.689 82.5 425.522 82.5C426.389 82.4667 427.055 82.4167 427.522 82.35C427.722 82.35 427.989 82.2833 428.322 82.15C428.689 82.0167 428.955 81.9 429.122 81.8C429.222 81.7667 429.322 81.7333 429.422 81.7C429.522 81.6667 429.622 81.6333 429.722 81.6C429.822 81.6 429.922 81.6 430.022 81.6C430.155 81.5667 430.272 81.5333 430.372 81.5C431.272 81.4 432.105 81.3667 432.872 81.4C433.639 81.4333 434.455 81.5 435.322 81.6C435.989 81.7 436.539 81.8667 436.972 82.1C437.405 82.3333 437.622 82.7 437.622 83.2ZM423.422 86.4C426.122 86.4 428.372 87.0833 430.172 88.45C432.005 89.8167 432.922 91.7 432.922 94.1C432.922 96.5 432.022 98.4 430.222 99.8C428.422 101.2 426.155 101.9 423.422 101.9C420.689 101.9 418.422 101.2 416.622 99.8C414.855 98.4 413.972 96.5 413.972 94.1C413.972 91.7 414.872 89.8167 416.672 88.45C418.472 87.0833 420.722 86.4 423.422 86.4ZM423.422 88.75C421.989 88.75 420.739 89.2167 419.672 90.15C418.639 91.0833 418.122 92.3667 418.122 94C418.122 95.7333 418.655 97.0167 419.722 97.85C420.789 98.6833 422.022 99.1 423.422 99.1C424.822 99.1 426.055 98.6833 427.122 97.85C428.222 97.0167 428.772 95.7333 428.772 94C428.772 92.3333 428.239 91.05 427.172 90.15C426.105 89.2167 424.855 88.75 423.422 88.75ZM444.572 79.85V91.4C444.905 91.4 445.239 91.3833 445.572 91.35C445.939 91.3167 446.289 91.2667 446.622 91.2C446.955 91.1667 447.255 91.1 447.522 91C447.789 90.8667 448.039 90.7 448.272 90.5C448.472 90.2333 449.072 90.0833 450.072 90.05C451.072 89.9833 451.972 90 452.772 90.1C453.605 90.3 454.205 90.6 454.572 91C454.939 91.3667 455.089 91.75 455.022 92.15C454.955 92.55 454.672 92.9 454.172 93.2C453.705 93.4667 453.039 93.6 452.172 93.6H444.572V94.4C444.572 96.9667 444.289 98.9333 443.722 100.3C443.155 101.633 442.572 102.3 441.972 102.3C441.372 102.333 440.939 101.8 440.672 100.7C440.405 99.6 440.272 98.1333 440.272 96.3V80.2C440.272 79.5667 440.205 79.0333 440.072 78.6C439.939 78.1667 439.672 77.8167 439.272 77.55C438.705 77.15 438.039 76.8333 437.272 76.6C436.505 76.3333 435.772 76.1333 435.072 76C434.805 75.9667 434.622 75.8333 434.522 75.6C434.422 75.3667 434.405 75.1333 434.472 74.9C434.505 74.6667 434.622 74.4667 434.822 74.3C435.022 74.1 435.305 74 435.672 74C436.939 74.0333 438.422 74.1667 440.122 74.4C441.855 74.6 443.322 74.8833 444.522 75.25C444.722 75.35 444.889 75.55 445.022 75.85C445.189 76.1167 445.222 76.4333 445.122 76.8C444.922 77.3 444.772 77.8167 444.672 78.35C444.605 78.85 444.572 79.35 444.572 79.85ZM444.222 106.65V115.65C444.222 117.15 443.972 118.367 443.472 119.3C442.972 120.233 442.389 120.7 441.722 120.7C441.122 120.7 440.672 120.483 440.372 120.05C440.105 119.617 439.972 119.25 439.972 118.95L426.922 119.05C426.755 119.35 426.455 119.8 426.022 120.4C425.622 121.033 425.122 121.35 424.522 121.35C423.955 121.35 423.472 121 423.072 120.3C422.705 119.633 422.522 118.467 422.522 116.8V109.35C422.522 109.017 422.472 108.65 422.372 108.25C422.305 107.817 422.139 107.467 421.872 107.2C421.572 106.933 421.205 106.717 420.772 106.55C420.339 106.35 419.855 106.2 419.322 106.1C419.122 106.1 418.972 106 418.872 105.8C418.805 105.6 418.789 105.4 418.822 105.2C418.855 104.967 418.955 104.767 419.122 104.6C419.289 104.4 419.522 104.283 419.822 104.25C420.722 104.25 421.789 104.317 423.022 104.45C424.289 104.55 425.422 104.717 426.422 104.95C426.655 105.05 426.822 105.267 426.922 105.6C427.055 105.9 427.072 106.217 426.972 106.55C426.939 106.617 426.905 106.7 426.872 106.8C426.872 106.867 426.872 106.967 426.872 107.1C426.839 107.233 426.805 107.383 426.772 107.55C426.772 107.683 426.755 107.817 426.722 107.95V108.9L439.972 108.8V107.8C439.972 107.467 439.922 107.1 439.822 106.7C439.755 106.3 439.572 105.967 439.272 105.7C439.005 105.433 438.605 105.2 438.072 105C437.572 104.8 437.039 104.65 436.472 104.55C436.272 104.55 436.122 104.45 436.022 104.25C435.955 104.05 435.939 103.833 435.972 103.6C436.005 103.367 436.089 103.15 436.222 102.95C436.389 102.75 436.622 102.633 436.922 102.6C437.822 102.6 438.955 102.667 440.322 102.8C441.722 102.933 442.922 103.117 443.922 103.35C444.122 103.45 444.272 103.667 444.372 104C444.505 104.3 444.522 104.617 444.422 104.95C444.389 105.017 444.355 105.117 444.322 105.25C444.322 105.383 444.305 105.517 444.272 105.65C444.272 105.817 444.255 105.983 444.222 106.15C444.222 106.317 444.222 106.483 444.222 106.65ZM439.972 116.4V111.35L426.722 111.45V116.5L439.972 116.4Z" fill="#535353"/>
<path d="M405.245 79.8V110.1C405.278 113.7 405.078 116.583 404.645 118.75C404.245 120.917 403.661 122 402.895 122C402.528 122.033 402.228 121.8 401.995 121.3C401.795 120.8 401.628 120.133 401.495 119.3C401.361 118.467 401.278 117.517 401.245 116.45C401.211 115.383 401.195 114.267 401.195 113.1V95.5L394.695 95.7V108.35C394.761 111.95 394.578 114.833 394.145 117C393.711 119.167 393.095 120.25 392.295 120.25C391.928 120.283 391.628 120.05 391.395 119.55C391.195 119.05 391.028 118.383 390.895 117.55C390.795 116.717 390.711 115.767 390.645 114.7C390.611 113.633 390.595 112.533 390.595 111.4V102.2C388.495 103 386.145 103.817 383.545 104.65C380.978 105.483 378.545 106 376.245 106.2C374.811 106.333 373.778 106.117 373.145 105.55C372.511 104.983 372.195 103.95 372.195 102.45V88C372.195 87.5333 372.111 87.1167 371.945 86.75C371.811 86.3833 371.595 86.0833 371.295 85.85C370.895 85.6167 370.361 85.4167 369.695 85.25C369.061 85.05 368.445 84.9167 367.845 84.85C367.611 84.85 367.445 84.75 367.345 84.55C367.245 84.3167 367.211 84.0833 367.245 83.85C367.278 83.6167 367.378 83.4 367.545 83.2C367.745 83 368.011 82.8833 368.345 82.85C369.545 82.8167 370.878 82.85 372.345 82.95C373.811 83.0167 375.178 83.15 376.445 83.35C376.645 83.4167 376.795 83.6167 376.895 83.95C376.995 84.25 376.995 84.5667 376.895 84.9C376.795 85.1 376.711 85.45 376.645 85.95C376.578 86.45 376.545 86.95 376.545 87.45V100.9C376.545 101.6 376.728 102.05 377.095 102.25C377.461 102.45 377.895 102.533 378.395 102.5C379.995 102.4 381.895 102.117 384.095 101.65C386.295 101.15 388.461 100.55 390.595 99.85V83.15C390.595 82.35 390.511 81.6667 390.345 81.1C390.211 80.5333 389.945 80.1 389.545 79.8C389.145 79.5 388.645 79.2333 388.045 79C387.478 78.7333 386.861 78.5333 386.195 78.4C385.928 78.3667 385.745 78.25 385.645 78.05C385.545 77.8167 385.528 77.5833 385.595 77.35C385.661 77.1167 385.795 76.9167 385.995 76.75C386.195 76.55 386.478 76.45 386.845 76.45C388.045 76.5167 389.328 76.65 390.695 76.85C392.061 77.0167 393.345 77.2833 394.545 77.65C394.745 77.75 394.911 77.95 395.045 78.25C395.178 78.5167 395.195 78.8333 395.095 79.2C394.961 79.6 394.861 80.05 394.795 80.55C394.728 81.05 394.695 81.5667 394.695 82.1V93.05L401.195 92.85V80.75C401.195 79.95 401.128 79.2833 400.995 78.75C400.861 78.1833 400.578 77.75 400.145 77.45C399.678 77.15 399.128 76.8667 398.495 76.6C397.861 76.3333 397.195 76.1333 396.495 76C396.228 75.9667 396.045 75.8333 395.945 75.6C395.845 75.3667 395.828 75.1333 395.895 74.9C395.961 74.6667 396.095 74.4667 396.295 74.3C396.495 74.1 396.778 74 397.145 74C398.311 74.0667 399.628 74.2 401.095 74.4C402.595 74.6 403.945 74.8833 405.145 75.25C405.345 75.35 405.511 75.55 405.645 75.85C405.778 76.1167 405.795 76.4333 405.695 76.8C405.561 77.2333 405.445 77.7167 405.345 78.25C405.278 78.7833 405.245 79.3 405.245 79.8Z" fill="#535353"/>
<path d="M335.817 80.05C337.417 80.05 338.901 80.3 340.267 80.8C341.634 81.2667 342.817 81.9333 343.817 82.8C344.784 83.6667 345.551 84.7167 346.117 85.95C346.684 87.1833 346.967 88.5667 346.967 90.1C346.967 91.6 346.684 92.9833 346.117 94.25C345.551 95.4833 344.784 96.5333 343.817 97.4C342.817 98.2667 341.634 98.95 340.267 99.45C338.901 99.9167 337.417 100.15 335.817 100.15C334.184 100.15 332.684 99.9167 331.317 99.45C329.984 98.95 328.834 98.2667 327.867 97.4C326.867 96.5333 326.101 95.4833 325.567 94.25C325.034 92.9833 324.767 91.6 324.767 90.1C324.767 88.5667 325.034 87.1833 325.567 85.95C326.101 84.7167 326.867 83.6667 327.867 82.8C328.834 81.9333 329.984 81.2667 331.317 80.8C332.684 80.3 334.184 80.05 335.817 80.05ZM335.817 82.85C333.751 82.85 332.117 83.5333 330.917 84.9C329.717 86.2667 329.117 87.9833 329.117 90.05C329.117 92.0833 329.701 93.8 330.867 95.2C332.067 96.5667 333.717 97.25 335.817 97.25C337.917 97.25 339.567 96.5667 340.767 95.2C342.001 93.8 342.617 92.0833 342.617 90.05C342.617 87.9833 342.001 86.2667 340.767 84.9C339.567 83.5333 337.917 82.85 335.817 82.85ZM358.517 79.85V91C359.251 90.9667 359.967 90.9 360.667 90.8C361.401 90.6667 362.001 90.4 362.467 90C362.634 89.7333 363.201 89.6 364.167 89.6C365.134 89.5667 366.001 89.6 366.767 89.7C367.601 89.9 368.201 90.2 368.567 90.6C368.934 90.9667 369.084 91.35 369.017 91.75C368.951 92.1167 368.667 92.45 368.167 92.75C367.701 93.0167 367.051 93.15 366.217 93.15H358.517V102.05C358.517 104.75 358.267 106.967 357.767 108.7C357.267 110.433 356.667 111.3 355.967 111.3C355.301 111.333 354.851 110.667 354.617 109.3C354.417 107.933 354.317 106.3 354.317 104.4V80.75C354.317 79.95 354.234 79.2833 354.067 78.75C353.934 78.2167 353.667 77.8 353.267 77.5C352.701 77.1 352.034 76.7833 351.267 76.55C350.534 76.3167 349.817 76.1333 349.117 76C348.851 75.9667 348.667 75.8333 348.567 75.6C348.467 75.3667 348.451 75.1333 348.517 74.9C348.551 74.6667 348.667 74.4667 348.867 74.3C349.067 74.1 349.351 74 349.717 74C350.984 74.0333 352.451 74.1667 354.117 74.4C355.817 74.6 357.267 74.8833 358.467 75.25C358.667 75.35 358.834 75.55 358.967 75.85C359.101 76.1167 359.117 76.4333 359.017 76.8C358.851 77.3 358.717 77.8167 358.617 78.35C358.551 78.85 358.517 79.35 358.517 79.85ZM341.317 110.3V115.65C341.317 116.25 341.501 116.65 341.867 116.85C342.234 117.083 342.667 117.2 343.167 117.2L351.717 117.1C352.217 117.1 352.784 117.05 353.417 116.95C354.084 116.883 354.751 116.683 355.417 116.35C355.484 116.317 355.567 116.267 355.667 116.2C355.767 116.167 355.867 116.133 355.967 116.1C356.067 116.033 356.184 115.983 356.317 115.95C356.451 115.917 356.584 115.883 356.717 115.85C357.417 115.817 358.134 115.817 358.867 115.85C359.601 115.883 360.267 115.933 360.867 116C361.534 116.1 362.034 116.317 362.367 116.65C362.734 117.017 362.917 117.4 362.917 117.8C362.917 118.2 362.734 118.55 362.367 118.85C362.034 119.183 361.517 119.35 360.817 119.35L341.667 119.55C340.334 119.583 339.151 119.367 338.117 118.9C337.117 118.433 336.617 117.4 336.617 115.8V110.7C336.617 110.367 336.551 110.017 336.417 109.65C336.317 109.25 336.117 108.95 335.817 108.75C335.484 108.55 335.034 108.383 334.467 108.25C333.934 108.083 333.301 107.95 332.567 107.85C332.334 107.85 332.167 107.75 332.067 107.55C331.967 107.317 331.951 107.083 332.017 106.85C332.051 106.617 332.151 106.4 332.317 106.2C332.517 105.967 332.784 105.833 333.117 105.8C333.551 105.8 334.101 105.8 334.767 105.8C335.467 105.8 336.184 105.817 336.917 105.85C337.651 105.883 338.367 105.933 339.067 106C339.801 106.033 340.451 106.1 341.017 106.2C341.217 106.3 341.367 106.517 341.467 106.85C341.601 107.15 341.617 107.467 341.517 107.8C341.451 108 341.401 108.367 341.367 108.9C341.334 109.433 341.317 109.9 341.317 110.3Z" fill="#535353"/>
<path d="M303.814 92.55L283.664 92.6C282.997 92.6 282.364 92.5833 281.764 92.55C281.164 92.4833 280.614 92.35 280.114 92.15C279.647 91.9167 279.264 91.5833 278.964 91.15C278.697 90.7167 278.564 90.1 278.564 89.3V87.4C278.564 86.5 278.314 85.9166 277.814 85.65C277.314 85.35 276.664 85.1333 275.864 85C275.164 84.9 274.864 84.5666 274.964 84C275.064 83.4333 275.497 83.1 276.264 83C277.164 82.9 278.28 82.9167 279.614 83.05C280.98 83.1833 282.214 83.3333 283.314 83.5C284.247 83.5333 285.397 83.55 286.764 83.55C288.13 83.55 289.564 83.55 291.064 83.55C292.53 83.55 293.964 83.5333 295.364 83.5C296.764 83.4666 297.964 83.4166 298.964 83.35L299.164 79.1C298.197 79.1 297.064 79.1167 295.764 79.15C294.497 79.15 293.247 79.15 292.014 79.15C290.78 79.1833 289.68 79.2166 288.714 79.25C287.747 79.25 287.097 79.25 286.764 79.25C286.164 79.3166 285.58 79.4167 285.014 79.55C284.447 79.6833 284.047 79.8 283.814 79.9C283.647 79.9666 283.464 80.05 283.264 80.15C283.097 80.2166 282.914 80.2833 282.714 80.35C282.48 80.3833 282.214 80.4 281.914 80.4C281.647 80.3667 281.347 80.2666 281.014 80.1C280.447 79.9333 279.764 79.6833 278.964 79.35C278.197 79.0166 277.397 78.6 276.564 78.1C275.964 77.7 275.747 77.3333 275.914 77C276.08 76.6333 276.614 76.5 277.514 76.6C278.414 76.7 279.53 76.8 280.864 76.9C282.23 76.9666 283.464 77 284.564 77C285.364 77 286.33 77 287.464 77C288.63 77 289.83 77 291.064 77C292.297 77 293.497 76.9833 294.664 76.95C295.83 76.9166 296.847 76.8667 297.714 76.8C297.814 76.8 297.914 76.8 298.014 76.8C298.114 76.7667 298.197 76.7333 298.264 76.7C298.33 76.7 298.397 76.7 298.464 76.7C298.53 76.6666 298.597 76.6333 298.664 76.6C298.764 76.6 298.847 76.5833 298.914 76.55C299.014 76.4833 299.097 76.4333 299.164 76.4C299.23 76.3667 299.314 76.3333 299.414 76.3C299.514 76.2667 299.614 76.2333 299.714 76.2C300.38 76.1 301.097 76.0833 301.864 76.15C302.63 76.2167 303.28 76.3 303.814 76.4C304.38 76.5 304.697 76.7333 304.764 77.1C304.83 77.4666 304.814 77.7833 304.714 78.05C304.614 78.3167 304.497 78.6166 304.364 78.95C304.23 79.2833 304.114 79.6 304.014 79.9L302.714 83.3C303.214 83.3 303.647 83.4333 304.014 83.7C304.38 83.9333 304.564 84.2333 304.564 84.6C304.564 84.9333 304.414 85.2167 304.114 85.45C303.847 85.65 303.364 85.75 302.664 85.75C301.864 85.7833 300.497 85.8166 298.564 85.85C296.664 85.85 294.664 85.85 292.564 85.85C290.464 85.85 288.497 85.85 286.664 85.85C284.83 85.85 283.614 85.85 283.014 85.85V88.7C283.014 89.2667 283.197 89.65 283.564 89.85C283.964 90.05 284.447 90.15 285.014 90.15L294.414 90.1C294.68 90.1 294.964 90.1167 295.264 90.15C295.597 90.15 295.93 90.1333 296.264 90.1C296.597 90.0666 296.914 90.0333 297.214 90C297.547 89.9333 297.847 89.8167 298.114 89.65C298.214 89.55 298.38 89.45 298.614 89.35C298.88 89.25 299.164 89.1833 299.464 89.15C300.197 89.05 300.997 89.0333 301.864 89.1C302.764 89.1333 303.497 89.1833 304.064 89.25C304.797 89.35 305.347 89.5833 305.714 89.95C306.114 90.3166 306.314 90.6833 306.314 91.05C306.28 91.45 306.047 91.8 305.614 92.1C305.214 92.4 304.614 92.55 303.814 92.55ZM304.364 96C304.597 95.9 304.847 95.8166 305.114 95.75C305.414 95.6833 305.68 95.6333 305.914 95.6C306.747 95.5 307.58 95.4666 308.414 95.5C309.28 95.5333 310.147 95.5833 311.014 95.65C311.98 95.75 312.747 95.95 313.314 96.25C313.88 96.5166 314.164 96.95 314.164 97.55C314.164 98.1833 313.864 98.6166 313.264 98.85C312.664 99.05 311.914 99.15 311.014 99.15C309.98 99.15 308.697 99.15 307.164 99.15C305.63 99.1167 304.014 99.1 302.314 99.1C300.614 99.1 298.93 99.1 297.264 99.1C295.597 99.0666 294.13 99.0333 292.864 99C291.897 99 290.83 99.0167 289.664 99.05C288.497 99.0833 287.364 99.1333 286.264 99.2C285.13 99.2333 284.047 99.2833 283.014 99.35C282.014 99.4166 281.197 99.4666 280.564 99.5C280.264 99.5333 279.98 99.5833 279.714 99.65C279.447 99.6833 279.197 99.7333 278.964 99.8C278.73 99.8667 278.497 99.95 278.264 100.05C278.064 100.117 277.864 100.167 277.664 100.2C277.197 100.367 276.68 100.5 276.114 100.6C275.58 100.667 274.847 100.55 273.914 100.25C273.347 100.15 272.647 99.95 271.814 99.65C271.014 99.35 270.147 98.9667 269.214 98.5C268.247 98 267.83 97.4667 267.964 96.9C268.097 96.3333 268.78 96.1667 270.014 96.4C271.514 96.6 273.13 96.7166 274.864 96.75C276.63 96.7833 278.314 96.8 279.914 96.8C281.114 96.8 282.63 96.8 284.464 96.8C286.33 96.8 288.264 96.8 290.264 96.8C292.264 96.8 294.214 96.8 296.114 96.8C298.014 96.7667 299.614 96.7333 300.914 96.7C301.647 96.7 302.33 96.6167 302.964 96.45C303.597 96.25 304.064 96.1 304.364 96ZM285.064 120.2C284.364 120.2 283.697 120.167 283.064 120.1C282.464 120.067 281.93 119.933 281.464 119.7C280.997 119.467 280.63 119.117 280.364 118.65C280.097 118.217 279.964 117.617 279.964 116.85V114.2C279.964 113.533 279.73 113.05 279.264 112.75C278.797 112.45 278.164 112.267 277.364 112.2C276.997 112.2 276.73 112.1 276.564 111.9C276.43 111.667 276.38 111.433 276.414 111.2C276.447 110.933 276.547 110.7 276.714 110.5C276.88 110.3 277.13 110.183 277.464 110.15C278.164 110.083 279.23 110.1 280.664 110.2C282.13 110.3 283.48 110.417 284.714 110.55C285.314 110.55 286.28 110.55 287.614 110.55C288.98 110.55 290.414 110.55 291.914 110.55C293.414 110.55 294.847 110.55 296.214 110.55C297.58 110.55 298.564 110.533 299.164 110.5L299.464 105.7C298.93 105.7 298.047 105.717 296.814 105.75C295.614 105.75 294.347 105.75 293.014 105.75C291.68 105.75 290.447 105.767 289.314 105.8C288.214 105.8 287.497 105.8 287.164 105.8C286.53 105.867 285.847 106.017 285.114 106.25C284.414 106.45 283.98 106.583 283.814 106.65C283.547 106.783 283.214 106.9 282.814 107C282.447 107.067 281.98 106.95 281.414 106.65C280.914 106.483 280.28 106.217 279.514 105.85C278.747 105.45 278.097 105.05 277.564 104.65C277.097 104.283 276.93 103.9 277.064 103.5C277.23 103.1 277.63 102.983 278.264 103.15C279.197 103.283 280.264 103.4 281.464 103.5C282.697 103.567 283.864 103.6 284.964 103.6C285.33 103.633 285.997 103.65 286.964 103.65C287.964 103.65 289.064 103.65 290.264 103.65C291.464 103.65 292.647 103.65 293.814 103.65C295.014 103.617 296.014 103.583 296.814 103.55C297.314 103.517 297.73 103.467 298.064 103.4C298.43 103.333 298.68 103.283 298.814 103.25C298.847 103.25 298.897 103.233 298.964 103.2C299.03 103.133 299.114 103.083 299.214 103.05C299.28 102.983 299.347 102.933 299.414 102.9C299.514 102.867 299.614 102.833 299.714 102.8C300.347 102.7 301.08 102.667 301.914 102.7C302.78 102.733 303.48 102.8 304.014 102.9C304.514 103 304.797 103.233 304.864 103.6C304.93 103.967 304.914 104.3 304.814 104.6C304.714 104.8 304.614 105.05 304.514 105.35C304.414 105.617 304.33 105.867 304.264 106.1L303.064 110.45C303.597 110.483 304.014 110.6 304.314 110.8C304.647 111 304.814 111.267 304.814 111.6C304.814 112 304.664 112.3 304.364 112.5C304.064 112.7 303.447 112.8 302.514 112.8C301.78 112.8 300.547 112.817 298.814 112.85C297.114 112.85 295.297 112.867 293.364 112.9C291.464 112.933 289.664 112.95 287.964 112.95C286.297 112.95 285.164 112.95 284.564 112.95V116.35C284.564 116.883 284.73 117.25 285.064 117.45C285.397 117.65 285.864 117.75 286.464 117.75L296.064 117.65C296.664 117.65 297.28 117.633 297.914 117.6C298.58 117.567 299.214 117.4 299.814 117.1C299.88 117.067 299.964 117.033 300.064 117C300.164 116.967 300.264 116.917 300.364 116.85C300.464 116.817 300.564 116.783 300.664 116.75C300.797 116.717 300.93 116.683 301.064 116.65C301.697 116.55 302.447 116.517 303.314 116.55C304.214 116.617 304.914 116.667 305.414 116.7C306.114 116.8 306.63 117.017 306.964 117.35C307.33 117.717 307.497 118.1 307.464 118.5C307.43 118.9 307.214 119.25 306.814 119.55C306.414 119.883 305.814 120.05 305.014 120.05L285.064 120.2Z" fill="#535353"/>
<path d="M260.936 82.25V98.1C260.936 99.2334 260.653 100.283 260.086 101.25C259.52 102.183 258.986 102.65 258.486 102.65C258.22 102.65 257.97 102.583 257.736 102.45C257.536 102.317 257.37 102.167 257.236 102C257.07 101.8 256.92 101.6 256.786 101.4C256.686 101.2 256.62 101.033 256.586 100.9L250.636 100.95V111.5C251.236 111.5 251.87 111.5 252.536 111.5C253.203 111.5 253.853 111.483 254.486 111.45C255.12 111.45 255.703 111.45 256.236 111.45C256.803 111.45 257.286 111.433 257.686 111.4C258.386 111.4 259.053 111.317 259.686 111.15C260.32 110.95 260.753 110.8 260.986 110.7C261.253 110.6 261.52 110.517 261.786 110.45C262.086 110.383 262.37 110.333 262.636 110.3C263.503 110.233 264.353 110.217 265.186 110.25C266.053 110.25 266.936 110.283 267.836 110.35C268.836 110.45 269.603 110.65 270.136 110.95C270.703 111.217 270.986 111.633 270.986 112.2C270.953 112.867 270.636 113.317 270.036 113.55C269.47 113.75 268.72 113.85 267.786 113.85C266.753 113.85 265.486 113.85 263.986 113.85C262.52 113.817 260.986 113.8 259.386 113.8C257.753 113.8 256.136 113.8 254.536 113.8C252.936 113.767 251.503 113.733 250.236 113.7C249.27 113.7 248.22 113.717 247.086 113.75C245.953 113.783 244.836 113.817 243.736 113.85C242.636 113.917 241.586 113.983 240.586 114.05C239.62 114.117 238.82 114.167 238.186 114.2C237.886 114.233 237.603 114.267 237.336 114.3C237.07 114.367 236.836 114.433 236.636 114.5C236.403 114.567 236.186 114.633 235.986 114.7C235.786 114.8 235.586 114.867 235.386 114.9C234.886 115.067 234.336 115.167 233.736 115.2C233.17 115.267 232.42 115.183 231.486 114.95C230.886 114.85 230.186 114.65 229.386 114.35C228.586 114.05 227.72 113.65 226.786 113.15C225.786 112.65 225.353 112.15 225.486 111.65C225.653 111.117 226.386 110.933 227.686 111.1C229.186 111.3 230.803 111.433 232.536 111.5C234.27 111.567 235.936 111.6 237.536 111.6C238.67 111.6 239.92 111.6 241.286 111.6C242.686 111.6 244.353 111.583 246.286 111.55V101.05L240.486 101.1C240.386 101.267 240.27 101.467 240.136 101.7C240.003 101.933 239.836 102.167 239.636 102.4C239.436 102.633 239.203 102.85 238.936 103.05C238.67 103.217 238.386 103.3 238.086 103.3C237.586 103.367 237.103 103.05 236.636 102.35C236.17 101.65 235.936 100.483 235.936 98.85V85C235.936 84.6667 235.903 84.3 235.836 83.9C235.77 83.5 235.586 83.1667 235.286 82.9C234.953 82.6334 234.486 82.4167 233.886 82.25C233.32 82.05 232.753 81.9 232.186 81.8C231.986 81.8 231.853 81.7 231.786 81.5C231.72 81.2667 231.703 81.0334 231.736 80.8C231.77 80.5667 231.853 80.35 231.986 80.15C232.153 79.95 232.386 79.8334 232.686 79.8C233.12 79.8 233.653 79.8167 234.286 79.85C234.92 79.85 235.586 79.8834 236.286 79.95C236.986 80.0167 237.67 80.1 238.336 80.2C239.036 80.3 239.653 80.4 240.186 80.5C240.386 80.6 240.536 80.8167 240.636 81.15C240.77 81.4834 240.786 81.8167 240.686 82.15C240.653 82.25 240.62 82.3667 240.586 82.5C240.586 82.6334 240.57 82.8 240.536 83C240.536 83.1667 240.52 83.35 240.486 83.55C240.486 83.75 240.486 83.95 240.486 84.15V87.25L256.486 87V83.15C256.486 82.8167 256.436 82.45 256.336 82.05C256.236 81.65 256.036 81.3167 255.736 81.05C255.47 80.7834 255.003 80.55 254.336 80.35C253.67 80.15 253.053 80 252.486 79.9C252.286 79.9 252.136 79.8 252.036 79.6C251.97 79.3667 251.953 79.1334 251.986 78.9C252.02 78.6667 252.103 78.45 252.236 78.25C252.403 78.05 252.636 77.9334 252.936 77.9C253.37 77.9 253.92 77.9167 254.586 77.95C255.253 77.9834 255.953 78.0334 256.686 78.1C257.42 78.1667 258.136 78.25 258.836 78.35C259.536 78.45 260.153 78.55 260.686 78.65C260.886 78.75 261.036 78.9667 261.136 79.3C261.27 79.6334 261.286 79.9667 261.186 80.3C261.12 80.4 261.07 80.5167 261.036 80.65C261.036 80.7834 261.02 80.9334 260.986 81.1C260.986 81.2667 260.97 81.45 260.936 81.65C260.936 81.85 260.936 82.05 260.936 82.25ZM256.486 89.55L240.486 89.75V98.65L256.486 98.4V89.55Z" fill="#535353"/>
<path d="M201.959 91C202.359 91.3 202.726 91.5833 203.059 91.85C203.426 92.0833 203.742 92.3 204.009 92.5C204.309 92.7333 204.559 92.9333 204.759 93.1C204.992 93.2333 205.192 93.3167 205.359 93.35C205.459 93.4167 205.576 93.4833 205.709 93.55C205.842 93.5833 205.976 93.6167 206.109 93.65C206.242 93.65 206.359 93.6667 206.459 93.7C206.592 93.7333 206.709 93.75 206.809 93.75C206.976 93.8167 207.159 93.9 207.359 94C207.559 94.1 207.759 94.25 207.959 94.45C208.459 95.05 209.009 95.75 209.609 96.55C210.209 97.35 210.692 98.0833 211.059 98.75C211.326 99.3167 211.426 99.8167 211.359 100.25C211.326 100.683 211.159 101 210.859 101.2C210.592 101.367 210.209 101.383 209.709 101.25C209.242 101.083 208.709 100.683 208.109 100.05C207.709 99.6833 207.192 99.2167 206.559 98.65C205.959 98.0833 205.326 97.4667 204.659 96.8C203.959 96.1667 203.242 95.5333 202.509 94.9C201.776 94.2333 201.092 93.6333 200.459 93.1C198.459 94.9333 196.359 96.65 194.159 98.25C191.992 99.85 189.842 101.15 187.709 102.15C186.909 102.583 186.276 102.833 185.809 102.9C185.342 102.933 185.026 102.867 184.859 102.7C184.692 102.567 184.642 102.367 184.709 102.1C184.776 101.833 184.959 101.617 185.259 101.45C187.059 100.383 188.826 99.1167 190.559 97.65C192.326 96.15 194.009 94.5667 195.609 92.9C197.176 91.2 198.626 89.45 199.959 87.65C201.292 85.8167 202.426 84.0167 203.359 82.25C201.959 82.35 200.742 82.45 199.709 82.55C198.709 82.6167 197.859 82.6833 197.159 82.75C196.892 82.7833 196.609 82.8333 196.309 82.9C196.042 82.9667 195.792 83.0333 195.559 83.1C195.292 83.1667 195.042 83.2333 194.809 83.3C194.576 83.3667 194.392 83.4167 194.259 83.45C193.859 83.5833 193.442 83.6833 193.009 83.75C192.576 83.7833 192.009 83.65 191.309 83.35C190.909 83.25 190.442 83.0667 189.909 82.8C189.409 82.5333 188.876 82.2333 188.309 81.9C187.542 81.4 187.226 80.95 187.359 80.55C187.492 80.1167 187.959 79.95 188.759 80.05C189.426 80.15 190.276 80.2333 191.309 80.3C192.342 80.3333 193.409 80.35 194.509 80.35C196.142 80.35 197.676 80.3333 199.109 80.3C200.576 80.2333 201.709 80.0667 202.509 79.8C202.642 79.8 202.759 79.7833 202.859 79.75C202.959 79.7167 203.059 79.6833 203.159 79.65C203.192 79.65 203.226 79.6333 203.259 79.6C203.326 79.5667 203.409 79.5333 203.509 79.5C203.576 79.4667 203.642 79.4333 203.709 79.4C203.809 79.3667 203.926 79.3333 204.059 79.3C204.792 79.2667 205.542 79.2833 206.309 79.35C207.109 79.3833 207.742 79.4333 208.209 79.5C208.776 79.6333 209.092 79.95 209.159 80.45C209.226 80.9167 209.126 81.4167 208.859 81.95C208.759 82.1167 208.642 82.3 208.509 82.5C208.409 82.6667 208.292 82.8333 208.159 83C208.026 83.2 207.892 83.4 207.759 83.6C207.626 83.7667 207.509 83.9333 207.409 84.1C206.676 85.2667 205.859 86.45 204.959 87.65C204.059 88.8167 203.059 89.9333 201.959 91ZM221.709 79.85V96C221.709 98.6 221.442 100.733 220.909 102.4C220.376 104.033 219.809 104.85 219.209 104.85C218.609 104.883 218.176 104.283 217.909 103.05C217.642 101.783 217.509 100.233 217.509 98.4V91C217.309 91 217.142 91.0167 217.009 91.05C216.876 91.05 216.759 91.05 216.659 91.05C216.326 91.1167 215.909 91.2167 215.409 91.35C214.909 91.45 214.409 91.6 213.909 91.8C213.209 92.1 212.592 92.25 212.059 92.25C211.559 92.25 211.092 92.15 210.659 91.95C210.259 91.85 209.726 91.65 209.059 91.35C208.392 91.0167 207.759 90.6667 207.159 90.3C206.459 89.8333 206.176 89.4167 206.309 89.05C206.442 88.65 206.926 88.5 207.759 88.6C208.259 88.6667 209.009 88.7167 210.009 88.75C211.042 88.7833 211.959 88.8 212.759 88.8C213.159 88.8 213.559 88.8 213.959 88.8C214.359 88.8 214.742 88.7833 215.109 88.75C215.509 88.75 215.909 88.75 216.309 88.75C216.709 88.7167 217.109 88.6833 217.509 88.65V80.75C217.509 79.95 217.442 79.2833 217.309 78.75C217.176 78.2167 216.892 77.8 216.459 77.5C215.892 77.1 215.226 76.7833 214.459 76.55C213.726 76.3167 213.009 76.1333 212.309 76C212.042 75.9667 211.859 75.8333 211.759 75.6C211.659 75.3667 211.642 75.1333 211.709 74.9C211.742 74.6667 211.859 74.4667 212.059 74.3C212.259 74.1 212.542 74 212.909 74C214.176 74.0333 215.659 74.1667 217.359 74.4C219.059 74.6 220.509 74.8833 221.709 75.25C221.942 75.35 222.126 75.55 222.259 75.85C222.392 76.1167 222.409 76.4333 222.309 76.8C222.109 77.3 221.959 77.8167 221.859 78.35C221.792 78.85 221.742 79.35 221.709 79.85ZM210.509 103.75C213.676 103.75 216.242 104.55 218.209 106.15C220.176 107.717 221.159 109.85 221.159 112.55C221.159 115.15 220.176 117.267 218.209 118.9C216.242 120.533 213.676 121.35 210.509 121.35C208.942 121.35 207.509 121.133 206.209 120.7C204.909 120.3 203.776 119.7 202.809 118.9C201.842 118.133 201.092 117.2 200.559 116.1C200.026 115.033 199.759 113.85 199.759 112.55C199.759 111.217 200.026 110.017 200.559 108.95C201.092 107.85 201.842 106.917 202.809 106.15C203.776 105.383 204.909 104.8 206.209 104.4C207.542 103.967 208.976 103.75 210.509 103.75ZM210.509 106.65C208.542 106.65 206.976 107.233 205.809 108.4C204.642 109.567 204.059 111 204.059 112.7C204.059 114.3 204.642 115.65 205.809 116.75C206.976 117.883 208.542 118.45 210.509 118.45C212.476 118.45 214.009 117.883 215.109 116.75C216.209 115.65 216.759 114.3 216.759 112.7C216.759 111 216.209 109.567 215.109 108.4C214.009 107.233 212.476 106.65 210.509 106.65Z" fill="#535353"/>
<path d="M143.156 78.6C146.022 78.6 148.439 79.3167 150.406 80.75C152.406 82.1833 153.639 84.15 154.106 86.65C154.339 86.65 154.589 86.6667 154.856 86.7C155.122 86.7 155.406 86.7 155.706 86.7C155.972 86.7 156.239 86.7 156.506 86.7C156.806 86.7 157.089 86.7 157.356 86.7C158.022 86.7 158.839 86.7 159.806 86.7C160.772 86.6667 161.772 86.6333 162.806 86.6V80.75C162.806 79.95 162.739 79.2833 162.606 78.75C162.472 78.2167 162.189 77.8 161.756 77.5C161.189 77.1 160.522 76.7833 159.756 76.55C159.022 76.3167 158.306 76.1333 157.606 76C157.339 75.9667 157.156 75.8333 157.056 75.6C156.956 75.3667 156.939 75.1333 157.006 74.9C157.039 74.6667 157.156 74.4667 157.356 74.3C157.556 74.1 157.839 74 158.206 74C159.472 74.0333 160.972 74.1667 162.706 74.4C164.439 74.6 165.906 74.8833 167.106 75.25C167.306 75.35 167.472 75.55 167.606 75.85C167.739 76.1167 167.756 76.4333 167.656 76.8C167.489 77.3 167.356 77.8167 167.256 78.35C167.189 78.85 167.139 79.35 167.106 79.85V91.65C167.106 94.25 166.822 96.3833 166.256 98.05C165.689 99.6833 165.106 100.5 164.506 100.5C163.906 100.533 163.472 99.9333 163.206 98.7C162.939 97.4333 162.806 95.8833 162.806 94.05V88.9C162.406 88.9 162.072 88.9167 161.806 88.95C161.539 88.95 161.356 88.95 161.256 88.95C160.889 89.0167 160.456 89.1167 159.956 89.25C159.456 89.35 158.956 89.5 158.456 89.7C157.756 90 157.156 90.15 156.656 90.15C156.156 90.15 155.672 90.05 155.206 89.85C155.139 89.85 155.056 89.8333 154.956 89.8C154.889 89.7667 154.822 89.7333 154.756 89.7C154.656 89.7 154.556 89.6833 154.456 89.65C154.356 89.6167 154.272 89.5667 154.206 89.5C154.006 92.3 152.889 94.5333 150.856 96.2C148.822 97.8667 146.256 98.7 143.156 98.7C141.522 98.7 140.022 98.4667 138.656 98C137.322 97.5 136.156 96.8167 135.156 95.95C134.189 95.0833 133.422 94.0333 132.856 92.8C132.322 91.5333 132.056 90.15 132.056 88.65C132.056 87.1167 132.322 85.7333 132.856 84.5C133.422 83.2667 134.189 82.2167 135.156 81.35C136.156 80.4833 137.322 79.8167 138.656 79.35C140.022 78.85 141.522 78.6 143.156 78.6ZM143.156 81.4C141.056 81.4 139.406 82.0833 138.206 83.45C137.006 84.8167 136.406 86.5333 136.406 88.6C136.406 90.6333 137.006 92.35 138.206 93.75C139.406 95.1167 141.056 95.8 143.156 95.8C145.222 95.8 146.856 95.1167 148.056 93.75C149.289 92.35 149.906 90.6333 149.906 88.6C149.906 86.5333 149.289 84.8167 148.056 83.45C146.856 82.0833 145.222 81.4 143.156 81.4ZM166.956 105.25V115.65C166.956 117.15 166.706 118.367 166.206 119.3C165.706 120.233 165.122 120.7 164.456 120.7C163.856 120.7 163.406 120.483 163.106 120.05C162.839 119.617 162.706 119.25 162.706 118.95L149.206 119.05C149.072 119.35 148.789 119.8 148.356 120.4C147.922 121.033 147.406 121.35 146.806 121.35C146.272 121.35 145.806 121 145.406 120.3C145.039 119.633 144.856 118.467 144.856 116.8V107.75C144.856 107.417 144.806 107.05 144.706 106.65C144.639 106.217 144.456 105.867 144.156 105.6C143.889 105.333 143.522 105.117 143.056 104.95C142.622 104.75 142.139 104.6 141.606 104.5C141.406 104.5 141.272 104.4 141.206 104.2C141.139 104 141.122 103.8 141.156 103.6C141.189 103.367 141.289 103.167 141.456 103C141.622 102.8 141.856 102.683 142.156 102.65C143.056 102.65 144.122 102.717 145.356 102.85C146.622 102.95 147.756 103.117 148.756 103.35C148.956 103.45 149.106 103.667 149.206 104C149.339 104.3 149.356 104.617 149.256 104.95C149.189 105.083 149.139 105.317 149.106 105.65C149.072 105.95 149.056 106.267 149.056 106.6V107.85L162.706 107.75V106.3C162.706 105.967 162.656 105.6 162.556 105.2C162.489 104.8 162.306 104.467 162.006 104.2C161.739 103.933 161.339 103.7 160.806 103.5C160.306 103.3 159.772 103.15 159.206 103.05C159.006 103.05 158.856 102.95 158.756 102.75C158.689 102.55 158.672 102.333 158.706 102.1C158.739 101.867 158.822 101.65 158.956 101.45C159.122 101.25 159.356 101.133 159.656 101.1C160.556 101.1 161.689 101.167 163.056 101.3C164.456 101.433 165.656 101.617 166.656 101.85C166.856 101.95 167.006 102.167 167.106 102.5C167.239 102.8 167.256 103.117 167.156 103.45C167.122 103.517 167.089 103.617 167.056 103.75C167.056 103.883 167.039 104.033 167.006 104.2C167.006 104.367 166.989 104.55 166.956 104.75C166.956 104.917 166.956 105.083 166.956 105.25ZM162.706 116.4V110.3L149.056 110.4V116.5L162.706 116.4Z" fill="#535353"/>
<path d="M121.978 79.9V93.7C122.745 93.7 123.478 93.65 124.178 93.55C124.911 93.45 125.478 93.2 125.878 92.8C126.111 92.5 126.678 92.3333 127.578 92.3C128.511 92.2667 129.345 92.3167 130.078 92.45C130.911 92.65 131.511 92.95 131.878 93.35C132.278 93.75 132.461 94.1333 132.428 94.5C132.361 94.9 132.078 95.25 131.578 95.55C131.111 95.8167 130.445 95.95 129.578 95.95H121.978V110.15C121.978 113.75 121.761 116.633 121.328 118.8C120.928 120.967 120.278 122.05 119.378 122.05C119.011 122.117 118.711 121.9 118.478 121.4C118.278 120.9 118.111 120.233 117.978 119.4C117.878 118.567 117.795 117.6 117.728 116.5C117.695 115.433 117.678 114.317 117.678 113.15V80.85C117.678 80.05 117.595 79.3833 117.428 78.85C117.295 78.3167 117.028 77.8833 116.628 77.55C116.095 77.15 115.445 76.8333 114.678 76.6C113.945 76.3667 113.228 76.1833 112.528 76.05C112.261 76.0167 112.061 75.8833 111.928 75.65C111.828 75.4167 111.811 75.1667 111.878 74.9C111.911 74.6667 112.011 74.4667 112.178 74.3C112.378 74.1 112.661 74.0167 113.028 74.05C114.295 74.0833 115.778 74.2167 117.478 74.45C119.211 74.65 120.678 74.9333 121.878 75.3C122.145 75.4 122.345 75.5833 122.478 75.85C122.611 76.1167 122.645 76.45 122.578 76.85C122.378 77.35 122.228 77.8667 122.128 78.4C122.061 78.9 122.011 79.4 121.978 79.9ZM100.778 92.8C101.245 93.2667 101.761 93.7667 102.328 94.3C102.928 94.8 103.511 95.2833 104.078 95.75C104.611 96.2167 105.095 96.6167 105.528 96.95C105.961 97.2833 106.278 97.5 106.478 97.6C106.645 97.7 106.795 97.7833 106.928 97.85C107.095 97.9167 107.245 97.9833 107.378 98.05C107.478 98.0833 107.578 98.1333 107.678 98.2C107.811 98.2333 107.928 98.25 108.028 98.25C108.261 98.35 108.511 98.4833 108.778 98.65C109.078 98.8167 109.378 99.0333 109.678 99.3C109.978 99.6667 110.245 100.017 110.478 100.35C110.745 100.683 110.978 101.017 111.178 101.35C111.378 101.683 111.561 102 111.728 102.3C111.928 102.6 112.111 102.883 112.278 103.15C112.645 103.85 112.795 104.483 112.728 105.05C112.661 105.583 112.461 105.95 112.128 106.15C111.761 106.35 111.295 106.367 110.728 106.2C110.161 106 109.561 105.517 108.928 104.75C108.495 104.25 107.878 103.583 107.078 102.75C106.311 101.917 105.478 101.033 104.578 100.1C103.678 99.2 102.778 98.3333 101.878 97.5C100.978 96.6333 100.211 95.9333 99.5781 95.4C97.8781 97.5 96.0781 99.5333 94.1781 101.5C92.2781 103.467 90.4448 105.117 88.6781 106.45C88.0115 106.95 87.4448 107.25 86.9781 107.35C86.5115 107.45 86.1781 107.417 85.9781 107.25C85.7448 107.083 85.6448 106.833 85.6781 106.5C85.7115 106.167 85.9115 105.833 86.2781 105.5C87.6781 104.267 89.0448 102.85 90.3781 101.25C91.7448 99.6167 93.0115 97.9 94.1781 96.1C95.3115 94.3333 96.3281 92.5167 97.2281 90.65C98.1281 88.7833 98.8448 86.9667 99.3781 85.2C99.6115 84.4667 99.6115 83.8833 99.3781 83.45C99.1781 83.0167 98.6781 82.6167 97.8781 82.25C97.4115 82.05 97.0781 81.8167 96.8781 81.55C96.7115 81.2833 96.6615 81.0333 96.7281 80.8C96.7948 80.5667 96.9615 80.3833 97.2281 80.25C97.4948 80.1167 97.8448 80.1 98.2781 80.2C99.1115 80.3333 100.078 80.5167 101.178 80.75C102.311 80.9833 103.361 81.2667 104.328 81.6C104.995 81.9 105.378 82.2333 105.478 82.6C105.611 82.9667 105.628 83.35 105.528 83.75C105.428 83.95 105.311 84.1833 105.178 84.45C105.045 84.7167 104.945 84.9667 104.878 85.2C104.411 86.4333 103.828 87.7167 103.128 89.05C102.461 90.35 101.678 91.6 100.778 92.8Z" fill="#535353"/>
<path d="M65.7009 78.65C67.5342 78.65 69.2175 78.95 70.7509 79.55C72.2842 80.1167 73.6175 80.9 74.7509 81.9C75.8509 82.9 76.7175 84.1 77.3509 85.5C77.9842 86.8667 78.3009 88.35 78.3009 89.95C78.3009 92.0834 77.8175 93.95 76.8509 95.55C75.8842 97.15 74.5675 98.4 72.9009 99.3C73.4342 99.3667 74.0175 99.4334 74.6509 99.5C75.2842 99.5667 75.8175 99.65 76.2509 99.75C76.4509 99.85 76.5842 100.067 76.6509 100.4C76.7509 100.7 76.7509 101.017 76.6509 101.35C76.5509 101.583 76.4509 102.05 76.3509 102.75C76.2842 103.45 76.2509 103.95 76.2509 104.25L75.8009 111.15C76.4009 111.117 76.9175 111.05 77.3509 110.95C77.8175 110.817 78.1509 110.7 78.3509 110.6C78.5842 110.5 78.8342 110.417 79.1009 110.35C79.4009 110.283 79.6842 110.233 79.9509 110.2C80.8175 110.133 81.6675 110.117 82.5009 110.15C83.3675 110.15 84.2509 110.183 85.1509 110.25C86.1509 110.35 86.9175 110.55 87.4509 110.85C88.0175 111.117 88.3009 111.533 88.3009 112.1C88.2675 112.767 87.9509 113.217 87.3509 113.45C86.7842 113.65 86.0342 113.75 85.1009 113.75C84.0675 113.75 82.8009 113.75 81.3009 113.75C79.8342 113.717 78.3009 113.7 76.7009 113.7C75.0675 113.7 73.4509 113.7 71.8509 113.7C70.2509 113.667 68.8175 113.633 67.5509 113.6C66.5842 113.6 65.5342 113.617 64.4009 113.65C63.2675 113.683 62.1509 113.717 61.0509 113.75C59.9509 113.817 58.9009 113.883 57.9009 113.95C56.9342 114.017 56.1342 114.067 55.5009 114.1C55.2009 114.133 54.9175 114.167 54.6509 114.2C54.3842 114.267 54.1509 114.333 53.9509 114.4C53.7175 114.467 53.5009 114.533 53.3009 114.6C53.1009 114.7 52.9009 114.767 52.7009 114.8C52.2009 114.967 51.6509 115.067 51.0509 115.1C50.4842 115.167 49.7342 115.083 48.8009 114.85C48.2009 114.75 47.5009 114.55 46.7009 114.25C45.9009 113.95 45.0342 113.55 44.1009 113.05C43.1009 112.55 42.6675 112.05 42.8009 111.55C42.9675 111.017 43.7009 110.833 45.0009 111C46.5009 111.2 48.1175 111.333 49.8509 111.4C51.6175 111.467 53.3175 111.5 54.9509 111.5H56.6009L56.4509 105.95C56.4509 105.617 56.4009 105.25 56.3009 104.85C56.2009 104.45 56.0009 104.15 55.7009 103.95C55.4009 103.717 55.0175 103.5 54.5509 103.3C54.1175 103.1 53.6509 102.967 53.1509 102.9C52.8842 102.9 52.6842 102.8 52.5509 102.6C52.4509 102.367 52.4175 102.133 52.4509 101.9C52.4842 101.667 52.5842 101.45 52.7509 101.25C52.9509 101.05 53.2175 100.933 53.5509 100.9C54.4509 100.9 55.6175 100.95 57.0509 101.05C58.5175 101.117 59.8009 101.25 60.9009 101.45C61.1009 101.55 61.2509 101.767 61.3509 102.1C61.4509 102.4 61.4509 102.717 61.3509 103.05C61.3175 103.117 61.2842 103.217 61.2509 103.35C61.2509 103.483 61.2342 103.633 61.2009 103.8C61.1675 103.967 61.1342 104.15 61.1009 104.35C61.1009 104.55 61.1009 104.733 61.1009 104.9L61.1509 111.5C61.9842 111.5 62.8342 111.5 63.7009 111.5C64.5675 111.5 65.4509 111.483 66.3509 111.45C67.2175 111.45 68.0675 111.45 68.9009 111.45C69.7675 111.45 70.6009 111.433 71.4009 111.4L71.8009 104C71.8009 103.667 71.7675 103.3 71.7009 102.9C71.6675 102.5 71.5009 102.2 71.2009 102C71.0342 101.9 70.8509 101.783 70.6509 101.65C70.4509 101.517 70.2509 101.4 70.0509 101.3C69.8175 101.167 69.6175 101.05 69.4509 100.95C69.2842 100.85 69.1509 100.767 69.0509 100.7L69.0009 100.65C68.4675 100.75 67.9342 100.833 67.4009 100.9C66.8675 100.933 66.3175 100.95 65.7509 100.95C63.8842 100.95 62.1842 100.7 60.6509 100.2C59.1175 99.7 57.7842 98.9667 56.6509 98C55.5175 97.0667 54.6342 95.9167 54.0009 94.55C53.4009 93.1834 53.1009 91.65 53.1009 89.95C53.1009 88.2834 53.4009 86.7667 54.0009 85.4C54.6342 84 55.5009 82.8 56.6009 81.8C57.7342 80.8 59.0675 80.0334 60.6009 79.5C62.1342 78.9334 63.8342 78.65 65.7009 78.65ZM65.6509 81.75C64.4175 81.75 63.3175 81.9834 62.3509 82.45C61.3842 82.8834 60.5509 83.4667 59.8509 84.2C59.1842 84.9334 58.6675 85.8 58.3009 86.8C57.9342 87.7667 57.7509 88.8 57.7509 89.9C57.7509 92.2 58.4509 94.15 59.8509 95.75C61.2842 97.3167 63.2342 98.1 65.7009 98.1C68.1342 98.1 70.0675 97.3167 71.5009 95.75C72.9675 94.15 73.7009 92.2 73.7009 89.9C73.7009 88.8334 73.5009 87.8167 73.1009 86.85C72.7342 85.85 72.2009 84.9667 71.5009 84.2C70.8009 83.4667 69.9509 82.8834 68.9509 82.45C67.9509 81.9834 66.8509 81.75 65.6509 81.75Z" fill="#535353"/>
<path d="M25.5735 101.95V110.1C25.6069 113.7 25.3569 116.583 24.8235 118.75C24.3235 120.917 23.6735 122 22.8735 122C22.5069 122.033 22.1902 121.8 21.9235 121.3C21.6569 120.8 21.4569 120.133 21.3235 119.3C21.1569 118.467 21.0402 117.517 20.9735 116.45C20.9069 115.383 20.8735 114.267 20.8735 113.1V102C19.2735 102.033 17.7402 102.1 16.2735 102.2C14.8069 102.267 13.6235 102.333 12.7235 102.4C12.4235 102.433 12.1402 102.483 11.8735 102.55C11.6069 102.583 11.3735 102.633 11.1735 102.7C10.9402 102.767 10.7235 102.85 10.5235 102.95C10.3235 103.017 10.1235 103.067 9.92353 103.1C9.42353 103.267 8.87353 103.383 8.27353 103.45C7.70686 103.483 6.95686 103.383 6.02353 103.15C5.42353 103.05 4.72353 102.85 3.92353 102.55C3.12353 102.25 2.25686 101.85 1.32353 101.35C0.32353 100.85 -0.109804 100.35 0.0235294 99.85C0.190196 99.3166 0.92353 99.1333 2.22353 99.3C3.72353 99.5 5.3402 99.6333 7.07353 99.7C8.80686 99.7667 10.4735 99.8 12.0735 99.8C13.2402 99.8 14.7069 99.8 16.4735 99.8C18.2402 99.8 20.0735 99.7833 21.9735 99.75C23.8735 99.75 25.7235 99.7333 27.5235 99.7C29.3569 99.6667 30.9235 99.6333 32.2235 99.6C32.9235 99.6 33.5902 99.5166 34.2235 99.35C34.8569 99.15 35.2902 99 35.5235 98.9C35.7902 98.8 36.0569 98.7167 36.3235 98.65C36.6235 98.5833 36.9069 98.5333 37.1735 98.5C38.0402 98.4333 38.8902 98.4167 39.7235 98.45C40.5902 98.45 41.4735 98.4833 42.3735 98.55C43.3735 98.65 44.1402 98.85 44.6735 99.15C45.2402 99.4167 45.5235 99.8333 45.5235 100.4C45.4902 101.067 45.1735 101.517 44.5735 101.75C44.0069 101.95 43.2569 102.05 42.3235 102.05C41.3569 102.05 40.1902 102.05 38.8235 102.05C37.4569 102.017 36.0235 102 34.5235 102C32.9902 102 31.4402 102 29.8735 102C28.3402 101.967 26.9069 101.95 25.5735 101.95ZM24.6735 87.35C25.5069 87.5166 26.3402 87.6833 27.1735 87.85C28.0069 88.0166 28.7735 88.1833 29.4735 88.35C30.1735 88.4833 30.7902 88.6 31.3235 88.7C31.8569 88.8 32.2569 88.8667 32.5235 88.9C32.7235 88.9333 32.9069 88.95 33.0735 88.95C33.2735 88.95 33.4569 88.95 33.6235 88.95C33.7902 88.9167 33.9569 88.9 34.1235 88.9C34.2902 88.8667 34.4569 88.85 34.6235 88.85C34.8235 88.85 35.0569 88.8667 35.3235 88.9C35.6235 88.9 35.9735 88.95 36.3735 89.05C37.2069 89.2833 38.0569 89.6167 38.9235 90.05C39.8235 90.4833 40.5902 90.9 41.2235 91.3C41.4902 91.5333 41.6402 91.8333 41.6735 92.2C41.7069 92.5667 41.6069 92.8833 41.3735 93.15C41.1402 93.45 40.7569 93.65 40.2235 93.75C39.6902 93.85 39.0069 93.7667 38.1735 93.5C37.8069 93.4 37.0235 93.1833 35.8235 92.85C34.6235 92.5167 33.2402 92.1333 31.6735 91.7C30.1069 91.2666 28.4735 90.8166 26.7735 90.35C25.1069 89.8833 23.6235 89.4667 22.3235 89.1C19.8235 90.4 17.2069 91.5667 14.4735 92.6C11.7402 93.6333 9.05686 94.4167 6.42353 94.95C5.5902 95.15 4.9402 95.2 4.47353 95.1C4.0402 95 3.7402 94.85 3.57353 94.65C3.40686 94.4167 3.37353 94.1833 3.47353 93.95C3.57353 93.7166 3.75686 93.55 4.02353 93.45C6.0902 92.9167 8.22353 92.15 10.4235 91.15C12.6569 90.15 14.8402 89.0167 16.9735 87.75C19.1402 86.5167 21.2069 85.1833 23.1735 83.75C25.1735 82.3167 26.9735 80.8833 28.5735 79.45C27.6735 79.5167 26.6569 79.5833 25.5235 79.65C24.4235 79.6833 23.3235 79.7333 22.2235 79.8C21.1569 79.8667 20.1902 79.9333 19.3235 80C18.4902 80.0333 17.9069 80.05 17.5735 80.05C17.2735 80.0833 16.9735 80.1333 16.6735 80.2C16.4069 80.2666 16.1402 80.3333 15.8735 80.4C15.6402 80.5 15.4069 80.6 15.1735 80.7C14.9402 80.7666 14.7235 80.8166 14.5235 80.85C14.1569 80.9833 13.7569 81.0833 13.3235 81.15C12.9235 81.2167 12.4069 81.15 11.7735 80.95C11.3402 80.85 10.7902 80.65 10.1235 80.35C9.45686 80.0166 8.82353 79.6667 8.22353 79.3C7.35686 78.8 6.9902 78.3166 7.12353 77.85C7.25686 77.3833 7.87353 77.2 8.97353 77.3C9.10686 77.3333 9.35686 77.3667 9.72353 77.4C10.1235 77.4333 10.5735 77.4667 11.0735 77.5C11.5735 77.5333 12.1069 77.5666 12.6735 77.6C13.2735 77.6 13.8735 77.6 14.4735 77.6C15.2402 77.6 16.1902 77.6 17.3235 77.6C18.4569 77.6 19.6235 77.5833 20.8235 77.55C22.0235 77.5166 23.1902 77.4667 24.3235 77.4C25.4902 77.3333 26.4735 77.25 27.2735 77.15C27.5735 77.1167 27.8402 77.0833 28.0735 77.05C28.3069 76.9833 28.5069 76.9167 28.6735 76.85C28.7069 76.85 28.7569 76.8333 28.8235 76.8C28.9235 76.7667 29.0069 76.7333 29.0735 76.7C29.1735 76.6666 29.2735 76.6333 29.3735 76.6C29.4735 76.5667 29.5735 76.55 29.6735 76.55C30.4402 76.55 31.2069 76.5667 31.9735 76.6C32.7735 76.6333 33.4569 76.6833 34.0235 76.75C34.7235 76.85 35.1569 77.15 35.3235 77.65C35.4902 78.15 35.4069 78.6667 35.0735 79.2C34.9735 79.3667 34.8569 79.5333 34.7235 79.7C34.5902 79.8333 34.4235 79.9833 34.2235 80.15C34.0569 80.2833 33.8569 80.45 33.6235 80.65C33.3902 80.8167 33.1569 81 32.9235 81.2C31.8902 82.2 30.6735 83.2667 29.2735 84.4C27.9069 85.5 26.3735 86.4833 24.6735 87.35Z" fill="#535353"/>
<path d="M377.792 31.45C376.226 31.7167 374.492 32.0167 372.592 32.35C370.726 32.65 368.826 32.9667 366.892 33.3C364.959 33.6 363.076 33.8833 361.242 34.15C359.409 34.4167 357.792 34.6 356.392 34.7C355.926 34.7333 355.442 34.8333 354.942 35C354.476 35.1333 354.076 35.25 353.742 35.35C353.476 35.45 353.226 35.55 352.992 35.65C352.792 35.7167 352.576 35.7833 352.342 35.85C352.076 35.8833 351.792 35.9 351.492 35.9C351.226 35.8667 350.909 35.8 350.542 35.7C350.042 35.6 349.292 35.3667 348.292 35C347.326 34.6 346.392 34.15 345.492 33.65C344.426 33.0833 343.976 32.5333 344.142 32C344.342 31.4333 344.959 31.2333 345.992 31.4C346.792 31.5 347.792 31.5667 348.992 31.6C350.192 31.6 351.276 31.6 352.242 31.6C353.842 31.6 355.726 31.5333 357.892 31.4C360.092 31.2667 362.376 31.0667 364.742 30.8C367.076 30.5667 369.376 30.3 371.642 30C373.942 29.7 376.009 29.4 377.842 29.1V6.84999C377.842 6.04999 377.776 5.38332 377.642 4.84999C377.542 4.31666 377.292 3.88332 376.892 3.54999C376.359 3.14999 375.709 2.83332 374.942 2.59999C374.209 2.36666 373.492 2.18332 372.792 2.04999C372.526 2.01666 372.326 1.88332 372.192 1.64999C372.092 1.41666 372.076 1.16666 372.142 0.89999C372.176 0.666655 372.276 0.466656 372.442 0.299989C372.642 0.09999 372.926 0.0166565 373.292 0.0499894C374.559 0.0833223 376.026 0.216656 377.692 0.44999C379.392 0.649989 380.842 0.933323 382.042 1.29999C382.276 1.39999 382.459 1.58332 382.592 1.84999C382.726 2.11666 382.759 2.44999 382.692 2.84999C382.526 3.34999 382.392 3.86666 382.292 4.39999C382.226 4.89999 382.176 5.39999 382.142 5.89999V36.15C382.142 39.75 381.926 42.6333 381.492 44.8C381.092 46.9667 380.476 48.05 379.642 48.05C379.276 48.1167 378.976 47.9 378.742 47.4C378.542 46.9 378.359 46.2333 378.192 45.4C378.059 44.5667 377.959 43.6167 377.892 42.55C377.826 41.4833 377.792 40.3667 377.792 39.2V31.45ZM360.342 22.25C362.309 22.25 363.909 21.55 365.142 20.15C366.376 18.75 366.992 17.1 366.992 15.2C366.992 14.2667 366.826 13.3667 366.492 12.5C366.192 11.6333 365.742 10.85 365.142 10.15C364.576 9.48332 363.876 8.94999 363.042 8.54999C362.242 8.11666 361.342 7.89999 360.342 7.89999C358.376 7.89999 356.792 8.63332 355.592 10.1C354.392 11.5333 353.792 13.2333 353.792 15.2C353.792 16.1333 353.942 17.0333 354.242 17.9C354.576 18.7333 355.026 19.4833 355.592 20.15C356.159 20.7833 356.842 21.3 357.642 21.7C358.442 22.0667 359.342 22.25 360.342 22.25ZM360.342 5.19999C362.142 5.19999 363.726 5.49999 365.092 6.09999C366.492 6.69999 367.642 7.48332 368.542 8.44999C369.476 9.38332 370.176 10.45 370.642 11.65C371.142 12.85 371.392 14.05 371.392 15.25C371.392 16.6167 371.126 17.9 370.592 19.1C370.059 20.2667 369.309 21.3 368.342 22.2C367.376 23.1 366.209 23.8 364.842 24.3C363.509 24.8 362.009 25.05 360.342 25.05C358.609 25.05 357.059 24.8 355.692 24.3C354.326 23.7667 353.176 23.05 352.242 22.15C351.276 21.25 350.542 20.2167 350.042 19.05C349.542 17.85 349.292 16.5833 349.292 15.25C349.292 13.95 349.526 12.7 349.992 11.5C350.459 10.3 351.159 9.23332 352.092 8.29999C353.026 7.36666 354.176 6.61666 355.542 6.04999C356.942 5.48332 358.542 5.19999 360.342 5.19999Z" fill="#535353"/>
<path d="M335.865 5.89999V19.7C336.632 19.7 337.365 19.65 338.065 19.55C338.798 19.45 339.365 19.2 339.765 18.8C339.998 18.5 340.565 18.3333 341.465 18.3C342.398 18.2667 343.232 18.3167 343.965 18.45C344.798 18.65 345.398 18.95 345.765 19.35C346.165 19.75 346.348 20.1333 346.315 20.5C346.248 20.9 345.965 21.25 345.465 21.55C344.998 21.8167 344.332 21.95 343.465 21.95H335.865V36.15C335.865 39.75 335.648 42.6333 335.215 44.8C334.815 46.9667 334.165 48.05 333.265 48.05C332.898 48.1167 332.598 47.9 332.365 47.4C332.165 46.9 331.998 46.2333 331.865 45.4C331.765 44.5667 331.682 43.6 331.615 42.5C331.582 41.4333 331.565 40.3167 331.565 39.15V6.84999C331.565 6.04999 331.482 5.38332 331.315 4.84999C331.182 4.31666 330.915 3.88332 330.515 3.54999C329.982 3.14999 329.332 2.83332 328.565 2.59999C327.832 2.36666 327.115 2.18332 326.415 2.04999C326.148 2.01666 325.948 1.88332 325.815 1.64999C325.715 1.41666 325.698 1.16666 325.765 0.89999C325.798 0.666655 325.898 0.466656 326.065 0.299989C326.265 0.09999 326.548 0.0166565 326.915 0.0499894C328.182 0.0833223 329.665 0.216656 331.365 0.44999C333.098 0.649989 334.565 0.933323 335.765 1.29999C336.032 1.39999 336.232 1.58332 336.365 1.84999C336.498 2.11666 336.532 2.44999 336.465 2.84999C336.265 3.34999 336.115 3.86666 336.015 4.39999C335.948 4.89999 335.898 5.39999 335.865 5.89999ZM314.665 18.8C315.132 19.2667 315.648 19.7667 316.215 20.3C316.815 20.8 317.398 21.2833 317.965 21.75C318.498 22.2167 318.982 22.6167 319.415 22.95C319.848 23.2833 320.165 23.5 320.365 23.6C320.531 23.7 320.682 23.7833 320.815 23.85C320.982 23.9167 321.132 23.9833 321.265 24.05C321.365 24.0833 321.465 24.1333 321.565 24.2C321.698 24.2333 321.815 24.25 321.915 24.25C322.148 24.35 322.398 24.4833 322.665 24.65C322.965 24.8167 323.265 25.0333 323.565 25.3C323.865 25.6667 324.131 26.0167 324.365 26.35C324.631 26.6833 324.865 27.0167 325.065 27.35C325.265 27.6833 325.448 28 325.615 28.3C325.815 28.6 325.998 28.8833 326.165 29.15C326.532 29.85 326.681 30.4833 326.615 31.05C326.548 31.5833 326.348 31.95 326.015 32.15C325.648 32.35 325.181 32.3667 324.615 32.2C324.048 32 323.448 31.5167 322.815 30.75C322.382 30.25 321.765 29.5833 320.965 28.75C320.198 27.9167 319.365 27.0333 318.465 26.1C317.565 25.2 316.665 24.3333 315.765 23.5C314.865 22.6333 314.098 21.9333 313.465 21.4C311.765 23.5 309.965 25.5333 308.065 27.5C306.165 29.4667 304.332 31.1167 302.565 32.45C301.898 32.95 301.331 33.25 300.865 33.35C300.398 33.45 300.065 33.4167 299.865 33.25C299.631 33.0833 299.532 32.8333 299.565 32.5C299.598 32.1667 299.798 31.8333 300.165 31.5C301.565 30.2667 302.932 28.85 304.265 27.25C305.632 25.6167 306.898 23.9 308.065 22.1C309.198 20.3333 310.215 18.5167 311.115 16.65C312.015 14.7833 312.732 12.9667 313.265 11.2C313.498 10.4667 313.498 9.88332 313.265 9.44999C313.065 9.01666 312.565 8.61666 311.765 8.24999C311.298 8.04999 310.965 7.81666 310.765 7.54999C310.598 7.28332 310.548 7.03332 310.615 6.79999C310.681 6.56666 310.848 6.38332 311.115 6.24999C311.381 6.11666 311.732 6.09999 312.165 6.19999C312.998 6.33332 313.965 6.51666 315.065 6.74999C316.198 6.98332 317.248 7.26666 318.215 7.59999C318.882 7.89999 319.265 8.23332 319.365 8.59999C319.498 8.96666 319.515 9.34999 319.415 9.74999C319.315 9.94999 319.198 10.1833 319.065 10.45C318.932 10.7167 318.832 10.9667 318.765 11.2C318.298 12.4333 317.715 13.7167 317.015 15.05C316.348 16.35 315.565 17.6 314.665 18.8Z" fill="#535353"/>
<path d="M279.888 28.5C281.488 28.5 282.988 28.7333 284.388 29.2C285.788 29.6333 287.004 30.2667 288.038 31.1C289.071 31.9 289.888 32.8833 290.488 34.05C291.088 35.2167 291.388 36.5 291.388 37.9C291.388 39.3 291.088 40.5833 290.488 41.75C289.921 42.9167 289.121 43.9167 288.088 44.75C287.088 45.5833 285.871 46.2167 284.438 46.65C283.038 47.1167 281.521 47.35 279.888 47.35C278.221 47.35 276.671 47.1167 275.238 46.65C273.838 46.2167 272.638 45.5833 271.638 44.75C270.604 43.9167 269.804 42.9167 269.238 41.75C268.671 40.5833 268.388 39.3 268.388 37.9C268.388 36.5 268.671 35.2167 269.238 34.05C269.838 32.8833 270.638 31.9 271.638 31.1C272.671 30.2667 273.888 29.6333 275.288 29.2C276.688 28.7333 278.221 28.5 279.888 28.5ZM279.888 31.4C277.654 31.4 275.904 32.0167 274.638 33.25C273.404 34.45 272.788 35.9833 272.788 37.85C272.788 39.65 273.404 41.2 274.638 42.5C275.904 43.8 277.654 44.45 279.888 44.45C282.088 44.45 283.804 43.8 285.038 42.5C286.304 41.2 286.938 39.65 286.938 37.85C286.938 35.9833 286.304 34.45 285.038 33.25C283.804 32.0167 282.088 31.4 279.888 31.4ZM280.188 16V22.6C281.888 22.6 283.471 22.6 284.938 22.6C286.438 22.5667 287.738 22.5333 288.838 22.5C289.538 22.5 290.204 22.4167 290.838 22.25C291.471 22.05 291.904 21.9 292.138 21.8C292.404 21.7 292.671 21.6167 292.938 21.55C293.238 21.4833 293.521 21.4333 293.788 21.4C294.654 21.3333 295.504 21.3167 296.338 21.35C297.204 21.35 298.088 21.3833 298.988 21.45C299.988 21.55 300.754 21.7333 301.288 22C301.854 22.2333 302.138 22.6333 302.138 23.2C302.104 23.8667 301.788 24.3167 301.188 24.55C300.621 24.75 299.871 24.85 298.938 24.85C297.904 24.85 296.638 24.85 295.138 24.85C293.671 24.8167 292.138 24.8 290.538 24.8C288.904 24.8 287.288 24.8 285.688 24.8C284.088 24.7667 282.654 24.7333 281.388 24.7C280.421 24.7 279.371 24.7167 278.238 24.75C277.138 24.7833 276.054 24.8167 274.988 24.85C273.888 24.9167 272.854 24.9833 271.888 25.05C270.921 25.1167 270.121 25.1667 269.488 25.2C269.188 25.2333 268.904 25.2833 268.638 25.35C268.371 25.3833 268.138 25.4333 267.938 25.5C267.704 25.5667 267.488 25.65 267.288 25.75C267.088 25.8167 266.888 25.8667 266.688 25.9C266.188 26.0667 265.638 26.1667 265.038 26.2C264.471 26.2333 263.721 26.1333 262.788 25.9C262.188 25.8 261.488 25.6 260.688 25.3C259.888 25 259.021 24.6 258.088 24.1C257.088 23.6 256.654 23.1 256.788 22.6C256.954 22.1 257.688 21.9333 258.988 22.1C260.488 22.3 262.104 22.45 263.838 22.55C265.604 22.6167 267.288 22.65 268.888 22.65H275.788V16.75C275.788 16.45 275.754 16.0833 275.688 15.65C275.621 15.2167 275.438 14.9 275.138 14.7C274.838 14.4667 274.438 14.2667 273.938 14.1C273.471 13.9 272.938 13.7667 272.338 13.7C272.104 13.7 271.938 13.6 271.838 13.4C271.771 13.1667 271.754 12.9333 271.788 12.7C271.854 12.4667 271.971 12.25 272.138 12.05C272.338 11.85 272.604 11.7333 272.938 11.7C273.838 11.7 274.954 11.75 276.288 11.85C277.654 11.9167 278.888 12.05 279.988 12.25C280.188 12.35 280.338 12.5667 280.438 12.9C280.538 13.2 280.538 13.5167 280.438 13.85C280.371 14.0167 280.304 14.3167 280.238 14.75C280.204 15.1833 280.188 15.6 280.188 16ZM294.338 6.90001C294.204 7.43334 294.054 8.03334 293.888 8.70001C293.754 9.33335 293.604 10 293.438 10.7C293.304 11.3667 293.154 12.0167 292.988 12.65C292.821 13.2833 292.671 13.85 292.538 14.35C291.971 16.05 291.354 17.3333 290.688 18.2C290.021 19.0667 289.421 19.4333 288.888 19.3C288.354 19.1667 288.138 18.6 288.238 17.6C288.338 16.6 288.538 15.3333 288.838 13.8C288.938 13.1667 289.021 12.5 289.088 11.8C289.154 11.0667 289.221 10.3667 289.288 9.70001C289.321 9.03335 289.354 8.38335 289.388 7.75001C289.421 7.11668 289.454 6.53334 289.488 6.00001C286.854 6.10001 284.254 6.18335 281.688 6.25001C279.121 6.31668 276.938 6.36668 275.138 6.40001C274.871 6.43335 274.621 6.46668 274.388 6.50001C274.188 6.53334 273.971 6.58334 273.738 6.65001C273.538 6.68334 273.338 6.73334 273.138 6.80001C272.938 6.83335 272.754 6.86668 272.588 6.90001C272.288 6.96668 272.004 7.03334 271.738 7.10001C271.504 7.16668 271.254 7.21668 270.988 7.25001C270.688 7.28334 270.354 7.30001 269.988 7.30001C269.654 7.26668 269.254 7.16668 268.788 7.00001C268.254 6.86668 267.588 6.65001 266.788 6.35001C266.021 6.05001 265.221 5.65001 264.388 5.15001C263.788 4.81668 263.538 4.43334 263.638 4.00001C263.738 3.56668 264.288 3.40001 265.288 3.50001C266.088 3.60001 267.338 3.70001 269.038 3.80001C270.771 3.90001 272.538 3.95001 274.338 3.95001C276.438 3.95001 278.604 3.93334 280.838 3.90001C283.071 3.86668 285.221 3.76668 287.288 3.60001C287.621 3.60001 287.921 3.58334 288.188 3.55001C288.488 3.48334 288.688 3.41668 288.788 3.35001C288.854 3.31668 288.938 3.28334 289.038 3.25001C289.138 3.21668 289.254 3.16668 289.388 3.10001C289.488 3.06668 289.588 3.03334 289.688 3.00001C289.821 2.96668 289.954 2.95001 290.088 2.95001C290.754 2.95001 291.371 2.95001 291.938 2.95001C292.538 2.95001 293.088 2.96668 293.588 3.00001C294.354 3.10001 294.838 3.33335 295.038 3.70001C295.238 4.06668 295.221 4.53334 294.988 5.10001C294.854 5.33335 294.721 5.61668 294.588 5.95001C294.488 6.28335 294.404 6.60001 294.338 6.90001Z" fill="#535353"/>
<path d="M239.76 26.1V31.65C240.06 31.65 240.327 31.65 240.56 31.65C240.827 31.6167 241.077 31.6 241.31 31.6C241.51 31.5667 241.694 31.55 241.86 31.55C242.06 31.55 242.244 31.5333 242.41 31.5C242.777 31.5 243.094 31.4833 243.36 31.45C243.627 31.4167 243.81 31.3833 243.91 31.35C243.944 31.35 244.01 31.3333 244.11 31.3C244.21 31.2333 244.327 31.1833 244.46 31.15C244.56 31.1167 244.66 31.0833 244.76 31.05C244.86 31.0167 244.944 31 245.01 31C245.744 31 246.477 31.0167 247.21 31.05C247.944 31.05 248.644 31.1 249.31 31.2C249.777 31.3 250.027 31.5667 250.06 32C250.127 32.4333 250.06 32.8333 249.86 33.2C249.727 33.4667 249.594 33.7333 249.46 34C249.36 34.2667 249.294 34.5333 249.26 34.8L248.11 42.55C248.51 42.5833 248.944 42.7 249.41 42.9C249.877 43.1 250.11 43.3667 250.11 43.7C250.11 44.1 249.894 44.4 249.46 44.6C249.06 44.8333 248.51 44.95 247.81 44.95C246.31 44.95 244.66 44.95 242.86 44.95C241.06 44.9833 239.344 45 237.71 45C236.044 45.0333 234.56 45.05 233.26 45.05C231.96 45.05 231.077 45.05 230.61 45.05C230.51 45.65 230.21 46.1833 229.71 46.65C229.21 47.1167 228.81 47.35 228.51 47.35C228.01 47.35 227.577 47.0833 227.21 46.55C226.877 46.05 226.694 45.3333 226.66 44.4L225.81 35.05C225.744 34.3833 225.51 33.9333 225.11 33.7C224.744 33.4667 224.127 33.2667 223.26 33.1C223.027 33.0667 222.844 32.95 222.71 32.75C222.61 32.5167 222.577 32.2833 222.61 32.05C222.644 31.8167 222.76 31.6167 222.96 31.45C223.194 31.25 223.544 31.1333 224.01 31.1C224.544 31.1 225.144 31.1333 225.81 31.2C226.51 31.2333 227.194 31.2833 227.86 31.35C228.527 31.4167 229.16 31.4833 229.76 31.55C230.36 31.6167 230.894 31.6667 231.36 31.7H235.06V26.15C233.327 26.2167 231.627 26.3 229.96 26.4C228.327 26.4667 227.06 26.5333 226.16 26.6C225.86 26.6333 225.577 26.6833 225.31 26.75C225.044 26.7833 224.794 26.8333 224.56 26.9C224.36 26.9667 224.144 27.05 223.91 27.15C223.71 27.2167 223.51 27.2667 223.31 27.3C222.844 27.4667 222.31 27.5833 221.71 27.65C221.144 27.6833 220.377 27.5833 219.41 27.35C218.81 27.25 218.11 27.05 217.31 26.75C216.51 26.45 215.66 26.05 214.76 25.55C213.794 25.05 213.36 24.55 213.46 24.05C213.594 23.5167 214.31 23.3333 215.61 23.5C217.11 23.7 218.727 23.8333 220.46 23.9C222.227 23.9667 223.91 24 225.51 24C226.677 24 228.194 24 230.06 24C231.927 24 233.86 23.9833 235.86 23.95C237.894 23.95 239.86 23.9333 241.76 23.9C243.694 23.8667 245.31 23.8333 246.61 23.8C247.31 23.8 247.977 23.7167 248.61 23.55C249.244 23.35 249.694 23.2 249.96 23.1C250.194 23 250.46 22.9167 250.76 22.85C251.06 22.7833 251.327 22.7333 251.56 22.7C252.427 22.6333 253.294 22.6167 254.16 22.65C255.027 22.65 255.894 22.6833 256.76 22.75C257.76 22.85 258.544 23.05 259.11 23.35C259.677 23.6167 259.96 24.0333 259.96 24.6C259.894 25.2667 259.577 25.7167 259.01 25.95C258.444 26.15 257.677 26.25 256.71 26.25C255.744 26.25 254.56 26.25 253.16 26.25C251.794 26.2167 250.327 26.2 248.76 26.2C247.227 26.2 245.677 26.2 244.11 26.2C242.544 26.1667 241.094 26.1333 239.76 26.1ZM244.61 33.95L230.51 34L230.71 42.55H244.51L244.61 33.95ZM251.46 4.05001C251.427 4.81668 250.96 5.28334 250.06 5.45001C249.194 5.58334 248.227 5.61668 247.16 5.55001C245.76 5.51668 244.46 5.50001 243.26 5.50001C242.06 5.46668 240.86 5.45001 239.66 5.45001C238.16 5.45001 236.71 5.50001 235.31 5.60001C233.944 5.66668 232.81 5.75001 231.91 5.85001C231.61 5.88334 231.244 5.95001 230.81 6.05001C230.41 6.11668 230.077 6.20001 229.81 6.30001C229.577 6.40001 229.344 6.50001 229.11 6.60001C228.91 6.66668 228.66 6.71668 228.36 6.75001C228.094 6.81668 227.794 6.83334 227.46 6.80001C227.127 6.76668 226.76 6.68334 226.36 6.55001C225.794 6.41668 225.177 6.23334 224.51 6.00001C223.844 5.73334 223.11 5.35001 222.31 4.85001C221.444 4.35001 221.077 3.86668 221.21 3.40001C221.344 2.93334 221.91 2.73334 222.91 2.80001C223.444 2.86668 223.977 2.91668 224.51 2.95001C225.044 2.98334 225.627 3.01668 226.26 3.05001C226.894 3.08334 227.577 3.11668 228.31 3.15001C229.044 3.18334 229.877 3.20001 230.81 3.20001C232.377 3.23334 234.127 3.25001 236.06 3.25001C238.027 3.21668 239.777 3.13334 241.31 3.00001C241.677 3.00001 242.01 2.96668 242.31 2.90001C242.61 2.80001 242.81 2.71668 242.91 2.65001C243.044 2.61668 243.16 2.58334 243.26 2.55001C243.394 2.48334 243.527 2.43334 243.66 2.40001C243.76 2.36668 243.86 2.33334 243.96 2.30001C244.094 2.26668 244.244 2.23334 244.41 2.20001C245.11 2.13334 245.827 2.10001 246.56 2.10001C247.294 2.06668 248.027 2.08334 248.76 2.15001C249.594 2.25001 250.244 2.45001 250.71 2.75001C251.21 3.05001 251.46 3.48334 251.46 4.05001ZM228.86 17.35L228.51 12.25C228.477 11.9167 228.394 11.6 228.26 11.3C228.127 10.9667 227.96 10.7167 227.76 10.55C227.494 10.35 227.16 10.1833 226.76 10.05C226.36 9.91668 225.86 9.81668 225.26 9.75001C224.694 9.61668 224.46 9.28334 224.56 8.75001C224.66 8.18334 225.044 7.88334 225.71 7.85001C226.144 7.81668 226.66 7.81668 227.26 7.85001C227.86 7.85001 228.444 7.86668 229.01 7.90001C229.577 7.93334 230.11 7.98334 230.61 8.05001C231.11 8.08334 231.51 8.13334 231.81 8.20001C232.31 8.40001 232.644 8.63334 232.81 8.90001C232.977 9.13334 233.027 9.38334 232.96 9.65001C232.86 10.0167 232.777 10.45 232.71 10.95C232.644 11.45 232.627 12 232.66 12.6V17.4C234.16 17.4 235.76 17.4 237.46 17.4C239.16 17.3667 240.61 17.3 241.81 17.2L241.91 11.1C241.91 10.8 241.844 10.5333 241.71 10.3C241.61 10.0333 241.444 9.78334 241.21 9.55001C240.944 9.35001 240.627 9.18334 240.26 9.05001C239.894 8.91668 239.41 8.76668 238.81 8.60001C238.244 8.43334 238.027 8.08334 238.16 7.55001C238.327 7.01668 238.727 6.75001 239.36 6.75001C239.794 6.75001 240.327 6.78334 240.96 6.85001C241.594 6.88334 242.227 6.91668 242.86 6.95001C243.494 7.01668 244.077 7.10001 244.61 7.20001C245.144 7.26668 245.56 7.35001 245.86 7.45001C246.327 7.65001 246.61 7.86668 246.71 8.10001C246.844 8.33335 246.877 8.58334 246.81 8.85001C246.71 9.18334 246.577 9.63334 246.41 10.2C246.277 10.7333 246.194 11.25 246.16 11.75L245.76 16.35H245.91C246.61 16.2833 247.327 16.25 248.06 16.25C248.794 16.2167 249.527 16.2333 250.26 16.3C251.094 16.4 251.744 16.6 252.21 16.9C252.71 17.2 252.96 17.6333 252.96 18.2C252.927 18.9667 252.46 19.4333 251.56 19.6C250.694 19.7333 249.727 19.7667 248.66 19.7C247.26 19.6667 245.96 19.65 244.76 19.65C243.56 19.6167 242.36 19.6 241.16 19.6C240.394 19.6 239.494 19.6167 238.46 19.65C237.427 19.6833 236.377 19.7167 235.31 19.75C234.277 19.7833 233.31 19.8333 232.41 19.9C231.51 19.9333 230.844 19.9667 230.41 20C230.11 20.0333 229.744 20.1 229.31 20.2C228.91 20.2667 228.577 20.35 228.31 20.45C228.077 20.55 227.844 20.65 227.61 20.75C227.41 20.8167 227.16 20.8667 226.86 20.9C226.594 20.9667 226.294 20.9833 225.96 20.95C225.627 20.9167 225.26 20.8333 224.86 20.7C224.294 20.5667 223.677 20.3833 223.01 20.15C222.344 19.8833 221.61 19.5 220.81 19C219.944 18.5 219.577 18.0167 219.71 17.55C219.844 17.0833 220.41 16.8833 221.41 16.95C221.91 17.0167 222.41 17.0667 222.91 17.1C223.444 17.1333 224.01 17.1667 224.61 17.2C225.21 17.2333 225.844 17.2667 226.51 17.3C227.21 17.3333 227.994 17.35 228.86 17.35Z" fill="#535353"/>
<path d="M208.233 5.85V16.95C208.933 16.9167 209.65 16.8333 210.383 16.7C211.15 16.5667 211.733 16.3 212.133 15.9C212.333 15.6667 212.916 15.5333 213.883 15.5C214.85 15.4667 215.733 15.5 216.533 15.6C217.333 15.8 217.916 16.1 218.283 16.5C218.65 16.9 218.8 17.2833 218.733 17.65C218.633 18.05 218.333 18.4 217.833 18.7C217.366 18.9667 216.7 19.1 215.833 19.1H208.233V28.05C208.233 30.75 207.966 32.9667 207.433 34.7C206.933 36.4333 206.316 37.3 205.583 37.3C204.95 37.3333 204.516 36.6667 204.283 35.3C204.05 33.9333 203.933 32.3 203.933 30.4V6.75C203.933 5.95 203.866 5.28333 203.733 4.75C203.6 4.21667 203.316 3.8 202.883 3.5C202.316 3.1 201.65 2.78333 200.883 2.55C200.15 2.31667 199.433 2.13333 198.733 2C198.466 1.96667 198.283 1.83333 198.183 1.6C198.083 1.36667 198.066 1.13333 198.133 0.9C198.166 0.666665 198.283 0.466666 198.483 0.299999C198.683 0.0999998 198.966 0 199.333 0C200.6 0.0333329 202.1 0.166666 203.833 0.400001C205.566 0.6 207.033 0.883332 208.233 1.25C208.466 1.35 208.65 1.55 208.783 1.85C208.916 2.11667 208.933 2.43333 208.833 2.8C208.633 3.3 208.483 3.81667 208.383 4.35C208.316 4.85 208.266 5.35 208.233 5.85ZM186.883 16.35C187.316 16.7167 187.766 17.0667 188.233 17.4C188.733 17.7333 189.2 18.05 189.633 18.35C190.066 18.65 190.433 18.9167 190.733 19.15C191.066 19.35 191.316 19.5 191.483 19.6C191.683 19.7333 191.866 19.8333 192.033 19.9C192.233 19.9667 192.4 20.0167 192.533 20.05C192.666 20.0833 192.783 20.1167 192.883 20.15C192.983 20.15 193.083 20.15 193.183 20.15C193.283 20.2167 193.383 20.2667 193.483 20.3C193.616 20.3333 193.733 20.3667 193.833 20.4C193.966 20.4667 194.083 20.5333 194.183 20.6C194.283 20.6333 194.4 20.7 194.533 20.8C195.266 21.4667 195.9 22.1833 196.433 22.95C196.966 23.6833 197.383 24.35 197.683 24.95C197.916 25.55 198.016 26.0833 197.983 26.55C197.95 27.0167 197.816 27.35 197.583 27.55C197.316 27.75 196.95 27.7833 196.483 27.65C196.016 27.5167 195.483 27.1333 194.883 26.5C194.383 26.1 193.766 25.5833 193.033 24.95C192.3 24.2833 191.5 23.5833 190.633 22.85C189.8 22.15 188.933 21.4333 188.033 20.7C187.133 19.9667 186.3 19.3 185.533 18.7C183.833 20.6667 181.983 22.5 179.983 24.2C178.016 25.9 176.05 27.3 174.083 28.4C172.75 29.2667 171.85 29.5 171.383 29.1C170.916 28.7 171.033 28.1833 171.733 27.55C173.2 26.5167 174.616 25.3333 175.983 24C177.35 22.6333 178.633 21.1833 179.833 19.65C181 18.1167 182.05 16.55 182.983 14.95C183.95 13.3167 184.75 11.6833 185.383 10.05C185.683 9.25 185.7 8.61667 185.433 8.15C185.2 7.68333 184.633 7.26667 183.733 6.9C182.866 6.46667 182.516 5.98333 182.683 5.45C182.883 4.91667 183.433 4.7 184.333 4.8C185.233 4.93333 186.166 5.13333 187.133 5.4C188.133 5.66666 189.116 6 190.083 6.4C190.683 6.7 191.016 7.03333 191.083 7.4C191.183 7.76667 191.183 8.16666 191.083 8.6C191.05 8.73333 191 8.88333 190.933 9.05C190.9 9.18333 190.85 9.31667 190.783 9.45C190.716 9.61667 190.65 9.78333 190.583 9.95C190.516 10.0833 190.466 10.2 190.433 10.3C189.966 11.3333 189.433 12.3667 188.833 13.4C188.233 14.4 187.583 15.3833 186.883 16.35ZM191.283 36.55V41.65C191.283 42.25 191.466 42.65 191.833 42.85C192.233 43.0833 192.683 43.2 193.183 43.2L201.383 43.1C201.916 43.1 202.5 43.05 203.133 42.95C203.8 42.8833 204.466 42.6833 205.133 42.35C205.233 42.2833 205.4 42.1833 205.633 42.05C205.866 41.95 206.133 41.8833 206.433 41.85C207.1 41.8167 207.8 41.8167 208.533 41.85C209.266 41.8833 209.933 41.9333 210.533 42C211.2 42.1 211.7 42.3167 212.033 42.65C212.4 43.0167 212.583 43.4 212.583 43.8C212.583 44.2 212.4 44.55 212.033 44.85C211.7 45.1833 211.183 45.35 210.483 45.35L191.633 45.55C190.3 45.5833 189.133 45.3667 188.133 44.9C187.133 44.4333 186.633 43.4 186.633 41.8V36.95C186.633 36.6167 186.566 36.2667 186.433 35.9C186.333 35.5 186.133 35.2 185.833 35C185.466 34.8 185.016 34.6333 184.483 34.5C183.95 34.3333 183.3 34.2 182.533 34.1C182.3 34.1 182.133 34 182.033 33.8C181.966 33.5667 181.95 33.3333 181.983 33.1C182.05 32.8667 182.166 32.65 182.333 32.45C182.533 32.2167 182.8 32.0833 183.133 32.05C183.566 32.05 184.116 32.05 184.783 32.05C185.45 32.05 186.166 32.0667 186.933 32.1C187.666 32.1333 188.383 32.1833 189.083 32.25C189.816 32.2833 190.466 32.35 191.033 32.45C191.233 32.55 191.383 32.7667 191.483 33.1C191.583 33.4 191.583 33.7167 191.483 34.05C191.416 34.25 191.366 34.6167 191.333 35.15C191.3 35.6833 191.283 36.15 191.283 36.55Z" fill="#535353"/>
<path d="M154.106 27.6V36.1C154.139 39.7 153.889 42.5833 153.356 44.75C152.856 46.9167 152.206 48 151.406 48C151.039 48.0333 150.722 47.8 150.456 47.3C150.189 46.8 149.989 46.1333 149.856 45.3C149.689 44.4667 149.572 43.5167 149.506 42.45C149.439 41.3833 149.406 40.2667 149.406 39.1V27.6C147.806 27.6333 146.239 27.7 144.706 27.8C143.172 27.8667 141.956 27.95 141.056 28.05C140.756 28.0833 140.472 28.1333 140.206 28.2C139.939 28.2333 139.706 28.2833 139.506 28.35C139.272 28.4167 139.056 28.5 138.856 28.6C138.656 28.6667 138.456 28.7167 138.256 28.75C137.756 28.9167 137.206 29.0333 136.606 29.1C136.039 29.1333 135.289 29.0333 134.356 28.8C133.756 28.7 133.056 28.5 132.256 28.2C131.456 27.9 130.589 27.5 129.656 27C128.656 26.5 128.222 26 128.356 25.5C128.522 24.9667 129.256 24.7833 130.556 24.95C132.056 25.15 133.672 25.2833 135.406 25.35C137.139 25.4167 138.806 25.45 140.406 25.45C141.572 25.45 143.039 25.45 144.806 25.45C146.572 25.45 148.406 25.4333 150.306 25.4C152.206 25.4 154.056 25.3833 155.856 25.35C157.689 25.3167 159.256 25.2833 160.556 25.25C161.256 25.25 161.922 25.1667 162.556 25C163.189 24.8 163.622 24.65 163.856 24.55C164.122 24.45 164.389 24.3667 164.656 24.3C164.956 24.2333 165.239 24.1833 165.506 24.15C166.372 24.0833 167.222 24.0667 168.056 24.1C168.922 24.1 169.806 24.1333 170.706 24.2C171.706 24.3 172.472 24.5 173.006 24.8C173.572 25.0667 173.856 25.4833 173.856 26.05C173.822 26.7167 173.506 27.1667 172.906 27.4C172.339 27.6 171.589 27.7 170.656 27.7C169.722 27.7 168.572 27.7 167.206 27.7C165.872 27.6667 164.456 27.65 162.956 27.65C161.456 27.65 159.939 27.65 158.406 27.65C156.872 27.6167 155.439 27.6 154.106 27.6ZM151.956 9.74998C152.656 9.98332 153.439 10.25 154.306 10.55C155.206 10.85 156.089 11.1333 156.956 11.4C157.789 11.7 158.572 11.9667 159.306 12.2C160.039 12.4333 160.589 12.6 160.956 12.7C161.222 12.8 161.456 12.8667 161.656 12.9C161.889 12.9333 162.106 12.9667 162.306 13C162.506 13 162.689 13 162.856 13C163.056 12.9667 163.239 12.95 163.406 12.95C163.606 12.95 163.856 12.9833 164.156 13.05C164.456 13.0833 164.756 13.1667 165.056 13.3C165.656 13.6 166.356 14 167.156 14.5C167.956 14.9667 168.606 15.45 169.106 15.95C170.039 17.05 170.189 17.9 169.556 18.5C168.922 19.0667 167.839 19 166.306 18.3C165.572 18.0333 164.506 17.6167 163.106 17.05C161.739 16.45 160.272 15.8333 158.706 15.2C157.139 14.5333 155.589 13.8833 154.056 13.25C152.522 12.5833 151.256 12.0333 150.256 11.6C147.989 13.5 145.489 15.2 142.756 16.7C140.056 18.1667 137.372 19.25 134.706 19.95C133.872 20.2167 133.222 20.3167 132.756 20.25C132.322 20.1833 132.039 20.05 131.906 19.85C131.806 19.65 131.839 19.4167 132.006 19.15C132.172 18.8833 132.456 18.6667 132.856 18.5C134.322 18 135.872 17.3 137.506 16.4C139.172 15.5 140.772 14.4667 142.306 13.3C143.806 12.1 145.206 10.8167 146.506 9.44999C147.806 8.08332 148.856 6.66665 149.656 5.19999C149.956 4.69998 149.956 4.28332 149.656 3.94998C149.389 3.58332 148.806 3.23332 147.906 2.89999C147.006 2.49999 146.639 2.03332 146.806 1.49999C147.006 0.933318 147.572 0.716651 148.506 0.849985C149.506 1.01665 150.556 1.28332 151.656 1.64998C152.756 2.01665 153.789 2.38332 154.756 2.74998C155.356 3.04998 155.722 3.39998 155.856 3.79998C155.989 4.19998 155.972 4.59998 155.806 4.99998C155.706 5.19998 155.539 5.46665 155.306 5.79998C155.072 6.13332 154.872 6.39998 154.706 6.59999C154.306 7.16665 153.889 7.69998 153.456 8.19999C153.022 8.69999 152.522 9.21665 151.956 9.74998Z" fill="#535353"/>
<path d="M111.478 17.15H111.228V23.5C111.928 23.5 112.595 23.5 113.228 23.5C113.895 23.4667 114.511 23.45 115.078 23.45C115.678 23.4167 116.228 23.4 116.728 23.4C117.261 23.4 117.745 23.3833 118.178 23.35C118.878 23.35 119.545 23.2667 120.178 23.1C120.811 22.9 121.261 22.75 121.528 22.65C121.761 22.55 122.028 22.4667 122.328 22.4C122.628 22.3333 122.895 22.2833 123.128 22.25C123.995 22.1833 124.861 22.1667 125.728 22.2C126.595 22.2 127.461 22.2333 128.328 22.3C129.328 22.4 130.095 22.6 130.628 22.9C131.195 23.1667 131.478 23.5833 131.478 24.15C131.445 24.8167 131.128 25.2667 130.528 25.5C129.961 25.7 129.211 25.8 128.278 25.8C127.245 25.8 125.961 25.8 124.428 25.8C122.895 25.7667 121.278 25.75 119.578 25.75C117.878 25.75 116.195 25.75 114.528 25.75C112.861 25.7167 111.395 25.6833 110.128 25.65C109.161 25.65 108.095 25.6667 106.928 25.7C105.795 25.7333 104.661 25.7667 103.528 25.8C102.428 25.8667 101.361 25.9333 100.328 26C99.3281 26.0667 98.5115 26.1167 97.8781 26.15C97.5781 26.1833 97.2948 26.2333 97.0281 26.3C96.7615 26.3333 96.5115 26.3833 96.2781 26.45C96.0781 26.5167 95.8615 26.6 95.6281 26.7C95.4281 26.7667 95.2281 26.8167 95.0281 26.85C94.5615 27.0167 94.0281 27.1333 93.4281 27.2C92.8615 27.2333 92.0948 27.1333 91.1281 26.9C90.5281 26.8 89.8281 26.6 89.0281 26.3C88.2281 26 87.3781 25.6 86.4781 25.1C85.5115 24.6 85.0781 24.1 85.1781 23.6C85.3115 23.0667 86.0281 22.8833 87.3281 23.05C88.8281 23.25 90.4448 23.3833 92.1781 23.45C93.9448 23.5167 95.6281 23.55 97.2281 23.55C98.2948 23.55 99.6281 23.55 101.228 23.55C102.861 23.55 104.628 23.5333 106.528 23.5V17.2L100.478 17.25C99.0781 17.2833 97.8615 17.0833 96.8281 16.65C95.7948 16.1833 95.2781 15.1667 95.2781 13.6V7.50001C95.2781 7.03334 95.2115 6.61667 95.0781 6.25001C94.9448 5.85 94.7115 5.55 94.3781 5.35C93.9781 5.11667 93.4281 4.91667 92.7281 4.75001C92.0615 4.58334 91.4281 4.46667 90.8281 4.40001C90.5948 4.40001 90.4281 4.30001 90.3281 4.10001C90.2615 3.86667 90.2448 3.61667 90.2781 3.35001C90.3115 3.11667 90.4115 2.90001 90.5781 2.70001C90.7781 2.46667 91.0448 2.33334 91.3781 2.30001C92.5781 2.26667 93.9615 2.30001 95.5281 2.4C97.1281 2.46667 98.5615 2.60001 99.8281 2.80001C100.061 2.86667 100.228 3.06667 100.328 3.40001C100.428 3.70001 100.428 4.01667 100.328 4.35001C100.228 4.58334 100.128 4.96667 100.028 5.50001C99.9615 6.00001 99.9281 6.5 99.9281 7V13.3C99.9281 13.9 100.145 14.3 100.578 14.5C101.011 14.7 101.445 14.8 101.878 14.8L111.728 14.65C112.128 14.65 112.678 14.6167 113.378 14.55C114.111 14.45 114.828 14.2 115.528 13.8C115.661 13.7333 115.828 13.6667 116.028 13.6C116.261 13.5333 116.495 13.4833 116.728 13.45C117.461 13.3833 118.295 13.3667 119.228 13.4C120.161 13.4 120.928 13.4333 121.528 13.5C122.228 13.6 122.761 13.85 123.128 14.25C123.495 14.6167 123.678 15.0167 123.678 15.45C123.678 15.85 123.495 16.2167 123.128 16.55C122.761 16.8833 122.195 17.05 121.428 17.05L111.478 17.15ZM108.728 28.7C110.328 28.7 111.828 28.9333 113.228 29.4C114.628 29.8333 115.845 30.45 116.878 31.25C117.911 32.05 118.728 33.0333 119.328 34.2C119.928 35.3333 120.228 36.6 120.228 38C120.228 39.4 119.928 40.6667 119.328 41.8C118.761 42.9667 117.961 43.9667 116.928 44.8C115.928 45.6 114.711 46.2167 113.278 46.65C111.878 47.1167 110.361 47.35 108.728 47.35C107.061 47.35 105.511 47.1167 104.078 46.65C102.678 46.2167 101.478 45.6 100.478 44.8C99.4448 43.9667 98.6448 42.9667 98.0781 41.8C97.5115 40.6667 97.2281 39.4 97.2281 38C97.2281 36.6 97.5115 35.3333 98.0781 34.2C98.6781 33.0333 99.4781 32.05 100.478 31.25C101.511 30.45 102.728 29.8333 104.128 29.4C105.528 28.9333 107.061 28.7 108.728 28.7ZM108.728 31.6C106.528 31.6 104.795 32.2 103.528 33.4C102.261 34.5667 101.628 36.0833 101.628 37.95C101.628 39.75 102.261 41.2833 103.528 42.55C104.795 43.8167 106.528 44.45 108.728 44.45C110.928 44.45 112.645 43.8167 113.878 42.55C115.145 41.2833 115.778 39.75 115.778 37.95C115.778 36.0833 115.145 34.5667 113.878 33.4C112.645 32.2 110.928 31.6 108.728 31.6Z" fill="#535353"/>
<path d="M59.6008 46.15C58.9008 46.15 58.2341 46.1167 57.6008 46.05C57.0008 46.0167 56.4508 45.8833 55.9508 45.65C55.4841 45.4167 55.1174 45.0667 54.8508 44.6C54.5841 44.1667 54.4508 43.55 54.4508 42.75V40.5C54.4508 39.8 54.2008 39.3167 53.7008 39.05C53.2341 38.75 52.6008 38.5667 51.8008 38.5C51.4674 38.5 51.2174 38.4 51.0508 38.2C50.9174 37.9667 50.8674 37.7333 50.9008 37.5C50.9341 37.2333 51.0341 37 51.2008 36.8C51.3674 36.6 51.6174 36.4833 51.9508 36.45C52.6841 36.45 53.7674 36.4833 55.2008 36.55C56.6674 36.6167 58.0174 36.7333 59.2508 36.9C59.8508 36.9333 60.8174 36.95 62.1508 36.95C63.4841 36.95 64.9008 36.9333 66.4008 36.9C67.9008 36.9 69.3174 36.9 70.6508 36.9C72.0174 36.8667 73.0174 36.8333 73.6508 36.8L73.9008 32C73.3674 32 72.4841 32.0167 71.2508 32.05C70.0508 32.05 68.8008 32.05 67.5008 32.05C66.2008 32.05 64.9841 32.0667 63.8508 32.1C62.7508 32.1 62.0341 32.1 61.7008 32.1C61.1008 32.1667 60.4341 32.3167 59.7008 32.55C59.0008 32.75 58.5674 32.8833 58.4008 32.95C58.1341 33.05 57.7841 33.1333 57.3508 33.2C56.9508 33.2667 56.4508 33.1833 55.8508 32.95C55.3508 32.7833 54.7174 32.5167 53.9508 32.15C53.1841 31.75 52.5508 31.35 52.0508 30.95C51.5841 30.5833 51.4175 30.2167 51.5508 29.85C51.6841 29.4833 52.1008 29.35 52.8008 29.45C53.7341 29.5833 54.8008 29.7 56.0008 29.8C57.2341 29.8667 58.4008 29.9 59.5008 29.9C59.6675 29.9 59.9008 29.9167 60.2008 29.95C60.5341 29.95 60.9008 29.95 61.3008 29.95C61.7341 29.95 62.1841 29.95 62.6508 29.95C63.1508 29.95 63.6841 29.95 64.2508 29.95C64.1174 29.55 64.0175 29.1167 63.9508 28.65C63.8841 28.15 63.8508 27.6667 63.8508 27.2V24.9C62.1508 24.9333 60.4841 25 58.8508 25.1C57.2508 25.1667 56.0008 25.25 55.1008 25.35C54.8008 25.3833 54.5175 25.4333 54.2508 25.5C53.9841 25.5333 53.7341 25.5833 53.5008 25.65C53.3008 25.7167 53.0841 25.8 52.8508 25.9C52.6508 25.9667 52.4508 26.0167 52.2508 26.05C51.7841 26.2167 51.2508 26.3333 50.6508 26.4C50.0841 26.4333 49.3174 26.3333 48.3508 26.1C47.7508 26 47.0508 25.8 46.2508 25.5C45.4508 25.2 44.6008 24.8 43.7008 24.3C42.7341 23.8 42.3008 23.3 42.4008 22.8C42.5341 22.2667 43.2508 22.0833 44.5508 22.25C46.0508 22.45 47.6674 22.5833 49.4008 22.65C51.1674 22.7167 52.8508 22.75 54.4508 22.75C55.6174 22.75 57.1174 22.75 58.9508 22.75C60.8174 22.75 62.7508 22.7333 64.7508 22.7C66.7508 22.7 68.7008 22.6833 70.6008 22.65C72.5008 22.6167 74.1008 22.5833 75.4008 22.55C76.1008 22.55 76.7674 22.4667 77.4008 22.3C78.0341 22.1 78.4841 21.95 78.7508 21.85C78.9841 21.75 79.2508 21.6667 79.5508 21.6C79.8508 21.5333 80.1174 21.4833 80.3508 21.45C81.2174 21.3833 82.0841 21.3667 82.9508 21.4C83.8175 21.4 84.6841 21.4333 85.5508 21.5C86.5508 21.6 87.3175 21.8 87.8508 22.1C88.4175 22.3667 88.7008 22.7833 88.7008 23.35C88.6674 24.0167 88.3508 24.4667 87.7508 24.7C87.1841 24.9 86.4341 25 85.5008 25C84.5674 25 83.4008 25 82.0008 25C80.6341 24.9667 79.1841 24.95 77.6508 24.95C76.0841 24.95 74.5008 24.95 72.9008 24.95C71.3341 24.9167 69.8841 24.9 68.5508 24.9C68.5508 26.1 68.4675 27.1167 68.3008 27.95C68.1675 28.7833 67.9841 29.45 67.7508 29.95C68.4174 29.95 69.0341 29.95 69.6008 29.95C70.2008 29.9167 70.7341 29.8833 71.2008 29.85C71.7008 29.8167 72.1175 29.7667 72.4508 29.7C72.8175 29.6333 73.0508 29.5667 73.1508 29.5C73.1841 29.5 73.2341 29.4833 73.3008 29.45C73.4008 29.4167 73.5008 29.3667 73.6008 29.3C73.6674 29.2667 73.7341 29.2333 73.8008 29.2C73.9008 29.1667 74.0008 29.1333 74.1008 29.1C74.7675 29.0333 75.5341 29.0167 76.4008 29.05C77.2674 29.05 77.9508 29.1 78.4508 29.2C78.9508 29.3333 79.2341 29.5667 79.3008 29.9C79.3674 30.2333 79.3508 30.55 79.2508 30.85C79.1508 31.05 79.0508 31.3 78.9508 31.6C78.8508 31.8667 78.7674 32.1333 78.7008 32.4L77.5008 36.75C78.0674 36.7833 78.5008 36.9 78.8008 37.1C79.1008 37.3 79.2508 37.55 79.2508 37.85C79.2508 38.25 79.1175 38.5667 78.8508 38.8C78.5841 39 77.9674 39.1 77.0008 39.1C76.2674 39.1 75.0341 39.1167 73.3008 39.15C71.6008 39.15 69.7841 39.1667 67.8508 39.2C65.9508 39.2333 64.1508 39.25 62.4508 39.25C60.7841 39.25 59.6508 39.25 59.0508 39.25V42.3C59.0508 42.8667 59.2175 43.25 59.5508 43.45C59.9175 43.6833 60.3841 43.8 60.9508 43.8L70.4008 43.7C71.0008 43.7 71.6175 43.6667 72.2508 43.6C72.8841 43.5333 73.5008 43.35 74.1008 43.05C74.2675 42.95 74.4508 42.85 74.6508 42.75C74.8508 42.6833 75.0841 42.6333 75.3508 42.6C76.0175 42.5667 76.8008 42.55 77.7008 42.55C78.6008 42.5833 79.3008 42.6167 79.8008 42.65C80.4674 42.75 80.9674 42.9667 81.3008 43.3C81.6674 43.6667 81.8508 44.05 81.8508 44.45C81.8175 44.85 81.6008 45.2 81.2008 45.5C80.8008 45.8333 80.2008 46 79.4008 46L59.6008 46.15ZM65.6508 1.29999C67.2841 1.29999 68.8008 1.53332 70.2008 1.99999C71.6008 2.43332 72.8008 3.06665 73.8008 3.89999C74.8341 4.73332 75.6341 5.71665 76.2008 6.84999C76.7674 7.98332 77.0508 9.24999 77.0508 10.65C77.0508 13.4167 75.9841 15.6 73.8508 17.2C71.7175 18.7667 69.0008 19.55 65.7008 19.55C64.0341 19.55 62.5008 19.35 61.1008 18.95C59.7341 18.55 58.5508 17.9667 57.5508 17.2C56.5508 16.4333 55.7674 15.5 55.2008 14.4C54.6341 13.3 54.3508 12.05 54.3508 10.65C54.3508 9.24999 54.6174 7.98332 55.1508 6.84999C55.7174 5.71665 56.5008 4.73332 57.5008 3.89999C58.5008 3.06665 59.6841 2.43332 61.0508 1.99999C62.4508 1.53332 63.9841 1.29999 65.6508 1.29999ZM65.6508 4.09999C63.4174 4.09999 61.7008 4.74999 60.5008 6.04999C59.3341 7.31665 58.7508 8.88332 58.7508 10.75C58.7508 12.5167 59.3341 14 60.5008 15.2C61.7008 16.3667 63.4174 16.95 65.6508 16.95C67.8508 16.95 69.5674 16.3667 70.8008 15.2C72.0341 14 72.6508 12.5167 72.6508 10.75C72.6508 8.88332 72.0341 7.31665 70.8008 6.04999C69.5674 4.74999 67.8508 4.09999 65.6508 4.09999Z" fill="#535353"/>
<path d="M34.5236 19C33.9236 19 33.4069 19.0167 32.9736 19.05C32.5735 19.0833 32.2902 19.1 32.1235 19.1C31.7569 19.1667 31.3236 19.2667 30.8235 19.4C30.3569 19.5 29.8735 19.65 29.3735 19.85C28.7069 20.2167 28.1235 20.3833 27.6236 20.35C27.1569 20.3167 26.6902 20.2 26.2236 20C25.8569 19.9 25.3402 19.7 24.6735 19.4C24.0069 19.0667 23.3736 18.7167 22.7736 18.35C22.0402 17.8833 21.7402 17.45 21.8735 17.05C22.0069 16.65 22.4735 16.5167 23.2735 16.65C23.7735 16.7167 24.5235 16.75 25.5235 16.75C26.5569 16.75 27.4735 16.75 28.2735 16.75C29.0735 16.75 30.0402 16.75 31.1736 16.75C32.3069 16.75 33.4236 16.7333 34.5236 16.7V6.84999C34.5236 6.04999 34.4402 5.38332 34.2736 4.84999C34.1402 4.31666 33.8736 3.88332 33.4736 3.54999C32.9069 3.14999 32.2569 2.83332 31.5236 2.59999C30.7902 2.36666 30.0735 2.18332 29.3735 2.04999C29.1069 2.01666 28.9069 1.88332 28.7736 1.64999C28.6736 1.41666 28.6569 1.16666 28.7235 0.89999C28.7569 0.666655 28.8569 0.466656 29.0236 0.299989C29.2235 0.09999 29.5069 0.0166565 29.8735 0.0499894C31.1402 0.0833223 32.6236 0.216656 34.3236 0.44999C36.0569 0.649989 37.5236 0.933323 38.7236 1.29999C38.9569 1.39999 39.1402 1.59999 39.2736 1.89999C39.4402 2.16666 39.4736 2.49999 39.3736 2.89999C39.2069 3.36666 39.0736 3.86666 38.9736 4.39999C38.8736 4.89999 38.8069 5.39999 38.7736 5.89999V36.15C38.7736 39.75 38.5569 42.6333 38.1236 44.8C37.6902 46.9667 37.0569 48.05 36.2236 48.05C35.8569 48.1167 35.5569 47.9 35.3236 47.4C35.1236 46.9 34.9569 46.2333 34.8236 45.4C34.6902 44.5667 34.6069 43.6167 34.5736 42.55C34.5402 41.4833 34.5236 40.3667 34.5236 39.2V19ZM16.1735 18.65C16.6402 19.1167 17.1235 19.6 17.6235 20.1C18.1569 20.5667 18.6569 21.0167 19.1235 21.45C19.5902 21.8833 20.0069 22.25 20.3735 22.55C20.7402 22.85 21.0069 23.05 21.1735 23.15C21.5069 23.3833 21.7902 23.55 22.0236 23.65C22.2569 23.75 22.4902 23.8167 22.7236 23.85C22.8236 23.9167 22.9236 24 23.0236 24.1C23.1569 24.1667 23.2902 24.2333 23.4235 24.3C23.5569 24.4 23.6902 24.5167 23.8235 24.65C23.9569 24.75 24.1069 24.8667 24.2736 25C24.5736 25.3667 24.8402 25.7333 25.0736 26.1C25.3069 26.4333 25.5069 26.7667 25.6735 27.1C25.8735 27.4333 26.0402 27.7667 26.1735 28.1C26.3402 28.4 26.5069 28.6833 26.6735 28.95C27.0069 29.6833 27.1236 30.3167 27.0236 30.85C26.9569 31.3833 26.7402 31.75 26.3735 31.95C26.0069 32.1167 25.5402 32.0833 24.9735 31.85C24.4402 31.6167 23.8735 31.1 23.2735 30.3C22.8735 29.8667 22.3402 29.2667 21.6735 28.5C21.0402 27.7 20.3402 26.8667 19.5735 26C18.7735 25.1333 17.9735 24.2833 17.1735 23.45C16.3735 22.5833 15.6402 21.85 14.9735 21.25C13.3735 23.25 11.6402 25.1833 9.77355 27.05C7.94022 28.8833 6.07355 30.4333 4.17355 31.7C3.50688 32.2333 2.95688 32.5667 2.52355 32.7C2.09022 32.8 1.77355 32.7833 1.57355 32.65C1.37355 32.5167 1.29022 32.3 1.32355 32C1.39022 31.6667 1.60688 31.35 1.97355 31.05C3.37355 29.95 4.75688 28.5667 6.12355 26.9C7.49022 25.2 8.75688 23.4 9.92355 21.5C11.0902 19.6333 12.1069 17.75 12.9735 15.85C13.8402 13.9167 14.4902 12.15 14.9235 10.55C15.1236 9.74999 15.1236 9.13332 14.9235 8.69999C14.7569 8.26666 14.2735 7.88332 13.4735 7.54999C13.0069 7.34999 12.6735 7.11666 12.4735 6.84999C12.3069 6.54999 12.2569 6.28332 12.3235 6.04999C12.3902 5.81666 12.5402 5.63332 12.7735 5.49999C13.0402 5.36666 13.3735 5.34999 13.7735 5.44999C14.6069 5.58332 15.5902 5.76666 16.7236 5.99999C17.8569 6.23332 18.8902 6.51666 19.8235 6.84999C20.4569 7.14999 20.8402 7.48332 20.9735 7.84999C21.1069 8.21666 21.1069 8.61666 20.9735 9.04999C20.9069 9.14999 20.8402 9.26666 20.7736 9.39999C20.7402 9.49999 20.7069 9.61666 20.6735 9.74999C20.6069 9.88332 20.5402 10.0167 20.4735 10.15C20.4402 10.2833 20.4069 10.4 20.3735 10.5C19.8735 11.9 19.2735 13.2833 18.5735 14.65C17.8735 16.0167 17.0735 17.35 16.1735 18.65Z" fill="#535353"/>
</svg>
