<svg width="1074" height="1010" viewBox="0 0 1074 1010" fill="none" xmlns="http://www.w3.org/2000/svg">
<g clip-path="url(#clip0_3444_23617)">
<rect width="1.14205" height="987.874" transform="matrix(-1 0 0 1 527.961 22.125)" fill="#FF8201"/>
<rect x="344.09" y="588.582" width="133.62" height="42.4574" rx="21.2287" fill="#FFEFE2"/>
<path d="M374.84 617.811V615.365L380.654 609.966C382.2 608.513 383.007 607.613 383.007 606.321C383.007 604.867 381.923 603.967 380.423 603.967C378.901 603.967 377.885 604.937 377.885 606.505H374.655C374.655 603.321 377.032 601.268 380.47 601.291C383.953 601.268 386.284 603.252 386.284 606.09C386.284 607.959 385.384 609.482 381.992 612.504L379.547 614.904V615.042H386.514V617.811H374.84ZM395.388 618.041C391.304 618.041 388.835 614.996 388.835 609.643C388.835 604.314 391.327 601.268 395.388 601.291C399.448 601.268 401.94 604.337 401.94 609.643C401.94 615.019 399.471 618.041 395.388 618.041ZM392.296 609.643C392.273 613.427 393.496 615.227 395.388 615.227C397.28 615.227 398.502 613.427 398.479 609.643C398.479 605.929 397.28 604.06 395.388 604.06C393.519 604.06 392.296 605.929 392.296 609.643ZM404.441 617.811V615.365L410.255 609.966C411.801 608.513 412.609 607.613 412.609 606.321C412.609 604.867 411.524 603.967 410.025 603.967C408.502 603.967 407.487 604.937 407.487 606.505H404.257C404.257 603.321 406.633 601.268 410.071 601.291C413.555 601.268 415.885 603.252 415.885 606.09C415.885 607.959 414.985 609.482 411.593 612.504L409.148 614.904V615.042H416.116V617.811H404.441ZM425.681 601.476V617.811H422.313V604.706H422.174L418.437 607.059V604.06L422.497 601.476H425.681ZM446.216 599.399V614.488H443.355V607.751H438.233V605.536H443.355V603.921H438.233V601.66H443.355V599.399H446.216ZM430.065 611.812V600.691H432.926V609.459C435.418 609.412 437.771 609.274 440.309 608.813L440.586 611.12C437.541 611.697 434.772 611.812 431.726 611.812H430.065ZM432.557 619.518V613.104H435.464V617.211H446.677V619.518H432.557Z" fill="#FF8201"/>
<path d="M411.166 664.129V675.449H409.119V666.111H409.055L406.401 667.806V665.951L409.215 664.129H411.166ZM415.733 674.33L414.454 678.71H412.951L413.75 674.33H415.733ZM421.788 675.609C419.054 675.609 417.439 673.498 417.439 669.789C417.439 666.111 419.07 663.985 421.788 664.001C424.49 663.985 426.121 666.111 426.137 669.789C426.121 673.498 424.49 675.609 421.788 675.609ZM419.486 669.789C419.486 672.507 420.365 673.898 421.788 673.882C423.195 673.898 424.074 672.507 424.058 669.789C424.074 667.103 423.195 665.68 421.788 665.664C420.365 665.68 419.486 667.103 419.486 669.789ZM432.091 675.609C429.677 675.609 427.95 674.298 427.902 672.379H429.949C429.997 673.29 430.908 673.898 432.091 673.882C433.322 673.898 434.218 673.21 434.234 672.219C434.218 671.18 433.354 670.46 431.867 670.46H430.876V668.893H431.867C433.083 668.893 433.914 668.222 433.914 667.231C433.914 666.287 433.195 665.648 432.091 665.632C431.036 665.648 430.125 666.239 430.077 667.199H428.126C428.174 665.296 429.901 663.985 432.123 664.001C434.41 663.985 435.897 665.392 435.865 667.135C435.897 668.398 435.049 669.309 433.818 669.565V669.661C435.417 669.869 436.312 670.892 436.312 672.315C436.312 674.218 434.522 675.609 432.091 675.609ZM442.493 675.609C440.27 675.593 438.064 674.282 438.08 670.108C438.08 666.239 439.839 663.985 442.621 664.001C444.779 663.985 446.282 665.36 446.522 667.199H444.539C444.315 666.319 443.628 665.744 442.621 665.76C440.958 665.744 440.046 667.199 440.062 669.597H440.158C440.734 668.606 441.821 668.03 443.068 668.03C445.083 668.03 446.65 669.565 446.65 671.707C446.65 673.946 444.987 675.625 442.493 675.609ZM440.286 671.771C440.27 672.939 441.198 673.962 442.493 673.946C443.74 673.962 444.683 672.986 444.667 671.739C444.683 670.54 443.772 669.581 442.493 669.565C441.246 669.581 440.286 670.588 440.286 671.771ZM460.216 662.722V676.824H458.521V669.597H457.019V676.184H455.388V663.105H457.019V668.19H458.521V662.722H460.216ZM447.969 672.667C450.975 670.94 452.254 668.701 452.494 665.887H448.64V664.512H454.205C454.189 668.318 452.989 671.595 448.992 673.882L447.969 672.667ZM473.662 664.001V665.472C473.646 667.215 473.646 669.101 473.119 671.867L471.424 671.707C471.92 669.085 471.92 667.167 471.904 665.472V665.408H463.366V664.001H473.662ZM462.087 675.001V673.594H464.965V669.085H466.691V673.594H468.482V669.085H470.209V673.594H474.941V675.001H462.087Z" fill="#FF8201"/>
<path fill-rule="evenodd" clip-rule="evenodd" d="M415.279 720.501V736.86C415.279 737.346 415.151 737.803 414.921 738.191H416.609C417.671 738.191 418.686 737.768 419.436 737.018C420.186 736.268 420.609 735.253 420.609 734.191V725.336C420.609 723.698 419.611 722.232 418.097 721.626L415.279 720.501ZM385.966 720.501L383.148 721.626C381.63 722.232 380.637 723.703 380.637 725.336V734.191C380.637 735.253 381.059 736.268 381.809 737.018C382.56 737.768 383.574 738.191 384.636 738.191H386.324C386.094 737.798 385.966 737.342 385.966 736.86V720.501ZM399.29 699.553V707.155C398.894 707.296 398.514 707.501 398.169 707.769C395.658 709.722 390.925 713.402 388.84 715.022C387.864 715.776 387.297 716.945 387.297 718.177V736.86C387.297 737.598 387.893 738.191 388.627 738.191H396.621V731.531C396.621 730.06 397.815 728.866 399.286 728.866H401.951C403.422 728.866 404.616 730.06 404.616 731.531V738.191H412.61C413.348 738.191 413.94 737.594 413.94 736.86V718.177C413.94 716.945 413.369 715.781 412.397 715.022C410.312 713.402 405.583 709.722 403.068 707.769C402.722 707.501 402.343 707.296 401.946 707.155V704.883H408.611C409.348 704.883 409.941 704.286 409.941 703.553V699.549C409.941 698.811 409.344 698.219 408.611 698.219H400.616C399.879 698.219 399.286 698.816 399.286 699.549L399.29 699.553ZM400.625 715.542C399.154 715.542 397.96 716.736 397.96 718.207C397.96 719.678 399.154 720.872 400.625 720.872C402.096 720.872 403.29 719.678 403.29 718.207C403.29 716.736 402.096 715.542 400.625 715.542Z" fill="#FF8201"/>
<path fill-rule="evenodd" clip-rule="evenodd" d="M360.461 720.501V736.86C360.461 737.346 360.333 737.803 360.102 738.191H361.791C362.852 738.191 363.867 737.768 364.618 737.018C365.368 736.268 365.79 735.253 365.79 734.191V725.336C365.79 723.698 364.792 722.232 363.279 721.626L360.461 720.501ZM331.148 720.501L328.33 721.626C326.812 722.232 325.818 723.703 325.818 725.336V734.191C325.818 735.253 326.24 736.268 326.991 737.018C327.741 737.768 328.756 738.191 329.818 738.191H331.506C331.276 737.798 331.148 737.342 331.148 736.86V720.501ZM344.472 699.553V707.155C344.075 707.296 343.696 707.501 343.351 707.769C340.839 709.722 336.107 713.402 334.022 715.022C333.045 715.776 332.478 716.945 332.478 718.177V736.86C332.478 737.598 333.075 738.191 333.808 738.191H341.803V731.531C341.803 730.06 342.997 728.866 344.468 728.866H347.132C348.603 728.866 349.797 730.06 349.797 731.531V738.191H357.792C358.529 738.191 359.122 737.594 359.122 736.86V718.177C359.122 716.945 358.55 715.781 357.578 715.022C355.493 713.402 350.765 709.722 348.249 707.769C347.904 707.501 347.525 707.296 347.128 707.155V704.883H353.792C354.53 704.883 355.122 704.286 355.122 703.553V699.549C355.122 698.811 354.526 698.219 353.792 698.219H345.798C345.06 698.219 344.468 698.816 344.468 699.549L344.472 699.553ZM345.806 715.542C344.335 715.542 343.142 716.736 343.142 718.207C343.142 719.678 344.335 720.872 345.806 720.872C347.277 720.872 348.471 719.678 348.471 718.207C348.471 716.736 347.277 715.542 345.806 715.542Z" fill="#FF8201"/>
<path fill-rule="evenodd" clip-rule="evenodd" d="M470.097 720.501V736.86C470.097 737.346 469.969 737.803 469.739 738.191H471.428C472.489 738.191 473.504 737.768 474.254 737.018C475.005 736.268 475.427 735.253 475.427 734.191V725.336C475.427 723.698 474.429 722.232 472.916 721.626L470.097 720.501ZM440.785 720.501L437.966 721.626C436.449 722.232 435.455 723.703 435.455 725.336V734.191C435.455 735.253 435.877 736.268 436.628 737.018C437.378 737.768 438.393 738.191 439.454 738.191H441.143C440.913 737.798 440.785 737.342 440.785 736.86V720.501ZM454.109 699.553V707.155C453.712 707.296 453.333 707.501 452.987 707.769C450.476 709.722 445.743 713.402 443.658 715.022C442.682 715.776 442.115 716.945 442.115 718.177V736.86C442.115 737.598 442.712 738.191 443.445 738.191H451.44V731.531C451.44 730.06 452.633 728.866 454.104 728.866H456.769C458.24 728.866 459.434 730.06 459.434 731.531V738.191H467.428C468.166 738.191 468.759 737.594 468.759 736.86V718.177C468.759 716.945 468.187 715.781 467.215 715.022C465.13 713.402 460.402 709.722 457.886 707.769C457.541 707.501 457.161 707.296 456.765 707.155V704.883H463.429C464.167 704.883 464.759 704.286 464.759 703.553V699.549C464.759 698.811 464.162 698.219 463.429 698.219H455.435C454.697 698.219 454.104 698.816 454.104 699.549L454.109 699.553ZM455.443 715.542C453.972 715.542 452.778 716.736 452.778 718.207C452.778 719.678 453.972 720.872 455.443 720.872C456.914 720.872 458.108 719.678 458.108 718.207C458.108 716.736 456.914 715.542 455.443 715.542Z" fill="#FF8201"/>
<path fill-rule="evenodd" clip-rule="evenodd" d="M305.642 720.501V736.86C305.642 737.346 305.514 737.803 305.284 738.191H306.972C308.034 738.191 309.049 737.768 309.799 737.018C310.55 736.268 310.972 735.253 310.972 734.191V725.336C310.972 723.698 309.974 722.232 308.461 721.626L305.642 720.501ZM276.33 720.501L273.511 721.626C271.993 722.232 271 723.703 271 725.336V734.191C271 735.253 271.422 736.268 272.173 737.018C272.923 737.768 273.938 738.191 274.999 738.191H276.688C276.457 737.798 276.33 737.342 276.33 736.86V720.501ZM289.654 699.553V707.155C289.257 707.296 288.878 707.501 288.532 707.769C286.021 709.722 281.288 713.402 279.203 715.022C278.227 715.776 277.66 716.945 277.66 718.177V736.86C277.66 737.598 278.257 738.191 278.99 738.191H286.984V731.531C286.984 730.06 288.178 728.866 289.649 728.866H292.314C293.785 728.866 294.979 730.06 294.979 731.531V738.191H302.973C303.711 738.191 304.303 737.594 304.303 736.86V718.177C304.303 716.945 303.732 715.781 302.76 715.022C300.675 713.402 295.947 709.722 293.431 707.769C293.086 707.501 292.706 707.296 292.31 707.155V704.883H298.974C299.711 704.883 300.304 704.286 300.304 703.553V699.549C300.304 698.811 299.707 698.219 298.974 698.219H290.98C290.242 698.219 289.649 698.816 289.649 699.549L289.654 699.553ZM290.988 715.542C289.517 715.542 288.323 716.736 288.323 718.207C288.323 719.678 289.517 720.872 290.988 720.872C292.459 720.872 293.653 719.678 293.653 718.207C293.653 716.736 292.459 715.542 290.988 715.542Z" fill="#FF8201"/>
<rect x="524.248" y="19.2695" width="5.99577" height="5.99577" rx="2.99788" fill="#111111"/>
<rect x="524.248" y="213.988" width="5.99577" height="5.99577" rx="2.99788" fill="#111111"/>
<rect x="524.248" y="604.57" width="5.99577" height="5.99577" rx="2.99788" fill="#111111"/>
<rect x="524.248" y="409.279" width="5.99577" height="5.99577" rx="2.99788" fill="#111111"/>
<rect x="524.248" y="799.863" width="5.99577" height="5.99577" rx="2.99788" fill="#111111"/>
<rect x="577.916" y="389.871" width="133.62" height="42.4574" rx="21.2287" fill="#FFEFE2"/>
<path d="M606.447 419.1V416.654L612.261 411.255C613.807 409.802 614.614 408.902 614.614 407.61C614.614 406.156 613.53 405.257 612.03 405.257C610.507 405.257 609.492 406.226 609.492 407.794H606.262C606.262 404.611 608.639 402.557 612.076 402.58C615.56 402.557 617.89 404.541 617.89 407.379C617.89 409.248 616.991 410.771 613.599 413.793L611.154 416.193V416.331H618.121V419.1H606.447ZM626.995 419.33C622.911 419.33 620.442 416.285 620.442 410.932C620.442 405.603 622.934 402.557 626.995 402.58C631.055 402.557 633.547 405.626 633.547 410.932C633.547 416.308 631.078 419.33 626.995 419.33ZM623.903 410.932C623.88 414.716 625.103 416.516 626.995 416.516C628.886 416.516 630.109 414.716 630.086 410.932C630.086 407.218 628.886 405.349 626.995 405.349C625.126 405.349 623.903 407.218 623.903 410.932ZM636.048 419.1V416.654L641.862 411.255C643.408 409.802 644.215 408.902 644.215 407.61C644.215 406.156 643.131 405.257 641.631 405.257C640.109 405.257 639.094 406.226 639.094 407.794H635.864C635.864 404.611 638.24 402.557 641.678 402.58C645.161 402.557 647.492 404.541 647.492 407.379C647.492 409.248 646.592 410.771 643.2 413.793L640.755 416.193V416.331H647.722V419.1H636.048ZM656.596 419.33C652.512 419.33 650.043 416.285 650.043 410.932C650.043 405.603 652.535 402.557 656.596 402.58C660.656 402.557 663.148 405.626 663.148 410.932C663.148 416.308 660.68 419.33 656.596 419.33ZM653.504 410.932C653.481 414.716 654.704 416.516 656.596 416.516C658.488 416.516 659.711 414.716 659.687 410.932C659.687 407.218 658.488 405.349 656.596 405.349C654.727 405.349 653.504 407.218 653.504 410.932ZM682.261 400.688V415.777H679.4V409.04H674.278V406.825H679.4V405.21H674.278V402.949H679.4V400.688H682.261ZM666.111 413.101V401.98H668.972V410.748C671.463 410.701 673.817 410.563 676.355 410.102L676.631 412.409C673.586 412.986 670.817 413.101 667.772 413.101H666.111ZM668.603 420.807V414.393H671.51V418.5H682.722V420.807H668.603Z" fill="#FF8201"/>
<path d="M583.448 465.418V476.738H581.402V467.4H581.338L578.683 469.095V467.24L581.497 465.418H583.448ZM588.015 475.619L586.736 479.999H585.233L586.033 475.619H588.015ZM594.071 476.898C591.337 476.898 589.722 474.787 589.722 471.078C589.722 467.4 591.353 465.274 594.071 465.29C596.773 465.274 598.404 467.4 598.42 471.078C598.404 474.787 596.773 476.898 594.071 476.898ZM591.768 471.078C591.768 473.796 592.648 475.187 594.071 475.171C595.478 475.187 596.357 473.796 596.341 471.078C596.357 468.392 595.478 466.969 594.071 466.953C592.648 466.969 591.768 468.392 591.768 471.078ZM604.438 476.898C601.704 476.898 600.089 474.787 600.089 471.078C600.089 467.4 601.72 465.274 604.438 465.29C607.14 465.274 608.771 467.4 608.787 471.078C608.771 474.787 607.14 476.898 604.438 476.898ZM602.135 471.078C602.135 473.796 603.015 475.187 604.438 475.171C605.845 475.187 606.724 473.796 606.708 471.078C606.724 468.392 605.845 466.969 604.438 466.953C603.015 466.969 602.135 468.392 602.135 471.078ZM610.648 476.738L610.616 475.267L614.613 471.43C615.764 470.278 616.356 469.607 616.372 468.648C616.356 467.592 615.525 466.937 614.421 466.921C613.254 466.937 612.503 467.656 612.503 468.807H610.584C610.568 466.665 612.183 465.274 614.453 465.29C616.74 465.274 618.307 466.649 618.323 468.552C618.307 469.831 617.683 470.87 615.477 472.964L613.462 474.947V475.043H618.482V476.738H610.648ZM632.077 464.011V478.113H630.383V470.886H628.88V477.473H627.249V464.395H628.88V469.479H630.383V464.011H632.077ZM619.83 473.956C622.836 472.229 624.115 469.991 624.355 467.177H620.501V465.802H626.066C626.05 469.607 624.85 472.885 620.853 475.171L619.83 473.956ZM645.523 465.29V466.761C645.507 468.504 645.507 470.39 644.98 473.156L643.285 472.996C643.781 470.374 643.781 468.456 643.765 466.761V466.697H635.227V465.29H645.523ZM633.948 476.29V474.883H636.826V470.374H638.552V474.883H640.343V470.374H642.07V474.883H646.802V476.29H633.948Z" fill="#FF8201"/>
<path fill-rule="evenodd" clip-rule="evenodd" d="M612.855 521.784V538.143C612.855 538.63 612.727 539.086 612.497 539.474H614.185C615.247 539.474 616.262 539.052 617.012 538.301C617.763 537.551 618.185 536.536 618.185 535.474V526.619C618.185 524.982 617.187 523.515 615.673 522.909L612.855 521.784ZM583.542 521.784L580.724 522.909C579.206 523.515 578.213 524.986 578.213 526.619V535.474C578.213 536.536 578.635 537.551 579.385 538.301C580.136 539.052 581.151 539.474 582.212 539.474H583.901C583.67 539.081 583.542 538.625 583.542 538.143V521.784ZM596.866 500.836V508.439C596.47 508.579 596.09 508.784 595.745 509.053C593.234 511.005 588.501 514.685 586.416 516.305C585.44 517.06 584.873 518.228 584.873 519.46V538.143C584.873 538.881 585.47 539.474 586.203 539.474H594.197V532.814C594.197 531.343 595.391 530.149 596.862 530.149H599.527C600.998 530.149 602.192 531.343 602.192 532.814V539.474H610.186C610.924 539.474 611.516 538.877 611.516 538.143V519.46C611.516 518.228 610.945 517.064 609.973 516.305C607.888 514.685 603.16 511.005 600.644 509.053C600.299 508.784 599.919 508.579 599.523 508.439V506.166H606.187C606.924 506.166 607.517 505.569 607.517 504.836V500.832C607.517 500.095 606.92 499.502 606.187 499.502H598.192C597.455 499.502 596.862 500.099 596.862 500.832L596.866 500.836ZM598.201 516.825C596.73 516.825 595.536 518.019 595.536 519.49C595.536 520.961 596.73 522.155 598.201 522.155C599.672 522.155 600.866 520.961 600.866 519.49C600.866 518.019 599.672 516.825 598.201 516.825Z" fill="#FF8201"/>
<path fill-rule="evenodd" clip-rule="evenodd" d="M667.673 521.784V538.143C667.673 538.63 667.546 539.086 667.315 539.474H669.004C670.065 539.474 671.08 539.052 671.831 538.301C672.581 537.551 673.003 536.536 673.003 535.474V526.619C673.003 524.982 672.005 523.515 670.492 522.909L667.673 521.784ZM638.361 521.784L635.543 522.909C634.025 523.515 633.031 524.986 633.031 526.619V535.474C633.031 536.536 633.453 537.551 634.204 538.301C634.954 539.052 635.969 539.474 637.031 539.474H638.719C638.489 539.081 638.361 538.625 638.361 538.143V521.784ZM651.685 500.836V508.439C651.288 508.579 650.909 508.784 650.563 509.053C648.052 511.005 643.319 514.685 641.235 516.305C640.258 517.06 639.691 518.228 639.691 519.46V538.143C639.691 538.881 640.288 539.474 641.021 539.474H649.016V532.814C649.016 531.343 650.21 530.149 651.68 530.149H654.345C655.816 530.149 657.01 531.343 657.01 532.814V539.474H665.004C665.742 539.474 666.335 538.877 666.335 538.143V519.46C666.335 518.228 665.763 517.064 664.791 516.305C662.706 514.685 657.978 511.005 655.462 509.053C655.117 508.784 654.738 508.579 654.341 508.439V506.166H661.005C661.743 506.166 662.335 505.569 662.335 504.836V500.832C662.335 500.095 661.738 499.502 661.005 499.502H653.011C652.273 499.502 651.68 500.099 651.68 500.832L651.685 500.836ZM653.019 516.825C651.548 516.825 650.354 518.019 650.354 519.49C650.354 520.961 651.548 522.155 653.019 522.155C654.49 522.155 655.684 520.961 655.684 519.49C655.684 518.019 654.49 516.825 653.019 516.825Z" fill="#FF8201"/>
<path fill-rule="evenodd" clip-rule="evenodd" d="M722.49 521.784V538.143C722.49 538.63 722.362 539.086 722.132 539.474H723.82C724.882 539.474 725.897 539.052 726.647 538.301C727.397 537.551 727.819 536.536 727.819 535.474V526.619C727.819 524.982 726.822 523.515 725.308 522.909L722.49 521.784ZM693.177 521.784L690.359 522.909C688.841 523.515 687.848 524.986 687.848 526.619V535.474C687.848 536.536 688.27 537.551 689.02 538.301C689.771 539.052 690.785 539.474 691.847 539.474H693.535C693.305 539.081 693.177 538.625 693.177 538.143V521.784ZM706.501 500.836V508.439C706.105 508.579 705.725 508.784 705.38 509.053C702.869 511.005 698.136 514.685 696.051 516.305C695.075 517.06 694.507 518.228 694.507 519.46V538.143C694.507 538.881 695.104 539.474 695.838 539.474H703.832V532.814C703.832 531.343 705.026 530.149 706.497 530.149H709.162C710.633 530.149 711.826 531.343 711.826 532.814V539.474H719.821C720.558 539.474 721.151 538.877 721.151 538.143V519.46C721.151 518.228 720.58 517.064 719.608 516.305C717.523 514.685 712.794 511.005 710.279 509.053C709.933 508.784 709.554 508.579 709.157 508.439V506.166H715.822C716.559 506.166 717.152 505.569 717.152 504.836V500.832C717.152 500.095 716.555 499.502 715.822 499.502H707.827C707.09 499.502 706.497 500.099 706.497 500.832L706.501 500.836ZM707.836 516.825C706.365 516.825 705.171 518.019 705.171 519.49C705.171 520.961 706.365 522.155 707.836 522.155C709.307 522.155 710.5 520.961 710.5 519.49C710.5 518.019 709.307 516.825 707.836 516.825Z" fill="#FF8201"/>
<rect x="577.916" y="779.334" width="133.62" height="42.4574" rx="21.2287" fill="#FFEFE2"/>
<path d="M607.021 808.562V806.117L612.835 800.718C614.381 799.265 615.189 798.365 615.189 797.073C615.189 795.619 614.104 794.719 612.605 794.719C611.082 794.719 610.067 795.688 610.067 797.257H606.837C606.837 794.073 609.213 792.02 612.651 792.043C616.135 792.02 618.465 794.004 618.465 796.842C618.465 798.711 617.565 800.234 614.174 803.256L611.728 805.655V805.794H618.696V808.562H607.021ZM627.569 808.793C623.485 808.793 621.017 805.748 621.017 800.395C621.017 795.066 623.509 792.02 627.569 792.043C631.63 792.02 634.122 795.089 634.122 800.395C634.122 805.771 631.653 808.793 627.569 808.793ZM624.478 800.395C624.454 804.179 625.677 805.978 627.569 805.978C629.461 805.978 630.684 804.179 630.661 800.395C630.661 796.681 629.461 794.812 627.569 794.812C625.7 794.812 624.478 796.681 624.478 800.395ZM636.623 808.562V806.117L642.437 800.718C643.983 799.265 644.79 798.365 644.79 797.073C644.79 795.619 643.706 794.719 642.206 794.719C640.683 794.719 639.668 795.688 639.668 797.257H636.438C636.438 794.073 638.814 792.02 642.252 792.043C645.736 792.02 648.066 794.004 648.066 796.842C648.066 798.711 647.166 800.234 643.775 803.256L641.329 805.655V805.794H648.297V808.562H636.623ZM650.849 808.562V806.117L656.663 800.718C658.209 799.265 659.016 798.365 659.016 797.073C659.016 795.619 657.932 794.719 656.432 794.719C654.909 794.719 653.894 795.688 653.894 797.257H650.664C650.664 794.073 653.041 792.02 656.478 792.043C659.962 792.02 662.292 794.004 662.292 796.842C662.292 798.711 661.393 800.234 658.001 803.256L655.555 805.655V805.794H662.523V808.562H650.849ZM681.686 790.151V805.24H678.826V798.503H673.704V796.288H678.826V794.673H673.704V792.412H678.826V790.151H681.686ZM665.536 802.564V791.443H668.397V800.211C670.889 800.164 673.242 800.026 675.78 799.565L676.057 801.872C673.011 802.448 670.243 802.564 667.197 802.564H665.536ZM668.028 810.27V803.856H670.935V807.963H682.148V810.27H668.028Z" fill="#FF8201"/>
<path d="M586.774 854.817V856.192H578.396V854.817H581.721V853.41H583.448V854.817H586.774ZM579.131 859.326C579.115 857.791 580.538 856.751 582.585 856.735C584.631 856.751 586.022 857.791 586.038 859.326C586.022 860.876 584.631 861.916 582.585 861.916C580.538 861.916 579.115 860.876 579.131 859.326ZM580.122 864.378V862.971H589.524V867.576H587.765V864.378H580.122ZM580.794 859.326C580.794 860.125 581.513 860.573 582.585 860.573C583.656 860.573 584.375 860.125 584.375 859.326C584.375 858.542 583.656 858.062 582.585 858.046C581.513 858.062 580.794 858.542 580.794 859.326ZM587.765 862.299V853.474H589.524V857.215H591.506V858.654H589.524V862.299H587.765ZM603.961 854.753V856.224C603.945 857.966 603.945 859.853 603.418 862.619L601.723 862.459C602.218 859.837 602.218 857.919 602.202 856.224V856.16H593.664V854.753H603.961ZM592.385 865.753V864.346H595.263V859.837H596.99V864.346H598.781V859.837H600.508V864.346H605.24V865.753H592.385ZM615.409 854.881V866.201H613.362V856.863H613.298L610.644 858.558V856.703L613.458 854.881H615.409ZM619.976 865.081L618.697 869.462H617.194L617.993 865.081H619.976ZM626.031 866.361C623.297 866.361 621.682 864.25 621.682 860.541C621.682 856.863 623.313 854.737 626.031 854.753C628.733 854.737 630.364 856.863 630.38 860.541C630.364 864.25 628.733 866.361 626.031 866.361ZM623.729 860.541C623.729 863.259 624.608 864.65 626.031 864.634C627.438 864.65 628.317 863.259 628.301 860.541C628.317 857.855 627.438 856.432 626.031 856.416C624.608 856.432 623.729 857.855 623.729 860.541ZM636.238 866.361C633.968 866.361 632.305 865.002 632.241 863.131H634.224C634.304 864.058 635.167 864.714 636.238 864.698C637.502 864.714 638.413 863.802 638.413 862.555C638.413 861.26 637.47 860.333 636.174 860.317C635.295 860.317 634.64 860.637 634.288 861.308H632.401L633.073 854.881H639.756V856.607H634.767L634.416 859.613H634.512C634.959 859.102 635.791 858.75 636.718 858.75C638.813 858.75 640.38 860.301 640.364 862.491C640.38 864.746 638.669 866.361 636.238 866.361ZM642.072 864.09V862.459L646.965 854.881H649.491V862.427H650.962V864.09H649.491V866.201H647.541V864.09H642.072ZM644.151 862.427H647.572V857.215H647.477L644.151 862.331V862.427ZM664.444 853.474V867.576H662.749V860.349H661.246V866.936H659.615V853.857H661.246V858.942H662.749V853.474H664.444ZM652.196 863.419C655.202 861.692 656.481 859.453 656.721 856.639H652.868V855.264H658.432C658.416 859.07 657.217 862.347 653.22 864.634L652.196 863.419ZM677.89 854.753V856.224C677.874 857.966 677.874 859.853 677.346 862.619L675.651 862.459C676.147 859.837 676.147 857.919 676.131 856.224V856.16H667.593V854.753H677.89ZM666.314 865.753V864.346H669.192V859.837H670.919V864.346H672.709V859.837H674.436V864.346H679.169V865.753H666.314ZM591.283 884.404V885.811H588.117V890.576H586.358V885.811H583.224V890.576H581.466V885.811H578.364V884.404H591.283ZM579.707 880.119C579.723 878.216 581.785 876.985 584.791 876.985C587.797 876.985 589.876 878.216 589.876 880.119C589.876 882.022 587.797 883.221 584.791 883.221C581.785 883.221 579.723 882.022 579.707 880.119ZM581.497 880.119C581.497 881.206 582.793 881.846 584.791 881.846C586.79 881.846 588.085 881.206 588.085 880.119C588.085 879.032 586.79 878.376 584.791 878.392C582.793 878.376 581.497 879.032 581.497 880.119ZM604.089 876.474V890.576H602.362V876.474H604.089ZM592.513 886.579C594.768 885.587 596.063 883.205 596.063 880.951V880.215H592.961V878.84H596.063V876.793H597.79V878.84H600.827V880.215H597.79V880.951C597.79 883.109 599.101 885.411 601.371 886.355L600.444 887.698C598.813 887.01 597.598 885.587 596.958 883.892C596.319 885.699 595.103 887.202 593.473 887.922L592.513 886.579ZM618.207 876.506V887.154H616.448V885.939H613.698V884.724H616.448V876.506H618.207ZM606.311 882.837C608.901 882.821 612.403 882.789 615.393 882.421L615.489 883.669C614.337 883.86 613.122 883.988 611.939 884.068V886.77H610.212V884.164C608.885 884.212 607.622 884.212 606.503 884.212L606.311 882.837ZM607.366 879.512C607.382 878.009 608.805 877.001 610.916 877.017C612.962 877.001 614.401 878.009 614.401 879.512C614.401 881.014 612.962 881.99 610.916 881.974C608.821 881.99 607.382 881.014 607.366 879.512ZM608.166 890.32V886.131H609.925V888.913H618.526V890.32H608.166ZM609.029 879.512C609.013 880.279 609.781 880.711 610.916 880.727C611.987 880.711 612.755 880.279 612.771 879.512C612.755 878.744 611.987 878.28 610.916 878.296C609.781 878.28 609.013 878.744 609.029 879.512ZM624.826 889.201L624.794 887.73L628.791 883.892C629.942 882.741 630.533 882.07 630.549 881.11C630.533 880.055 629.702 879.4 628.599 879.384C627.432 879.4 626.68 880.119 626.68 881.27H624.762C624.746 879.128 626.36 877.737 628.631 877.753C630.917 877.737 632.484 879.112 632.5 881.014C632.484 882.294 631.861 883.333 629.654 885.427L627.64 887.41V887.506H632.66V889.201H624.826ZM634.999 889.201L639.923 879.671V879.607H634.231V877.881H642.034V879.639L637.109 889.201H634.999ZM643.874 889.201L643.842 887.73L647.839 883.892C648.99 882.741 649.582 882.07 649.598 881.11C649.582 880.055 648.75 879.4 647.647 879.384C646.48 879.4 645.728 880.119 645.728 881.27H643.81C643.794 879.128 645.409 877.737 647.679 877.753C649.965 877.737 651.532 879.112 651.548 881.014C651.532 882.294 650.909 883.333 648.702 885.427L646.688 887.41V887.506H651.708V889.201H643.874ZM665.303 876.474V890.576H663.608V883.349H662.105V889.936H660.474V876.857H662.105V881.942H663.608V876.474H665.303ZM653.056 886.419C656.062 884.692 657.341 882.453 657.58 879.639H653.727V878.264H659.291C659.275 882.07 658.076 885.347 654.079 887.634L653.056 886.419ZM679.005 876.506V887.154H677.246V885.939H674.496V884.724H677.246V876.506H679.005ZM667.109 882.837C669.699 882.821 673.201 882.789 676.191 882.421L676.287 883.669C675.136 883.86 673.92 883.988 672.737 884.068V886.77H671.011V884.164C669.683 884.212 668.42 884.212 667.301 884.212L667.109 882.837ZM668.165 879.512C668.181 878.009 669.603 877.001 671.714 877.017C673.761 877.001 675.2 878.009 675.2 879.512C675.2 881.014 673.761 881.99 671.714 881.974C669.619 881.99 668.181 881.014 668.165 879.512ZM668.964 890.32V886.131H670.723V888.913H679.325V890.32H668.964ZM669.827 879.512C669.811 880.279 670.579 880.711 671.714 880.727C672.785 880.711 673.553 880.279 673.569 879.512C673.553 878.744 672.785 878.28 671.714 878.296C670.579 878.28 669.811 878.744 669.827 879.512Z" fill="#FF8201"/>
<path fill-rule="evenodd" clip-rule="evenodd" d="M612.855 937.491V953.851C612.855 954.337 612.727 954.793 612.497 955.181H614.185C615.247 955.181 616.262 954.759 617.012 954.008C617.763 953.258 618.185 952.243 618.185 951.181V942.326C618.185 940.689 617.187 939.222 615.673 938.616L612.855 937.491ZM583.542 937.491L580.724 938.616C579.206 939.222 578.213 940.693 578.213 942.326V951.181C578.213 952.243 578.635 953.258 579.385 954.008C580.136 954.759 581.151 955.181 582.212 955.181H583.901C583.67 954.789 583.542 954.332 583.542 953.851V937.491ZM596.866 916.544V924.146C596.47 924.286 596.09 924.491 595.745 924.76C593.234 926.712 588.501 930.392 586.416 932.012C585.44 932.767 584.873 933.935 584.873 935.167V953.851C584.873 954.588 585.47 955.181 586.203 955.181H594.197V948.521C594.197 947.05 595.391 945.856 596.862 945.856H599.527C600.998 945.856 602.192 947.05 602.192 948.521V955.181H610.186C610.924 955.181 611.516 954.584 611.516 953.851V935.167C611.516 933.935 610.945 932.771 609.973 932.012C607.888 930.392 603.16 926.712 600.644 924.76C600.299 924.491 599.919 924.286 599.523 924.146V921.873H606.187C606.924 921.873 607.517 921.276 607.517 920.543V916.539C607.517 915.802 606.92 915.209 606.187 915.209H598.192C597.455 915.209 596.862 915.806 596.862 916.539L596.866 916.544ZM598.201 932.532C596.73 932.532 595.536 933.726 595.536 935.197C595.536 936.668 596.73 937.862 598.201 937.862C599.672 937.862 600.866 936.668 600.866 935.197C600.866 933.726 599.672 932.532 598.201 932.532Z" fill="#FF8201"/>
<path fill-rule="evenodd" clip-rule="evenodd" d="M667.673 937.491V953.851C667.673 954.337 667.546 954.793 667.315 955.181H669.004C670.065 955.181 671.08 954.759 671.831 954.008C672.581 953.258 673.003 952.243 673.003 951.181V942.326C673.003 940.689 672.005 939.222 670.492 938.616L667.673 937.491ZM638.361 937.491L635.543 938.616C634.025 939.222 633.031 940.693 633.031 942.326V951.181C633.031 952.243 633.453 953.258 634.204 954.008C634.954 954.759 635.969 955.181 637.031 955.181H638.719C638.489 954.789 638.361 954.332 638.361 953.851V937.491ZM651.685 916.544V924.146C651.288 924.286 650.909 924.491 650.563 924.76C648.052 926.712 643.319 930.392 641.235 932.012C640.258 932.767 639.691 933.935 639.691 935.167V953.851C639.691 954.588 640.288 955.181 641.021 955.181H649.016V948.521C649.016 947.05 650.21 945.856 651.68 945.856H654.345C655.816 945.856 657.01 947.05 657.01 948.521V955.181H665.004C665.742 955.181 666.335 954.584 666.335 953.851V935.167C666.335 933.935 665.763 932.771 664.791 932.012C662.706 930.392 657.978 926.712 655.462 924.76C655.117 924.491 654.738 924.286 654.341 924.146V921.873H661.005C661.743 921.873 662.335 921.276 662.335 920.543V916.539C662.335 915.802 661.738 915.209 661.005 915.209H653.011C652.273 915.209 651.68 915.806 651.68 916.539L651.685 916.544ZM653.019 932.532C651.548 932.532 650.354 933.726 650.354 935.197C650.354 936.668 651.548 937.862 653.019 937.862C654.49 937.862 655.684 936.668 655.684 935.197C655.684 933.726 654.49 932.532 653.019 932.532Z" fill="#FF8201"/>
<path fill-rule="evenodd" clip-rule="evenodd" d="M722.49 937.491V953.851C722.49 954.337 722.362 954.793 722.132 955.181H723.82C724.882 955.181 725.897 954.759 726.647 954.008C727.397 953.258 727.819 952.243 727.819 951.181V942.326C727.819 940.689 726.822 939.222 725.308 938.616L722.49 937.491ZM693.177 937.491L690.359 938.616C688.841 939.222 687.848 940.693 687.848 942.326V951.181C687.848 952.243 688.27 953.258 689.02 954.008C689.771 954.759 690.785 955.181 691.847 955.181H693.535C693.305 954.789 693.177 954.332 693.177 953.851V937.491ZM706.501 916.544V924.146C706.105 924.286 705.725 924.491 705.38 924.76C702.869 926.712 698.136 930.392 696.051 932.012C695.075 932.767 694.507 933.935 694.507 935.167V953.851C694.507 954.588 695.104 955.181 695.838 955.181H703.832V948.521C703.832 947.05 705.026 945.856 706.497 945.856H709.162C710.633 945.856 711.826 947.05 711.826 948.521V955.181H719.821C720.558 955.181 721.151 954.584 721.151 953.851V935.167C721.151 933.935 720.58 932.771 719.608 932.012C717.523 930.392 712.794 926.712 710.279 924.76C709.933 924.491 709.554 924.286 709.157 924.146V921.873H715.822C716.559 921.873 717.152 921.276 717.152 920.543V916.539C717.152 915.802 716.555 915.209 715.822 915.209H707.827C707.09 915.209 706.497 915.806 706.497 916.539L706.501 916.544ZM707.836 932.532C706.365 932.532 705.171 933.726 705.171 935.197C705.171 936.668 706.365 937.862 707.836 937.862C709.307 937.862 710.5 936.668 710.5 935.197C710.5 933.726 709.307 932.532 707.836 932.532Z" fill="#FF8201"/>
<path fill-rule="evenodd" clip-rule="evenodd" d="M777.31 937.491V953.851C777.31 954.337 777.182 954.793 776.952 955.181H778.64C779.702 955.181 780.717 954.759 781.467 954.008C782.218 953.258 782.64 952.243 782.64 951.181V942.326C782.64 940.689 781.642 939.222 780.128 938.616L777.31 937.491ZM747.998 937.491L745.179 938.616C743.661 939.222 742.668 940.693 742.668 942.326V951.181C742.668 952.243 743.09 953.258 743.84 954.008C744.591 954.759 745.606 955.181 746.667 955.181H748.356C748.125 954.789 747.998 954.332 747.998 953.851V937.491ZM761.321 916.544V924.146C760.925 924.286 760.545 924.491 760.2 924.76C757.689 926.712 752.956 930.392 750.871 932.012C749.895 932.767 749.328 933.935 749.328 935.167V953.851C749.328 954.588 749.925 955.181 750.658 955.181H758.652V948.521C758.652 947.05 759.846 945.856 761.317 945.856H763.982C765.453 945.856 766.647 947.05 766.647 948.521V955.181H774.641C775.379 955.181 775.971 954.584 775.971 953.851V935.167C775.971 933.935 775.4 932.771 774.428 932.012C772.343 930.392 767.615 926.712 765.099 924.76C764.754 924.491 764.374 924.286 763.978 924.146V921.873H770.642C771.379 921.873 771.972 921.276 771.972 920.543V916.539C771.972 915.802 771.375 915.209 770.642 915.209H762.647C761.91 915.209 761.317 915.806 761.317 916.539L761.321 916.544ZM762.656 932.532C761.185 932.532 759.991 933.726 759.991 935.197C759.991 936.668 761.185 937.862 762.656 937.862C764.127 937.862 765.321 936.668 765.321 935.197C765.321 933.726 764.127 932.532 762.656 932.532Z" fill="#FF8201"/>
<path fill-rule="evenodd" clip-rule="evenodd" d="M612.855 992.311V1008.67C612.855 1009.16 612.727 1009.61 612.497 1010H614.185C615.247 1010 616.262 1009.58 617.012 1008.83C617.763 1008.08 618.185 1007.06 618.185 1006V997.146C618.185 995.509 617.187 994.042 615.673 993.437L612.855 992.311ZM583.542 992.311L580.724 993.437C579.206 994.042 578.213 995.513 578.213 997.146V1006C578.213 1007.06 578.635 1008.08 579.385 1008.83C580.136 1009.58 581.151 1010 582.212 1010H583.901C583.67 1009.61 583.542 1009.15 583.542 1008.67V992.311ZM596.866 971.364V978.966C596.47 979.107 596.09 979.311 595.745 979.58C593.234 981.533 588.501 985.212 586.416 986.832C585.44 987.587 584.873 988.755 584.873 989.987V1008.67C584.873 1009.41 585.47 1010 586.203 1010H594.197V1003.34C594.197 1001.87 595.391 1000.68 596.862 1000.68H599.527C600.998 1000.68 602.192 1001.87 602.192 1003.34V1010H610.186C610.924 1010 611.516 1009.4 611.516 1008.67V989.987C611.516 988.755 610.945 987.591 609.973 986.832C607.888 985.212 603.16 981.533 600.644 979.58C600.299 979.311 599.919 979.107 599.523 978.966V976.693H606.187C606.924 976.693 607.517 976.096 607.517 975.363V971.36C607.517 970.622 606.92 970.029 606.187 970.029H598.192C597.455 970.029 596.862 970.626 596.862 971.36L596.866 971.364ZM598.201 987.353C596.73 987.353 595.536 988.546 595.536 990.017C595.536 991.488 596.73 992.682 598.201 992.682C599.672 992.682 600.866 991.488 600.866 990.017C600.866 988.546 599.672 987.353 598.201 987.353Z" fill="#FF8201"/>
<path fill-rule="evenodd" clip-rule="evenodd" d="M667.673 992.309V1008.67C667.673 1009.15 667.546 1009.61 667.315 1010H669.004C670.065 1010 671.08 1009.58 671.831 1008.83C672.581 1008.08 673.003 1007.06 673.003 1006V997.144C673.003 995.507 672.005 994.04 670.492 993.435L667.673 992.309ZM638.361 992.309L635.543 993.435C634.025 994.04 633.031 995.511 633.031 997.144V1006C633.031 1007.06 633.453 1008.08 634.204 1008.83C634.954 1009.58 635.969 1010 637.031 1010H638.719C638.489 1009.61 638.361 1009.15 638.361 1008.67V992.309ZM651.685 971.362V978.964C651.288 979.105 650.909 979.309 650.563 979.578C648.052 981.531 643.319 985.21 641.235 986.83C640.258 987.585 639.691 988.753 639.691 989.986V1008.67C639.691 1009.41 640.288 1010 641.021 1010H649.016V1003.34C649.016 1001.87 650.21 1000.67 651.68 1000.67H654.345C655.816 1000.67 657.01 1001.87 657.01 1003.34V1010H665.004C665.742 1010 666.335 1009.4 666.335 1008.67V989.986C666.335 988.753 665.763 987.589 664.791 986.83C662.706 985.21 657.978 981.531 655.462 979.578C655.117 979.309 654.738 979.105 654.341 978.964V976.691H661.005C661.743 976.691 662.335 976.095 662.335 975.361V971.358C662.335 970.62 661.738 970.027 661.005 970.027H653.011C652.273 970.027 651.68 970.624 651.68 971.358L651.685 971.362ZM653.019 987.351C651.548 987.351 650.354 988.544 650.354 990.015C650.354 991.486 651.548 992.68 653.019 992.68C654.49 992.68 655.684 991.486 655.684 990.015C655.684 988.544 654.49 987.351 653.019 987.351Z" fill="#FF8201"/>
<path fill-rule="evenodd" clip-rule="evenodd" d="M722.49 992.309V1008.67C722.49 1009.15 722.362 1009.61 722.132 1010H723.82C724.882 1010 725.897 1009.58 726.647 1008.83C727.397 1008.08 727.819 1007.06 727.819 1006V997.144C727.819 995.507 726.822 994.04 725.308 993.435L722.49 992.309ZM693.177 992.309L690.359 993.435C688.841 994.04 687.848 995.511 687.848 997.144V1006C687.848 1007.06 688.27 1008.08 689.02 1008.83C689.771 1009.58 690.785 1010 691.847 1010H693.535C693.305 1009.61 693.177 1009.15 693.177 1008.67V992.309ZM706.501 971.362V978.964C706.105 979.105 705.725 979.309 705.38 979.578C702.869 981.531 698.136 985.21 696.051 986.83C695.075 987.585 694.507 988.753 694.507 989.986V1008.67C694.507 1009.41 695.104 1010 695.838 1010H703.832V1003.34C703.832 1001.87 705.026 1000.67 706.497 1000.67H709.162C710.633 1000.67 711.826 1001.87 711.826 1003.34V1010H719.821C720.558 1010 721.151 1009.4 721.151 1008.67V989.986C721.151 988.753 720.58 987.589 719.608 986.83C717.523 985.21 712.794 981.531 710.279 979.578C709.933 979.309 709.554 979.105 709.157 978.964V976.691H715.822C716.559 976.691 717.152 976.095 717.152 975.361V971.358C717.152 970.62 716.555 970.027 715.822 970.027H707.827C707.09 970.027 706.497 970.624 706.497 971.358L706.501 971.362ZM707.836 987.351C706.365 987.351 705.171 988.544 705.171 990.015C705.171 991.486 706.365 992.68 707.836 992.68C709.307 992.68 710.5 991.486 710.5 990.015C710.5 988.544 709.307 987.351 707.836 987.351Z" fill="#FF8201"/>
<rect x="577.916" y="-3" width="133.62" height="42.4574" rx="21.2287" fill="#FFEFE2"/>
<path d="M608.283 26.2285V23.7829L614.097 18.3841C615.643 16.9306 616.451 16.0308 616.451 14.7388C616.451 13.2853 615.366 12.3855 613.867 12.3855C612.344 12.3855 611.329 13.3545 611.329 14.9234H608.099C608.099 11.7395 610.475 9.68607 613.913 9.70914C617.396 9.68607 619.727 11.6702 619.727 14.5081C619.727 16.3769 618.827 17.8996 615.435 20.922L612.99 23.3215V23.4599H619.957V26.2285H608.283ZM628.831 26.4592C624.747 26.4592 622.279 23.4138 622.279 18.0611C622.279 12.7315 624.77 9.68607 628.831 9.70914C632.892 9.68607 635.383 12.7546 635.383 18.0611C635.383 23.4368 632.915 26.4592 628.831 26.4592ZM625.739 18.0611C625.716 21.8449 626.939 23.6445 628.831 23.6445C630.723 23.6445 631.946 21.8449 631.922 18.0611C631.922 14.3466 630.723 12.4778 628.831 12.4778C626.962 12.4778 625.739 14.3466 625.739 18.0611ZM644.898 9.89372V26.2285H641.53V13.1238H641.391L637.654 15.4771V12.4778L641.714 9.89372H644.898ZM654.958 26.4592C651.22 26.4592 648.544 24.4981 648.544 21.8449C648.544 19.7915 650.113 18.1073 652.143 17.7843V17.692C650.39 17.3459 649.167 15.8693 649.144 14.0928C649.167 11.5549 651.613 9.68607 654.958 9.70914C658.28 9.68607 660.726 11.5549 660.726 14.0928C660.726 15.8693 659.48 17.3459 657.773 17.692V17.7843C659.734 18.1073 661.326 19.7915 661.326 21.8449C661.326 24.4981 658.649 26.4592 654.958 26.4592ZM652.097 21.5219C652.074 22.8831 653.228 23.8752 654.958 23.8752C656.665 23.8752 657.819 22.9062 657.819 21.5219C657.819 20.0914 656.596 19.0532 654.958 19.0301C653.297 19.0532 652.074 20.0914 652.097 21.5219ZM652.466 14.4158C652.466 15.7309 653.504 16.6307 654.958 16.6307C656.365 16.6307 657.404 15.7309 657.404 14.4158C657.404 13.1468 656.388 12.247 654.958 12.247C653.481 12.247 652.466 13.1468 652.466 14.4158ZM680.425 7.81726V22.9062H677.564V16.1692H672.442V13.9543H677.564V12.3393H672.442V10.0783H677.564V7.81726H680.425ZM664.274 20.2299V9.10928H667.135V17.8765C669.627 17.8304 671.98 17.692 674.518 17.2305L674.795 19.5377C671.75 20.1145 668.981 20.2299 665.936 20.2299H664.274ZM666.766 27.9358V21.5219H669.673V25.6287H680.886V27.9358H666.766Z" fill="#FF8201"/>
<path d="M582.968 84.0266C580.442 84.0266 578.651 82.6835 578.651 80.8288C578.651 79.4058 579.723 78.2387 581.082 78.0148V77.9509C579.899 77.6951 579.099 76.6718 579.099 75.4247C579.099 73.6819 580.73 72.4028 582.968 72.4188C585.175 72.4028 586.806 73.6819 586.806 75.4247C586.806 76.6718 585.99 77.6951 584.823 77.9509V78.0148C586.166 78.2387 587.253 79.4058 587.253 80.8288C587.253 82.6835 585.463 84.0266 582.968 84.0266ZM580.762 80.669C580.746 81.6922 581.609 82.4117 582.968 82.4277C584.296 82.4117 585.159 81.6922 585.143 80.669C585.159 79.5817 584.232 78.7983 582.968 78.8143C581.689 78.7983 580.746 79.5817 580.762 80.669ZM581.082 75.6165C581.082 76.6078 581.865 77.2953 582.968 77.2793C584.04 77.2953 584.839 76.6078 584.823 75.6165C584.839 74.6572 584.072 74.0017 582.968 73.9857C581.833 74.0017 581.082 74.6572 581.082 75.6165ZM589.501 83.8667L594.426 74.3374V74.2735H588.734V72.5467H596.536V74.3054L591.612 83.8667H589.501ZM602.363 84.0266C600.141 84.0106 597.934 82.6995 597.95 78.5265C597.95 74.6572 599.709 72.4028 602.491 72.4188C604.65 72.4028 606.152 73.7778 606.392 75.6165H604.41C604.186 74.7371 603.498 74.1615 602.491 74.1775C600.828 74.1615 599.917 75.6165 599.933 78.0148H600.029C600.604 77.0235 601.692 76.4479 602.939 76.4479C604.953 76.4479 606.52 77.9829 606.52 80.1253C606.52 82.3638 604.857 84.0426 602.363 84.0266ZM600.157 80.1893C600.141 81.3565 601.068 82.3797 602.363 82.3638C603.61 82.3797 604.554 81.4044 604.538 80.1573C604.554 78.9582 603.642 77.9988 602.363 77.9829C601.116 77.9988 600.157 79.0061 600.157 80.1893ZM620.087 71.1397V85.2417H618.392V78.0148H616.889V84.6022H615.258V71.5234H616.889V76.6078H618.392V71.1397H620.087ZM607.839 81.0847C610.845 79.3579 612.124 77.1195 612.364 74.3054H608.511V72.9304H614.075C614.059 76.7357 612.86 80.0134 608.863 82.2998L607.839 81.0847ZM633.533 72.4188V73.8897C633.517 75.6325 633.517 77.5192 632.989 80.2852L631.294 80.1253C631.79 77.5032 631.79 75.5845 631.774 73.8897V73.8258H623.236V72.4188H633.533ZM621.957 83.419V82.012H624.835V77.5032H626.562V82.012H628.352V77.5032H630.079V82.012H634.812V83.419H621.957Z" fill="#FF8201"/>
<path fill-rule="evenodd" clip-rule="evenodd" d="M612.855 128.919V145.278C612.855 145.764 612.727 146.221 612.497 146.609H614.185C615.247 146.609 616.262 146.186 617.012 145.436C617.763 144.686 618.185 143.671 618.185 142.609V133.754C618.185 132.116 617.187 130.65 615.673 130.044L612.855 128.919ZM583.542 128.919L580.724 130.044C579.206 130.65 578.213 132.121 578.213 133.754V142.609C578.213 143.671 578.635 144.686 579.385 145.436C580.136 146.186 581.151 146.609 582.212 146.609H583.901C583.67 146.216 583.542 145.76 583.542 145.278V128.919ZM596.866 107.971V115.573C596.47 115.714 596.09 115.919 595.745 116.187C593.234 118.14 588.501 121.82 586.416 123.44C585.44 124.194 584.873 125.363 584.873 126.595V145.278C584.873 146.016 585.47 146.609 586.203 146.609H594.197V139.949C594.197 138.478 595.391 137.284 596.862 137.284H599.527C600.998 137.284 602.192 138.478 602.192 139.949V146.609H610.186C610.924 146.609 611.516 146.012 611.516 145.278V126.595C611.516 125.363 610.945 124.199 609.973 123.44C607.888 121.82 603.16 118.14 600.644 116.187C600.299 115.919 599.919 115.714 599.523 115.573V113.301H606.187C606.924 113.301 607.517 112.704 607.517 111.971V107.967C607.517 107.229 606.92 106.637 606.187 106.637H598.192C597.455 106.637 596.862 107.234 596.862 107.967L596.866 107.971ZM598.201 123.96C596.73 123.96 595.536 125.154 595.536 126.625C595.536 128.096 596.73 129.29 598.201 129.29C599.672 129.29 600.866 128.096 600.866 126.625C600.866 125.154 599.672 123.96 598.201 123.96Z" fill="#FF8201"/>
<path fill-rule="evenodd" clip-rule="evenodd" d="M667.673 128.919V145.278C667.673 145.764 667.546 146.221 667.315 146.609H669.004C670.065 146.609 671.08 146.186 671.831 145.436C672.581 144.686 673.003 143.671 673.003 142.609V133.754C673.003 132.116 672.005 130.65 670.492 130.044L667.673 128.919ZM638.361 128.919L635.543 130.044C634.025 130.65 633.031 132.121 633.031 133.754V142.609C633.031 143.671 633.453 144.686 634.204 145.436C634.954 146.186 635.969 146.609 637.031 146.609H638.719C638.489 146.216 638.361 145.76 638.361 145.278V128.919ZM651.685 107.971V115.573C651.288 115.714 650.909 115.919 650.563 116.187C648.052 118.14 643.319 121.82 641.235 123.44C640.258 124.194 639.691 125.363 639.691 126.595V145.278C639.691 146.016 640.288 146.609 641.021 146.609H649.016V139.949C649.016 138.478 650.21 137.284 651.68 137.284H654.345C655.816 137.284 657.01 138.478 657.01 139.949V146.609H665.004C665.742 146.609 666.335 146.012 666.335 145.278V126.595C666.335 125.363 665.763 124.199 664.791 123.44C662.706 121.82 657.978 118.14 655.462 116.187C655.117 115.919 654.738 115.714 654.341 115.573V113.301H661.005C661.743 113.301 662.335 112.704 662.335 111.971V107.967C662.335 107.229 661.738 106.637 661.005 106.637H653.011C652.273 106.637 651.68 107.234 651.68 107.967L651.685 107.971ZM653.019 123.96C651.548 123.96 650.354 125.154 650.354 126.625C650.354 128.096 651.548 129.29 653.019 129.29C654.49 129.29 655.684 128.096 655.684 126.625C655.684 125.154 654.49 123.96 653.019 123.96Z" fill="#FF8201"/>
<rect x="344.094" y="195.717" width="133.62" height="42.4574" rx="21.2287" fill="#FFEFE2"/>
<path d="M374.483 224.946V222.5L380.297 217.101C381.843 215.648 382.651 214.748 382.651 213.456C382.651 212.003 381.566 211.103 380.067 211.103C378.544 211.103 377.529 212.072 377.529 213.641H374.299C374.299 210.457 376.675 208.403 380.113 208.426C383.597 208.403 385.927 210.388 385.927 213.225C385.927 215.094 385.027 216.617 381.636 219.639L379.19 222.039V222.177H386.158V224.946H374.483ZM395.031 225.177C390.947 225.177 388.479 222.131 388.479 216.778C388.479 211.449 390.971 208.403 395.031 208.426C399.092 208.403 401.584 211.472 401.584 216.778C401.584 222.154 399.115 225.177 395.031 225.177ZM391.94 216.778C391.916 220.562 393.139 222.362 395.031 222.362C396.923 222.362 398.146 220.562 398.123 216.778C398.123 213.064 396.923 211.195 395.031 211.195C393.162 211.195 391.94 213.064 391.94 216.778ZM411.098 208.611V224.946H407.73V211.841H407.592L403.854 214.194V211.195L407.915 208.611H411.098ZM420.974 208.426C424.342 208.426 427.549 210.434 427.526 216.363C427.549 221.9 424.919 225.177 420.835 225.177C417.536 225.177 415.298 223.1 414.975 220.378H418.297C418.574 221.554 419.52 222.269 420.835 222.269C423.05 222.269 424.227 220.262 424.25 217.009H424.065C423.327 218.463 421.712 219.316 419.912 219.316C416.982 219.316 414.814 217.101 414.79 214.056C414.79 210.78 417.282 208.403 420.974 208.426ZM418.113 213.964C418.09 215.579 419.289 216.848 420.974 216.825C422.612 216.848 423.881 215.509 423.881 213.964C423.881 212.395 422.658 211.08 420.974 211.057C419.313 211.08 418.067 212.349 418.113 213.964ZM446.58 206.535V221.623H443.719V214.887H438.597V212.672H443.719V211.057H438.597V208.796H443.719V206.535H446.58ZM430.43 218.947V207.827H433.291V216.594C435.782 216.548 438.136 216.409 440.674 215.948L440.95 218.255C437.905 218.832 435.136 218.947 432.091 218.947H430.43ZM432.921 226.653V220.239H435.828V224.346H447.041V226.653H432.921Z" fill="#FF8201"/>
<path d="M422.741 271.136C424.947 271.136 427.138 272.463 427.154 276.572C427.154 280.489 425.379 282.743 422.613 282.743C420.422 282.743 418.919 281.384 418.679 279.514H420.694C420.902 280.409 421.589 280.985 422.613 280.985C424.244 280.985 425.171 279.53 425.171 277.115H425.043C424.483 278.091 423.396 278.666 422.165 278.682C420.134 278.666 418.568 277.131 418.584 275.005C418.568 272.782 420.23 271.104 422.741 271.136ZM420.534 274.941C420.55 276.156 421.446 277.115 422.709 277.115C423.972 277.115 424.947 276.108 424.947 274.941C424.931 273.774 424.02 272.766 422.741 272.766C421.478 272.766 420.534 273.742 420.534 274.941ZM433.141 282.743C430.727 282.743 429 281.432 428.952 279.514H430.999C431.047 280.425 431.958 281.033 433.141 281.017C434.372 281.033 435.268 280.345 435.284 279.354C435.268 278.315 434.404 277.595 432.917 277.595H431.926V276.028H432.917C434.133 276.028 434.964 275.357 434.964 274.365C434.964 273.422 434.245 272.782 433.141 272.766C432.086 272.782 431.175 273.374 431.127 274.333H429.176C429.224 272.431 430.951 271.12 433.173 271.136C435.46 271.12 436.947 272.527 436.915 274.269C436.947 275.532 436.099 276.444 434.868 276.7V276.796C436.467 277.003 437.362 278.027 437.362 279.45C437.362 281.352 435.572 282.743 433.141 282.743ZM439.706 282.583L444.63 273.054V272.99H438.938V271.263H446.741V273.022L441.816 282.583H439.706ZM460.22 269.856V283.959H458.525V276.732H457.022V283.319H455.392V270.24H457.022V275.325H458.525V269.856H460.22ZM447.973 279.801C450.979 278.075 452.258 275.836 452.498 273.022H448.644V271.647H454.208C454.192 275.453 452.993 278.73 448.996 281.017L447.973 279.801ZM473.666 271.136V272.607C473.65 274.349 473.65 276.236 473.123 279.002L471.428 278.842C471.924 276.22 471.924 274.301 471.908 272.607V272.543H463.37V271.136H473.666ZM462.09 282.136V280.729H464.968V276.22H466.695V280.729H468.486V276.22H470.213V280.729H474.945V282.136H462.09Z" fill="#FF8201"/>
<path fill-rule="evenodd" clip-rule="evenodd" d="M415.281 327.635V343.995C415.281 344.481 415.153 344.937 414.923 345.325H416.611C417.673 345.325 418.688 344.903 419.438 344.153C420.188 343.402 420.61 342.388 420.61 341.326V332.47C420.61 330.833 419.613 329.366 418.099 328.761L415.281 327.635ZM385.968 327.635L383.15 328.761C381.632 329.366 380.639 330.837 380.639 332.47V341.326C380.639 342.388 381.061 343.402 381.811 344.153C382.562 344.903 383.576 345.325 384.638 345.325H386.326C386.096 344.933 385.968 344.477 385.968 343.995V327.635ZM399.292 306.688V314.29C398.896 314.431 398.516 314.636 398.171 314.904C395.66 316.857 390.927 320.536 388.842 322.157C387.866 322.911 387.299 324.08 387.299 325.312V343.995C387.299 344.733 387.895 345.325 388.629 345.325H396.623V338.665C396.623 337.195 397.817 336.001 399.288 336.001H401.953C403.424 336.001 404.617 337.195 404.617 338.665V345.325H412.612C413.349 345.325 413.942 344.728 413.942 343.995V325.312C413.942 324.08 413.371 322.916 412.399 322.157C410.314 320.536 405.585 316.857 403.07 314.904C402.724 314.636 402.345 314.431 401.948 314.29V312.018H408.613C409.35 312.018 409.943 311.421 409.943 310.687V306.684C409.943 305.946 409.346 305.354 408.613 305.354H400.618C399.881 305.354 399.288 305.95 399.288 306.684L399.292 306.688ZM400.627 322.677C399.156 322.677 397.962 323.871 397.962 325.342C397.962 326.813 399.156 328.006 400.627 328.006C402.098 328.006 403.291 326.813 403.291 325.342C403.291 323.871 402.098 322.677 400.627 322.677Z" fill="#FF8201"/>
<path fill-rule="evenodd" clip-rule="evenodd" d="M470.099 327.635V343.995C470.099 344.481 469.971 344.937 469.741 345.325H471.43C472.491 345.325 473.506 344.903 474.256 344.153C475.007 343.402 475.429 342.388 475.429 341.326V332.47C475.429 330.833 474.431 329.366 472.918 328.761L470.099 327.635ZM440.787 327.635L437.968 328.761C436.45 329.366 435.457 330.837 435.457 332.47V341.326C435.457 342.388 435.879 343.402 436.63 344.153C437.38 344.903 438.395 345.325 439.456 345.325H441.145C440.915 344.933 440.787 344.477 440.787 343.995V327.635ZM454.111 306.688V314.29C453.714 314.431 453.335 314.636 452.989 314.904C450.478 316.857 445.745 320.536 443.66 322.157C442.684 322.911 442.117 324.08 442.117 325.312V343.995C442.117 344.733 442.714 345.325 443.447 345.325H451.441V338.665C451.441 337.195 452.635 336.001 454.106 336.001H456.771C458.242 336.001 459.436 337.195 459.436 338.665V345.325H467.43C468.168 345.325 468.76 344.728 468.76 343.995V325.312C468.76 324.08 468.189 322.916 467.217 322.157C465.132 320.536 460.404 316.857 457.888 314.904C457.543 314.636 457.163 314.431 456.767 314.29V312.018H463.431C464.169 312.018 464.761 311.421 464.761 310.687V306.684C464.761 305.946 464.164 305.354 463.431 305.354H455.437C454.699 305.354 454.106 305.95 454.106 306.684L454.111 306.688ZM455.445 322.677C453.974 322.677 452.78 323.871 452.78 325.342C452.78 326.813 453.974 328.006 455.445 328.006C456.916 328.006 458.11 326.813 458.11 325.342C458.11 323.871 456.916 322.677 455.445 322.677Z" fill="#FF8201"/>
</g>
<defs>
<clipPath id="clip0_3444_23617">
<rect width="1100" height="1010" fill="white"/>
</clipPath>
</defs>
</svg>
