<svg width="1000" height="92" viewBox="0 0 1000 92" fill="none" xmlns="http://www.w3.org/2000/svg">
<g clip-path="url(#clip0_2818_33793)">
<path d="M12.8127 1.8537C11.7349 3.02836 11.1536 4.56633 11.19 6.20116C11.2263 8.98644 13.4667 11.2026 16.1429 11.1541C17.2207 11.1299 18.2259 10.6818 18.9646 9.87046C19.1462 9.67671 19.3037 9.47084 19.4369 9.25286C19.0978 9.41029 18.7345 9.50717 18.3591 9.53139C16.6395 9.64038 15.15 8.27195 15.041 6.47969C14.932 4.76008 16.1308 3.28267 17.7415 3.06469C17.7657 3.06469 17.7899 3.05259 17.8262 3.04048C17.9594 3.01626 18.1653 3.01626 18.4075 3.04048C18.7466 3.07681 19.0614 3.16158 19.3641 3.29478C19.8485 3.48854 20.3693 3.79129 20.8295 4.27568C21.9315 5.42612 23.0214 7.36371 21.762 10.9482C21.2049 12.9827 16.6274 19.8369 10.1122 27.1634C-1.79181 40.557 -0.0600853 48.2952 0.278992 51.4922C1.76851 59.6543 9.30088 65.1159 17.1602 63.6869C20.2725 63.1177 22.9729 61.3376 24.7773 58.6492C26.2789 56.421 27.0055 53.7931 26.8965 51.1168C26.8723 50.5598 26.8117 50.0027 26.7149 49.4456C25.7824 44.0083 20.7689 40.3511 15.5496 41.2957C11.2869 42.0707 8.44106 46.3213 9.20399 50.7535C9.8337 54.3986 13.1881 56.8448 16.6758 56.2151C18.0684 55.9608 19.2915 55.1615 20.1029 53.9505C20.3693 53.563 20.5631 53.1513 20.7205 52.7153C20.0666 53.2966 19.2309 53.6599 18.3106 53.7204C16.0218 53.8658 14.0479 52.0493 13.8905 49.6636C13.7452 47.278 15.4769 45.2314 17.7657 45.0861C17.9958 45.074 18.2259 45.0861 18.4439 45.1103C19.7033 45.2193 20.9506 45.958 21.9194 47.2295C23.3484 49.0945 23.8811 51.686 23.2999 53.9869C22.7428 56.2151 20.9627 58.2859 18.5407 59.509C15.8765 60.8653 12.9702 60.9622 10.3544 59.7875C4.22683 57.0386 0.605919 50.9231 3.41542 40.9808C4.77173 37.4811 6.96365 33.4363 11.2384 28.3139C22.755 14.5207 24.2687 10.3549 24.1961 7.49693C24.1961 7.3395 24.1718 7.24261 24.1597 7.15784V7.13363C23.9902 3.11313 20.7568 -0.0717697 16.8816 0.000888824C15.3195 0.0251083 13.8663 0.691154 12.7764 1.86581L12.8127 1.8537Z" fill="#EAEAEA"/>
<path d="M86.2108 85.7502C84.8908 86.6342 83.2802 86.9733 81.6696 86.6948C78.9206 86.2346 77.08 83.6794 77.528 81.0516C77.7097 79.9859 78.3152 79.0655 79.2234 78.46C79.4414 78.3147 79.6715 78.1936 79.9016 78.0846C79.6957 78.3874 79.5382 78.7386 79.4656 79.114C79.1023 80.7973 80.2164 82.4684 81.9723 82.8559C83.6556 83.2192 85.3026 82.2747 85.7627 80.7004C85.7749 80.6762 85.787 80.6519 85.7991 80.6156C85.8354 80.4945 85.8718 80.2886 85.8839 80.0343C85.9081 79.6953 85.8718 79.3683 85.787 79.0534C85.678 78.5448 85.4479 77.9878 85.0483 77.4549C84.0795 76.1955 82.3236 74.815 78.6058 75.5173C76.5108 75.7595 69.039 79.2351 60.8042 84.5634C45.7516 94.2877 38.3767 91.3934 35.2644 90.5699C27.4293 87.8573 23.1788 79.5742 25.7824 72.0176C26.8117 69.0264 28.9915 66.6287 31.9342 65.2602C34.3683 64.1219 37.0688 63.807 39.6967 64.3157C40.2416 64.4247 40.7865 64.57 41.3194 64.7395C46.5508 66.4954 49.4088 71.9933 47.6771 77.019C46.2602 81.1121 41.6343 83.2798 37.3595 81.8508C33.8597 80.6762 31.9463 76.9947 33.1089 73.6282C33.5691 72.284 34.5499 71.2062 35.8699 70.5886C36.2938 70.3948 36.7419 70.2495 37.1899 70.1647C36.5239 70.7218 36.0274 71.4847 35.8215 72.393C35.325 74.6333 36.8266 76.8615 39.1517 77.3823C41.4889 77.8909 43.7777 76.4982 44.2621 74.2458C44.3106 74.0157 44.3347 73.7977 44.3468 73.5676C44.4316 72.3082 43.8867 70.9519 42.7847 69.8136C41.162 68.1182 38.6794 67.1978 36.318 67.4158C34.0292 67.6217 31.7162 69.0627 30.1298 71.2668C28.386 73.6887 27.8531 76.5467 28.604 79.3198C30.3841 85.7986 35.8821 90.3035 46.127 89.0441C49.7842 88.2327 54.1196 86.6827 59.8355 83.2435C75.2272 73.9673 79.5746 73.1075 82.3841 73.6161C82.5294 73.6403 82.6384 73.6766 82.7231 73.7008H82.7474C86.6952 74.4759 89.3473 78.1573 88.6813 81.984C88.4149 83.522 87.5429 84.8662 86.2108 85.7502Z" fill="#EAEAEA"/>
<path d="M4.74757 82.1771V82.1407C3.04008 78.5683 6.79409 74.7053 7.56913 73.9544C6.73355 73.47 6.04334 72.913 5.5105 72.3196C2.53147 68.9531 5.13509 65.0658 5.28041 64.7751C5.28041 64.7751 14.5808 72.477 26.9087 62.5348C26.9087 62.5348 15.9008 72.2591 22.0768 83.7393C22.0768 83.7393 15.9855 86.7909 13.2487 80.3606C13.2487 80.3606 8.34422 84.5264 4.74757 82.1771Z" fill="#EAEAEA"/>
<path d="M51.7461 83.4492C55.0763 80.2401 59.23 81.5722 59.23 81.5722C57.4135 78.6779 54.5435 79.5135 54.5435 79.5135C56.0572 75.493 53.2598 71.5936 53.2598 71.5936C53.5747 72.5866 53.7441 74.6938 52.7511 78.1572C51.9034 81.0999 51.7461 83.4492 51.7461 83.4492Z" fill="#EAEAEA"/>
<path d="M57.9342 51.3692C57.8737 50.7032 57.4014 50.243 56.9533 50.0977C56.481 49.9403 56.033 50.1582 55.8271 50.4004C55.597 50.6426 55.5243 50.9212 55.5243 51.0907C55.5243 51.2602 55.5485 51.345 55.5485 51.345C55.5485 51.345 55.5364 51.2602 55.5485 51.0907C55.5727 50.9333 55.6697 50.6911 55.8998 50.4852C56.1177 50.2915 56.4931 50.1582 56.8685 50.3278C57.2318 50.4852 57.5588 50.8969 57.5588 51.3935C57.5588 51.89 57.2924 52.447 56.7959 52.7498C56.2994 53.0646 55.6454 53.1615 54.9915 53.0283C54.3255 52.9072 53.6352 52.6044 52.9449 52.2533C52.2426 51.9021 51.5402 51.4661 50.7652 51.0907C49.9901 50.7153 49.1666 50.4004 48.3311 50.2915C47.5076 50.1704 46.6962 50.2067 45.9575 50.3157C45.7153 50.352 45.5215 50.4247 45.2915 50.461C48.2221 49.1289 51.2616 47.5062 52.2304 46.1499C52.9328 45.3748 53.9622 43.4857 52.8117 41.8266C51.5644 40.2523 49.542 40.8215 48.658 41.3422C47.1685 41.9841 44.9039 44.6482 42.93 47.2761C43.0269 47.0581 43.1359 46.8765 43.2328 46.6464C43.5113 45.9198 43.7535 45.1205 43.8504 44.2486C43.9594 43.3767 43.8746 42.4684 43.7051 41.5965C43.5476 40.7125 43.3297 39.889 43.1722 39.1019C43.0148 38.3148 42.9058 37.5397 42.9664 36.8373C43.0148 36.135 43.257 35.4931 43.6808 35.0814C44.0804 34.6576 44.6738 34.5122 45.134 34.6455C45.6063 34.7666 45.8969 35.2146 45.9575 35.6142C46.018 36.026 45.8122 36.3772 45.57 36.5467C45.3278 36.7284 45.0856 36.7647 44.9282 36.7526C44.7707 36.7405 44.686 36.7041 44.686 36.7041C44.686 36.7041 44.7586 36.7526 44.9161 36.7889C45.0735 36.8252 45.3399 36.8252 45.6305 36.6557C45.909 36.4983 46.2239 36.1107 46.1876 35.59C46.1755 35.0935 45.8606 34.5122 45.2551 34.2821C44.6738 34.0521 43.8988 34.1853 43.3418 34.6939C42.7726 35.1904 42.4335 35.9775 42.3488 36.7768C42.1671 38.4116 42.6757 40.0828 42.9905 41.754C43.148 42.5896 43.2328 43.413 43.1601 44.1881C43.0874 44.9752 42.9058 45.726 42.6636 46.4284C42.1913 47.8331 41.5495 49.032 40.9803 50.0129C40.9803 50.0371 40.9561 50.0493 40.944 50.0735C39.7935 51.7325 38.9943 52.9799 38.9338 53.0646H38.958C39.0791 53.0162 40.4233 52.5318 42.2156 51.7931C42.2398 51.7931 42.264 51.781 42.2882 51.7689C43.3418 51.4298 44.6133 51.0907 46.0301 50.9575C46.7446 50.8969 47.4833 50.8848 48.2342 51.018C48.9729 51.1391 49.7116 51.4298 50.4503 51.7931C51.9277 52.5318 53.3446 53.4521 54.9067 53.6822C55.6818 53.7912 56.4931 53.6459 57.0986 53.1978C57.7041 52.7619 58.019 52.0111 57.9585 51.3692H57.9342Z" fill="#EAEAEA"/>
<path d="M37.3716 57.0737C37.3716 55.2209 35.8699 53.7313 34.0292 53.7313C32.1885 53.7313 30.6869 55.233 30.6869 57.0737C30.6869 58.9144 32.1885 60.416 34.0292 60.416C35.8699 60.416 37.3716 58.9144 37.3716 57.0737Z" fill="#EAEAEA"/>
<path d="M62.669 57.0987C61.4096 57.2077 59.7506 57.8132 58.8423 58.4187C57.1106 59.5691 56.2387 58.8183 56.2387 58.8183C55.9602 60.9739 57.8857 60.768 57.8857 60.768C56.6989 62.2696 57.0743 64.2557 57.4013 65.2123C58.806 69.3176 64.9094 70.7224 66.1809 65.4545C63.7347 69.4024 58.8787 66.3991 60.0776 62.8146C60.9253 60.2836 62.9234 58.9515 65.3454 59.4359C64.6672 60.0777 64.4492 61.3614 64.4492 61.3614C69.5717 59.7387 69.4021 65.2487 69.4021 65.2487C68.7845 72.8053 61.7366 76.1113 56.9411 77.2012C57.2802 77.2254 57.6071 77.3102 57.9099 77.4434C58.1157 77.407 58.3337 77.3828 58.5275 77.3465C60.2955 77.0558 62.2089 76.3656 63.6984 75.6753C65.4059 74.8639 66.5926 75.2515 66.5926 75.2515C67.2466 74.0405 66.7743 73.4713 66.3263 73.217C70.2862 69.4387 70.7342 65.7573 70.6131 63.6623C70.2619 59.6297 66.6048 56.7717 62.669 57.0987Z" fill="#EAEAEA"/>
<path d="M10.6574 37.7711C13.7817 34.3682 12.3527 30.2508 12.3527 30.2508C15.2954 31.9947 14.5203 34.8889 14.5203 34.8889C18.5045 33.2662 22.4766 35.9667 22.4766 35.9667C21.4714 35.6882 19.3643 35.555 15.9251 36.6449C13.0066 37.5652 10.6574 37.7832 10.6574 37.7832V37.7711Z" fill="#EAEAEA"/>
<path d="M36.7174 26.1815C36.6447 27.4409 36.0755 29.1242 35.4943 30.0324C34.3801 31.7884 35.1673 32.6482 35.1673 32.6482C33.0118 32.9751 33.1692 31.0497 33.1692 31.0497C31.7039 32.2728 29.7058 31.9579 28.737 31.6552C24.5954 30.3473 23.0332 24.2923 28.2768 22.8876C24.3895 25.4307 27.5139 30.2141 31.0621 28.9304C33.5688 28.0222 34.8525 25.9877 34.3075 23.5778C33.6778 24.2802 32.4062 24.5224 32.4062 24.5224C33.8958 19.3515 28.3979 19.6663 28.3979 19.6663C20.8534 20.4777 17.7412 27.5983 16.7603 32.4181C16.7239 32.079 16.6391 31.752 16.4938 31.4493C16.518 31.2434 16.5423 31.0254 16.5786 30.8196C16.8208 29.0515 17.4626 27.1139 18.1287 25.6123C18.8916 23.8806 18.4798 22.7059 18.4798 22.7059C19.6666 22.0157 20.2479 22.4758 20.5143 22.9239C24.1957 18.8671 27.8529 18.3221 29.96 18.3948C34.0047 18.637 36.9475 22.2336 36.7174 26.1694V26.1815Z" fill="#EAEAEA"/>
<path d="M987.188 1.85175C988.266 3.02641 988.847 4.56437 988.811 6.19921C988.775 8.98449 986.534 11.2006 983.858 11.1522C982.78 11.1279 981.775 10.6799 981.036 9.86851C980.855 9.67476 980.697 9.46888 980.564 9.2509C980.903 9.40833 981.266 9.50522 981.642 9.52944C983.361 9.63843 984.851 8.27 984.96 6.47773C985.069 4.75813 983.87 3.28072 982.259 3.06274C982.235 3.06274 982.211 3.05064 982.175 3.03852C982.041 3.01431 981.836 3.01431 981.593 3.03852C981.254 3.07486 980.939 3.15962 980.637 3.29283C980.152 3.48659 979.632 3.78933 979.171 4.27373C978.069 5.42417 976.98 7.36176 978.239 10.9463C978.796 12.9808 983.374 19.835 989.889 27.1615C1001.79 40.555 1000.06 48.2933 999.722 51.4903C998.232 59.6523 990.7 65.1139 982.841 63.6849C979.728 63.1158 977.028 61.3356 975.224 58.6472C973.722 56.419 972.995 53.7911 973.104 51.1149C973.129 50.5578 973.189 50.0007 973.286 49.4437C974.218 44.0063 979.22 40.3491 984.451 41.2937C988.714 42.0688 991.56 46.3193 990.797 50.7516C990.167 54.3966 986.813 56.8428 983.325 56.2131C981.932 55.9588 980.709 55.1596 979.898 53.9486C979.632 53.5611 979.438 53.1493 979.28 52.7134C979.934 53.2946 980.77 53.6579 981.69 53.7185C983.979 53.8638 985.953 52.0473 986.11 49.6617C986.256 47.276 984.524 45.2294 982.235 45.0841C982.005 45.072 981.775 45.0841 981.557 45.1083C980.298 45.2173 979.05 45.956 978.082 47.2276C976.653 49.0925 976.12 51.684 976.701 53.9849C977.258 56.2131 979.038 58.2839 981.46 59.507C984.124 60.8633 987.031 60.9602 989.647 59.7856C995.774 57.0366 999.395 50.9211 996.585 40.9789C995.229 37.4791 993.037 33.4344 988.762 28.3119C977.246 14.5187 975.732 10.3529 975.805 7.49497C975.805 7.33754 975.829 7.24065 975.841 7.15589V7.13167C976.011 3.11118 979.244 -0.0737228 983.119 -0.0010643C984.681 0.0231552 986.135 0.689201 987.225 1.86386L987.188 1.85175Z" fill="#EAEAEA"/>
<path d="M913.79 85.7497C915.11 86.6337 916.72 86.9728 918.331 86.6943C921.08 86.2341 922.921 83.6789 922.473 81.0511C922.291 79.9854 921.685 79.065 920.777 78.4596C920.559 78.3142 920.329 78.1931 920.087 78.0841C920.293 78.3869 920.45 78.7381 920.523 79.1135C920.898 80.7968 919.772 82.4679 918.016 82.8555C916.333 83.2187 914.686 82.2742 914.226 80.6999C914.214 80.6757 914.202 80.6514 914.189 80.6151C914.153 80.494 914.117 80.2882 914.105 80.0338C914.08 79.6948 914.117 79.3678 914.202 79.0529C914.311 78.5443 914.541 77.9873 914.94 77.4544C915.909 76.195 917.665 74.8145 921.383 75.5168C923.478 75.759 930.95 79.2346 939.184 84.5629C954.261 94.2751 961.648 91.3808 964.76 90.5574C972.596 87.8447 976.846 79.5616 974.242 72.005C973.213 69.0138 971.033 66.6161 968.091 65.2476C965.657 64.1093 962.956 63.7945 960.328 64.3031C959.783 64.4121 959.238 64.5574 958.705 64.7269C953.474 66.4829 950.616 71.9808 952.348 77.0064C953.765 81.0995 958.391 83.2672 962.665 81.8382C966.165 80.6636 968.079 76.9821 966.916 73.6156C966.456 72.2714 965.475 71.1936 964.155 70.576C963.731 70.3822 963.283 70.2369 962.835 70.1522C963.501 70.7092 963.997 71.4721 964.203 72.3804C964.7 74.6207 963.198 76.8489 960.873 77.3697C958.536 77.8783 956.247 76.4856 955.763 74.2332C955.714 74.0031 955.69 73.7851 955.678 73.555C955.593 72.2956 956.138 70.9393 957.24 69.801C958.863 68.1056 961.345 67.1852 963.707 67.4032C965.996 67.6091 968.309 69.0502 969.895 71.2542C971.639 73.6761 972.172 76.5341 971.421 79.3072C969.641 85.786 964.143 90.2909 953.898 89.0315C950.241 88.2201 945.905 86.6701 940.189 83.2309C924.798 73.9547 920.45 73.0949 917.641 73.6035C917.495 73.6277 917.386 73.664 917.302 73.6882H917.277C913.33 74.4633 910.678 78.1447 911.344 81.9714C911.61 83.5094 912.482 84.8536 913.814 85.7376L913.79 85.7497Z" fill="#EAEAEA"/>
<path d="M995.254 82.1771V82.1407C996.961 78.5683 993.207 74.7053 992.432 73.9544C993.268 73.47 993.958 72.913 994.491 72.3196C997.47 68.9531 994.866 65.0658 994.721 64.7751C994.721 64.7751 985.42 72.477 973.092 62.5348C973.092 62.5348 984.1 72.2591 977.924 83.7393C977.924 83.7393 984.016 86.7909 986.752 80.3606C986.752 80.3606 991.657 84.5264 995.254 82.1771Z" fill="#EAEAEA"/>
<path d="M948.255 83.4492C944.925 80.2401 940.771 81.5722 940.771 81.5722C942.587 78.6779 945.457 79.5135 945.457 79.5135C943.944 75.493 946.741 71.5936 946.741 71.5936C946.426 72.5866 946.257 74.6938 947.25 78.1572C948.097 81.0999 948.255 83.4492 948.255 83.4492Z" fill="#EAEAEA"/>
<path d="M942.914 53.1978C943.508 53.6459 944.331 53.7912 945.106 53.6822C946.668 53.4642 948.085 52.5318 949.563 51.7931C950.301 51.4298 951.04 51.1391 951.779 51.018C952.53 50.8848 953.268 50.8969 953.983 50.9575C955.4 51.0907 956.683 51.4298 957.725 51.7689C957.749 51.7689 957.773 51.781 957.797 51.7931C959.59 52.5318 960.922 53.0162 961.055 53.0646H961.079C961.019 52.9799 960.219 51.7204 959.069 50.0735C959.057 50.0493 959.045 50.0371 959.033 50.0129C958.463 49.032 957.822 47.8331 957.349 46.4284C957.119 45.726 956.925 44.9752 956.853 44.1881C956.78 43.413 956.853 42.5896 957.022 41.754C957.337 40.0828 957.846 38.4116 957.664 36.7768C957.567 35.9654 957.228 35.1783 956.671 34.6939C956.114 34.1853 955.339 34.0521 954.758 34.2821C954.152 34.5122 953.837 35.1056 953.825 35.59C953.789 36.1107 954.104 36.4983 954.382 36.6557C954.673 36.8252 954.939 36.8252 955.097 36.7889C955.254 36.7526 955.327 36.7041 955.327 36.7041C955.327 36.7041 955.242 36.7405 955.085 36.7526C954.927 36.7647 954.685 36.7284 954.443 36.5467C954.201 36.3772 953.995 36.026 954.055 35.6142C954.104 35.2146 954.407 34.7666 954.879 34.6455C955.339 34.5122 955.932 34.6455 956.332 35.0814C956.756 35.5053 956.998 36.135 957.046 36.8373C957.095 37.5397 956.986 38.3148 956.841 39.1019C956.683 39.889 956.465 40.7125 956.308 41.5965C956.15 42.4684 956.066 43.3767 956.162 44.2486C956.259 45.1205 956.489 45.9198 956.78 46.6464C956.865 46.8765 956.986 47.0581 957.083 47.2761C955.109 44.6482 952.856 41.9841 951.355 41.3422C950.459 40.8215 948.448 40.2523 947.201 41.8266C946.051 43.4857 947.08 45.3748 947.782 46.1499C948.751 47.4941 951.791 49.1168 954.721 50.461C954.491 50.4125 954.298 50.352 954.055 50.3157C953.317 50.2067 952.505 50.1704 951.682 50.2915C950.846 50.4004 950.023 50.7153 949.248 51.0907C948.473 51.4782 947.758 51.9021 947.068 52.2533C946.378 52.6044 945.687 52.9072 945.021 53.0283C944.355 53.1494 943.701 53.0646 943.217 52.7498C942.72 52.447 942.442 51.89 942.454 51.3935C942.454 50.8969 942.793 50.4731 943.144 50.3278C943.52 50.1582 943.895 50.2915 944.113 50.4852C944.343 50.679 944.44 50.9212 944.464 51.0907C944.489 51.2602 944.464 51.345 944.464 51.345C944.464 51.345 944.489 51.2602 944.489 51.0907C944.489 50.9212 944.416 50.6547 944.186 50.4004C943.968 50.1582 943.532 49.9403 943.06 50.0977C942.599 50.243 942.139 50.7032 942.079 51.3692C942.006 52.0111 942.321 52.7619 942.938 53.1978H942.914Z" fill="#EAEAEA"/>
<path d="M962.629 57.0737C962.629 55.2209 964.131 53.7313 965.972 53.7313C967.812 53.7313 969.314 55.233 969.314 57.0737C969.314 58.9144 967.812 60.416 965.972 60.416C964.131 60.416 962.629 58.9144 962.629 57.0737Z" fill="#EAEAEA"/>
<path d="M937.332 57.0987C938.591 57.2077 940.25 57.8132 941.158 58.4187C942.89 59.5691 943.762 58.8183 943.762 58.8183C944.041 60.9739 942.115 60.768 942.115 60.768C943.302 62.2696 942.926 64.2557 942.599 65.2123C941.195 69.3176 935.091 70.7224 933.82 65.4545C936.266 69.4024 941.122 66.3991 939.923 62.8146C939.075 60.2836 937.077 58.9515 934.655 59.4359C935.334 60.0777 935.551 61.3614 935.551 61.3614C930.429 59.7387 930.599 65.2487 930.599 65.2487C931.216 72.8053 938.264 76.1113 943.06 77.2012C942.721 77.2254 942.394 77.3102 942.091 77.4434C941.885 77.407 941.667 77.3828 941.473 77.3465C939.705 77.0558 937.792 76.3656 936.302 75.6753C934.595 74.8639 933.408 75.2515 933.408 75.2515C932.754 74.0405 933.226 73.4713 933.674 73.217C929.715 69.4387 929.266 65.7573 929.388 63.6623C929.739 59.6297 933.396 56.7717 937.332 57.0987Z" fill="#EAEAEA"/>
<path d="M989.344 37.7711C986.219 34.3682 987.648 30.2508 987.648 30.2508C984.706 31.9947 985.481 34.8889 985.481 34.8889C981.497 33.2662 977.524 35.9667 977.524 35.9667C978.53 35.6882 980.637 35.555 984.076 36.6449C986.994 37.5652 989.344 37.7832 989.344 37.7832V37.7711Z" fill="#EAEAEA"/>
<path d="M963.283 26.1815C963.356 27.4409 963.925 29.1242 964.506 30.0324C965.62 31.7884 964.845 32.6482 964.845 32.6482C967.001 32.9751 966.843 31.0497 966.843 31.0497C968.309 32.2728 970.307 31.9579 971.275 31.6552C975.417 30.3473 976.979 24.2923 971.736 22.8876C975.623 25.4307 972.499 30.2141 968.95 28.9304C966.444 28.0222 965.16 25.9877 965.705 23.5778C966.335 24.2802 967.606 24.5224 967.606 24.5224C966.117 19.3515 971.615 19.6663 971.615 19.6663C979.159 20.4777 982.271 27.5983 983.252 32.4181C983.288 32.079 983.373 31.752 983.519 31.4493C983.494 31.2434 983.47 31.0254 983.434 30.8196C983.192 29.0515 982.55 27.1139 981.884 25.6123C981.121 23.8806 981.533 22.7059 981.533 22.7059C980.346 22.0157 979.764 22.4758 979.498 22.9239C975.817 18.8671 972.159 18.3221 970.052 18.3948C966.008 18.637 963.065 22.2336 963.295 26.1694L963.283 26.1815Z" fill="#EAEAEA"/>
<g clip-path="url(#clip1_2818_33793)">
<path d="M864.892 78.1042C864.892 76.6165 862.737 75.416 860.108 75.416C857.478 75.416 855.324 76.6267 855.324 78.1042C855.324 79.5818 857.478 80.7925 860.108 80.7925C862.737 80.7925 864.892 79.5818 864.892 78.1042Z" fill="#EAEAEA"/>
<path d="M884.885 78.1052L884.885 78.1155C883.881 80.065 878.969 80.2804 877.965 80.301C878.239 80.7729 878.385 81.2244 878.385 81.6245C878.385 83.9331 874.259 84.5385 873.966 84.6001C873.966 84.6001 872.268 78.4746 857.825 78.095C857.825 78.095 871.246 78.095 873.966 71.5898C873.966 71.5898 879.974 72.4928 877.965 75.8992C877.965 75.8992 883.844 75.971 884.885 78.095L884.885 78.1052Z" fill="#EAEAEA"/>
<path d="M531.61 78.1047C531.61 78.1047 715.935 79.9926 766.421 79.9926C816.907 79.9926 857.825 79.141 857.825 78.1047C857.825 77.0684 816.907 76.2168 766.421 76.2168C715.935 76.2168 531.61 78.1047 531.61 78.1047Z" fill="#EAEAEA"/>
<path d="M134.879 78.1042C134.879 79.592 137.033 80.7925 139.662 80.7925C142.292 80.7925 144.446 79.5818 144.446 78.1042C144.446 76.6267 142.292 75.416 139.662 75.416C137.033 75.416 134.879 76.6267 134.879 78.1042Z" fill="#EAEAEA"/>
<path d="M114.885 78.1042L114.885 78.094C115.889 76.1445 120.801 75.929 121.805 75.9085C121.531 75.4365 121.385 74.9851 121.385 74.5849C121.385 72.2763 125.512 71.6709 125.804 71.6094C125.804 71.6094 127.502 77.7349 141.945 78.1145C141.945 78.1145 128.524 78.1145 125.804 84.6196C125.804 84.6196 119.797 83.7167 121.805 80.3102C121.805 80.3102 115.926 80.2384 114.885 78.1145L114.885 78.1042Z" fill="#EAEAEA"/>
<path d="M468.16 78.1047C468.16 78.1047 283.836 76.2168 233.35 76.2168C182.863 76.2168 141.945 77.0684 141.945 78.1047C141.945 79.141 182.863 79.9926 233.35 79.9926C283.836 79.9926 468.16 78.1047 468.16 78.1047Z" fill="#EAEAEA"/>
<path d="M508.659 78.105C508.659 76.8327 506.833 75.8066 504.569 75.8066C502.305 75.8066 500.479 76.8327 500.479 78.105C500.479 79.3773 502.305 80.4033 504.569 80.4033C506.833 80.4033 508.659 79.3773 508.659 78.105Z" fill="#EAEAEA"/>
<path d="M525.731 78.1051L525.731 78.1153C524.873 79.7775 520.673 79.9622 519.833 79.9827C520.07 80.3829 520.198 80.7728 520.198 81.1217C520.198 83.0917 516.674 83.6149 516.437 83.6662C516.437 83.6662 514.994 78.4334 502.633 78.1153C502.633 78.1153 514.1 78.1153 516.437 72.5645C516.437 72.5645 521.586 73.334 519.851 76.2479C519.851 76.2479 524.873 76.3095 525.749 78.1256L525.731 78.1051Z" fill="#EAEAEA"/>
<path d="M483.589 78.1041L483.589 78.0939C484.447 76.4317 488.647 76.247 489.487 76.2265C489.249 75.8263 489.121 75.4364 489.121 75.0876C489.121 73.1176 492.645 72.5943 492.883 72.543C492.883 72.543 494.325 77.7758 506.687 78.0939C506.687 78.0939 495.22 78.0939 492.883 83.6448C492.883 83.6448 487.734 82.8752 489.468 79.9613C489.468 79.9613 484.447 79.8997 483.571 78.0836L483.589 78.1041Z" fill="#EAEAEA"/>
</g>
</g>
<defs>
<clipPath id="clip0_2818_33793">
<rect width="1000" height="91.5993" fill="white" transform="matrix(-1 0 0 -1 1000 91.5996)"/>
</clipPath>
<clipPath id="clip1_2818_33793">
<rect width="13" height="770" fill="white" transform="translate(884.885 71.5996) rotate(90)"/>
</clipPath>
</defs>
</svg>
