<svg width="1075" height="355" viewBox="0 0 1075 355" fill="none" xmlns="http://www.w3.org/2000/svg">
<rect x="0.4" y="107.4" width="207.2" height="104.2" fill="white" stroke="#A4A4A4" stroke-width="0.8"/>
<path d="M0 70.9435C0 63.2427 6.24271 57 13.9435 57H195.057C202.757 57 209 63.2427 209 70.9435V92.9451C209 100.646 202.757 106.889 195.057 106.889H13.9435C6.24271 106.889 0 100.646 0 92.9451V70.9435Z" fill="#2F5BC1"/>
<rect y="85.2891" width="209" height="28.2881" fill="#2F5BC1"/>
<path d="M59.918 79.5586C59.9102 80.8008 59.875 81.8906 59.8125 82.8281C59.7578 83.7656 59.6172 84.8281 59.3906 86.0156L60.7617 85.8398L60.9258 88.0664C59.8086 88.293 58.4414 88.4727 56.8242 88.6055V95.7305H53.9648V88.7695C52.5977 88.8164 51.3555 88.8398 50.2383 88.8398L49.9102 86.3789H50.7188C52.7734 86.3789 54.7109 86.332 56.5312 86.2383C56.6875 85.4492 56.8047 84.7227 56.8828 84.0586L51.0352 84.5039L50.7305 82.1602L57.0586 81.8789C57.0742 81.5273 57.0898 80.9805 57.1055 80.2383H51.2461V77.8242H59.918V79.5586ZM58.3945 89.707H61.8398V76.4414H64.6523V96.4102H61.8398V91.957H58.3945V89.707ZM66.1523 76.0898H68.9648V97.418H66.1523V76.0898ZM88.9805 97.4648H85.9805V86.6836H82.1367V84.293H85.9805V76.0898H88.9805V97.4648ZM70.8633 91.1367C71.9648 90.6445 72.8984 89.9492 73.6641 89.0508C74.4297 88.1523 75.0039 87.1562 75.3867 86.0625C75.7695 84.9688 75.9648 83.8711 75.9727 82.7695V81.9492H71.543V79.5586H75.9727V76.5586H78.9727V79.5586H83.2852V81.9492H78.9492V82.7695C78.9414 83.8242 79.1328 84.875 79.5234 85.9219C79.9141 86.9688 80.5 87.9258 81.2812 88.793C82.0625 89.6523 83.0117 90.3242 84.1289 90.8086L82.5352 93.1055C81.3555 92.6133 80.3359 91.8945 79.4766 90.9492C78.625 89.9961 77.957 88.8906 77.4727 87.6328C76.9961 88.9688 76.332 90.1445 75.4805 91.1602C74.6289 92.168 73.6133 92.9258 72.4336 93.4336L70.8633 91.1367ZM102.926 78.9023C102.918 79.9648 103.219 81.0078 103.828 82.0312C104.438 83.0469 105.316 83.9297 106.465 84.6797C107.613 85.4219 108.965 85.9258 110.52 86.1914L109.207 88.6758C107.379 88.3164 105.785 87.6484 104.426 86.6719C103.074 85.6875 102.047 84.5 101.344 83.1094C100.625 84.4922 99.5859 85.6758 98.2266 86.6602C96.875 87.6367 95.293 88.3086 93.4805 88.6758L92.1914 86.1914C93.7148 85.918 95.0469 85.4062 96.1875 84.6562C97.3281 83.9062 98.2031 83.0234 98.8125 82.0078C99.4219 80.9844 99.7305 79.9492 99.7383 78.9023V77.3555H102.926V78.9023ZM91.6992 92.332H111.223V94.793H91.6992V92.332ZM129.035 77.332C129.035 79.1758 128.656 80.8359 127.898 82.3125C127.141 83.7812 126.031 85.0391 124.57 86.0859C123.117 87.125 121.348 87.9336 119.262 88.5117L118.09 86.1914C120.363 85.5742 122.16 84.707 123.48 83.5898C124.801 82.4648 125.586 81.1758 125.836 79.7227H119.238V77.332H129.035ZM121.816 88.8867H135.949V97.1602H121.816V88.8867ZM132.996 94.8164V91.2305H124.746V94.8164H132.996ZM129.176 81.1758H132.973V76.1133H135.949V88.043H132.973V83.6133H129.176V81.1758ZM146.566 80.918C146.559 82.2227 146.742 83.4883 147.117 84.7148C147.492 85.9336 148.059 87.0273 148.816 87.9961C149.574 88.9648 150.504 89.7148 151.605 90.2461L149.801 92.6367C148.691 92.082 147.742 91.3086 146.953 90.3164C146.164 89.3164 145.543 88.1523 145.09 86.8242C144.605 88.2539 143.945 89.5039 143.109 90.5742C142.273 91.6367 141.27 92.457 140.098 93.0352L138.246 90.6211C139.41 90.0898 140.391 89.3203 141.188 88.3125C141.984 87.2969 142.578 86.1523 142.969 84.8789C143.367 83.5977 143.566 82.2773 143.566 80.918V77.7305H146.566V80.918ZM152.543 76.0898H155.543V84.3164H158.684V86.8477H155.543V97.418H152.543V76.0898Z" fill="white"/>
<path d="M21.0605 143.32C21.054 144.427 21.2233 145.495 21.5684 146.523C21.9134 147.552 22.4147 148.467 23.0723 149.268C23.7363 150.062 24.5241 150.658 25.4355 151.055L24.127 152.793C23.1504 152.318 22.3105 151.634 21.6074 150.742C20.9043 149.85 20.3607 148.812 19.9766 147.627C19.5794 148.883 19.0195 149.99 18.2969 150.947C17.5742 151.898 16.7181 152.624 15.7285 153.125L14.3613 151.367C15.2923 150.931 16.0964 150.293 16.7734 149.453C17.4505 148.613 17.9648 147.66 18.3164 146.592C18.668 145.524 18.847 144.434 18.8535 143.32V140.508H21.0605V143.32ZM23.4824 144.785H27.1934V139.082H29.3418V156.758H27.1934V146.543H23.4824V144.785ZM39.9996 139.258C41.3408 139.258 42.4866 139.378 43.4371 139.619C44.3876 139.854 45.1135 140.195 45.6148 140.645C46.1161 141.094 46.3668 141.641 46.3668 142.285C46.3668 142.936 46.1161 143.49 45.6148 143.945C45.1135 144.401 44.3876 144.746 43.4371 144.98C42.4866 145.208 41.3408 145.326 39.9996 145.332C38.6585 145.326 37.5126 145.208 36.5621 144.98C35.6116 144.746 34.8857 144.401 34.3844 143.945C33.8831 143.49 33.6324 142.936 33.6324 142.285C33.6324 141.641 33.8831 141.094 34.3844 140.645C34.8857 140.195 35.6116 139.854 36.5621 139.619C37.5191 139.378 38.665 139.258 39.9996 139.258ZM31.9723 146.25H48.066V147.949H41.0738V149.297H46.0543V153.613H36.0152V154.922H46.5426V156.582H33.8863V152.07H43.9254V150.898H33.8668V149.297H38.9059V147.949H31.9723V146.25ZM35.9176 142.285C35.9111 142.767 36.2496 143.125 36.9332 143.359C37.6168 143.594 38.6389 143.717 39.9996 143.73C41.3798 143.717 42.4117 143.594 43.0953 143.359C43.7789 143.125 44.1207 142.767 44.1207 142.285C44.1207 141.829 43.7724 141.484 43.0758 141.25C42.3857 141.009 41.3603 140.885 39.9996 140.879C38.6585 140.885 37.6396 141.009 36.943 141.25C36.2529 141.484 35.9111 141.829 35.9176 142.285ZM56.0871 143.32C56.0806 144.408 56.2596 145.465 56.6242 146.494C56.9888 147.523 57.5161 148.438 58.2062 149.238C58.8964 150.039 59.7069 150.638 60.6379 151.035L59.3488 152.773C58.3527 152.311 57.4836 151.641 56.7414 150.762C56.0057 149.876 55.4296 148.844 55.0129 147.666C54.5962 148.936 54.007 150.049 53.2453 151.006C52.4901 151.963 51.5884 152.689 50.5402 153.184L49.2121 151.367C50.1691 150.957 50.9992 150.339 51.7023 149.512C52.4055 148.678 52.9426 147.725 53.3137 146.65C53.6848 145.576 53.8736 144.466 53.8801 143.32V140.508H56.0871V143.32ZM61.9074 139.082H64.0949V156.758H61.9074V139.082ZM86.016 145.43H80.8598V147.363H87.852V149.141H71.7387V147.363H78.7113V145.43H73.8285V139.395H75.9965V143.672H86.016V145.43ZM73.6137 153.457C73.6137 152.773 73.8578 152.191 74.3461 151.709C74.8409 151.221 75.5473 150.846 76.4652 150.586C77.3897 150.326 78.49 150.195 79.766 150.195C81.029 150.195 82.1195 150.326 83.0375 150.586C83.9555 150.846 84.6586 151.221 85.1469 151.709C85.6352 152.191 85.8793 152.773 85.8793 153.457C85.8793 154.141 85.6352 154.727 85.1469 155.215C84.6586 155.703 83.9555 156.074 83.0375 156.328C82.1195 156.589 81.029 156.719 79.766 156.719C78.49 156.719 77.3897 156.589 76.4652 156.328C75.5473 156.074 74.8409 155.703 74.3461 155.215C73.8578 154.727 73.6137 154.141 73.6137 153.457ZM75.8207 153.457C75.8142 153.965 76.1495 154.355 76.8266 154.629C77.5036 154.902 78.4835 155.039 79.766 155.039C81.029 155.039 81.9991 154.902 82.6762 154.629C83.3533 154.355 83.6983 153.965 83.7113 153.457C83.7048 152.936 83.363 152.546 82.6859 152.285C82.0154 152.018 81.0421 151.882 79.766 151.875C78.4704 151.882 77.4874 152.018 76.8168 152.285C76.1462 152.546 75.8142 152.936 75.8207 153.457ZM98.373 140.547C98.3665 141.289 98.6237 142.012 99.1445 142.715C99.6719 143.418 100.411 144.02 101.361 144.521C102.318 145.023 103.406 145.352 104.623 145.508L103.764 147.266C102.279 147.044 100.964 146.589 99.8184 145.898C98.6725 145.202 97.8099 144.352 97.2305 143.35C96.651 144.352 95.7917 145.202 94.6523 145.898C93.513 146.589 92.2077 147.044 90.7363 147.266L89.877 145.508C91.0879 145.352 92.1654 145.023 93.1094 144.521C94.0534 144.02 94.7858 143.421 95.3066 142.725C95.8275 142.021 96.0879 141.296 96.0879 140.547V139.648H98.373V140.547ZM89.1738 148.789H105.268V150.586H98.2559V156.738H96.1074V150.586H89.1738V148.789ZM112.937 142.207C112.931 142.988 113.087 143.74 113.406 144.463C113.731 145.179 114.213 145.814 114.851 146.367C115.489 146.921 116.257 147.344 117.156 147.637L116.023 149.355C115.066 149.03 114.236 148.551 113.533 147.92C112.836 147.282 112.293 146.53 111.902 145.664C111.505 146.621 110.942 147.448 110.213 148.145C109.483 148.841 108.614 149.368 107.605 149.727L106.394 148.008C107.332 147.702 108.126 147.253 108.777 146.66C109.435 146.068 109.926 145.387 110.252 144.619C110.584 143.851 110.75 143.04 110.75 142.188V140.176H112.937V142.207ZM109.226 150.781H111.453V154.629H121.238V156.387H109.226V150.781ZM118.367 139.082H120.535V144.297H122.996V146.133H120.535V152.051H118.367V139.082ZM130.626 141.602C130.62 142.389 130.779 143.141 131.105 143.857C131.43 144.567 131.912 145.195 132.55 145.742C133.195 146.289 133.973 146.706 134.884 146.992L133.81 148.711C132.814 148.379 131.951 147.891 131.222 147.246C130.499 146.602 129.933 145.84 129.523 144.961C129.119 145.911 128.546 146.735 127.804 147.432C127.062 148.128 126.18 148.652 125.157 149.004L124.064 147.305C124.988 146.992 125.773 146.543 126.417 145.957C127.068 145.365 127.56 144.694 127.892 143.945C128.224 143.197 128.387 142.415 128.38 141.602V139.922H130.626V141.602ZM126.7 150.449H138.751V156.738H136.564V152.188H126.7V150.449ZM136.564 139.082H138.751V149.648H136.564V139.082ZM157.573 149.18H150.581V150.879H155.62V156.523H143.374V150.879H148.432V149.18H141.479V147.441H157.573V149.18ZM142.925 139.609H156.089V141.348H153.667V144.375H155.991V146.133H143.022V144.375H145.346V141.348H142.925V139.609ZM153.511 154.766V152.559H145.522V154.766H153.511ZM151.479 144.375V141.348H147.514V144.375H151.479ZM166.864 150.117C168.14 150.117 169.246 150.251 170.184 150.518C171.128 150.778 171.854 151.159 172.362 151.66C172.876 152.155 173.133 152.747 173.133 153.438C173.133 154.115 172.876 154.697 172.362 155.186C171.854 155.68 171.128 156.058 170.184 156.318C169.246 156.585 168.14 156.719 166.864 156.719C165.601 156.719 164.497 156.585 163.553 156.318C162.616 156.058 161.89 155.68 161.375 155.186C160.868 154.697 160.614 154.115 160.614 153.438C160.614 152.747 160.868 152.155 161.375 151.66C161.89 151.159 162.616 150.778 163.553 150.518C164.497 150.251 165.601 150.117 166.864 150.117ZM158.954 147.09H165.164V143.887H167.313V147.09H174.969V148.848H158.954V147.09ZM160.789 139.922H173.016V141.387V141.904C173.016 142.666 172.983 143.372 172.918 144.023C172.86 144.674 172.73 145.358 172.528 146.074L170.379 145.879C170.575 145.111 170.702 144.411 170.76 143.779C170.819 143.148 170.848 142.435 170.848 141.641H160.789V139.922ZM162.801 153.438C162.795 153.952 163.146 154.349 163.856 154.629C164.572 154.902 165.575 155.039 166.864 155.039C168.153 155.039 169.159 154.902 169.881 154.629C170.61 154.349 170.978 153.952 170.985 153.438C170.978 152.904 170.61 152.49 169.881 152.197C169.159 151.904 168.153 151.758 166.864 151.758C165.581 151.758 164.582 151.904 163.866 152.197C163.149 152.49 162.795 152.904 162.801 153.438ZM182.658 143.32C182.652 144.382 182.818 145.417 183.156 146.426C183.501 147.435 183.996 148.34 184.641 149.141C185.292 149.935 186.063 150.547 186.955 150.977L185.627 152.715C184.689 152.24 183.876 151.562 183.186 150.684C182.502 149.805 181.968 148.789 181.584 147.637C181.187 148.867 180.627 149.954 179.904 150.898C179.188 151.836 178.335 152.552 177.346 153.047L176.018 151.309C176.936 150.872 177.73 150.238 178.4 149.404C179.077 148.564 179.592 147.617 179.943 146.562C180.301 145.501 180.484 144.421 180.49 143.32V140.508H182.658V143.32ZM188.01 139.082H190.178V145.996H192.893V147.852H190.178V156.738H188.01V139.082ZM65.7812 176.258H68.2422V178.055H65.7812V183.992H63.6133V171.082H65.7812V176.258ZM52.0508 176.707C52.0508 175.854 52.2591 175.089 52.6758 174.412C53.0924 173.735 53.6621 173.208 54.3848 172.83C55.1139 172.446 55.9245 172.254 56.8164 172.254C57.7018 172.254 58.5059 172.446 59.2285 172.83C59.9577 173.208 60.5306 173.735 60.9473 174.412C61.3639 175.089 61.5755 175.854 61.582 176.707C61.5755 177.547 61.3607 178.305 60.9375 178.982C60.5208 179.66 59.9512 180.19 59.2285 180.574C58.5059 180.952 57.7018 181.141 56.8164 181.141C55.931 181.141 55.1237 180.952 54.3945 180.574C53.6654 180.19 53.0924 179.66 52.6758 178.982C52.2591 178.305 52.0508 177.547 52.0508 176.707ZM54.1797 176.707C54.1797 177.202 54.2936 177.641 54.5215 178.025C54.7559 178.41 55.0749 178.706 55.4785 178.914C55.8822 179.122 56.3281 179.227 56.8164 179.227C57.3112 179.227 57.7572 179.122 58.1543 178.914C58.5579 178.706 58.8737 178.413 59.1016 178.035C59.3359 177.651 59.4531 177.208 59.4531 176.707C59.4531 176.199 59.3359 175.753 59.1016 175.369C58.8737 174.979 58.5579 174.679 58.1543 174.471C57.7572 174.256 57.3112 174.148 56.8164 174.148C56.3216 174.148 55.8724 174.256 55.4688 174.471C55.0716 174.679 54.7559 174.979 54.5215 175.369C54.2936 175.753 54.1797 176.199 54.1797 176.707ZM54.4727 182.645H56.6406V186.629H66.4844V188.387H54.4727V182.645ZM84.0758 183.992H81.9078V177.527H78.7828V175.77H81.9078V171.102H84.0758V183.992ZM69.2516 180.184C70.163 179.884 70.9443 179.448 71.5953 178.875C72.2464 178.296 72.7379 177.638 73.0699 176.902C73.402 176.16 73.568 175.392 73.568 174.598V174.129H69.8961V172.371H79.4273V174.129H75.775V174.617C75.775 175.34 75.9345 176.046 76.2535 176.736C76.5725 177.42 77.0445 178.035 77.6695 178.582C78.2945 179.122 79.0497 179.539 79.9352 179.832L78.8414 181.57C77.8779 181.238 77.0445 180.757 76.3414 180.125C75.6448 179.487 75.0979 178.738 74.7008 177.879C74.3036 178.829 73.7372 179.656 73.0016 180.359C72.2659 181.062 71.387 181.59 70.3648 181.941L69.2516 180.184ZM72.4938 182.859H74.6617V186.629H84.525V188.387H72.4938V182.859ZM93.1906 173.621C93.1841 174.435 93.3371 175.206 93.6496 175.936C93.9686 176.658 94.4406 177.296 95.0656 177.85C95.6906 178.396 96.4523 178.81 97.3508 179.09L96.1789 180.789C95.2349 180.451 94.4244 179.972 93.7473 179.354C93.0702 178.735 92.5396 177.999 92.1555 177.146C91.7583 178.13 91.1887 178.982 90.4465 179.705C89.7043 180.421 88.8091 180.965 87.7609 181.336L86.6086 179.578C87.5591 179.266 88.3632 178.813 89.0207 178.221C89.6783 177.628 90.1698 176.948 90.4953 176.18C90.8273 175.405 90.9966 174.585 91.0031 173.719V172.039H93.1906V173.621ZM89.5383 185.34C89.5318 184.63 89.7694 184.021 90.2512 183.514C90.7329 182.999 91.423 182.609 92.3215 182.342C93.2264 182.075 94.2974 181.941 95.5344 181.941C96.7779 181.941 97.8521 182.075 98.757 182.342C99.662 182.609 100.355 182.999 100.837 183.514C101.325 184.021 101.57 184.63 101.57 185.34C101.57 186.049 101.325 186.658 100.837 187.166C100.355 187.674 99.662 188.058 98.757 188.318C97.8521 188.585 96.7779 188.719 95.5344 188.719C94.2974 188.719 93.2264 188.585 92.3215 188.318C91.423 188.058 90.7329 187.674 90.2512 187.166C89.7694 186.658 89.5318 186.049 89.5383 185.34ZM91.6867 185.34C91.6802 185.874 92.0122 186.287 92.6828 186.58C93.3534 186.867 94.3039 187.013 95.5344 187.02C96.7714 187.013 97.7251 186.867 98.3957 186.58C99.0663 186.287 99.4016 185.874 99.4016 185.34C99.4016 184.786 99.0663 184.363 98.3957 184.07C97.7316 183.777 96.7779 183.628 95.5344 183.621C94.2974 183.628 93.3436 183.777 92.673 184.07C92.009 184.363 91.6802 184.786 91.6867 185.34ZM95.8273 174.5H99.343V171.082H101.511V181.473H99.343V176.277H95.8273V174.5ZM113.302 172.156C113.302 173.66 112.979 175.018 112.335 176.229C111.697 177.433 110.769 178.465 109.552 179.324C108.341 180.184 106.876 180.854 105.157 181.336L104.278 179.637C106.244 179.103 107.8 178.341 108.946 177.352C110.098 176.355 110.776 175.21 110.977 173.914H105.235V172.156H113.302ZM107.325 181.746H118.946V188.504H107.325V181.746ZM116.798 186.785V183.465H109.454V186.785H116.798ZM113.38 175.418H116.778V171.102H118.946V181.043H116.778V177.195H113.38V175.418ZM127.905 175.32C127.898 176.382 128.064 177.417 128.403 178.426C128.748 179.435 129.243 180.34 129.887 181.141C130.538 181.935 131.31 182.547 132.202 182.977L130.873 184.715C129.936 184.24 129.122 183.562 128.432 182.684C127.748 181.805 127.215 180.789 126.83 179.637C126.433 180.867 125.873 181.954 125.151 182.898C124.435 183.836 123.582 184.552 122.592 185.047L121.264 183.309C122.182 182.872 122.976 182.238 123.647 181.404C124.324 180.564 124.838 179.617 125.19 178.562C125.548 177.501 125.73 176.421 125.737 175.32V172.508H127.905V175.32ZM133.256 171.082H135.424V177.996H138.139V179.852H135.424V188.738H133.256V171.082ZM153.699 180.086H151.551V171.082H153.699V180.086ZM139.012 178.367C139.936 178.074 140.727 177.645 141.385 177.078C142.042 176.512 142.537 175.867 142.869 175.145C143.208 174.415 143.374 173.66 143.367 172.879V171.512H145.613V172.879C145.607 173.634 145.77 174.357 146.102 175.047C146.434 175.73 146.919 176.339 147.557 176.873C148.201 177.4 148.979 177.801 149.891 178.074L148.836 179.754C147.827 179.441 146.958 178.976 146.229 178.357C145.499 177.732 144.93 176.99 144.52 176.131C144.109 177.062 143.53 177.869 142.781 178.553C142.033 179.23 141.141 179.734 140.105 180.066L139.012 178.367ZM142.02 180.906H153.738V185.496H144.188V186.863H154.266V188.582H142.059V183.875H151.57V182.586H142.02V180.906Z" fill="#0F172A"/>
<rect x="457.4" y="184.4" width="207.2" height="104.2" fill="white" stroke="#A4A4A4" stroke-width="0.8"/>
<path d="M457 147.944C457 140.243 463.243 134 470.943 134H652.057C659.757 134 666 140.243 666 147.943V169.945C666 177.646 659.757 183.889 652.057 183.889H470.943C463.243 183.889 457 177.646 457 169.945V147.944Z" fill="#2F5BC1"/>
<rect x="457" y="162.289" width="209" height="28.2881" fill="#2F5BC1"/>
<path d="M514.82 165.746H511.844V160.707H508.516V158.293H511.844V153.09H514.82V165.746ZM496.703 163.402C497.82 163.027 498.762 162.492 499.527 161.797C500.293 161.102 500.867 160.32 501.25 159.453C501.633 158.586 501.836 157.691 501.859 156.77H497.57V154.379H509.148V156.77H504.906C504.93 157.629 505.121 158.457 505.48 159.254C505.84 160.043 506.383 160.754 507.109 161.387C507.844 162.02 508.742 162.512 509.805 162.863L508.328 165.207C507.188 164.84 506.203 164.293 505.375 163.566C504.555 162.832 503.906 161.973 503.43 160.988C502.945 162.105 502.27 163.078 501.402 163.906C500.535 164.727 499.484 165.348 498.25 165.77L496.703 163.402ZM500.195 170.34C500.195 169.488 500.488 168.754 501.074 168.137C501.668 167.512 502.516 167.035 503.617 166.707C504.719 166.379 506.023 166.215 507.531 166.215C509.047 166.215 510.355 166.379 511.457 166.707C512.559 167.035 513.406 167.508 514 168.125C514.594 168.742 514.891 169.48 514.891 170.34C514.891 171.199 514.594 171.934 514 172.543C513.406 173.16 512.559 173.629 511.457 173.949C510.355 174.277 509.047 174.441 507.531 174.441C506.023 174.441 504.719 174.277 503.617 173.949C502.516 173.629 501.668 173.16 501.074 172.543C500.488 171.926 500.195 171.191 500.195 170.34ZM503.172 170.34C503.172 170.941 503.543 171.398 504.285 171.711C505.027 172.016 506.109 172.168 507.531 172.168C508.961 172.168 510.047 172.016 510.789 171.711C511.531 171.406 511.906 170.949 511.914 170.34C511.906 169.738 511.535 169.285 510.801 168.98C510.074 168.668 509.012 168.512 507.613 168.512C504.652 168.512 503.172 169.121 503.172 170.34ZM529.094 163.145H518.664V154.145H529.094V163.145ZM521.148 168.418H532.492V167.105H521.148V164.785H535.422V170.527H524.125V171.91H535.984V174.277H521.148V168.418ZM526.117 160.848V156.535H521.617V160.848H526.117ZM532.445 153.09H535.422V163.871H532.445V153.09ZM549.391 154.332C549.391 156.176 549.012 157.836 548.254 159.312C547.496 160.781 546.387 162.039 544.926 163.086C543.473 164.125 541.703 164.934 539.617 165.512L538.445 163.191C540.719 162.574 542.516 161.707 543.836 160.59C545.156 159.465 545.941 158.176 546.191 156.723H539.594V154.332H549.391ZM542.172 165.887H556.305V174.16H542.172V165.887ZM553.352 171.816V168.23H545.102V171.816H553.352ZM549.531 158.176H553.328V153.113H556.305V165.043H553.328V160.613H549.531V158.176ZM566.922 157.918C566.914 159.223 567.098 160.488 567.473 161.715C567.848 162.934 568.414 164.027 569.172 164.996C569.93 165.965 570.859 166.715 571.961 167.246L570.156 169.637C569.047 169.082 568.098 168.309 567.309 167.316C566.52 166.316 565.898 165.152 565.445 163.824C564.961 165.254 564.301 166.504 563.465 167.574C562.629 168.637 561.625 169.457 560.453 170.035L558.602 167.621C559.766 167.09 560.746 166.32 561.543 165.312C562.34 164.297 562.934 163.152 563.324 161.879C563.723 160.598 563.922 159.277 563.922 157.918V154.73H566.922V157.918ZM572.898 153.09H575.898V161.316H579.039V163.848H575.898V174.418H572.898V153.09ZM592.258 154.52C593.375 154.52 594.383 154.742 595.281 155.188C596.18 155.633 596.883 156.254 597.391 157.051C597.906 157.84 598.164 158.738 598.164 159.746C598.164 160.754 597.906 161.656 597.391 162.453C596.883 163.25 596.18 163.875 595.281 164.328C594.383 164.773 593.375 164.996 592.258 164.996C591.148 164.996 590.141 164.773 589.234 164.328C588.328 163.875 587.617 163.25 587.102 162.453C586.586 161.656 586.328 160.754 586.328 159.746C586.328 158.746 586.586 157.848 587.102 157.051C587.617 156.254 588.328 155.633 589.234 155.188C590.141 154.742 591.148 154.52 592.258 154.52ZM586.316 167.668C588.66 167.668 590.898 167.621 593.031 167.527C595.172 167.434 597.188 167.254 599.078 166.988L599.312 169.145C597.219 169.551 595.09 169.812 592.926 169.93C590.77 170.047 588.391 170.105 585.789 170.105L585.438 167.668H586.316ZM589.305 159.746C589.305 160.293 589.43 160.77 589.68 161.176C589.938 161.574 590.289 161.879 590.734 162.09C591.188 162.301 591.695 162.402 592.258 162.395C592.828 162.402 593.34 162.301 593.793 162.09C594.246 161.879 594.602 161.574 594.859 161.176C595.125 160.77 595.258 160.293 595.258 159.746C595.258 159.207 595.125 158.738 594.859 158.34C594.602 157.934 594.246 157.625 593.793 157.414C593.34 157.203 592.828 157.098 592.258 157.098C591.695 157.098 591.188 157.203 590.734 157.414C590.289 157.625 589.938 157.934 589.68 158.34C589.43 158.738 589.305 159.207 589.305 159.746ZM600.297 153.09H603.273V174.465H600.297V153.09ZM618.602 161.27H610.633V163.121H619.094V165.441H614.711V168.09C616.5 168.02 618.203 167.902 619.82 167.738L620.055 169.918C618.312 170.199 616.516 170.395 614.664 170.504C612.82 170.613 610.906 170.668 608.922 170.668C608.344 170.668 607.547 170.66 606.531 170.645L606.18 168.207L608.125 168.219C609.289 168.219 610.484 168.207 611.711 168.184V165.441H607.633V159.113H615.648V157.285H607.609V154.941H618.602V161.27ZM621.039 153.09H624.016V174.465H621.039V153.09Z" fill="white"/>
<path d="M481.009 236.32C481.002 237.427 481.171 238.495 481.516 239.523C481.861 240.552 482.363 241.467 483.02 242.268C483.684 243.062 484.472 243.658 485.384 244.055L484.075 245.793C483.098 245.318 482.259 244.634 481.555 243.742C480.852 242.85 480.309 241.812 479.925 240.627C479.527 241.883 478.968 242.99 478.245 243.947C477.522 244.898 476.666 245.624 475.677 246.125L474.309 244.367C475.24 243.931 476.044 243.293 476.721 242.453C477.399 241.613 477.913 240.66 478.264 239.592C478.616 238.524 478.795 237.434 478.802 236.32V233.508H481.009V236.32ZM483.43 237.785H487.141V232.082H489.29V249.758H487.141V239.543H483.43V237.785ZM499.948 232.258C501.289 232.258 502.435 232.378 503.385 232.619C504.336 232.854 505.062 233.195 505.563 233.645C506.064 234.094 506.315 234.641 506.315 235.285C506.315 235.936 506.064 236.49 505.563 236.945C505.062 237.401 504.336 237.746 503.385 237.98C502.435 238.208 501.289 238.326 499.948 238.332C498.607 238.326 497.461 238.208 496.51 237.98C495.56 237.746 494.834 237.401 494.332 236.945C493.831 236.49 493.58 235.936 493.58 235.285C493.58 234.641 493.831 234.094 494.332 233.645C494.834 233.195 495.56 232.854 496.51 232.619C497.467 232.378 498.613 232.258 499.948 232.258ZM491.92 239.25H508.014V240.949H501.022V242.297H506.002V246.613H495.963V247.922H506.491V249.582H493.834V245.07H503.873V243.898H493.815V242.297H498.854V240.949H491.92V239.25ZM495.866 235.285C495.859 235.767 496.198 236.125 496.881 236.359C497.565 236.594 498.587 236.717 499.948 236.73C501.328 236.717 502.36 236.594 503.043 236.359C503.727 236.125 504.069 235.767 504.069 235.285C504.069 234.829 503.72 234.484 503.024 234.25C502.334 234.009 501.308 233.885 499.948 233.879C498.607 233.885 497.588 234.009 496.891 234.25C496.201 234.484 495.859 234.829 495.866 235.285ZM516.035 236.32C516.029 237.408 516.208 238.465 516.572 239.494C516.937 240.523 517.464 241.438 518.154 242.238C518.844 243.039 519.655 243.638 520.586 244.035L519.297 245.773C518.301 245.311 517.432 244.641 516.689 243.762C515.954 242.876 515.378 241.844 514.961 240.666C514.544 241.936 513.955 243.049 513.193 244.006C512.438 244.963 511.536 245.689 510.488 246.184L509.16 244.367C510.117 243.957 510.947 243.339 511.65 242.512C512.354 241.678 512.891 240.725 513.262 239.65C513.633 238.576 513.822 237.466 513.828 236.32V233.508H516.035V236.32ZM521.855 232.082H524.043V249.758H521.855V232.082ZM542.923 247.609H526.791V245.832H533.744V242.395H528.568V233.254H530.736V236.145H538.92V233.254H541.087V242.395H535.892V245.832H542.923V247.609ZM538.92 240.637V237.883H530.736V240.637H538.92ZM559.011 245.051H556.843V239.113H553.445V237.316H556.843V232.102H559.011V245.051ZM544.46 241.457C545.73 241.053 546.843 240.542 547.8 239.924C548.757 239.299 549.525 238.589 550.105 237.795C550.691 236.994 551.052 236.132 551.189 235.207H545.378V233.43H553.562C553.562 234.966 553.236 236.372 552.585 237.648C551.934 238.924 550.997 240.031 549.773 240.969C548.549 241.906 547.084 242.648 545.378 243.195L544.46 241.457ZM547.507 243.742H549.714V247.629H559.46V249.387H547.507V243.742ZM575.645 238H578.028V239.797H575.645V245.871H573.477V232.082H575.645V238ZM561.505 242.336C563.191 242.336 564.675 242.316 565.958 242.277V241.154C564.968 241.031 564.184 240.738 563.604 240.275C563.031 239.813 562.748 239.23 562.755 238.527C562.755 237.961 562.93 237.473 563.282 237.062C563.634 236.646 564.128 236.33 564.766 236.115C565.411 235.894 566.16 235.786 567.012 235.793C567.865 235.786 568.611 235.894 569.249 236.115C569.893 236.33 570.391 236.646 570.743 237.062C571.095 237.473 571.27 237.961 571.27 238.527C571.27 239.224 570.99 239.803 570.43 240.266C569.871 240.728 569.102 241.024 568.126 241.154V242.17C569.792 242.072 571.27 241.926 572.559 241.73L572.735 243.254C571.088 243.56 569.392 243.762 567.647 243.859C565.902 243.957 563.933 244.016 561.739 244.035L561.505 242.336ZM561.954 233.625H565.958V232.023H568.126V233.625H572.091V235.207H561.954V233.625ZM564.044 244.953H566.212V247.629H576.27V249.387H564.044V244.953ZM564.845 238.527C564.838 238.905 565.027 239.201 565.411 239.416C565.795 239.631 566.329 239.738 567.012 239.738C567.696 239.738 568.23 239.631 568.614 239.416C569.005 239.201 569.2 238.905 569.2 238.527C569.2 238.117 569.011 237.805 568.634 237.59C568.256 237.368 567.729 237.258 567.052 237.258C566.348 237.258 565.802 237.365 565.411 237.58C565.027 237.795 564.838 238.111 564.845 238.527ZM593.881 242.414H591.713V240.461H587.514V238.703H591.713V236.809H587.68C587.127 238.202 586.215 239.39 584.946 240.373C583.676 241.35 582.078 242.108 580.151 242.648L579.272 240.93C581.303 240.383 582.879 239.608 583.998 238.605C585.125 237.596 585.773 236.424 585.942 235.09H580.209V233.332H588.315C588.315 233.944 588.266 234.53 588.168 235.09H591.713V232.102H593.881V242.414ZM582.045 246.125C582.045 245.409 582.293 244.787 582.787 244.26C583.282 243.732 583.979 243.326 584.877 243.039C585.782 242.753 586.837 242.609 588.041 242.609C589.226 242.609 590.268 242.753 591.166 243.039C592.065 243.326 592.761 243.732 593.256 244.26C593.751 244.787 593.998 245.409 593.998 246.125C593.998 246.841 593.751 247.466 593.256 248C592.761 248.527 592.065 248.931 591.166 249.211C590.268 249.497 589.226 249.641 588.041 249.641C586.843 249.641 585.792 249.497 584.887 249.211C583.982 248.931 583.282 248.527 582.787 248C582.293 247.466 582.045 246.841 582.045 246.125ZM584.213 246.125C584.213 246.698 584.552 247.141 585.229 247.453C585.906 247.766 586.843 247.922 588.041 247.922C589.22 247.922 590.144 247.766 590.815 247.453C591.485 247.141 591.824 246.698 591.83 246.125C591.824 245.539 591.485 245.09 590.815 244.777C590.151 244.465 589.226 244.309 588.041 244.309C586.843 244.309 585.906 244.465 585.229 244.777C584.552 245.09 584.213 245.539 584.213 246.125ZM611.316 245.051H609.148V240.676H604.939C604.516 241.151 604.002 241.522 603.396 241.789C602.791 242.056 602.137 242.193 601.434 242.199C600.555 242.199 599.76 242.004 599.051 241.613C598.341 241.223 597.781 240.686 597.371 240.002C596.967 239.312 596.766 238.54 596.766 237.688C596.766 236.822 596.967 236.047 597.371 235.363C597.781 234.673 598.341 234.133 599.051 233.742C599.76 233.352 600.555 233.156 601.434 233.156C602.13 233.163 602.781 233.296 603.387 233.557C603.992 233.817 604.507 234.185 604.93 234.66H609.148V232.102H611.316V245.051ZM598.836 237.688C598.836 238.202 598.947 238.654 599.168 239.045C599.389 239.436 599.695 239.738 600.086 239.953C600.483 240.161 600.932 240.266 601.434 240.266C601.915 240.266 602.348 240.161 602.732 239.953C603.123 239.738 603.429 239.436 603.65 239.045C603.878 238.654 603.992 238.202 603.992 237.688C603.992 237.173 603.878 236.721 603.65 236.33C603.429 235.933 603.123 235.627 602.732 235.412C602.348 235.197 601.915 235.09 601.434 235.09C600.932 235.09 600.483 235.197 600.086 235.412C599.695 235.627 599.389 235.93 599.168 236.32C598.947 236.711 598.836 237.167 598.836 237.688ZM599.734 243.723H601.902V247.629H611.766V249.387H599.734V243.723ZM605.887 236.418C606.004 236.854 606.062 237.277 606.062 237.688C606.062 238.104 606.007 238.514 605.896 238.918H609.148V236.418H605.887ZM628.087 234.738C628.081 235.897 628.052 236.906 628 237.766C627.948 238.618 627.821 239.595 627.619 240.695H630.06V242.453H623.048V249.758H620.861V242.453H613.966V240.695H625.412C625.627 239.628 625.763 238.658 625.822 237.785C625.887 236.913 625.92 235.956 625.92 234.914H615.861V233.156H628.087V234.738ZM646.206 245.461H644.019V243.918H640.562V242.395H644.019V232.102H646.206V245.461ZM631.323 240.031C633.661 240.018 635.731 239.979 637.534 239.914C639.338 239.849 641.063 239.712 642.71 239.504L642.827 241.066C641.525 241.288 640.041 241.457 638.374 241.574V244.973H636.206V241.691C634.95 241.743 633.413 241.77 631.597 241.77L631.323 240.031ZM632.671 235.871C632.671 235.259 632.857 234.715 633.228 234.24C633.599 233.765 634.116 233.397 634.78 233.137C635.451 232.876 636.219 232.746 637.085 232.746C637.932 232.746 638.687 232.876 639.351 233.137C640.015 233.397 640.532 233.765 640.904 234.24C641.281 234.715 641.473 235.259 641.48 235.871C641.473 236.49 641.281 237.033 640.904 237.502C640.532 237.971 640.015 238.335 639.351 238.596C638.693 238.85 637.938 238.977 637.085 238.977C636.219 238.977 635.451 238.85 634.78 238.596C634.116 238.335 633.599 237.974 633.228 237.512C632.857 237.043 632.671 236.496 632.671 235.871ZM633.667 244.172H635.835V247.629H646.616V249.387H633.667V244.172ZM634.722 235.871C634.722 236.346 634.937 236.717 635.366 236.984C635.796 237.251 636.369 237.388 637.085 237.395C637.775 237.388 638.332 237.251 638.755 236.984C639.185 236.711 639.403 236.34 639.409 235.871C639.403 235.402 639.188 235.031 638.765 234.758C638.342 234.484 637.792 234.348 637.114 234.348C636.385 234.348 635.803 234.484 635.366 234.758C634.937 235.025 634.722 235.396 634.722 235.871Z" fill="#0F172A"/>
<rect x="887.4" y="126.4" width="186.2" height="81.2" fill="white" stroke="#A4A4A4" stroke-width="0.8"/>
<path d="M887 93.5042C887 86.5983 892.598 81 899.504 81H1061.92C1068.83 81 1074.43 86.5983 1074.43 93.5042V113.235C1074.43 120.14 1068.83 125.739 1061.92 125.739H899.504C892.598 125.739 887 120.141 887 113.235V93.5042Z" fill="#2F5BC1"/>
<rect x="887" y="106.367" width="187.426" height="25.3681" fill="#2F5BC1"/>
<path d="M973.446 100.896H969.642C969.649 101.674 969.81 102.427 970.125 103.156C970.448 103.878 970.938 104.529 971.597 105.111C972.255 105.692 973.068 106.144 974.035 106.466L972.711 108.526C971.688 108.204 970.805 107.72 970.062 107.076C969.32 106.424 968.735 105.654 968.307 104.764C967.866 105.752 967.256 106.606 966.479 107.328C965.701 108.043 964.766 108.575 963.673 108.925L962.307 106.803C963.316 106.48 964.163 106.011 964.85 105.394C965.536 104.778 966.048 104.081 966.384 103.303C966.727 102.518 966.903 101.716 966.91 100.896H963.063V98.7736H973.446V100.896ZM965.396 109.934H978.533V116.828H975.863V112.078H965.396V109.934ZM972.9 102.305H975.863V97.7017H978.533V109.094H975.863V104.491H972.9V102.305ZM996.188 102.305H998.773V104.533H996.188V108.904H993.498V97.7017H996.188V102.305ZM981.013 99.3831H985.364V97.5756H988.033V99.3831H992.363V101.485H981.013V99.3831ZM981.938 105.415C981.938 104.743 982.137 104.151 982.537 103.639C982.936 103.128 983.493 102.732 984.208 102.452C984.929 102.172 985.756 102.031 986.688 102.031C987.605 102.031 988.422 102.172 989.136 102.452C989.851 102.732 990.404 103.128 990.797 103.639C991.196 104.151 991.396 104.743 991.396 105.415C991.396 106.088 991.196 106.68 990.797 107.191C990.404 107.703 989.851 108.099 989.136 108.379C988.422 108.659 987.605 108.799 986.688 108.799C985.756 108.799 984.929 108.659 984.208 108.379C983.493 108.099 982.936 107.703 982.537 107.191C982.137 106.68 981.938 106.088 981.938 105.415ZM983.661 109.64H986.33V111.09H993.498V109.64H996.188V116.618H983.661V109.64ZM984.565 105.415C984.558 105.871 984.744 106.221 985.122 106.466C985.507 106.711 986.029 106.838 986.688 106.845C987.346 106.838 987.872 106.711 988.264 106.466C988.656 106.221 988.853 105.871 988.853 105.415C988.853 104.974 988.653 104.627 988.254 104.375C987.861 104.116 987.339 103.993 986.688 104.007C986.043 103.993 985.525 104.116 985.132 104.375C984.747 104.627 984.558 104.974 984.565 105.415ZM993.498 114.516V113.15H986.33V114.516H993.498Z" fill="white"/>
<path d="M928.222 159.11C927.825 159.11 927.46 159.014 927.128 158.821C926.795 158.628 926.532 158.366 926.339 158.033C926.147 157.7 926.05 157.335 926.05 156.938C926.05 156.547 926.147 156.188 926.339 155.861C926.532 155.528 926.795 155.265 927.128 155.073C927.46 154.88 927.825 154.784 928.222 154.784C928.613 154.784 928.972 154.88 929.299 155.073C929.632 155.265 929.895 155.528 930.088 155.861C930.28 156.188 930.377 156.547 930.377 156.938C930.377 157.335 930.28 157.7 930.088 158.033C929.895 158.366 929.632 158.628 929.299 158.821C928.972 159.014 928.613 159.11 928.222 159.11ZM956.676 158.182H953.155V163.559H951.176V158.182H947.673V163.559H945.676V158.182H942.208V156.605H956.676V158.182ZM943.732 151.824C943.732 151.117 943.968 150.498 944.441 149.967C944.914 149.43 945.58 149.015 946.438 148.724C947.302 148.432 948.292 148.286 949.407 148.286C950.528 148.286 951.517 148.432 952.376 148.724C953.24 149.015 953.911 149.43 954.39 149.967C954.874 150.498 955.117 151.117 955.117 151.824C955.117 152.524 954.874 153.137 954.39 153.663C953.911 154.182 953.24 154.585 952.376 154.871C951.517 155.152 950.528 155.292 949.407 155.292C948.286 155.292 947.296 155.152 946.438 154.871C945.58 154.585 944.914 154.182 944.441 153.663C943.968 153.137 943.732 152.524 943.732 151.824ZM945.729 151.824C945.729 152.221 945.877 152.565 946.175 152.857C946.479 153.143 946.908 153.365 947.463 153.523C948.017 153.674 948.665 153.75 949.407 153.75C950.154 153.75 950.805 153.674 951.36 153.523C951.914 153.365 952.343 153.143 952.647 152.857C952.951 152.565 953.102 152.221 953.102 151.824C953.102 151.415 952.951 151.065 952.647 150.773C952.343 150.475 951.914 150.25 951.36 150.098C950.805 149.941 950.154 149.862 949.407 149.862C948.665 149.862 948.017 149.941 947.463 150.098C946.908 150.25 946.479 150.475 946.175 150.773C945.877 151.065 945.729 151.415 945.729 151.824ZM972.293 157.499H957.826V155.957H964.079V154.784H959.683V148.146H970.559V149.652H961.627V150.738H970.174V152.174H961.627V153.295H970.682V154.784H966.023V155.957H972.293V157.499ZM959.542 160.949C959.542 160.4 959.756 159.933 960.182 159.548C960.614 159.163 961.241 158.871 962.065 158.672C962.888 158.474 963.886 158.374 965.06 158.374C966.216 158.374 967.202 158.474 968.02 158.672C968.837 158.871 969.462 159.163 969.894 159.548C970.326 159.933 970.542 160.4 970.542 160.949C970.536 161.79 970.057 162.432 969.106 162.876C968.16 163.319 966.811 163.541 965.06 163.541C963.285 163.541 961.922 163.319 960.97 162.876C960.018 162.438 959.542 161.796 959.542 160.949ZM961.487 160.949C961.487 161.334 961.781 161.621 962.371 161.807C962.967 161.994 963.863 162.088 965.06 162.088C966.233 162.088 967.115 161.994 967.704 161.807C968.294 161.621 968.592 161.334 968.598 160.949C968.58 160.202 967.401 159.828 965.06 159.828C962.678 159.828 961.487 160.202 961.487 160.949ZM987.929 156.57H981.658V157.901C983.089 157.995 984.198 158.284 984.986 158.768C985.774 159.247 986.171 159.892 986.177 160.704C986.177 161.305 985.955 161.816 985.512 162.236C985.074 162.663 984.443 162.987 983.62 163.209C982.803 163.43 981.828 163.541 980.695 163.541C979.545 163.541 978.555 163.43 977.726 163.209C976.903 162.993 976.272 162.671 975.835 162.245C975.397 161.819 975.178 161.305 975.178 160.704C975.178 159.892 975.575 159.244 976.369 158.76C977.163 158.275 978.284 157.986 979.732 157.893V156.57H973.496V154.994H987.929V156.57ZM974.197 152.735C975.137 152.647 975.975 152.469 976.71 152.2C977.452 151.932 978.044 151.605 978.488 151.219C978.938 150.834 979.218 150.423 979.329 149.985H974.81V148.426H986.633V149.985H982.07C982.175 150.423 982.449 150.837 982.893 151.228C983.343 151.614 983.938 151.94 984.68 152.209C985.427 152.472 986.282 152.647 987.246 152.735L986.563 154.276C985.132 154.13 983.903 153.788 982.876 153.251C981.854 152.708 981.127 152.034 980.695 151.228C980.263 152.04 979.539 152.714 978.523 153.251C977.507 153.788 976.287 154.13 974.863 154.276L974.197 152.735ZM977.157 160.704C977.151 161.136 977.446 161.469 978.042 161.702C978.637 161.936 979.501 162.053 980.634 162.053C981.796 162.053 982.683 161.939 983.296 161.711C983.915 161.483 984.227 161.148 984.233 160.704C984.227 160.266 983.921 159.933 983.314 159.706C982.706 159.478 981.834 159.361 980.695 159.355C979.539 159.361 978.657 159.478 978.05 159.706C977.449 159.933 977.151 160.266 977.157 160.704ZM995.104 152.227C995.104 153.096 995.268 153.958 995.595 154.81C995.928 155.657 996.401 156.419 997.014 157.096C997.632 157.767 998.356 158.275 999.185 158.62L998.117 160.161C997.2 159.764 996.403 159.177 995.726 158.401C995.049 157.618 994.523 156.71 994.15 155.677C993.776 156.786 993.248 157.767 992.565 158.62C991.882 159.472 991.088 160.114 990.183 160.546L989.062 159.022C989.873 158.649 990.586 158.1 991.199 157.376C991.812 156.652 992.284 155.838 992.617 154.933C992.95 154.028 993.119 153.126 993.125 152.227V150.895H989.64V149.284H998.572V150.895H995.104V152.227ZM1000.34 147.725H1002.3V163.559H1000.34V147.725ZM1016.88 151.806H1009.12V150.247H1012.07V148.181H1013.99V150.247H1016.88V151.806ZM1009.58 156.325C1009.57 155.619 1009.72 154.985 1010.01 154.425C1010.31 153.864 1010.72 153.429 1011.24 153.12C1011.77 152.805 1012.37 152.647 1013.03 152.647C1013.69 152.647 1014.29 152.805 1014.81 153.12C1015.33 153.429 1015.74 153.864 1016.03 154.425C1016.33 154.985 1016.48 155.619 1016.48 156.325C1016.48 157.049 1016.33 157.694 1016.03 158.261C1015.74 158.827 1015.33 159.268 1014.81 159.583C1014.29 159.898 1013.69 160.056 1013.03 160.056C1012.37 160.056 1011.77 159.898 1011.24 159.583C1010.72 159.268 1010.31 158.827 1010.01 158.261C1009.72 157.694 1009.57 157.049 1009.58 156.325ZM1011.29 156.325C1011.29 156.745 1011.36 157.113 1011.5 157.429C1011.65 157.738 1011.86 157.977 1012.12 158.147C1012.39 158.31 1012.69 158.392 1013.03 158.392C1013.37 158.392 1013.67 158.31 1013.93 158.147C1014.19 157.977 1014.4 157.738 1014.54 157.429C1014.69 157.113 1014.76 156.745 1014.76 156.325C1014.76 155.916 1014.69 155.557 1014.54 155.248C1014.4 154.933 1014.19 154.69 1013.93 154.521C1013.67 154.346 1013.37 154.258 1013.03 154.258C1012.69 154.258 1012.39 154.346 1012.13 154.521C1011.86 154.69 1011.66 154.933 1011.51 155.248C1011.37 155.557 1011.29 155.916 1011.29 156.325ZM1017.55 148.058H1019.37V154.241H1020.91V147.725H1022.77V163.559H1020.91V155.817H1019.37V162.841H1017.55V148.058ZM1038.42 163.559H1036.56V147.725H1038.42V163.559ZM1024.51 159.057C1025.25 158.608 1025.86 158.015 1026.35 157.28C1026.85 156.538 1027.21 155.721 1027.45 154.828C1027.69 153.928 1027.81 153.003 1027.81 152.051V151.001H1025.06V149.424H1032.24V151.001H1029.68V152.051C1029.68 152.974 1029.79 153.861 1030.02 154.714C1030.25 155.566 1030.6 156.34 1031.08 157.034C1031.57 157.729 1032.17 158.287 1032.9 158.707L1031.75 160.143C1031.03 159.723 1030.43 159.157 1029.93 158.444C1029.44 157.726 1029.05 156.9 1028.76 155.966C1028.47 156.982 1028.07 157.881 1027.55 158.663C1027.04 159.446 1026.43 160.062 1025.7 160.511L1024.51 159.057ZM1031.08 153.242H1033.36V148.023H1035.2V162.788H1033.36V154.819H1031.08V153.242ZM928.222 187.11C927.825 187.11 927.46 187.014 927.128 186.821C926.795 186.628 926.532 186.366 926.339 186.033C926.147 185.7 926.05 185.335 926.05 184.938C926.05 184.547 926.147 184.188 926.339 183.861C926.532 183.528 926.795 183.265 927.128 183.073C927.46 182.88 927.825 182.784 928.222 182.784C928.613 182.784 928.972 182.88 929.299 183.073C929.632 183.265 929.895 183.528 930.088 183.861C930.28 184.188 930.377 184.547 930.377 184.938C930.377 185.335 930.28 185.7 930.088 186.033C929.895 186.366 929.632 186.628 929.299 186.821C928.972 187.014 928.613 187.11 928.222 187.11ZM955.029 191.244H944.012V186.672H945.956V189.667H955.029V191.244ZM942.226 184.027H948.461V181.645H950.388V184.027H956.658V185.604H942.226V184.027ZM943.049 181.102C944.106 180.945 945.043 180.647 945.86 180.209C946.677 179.771 947.308 179.249 947.752 178.641C948.201 178.028 948.426 177.389 948.426 176.724V176.163H950.405V176.724C950.405 177.412 950.624 178.063 951.062 178.676C951.506 179.29 952.136 179.812 952.954 180.244C953.771 180.67 954.72 180.956 955.8 181.102L955.029 182.626C953.733 182.41 952.595 182.01 951.614 181.426C950.639 180.837 949.903 180.11 949.407 179.246C948.905 180.11 948.166 180.84 947.191 181.435C946.222 182.025 945.098 182.422 943.819 182.626L943.049 181.102ZM971.015 183.8H969.088V175.725H971.015V183.8ZM957.843 182.258C958.672 181.996 959.382 181.61 959.972 181.102C960.561 180.594 961.005 180.016 961.303 179.368C961.606 178.714 961.755 178.037 961.749 177.337V176.111H963.764V177.337C963.758 178.014 963.904 178.662 964.201 179.281C964.499 179.894 964.934 180.44 965.506 180.918C966.084 181.391 966.782 181.75 967.599 181.996L966.654 183.502C965.749 183.222 964.969 182.804 964.315 182.25C963.661 181.689 963.151 181.024 962.783 180.253C962.415 181.088 961.895 181.812 961.224 182.425C960.552 183.032 959.753 183.484 958.824 183.782L957.843 182.258ZM960.541 184.535H971.05V188.651H962.485V189.877H971.523V191.419H960.576V187.198H969.106V186.042H960.541V184.535ZM992.355 189.65H977.887V188.056H984.122V184.973H979.481V176.776H981.425V179.368H988.764V176.776H990.708V184.973H986.049V188.056H992.355V189.65ZM988.764 183.397V180.927H981.425V183.397H988.764ZM999.127 178.247C999.127 178.919 999.27 179.561 999.556 180.174C999.842 180.787 1000.27 181.33 1000.83 181.803C1001.39 182.276 1002.06 182.638 1002.86 182.889L1001.81 184.413C1000.97 184.127 1000.24 183.709 999.626 183.16C999.019 182.612 998.538 181.961 998.181 181.207C997.831 182.066 997.335 182.81 996.693 183.441C996.056 184.065 995.291 184.535 994.398 184.851L993.347 183.327C994.176 183.041 994.877 182.632 995.449 182.101C996.021 181.564 996.45 180.951 996.736 180.262C997.028 179.567 997.177 178.837 997.183 178.072V176.566H999.127V178.247ZM995.502 188.529C995.502 187.91 995.718 187.376 996.15 186.926C996.582 186.477 997.201 186.135 998.006 185.901C998.812 185.668 999.764 185.551 1000.86 185.551C1001.95 185.551 1002.89 185.668 1003.68 185.901C1004.48 186.135 1005.09 186.477 1005.52 186.926C1005.95 187.376 1006.17 187.91 1006.17 188.529C1006.17 189.159 1005.95 189.699 1005.52 190.149C1005.09 190.604 1004.48 190.949 1003.69 191.182C1002.9 191.422 1001.95 191.541 1000.86 191.541C999.764 191.541 998.812 191.422 998.006 191.182C997.201 190.949 996.582 190.604 996.15 190.149C995.718 189.699 995.502 189.159 995.502 188.529ZM997.446 188.529C997.446 189.013 997.741 189.381 998.33 189.632C998.92 189.877 999.764 190 1000.86 190C1001.95 190 1002.79 189.877 1003.37 189.632C1003.95 189.381 1004.24 189.013 1004.24 188.529C1004.24 188.062 1003.95 187.703 1003.36 187.452C1002.77 187.2 1001.94 187.075 1000.86 187.075C999.775 187.075 998.935 187.203 998.339 187.46C997.744 187.711 997.446 188.067 997.446 188.529ZM1004.07 175.725H1006.01V179.579H1008.22V181.19H1006.01V185.201H1004.07V175.725Z" fill="#0F172A"/>
<rect x="887.4" y="268.4" width="186.2" height="86.2" fill="white" stroke="#A4A4A4" stroke-width="0.8"/>
<path d="M887 235.504C887 228.598 892.598 223 899.504 223H1061.92C1068.83 223 1074.43 228.598 1074.43 235.504V255.235C1074.43 262.14 1068.83 267.739 1061.92 267.739H899.504C892.598 267.739 887 262.141 887 255.235V235.504Z" fill="#F36689"/>
<rect x="887" y="248.367" width="187.426" height="25.3681" fill="#F36689"/>
<path d="M970.598 252.838H963.116V258.828H960.468V252.838H953.09V250.736H970.598V252.838ZM955.15 240.437H957.798V242.644H965.827V240.437H968.518V248.887H955.15V240.437ZM965.827 246.743V244.746H957.798V246.743H965.827ZM982.747 242.896H978.943C978.95 243.674 979.111 244.427 979.426 245.156C979.748 245.878 980.239 246.529 980.897 247.111C981.556 247.692 982.368 248.144 983.335 248.466L982.011 250.526C980.988 250.204 980.106 249.72 979.363 249.076C978.62 248.424 978.035 247.654 977.608 246.764C977.166 247.752 976.557 248.606 975.779 249.328C975.002 250.043 974.066 250.575 972.973 250.925L971.607 248.803C972.616 248.48 973.464 248.011 974.15 247.394C974.837 246.778 975.348 246.081 975.685 245.303C976.028 244.518 976.203 243.716 976.21 242.896H972.364V240.774H982.747V242.896ZM974.697 251.934H987.833V258.828H985.164V254.078H974.697V251.934ZM982.2 244.305H985.164V239.702H987.833V251.094H985.164V246.491H982.2V244.305ZM1005.49 244.305H1008.07V246.533H1005.49V250.904H1002.8V239.702H1005.49V244.305ZM990.313 241.383H994.664V239.576H997.333V241.383H1001.66V243.485H990.313V241.383ZM991.238 247.415C991.238 246.743 991.438 246.151 991.837 245.639C992.236 245.128 992.793 244.732 993.508 244.452C994.23 244.172 995.056 244.031 995.988 244.031C996.906 244.031 997.722 244.172 998.437 244.452C999.151 244.732 999.705 245.128 1000.1 245.639C1000.5 246.151 1000.7 246.743 1000.7 247.415C1000.7 248.088 1000.5 248.68 1000.1 249.191C999.705 249.703 999.151 250.099 998.437 250.379C997.722 250.659 996.906 250.799 995.988 250.799C995.056 250.799 994.23 250.659 993.508 250.379C992.793 250.099 992.236 249.703 991.837 249.191C991.438 248.68 991.238 248.088 991.238 247.415ZM992.962 251.64H995.631V253.09H1002.8V251.64H1005.49V258.618H992.962V251.64ZM993.865 247.415C993.858 247.871 994.044 248.221 994.422 248.466C994.808 248.711 995.33 248.838 995.988 248.845C996.647 248.838 997.172 248.711 997.565 248.466C997.957 248.221 998.153 247.871 998.153 247.415C998.153 246.974 997.953 246.627 997.554 246.375C997.162 246.116 996.64 245.993 995.988 246.007C995.344 245.993 994.825 246.116 994.433 246.375C994.048 246.627 993.858 246.974 993.865 247.415ZM1002.8 256.516V255.15H995.631V256.516H1002.8Z" fill="white"/>
<path d="M905.425 301.11C905.028 301.11 904.663 301.014 904.331 300.821C903.998 300.628 903.735 300.366 903.542 300.033C903.35 299.7 903.253 299.335 903.253 298.938C903.253 298.547 903.35 298.188 903.542 297.861C903.735 297.528 903.998 297.265 904.331 297.073C904.663 296.88 905.028 296.784 905.425 296.784C905.817 296.784 906.176 296.88 906.503 297.073C906.835 297.265 907.098 297.528 907.291 297.861C907.483 298.188 907.58 298.547 907.58 298.938C907.58 299.335 907.483 299.7 907.291 300.033C907.098 300.366 906.835 300.628 906.503 300.821C906.176 301.014 905.817 301.11 905.425 301.11ZM933.178 305.559H931.321V289.725H933.178V305.559ZM920.69 300.278V293.158H919.569V291.564H926.82V293.158H925.699V300.085C926.195 300.05 926.657 300.007 927.083 299.954L927.223 301.408C925.407 301.723 922.827 301.887 919.481 301.898L919.254 300.287L920.69 300.278ZM923.948 300.19V293.158H922.441V300.243L923.948 300.19ZM926.452 297.362H928.221V295.75H926.452V294.139H928.221V290.058H930.025V304.771H928.221V298.956H926.452V297.362ZM948.288 305.559H946.326V289.725H948.288V305.559ZM935.169 301.198C937.213 300.228 938.745 299.069 939.767 297.721C940.794 296.372 941.399 294.781 941.58 292.948H935.975V291.407H943.559C943.559 293.923 942.99 296.13 941.851 298.027C940.713 299.925 938.824 301.501 936.185 302.756L935.169 301.198ZM963.976 305.576H962.032V297.484H958.967V295.908H962.032V289.725H963.976V305.576ZM950.664 301.057C951.464 300.695 952.156 300.179 952.74 299.507C953.324 298.836 953.768 298.086 954.071 297.257C954.381 296.428 954.535 295.593 954.535 294.752V293.929H951.137V292.37H954.553V290.058H956.497V292.37H959.807V293.929H956.479V294.752C956.474 295.558 956.625 296.358 956.935 297.152C957.25 297.946 957.703 298.664 958.292 299.306C958.888 299.948 959.591 300.45 960.403 300.812L959.352 302.301C958.47 301.927 957.703 301.37 957.049 300.628C956.395 299.881 955.887 299.023 955.525 298.054C955.169 299.087 954.664 299.998 954.01 300.786C953.362 301.574 952.597 302.167 951.715 302.564L950.664 301.057ZM980.785 299.481H974.672V302.213H972.745V299.481H966.317V297.922H980.785V299.481ZM968.069 300.882H969.996V303.667H979.191V305.244H968.069V300.882ZM968.209 290.233H970.136V292.02H976.967V290.233H978.893V296.679H968.209V290.233ZM976.967 295.137V293.473H970.136V295.137H976.967ZM982.916 299.166C982.916 296.071 983.792 293.275 985.543 290.776H987.645C987.231 291.372 986.837 292.134 986.463 293.062C986.095 293.984 985.797 294.983 985.57 296.057C985.342 297.125 985.228 298.162 985.228 299.166C985.228 300.17 985.342 301.209 985.57 302.284C985.797 303.358 986.095 304.356 986.463 305.279C986.837 306.207 987.231 306.972 987.645 307.573H985.543C984.691 306.347 984.04 305.039 983.59 303.65C983.141 302.26 982.916 300.766 982.916 299.166ZM994.663 293.526C994.657 294.518 994.809 295.476 995.119 296.398C995.428 297.321 995.878 298.141 996.467 298.859C997.063 299.572 997.769 300.106 998.587 300.462L997.413 302.021C996.537 301.595 995.784 300.982 995.154 300.182C994.523 299.382 994.036 298.451 993.691 297.388C993.335 298.515 992.833 299.507 992.185 300.366C991.537 301.218 990.769 301.869 989.882 302.319L988.655 300.742C989.49 300.351 990.211 299.779 990.819 299.026C991.426 298.273 991.887 297.417 992.202 296.46C992.518 295.502 992.678 294.524 992.684 293.526V291.004H994.663V293.526ZM996.835 294.84H1000.16V289.725H1002.09V305.576H1000.16V296.416H996.835V294.84ZM1011.65 289.883C1012.85 289.883 1013.88 289.991 1014.73 290.207C1015.58 290.417 1016.23 290.724 1016.68 291.126C1017.13 291.529 1017.36 292.02 1017.36 292.598C1017.36 293.181 1017.13 293.678 1016.68 294.086C1016.23 294.495 1015.58 294.805 1014.73 295.015C1013.88 295.219 1012.85 295.324 1011.65 295.33C1010.44 295.324 1009.42 295.219 1008.56 295.015C1007.71 294.805 1007.06 294.495 1006.61 294.086C1006.16 293.678 1005.94 293.181 1005.94 292.598C1005.94 292.02 1006.16 291.529 1006.61 291.126C1007.06 290.724 1007.71 290.417 1008.56 290.207C1009.42 289.991 1010.45 289.883 1011.65 289.883ZM1004.45 296.153H1018.88V297.677H1012.61V298.886H1017.08V302.756H1008.07V303.93H1017.51V305.419H1006.16V301.373H1015.17V300.322H1006.15V298.886H1010.67V297.677H1004.45V296.153ZM1007.99 292.598C1007.98 293.03 1008.28 293.351 1008.9 293.561C1009.51 293.771 1010.43 293.882 1011.65 293.894C1012.88 293.882 1013.81 293.771 1014.42 293.561C1015.04 293.351 1015.34 293.03 1015.34 292.598C1015.34 292.189 1015.03 291.88 1014.41 291.669C1013.79 291.453 1012.87 291.342 1011.65 291.337C1010.44 291.342 1009.53 291.453 1008.91 291.669C1008.29 291.88 1007.98 292.189 1007.99 292.598ZM1026.07 293.526C1026.07 294.501 1026.23 295.45 1026.56 296.372C1026.88 297.295 1027.36 298.115 1027.97 298.833C1028.59 299.551 1029.32 300.088 1030.16 300.444L1029 302.003C1028.11 301.589 1027.33 300.987 1026.66 300.199C1026 299.405 1025.48 298.48 1025.11 297.423C1024.74 298.562 1024.21 299.56 1023.53 300.418C1022.85 301.276 1022.04 301.927 1021.1 302.371L1019.91 300.742C1020.77 300.374 1021.51 299.82 1022.14 299.078C1022.77 298.331 1023.25 297.476 1023.59 296.512C1023.92 295.549 1024.09 294.554 1024.09 293.526V291.004H1026.07V293.526ZM1031.29 289.725H1033.26V305.576H1031.29V289.725ZM1040.43 299.166C1040.43 300.766 1040.21 302.26 1039.76 303.65C1039.31 305.039 1038.66 306.347 1037.8 307.573H1035.7C1036.12 306.972 1036.51 306.207 1036.88 305.279C1037.25 304.356 1037.55 303.358 1037.78 302.284C1038 301.209 1038.12 300.17 1038.12 299.166C1038.12 298.162 1038 297.125 1037.78 296.057C1037.55 294.983 1037.25 293.984 1036.88 293.062C1036.51 292.134 1036.12 291.372 1035.7 290.776H1037.8C1039.56 293.275 1040.43 296.071 1040.43 299.166ZM905.425 329.11C905.028 329.11 904.663 329.014 904.331 328.821C903.998 328.628 903.735 328.366 903.542 328.033C903.35 327.7 903.253 327.335 903.253 326.938C903.253 326.547 903.35 326.188 903.542 325.861C903.735 325.528 903.998 325.265 904.331 325.073C904.663 324.88 905.028 324.784 905.425 324.784C905.817 324.784 906.176 324.88 906.503 325.073C906.835 325.265 907.098 325.528 907.291 325.861C907.483 326.188 907.58 326.547 907.58 326.938C907.58 327.335 907.483 327.7 907.291 328.033C907.098 328.366 906.835 328.628 906.503 328.821C906.176 329.014 905.817 329.11 905.425 329.11ZM933.826 326.01H927.591V327.166H932.057V330.879H923.054V331.965H932.495V333.419H921.145V329.548H930.148V328.567H921.128V327.166H925.664V326.01H919.464V324.574H933.826V326.01ZM920.094 322.594C921.116 322.542 922.003 322.422 922.757 322.235C923.516 322.043 924.123 321.797 924.578 321.5C925.034 321.196 925.328 320.855 925.463 320.475H920.847V319.021H925.664V317.69H927.591V319.021H932.442V320.475H927.792C927.921 320.855 928.21 321.196 928.659 321.5C929.115 321.797 929.722 322.043 930.481 322.235C931.246 322.422 932.145 322.542 933.178 322.594L932.6 324.048C931.17 323.961 929.941 323.727 928.913 323.348C927.886 322.968 927.124 322.46 926.627 321.824C926.131 322.46 925.369 322.968 924.342 323.348C923.314 323.727 922.079 323.961 920.637 324.048L920.094 322.594ZM947.465 324.031H949.899V325.642H947.465V333.559H945.538V317.725H947.465V324.031ZM934.977 320.16H938.725V317.953H940.669V320.16H944.312V321.719H934.977V320.16ZM935.712 326.483C935.706 325.765 935.876 325.122 936.22 324.556C936.565 323.984 937.04 323.54 937.648 323.225C938.255 322.91 938.941 322.752 939.706 322.752C940.459 322.752 941.136 322.91 941.737 323.225C942.339 323.54 942.812 323.984 943.156 324.556C943.506 325.122 943.682 325.765 943.682 326.483C943.682 327.201 943.506 327.843 943.156 328.409C942.812 328.97 942.339 329.408 941.737 329.723C941.136 330.038 940.459 330.196 939.706 330.196C938.941 330.196 938.255 330.038 937.648 329.723C937.04 329.408 936.565 328.97 936.22 328.409C935.876 327.843 935.706 327.201 935.712 326.483ZM937.569 326.483C937.569 326.903 937.659 327.274 937.84 327.595C938.021 327.91 938.272 328.155 938.593 328.331C938.92 328.5 939.291 328.585 939.706 328.585C940.108 328.585 940.47 328.5 940.792 328.331C941.113 328.161 941.364 327.916 941.545 327.595C941.726 327.274 941.819 326.903 941.825 326.483C941.819 326.062 941.723 325.692 941.536 325.371C941.355 325.044 941.104 324.793 940.783 324.617C940.467 324.436 940.108 324.346 939.706 324.346C939.291 324.346 938.92 324.436 938.593 324.617C938.272 324.793 938.021 325.044 937.84 325.371C937.659 325.692 937.569 326.062 937.569 326.483ZM964.326 333.559H962.47V317.725H964.326V333.559ZM950.419 329.057C951.155 328.608 951.768 328.015 952.258 327.28C952.755 326.538 953.119 325.721 953.353 324.828C953.592 323.928 953.712 323.003 953.712 322.051V321.001H950.962V319.424H958.143V321.001H955.586V322.051C955.586 322.974 955.7 323.861 955.928 324.714C956.155 325.566 956.509 326.34 956.987 327.034C957.472 327.729 958.079 328.287 958.809 328.707L957.653 330.143C956.941 329.723 956.336 329.157 955.84 328.444C955.344 327.726 954.953 326.9 954.667 325.966C954.375 326.982 953.972 327.881 953.458 328.663C952.95 329.446 952.334 330.062 951.61 330.511L950.419 329.057ZM956.987 323.242H959.264V318.023H961.103V332.788H959.264V324.819H956.987V323.242ZM978.823 322.717H981.03V324.328H978.823V329.565H976.879V317.743H978.823V322.717ZM966.352 319.494H970.083V317.725H972.027V319.494H975.74V321.053H966.352V319.494ZM967.158 324.731C967.158 324.13 967.322 323.601 967.649 323.146C967.975 322.685 968.434 322.329 969.023 322.078C969.613 321.827 970.287 321.701 971.046 321.701C971.8 321.701 972.468 321.827 973.052 322.078C973.642 322.329 974.1 322.685 974.427 323.146C974.754 323.601 974.917 324.13 974.917 324.731C974.917 325.327 974.754 325.852 974.427 326.308C974.1 326.757 973.645 327.107 973.061 327.358C972.477 327.604 971.805 327.726 971.046 327.726C970.282 327.726 969.604 327.604 969.015 327.358C968.431 327.107 967.975 326.757 967.649 326.308C967.322 325.852 967.158 325.327 967.158 324.731ZM968.682 328.637H970.626V331.667H979.454V333.244H968.682V328.637ZM969.05 324.731C969.044 325.198 969.219 325.563 969.575 325.826C969.937 326.089 970.419 326.22 971.02 326.22C971.639 326.22 972.132 326.092 972.5 325.835C972.874 325.572 973.061 325.204 973.061 324.731C973.061 324.258 972.877 323.888 972.509 323.619C972.141 323.345 971.654 323.207 971.046 323.207C970.439 323.207 969.952 323.345 969.584 323.619C969.222 323.888 969.044 324.258 969.05 324.731ZM1000.79 327.499H986.326V325.957H992.579V324.784H988.183V318.146H999.059V319.652H990.127V320.738H998.674V322.174H990.127V323.295H999.182V324.784H994.523V325.957H1000.79V327.499ZM988.042 330.949C988.042 330.4 988.256 329.933 988.682 329.548C989.114 329.163 989.741 328.871 990.565 328.672C991.388 328.474 992.386 328.374 993.56 328.374C994.716 328.374 995.702 328.474 996.52 328.672C997.337 328.871 997.962 329.163 998.394 329.548C998.826 329.933 999.042 330.4 999.042 330.949C999.036 331.79 998.557 332.432 997.606 332.876C996.66 333.319 995.311 333.541 993.56 333.541C991.785 333.541 990.422 333.319 989.47 332.876C988.518 332.438 988.042 331.796 988.042 330.949ZM989.987 330.949C989.987 331.334 990.281 331.621 990.871 331.807C991.467 331.994 992.363 332.088 993.56 332.088C994.733 332.088 995.615 331.994 996.204 331.807C996.794 331.621 997.092 331.334 997.098 330.949C997.08 330.202 995.901 329.828 993.56 329.828C991.178 329.828 989.987 330.202 989.987 330.949ZM1016.46 331.65H1002V330.056H1008.23V326.973H1003.59V318.776H1005.53V321.368H1012.87V318.776H1014.82V326.973H1010.16V330.056H1016.46V331.65ZM1012.87 325.397V322.927H1005.53V325.397H1012.87ZM1018.58 327.166C1018.58 324.071 1019.45 321.275 1021.2 318.776H1023.31C1022.89 319.372 1022.5 320.134 1022.12 321.062C1021.76 321.984 1021.46 322.983 1021.23 324.057C1021 325.125 1020.89 326.162 1020.89 327.166C1020.89 328.17 1021 329.209 1021.23 330.284C1021.46 331.358 1021.76 332.356 1022.12 333.279C1022.5 334.207 1022.89 334.972 1023.31 335.573H1021.2C1020.35 334.347 1019.7 333.039 1019.25 331.65C1018.8 330.26 1018.58 328.766 1018.58 327.166ZM1031.6 327.621C1032.75 327.621 1033.74 327.741 1034.58 327.98C1035.43 328.214 1036.08 328.555 1036.53 329.005C1036.99 329.449 1037.23 329.98 1037.23 330.599C1037.23 331.206 1036.99 331.729 1036.53 332.166C1036.08 332.61 1035.43 332.949 1034.58 333.182C1033.74 333.422 1032.75 333.541 1031.6 333.541C1030.47 333.541 1029.48 333.422 1028.63 333.182C1027.79 332.949 1027.14 332.61 1026.68 332.166C1026.23 331.729 1026 331.206 1026 330.599C1026 329.98 1026.23 329.449 1026.68 329.005C1027.14 328.555 1027.79 328.214 1028.63 327.98C1029.48 327.741 1030.47 327.621 1031.6 327.621ZM1024.51 324.906H1030.08V322.034H1032.01V324.906H1038.87V326.483H1024.51V324.906ZM1026.16 318.478H1037.12V319.792V320.256C1037.12 320.939 1037.09 321.573 1037.03 322.157C1036.98 322.74 1036.86 323.353 1036.68 323.996L1034.76 323.82C1034.93 323.132 1035.04 322.504 1035.1 321.938C1035.15 321.371 1035.18 320.732 1035.18 320.02H1026.16V318.478ZM1027.96 330.599C1027.95 331.06 1028.27 331.416 1028.91 331.667C1029.55 331.912 1030.45 332.035 1031.6 332.035C1032.76 332.035 1033.66 331.912 1034.31 331.667C1034.96 331.416 1035.29 331.06 1035.3 330.599C1035.29 330.12 1034.96 329.749 1034.31 329.487C1033.66 329.224 1032.76 329.092 1031.6 329.092C1030.45 329.092 1029.56 329.224 1028.91 329.487C1028.27 329.749 1027.95 330.12 1027.96 330.599ZM1045.77 321.526C1045.76 322.478 1045.91 323.406 1046.21 324.311C1046.52 325.216 1046.97 326.027 1047.55 326.745C1048.13 327.458 1048.82 328.007 1049.62 328.392L1048.43 329.951C1047.59 329.525 1046.86 328.917 1046.24 328.129C1045.63 327.341 1045.15 326.43 1044.8 325.397C1044.45 326.5 1043.95 327.475 1043.3 328.322C1042.66 329.163 1041.89 329.805 1041 330.248L1039.81 328.69C1040.64 328.298 1041.35 327.729 1041.95 326.982C1042.56 326.229 1043.02 325.379 1043.33 324.433C1043.65 323.482 1043.82 322.513 1043.82 321.526V319.004H1045.77V321.526ZM1050.57 317.725H1052.51V323.926H1054.95V325.589H1052.51V333.559H1050.57V317.725ZM1060.46 327.166C1060.46 328.766 1060.23 330.26 1059.78 331.65C1059.33 333.039 1058.68 334.347 1057.83 335.573H1055.73C1056.14 334.972 1056.53 334.207 1056.9 333.279C1057.28 332.356 1057.58 331.358 1057.8 330.284C1058.03 329.209 1058.14 328.17 1058.14 327.166C1058.14 326.162 1058.03 325.125 1057.8 324.057C1057.58 322.983 1057.28 321.984 1056.9 321.062C1056.53 320.134 1056.14 319.372 1055.73 318.776H1057.83C1059.58 321.275 1060.46 324.071 1060.46 327.166Z" fill="#0F172A"/>
<rect x="705.4" y="153.4" width="124.2" height="109.2" fill="white"/>
<rect x="705.4" y="153.4" width="124.2" height="109.2" stroke="#A4A4A4" stroke-width="0.8"/>
<path d="M730.293 196.17H726.075V197.752H731.796V199.206H718.612V197.752H724.317V196.17H720.322V191.232H722.096V194.731H730.293V196.17ZM720.146 202.738C720.146 202.178 720.346 201.701 720.745 201.307C721.15 200.908 721.728 200.601 722.479 200.388C723.235 200.175 724.136 200.069 725.18 200.069C726.213 200.069 727.105 200.175 727.856 200.388C728.608 200.601 729.183 200.908 729.582 201.307C729.982 201.701 730.182 202.178 730.182 202.738C730.182 203.297 729.982 203.776 729.582 204.176C729.183 204.575 728.608 204.879 727.856 205.087C727.105 205.3 726.213 205.406 725.18 205.406C724.136 205.406 723.235 205.3 722.479 205.087C721.728 204.879 721.15 204.575 720.745 204.176C720.346 203.776 720.146 203.297 720.146 202.738ZM721.952 202.738C721.946 203.153 722.221 203.473 722.775 203.696C723.329 203.92 724.13 204.032 725.18 204.032C726.213 204.032 727.007 203.92 727.561 203.696C728.115 203.473 728.397 203.153 728.408 202.738C728.402 202.311 728.123 201.992 727.569 201.779C727.02 201.56 726.224 201.448 725.18 201.443C724.12 201.448 723.315 201.56 722.767 201.779C722.218 201.992 721.946 202.311 721.952 202.738ZM740.404 192.174C740.399 192.782 740.609 193.373 741.035 193.948C741.467 194.524 742.071 195.016 742.849 195.426C743.632 195.837 744.522 196.106 745.518 196.233L744.815 197.672C743.6 197.491 742.524 197.118 741.587 196.553C740.649 195.983 739.943 195.288 739.469 194.468C738.995 195.288 738.292 195.983 737.36 196.553C736.428 197.118 735.359 197.491 734.156 197.672L733.452 196.233C734.443 196.106 735.325 195.837 736.097 195.426C736.87 195.016 737.469 194.526 737.895 193.956C738.321 193.381 738.534 192.787 738.534 192.174V191.439H740.404V192.174ZM732.877 198.918H746.045V200.388H740.308V205.422H738.55V200.388H732.877V198.918ZM752.32 193.533C752.315 194.172 752.443 194.787 752.704 195.379C752.97 195.964 753.364 196.484 753.886 196.937C754.408 197.389 755.037 197.736 755.772 197.975L754.845 199.382C754.062 199.115 753.383 198.724 752.808 198.207C752.238 197.685 751.793 197.07 751.473 196.361C751.148 197.144 750.688 197.821 750.091 198.391C749.494 198.961 748.783 199.392 747.958 199.685L746.967 198.279C747.734 198.029 748.384 197.661 748.916 197.176C749.454 196.692 749.857 196.135 750.123 195.506C750.395 194.878 750.53 194.215 750.53 193.517V191.871H752.32V193.533ZM749.284 200.548H751.106V203.696H759.112V205.135H749.284V200.548ZM756.763 190.976H758.537V195.243H760.55V196.745H758.537V201.587H756.763V190.976ZM766.793 193.037C766.788 193.682 766.919 194.297 767.185 194.883C767.451 195.464 767.846 195.978 768.368 196.425C768.895 196.873 769.531 197.214 770.277 197.448L769.398 198.854C768.583 198.583 767.877 198.183 767.281 197.656C766.69 197.128 766.226 196.505 765.891 195.786C765.56 196.564 765.092 197.238 764.484 197.808C763.877 198.378 763.155 198.806 762.319 199.094L761.424 197.704C762.18 197.448 762.822 197.08 763.35 196.601C763.882 196.116 764.285 195.568 764.556 194.955C764.828 194.342 764.961 193.703 764.956 193.037V191.663H766.793V193.037ZM763.581 200.277H773.441V205.422H771.652V201.699H763.581V200.277ZM771.652 190.976H773.441V199.621H771.652V190.976ZM788.841 199.238H783.12V200.628H787.243V205.246H777.224V200.628H781.363V199.238H775.673V197.816H788.841V199.238ZM776.856 191.407H787.627V192.83H785.645V195.307H787.547V196.745H776.936V195.307H778.838V192.83H776.856V191.407ZM785.517 203.808V202.002H778.981V203.808H785.517ZM783.855 195.307V192.83H780.611V195.307H783.855ZM796.443 200.005C797.487 200.005 798.393 200.114 799.16 200.332C799.932 200.546 800.526 200.857 800.941 201.267C801.362 201.672 801.573 202.157 801.573 202.722C801.573 203.276 801.362 203.752 800.941 204.152C800.526 204.557 799.932 204.866 799.16 205.079C798.393 205.297 797.487 205.406 796.443 205.406C795.41 205.406 794.507 205.297 793.734 205.079C792.967 204.866 792.373 204.557 791.952 204.152C791.537 203.752 791.329 203.276 791.329 202.722C791.329 202.157 791.537 201.672 791.952 201.267C792.373 200.857 792.967 200.546 793.734 200.332C794.507 200.114 795.41 200.005 796.443 200.005ZM789.971 197.528H795.053V194.907H796.811V197.528H803.075V198.966H789.971V197.528ZM791.473 191.663H801.477V192.862V193.285C801.477 193.908 801.45 194.486 801.397 195.019C801.349 195.552 801.242 196.111 801.077 196.697L799.319 196.537C799.479 195.909 799.583 195.336 799.631 194.819C799.679 194.303 799.703 193.719 799.703 193.069H791.473V191.663ZM793.119 202.722C793.114 203.142 793.401 203.467 793.982 203.696C794.568 203.92 795.388 204.032 796.443 204.032C797.498 204.032 798.321 203.92 798.912 203.696C799.509 203.467 799.81 203.142 799.815 202.722C799.81 202.285 799.509 201.947 798.912 201.707C798.321 201.467 797.498 201.347 796.443 201.347C795.394 201.347 794.576 201.467 793.99 201.707C793.404 201.947 793.114 202.285 793.119 202.722ZM809.366 194.444C809.361 195.312 809.497 196.159 809.774 196.985C810.056 197.81 810.461 198.551 810.988 199.206C811.521 199.856 812.152 200.356 812.882 200.708L811.795 202.13C811.028 201.741 810.362 201.187 809.798 200.468C809.238 199.749 808.801 198.918 808.487 197.975C808.162 198.982 807.704 199.872 807.113 200.644C806.527 201.411 805.829 201.997 805.019 202.402L803.933 200.98C804.684 200.623 805.334 200.103 805.882 199.422C806.436 198.734 806.857 197.959 807.145 197.096C807.438 196.228 807.587 195.344 807.592 194.444V192.143H809.366V194.444ZM813.745 190.976H815.519V196.633H817.74V198.151H815.519V205.422H813.745V190.976ZM738.526 221.03C738.54 218.422 739.23 216.126 740.597 214.141H741.69C741.364 214.621 741.057 215.242 740.769 216.004C740.482 216.761 740.249 217.583 740.072 218.47C739.894 219.353 739.806 220.206 739.806 221.03C739.806 221.855 739.894 222.711 740.072 223.598C740.249 224.48 740.482 225.302 740.769 226.064C741.057 226.827 741.364 227.45 741.69 227.934H740.597C739.921 226.951 739.408 225.889 739.058 224.748C738.708 223.607 738.53 222.368 738.526 221.03ZM753.736 221.476H752.657V217.809H750.945V221.016H749.881V213.638H750.945V216.874H752.657V213.379H753.736V221.476ZM742.805 214.918H745.538V213.48H746.659V214.918H749.363V215.824H742.805V214.918ZM743.366 218.701C743.366 218.259 743.481 217.874 743.711 217.543C743.941 217.212 744.262 216.958 744.675 216.78C745.092 216.603 745.566 216.514 746.098 216.514C746.635 216.514 747.11 216.603 747.522 216.78C747.939 216.958 748.263 217.212 748.493 217.543C748.728 217.874 748.846 218.259 748.846 218.701C748.846 219.132 748.728 219.513 748.493 219.844C748.263 220.17 747.939 220.424 747.522 220.606C747.11 220.784 746.635 220.872 746.098 220.872C745.566 220.872 745.092 220.784 744.675 220.606C744.262 220.424 743.941 220.17 743.711 219.844C743.481 219.513 743.366 219.132 743.366 218.701ZM744.373 218.701C744.373 218.959 744.444 219.19 744.588 219.391C744.737 219.592 744.941 219.748 745.2 219.858C745.463 219.969 745.763 220.024 746.098 220.024C746.434 220.024 746.731 219.969 746.99 219.858C747.254 219.748 747.458 219.592 747.601 219.391C747.75 219.19 747.824 218.959 747.824 218.701C747.824 218.432 747.75 218.197 747.601 217.996C747.458 217.79 747.254 217.631 746.99 217.521C746.731 217.406 746.434 217.349 746.098 217.349C745.763 217.349 745.463 217.406 745.2 217.521C744.941 217.631 744.737 217.79 744.588 217.996C744.444 218.197 744.373 218.432 744.373 218.701ZM745.221 223.936C745.216 223.461 745.382 223.056 745.717 222.72C746.058 222.385 746.549 222.131 747.192 221.958C747.839 221.781 748.611 221.692 749.507 221.692C750.404 221.692 751.173 221.781 751.815 221.958C752.458 222.131 752.949 222.385 753.29 222.72C753.635 223.056 753.807 223.461 753.807 223.936C753.807 224.401 753.635 224.796 753.29 225.122C752.949 225.453 752.455 225.705 751.808 225.877C751.166 226.05 750.399 226.136 749.507 226.136C748.611 226.136 747.839 226.05 747.192 225.877C746.549 225.705 746.058 225.453 745.717 225.122C745.382 224.796 745.216 224.401 745.221 223.936ZM746.343 223.936C746.338 224.209 746.458 224.446 746.703 224.648C746.952 224.844 747.311 224.995 747.781 225.101C748.256 225.206 748.817 225.259 749.464 225.259C750.13 225.259 750.703 225.206 751.183 225.101C751.667 224.995 752.036 224.844 752.29 224.648C752.549 224.451 752.681 224.214 752.686 223.936C752.681 223.499 752.398 223.164 751.837 222.929C751.281 222.689 750.504 222.574 749.507 222.584C748.505 222.574 747.726 222.689 747.17 222.929C746.614 223.164 746.338 223.499 746.343 223.936ZM766.328 221.002H765.192V217.651H762.617V216.716H765.192V213.379H766.328V221.002ZM755.786 219.981C756.414 219.755 756.972 219.424 757.461 218.988C757.955 218.552 758.341 218.051 758.619 217.485C758.897 216.919 759.036 216.337 759.036 215.738V215.263H756.145V214.314H763.034V215.263H760.172V215.723C760.172 216.275 760.304 216.809 760.568 217.327C760.831 217.845 761.203 218.305 761.682 218.708C762.162 219.106 762.708 219.41 763.322 219.621L762.732 220.527C762.023 220.268 761.397 219.885 760.855 219.376C760.318 218.868 759.911 218.281 759.633 217.615C759.36 218.363 758.938 219.022 758.367 219.592C757.801 220.163 757.137 220.594 756.375 220.887L755.786 219.981ZM757.799 223.777C757.799 223.279 757.969 222.852 758.31 222.497C758.655 222.143 759.149 221.872 759.791 221.685C760.438 221.498 761.203 221.404 762.085 221.404C762.967 221.404 763.729 221.498 764.372 221.685C765.014 221.872 765.508 222.143 765.853 222.497C766.198 222.852 766.371 223.279 766.371 223.777C766.371 224.276 766.198 224.703 765.853 225.058C765.508 225.412 765.014 225.683 764.372 225.87C763.729 226.062 762.967 226.16 762.085 226.165C761.198 226.16 760.433 226.062 759.791 225.87C759.149 225.683 758.655 225.412 758.31 225.058C757.969 224.703 757.799 224.276 757.799 223.777ZM758.921 223.777C758.921 224.08 759.046 224.343 759.295 224.569C759.544 224.789 759.904 224.959 760.373 225.079C760.848 225.199 761.407 225.259 762.049 225.259C762.706 225.259 763.274 225.199 763.753 225.079C764.233 224.964 764.602 224.796 764.861 224.576C765.12 224.35 765.249 224.084 765.249 223.777C765.249 223.471 765.122 223.205 764.868 222.979C764.614 222.754 764.247 222.581 763.768 222.462C763.293 222.342 762.732 222.282 762.085 222.282C761.433 222.282 760.87 222.342 760.395 222.462C759.92 222.581 759.556 222.754 759.302 222.979C759.048 223.205 758.921 223.471 758.921 223.777ZM780.286 224.525H768.579V223.576H773.857V220.47H774.994V223.576H780.286V224.525ZM769.154 220.009C769.888 219.885 770.617 219.616 771.341 219.204C772.069 218.787 772.666 218.281 773.131 217.687C773.596 217.087 773.829 216.462 773.829 215.81V215.493H769.543V214.544H779.28V215.493H774.994V215.81C774.994 216.462 775.229 217.085 775.698 217.679C776.168 218.269 776.768 218.768 777.496 219.175C778.23 219.583 778.973 219.846 779.725 219.966L779.265 220.858C778.599 220.724 777.944 220.501 777.302 220.189C776.664 219.873 776.092 219.482 775.583 219.017C775.075 218.547 774.689 218.027 774.426 217.456C774.162 218.032 773.776 218.559 773.268 219.038C772.764 219.513 772.194 219.911 771.556 220.232C770.923 220.553 770.281 220.781 769.629 220.915L769.154 220.009ZM791.973 226.165H790.836V213.379H791.973V226.165ZM781.689 222.814C782.317 222.526 782.885 222.112 783.393 221.57C783.906 221.023 784.309 220.4 784.602 219.7C784.894 219 785.04 218.283 785.04 217.55V216.529H782.034V215.608H785.026V213.624H786.148V215.608H789.125V216.529H786.148V217.55C786.148 218.25 786.296 218.935 786.594 219.607C786.896 220.278 787.308 220.875 787.83 221.397C788.353 221.915 788.933 222.31 789.571 222.584L788.938 223.461C788.195 223.135 787.528 222.644 786.939 221.987C786.354 221.33 785.913 220.58 785.616 219.736C785.328 220.628 784.892 221.424 784.307 222.124C783.727 222.819 783.065 223.341 782.322 223.691L781.689 222.814ZM797.474 221.03C797.47 222.368 797.292 223.607 796.942 224.748C796.592 225.889 796.079 226.951 795.403 227.934H794.31C794.636 227.45 794.943 226.827 795.231 226.064C795.518 225.302 795.751 224.48 795.928 223.598C796.106 222.711 796.194 221.855 796.194 221.03C796.194 220.206 796.106 219.353 795.928 218.47C795.751 217.583 795.518 216.761 795.231 216.004C794.943 215.242 794.636 214.621 794.31 214.141H795.403C796.77 216.126 797.46 218.422 797.474 221.03Z" fill="#0F172A"/>
<rect x="233" width="72" height="72" rx="36" fill="#219785"/>
<path d="M262.006 30.0119H258.476C258.483 30.7334 258.632 31.4322 258.925 32.1083C259.224 32.7779 259.679 33.3824 260.29 33.922C260.901 34.4615 261.655 34.8808 262.552 35.1798L261.323 37.091C260.374 36.792 259.555 36.3434 258.866 35.7454C258.177 35.1408 257.634 34.4258 257.238 33.6002C256.828 34.5168 256.263 35.3098 255.541 35.9794C254.82 36.6424 253.952 37.1365 252.938 37.4615L251.67 35.4918C252.606 35.1928 253.393 34.7573 254.03 34.1852C254.667 33.6132 255.141 32.9664 255.453 32.2448C255.772 31.5167 255.934 30.7724 255.941 30.0119H252.372V28.0422H262.006V30.0119ZM254.537 38.3976H266.725V44.7942H264.249V40.3868H254.537V38.3976ZM261.499 31.3185H264.249V27.0476H266.725V37.6175H264.249V33.3467H261.499V31.3185ZM283.107 31.3185H285.505V33.3857H283.107V37.442H280.611V27.0476H283.107V31.3185ZM269.027 28.6077H273.063V26.9306H275.54V28.6077H279.557V30.5579H269.027V28.6077ZM269.885 34.2047C269.885 33.5807 270.07 33.0314 270.44 32.5568C270.811 32.0823 271.328 31.715 271.991 31.455C272.66 31.195 273.427 31.065 274.292 31.065C275.144 31.065 275.901 31.195 276.564 31.455C277.227 31.715 277.741 32.0823 278.105 32.5568C278.475 33.0314 278.66 33.5807 278.66 34.2047C278.66 34.8288 278.475 35.3781 278.105 35.8526C277.741 36.3272 277.227 36.6945 276.564 36.9545C275.901 37.2145 275.144 37.3445 274.292 37.3445C273.427 37.3445 272.66 37.2145 271.991 36.9545C271.328 36.6945 270.811 36.3272 270.44 35.8526C270.07 35.3781 269.885 34.8288 269.885 34.2047ZM271.484 38.1246H273.96V39.4702H280.611V38.1246H283.107V44.5991H271.484V38.1246ZM272.322 34.2047C272.316 34.6273 272.488 34.9523 272.839 35.1798C273.197 35.4073 273.681 35.5243 274.292 35.5308C274.903 35.5243 275.391 35.4073 275.755 35.1798C276.119 34.9523 276.301 34.6273 276.301 34.2047C276.301 33.7952 276.115 33.4734 275.745 33.2394C275.381 32.9989 274.897 32.8851 274.292 32.8981C273.694 32.8851 273.213 32.9989 272.849 33.2394C272.491 33.4734 272.316 33.7952 272.322 34.2047ZM280.611 42.649V41.3814H273.96V42.649H280.611Z" fill="white"/>
<rect x="945" width="72" height="72" rx="36" fill="#219785"/>
<path d="M979.993 38.9241H976.19V44.7942H973.655V38.9241H970.028V44.7942H967.473V38.9241H963.748V36.9155H979.993V38.9241ZM965.386 31.65C965.386 30.8439 965.656 30.1386 966.196 29.5341C966.735 28.9295 967.489 28.4615 968.458 28.13C969.433 27.7984 970.554 27.6327 971.822 27.6327C973.089 27.6327 974.211 27.7984 975.186 28.13C976.167 28.4615 976.931 28.9295 977.477 29.5341C978.023 30.1386 978.296 30.8439 978.296 31.65C978.296 32.4366 978.023 33.1256 977.477 33.7172C976.931 34.3022 976.167 34.754 975.186 35.0726C974.211 35.3911 973.089 35.5504 971.822 35.5504C970.561 35.5504 969.443 35.3911 968.467 35.0726C967.492 34.754 966.735 34.3022 966.196 33.7172C965.656 33.1256 965.386 32.4366 965.386 31.65ZM967.941 31.65C967.934 32.2676 968.276 32.7454 968.965 33.0834C969.66 33.4214 970.613 33.5937 971.822 33.6002C973.037 33.5937 973.99 33.4214 974.679 33.0834C975.374 32.7454 975.722 32.2676 975.722 31.65C975.722 31.0065 975.374 30.5092 974.679 30.1581C973.99 29.8071 973.037 29.6283 971.822 29.6218C970.613 29.6283 969.66 29.8071 968.965 30.1581C968.276 30.5092 967.934 31.0065 967.941 31.65ZM997.213 38.1441H980.988V36.1939H987.852V35.1018H983.016V27.4766H995.321V29.3878H985.512V30.3824H994.912V32.1766H985.512V33.1906H995.477V35.1018H990.348V36.1939H997.213V38.1441ZM982.879 41.8689C982.879 41.2448 983.12 40.7151 983.601 40.2795C984.088 39.844 984.797 39.5157 985.726 39.2947C986.656 39.0672 987.781 38.9566 989.1 38.9631C990.4 38.9566 991.509 39.0672 992.425 39.2947C993.348 39.5157 994.054 39.8472 994.541 40.2893C995.029 40.7248 995.276 41.2513 995.282 41.8689C995.276 42.818 994.733 43.5428 993.654 44.0433C992.581 44.5504 991.063 44.8007 989.1 44.7942C987.105 44.8007 985.567 44.5504 984.488 44.0433C983.416 43.5428 982.879 42.818 982.879 41.8689ZM985.375 41.8689C985.369 42.2459 985.665 42.5222 986.263 42.6977C986.867 42.8732 987.813 42.961 989.1 42.961C990.355 42.961 991.281 42.8732 991.879 42.6977C992.477 42.5222 992.78 42.2459 992.786 41.8689C992.78 41.5049 992.484 41.2351 991.899 41.0596C991.314 40.8841 990.417 40.7963 989.208 40.7963C987.881 40.7963 986.91 40.8841 986.292 41.0596C985.674 41.2286 985.369 41.4984 985.375 41.8689Z" fill="white"/>
<rect x="233" y="176" width="72" height="72" rx="36" fill="#F36689"/>
<path d="M266.16 195.483H261.109V197.258H267.993V199.247H251.768V197.258H258.632V195.483H253.815V189.321H256.292V193.494H266.16V195.483ZM253.62 203.498C253.62 202.803 253.867 202.208 254.361 201.714C254.862 201.22 255.577 200.846 256.506 200.593C257.443 200.333 258.554 200.203 259.841 200.203C261.122 200.203 262.224 200.333 263.147 200.593C264.07 200.846 264.778 201.22 265.272 201.714C265.767 202.208 266.017 202.803 266.023 203.498C266.017 204.194 265.767 204.789 265.272 205.283C264.778 205.777 264.07 206.151 263.147 206.404C262.224 206.664 261.122 206.794 259.841 206.794C258.554 206.794 257.443 206.664 256.506 206.404C255.577 206.151 254.862 205.777 254.361 205.283C253.867 204.789 253.62 204.194 253.62 203.498ZM256.155 203.498C256.149 203.96 256.454 204.311 257.072 204.551C257.696 204.785 258.619 204.902 259.841 204.902C261.044 204.902 261.957 204.785 262.581 204.551C263.205 204.311 263.521 203.96 263.527 203.498C263.521 202.575 262.318 202.114 259.919 202.114C258.652 202.114 257.706 202.228 257.082 202.455C256.458 202.676 256.149 203.024 256.155 203.498ZM285.408 193.396H283.107V195.21H285.408V197.277H283.107V199.52H280.611V189.048H283.107V191.388H285.408V193.396ZM269.144 194.333C269.144 193.513 269.355 192.776 269.777 192.119C270.2 191.456 270.782 190.943 271.523 190.578C272.27 190.208 273.102 190.023 274.019 190.023C274.923 190.023 275.742 190.208 276.476 190.578C277.217 190.943 277.799 191.456 278.222 192.119C278.644 192.776 278.855 193.513 278.855 194.333C278.855 195.171 278.644 195.922 278.222 196.585C277.799 197.248 277.221 197.765 276.486 198.135C275.751 198.499 274.929 198.681 274.019 198.681C273.102 198.681 272.27 198.499 271.523 198.135C270.782 197.765 270.2 197.248 269.777 196.585C269.355 195.922 269.144 195.171 269.144 194.333ZM271.152 200.222H283.107V206.794H280.611V202.231H271.152V200.222ZM271.601 194.333C271.594 194.801 271.695 195.204 271.903 195.542C272.111 195.88 272.397 196.14 272.761 196.322C273.132 196.497 273.551 196.582 274.019 196.575C274.481 196.582 274.893 196.497 275.257 196.322C275.621 196.14 275.907 195.88 276.115 195.542C276.33 195.204 276.437 194.801 276.437 194.333C276.437 193.884 276.33 193.494 276.115 193.162C275.907 192.831 275.618 192.577 275.248 192.402C274.884 192.226 274.474 192.142 274.019 192.148C273.551 192.142 273.132 192.226 272.761 192.402C272.397 192.577 272.111 192.831 271.903 193.162C271.695 193.494 271.594 193.884 271.601 194.333ZM260.972 217.081C260.972 218.615 260.657 219.997 260.027 221.225C259.396 222.447 258.473 223.494 257.257 224.365C256.048 225.23 254.576 225.902 252.84 226.384L251.865 224.453C253.757 223.939 255.252 223.218 256.35 222.288C257.449 221.352 258.102 220.279 258.31 219.07H252.821V217.081H260.972ZM254.966 226.696H266.725V233.58H254.966V226.696ZM264.268 231.629V228.646H257.404V231.629H264.268ZM261.089 220.279H264.249V216.067H266.725V225.993H264.249V222.308H261.089V220.279ZM285.174 225.428H278.348V226.54H283.243V230.869H273.356V231.844H283.711V233.677H270.918V229.192H280.786V228.314H270.899V226.54H275.872V225.428H269.066V223.614H285.174V225.428ZM269.69 221.294C271.38 221.222 272.712 221.004 273.687 220.64C274.663 220.27 275.287 219.811 275.56 219.265H270.587V217.432H275.872V216.028H278.329V217.432H283.653V219.265H278.631C278.904 219.811 279.528 220.27 280.503 220.64C281.485 221.004 282.827 221.222 284.53 221.294L283.809 223.127C282.177 223.042 280.793 222.802 279.655 222.405C278.517 222.009 277.666 221.472 277.1 220.796C276.535 221.472 275.683 222.009 274.546 222.405C273.408 222.802 272.017 223.042 270.372 223.127L269.69 221.294Z" fill="white"/>
<rect x="352" y="176" width="72" height="72" rx="36" fill="#6951CB"/>
<path d="M386.993 200.924H383.19V206.794H380.655V200.924H377.028V206.794H374.473V200.924H370.748V198.915H386.993V200.924ZM372.386 193.65C372.386 192.844 372.656 192.139 373.196 191.534C373.735 190.93 374.489 190.461 375.458 190.13C376.433 189.798 377.554 189.633 378.822 189.633C380.089 189.633 381.211 189.798 382.186 190.13C383.167 190.461 383.931 190.93 384.477 191.534C385.023 192.139 385.296 192.844 385.296 193.65C385.296 194.437 385.023 195.126 384.477 195.717C383.931 196.302 383.167 196.754 382.186 197.073C381.211 197.391 380.089 197.55 378.822 197.55C377.561 197.55 376.443 197.391 375.467 197.073C374.492 196.754 373.735 196.302 373.196 195.717C372.656 195.126 372.386 194.437 372.386 193.65ZM374.941 193.65C374.934 194.268 375.276 194.745 375.965 195.083C376.66 195.421 377.613 195.594 378.822 195.6C380.037 195.594 380.99 195.421 381.679 195.083C382.374 194.745 382.722 194.268 382.722 193.65C382.722 193.006 382.374 192.509 381.679 192.158C380.99 191.807 380.037 191.628 378.822 191.622C377.613 191.628 376.66 191.807 375.965 192.158C375.276 192.509 374.934 193.006 374.941 193.65ZM404.213 200.144H387.988V198.194H394.852V197.102H390.016V189.477H402.321V191.388H392.512V192.382H401.912V194.177H392.512V195.191H402.477V197.102H397.348V198.194H404.213V200.144ZM389.879 203.869C389.879 203.245 390.12 202.715 390.601 202.28C391.088 201.844 391.797 201.516 392.726 201.295C393.656 201.067 394.781 200.957 396.1 200.963C397.4 200.957 398.509 201.067 399.425 201.295C400.348 201.516 401.054 201.847 401.541 202.289C402.029 202.725 402.276 203.251 402.282 203.869C402.276 204.818 401.733 205.543 400.654 206.043C399.581 206.55 398.063 206.801 396.1 206.794C394.105 206.801 392.567 206.55 391.488 206.043C390.416 205.543 389.879 204.818 389.879 203.869ZM392.375 203.869C392.369 204.246 392.665 204.522 393.263 204.698C393.867 204.873 394.813 204.961 396.1 204.961C397.355 204.961 398.281 204.873 398.879 204.698C399.477 204.522 399.78 204.246 399.786 203.869C399.78 203.505 399.484 203.235 398.899 203.06C398.314 202.884 397.417 202.796 396.208 202.796C394.881 202.796 393.91 202.884 393.292 203.06C392.674 203.229 392.369 203.498 392.375 203.869ZM386.954 226.11H380.089V227.427C381.643 227.537 382.852 227.866 383.717 228.412C384.581 228.958 385.017 229.686 385.023 230.596C385.017 231.272 384.767 231.85 384.272 232.332C383.778 232.813 383.067 233.177 382.137 233.424C381.214 233.671 380.115 233.794 378.841 233.794C377.548 233.794 376.433 233.671 375.497 233.424C374.567 233.177 373.855 232.813 373.361 232.332C372.867 231.857 372.62 231.278 372.62 230.596C372.62 229.679 373.056 228.948 373.927 228.402C374.798 227.856 376.027 227.528 377.613 227.417V226.11H370.768V224.102H386.954V226.11ZM371.489 221.489C372.542 221.398 373.459 221.216 374.239 220.943C375.019 220.67 375.64 220.344 376.101 219.967C376.569 219.59 376.881 219.187 377.037 218.758H372.25V216.808H385.491V218.758H380.665C380.814 219.187 381.12 219.594 381.581 219.977C382.049 220.354 382.677 220.679 383.463 220.952C384.256 221.219 385.192 221.398 386.271 221.489L385.394 223.439C383.749 223.283 382.368 222.915 381.25 222.337C380.132 221.752 379.329 221.017 378.841 220.133C378.36 221.017 377.561 221.752 376.443 222.337C375.324 222.922 373.946 223.289 372.308 223.439L371.489 221.489ZM375.155 230.596C375.149 231.025 375.454 231.353 376.072 231.581C376.696 231.808 377.619 231.922 378.841 231.922C380.044 231.922 380.957 231.808 381.581 231.581C382.205 231.353 382.521 231.025 382.527 230.596C382.521 229.718 381.292 229.27 378.841 229.25C377.606 229.263 376.68 229.38 376.062 229.601C375.451 229.816 375.149 230.147 375.155 230.596ZM394.911 220.884C394.904 221.866 395.07 222.831 395.408 223.78C395.746 224.723 396.25 225.574 396.919 226.335C397.589 227.089 398.401 227.664 399.357 228.061L398.011 230.011C396.997 229.582 396.126 228.954 395.398 228.129C394.67 227.297 394.098 226.325 393.682 225.213C393.266 226.416 392.687 227.476 391.946 228.392C391.212 229.302 390.334 229.991 389.314 230.459L387.89 228.49C388.839 228.067 389.648 227.453 390.318 226.647C390.994 225.841 391.501 224.937 391.839 223.936C392.184 222.928 392.356 221.911 392.356 220.884V219.792H388.592V217.764H398.616V219.792H394.911V220.884ZM400.371 216.048H402.887V233.794H400.371V216.048Z" fill="white"/>
<path d="M305 213C304.448 213 304 213.448 304 214C304 214.552 304.448 215 305 215V213ZM350 214L340 208.226V219.774L350 214ZM305 215H341V213H305V215Z" fill="#2F5BC1"/>
<path d="M269 164L274.774 154L263.226 154L269 164ZM269 72L263.227 82L274.774 82L269 72ZM270 155L270 81L268 81L268 155L270 155Z" fill="#2F5BC1"/>
<path d="M269 119L208 119" stroke="#2F5BC1" stroke-width="2"/>
<path d="M852 268V150" stroke="#2F5BC1" stroke-width="2"/>
<path d="M852 210H830" stroke="#2F5BC1" stroke-width="2"/>
<path d="M938 36L928 30.2265V41.7735L938 36ZM929 35L305 35V37L929 37V35Z" fill="#2F5BC1"/>
<path d="M429 213C428.448 213 428 213.448 428 214C428 214.552 428.448 215 429 215V213ZM462 214L452 208.226V219.774L462 214ZM429 215H453V213H429V215Z" fill="#2F5BC1"/>
<path d="M665 213C664.448 213 664 213.448 664 214C664 214.552 664.448 215 665 215V213ZM698 214L688 208.226V219.774L698 214ZM665 215H689V213H665V215Z" fill="#2F5BC1"/>
<path d="M852 149C851.448 149 851 149.448 851 150C851 150.552 851.448 151 852 151V149ZM885 150L875 144.226V155.774L885 150ZM852 151H876V149H852V151Z" fill="#2F5BC1"/>
<path d="M852 267C851.448 267 851 267.448 851 268C851 268.552 851.448 269 852 269V267ZM885 268L875 262.226V273.774L885 268ZM852 269H876V267H852V269Z" fill="#2F5BC1"/>
</svg>
