<svg width="910" height="85" viewBox="0 0 910 85" fill="none" xmlns="http://www.w3.org/2000/svg">
<rect x="18.3552" y="7.07422" width="262.073" height="70.8319" rx="35.416" stroke="#219785" stroke-width="4"/>
<path d="M74.8396 38.2207C74.8331 39.2038 74.9991 40.1706 75.3376 41.1211C75.6762 42.0651 76.1807 42.918 76.8513 43.6797C77.5219 44.4349 78.3357 45.0111 79.2927 45.4082L77.9451 47.3613C76.9294 46.9316 76.057 46.3034 75.3279 45.4766C74.5987 44.6432 74.0258 43.6699 73.6091 42.5566C73.1925 43.7611 72.613 44.8223 71.8708 45.7402C71.1352 46.6517 70.2563 47.3418 69.2341 47.8105L67.8083 45.8379C68.7589 45.4147 69.5694 44.7995 70.24 43.9922C70.9171 43.1849 71.4249 42.2799 71.7634 41.2773C72.1085 40.2682 72.281 39.2493 72.281 38.2207V37.127H68.5115V35.0957H78.5505V37.127H74.8396V38.2207ZM80.3083 33.377H82.8279V51.1504H80.3083V33.377ZM101.441 44.0215H85.2302V42.0293H92.0857V39.666H94.5466V42.0293H101.441V44.0215ZM86.0701 38.7871C87.3331 38.6243 88.4138 38.3151 89.3123 37.8594C90.2107 37.4036 90.8878 36.86 91.3435 36.2285C91.8057 35.597 92.0401 34.9395 92.0466 34.2559V33.6699H94.5857V34.2559C94.5792 34.9655 94.8005 35.6361 95.2498 36.2676C95.7055 36.8926 96.3826 37.4297 97.281 37.8789C98.186 38.3216 99.2862 38.6243 100.582 38.7871L99.6248 40.7207C98.1339 40.4993 96.8448 40.0892 95.7576 39.4902C94.6768 38.8848 93.8533 38.1328 93.2869 37.2344C92.7139 38.1328 91.8839 38.8848 90.7966 39.4902C89.7094 40.0957 88.4268 40.5059 86.949 40.7207L86.0701 38.7871ZM87.0271 45.2715H99.4685V51.1504H96.988V47.2051H87.0271V45.2715ZM116.539 40.1934H119.058V42.2441H116.539V51.1113H114.039V33.377H116.539V40.1934ZM102.32 46.1309C104.436 45.0697 106.064 43.8132 107.203 42.3613C108.342 40.9095 109.029 39.1973 109.263 37.2246H103.336V35.1934H111.793C111.78 38.0254 111.142 40.5254 109.879 42.6934C108.622 44.8613 106.571 46.6452 103.726 48.0449L102.32 46.1309ZM134.215 39.8223H121.851V33.6504H124.332V37.8301H134.215V39.8223ZM119.801 41.3457H136.051V43.377H119.801V41.3457ZM121.656 47.791C121.656 47.0944 121.903 46.502 122.398 46.0137C122.899 45.5189 123.616 45.1413 124.547 44.8809C125.478 44.6204 126.591 44.4902 127.886 44.4902C129.169 44.4902 130.273 44.6204 131.197 44.8809C132.122 45.1413 132.831 45.5189 133.326 46.0137C133.821 46.502 134.071 47.0944 134.078 47.791C134.071 48.4941 133.821 49.0898 133.326 49.5781C132.831 50.0729 132.122 50.4473 131.197 50.7012C130.273 50.9616 129.169 51.0918 127.886 51.0918C126.591 51.0918 125.474 50.9616 124.537 50.7012C123.606 50.4473 122.893 50.0729 122.398 49.5781C121.903 49.0833 121.656 48.4876 121.656 47.791ZM124.195 47.791C124.189 48.7155 125.419 49.1842 127.886 49.1973C129.097 49.1908 130.012 49.0703 130.631 48.8359C131.256 48.6016 131.571 48.2533 131.578 47.791C131.571 47.3288 131.262 46.9902 130.65 46.7754C130.038 46.554 129.117 46.4368 127.886 46.4238C126.636 46.4368 125.705 46.5508 125.094 46.7656C124.488 46.9805 124.189 47.3223 124.195 47.791ZM151.187 38.8457H153.59V40.877H151.187V46.6582H148.687V33.3965H151.187V38.8457ZM137.086 35.252H141.129V33.3574H143.609V35.252H147.633V37.2246H137.086V35.252ZM137.945 41.2871C137.945 40.61 138.131 40.0111 138.502 39.4902C138.879 38.9694 139.403 38.5658 140.074 38.2793C140.745 37.9928 141.506 37.8496 142.359 37.8496C143.212 37.8496 143.967 37.9928 144.625 38.2793C145.289 38.5658 145.806 38.9694 146.177 39.4902C146.549 40.0111 146.734 40.61 146.734 41.2871C146.734 41.9642 146.549 42.5599 146.177 43.0742C145.813 43.582 145.299 43.9792 144.635 44.2656C143.97 44.5456 143.212 44.6855 142.359 44.6855C141.5 44.6855 140.735 44.5456 140.064 44.2656C139.4 43.9792 138.879 43.5788 138.502 43.0645C138.131 42.5501 137.945 41.9577 137.945 41.2871ZM139.664 45.6426H142.144V48.8457H151.832V50.8379H139.664V45.6426ZM140.386 41.2871C140.38 41.7689 140.556 42.14 140.914 42.4004C141.272 42.6608 141.754 42.791 142.359 42.791C142.971 42.791 143.459 42.6608 143.824 42.4004C144.189 42.14 144.371 41.7689 144.371 41.2871C144.371 40.8053 144.189 40.431 143.824 40.1641C143.459 39.8906 142.971 39.7507 142.359 39.7441C141.754 39.7507 141.272 39.8906 140.914 40.1641C140.556 40.431 140.38 40.8053 140.386 41.2871ZM173.199 39.2168H175.465V41.2676H173.199V47.2441H170.699V33.377H173.199V39.2168ZM158.785 43.5918C160.419 43.5918 161.858 43.5723 163.101 43.5332V42.5078C162.125 42.3711 161.357 42.0716 160.797 41.6094C160.243 41.1471 159.97 40.571 159.976 39.8809C159.976 39.3014 160.152 38.8034 160.504 38.3867C160.862 37.9701 161.37 37.6543 162.027 37.4395C162.685 37.2181 163.453 37.1074 164.332 37.1074C165.204 37.1074 165.966 37.2181 166.617 37.4395C167.274 37.6543 167.782 37.9701 168.14 38.3867C168.505 38.8034 168.687 39.3014 168.687 39.8809C168.681 40.571 168.401 41.1471 167.847 41.6094C167.301 42.0651 166.545 42.3646 165.582 42.5078V43.416C167.164 43.3184 168.596 43.1751 169.879 42.9863L170.054 44.7051C168.407 45.0241 166.708 45.2324 164.957 45.3301C163.212 45.4277 161.239 45.4863 159.039 45.5059L158.785 43.5918ZM159.254 34.8223H163.101V33.3184H165.582V34.8223H169.429V36.5996H159.254V34.8223ZM161.285 46.3262H163.785V48.8457H173.804V50.8379H161.285V46.3262ZM162.359 39.8809C162.353 40.2064 162.515 40.4603 162.847 40.6426C163.186 40.8249 163.664 40.916 164.283 40.916C164.927 40.916 165.422 40.8281 165.767 40.6523C166.119 40.4701 166.298 40.2129 166.304 39.8809C166.298 39.5098 166.125 39.2331 165.787 39.0508C165.448 38.862 164.963 38.7676 164.332 38.7676C163.687 38.7676 163.196 38.862 162.857 39.0508C162.519 39.2331 162.353 39.5098 162.359 39.8809ZM191.246 43.6309H188.765V41.8926H184.761V39.9004H188.765V38.2012H184.947C183.834 41.0137 181.317 42.9538 177.398 44.0215L176.422 42.0488C178.407 41.528 179.931 40.8021 180.992 39.8711C182.06 38.9336 182.685 37.8366 182.867 36.5801H177.379V34.5879H185.582C185.582 35.1868 185.539 35.7402 185.455 36.248H188.765V33.3965H191.246V43.6309ZM179.254 47.4395C179.254 46.7168 179.504 46.0853 180.006 45.5449C180.507 45.0046 181.217 44.5879 182.135 44.2949C183.052 43.9954 184.117 43.8457 185.328 43.8457C186.526 43.8457 187.58 43.9954 188.492 44.2949C189.403 44.5879 190.113 45.0046 190.621 45.5449C191.129 46.0853 191.383 46.7168 191.383 47.4395C191.383 48.1686 191.129 48.8066 190.621 49.3535C190.113 49.9069 189.4 50.3301 188.482 50.623C187.571 50.9225 186.519 51.0723 185.328 51.0723C184.117 51.0723 183.052 50.9225 182.135 50.623C181.217 50.3301 180.507 49.9102 180.006 49.3633C179.504 48.8164 179.254 48.1751 179.254 47.4395ZM181.734 47.4395C181.734 47.9863 182.047 48.3997 182.672 48.6797C183.297 48.9596 184.182 49.0996 185.328 49.0996C186.448 49.0996 187.317 48.9596 187.935 48.6797C188.56 48.3932 188.876 47.9798 188.883 47.4395C188.876 46.8991 188.56 46.4889 187.935 46.209C187.317 45.9225 186.448 45.7858 185.328 45.7988C184.189 45.7858 183.303 45.9225 182.672 46.209C182.047 46.4889 181.734 46.8991 181.734 47.4395ZM214.429 49.0801H198.16V47.0684H205.035V43.1035H207.535V47.0684H214.429V49.0801ZM198.824 41.9121C200.015 41.7168 201.06 41.362 201.959 40.8477C202.857 40.3333 203.56 39.7181 204.068 39.002C204.576 38.2858 204.866 37.5306 204.937 36.7363H199.508V34.7246H213.004V36.7363H207.594C207.659 37.5306 207.945 38.2826 208.453 38.9922C208.967 39.6953 209.683 40.2975 210.601 40.7988C211.519 41.2936 212.594 41.6322 213.824 41.8145L212.847 43.7871C211.304 43.5137 209.967 43.0156 208.834 42.293C207.707 41.5703 206.855 40.6784 206.275 39.6172C205.709 40.6979 204.866 41.6126 203.746 42.3613C202.633 43.1035 201.317 43.6113 199.801 43.8848L198.824 41.9121ZM222.164 35.7988C222.157 36.6191 222.297 37.3874 222.584 38.1035C222.877 38.8197 223.326 39.4512 223.931 39.998C224.543 40.5449 225.308 40.9616 226.226 41.248L224.918 43.2012C223.98 42.8757 223.179 42.4199 222.515 41.834C221.858 41.2415 221.337 40.5352 220.953 39.7148C220.549 40.6719 219.983 41.4954 219.254 42.1855C218.524 42.8757 217.639 43.3965 216.597 43.748L215.289 41.7559C216.265 41.4434 217.079 40.9909 217.73 40.3984C218.381 39.7995 218.86 39.1191 219.166 38.3574C219.478 37.5892 219.638 36.7754 219.644 35.916V34.2949H222.164V35.7988ZM218.238 47.7129C218.238 46.9902 218.482 46.3685 218.97 45.8477C219.465 45.3268 220.172 44.9329 221.09 44.666C222.008 44.3926 223.095 44.2559 224.351 44.2559C225.614 44.2559 226.705 44.3926 227.623 44.666C228.541 44.9329 229.247 45.3268 229.742 45.8477C230.237 46.3685 230.484 46.9902 230.484 47.7129C230.484 48.4355 230.237 49.054 229.742 49.5684C229.247 50.0892 228.541 50.4831 227.623 50.75C226.705 51.0169 225.614 51.1504 224.351 51.1504C223.088 51.1504 221.998 51.0169 221.08 50.75C220.168 50.4831 219.465 50.0892 218.97 49.5684C218.482 49.054 218.238 48.4355 218.238 47.7129ZM220.719 47.7129C220.719 48.2077 221.028 48.582 221.646 48.8359C222.271 49.0898 223.173 49.2168 224.351 49.2168C225.536 49.2168 226.438 49.0898 227.056 48.8359C227.681 48.582 227.997 48.2077 228.004 47.7129C227.997 47.2051 227.685 46.8242 227.066 46.5703C226.448 46.3164 225.543 46.1895 224.351 46.1895C223.166 46.1895 222.265 46.3197 221.646 46.5801C221.028 46.834 220.719 47.2116 220.719 47.7129ZM224.605 36.6387H227.945V33.377H230.426V43.7871H227.945V38.6699H224.605V36.6387Z" fill="#111111"/>
<rect x="323.816" y="7.07422" width="262.073" height="70.8319" rx="35.416" stroke="#2196F3" stroke-width="4"/>
<path d="M397.512 37.4004C397.505 38.4876 397.658 39.5423 397.971 40.5645C398.283 41.5801 398.755 42.4915 399.387 43.2988C400.018 44.1061 400.793 44.7311 401.711 45.1738L400.207 47.166C399.283 46.7038 398.492 46.0592 397.834 45.2324C397.177 44.3991 396.659 43.429 396.281 42.3223C395.878 43.5137 395.328 44.5553 394.631 45.4473C393.934 46.3327 393.098 47.0163 392.121 47.498L390.578 45.4863C391.548 45.0436 392.365 44.4023 393.03 43.5625C393.694 42.7161 394.188 41.7624 394.514 40.7012C394.846 39.6335 395.012 38.5332 395.012 37.4004V34.7441H397.512V37.4004ZM402.492 33.377H404.992V40.2324H407.61V42.3418H404.992V51.1504H402.492V33.377ZM423.196 51.1504H420.715V33.377H423.196V51.1504ZM408.332 46.1309C408.736 46.1309 409.042 46.1276 409.25 46.1211C410.533 46.1211 411.737 46.1081 412.864 46.082V44.5781C412.219 44.4609 411.653 44.2526 411.164 43.9531C410.683 43.6536 410.311 43.2826 410.051 42.8398C409.791 42.3906 409.66 41.8926 409.66 41.3457C409.66 40.6947 409.846 40.1152 410.217 39.6074C410.588 39.0996 411.106 38.7057 411.77 38.4258C412.44 38.1458 413.209 38.0059 414.074 38.0059C414.947 38.0059 415.722 38.1458 416.399 38.4258C417.076 38.7057 417.603 39.0996 417.981 39.6074C418.358 40.1152 418.547 40.6947 418.547 41.3457C418.547 41.8926 418.414 42.3906 418.147 42.8398C417.886 43.2826 417.512 43.6536 417.024 43.9531C416.542 44.2526 415.976 44.4609 415.324 44.5781V45.9941C416.933 45.9225 418.404 45.7988 419.739 45.623L419.914 47.459C418.287 47.7389 416.604 47.9277 414.865 48.0254C413.127 48.1165 411.288 48.1621 409.348 48.1621H408.664L408.332 46.1309ZM408.684 35.3496H412.864V33.4551H415.344V35.3496H419.485V37.3027H408.684V35.3496ZM412.024 41.3457C412.017 41.8014 412.203 42.1562 412.58 42.4102C412.958 42.6641 413.456 42.791 414.074 42.791C414.712 42.791 415.22 42.6673 415.598 42.4199C415.976 42.166 416.164 41.8079 416.164 41.3457C416.164 40.8965 415.976 40.5449 415.598 40.291C415.22 40.0371 414.712 39.9069 414.074 39.9004C413.456 39.9069 412.958 40.0371 412.58 40.291C412.203 40.5449 412.017 40.8965 412.024 41.3457ZM435.793 36.3457H432.258C432.265 37.0684 432.414 37.7682 432.707 38.4453C433.007 39.1159 433.462 39.7214 434.074 40.2617C434.686 40.8021 435.442 41.222 436.34 41.5215L435.11 43.4355C434.159 43.1361 433.339 42.6868 432.649 42.0879C431.959 41.4824 431.415 40.7663 431.018 39.9395C430.608 40.8574 430.041 41.6517 429.319 42.3223C428.596 42.9863 427.727 43.4811 426.711 43.8066L425.442 41.834C426.379 41.5345 427.167 41.0983 427.805 40.5254C428.443 39.9525 428.918 39.3047 429.231 38.582C429.55 37.8529 429.712 37.1074 429.719 36.3457H426.145V34.373H435.793V36.3457ZM428.313 44.7441H440.52V51.1504H438.039V46.7363H428.313V44.7441ZM435.285 37.6543H438.039V33.377H440.52V43.9629H438.039V39.6855H435.285V37.6543ZM461.457 40.1934H463.977V42.2441H461.457V51.1113H458.957V33.377H461.457V40.1934ZM447.239 46.1309C449.354 45.0697 450.982 43.8132 452.121 42.3613C453.261 40.9095 453.948 39.1973 454.182 37.2246H448.254V35.1934H456.711C456.698 38.0254 456.06 40.5254 454.797 42.6934C453.541 44.8613 451.49 46.6452 448.645 48.0449L447.239 46.1309ZM479.582 51.1504H477.082V33.377H479.582V51.1504ZM464.817 45.916C465.754 45.5059 466.552 44.9297 467.209 44.1875C467.867 43.4453 468.358 42.6185 468.684 41.707C469.016 40.7956 469.185 39.8743 469.192 38.9434V38.2598H465.403V36.2676H469.172V33.7676H471.653V36.2676H475.364V38.2598H471.672V38.9434C471.672 39.8288 471.838 40.7109 472.17 41.5898C472.502 42.4688 473 43.2663 473.664 43.9824C474.328 44.6986 475.136 45.252 476.086 45.6426L474.739 47.5566C473.755 47.153 472.899 46.554 472.17 45.7598C471.448 44.9655 470.878 44.041 470.461 42.9863C470.051 44.1061 469.478 45.0892 468.742 45.9355C468.013 46.7754 467.147 47.4069 466.145 47.8301L464.817 45.916ZM501.477 42.3809H498.996V33.377H501.477V42.3809ZM486.535 40.4668C487.486 40.1803 488.283 39.7637 488.928 39.2168C489.573 38.6634 490.051 38.0352 490.364 37.332C490.676 36.6289 490.832 35.8965 490.832 35.1348V33.7676H493.43V35.1348C493.423 35.877 493.57 36.5801 493.869 37.2441C494.169 37.9082 494.631 38.4974 495.256 39.0117C495.888 39.526 496.672 39.9199 497.61 40.1934L496.399 42.1074C495.403 41.821 494.546 41.3848 493.83 40.7988C493.121 40.2129 492.558 39.513 492.141 38.6992C491.731 39.5911 491.158 40.3561 490.422 40.9941C489.686 41.6322 488.801 42.1074 487.766 42.4199L486.535 40.4668ZM489.563 43.1426H501.496V47.9668H492.043V49.0605H501.985V51.0332H489.602V46.1113H499.016V45.0762H489.563V43.1426ZM518.879 46.9316H516.399V43.5723H513.996V41.5996H516.399V39.8223H513.996V37.8105H516.399V33.3965H518.879V46.9316ZM503.938 35.252H507.766V33.3574H510.246V35.252H513.821V37.2246H503.938V35.252ZM504.817 41.3457C504.81 40.6751 504.986 40.0729 505.344 39.5391C505.702 39.0052 506.197 38.5918 506.828 38.2988C507.466 37.9993 508.183 37.8496 508.977 37.8496C509.784 37.8496 510.507 37.9993 511.145 38.2988C511.783 38.5918 512.281 39.0052 512.639 39.5391C513.003 40.0664 513.189 40.6686 513.196 41.3457C513.189 42.0228 513.003 42.625 512.639 43.1523C512.281 43.6797 511.783 44.0898 511.145 44.3828C510.507 44.6758 509.784 44.8223 508.977 44.8223C508.183 44.8223 507.466 44.6758 506.828 44.3828C506.197 44.0833 505.702 43.6699 505.344 43.1426C504.986 42.6152 504.81 42.0163 504.817 41.3457ZM507.043 45.7793H509.563V48.8457H519.25V50.8379H507.043V45.7793ZM507.141 41.3457C507.134 41.847 507.3 42.2376 507.639 42.5176C507.977 42.791 508.423 42.9277 508.977 42.9277C509.53 42.9277 509.979 42.791 510.324 42.5176C510.67 42.2376 510.845 41.847 510.852 41.3457C510.845 40.8574 510.67 40.4766 510.324 40.2031C509.979 39.9297 509.53 39.7897 508.977 39.7832C508.423 39.7897 507.977 39.9297 507.639 40.2031C507.3 40.4766 507.134 40.8574 507.141 41.3457Z" fill="#111111"/>
<rect x="629.355" y="7.07422" width="262.073" height="70.8319" rx="35.416" stroke="#6951CB" stroke-width="4"/>
<path d="M701.719 51.1094H699.199V33.3359H701.719V51.1094ZM686.836 46.0703C688.353 45.3542 689.603 44.5566 690.586 43.6777C691.576 42.7988 692.331 41.8255 692.852 40.7578C693.379 39.6836 693.711 38.4792 693.848 37.1445H687.793V35.1914H696.387C696.38 37.0924 696.123 38.821 695.615 40.377C695.107 41.9329 694.245 43.362 693.027 44.6641C691.816 45.9661 690.189 47.099 688.145 48.0625L686.836 46.0703ZM709.023 34.0977C709.766 34.0911 710.452 34.2214 711.084 34.4883C711.722 34.7552 712.256 35.1296 712.686 35.6113C713.122 36.0931 713.421 36.6497 713.584 37.2812H716.562V33.3359H719.043V42.8867H716.562V39.2734H713.594C713.444 39.918 713.151 40.4909 712.715 40.9922C712.285 41.487 711.751 41.8711 711.113 42.1445C710.475 42.418 709.779 42.5547 709.023 42.5547C708.125 42.5547 707.314 42.3724 706.592 42.0078C705.869 41.6432 705.303 41.1387 704.893 40.4941C704.489 39.8431 704.29 39.1107 704.297 38.2969C704.29 37.4961 704.489 36.7767 704.893 36.1387C705.303 35.4941 705.869 34.9928 706.592 34.6348C707.314 34.2702 708.125 34.0911 709.023 34.0977ZM706.66 38.2969C706.66 38.7331 706.758 39.1172 706.953 39.4492C707.155 39.7747 707.435 40.0254 707.793 40.2012C708.151 40.377 708.561 40.4648 709.023 40.4648C709.473 40.4648 709.873 40.377 710.225 40.2012C710.576 40.0189 710.85 39.765 711.045 39.4395C711.247 39.1139 711.348 38.7331 711.348 38.2969C711.348 37.8607 711.247 37.4831 711.045 37.1641C710.85 36.8385 710.576 36.5911 710.225 36.4219C709.873 36.2526 709.473 36.168 709.023 36.168C708.561 36.168 708.151 36.2526 707.793 36.4219C707.435 36.5911 707.155 36.8385 706.953 37.1641C706.758 37.4831 706.66 37.8607 706.66 38.2969ZM707.188 43.668H709.648V45.3867H716.562V43.668H719.043V50.9141H707.188V43.668ZM716.562 48.9023V47.3008H709.648V48.9023H716.562ZM727.109 34.5273C728.04 34.5273 728.88 34.7129 729.629 35.084C730.378 35.4551 730.964 35.9727 731.387 36.6367C731.816 37.2943 732.031 38.043 732.031 38.8828C732.031 39.7227 731.816 40.4746 731.387 41.1387C730.964 41.8027 730.378 42.3236 729.629 42.7012C728.88 43.0723 728.04 43.2578 727.109 43.2578C726.185 43.2578 725.345 43.0723 724.59 42.7012C723.835 42.3236 723.242 41.8027 722.812 41.1387C722.383 40.4746 722.168 39.7227 722.168 38.8828C722.168 38.0495 722.383 37.3008 722.812 36.6367C723.242 35.9727 723.835 35.4551 724.59 35.084C725.345 34.7129 726.185 34.5273 727.109 34.5273ZM722.158 45.4844C724.111 45.4844 725.977 45.4453 727.754 45.3672C729.538 45.2891 731.217 45.1393 732.793 44.918L732.988 46.7148C731.243 47.0534 729.469 47.2715 727.666 47.3691C725.869 47.4668 723.887 47.5156 721.719 47.5156L721.426 45.4844H722.158ZM724.648 38.8828C724.648 39.3385 724.753 39.7357 724.961 40.0742C725.176 40.4062 725.469 40.6602 725.84 40.8359C726.217 41.0117 726.641 41.0964 727.109 41.0898C727.585 41.0964 728.011 41.0117 728.389 40.8359C728.766 40.6602 729.062 40.4062 729.277 40.0742C729.499 39.7357 729.609 39.3385 729.609 38.8828C729.609 38.4336 729.499 38.043 729.277 37.7109C729.062 37.3724 728.766 37.1152 728.389 36.9395C728.011 36.7637 727.585 36.6758 727.109 36.6758C726.641 36.6758 726.217 36.7637 725.84 36.9395C725.469 37.1152 725.176 37.3724 724.961 37.7109C724.753 38.043 724.648 38.4336 724.648 38.8828ZM733.809 33.3359H736.289V51.1484H733.809V33.3359ZM759.492 45.8945H752.559V51.1094H750.098V45.8945H743.223V43.8633H759.492V45.8945ZM745.273 34.0586H757.559V36.0117H747.715V37.3398H757.188V39.2539H747.715V40.6016H757.754V42.5742H745.273V34.0586ZM775.508 43.7461H773.027V41.4805H769.707V42.7695H761.27V34.6445H769.707V35.9336H773.027V33.3359H775.508V43.7461ZM763.32 47.6719C763.32 46.9492 763.564 46.3275 764.053 45.8066C764.548 45.2858 765.254 44.8919 766.172 44.625C767.09 44.3516 768.177 44.2148 769.434 44.2148C770.697 44.2148 771.787 44.3516 772.705 44.625C773.623 44.8919 774.329 45.2858 774.824 45.8066C775.319 46.3275 775.566 46.9492 775.566 47.6719C775.566 48.3945 775.319 49.013 774.824 49.5273C774.329 50.0482 773.623 50.4421 772.705 50.709C771.787 50.9759 770.697 51.1094 769.434 51.1094C768.171 51.1094 767.08 50.9759 766.162 50.709C765.251 50.4421 764.548 50.0482 764.053 49.5273C763.564 49.013 763.32 48.3945 763.32 47.6719ZM767.266 40.7969V36.6172H763.75V40.7969H767.266ZM765.801 47.6719C765.801 48.1797 766.11 48.5638 766.729 48.8242C767.354 49.0846 768.255 49.2148 769.434 49.2148C770.618 49.2148 771.52 49.0846 772.139 48.8242C772.764 48.5638 773.079 48.1797 773.086 47.6719C773.079 47.151 772.767 46.7604 772.148 46.5C771.53 46.2396 770.625 46.1094 769.434 46.1094C768.242 46.1094 767.337 46.2396 766.719 46.5C766.107 46.7604 765.801 47.151 765.801 47.6719ZM773.027 39.4688V37.9062H769.707V39.4688H773.027ZM784.531 35.7578C784.525 36.5781 784.665 37.3464 784.951 38.0625C785.244 38.7786 785.693 39.4102 786.299 39.957C786.911 40.5039 787.676 40.9206 788.594 41.207L787.285 43.1602C786.348 42.8346 785.547 42.3789 784.883 41.793C784.225 41.2005 783.704 40.4941 783.32 39.6738C782.917 40.6309 782.35 41.4544 781.621 42.1445C780.892 42.8346 780.007 43.3555 778.965 43.707L777.656 41.7148C778.633 41.4023 779.447 40.9499 780.098 40.3574C780.749 39.7585 781.227 39.0781 781.533 38.3164C781.846 37.5482 782.005 36.7344 782.012 35.875V34.2539H784.531V35.7578ZM780.605 47.6719C780.605 46.9492 780.85 46.3275 781.338 45.8066C781.833 45.2858 782.539 44.8919 783.457 44.625C784.375 44.3516 785.462 44.2148 786.719 44.2148C787.982 44.2148 789.072 44.3516 789.99 44.625C790.908 44.8919 791.615 45.2858 792.109 45.8066C792.604 46.3275 792.852 46.9492 792.852 47.6719C792.852 48.3945 792.604 49.013 792.109 49.5273C791.615 50.0482 790.908 50.4421 789.99 50.709C789.072 50.9759 787.982 51.1094 786.719 51.1094C785.456 51.1094 784.365 50.9759 783.447 50.709C782.536 50.4421 781.833 50.0482 781.338 49.5273C780.85 49.013 780.605 48.3945 780.605 47.6719ZM783.086 47.6719C783.086 48.1667 783.395 48.541 784.014 48.7949C784.639 49.0488 785.54 49.1758 786.719 49.1758C787.904 49.1758 788.805 49.0488 789.424 48.7949C790.049 48.541 790.365 48.1667 790.371 47.6719C790.365 47.1641 790.052 46.7832 789.434 46.5293C788.815 46.2754 787.91 46.1484 786.719 46.1484C785.534 46.1484 784.632 46.2786 784.014 46.5391C783.395 46.793 783.086 47.1706 783.086 47.6719ZM786.973 36.5977H790.312V33.3359H792.793V43.7461H790.312V38.6289H786.973V36.5977ZM815.078 51.1094H812.715V33.3359H815.078V51.1094ZM799.336 45.9141C800.566 45.1589 801.471 44.0814 802.051 42.6816C802.637 41.2754 802.93 39.7487 802.93 38.1016V37.1445H800.02V35.1523H808.027V37.1445H805.332V38.1016C805.326 39.7096 805.602 41.1745 806.162 42.4961C806.729 43.8177 807.624 44.8268 808.848 45.5234L807.383 47.3594C805.885 46.474 804.808 44.9961 804.15 42.9258C803.838 44.0065 803.405 44.9603 802.852 45.7871C802.298 46.6139 801.628 47.2682 800.84 47.75L799.336 45.9141ZM806.758 39.4297H809.102V33.6289H811.445V50.2891H809.102V41.4414H806.758V39.4297ZM831.641 36.5586C831.634 37.5938 831.618 38.4824 831.592 39.2246C831.572 39.9603 831.51 40.8262 831.406 41.8223C831.302 42.8118 831.139 43.8893 830.918 45.0547L828.418 44.8008C828.724 43.3099 828.919 41.9688 829.004 40.7773C829.089 39.5794 829.134 38.2708 829.141 36.8516H818.672V34.8789H831.641V36.5586ZM816.992 46.9102H822.793V40.7969H825.273V46.9102H833.203V48.9414H816.992V46.9102Z" fill="#111111"/>
</svg>
