<?xml version="1.0" encoding="UTF-8"?>
<svg id="Layer_2" xmlns="http://www.w3.org/2000/svg" viewBox="0 0 410.58 70.24">
  <defs>
    <style>
      .cls-1 {
        fill: #fff;
      }
    </style>
  </defs>
  <g id="Layer_1-2" data-name="Layer_1">
    <g>
      <path class="cls-1" d="M107.39,30.21l8.37,9.19-2.77,2.34-7.13-7.91c-1.56,2.98-3.8,5.71-6.71,8.23l-2.73-2.38c4.97-4.33,7.66-9.4,8.16-15.29v-3.09h3.87v1.99c-.04,2.41-.39,4.72-1.06,6.92ZM123.53,50.75h-3.87v-18.8h-7.45v-3.33h7.45v-10.75h3.87v32.89Z"/>
      <path class="cls-1" d="M140.67,38.41v-2.87h-13.59v-3.3h31.15v3.3h-13.59v2.87h6.78v8.34h-13.62v1.95h14.44v3.3h-18.38v-8.48h13.62v-1.85h-13.84v-3.26h7.02ZM133.97,24.6c0-1.92.82-3.51,2.52-4.79,1.63-1.24,3.69-1.88,6.17-1.88s4.54.64,6.24,1.88c1.67,1.28,2.52,2.87,2.52,4.79s-.85,3.51-2.52,4.75c-1.7,1.28-3.76,1.92-6.24,1.92s-4.54-.64-6.17-1.92c-1.7-1.24-2.52-2.84-2.52-4.75ZM137.9,24.6c0,.96.43,1.74,1.31,2.34.85.64,1.99.96,3.44.96s2.63-.32,3.51-.96c.85-.6,1.31-1.38,1.31-2.34s-.46-1.74-1.31-2.38c-.89-.6-2.06-.92-3.51-.92s-2.59.32-3.44.92c-.89.64-1.31,1.45-1.31,2.38Z"/>
      <path class="cls-1" d="M169.97,30.21l8.51,8.8-2.77,2.34-7.24-7.59c-1.56,2.98-3.8,5.75-6.74,8.3l-2.73-2.38c4.97-4.33,7.66-9.4,8.16-15.29v-3.09h3.87v1.99c-.04,2.41-.39,4.72-1.06,6.92ZM185.62,50.75h-3.87V17.86h3.87v32.89Z"/>
      <path class="cls-1" d="M213.86,30.67h-6.95v3.41h13.41v3.37h-31.15v-3.37h13.8v-3.41h-7.06v-11.81h3.97v8.48h13.98v3.33ZM196.05,45.61c0-1.99.82-3.65,2.48-4.93,1.63-1.28,3.73-1.92,6.21-1.92s4.58.64,6.28,1.92c1.63,1.28,2.48,2.94,2.48,4.93s-.85,3.65-2.48,4.93c-1.7,1.28-3.79,1.92-6.28,1.92s-4.58-.64-6.21-1.92c-1.67-1.28-2.48-2.91-2.48-4.93ZM199.99,45.61c0,1.06.43,1.88,1.28,2.52s1.99.96,3.48.96,2.66-.32,3.55-.96c.85-.64,1.28-1.45,1.28-2.52s-.43-1.88-1.28-2.52c-.89-.64-2.06-.96-3.55-.96s-2.62.32-3.48.96-1.28,1.49-1.28,2.52Z"/>
      <path class="cls-1" d="M252.25,40.14h-13.62v11.32h-3.97v-11.32h-13.55v-3.37h31.15v3.37ZM238.73,20.92c-.07.99-.25,1.92-.53,2.8l10.08,7.63-2.41,2.66-9.26-6.99c-1.84,2.77-4.9,5.29-9.08,7.49l-2.48-2.66c6.39-3.62,9.61-7.31,9.76-11.07v-1.67h3.94v1.81Z"/>
      <path class="cls-1" d="M264.06,27.73l7.98,7.84-2.73,2.34-6.78-6.85c-1.49,2.59-3.69,5.04-6.53,7.34l-2.7-2.34c4.97-4.15,7.56-8.62,7.84-13.41v-2.63h3.83v1.95c0,1.99-.28,3.9-.92,5.75ZM279.21,51.64h-18.27v-11.78h3.87v8.44h14.4v3.33ZM284.28,30.21h-5.46v11.99h-3.87v-24.34h3.87v8.83h5.46v3.51Z"/>
      <path class="cls-1" d="M296.31,26.84l8.12,7.17-2.59,2.31-6.95-6.28c-1.49,2.59-3.73,5.04-6.71,7.34l-2.73-2.27c4.97-3.97,7.56-8.27,7.84-12.88v-2.55h3.83v1.92c0,1.81-.25,3.55-.82,5.25ZM311.46,52.35h-3.87v-9.65h-14.9v-3.33h18.77v12.98ZM307.91,38.37v-20.51h3.87v20.51h-3.87Z"/>
      <path class="cls-1" d="M328.91,40.18v-3.05h-13.59v-3.37h31.15v3.37h-13.59v3.05h6.81v11.64h-17.67v-11.64h6.88ZM341.05,32.16h-20.36v-3.33h3.76v-1.17c0-.92-.07-1.67-.18-2.16-.14-.46-.32-.99-.6-1.6l3.48-1.06c.53.71.89,1.45,1.03,2.23.11.82.18,1.67.18,2.55v1.21h5.04v-6.35h-12.42v-3.33h19.8v3.33h-3.51v6.35h3.8v3.33ZM335.8,48.52v-5.04h-9.83v5.04h9.83Z"/>
      <path class="cls-1" d="M347.26,33.86h11.71v-6.81h4.01v6.81h15.43v3.37h-31.15v-3.37ZM371.91,19.28c0,2.73-.11,5.11-.28,7.17-.21,2.09-.46,3.94-.82,5.57h-3.83c.25-1.84.46-3.62.67-5.39.18-1.7.28-3.05.28-4.01h-14.72v-3.33h18.7ZM354.17,45.5c0-1.84.78-3.48,2.41-4.9,1.56-1.38,3.65-2.09,6.28-2.09s4.72.71,6.35,2.09c1.6,1.42,2.41,3.05,2.41,4.9s-.82,3.51-2.41,4.9c-1.63,1.42-3.76,2.09-6.35,2.09s-4.68-.67-6.28-2.09c-1.63-1.38-2.41-3.02-2.41-4.9ZM358.11,45.5c0,.96.43,1.81,1.28,2.52.82.78,1.99,1.14,3.48,1.14s2.7-.35,3.55-1.14c.85-.71,1.28-1.56,1.28-2.52s-.43-1.77-1.28-2.55c-.85-.71-2.06-1.1-3.55-1.1s-2.66.39-3.48,1.1c-.85.78-1.28,1.63-1.28,2.55Z"/>
      <path class="cls-1" d="M390.15,30.21l8.37,9.19-2.77,2.34-7.13-7.91c-1.56,2.98-3.8,5.71-6.71,8.23l-2.73-2.38c4.97-4.33,7.66-9.4,8.16-15.29v-3.09h3.87v1.99c-.04,2.41-.39,4.72-1.06,6.92ZM410.58,33.54h-5.61v17.21h-3.87V17.86h3.87v12.17h5.61v3.51Z"/>
    </g>
    <g>
      <path class="cls-1" d="M38.27,38.82c0,3.16-3.69,5.72-8.25,5.72s-8.25-2.56-8.25-5.72,3.7-5.72,8.25-5.72,8.25,2.56,8.25,5.72"/>
      <path class="cls-1" d="M36.75,32.42s12.53-.79,13.1,6.8c0,0-.02,14.55-30.68,17.09l17.09,13.93s28.53-12.23,21.85-30.34c0,0-3.44-8.96-21.36-7.48"/>
      <path class="cls-1" d="M23.36,45.67s-16.87.34-14.15-9.05c0,0,1.7-12.91,26.38-14.83,0,0,17.09-2.38,31.92,3.4L88.79,3.68S58.01-6.06,24.04,6.16C24.04,6.16,1.51,12.84.04,30.5c0,0-2.04,16.31,23.32,15.17"/>
    </g>
  </g>
</svg>