<?xml version="1.0" encoding="UTF-8"?>
<svg xmlns="http://www.w3.org/2000/svg" version="1.1" viewBox="0 0 32.8 32">
  <defs>
    <style>
      .cls-1 {
        fill: #2f5bc1;
      }

      .cls-2 {
        fill: #fff;
      }
    </style>
  </defs>
  <!-- Generator: Adobe Illustrator 28.6.0, SVG Export Plug-In . SVG Version: 1.2.0 Build 709)  -->
  <g>
    <g id="Layer_1">
      <path class="cls-1" d="M15.8,1h.8c8.3,0,15.1,6.8,15.1,15.1h0c0,8.3-6.8,15.1-15.1,15.1h-.8C7.5,31.2.8,24.4.8,16.1h0C.8,7.8,7.5,1,15.8,1Z"/>
      <path class="cls-2" d="M17.8,8.1c-.2,0-.5-.1-.7,0-.2,0-.5.2-.6.3l-3.3,3.3h-2.6c-.6,0-1.1.2-1.5.6-.4.4-.6,1-.6,1.5v4.4c0,.6.2,1.1.6,1.5.4.4,1,.6,1.5.6h2.6l3.3,3.3c.1.1.3.2.4.3.2,0,.3,0,.5,0,.2,0,.3,0,.5,0,.2,0,.4-.3.6-.5.1-.2.2-.4.2-.7v-13.5c0-.2,0-.5-.2-.7-.1-.2-.3-.4-.6-.5ZM17.1,22.2l-3.1-3.1c0,0-.1-.1-.2-.2,0,0-.2,0-.3,0h-2.9c-.2,0-.4,0-.5-.2-.1-.1-.2-.3-.2-.5v-4.4c0-.2,0-.4.2-.5.1-.1.3-.2.5-.2h2.9c0,0,.2,0,.3,0,0,0,.2,0,.2-.2l3.1-3.1v12.5Z"/>
      <path class="cls-2" d="M21.5,16c0,.2,0,.4.2.5.1.1.3.2.5.2h1.5c.2,0,.4,0,.5-.2.1-.1.2-.3.2-.5s0-.4-.2-.5c-.1-.1-.3-.2-.5-.2h-1.5c-.2,0-.4,0-.5.2-.1.1-.2.3-.2.5Z"/>
      <path class="cls-2" d="M21.7,11.1l-1.5,1.5c-.1.1-.2.3-.2.5s0,.4.2.5c.1.1.3.2.5.2s.4,0,.5-.2l1.5-1.5c.1-.1.2-.3.2-.5s0-.4-.2-.5c-.1-.1-.3-.2-.5-.2s-.4,0-.5.2Z"/>
      <path class="cls-2" d="M20.2,19.4l1.5,1.5c0,0,.1.1.2.2,0,0,.2,0,.3,0s.2,0,.3,0c0,0,.2,0,.2-.2,0,0,.1-.1.2-.2,0,0,0-.2,0-.3s0-.2,0-.3c0,0,0-.2-.2-.2l-1.5-1.5c-.1-.1-.3-.2-.5-.2s-.4,0-.5.2c-.1.1-.2.3-.2.5s0,.4.2.5Z"/>
    </g>
  </g>
</svg>