<svg width="20" height="20" viewBox="0 0 20 20" fill="none" xmlns="http://www.w3.org/2000/svg">
<g clip-path="url(#clip0_3363_6316)">
<path d="M19.6092 7.22168C19.8639 8.10448 19.9999 9.03476 19.9999 9.99958C19.9999 14.5603 16.95 18.4067 12.7778 19.6089C8.60768 18.4023 5.55566 14.5582 5.55566 9.99958H5.55782C5.55782 12.4537 7.54574 14.4416 9.99987 14.4416C14.5585 14.4416 18.4026 11.3918 19.607 7.22168H19.6092Z" fill="#D96500"/>
<path d="M12.7776 19.6078C11.8948 19.8647 10.9646 20.0006 9.99974 20.0006C5.44114 20.0006 1.59482 16.9508 0.392578 12.7807C1.59698 8.60845 5.44114 5.55859 9.99974 5.55859C7.54561 5.55859 5.5577 7.54651 5.5577 10.0006H5.55554C5.55554 14.5592 8.60756 18.4034 12.7776 19.6078Z" fill="#FFB376"/>
<path d="M7.21994 0.392578C11.3922 1.59698 14.442 5.44114 14.442 9.99974C14.442 7.54561 12.4541 5.5577 10 5.5577C5.4414 5.5577 1.59724 8.60756 0.392834 12.7798C0.135981 11.897 0 10.9646 0 9.99974C0 5.44114 3.04986 1.59482 7.21994 0.392578Z" fill="#FF8201"/>
<path d="M19.6089 7.2221C18.4045 11.3922 14.5603 14.442 10.0017 14.442C12.4559 14.442 14.4438 12.4541 14.4438 10C14.4438 5.4414 11.3939 1.59724 7.22168 0.392834C8.10448 0.135981 9.03692 0 10.0017 0C14.5625 0 18.4088 3.04986 19.6111 7.2221H19.6089Z" fill="#CF9421"/>
</g>
<defs>
<clipPath id="clip0_3363_6316">
<rect width="20" height="20" fill="white"/>
</clipPath>
</defs>
</svg>
