<svg width="20" height="18" viewBox="0 0 20 18" fill="none" xmlns="http://www.w3.org/2000/svg">
<g clip-path="url(#clip0_2563_5983)">
<path d="M15.25 16.365H4.75C4.54 16.365 4.3625 16.2925 4.2175 16.1475C4.0725 16.0025 4 15.825 4 15.615V8.86499H1.75L9.49 1.82999C9.64 1.69999 9.81 1.63499 10 1.63499C10.19 1.63499 10.36 1.69999 10.51 1.82999L18.25 8.86499H16V15.615C16 15.825 15.9275 16.0025 15.7825 16.1475C15.6375 16.2925 15.46 16.365 15.25 16.365ZM5.5 14.865H14.5V7.48499L10 3.38999L5.5 7.48499V14.865ZM7 11.865H13V13.365H7V11.865Z" fill="#555555"/>
</g>
<defs>
<clipPath id="clip0_2563_5983">
<rect width="20" height="18" fill="white"/>
</clipPath>
</defs>
</svg>
