<svg width="920" height="110" viewBox="0 0 920 110" fill="none" xmlns="http://www.w3.org/2000/svg">
<path d="M0 0H890C906.569 0 920 13.4315 920 30V110H30C13.4315 110 0 96.5685 0 80V0Z" fill="#E4F2FF"/>
<path d="M33 57.426V37.4361C33 26.5083 38.7748 21 50.4134 21H53.1675V30.4174H50.3245C46.4154 30.4174 44.5497 32.6385 44.5497 36.903V37.8803H53.1675V57.426H33ZM76.8 30.4174H73.957C70.0479 30.4174 68.1821 32.6385 68.1821 36.903V37.8803H76.8V57.426H56.6325V37.4361C56.6325 26.5083 62.4073 21 74.0458 21H76.8V30.4174Z" fill="white"/>
<path d="M886.8 57.426V37.4361C886.8 26.5083 881.025 21 869.387 21H866.633V30.4174H869.476C873.385 30.4174 875.25 32.6385 875.25 36.903V37.8803H866.633V57.426H886.8ZM843 30.4174H845.843C849.752 30.4174 851.618 32.6385 851.618 36.903V37.8803H843V57.426H863.168V37.4361C863.168 26.5083 857.393 21 845.754 21H843V30.4174Z" fill="white"/>
</svg>
