<svg width="652" height="630" viewBox="0 0 652 630" fill="none" xmlns="http://www.w3.org/2000/svg">
<path d="M523 286C523 399.218 430.099 491 315.5 491C200.901 491 108 399.218 108 286C108 172.782 200.901 81 315.5 81C430.099 81 523 172.782 523 286Z" fill="#2292E9" fill-opacity="0.04"/>
<ellipse cx="315.5" cy="286" rx="174.5" ry="173" fill="#2292E9" fill-opacity="0.06"/>
<ellipse cx="317" cy="285.5" rx="138" ry="138.5" fill="#2292E9" fill-opacity="0.2"/>
<circle cx="316" cy="286" r="106" fill="white"/>
<path d="M363.591 276.716H367.191V282.512H363.591V288.92H357.507V272H363.591V276.716ZM345.591 282.908C343.035 286.292 339.219 288.524 334.719 288.776V283.34C339.579 282.764 342.783 278.264 342.891 272.144L349.011 272.504C349.011 274.52 348.687 276.464 348.039 278.3L356.391 283.592L353.295 287.984L345.591 282.908ZM350.019 289.352C357.759 289.352 363.879 291.116 363.879 296.228C363.879 301.34 357.759 303.104 350.019 303.104C342.279 303.104 336.159 301.34 336.159 296.228C336.159 291.116 342.279 289.352 350.019 289.352ZM350.019 298.244C354.087 298.244 357.327 297.704 357.327 296.228C357.327 294.788 354.087 294.212 350.019 294.212C345.951 294.212 342.711 294.788 342.711 296.228C342.711 297.704 345.951 298.244 350.019 298.244Z" fill="#2F5BC1"/>
<path d="M325.362 272H331.05V302.744H325.362V289.064H322.806V302.204H317.19V298.568L313.086 300.836L309.126 293.636C307.326 298.568 304.41 301.16 300.45 301.304V295.364C303.546 294.932 305.454 288.488 305.562 278.228H300.99V272.72H315.57V278.228H311.322C311.286 280.964 311.142 283.484 310.89 285.752L317.19 296.66V272.144H322.806V283.304H325.362V272Z" fill="#2F5BC1"/>
<path d="M295.917 272V294.752H289.833V272H295.917ZM276.189 272.036C282.201 272.036 286.305 275.708 286.305 281.252C286.305 286.832 282.201 290.468 276.189 290.468C270.177 290.468 266.073 286.832 266.073 281.252C266.073 275.708 270.177 272.036 276.189 272.036ZM276.189 277.112C273.849 277.112 272.121 278.588 272.121 281.252C272.121 283.916 273.849 285.392 276.189 285.392C278.529 285.392 280.257 283.916 280.257 281.252C280.257 278.588 278.529 277.112 276.189 277.112ZM274.965 291.98V297.272H296.349V302.744H268.773V291.98H274.965Z" fill="#2F5BC1"/>
<circle cx="95.5" cy="453.5" r="95.5" fill="#FBF0F2"/>
<path d="M46.9023 427.587L54.8922 409.242H134.783L143.069 427.587H46.9023Z" stroke="#D61846" stroke-width="2.49295" stroke-miterlimit="10"/>
<path d="M46.5425 428.295C46.5472 428.548 46.5674 428.805 46.6064 429.068C47.1283 432.708 50.5172 435.132 53.7082 435.578C54.1008 435.634 54.4965 435.657 54.8923 435.657C55.2787 435.656 55.6636 435.629 56.0437 435.578C58.6613 435.224 61.053 433.73 61.9941 431.731C62.3057 431.072 62.4444 430.385 62.502 429.766V429.76C62.555 429.191 62.541 428.679 62.5285 428.295C62.5145 427.865 62.502 427.599 62.5862 427.588H62.5908C62.6734 427.588 62.7155 427.855 62.77 428.295C62.7825 428.397 62.7965 428.506 62.8105 428.624C62.9804 430.017 63.3341 432.498 64.9545 434.098C67.449 436.566 72.7449 436.751 75.6072 434.394C77.7651 432.621 78.245 429.648 78.6766 428.295C78.7981 427.915 78.915 427.664 79.063 427.604C79.0817 427.596 79.1004 427.59 79.1207 427.59C79.1331 427.588 79.1456 427.588 79.1581 427.59C79.3435 427.608 79.4245 427.873 79.4821 428.297C79.6489 429.515 79.6068 432.051 81.2288 433.803C83.0439 435.765 86.6229 436.401 89.2187 435.284C92.4205 433.905 93.5642 430.109 94.5442 429.043C94.7421 428.825 94.9353 428.721 95.1363 428.774C95.9699 428.992 95.1986 431.448 96.6165 433.509C98.4597 436.19 103.383 437.293 106.381 435.58C109.251 433.94 109.983 429.928 110.585 428.297C110.683 428.031 110.778 427.828 110.879 427.71C110.938 427.638 111.001 427.596 111.066 427.591C111.083 427.587 111.099 427.59 111.116 427.591C111.297 427.619 111.367 427.883 111.407 428.299C111.517 429.453 111.406 431.787 112.891 433.51C114.711 435.619 117.88 435.592 119.104 435.581C119.38 435.58 125.248 435.46 126.798 432.03C127.071 431.429 127.18 430.787 127.193 430.167M127.193 430.167C127.207 429.495 127.108 428.85 126.982 428.299C126.923 428.038 126.854 427.8 126.791 427.591C126.677 427.222 126.572 426.946 126.526 426.806M127.193 430.167C126.984 429.489 126.842 428.842 126.744 428.299C126.699 428.037 126.658 427.798 126.63 427.591C126.577 427.22 126.549 426.946 126.526 426.806M127.193 430.167C127.68 431.764 128.532 433.551 130.053 434.693C130.538 435.059 131.091 435.357 131.684 435.581C132.549 435.911 133.507 436.091 134.492 436.108C136.212 436.142 138.006 435.689 139.522 434.695C142.192 432.942 142.935 430.214 143.073 429.665C143.186 429.215 143.26 428.758 143.294 428.3M126.526 426.806C126.502 426.741 126.493 426.705 126.501 426.703C126.509 426.703 126.518 426.737 126.526 426.806Z" stroke="#D61846" stroke-width="2.49295" stroke-miterlimit="10"/>
<path d="M68.2078 408.652L62.2886 430.55" stroke="#D61846" stroke-width="2.49295" stroke-miterlimit="10"/>
<path d="M81.2272 408.652L78.8589 429.366" stroke="#D61846" stroke-width="2.49295" stroke-miterlimit="10"/>
<path d="M94.5425 408.652V429.366" stroke="#D61846" stroke-width="2.49295" stroke-miterlimit="10"/>
<path d="M108.153 408.652L111.113 429.366" stroke="#D61846" stroke-width="2.49295" stroke-miterlimit="10"/>
<path d="M121.468 408.652L127.091 427.885" stroke="#D61846" stroke-width="2.49295" stroke-miterlimit="10"/>
<path d="M56.1137 435.574H52.8589V468.419H56.1137V435.574Z" fill="#D61846"/>
<path d="M137.689 435.574H134.435V468.419H137.689V435.574Z" fill="#D61846"/>
<path d="M59.8923 473.574H129.192C133.023 473.574 136.135 476.686 136.135 480.517V506.356H52.9495V480.517C52.9495 476.686 56.061 473.574 59.8923 473.574Z" fill="#D61846"/>
<path d="M95.5775 465.412C95.5199 464.961 95.389 463.797 96.0714 462.65C96.1228 462.564 97.1808 460.829 98.3899 460.973C99.1424 461.064 99.2624 461.801 100.018 461.812C100.775 461.823 100.979 461.087 101.744 461.072C102.531 461.056 103.133 461.816 103.323 462.058C104.351 463.359 103.966 465.104 103.865 465.559C103.751 466.076 103.44 467.488 102.139 468.42C100.78 469.393 98.7264 469.565 97.2556 468.518C95.8455 467.514 95.6367 465.866 95.5791 465.411L95.5775 465.412Z" fill="#D61846"/>
<path d="M96.3676 457.523C96.1977 457.764 96.3785 458.155 96.5654 458.559C96.6215 458.68 97.2401 459.973 98.242 460.039C98.8169 460.076 99.1441 459.684 99.4261 459.891C99.5944 460.016 99.6068 460.251 99.624 460.679C99.6598 461.616 99.3825 462.088 99.624 462.307C99.744 462.415 99.9668 462.44 100.118 462.357C100.632 462.075 100.327 460.553 100.068 459.743C99.8702 459.121 99.7408 458.719 99.3778 458.313C98.4507 457.276 96.7166 457.027 96.3691 457.524L96.3676 457.523Z" fill="#D61846"/>
<path d="M96.8115 457.818C97.1325 457.824 98.2902 457.882 99.0302 458.754C99.1814 458.934 99.2936 459.119 99.3761 459.297L96.8115 457.816V457.818Z" fill="#D61846"/>
<path d="M96.947 458.241C97.1465 458.188 97.3786 458.141 97.6404 458.111C97.9582 458.075 98.2434 458.077 98.4817 458.093L96.947 458.241Z" fill="#D61846"/>
<path d="M106.447 465.412C106.389 464.961 106.258 463.797 106.941 462.65C106.992 462.564 108.05 460.829 109.259 460.973C110.012 461.064 110.132 461.801 110.887 461.812C111.644 461.823 111.849 461.087 112.614 461.072C113.4 461.056 114.002 461.816 114.192 462.058C115.22 463.359 114.835 465.104 114.734 465.559C114.62 466.076 114.309 467.488 113.008 468.42C111.649 469.393 109.596 469.565 108.125 468.518C106.715 467.514 106.506 465.866 106.448 465.411L106.447 465.412Z" fill="#D61846"/>
<path d="M107.237 457.523C107.067 457.764 107.248 458.155 107.435 458.559C107.491 458.68 108.109 459.973 109.111 460.039C109.686 460.076 110.013 459.684 110.295 459.891C110.464 460.016 110.476 460.251 110.493 460.679C110.529 461.616 110.252 462.088 110.493 462.307C110.613 462.415 110.836 462.44 110.987 462.357C111.501 462.075 111.196 460.553 110.937 459.743C110.739 459.121 110.61 458.719 110.247 458.313C109.32 457.276 107.586 457.027 107.238 457.524L107.237 457.523Z" fill="#D61846"/>
<path d="M107.679 457.818C108 457.824 109.158 457.882 109.898 458.754C110.049 458.934 110.161 459.119 110.244 459.297L107.679 457.816V457.818Z" fill="#D61846"/>
<path d="M107.815 458.241C108.014 458.188 108.246 458.141 108.508 458.111C108.826 458.075 109.111 458.077 109.349 458.093L107.815 458.241Z" fill="#D61846"/>
<path d="M116.73 465.412C116.673 464.961 116.542 463.797 117.224 462.65C117.276 462.564 118.334 460.829 119.543 460.973C120.295 461.064 120.415 461.801 121.171 461.812C121.928 461.823 122.132 461.087 122.897 461.072C123.684 461.056 124.286 461.816 124.476 462.058C125.504 463.359 125.119 465.104 125.018 465.559C124.904 466.076 124.592 467.488 123.291 468.42C121.933 469.393 119.879 469.565 118.408 468.518C116.998 467.514 116.79 465.866 116.732 465.411L116.73 465.412Z" fill="#D61846"/>
<path d="M117.519 457.523C117.349 457.764 117.53 458.155 117.717 458.559C117.773 458.68 118.391 459.973 119.393 460.039C119.968 460.076 120.295 459.684 120.577 459.891C120.746 460.016 120.758 460.251 120.775 460.679C120.811 461.616 120.534 462.088 120.775 462.307C120.895 462.415 121.118 462.44 121.269 462.357C121.783 462.075 121.478 460.553 121.219 459.743C121.022 459.121 120.892 458.719 120.529 458.313C119.602 457.276 117.868 457.027 117.52 457.524L117.519 457.523Z" fill="#D61846"/>
<path d="M117.963 457.818C118.284 457.824 119.442 457.882 120.182 458.754C120.333 458.934 120.445 459.119 120.528 459.297L117.963 457.816V457.818Z" fill="#D61846"/>
<path d="M118.098 458.241C118.298 458.188 118.53 458.141 118.792 458.111C119.11 458.075 119.395 458.077 119.633 458.093L118.098 458.241Z" fill="#D61846"/>
<path d="M110.691 453.063C110.634 452.611 110.503 451.447 111.185 450.302C111.237 450.217 112.295 448.481 113.504 448.626C114.256 448.716 114.376 449.453 115.132 449.464C115.889 449.475 116.093 448.74 116.858 448.724C117.645 448.708 118.246 449.469 118.437 449.71C119.465 451.011 119.08 452.756 118.979 453.211C118.865 453.729 118.553 455.14 117.252 456.072C115.894 457.046 113.84 457.217 112.369 456.17C110.959 455.167 110.75 453.518 110.693 453.063H110.691Z" fill="#D61846"/>
<path d="M111.481 445.171C111.311 445.413 111.492 445.804 111.679 446.207C111.735 446.329 112.354 447.622 113.355 447.687C113.93 447.725 114.258 447.332 114.54 447.539C114.708 447.664 114.72 447.899 114.738 448.328C114.773 449.264 114.496 449.738 114.738 449.956C114.857 450.063 115.08 450.088 115.231 450.006C115.746 449.724 115.44 448.201 115.182 447.391C114.984 446.77 114.854 446.368 114.491 445.961C113.564 444.925 111.83 444.676 111.483 445.173L111.481 445.171Z" fill="#D61846"/>
<path d="M111.924 445.466C112.245 445.473 113.402 445.53 114.142 446.403C114.293 446.582 114.406 446.767 114.488 446.945L111.924 445.465V445.466Z" fill="#D61846"/>
<path d="M112.061 445.889C112.26 445.836 112.492 445.789 112.754 445.76C113.072 445.724 113.357 445.725 113.595 445.741L112.061 445.889Z" fill="#D61846"/>
<path d="M99.2611 453.063C99.2035 452.611 99.0726 451.447 99.755 450.302C99.8064 450.217 100.864 448.481 102.073 448.626C102.826 448.716 102.946 449.453 103.702 449.464C104.459 449.475 104.663 448.74 105.428 448.724C106.215 448.708 106.816 449.469 107.006 449.71C108.035 451.011 107.65 452.756 107.549 453.211C107.435 453.729 107.123 455.14 105.822 456.072C104.464 457.046 102.41 457.217 100.939 456.17C99.5291 455.167 99.3203 453.518 99.2627 453.063H99.2611Z" fill="#D61846"/>
<path d="M100.051 445.171C99.8811 445.413 100.062 445.804 100.249 446.207C100.305 446.329 100.923 447.622 101.925 447.687C102.5 447.725 102.827 447.332 103.109 447.539C103.278 447.664 103.29 447.899 103.307 448.328C103.343 449.264 103.066 449.738 103.307 449.956C103.427 450.063 103.65 450.088 103.801 450.006C104.315 449.724 104.01 448.201 103.751 447.391C103.554 446.77 103.424 446.368 103.061 445.961C102.134 444.925 100.401 444.676 100.052 445.173L100.051 445.171Z" fill="#D61846"/>
<path d="M100.495 445.466C100.816 445.473 101.974 445.53 102.714 446.403C102.865 446.582 102.977 446.767 103.06 446.945L100.495 445.465V445.466Z" fill="#D61846"/>
<path d="M100.63 445.889C100.83 445.836 101.062 445.789 101.324 445.76C101.642 445.724 101.927 445.725 102.165 445.741L100.63 445.889Z" fill="#D61846"/>
<path d="M97.2059 466.132C96.0669 465.395 95.9516 463.759 96.9753 462.864C97.2869 462.588 97.6827 462.406 98.094 462.359C97.7076 462.489 97.3586 462.699 97.0859 462.979C96.1931 463.886 96.3053 465.268 97.2059 466.132Z" fill="#D61846"/>
<path d="M102.827 454.516C102.039 454.449 101.252 453.854 101.163 453.031C101.09 452.297 101.567 451.595 102.204 451.269C102.509 451.11 102.854 451.029 103.197 451.04C103.14 451.051 103.086 451.059 103.031 451.073C102.657 451.154 102.297 451.327 102.011 451.579C101.536 451.989 101.221 452.659 101.416 453.281C101.612 453.913 102.209 454.34 102.827 454.518V454.516Z" fill="#D61846"/>
<path d="M113.554 454.592C112.768 454.561 111.989 454.026 111.796 453.243C111.567 452.344 112.123 451.378 112.947 451.007C113.049 450.962 113.152 450.923 113.257 450.895C112.866 451.089 112.531 451.373 112.298 451.722C111.48 452.967 112.168 454.262 113.554 454.593V454.592Z" fill="#D61846"/>
<path d="M119.473 462.578C118.779 462.281 118.215 462.365 117.997 463.159C117.91 463.47 117.885 463.795 117.874 464.118C117.83 464.887 117.986 465.64 118.288 466.352C117.852 465.701 117.642 464.898 117.673 464.113C117.679 463.772 117.707 463.434 117.812 463.103C118.075 462.257 118.768 462.103 119.473 462.578Z" fill="#D61846"/>
<path d="M108.935 466.747C108.083 466.693 107.318 466.063 107.192 465.2C107.126 464.781 107.206 464.346 107.368 463.958C107.622 463.324 108.163 462.665 108.906 462.696C109.188 462.707 109.456 462.815 109.674 462.975C109.436 462.855 109.171 462.779 108.906 462.796C108.228 462.829 107.782 463.45 107.553 464.035C107.306 464.628 107.274 465.342 107.645 465.892C107.932 466.341 108.421 466.629 108.934 466.749L108.935 466.747Z" fill="#D61846"/>
<path d="M76.0109 450.285C78.9728 450.285 81.3739 447.883 81.3739 444.922C81.3739 441.96 78.9728 439.559 76.0109 439.559C73.049 439.559 70.6479 441.96 70.6479 444.922C70.6479 447.883 73.049 450.285 76.0109 450.285Z" fill="#D61846"/>
<path d="M80.3394 452H71.3149V458.56H80.3394V452Z" fill="#D61846"/>
<path d="M67.7391 452.738H68.6506V468.42H64.8784V455.599C64.8784 454.021 66.1607 452.738 67.7391 452.738Z" fill="#D61846"/>
<path d="M86.8477 468.422H83.0755V452.74H83.987C85.5653 452.74 86.8477 454.022 86.8477 455.6V468.422Z" fill="#D61846"/>
<path d="M171.769 617.933V621.929H150.736V606.539H171.499V610.535H155.245V612.344H171.121V616.124H155.245V617.933H171.769ZM149.44 624.062H172.768V628.247H149.44V624.062Z" fill="#CD3459"/>
<path d="M134.7 614.774C132.027 618.392 128.058 620.687 123.657 620.714V616.394C128.247 616.367 132.513 612.101 133.35 605.918L137.994 606.647C137.778 608.267 137.346 609.779 136.725 611.21L146.553 617.123L144.15 620.822L134.7 614.774ZM123.198 628.247V623.981H146.526V628.247H123.198Z" fill="#CD3459"/>
<path d="M119.259 606V629.058H114.696V606H119.259ZM111.348 606.54V619.23H102.519V623.874H107.514C109.701 623.874 112.077 623.415 113.481 622.767V626.871C112.077 627.573 109.62 627.978 107.325 627.978H97.9827V615.18H106.812V610.644H97.9287V606.54H111.348Z" fill="#CD3459"/>
<path d="M78.6261 613.965C76.7361 616.233 73.9551 617.772 70.6611 617.961V613.965C74.2521 613.533 76.6281 610.185 76.7091 606.108L81.2991 606.378C81.2991 607.89 81.0291 609.348 80.5161 610.698L84.9441 613.641V611.589H88.6431V610.482H84.9441V607.026H88.6431V606H93.1251V617.718H88.6431V615.045H86.1051L83.9991 617.664L78.6261 613.965ZM77.0331 626.007H93.3681V629.058H72.5241V622.443H88.6161V621.579H72.4701V618.528H93.1251V625.143H77.0331V626.007Z" fill="#CD3459"/>
<path d="M63.2923 606H67.4233V629.058H63.2923V606ZM57.8113 614.478V606.108H61.8883V628.653H57.8113V618.798H56.1373V614.478H57.8113ZM55.0573 610.536V623.658C55.7053 623.523 56.2723 623.361 56.7583 623.172V627.114C55.3813 627.735 53.1943 627.978 51.1693 627.978H44.3113V623.982H45.5803V610.536H44.5003V606.54H56.1913V610.536H55.0573ZM49.5763 610.536V623.982H51.0613V610.536H49.5763Z" fill="#CD3459"/>
<path d="M29.7337 614.774C27.0607 618.392 23.0917 620.687 18.6907 620.714V616.394C23.2807 616.367 27.5467 612.101 28.3837 605.918L33.0277 606.647C32.8117 608.267 32.3797 609.779 31.7587 611.21L41.5867 617.123L39.1837 620.822L29.7337 614.774ZM18.2317 628.247V623.981H41.5597V628.247H18.2317Z" fill="#CD3459"/>
<path d="M144.853 574.537H147.553V578.884H144.853V583.69H140.29V571H144.853V574.537ZM131.407 579.748C129.625 581.881 126.817 583.474 123.469 583.555V579.559C126.439 579.397 128.41 577.237 128.869 575.05H123.793V571.27H138.481V575.05H133.486C133.459 575.482 133.351 575.914 133.243 576.346L139.291 579.694L137.158 583.069L131.407 579.748ZM134.674 584.014C140.479 584.014 145.068 585.337 145.068 589.171C145.068 593.005 140.479 594.328 134.674 594.328C128.869 594.328 124.279 593.005 124.279 589.171C124.279 585.337 128.869 584.014 134.674 584.014ZM134.674 590.683C137.725 590.683 140.155 590.278 140.155 589.171C140.155 588.091 137.725 587.659 134.674 587.659C131.623 587.659 129.193 588.091 129.193 589.171C129.193 590.278 131.623 590.683 134.674 590.683Z" fill="#CD3459"/>
<path d="M114.696 571H119.259V594.058H114.696V571ZM108.135 571.621C108.135 575.05 107.811 578.128 107.244 580.801L114.075 590.305L110.376 592.951L105.624 586.066C103.68 590.494 100.71 592.951 97.1729 592.978V588.28C100.872 587.848 103.464 581.098 103.491 571.459L108.135 571.621Z" fill="#CD3459"/>
<path d="M89.3991 571H93.6651V594.058H89.3991V583.798H87.4821V593.653H83.2701V571.108H87.4821V579.478H89.3991V571ZM71.1201 592.978V571.54H81.5961V592.978H71.1201ZM75.3591 575.671V588.847H77.3841V575.671H75.3591Z" fill="#CD3459"/>
<path d="M58.4864 589.008H67.8014V593.247H44.4734V589.008H53.8424V585.201H45.7424V571.539H66.5324V575.778H50.4134V580.989H66.8024V585.201H58.4864V589.008Z" fill="#CD3459"/>
<circle cx="556.5" cy="97.5" r="95.5" fill="#D2F3EF"/>
<g clip-path="url(#clip0_3198_15545)">
<path d="M601.63 95.3711H598.273V98.7279H601.63V95.3711Z" fill="#1B6E73"/>
<path d="M601.63 102.082H598.273V105.439H601.63V102.082Z" fill="#1B6E73"/>
<path d="M605 98.7266H601.643V102.083H605V98.7266Z" fill="#1B6E73"/>
<path d="M598.273 98.7266H594.916V102.083H598.273V98.7266Z" fill="#1B6E73"/>
<path d="M513.714 120.68H510.357V124.036H513.714V120.68Z" fill="#1B6E73"/>
<path d="M513.714 127.391H510.357V130.747H513.714V127.391Z" fill="#1B6E73"/>
<path d="M517.084 124.035H513.727V127.392H517.084V124.035Z" fill="#1B6E73"/>
<path d="M510.357 124.035H507V127.392H510.357V124.035Z" fill="#1B6E73"/>
<path d="M584.113 102.455C584.113 97.3396 579.944 93.1836 574.842 93.1836C569.74 93.1836 565.571 97.353 565.571 102.455V108.369H584.127V102.455H584.113Z" fill="#1B6E73"/>
<path d="M574.842 91.4364C577.133 91.4364 579.012 89.5582 579.012 87.267C579.012 84.9759 577.133 83.0977 574.842 83.0977C572.551 83.0977 570.673 84.9759 570.673 87.267C570.673 89.5582 572.551 91.4364 574.842 91.4364Z" fill="#1B6E73"/>
<path d="M541.221 91.4364C543.512 91.4364 545.39 89.5582 545.39 87.267C545.39 84.9759 543.512 83.0977 541.221 83.0977C538.93 83.0977 537.052 84.9759 537.052 87.267C537.052 89.5582 538.93 91.4364 541.221 91.4364Z" fill="#1B6E73"/>
<path d="M536.252 133.516H589.228V109.992H527.114V118.464H556.553C556.953 118.464 557.365 118.864 557.365 119.277C557.365 119.69 556.966 120.089 556.553 120.089H526.968V148.729H574.829C575.228 148.729 575.641 149.128 575.641 149.541C575.641 149.954 575.242 150.354 574.829 150.354H526.968V158.826H589.215V135.168H536.252C535.853 135.168 535.44 134.769 535.44 134.356C535.44 133.943 535.706 133.543 536.252 133.543V133.516Z" fill="#1B6E73"/>
<path d="M550.505 102.455C550.505 97.3396 546.336 93.1836 541.234 93.1836C536.132 93.1836 531.963 97.353 531.963 102.455V108.369H550.519V102.455H550.505Z" fill="#1B6E73"/>
<path d="M545.922 52.6754H549.239V77.4252C549.239 77.7449 549.559 78.0646 549.879 78.0646C550.198 78.0646 550.518 77.7449 550.518 77.4252V52.0361C550.518 51.7164 550.198 51.3967 549.879 51.3967H547.308L556.632 39.7145L565.957 51.3967H563.386C563.066 51.3967 562.746 51.7164 562.746 52.0361V72.0703C562.746 72.39 563.066 72.7097 563.386 72.7097C563.705 72.7097 564.025 72.39 564.025 72.0703V52.6754H567.342C567.555 52.6754 567.875 52.5689 567.981 52.2492C568.088 52.0361 568.088 51.7164 567.875 51.5032L557.178 38.2092C557.072 38.1027 556.859 37.9961 556.646 37.9961C556.432 37.9961 556.219 38.1027 556.113 38.2092L545.403 51.6098C545.19 51.8229 545.19 52.0361 545.296 52.3558C545.403 52.4623 545.723 52.6754 545.936 52.6754H545.922Z" fill="#1B6E73"/>
<path d="M527.167 61.9974H529.525V86.7471C529.525 87.0668 529.845 87.3865 530.164 87.3865C530.484 87.3865 530.804 87.0668 530.804 86.7471V61.3446C530.804 61.025 530.484 60.7053 530.164 60.7053H528.339L535.2 49.2362L542.06 60.7053H540.235C539.915 60.7053 539.595 61.025 539.595 61.3446V81.4855C539.595 81.8052 539.915 82.1249 540.235 82.1249C540.554 82.1249 540.874 81.8052 540.874 81.4855V61.984H543.232C543.445 61.984 543.658 61.8775 543.765 61.6643C543.871 61.4512 543.871 61.2381 543.765 61.025L535.732 47.6244C535.626 47.4113 535.413 47.3047 535.2 47.3047C534.986 47.3047 534.773 47.4113 534.667 47.6244L526.634 61.025C526.528 61.2381 526.528 61.4512 526.634 61.6643C526.741 61.8775 526.954 61.984 527.167 61.984V61.9974Z" fill="#1B6E73"/>
<path d="M570.033 62.002H572.391V81.3968C572.391 81.7165 572.71 82.0362 573.03 82.0362C573.35 82.0362 573.669 81.7165 573.669 81.3968V61.3626C573.669 61.0429 573.35 60.7232 573.03 60.7232H571.205L578.065 49.2541L584.925 60.7232H583.1C582.781 60.7232 582.461 61.0429 582.461 61.3626V86.8716C582.461 87.1913 582.781 87.511 583.1 87.511C583.42 87.511 583.74 87.1913 583.74 86.8716V62.0153H586.098C586.311 62.0153 586.524 61.9087 586.63 61.6956C586.737 61.4825 586.737 61.2693 586.63 61.0562L578.598 47.6556C578.492 47.4425 578.278 47.3359 578.065 47.3359C577.852 47.3359 577.639 47.4425 577.532 47.6556L569.5 61.0562C569.394 61.2693 569.394 61.4825 569.5 61.6956C569.607 61.9087 569.82 62.0153 570.033 62.0153V62.002Z" fill="#1B6E73"/>
<path d="M540.568 45.9188C542.393 45.9188 543.885 44.4136 543.885 42.602C543.885 40.7904 542.379 39.2852 540.568 39.2852C538.756 39.2852 537.251 40.7904 537.251 42.602C537.251 44.4136 538.756 45.9188 540.568 45.9188Z" fill="#1B6E73"/>
<path d="M584.819 45.9188C586.644 45.9188 588.136 44.4136 588.136 42.602C588.136 40.7904 586.631 39.2852 584.819 39.2852C583.007 39.2852 581.502 40.7904 581.502 42.602C581.502 44.4136 582.901 45.9188 584.819 45.9188Z" fill="#1B6E73"/>
<path d="M555.993 60.0663V74.8522C555.993 75.1719 556.313 75.4916 556.633 75.4916C556.952 75.4916 557.272 75.1719 557.272 74.8522V60.0663C557.272 59.7466 556.952 59.4269 556.633 59.4269C556.313 59.3203 555.993 59.64 555.993 60.0663Z" fill="#1B6E73"/>
<path d="M577.426 69.3933V84.1792C577.426 84.4989 577.746 84.8186 578.065 84.8186C578.385 84.8186 578.705 84.4989 578.705 84.1792V69.3933C578.705 69.0736 578.385 68.7539 578.065 68.7539C577.746 68.7539 577.426 69.0736 577.426 69.3933Z" fill="#1B6E73"/>
<path d="M534.56 68.112V82.7914C534.56 83.1111 534.88 83.4308 535.199 83.4308C535.519 83.4308 535.839 83.1111 535.839 82.7914V68.112C535.839 67.7924 535.519 67.4727 535.199 67.4727C534.88 67.4727 534.56 67.6858 534.56 68.112Z" fill="#1B6E73"/>
</g>
<path d="M632.665 214.16H637.228V237.218H632.665V225.824H625.537V221.423H632.665V214.16ZM620.434 231.953H624.673C626.86 231.953 629.236 231.548 630.64 230.9V235.031C629.236 235.733 626.752 236.138 624.538 236.138H615.736V214.565H620.434V231.953Z" fill="#1B6E73"/>
<path d="M610.905 226.097V230.093H589.872V214.703H610.635V218.699H594.381V220.508H610.257V224.288H594.381V226.097H610.905ZM588.576 232.226H611.904V236.411H588.576V232.226Z" fill="#1B6E73"/>
<path d="M586.689 222.584V227.012H583.989V237.218H579.426V214.16H583.989V222.584H586.689ZM575.754 218.831V231.71C576.753 231.521 577.671 231.278 578.346 230.954V235.031C576.942 235.733 574.404 236.138 572.19 236.138H562.551V232.007H564.441V218.831H562.713V214.7H577.482V218.831H575.754ZM568.923 218.831V232.007H571.272V218.831H568.923Z" fill="#1B6E73"/>
<path d="M546.076 214.16H550.639V228.146H546.076V222.854H543.025V218.939H546.076V214.16ZM536.437 223.853C534.655 226.121 531.928 227.741 528.661 227.822V223.718C531.766 223.502 533.71 220.964 534.088 218.264H528.985V214.43H543.673V218.264H538.705C538.651 218.966 538.516 219.641 538.3 220.316L544.591 224.339L542.188 227.633L536.437 223.853ZM529.903 232.871V228.956H550.639V237.488H545.995V232.871H529.903Z" fill="#1B6E73"/>
<path d="M517.863 216.16V220.048H502.095V216.16H507.603V214H512.301V216.16H517.863ZM519.807 214.162H524.37V237.22H519.807V214.162ZM512.247 232.117H512.517C514.65 232.117 517.053 231.847 518.484 231.199V235.222C517.053 235.87 514.731 236.14 512.436 236.14H502.014V232.117H507.684V230.173C504.849 229.633 502.959 228.067 502.959 225.556C502.959 222.424 505.929 220.75 510.006 220.75C514.083 220.75 517.053 222.424 517.053 225.556C517.053 228.094 515.136 229.66 512.247 230.173V232.117ZM507.225 225.556C507.225 226.366 508.359 226.771 510.006 226.771C511.653 226.771 512.787 226.366 512.787 225.556C512.787 224.746 511.653 224.341 510.006 224.341C508.359 224.341 507.225 224.746 507.225 225.556Z" fill="#1B6E73"/>
<path d="M500.126 222.584V227.012H497.426V237.218H492.863V214.16H497.426V222.584H500.126ZM486.599 214.781C486.599 218.264 486.275 221.396 485.708 224.096L492.377 233.492L488.651 236.111L484.061 229.388C482.171 233.708 479.282 236.111 475.772 236.138V231.44C479.471 231.008 481.928 224.258 481.955 214.619L486.599 214.781Z" fill="#1B6E73"/>
<circle cx="95.5" cy="95.5" r="95.5" fill="#E3F0FF"/>
<g clip-path="url(#clip1_3198_15545)">
<path d="M67.1751 82.3711C56.1939 82.3711 47.2024 91.3626 47.2024 102.344V122.316H53.0043V111.791C53.0043 111.335 53.46 110.88 53.9156 110.88C54.3713 110.88 54.8269 111.335 54.8269 111.791V139.403H66.2638V123.395C66.2638 122.939 66.7194 122.483 67.1751 122.483C67.6307 122.483 68.0864 122.939 68.0864 123.395V139.555H79.5232V123.395V111.958C79.5232 111.502 79.9788 111.047 80.4345 111.047C80.8901 111.047 81.3458 111.502 81.3458 111.958V122.483H87.1477V102.511C87.1477 91.3778 78.1562 82.3711 67.1599 82.3711H67.1751ZM69.1647 111.958H65.3525V108.146H69.1647V111.958ZM69.1647 104.333H65.3525V100.521H69.1647V104.333ZM69.1647 96.7089H65.3525V92.8966H69.1647V96.7089Z" fill="#2366B0"/>
<path d="M67.175 80.5287C71.8986 80.5287 75.7108 76.7164 75.7108 71.9929C75.7108 67.2693 71.8986 63.457 67.175 63.457C62.4514 63.457 58.6392 67.2693 58.6392 71.9929C58.6392 76.7164 62.4514 80.5287 67.175 80.5287Z" fill="#2366B0"/>
<path d="M94.0432 53.8438V78.7071H108.685C108.989 78.7071 109.292 78.8589 109.444 79.0108C109.596 79.3146 109.748 79.6184 109.596 79.7702L108.077 85.1013L119.362 78.6919C119.514 78.54 119.666 78.54 119.818 78.54H128.354V53.8438H94.0432ZM120.425 61.3164L105.176 72.7532C105.024 72.9051 104.872 72.9051 104.569 72.9051H104.417C104.113 72.9051 103.961 72.6013 103.809 72.4495L101.82 68.4853C101.516 68.0297 101.82 67.4221 102.275 67.2702C102.731 66.9665 103.338 67.2702 103.49 67.7259L104.857 70.475L119.195 59.6457C119.651 59.3419 120.258 59.3419 120.562 59.7976C120.866 60.4051 120.866 60.8608 120.41 61.3164H120.425Z" fill="#2366B0"/>
<path d="M105.693 127.594C102.017 127.594 98.949 130.662 98.949 134.337V141.081H112.436V134.337C112.436 130.51 109.368 127.594 105.693 127.594Z" fill="#2366B0"/>
<path d="M128.687 127.594C125.012 127.594 121.944 130.662 121.944 134.337V141.081H135.431V134.337C135.431 130.51 132.363 127.594 128.687 127.594Z" fill="#2366B0"/>
<path d="M128.688 125.606C131.3 125.606 133.441 123.464 133.441 120.852C133.441 118.239 131.3 116.098 128.688 116.098C126.075 116.098 123.934 118.239 123.934 120.852C123.934 123.464 126.075 125.606 128.688 125.606Z" fill="#2366B0"/>
<path d="M105.693 125.606C108.305 125.606 110.447 123.464 110.447 120.852C110.447 118.239 108.305 116.098 105.693 116.098C103.08 116.098 100.939 118.239 100.939 120.852C100.939 123.464 103.08 125.606 105.693 125.606Z" fill="#2366B0"/>
<path d="M106.118 96.7462C108.73 96.7462 110.872 94.6046 110.872 91.9922C110.872 89.3798 108.73 87.2383 106.118 87.2383C103.506 87.2383 101.364 89.3798 101.364 91.9922C101.364 94.6046 103.506 96.7462 106.118 96.7462Z" fill="#2366B0"/>
<path d="M129.113 98.7383C125.437 98.7383 122.369 101.806 122.369 105.482V112.226H135.857V105.482C135.857 101.654 132.789 98.7383 129.113 98.7383Z" fill="#2366B0"/>
<path d="M129.113 96.7462C131.725 96.7462 133.867 94.6046 133.867 91.9922C133.867 89.3798 131.725 87.2383 129.113 87.2383C126.501 87.2383 124.359 89.3798 124.359 91.9922C124.359 94.6046 126.501 96.7462 129.113 96.7462Z" fill="#2366B0"/>
<path d="M106.118 98.7383C102.442 98.7383 99.3743 101.806 99.3743 105.482V112.226H112.862V105.482C112.862 101.654 109.793 98.7383 106.118 98.7383Z" fill="#2366B0"/>
<path d="M139.168 122.799C139.168 124.333 140.398 125.715 142.084 125.715C143.77 125.715 145 124.485 145 122.799C145 121.113 143.77 119.883 142.084 119.883C140.398 119.883 139.168 121.113 139.168 122.799Z" fill="#2366B0"/>
<path d="M45 77.2326C45 78.7666 46.2303 80.1487 47.9162 80.1487C49.6021 80.1487 50.8323 78.9185 50.8323 77.2326C50.8323 75.5467 49.6021 74.3164 47.9162 74.3164C46.2303 74.3164 45 75.5467 45 77.2326Z" fill="#2366B0"/>
<path d="M83.6702 50H79.8428V53.8275H83.6702V50Z" fill="#2366B0"/>
<path d="M83.6702 57.6719H79.8428V61.4993H83.6702V57.6719Z" fill="#2366B0"/>
<path d="M87.4976 53.8281H83.6702V57.6556H87.4976V53.8281Z" fill="#2366B0"/>
<path d="M79.8275 53.8281H76V57.6556H79.8275V53.8281Z" fill="#2366B0"/>
</g>
<path d="M158.544 214.406H163.107V237.464H158.544V227.15H151.416V222.884H158.544V214.406ZM146.259 232.28H150.552C152.739 232.28 155.115 231.902 156.519 231.281V235.331C155.115 236.006 152.442 236.384 150.228 236.384H141.615V214.946H155.115V219.05H146.259V232.28Z" fill="#2F5BC1"/>
<path d="M136.757 214.406V237.464H132.194V214.406H136.757ZM128.846 214.946V227.636H120.017V232.28H125.012C127.199 232.28 129.575 231.821 130.979 231.173V235.277C129.575 235.979 127.118 236.384 124.823 236.384H115.481V223.586H124.31V219.05H115.427V214.946H128.846Z" fill="#2F5BC1"/>
<path d="M95.2804 215.701V219.049H80.2954V215.701H85.7764V214H90.4204V215.701H95.2804ZM98.3044 228.337V226.393H96.0634V222.613H98.3044V221.101H96.0634V217.321H98.3044V214.405H102.786V228.337H98.3044ZM88.0984 228.148C84.3184 228.148 81.2134 226.771 81.2134 223.882C81.2134 220.993 84.3184 219.616 88.0984 219.616C91.8784 219.616 94.9834 220.993 94.9834 223.882C94.9834 226.771 91.8784 228.148 88.0984 228.148ZM88.0984 222.829C86.4514 222.829 85.4794 223.234 85.4794 223.882C85.4794 224.53 86.4514 224.935 88.0984 224.935C89.7454 224.935 90.7174 224.53 90.7174 223.882C90.7174 223.207 89.7454 222.829 88.0984 222.829ZM92.5264 228.607C98.4394 228.607 102.975 229.741 102.975 233.17C102.975 236.599 98.4394 237.733 92.5264 237.733C86.6134 237.733 82.0234 236.599 82.0234 233.17C82.0234 229.741 86.6134 228.607 92.5264 228.607ZM92.5264 234.331C95.6854 234.331 98.1424 234.061 98.1424 233.17C98.1424 232.306 95.6854 232.009 92.5264 232.009C89.3674 232.009 86.8564 232.306 86.8564 233.17C86.8564 234.061 89.3674 234.331 92.5264 234.331Z" fill="#2F5BC1"/>
<path d="M68.0668 225.557H77.4628V228.878H54.1348V225.557H63.5308V224.558H55.5658V214.406H76.0588V217.241H60.0748V218.213H75.6808V220.805H60.0748V221.75H76.3288V224.558H68.0668V225.557ZM65.7988 229.526C72.0088 229.526 76.3558 230.714 76.3558 233.657C76.3558 236.6 72.0088 237.788 65.7988 237.788C59.5888 237.788 55.2418 236.6 55.2418 233.657C55.2418 230.714 59.5888 229.526 65.7988 229.526ZM65.7988 234.629C69.1738 234.629 71.5228 234.359 71.5228 233.657C71.5228 232.982 69.1738 232.685 65.7988 232.685C62.4238 232.685 60.0748 232.982 60.0748 233.657C60.0748 234.359 62.4238 234.629 65.7988 234.629Z" fill="#2F5BC1"/>
<path d="M39.4221 223.045C36.7491 226.582 32.7531 228.742 28.3521 228.742V224.422C32.9421 224.422 37.2081 220.426 38.0451 214.324L42.6891 215.053C42.4731 216.619 42.0681 218.104 41.4741 219.454L51.2211 225.124L48.8721 228.85L39.4221 223.045ZM41.8791 227.284V232.387H51.2211V236.653H27.8931V232.387H37.2351V227.284H41.8791Z" fill="#2F5BC1"/>
<circle cx="556.5" cy="450.5" r="95.5" fill="#EBEAF3"/>
<g clip-path="url(#clip2_3198_15545)">
<path d="M555.739 422.302C561.021 422.302 565.274 418.049 565.274 412.766C565.274 407.484 561.021 403.23 555.739 403.23C550.456 403.23 546.203 407.484 546.203 412.766C546.203 418.049 550.456 422.302 555.739 422.302Z" fill="#5B5C54"/>
<path d="M555.739 424.52C543.468 424.52 533.426 434.579 533.426 446.832V477.667H539.907V457.566C539.907 457.06 540.414 456.536 540.937 456.536C541.46 456.536 541.966 457.043 541.966 457.566V498.629H554.743V470.342C554.743 469.836 555.249 469.313 555.772 469.313C556.295 469.313 556.802 469.819 556.802 470.342V498.629H569.578V457.566C569.578 457.06 570.084 456.536 570.608 456.536C571.131 456.536 571.637 457.043 571.637 457.566V477.836H578.118V446.832C578.118 434.562 568.059 424.52 555.806 424.52H555.739ZM557.781 461.819H553.528V457.566H557.781V461.819ZM557.781 453.313H553.528V449.06H557.781V453.313ZM557.781 444.79H553.528V440.536H557.781V444.79Z" fill="#5B5C54"/>
<path d="M587.603 417.192L597.139 407.656C597.308 407.488 597.477 407.15 597.477 406.981C597.477 406.644 597.308 406.475 597.139 406.306L595.772 404.939L603.772 403.572L602.405 411.572L601.038 410.205C600.7 409.867 600.008 409.867 599.502 410.205L589.966 419.572C589.629 419.91 589.629 420.601 589.966 421.108C590.135 421.277 590.473 421.445 590.641 421.445C590.81 421.445 591.148 421.277 591.317 421.108L600.177 412.247L602.219 414.289C602.557 414.627 602.895 414.627 603.249 414.627C603.587 414.458 603.924 414.12 603.924 413.783L605.798 402.205C605.798 401.867 605.798 401.53 605.46 401.361C605.291 401.192 604.954 401.023 604.616 401.023L593.038 402.897C592.7 402.897 592.363 403.234 592.194 403.572C592.025 403.91 592.194 404.416 592.532 404.601L594.574 406.644L585.713 415.504C585.376 415.842 585.376 416.534 585.713 417.04C586.388 417.715 587.08 417.715 587.587 417.209L587.603 417.192Z" fill="#5B5C54"/>
<path d="M524.566 484.988L515.03 494.524C514.692 494.861 514.692 495.553 515.03 496.06L516.397 497.427L508.397 498.794L509.764 490.794L511.131 492.161C511.3 492.33 511.637 492.498 511.806 492.498C511.975 492.498 512.312 492.33 512.481 492.161L522.017 482.625C522.355 482.287 522.355 481.595 522.017 481.089C521.679 480.752 520.988 480.752 520.481 481.089L511.62 489.95L509.747 487.739C509.409 487.401 509.072 487.401 508.717 487.401C508.38 487.57 508.042 487.908 508.042 488.245L506.169 499.806C506.169 500.144 506.169 500.482 506.506 500.65C506.675 500.819 507.013 500.988 507.182 500.988H507.35L518.928 499.114C519.266 499.114 519.604 498.777 519.772 498.439C519.941 498.102 519.772 497.595 519.435 497.41L517.393 495.368L526.253 486.507C526.591 486.169 526.591 485.477 526.253 484.971C525.747 484.465 525.055 484.465 524.549 484.971L524.566 484.988Z" fill="#5B5C54"/>
<path d="M604.127 488.402C604.127 488.065 603.789 487.727 603.452 487.558C603.114 487.39 602.608 487.558 602.422 487.896L600.38 489.938L591.519 481.077C591.182 480.74 590.49 480.74 589.983 481.077C589.646 481.415 589.646 482.107 589.983 482.613L599.519 492.149C599.857 492.487 600.549 492.487 601.055 492.149L602.422 490.782L603.789 498.782L595.789 497.415L597.156 496.048C597.494 495.71 597.494 495.018 597.156 494.512L587.62 484.976C587.283 484.639 586.591 484.639 586.084 484.976C585.747 485.314 585.747 486.006 586.084 486.512L594.945 495.373L592.734 497.415C592.397 497.752 592.397 498.09 592.397 498.444C592.565 498.782 592.903 499.12 593.241 499.12L604.819 500.993H604.987C605.325 500.993 605.494 500.824 605.663 500.655C605.831 500.487 606 500.149 606 499.812L604.127 488.402Z" fill="#5B5C54"/>
<path d="M517.241 406.968L519.283 404.926C519.62 404.588 519.62 404.251 519.62 403.896C519.451 403.559 519.114 403.221 518.776 403.221L507.198 401.348C506.844 401.348 506.506 401.348 506.338 401.685C506.169 401.854 506 402.192 506 402.529L507.873 414.107C507.873 414.445 508.211 414.782 508.549 414.951C508.886 415.12 509.392 414.951 509.578 414.613L511.62 412.571L520.481 421.432C520.65 421.601 520.987 421.77 521.156 421.77C521.494 421.77 521.662 421.601 521.831 421.432C522.169 421.094 522.169 420.403 521.831 419.896L512.65 410.04C512.312 409.702 511.62 409.702 511.114 410.04L509.747 411.407L508.38 403.39L516.38 404.757L515.013 406.124C514.675 406.462 514.675 407.154 515.013 407.66L524.549 417.196C524.886 417.533 525.578 417.533 526.084 417.196C526.422 416.858 526.422 416.166 526.084 415.66L517.241 406.968Z" fill="#5B5C54"/>
</g>
<path d="M615.288 603.082H619.851V626.14H615.288V615.88H611.994V611.614H615.288V603.082ZM602.922 620.875H607.296C609.483 620.875 611.859 620.443 613.263 619.768V623.953C611.859 624.655 609.51 625.06 607.296 625.06H598.359V603.622H611.616V607.807H602.922V612.181H610.536V616.339H602.922V620.875Z" fill="#5B5C54"/>
<path d="M593.501 603.082V626.14H588.938V603.082H593.501ZM579.137 603.352C583.484 603.352 586.373 606.754 586.373 614.341C586.373 621.928 583.484 625.33 579.137 625.33C574.79 625.33 571.874 621.928 571.874 614.341C571.874 606.754 574.79 603.352 579.137 603.352ZM579.137 607.537C577.598 607.537 576.383 609.184 576.383 614.341C576.383 619.525 577.598 621.145 579.137 621.145C580.649 621.145 581.864 619.525 581.864 614.341C581.864 609.184 580.649 607.537 579.137 607.537Z" fill="#5B5C54"/>
<path d="M563.642 603.082H567.908V626.14H563.642V603.082ZM557.837 611.56V603.19H562.049V625.735H557.837V615.88H555.839V625.06H545.363V603.622H549.521V610.426H551.681V603.622H555.839V611.56H557.837ZM549.521 620.956H551.681V614.503H549.521V620.956Z" fill="#5B5C54"/>
<path d="M532.702 621.061H542.044V625.327H518.716V621.061H528.058V616.876H519.985V603.484H524.656V612.61H540.91V616.876H532.702V621.061Z" fill="#5B5C54"/>
<path d="M514.776 603.082V626.14H510.213V603.082H514.776ZM500.412 603.352C504.759 603.352 507.648 606.754 507.648 614.341C507.648 621.928 504.759 625.33 500.412 625.33C496.065 625.33 493.149 621.928 493.149 614.341C493.149 606.754 496.065 603.352 500.412 603.352ZM500.412 607.537C498.873 607.537 497.658 609.184 497.658 614.341C497.658 619.525 498.873 621.145 500.412 621.145C501.924 621.145 503.139 619.525 503.139 614.341C503.139 609.184 501.924 607.537 500.412 607.537Z" fill="#5B5C54"/>
<path d="M595.147 575.047C595.066 576.559 594.904 577.963 594.661 579.259L601.249 587.089L597.847 590.059L593.068 584.065C591.178 587.872 588.208 590.032 584.698 590.059V585.577C588.019 585.253 590.26 581.068 590.557 575.047H585.211V570.835H590.53V568H595.201V570.835H600.25V575.047H595.147ZM602.059 568.081H606.622V591.139H602.059V568.081Z" fill="#5B5C54"/>
<path d="M582.432 576.506V580.934H579.732V591.14H575.169V568.082H579.732V576.506H582.432ZM558.726 572.78V568.622H571.767V574.859C571.767 584.228 566.718 590.06 558.726 590.06V585.74C564.261 585.686 567.123 581.609 567.123 574.859V572.78H558.726Z" fill="#5B5C54"/>
<path d="M549.117 575.831V571.781H533.187V568.082H553.707V575.831H549.117ZM544.041 576.911H555.165V580.556H531.837V576.911H539.451V573.482H544.041V576.911ZM543.501 581.744C549.711 581.744 554.031 583.094 554.031 586.577C554.031 590.06 549.711 591.41 543.501 591.41C537.291 591.41 532.971 590.06 532.971 586.577C532.971 583.094 537.291 581.744 543.501 581.744ZM543.501 587.954C546.849 587.954 549.171 587.522 549.171 586.577C549.171 585.659 546.849 585.2 543.501 585.2C540.153 585.2 537.831 585.659 537.831 586.577C537.831 587.522 540.153 587.954 543.501 587.954Z" fill="#5B5C54"/>
<path d="M522.875 575.831V571.781H506.945V568.082H527.465V575.831H522.875ZM517.799 576.911H528.923V580.556H505.595V576.911H513.209V573.482H517.799V576.911ZM517.259 581.744C523.469 581.744 527.789 583.094 527.789 586.577C527.789 590.06 523.469 591.41 517.259 591.41C511.049 591.41 506.729 590.06 506.729 586.577C506.729 583.094 511.049 581.744 517.259 581.744ZM517.259 587.954C520.607 587.954 522.929 587.522 522.929 586.577C522.929 585.659 520.607 585.2 517.259 585.2C513.911 585.2 511.589 585.659 511.589 586.577C511.589 587.522 513.911 587.954 517.259 587.954Z" fill="#5B5C54"/>
<defs>
<clipPath id="clip0_3198_15545">
<rect width="98" height="120.805" fill="white" transform="translate(507 38)"/>
</clipPath>
<clipPath id="clip1_3198_15545">
<rect width="100" height="91.0845" fill="white" transform="translate(45 50)"/>
</clipPath>
<clipPath id="clip2_3198_15545">
<rect width="100" height="100" fill="white" transform="translate(506 401)"/>
</clipPath>
</defs>
</svg>
