<svg width="78" height="72" viewBox="0 0 78 72" fill="none" xmlns="http://www.w3.org/2000/svg">
<g clip-path="url(#clip0_2987_36719)">
<path d="M62.2925 20.7979L71.9227 16.456L38.7024 1.47852L29.1016 5.80744L62.0964 20.6826C62.1674 20.7143 62.2323 20.7547 62.2925 20.7979Z" fill="#FF8201"/>
<path d="M26.4863 7.0293L19.707 10.0969L52.864 25.047L59.6587 21.9838L26.4863 7.0293Z" fill="#FF8201"/>
<path d="M54.0898 38.2184L60.4369 35.3584V24.0352L54.0898 26.8966V38.2184Z" fill="#FF8201"/>
<path d="M62.7502 22.991V36.0354C62.7502 36.4506 62.4955 36.8283 62.0957 37.0085L53.4349 40.9136C53.2759 40.9857 53.103 41.0217 52.9317 41.0217C52.7171 41.0217 52.5041 40.9655 52.3158 40.8559C51.9778 40.6584 51.774 40.3125 51.774 39.9406V27.9398L45.1908 30.9079L39.8594 33.3109V70.1983L73.4269 55.0651V18.1777L62.7502 22.991Z" fill="#FF8201"/>
<path d="M18.3775 47.9248L8.2734 43.3695C7.69766 43.1101 7.00615 43.3349 6.72677 43.8726C6.44893 44.4103 6.68972 45.0561 7.26547 45.317L17.3695 49.8723C17.5316 49.9458 17.7029 49.9804 17.8727 49.9804C18.3034 49.9804 18.717 49.7555 18.9162 49.3692C19.194 48.8315 18.9532 48.1842 18.3775 47.9248Z" fill="#FF8201"/>
<path d="M34.484 31.9297L37.5433 33.3092L34.4824 31.9297H34.484Z" fill="#FF8201"/>
<path d="M28.3125 26.748L30.5429 27.7528L28.3125 26.748Z" fill="#FF8201"/>
<path d="M13.5306 50.8726L8.26559 48.4984C7.68985 48.239 6.99834 48.4638 6.71896 49.0015C6.44112 49.5392 6.68191 50.185 7.25765 50.4459L12.5227 52.8202C12.6848 52.8937 12.8561 52.9283 13.0259 52.9283C13.4565 52.9283 13.8702 52.7034 14.0693 52.3171C14.3472 51.7794 14.1064 51.1336 13.5306 50.8726Z" fill="#FF8201"/>
<path d="M35.4902 29.9824L38.7008 31.4297L35.4902 29.9839V29.9824Z" fill="#FF8201"/>
<path d="M16.9834 11.2695L5.48242 16.4547L27.816 26.5238L28.3146 26.7487L30.545 27.7535L35.4921 29.9835V29.985L38.7027 31.4308L46.8603 27.7535L46.8619 27.752L50.2021 26.2471L16.9834 11.2695Z" fill="#FF8201"/>
<path d="M34.4832 31.9309L26.8983 28.5116L3.97656 18.1758V55.0632L37.5441 70.1964V33.309L34.4848 31.9294L34.4832 31.9309ZM14.0698 52.3156C13.8707 52.7019 13.457 52.9268 13.0264 52.9268C12.8581 52.9268 12.6868 52.8922 12.5232 52.8187L7.25815 50.4445C6.6824 50.185 6.44161 49.5378 6.71945 49.0001C6.99729 48.4624 7.6888 48.2361 8.26608 48.497L13.5311 50.8712C14.1069 51.1307 14.3477 51.7765 14.0698 52.3156ZM18.915 49.3691C18.7159 49.7554 18.3022 49.9803 17.8716 49.9803C17.7033 49.9803 17.532 49.9457 17.3684 49.8722L7.26432 45.317C6.68858 45.0575 6.44778 44.4117 6.72562 43.8726C7.00346 43.3349 7.69497 43.11 8.27226 43.3695L18.3763 47.9247C18.9521 48.1842 19.1929 48.83 18.915 49.3691Z" fill="#FF8201"/>
</g>
<defs>
<clipPath id="clip0_2987_36719">
<rect width="69.4504" height="68.7208" fill="white" transform="translate(3.97852 1.47852)"/>
</clipPath>
</defs>
</svg>
