<svg width="40" height="40" viewBox="0 0 40 40" fill="none" xmlns="http://www.w3.org/2000/svg">
<rect x="-1" y="1" width="38" height="38" rx="19" transform="matrix(1 0 0 -1 2 40)" stroke="#BDBDBD" stroke-width="2"/>
<g clip-path="url(#clip0_2613_2368)">
<path d="M24.4998 10.9995C24.7518 10.9995 24.9648 11.0865 25.1388 11.2605C25.3128 11.4345 25.3998 11.6475 25.3998 11.8995V15.4995H28.0998C28.3518 15.4995 28.5648 15.5865 28.7388 15.7605C28.9128 15.9345 28.9998 16.1475 28.9998 16.3995V25.3995C28.9998 25.6515 28.9128 25.8645 28.7388 26.0385C28.5648 26.2125 28.3518 26.2995 28.0998 26.2995H25.3998V28.0995C25.3998 28.3515 25.3128 28.5645 25.1388 28.7385C24.9648 28.9125 24.7518 28.9995 24.4998 28.9995H15.4998C15.2478 28.9995 15.0348 28.9125 14.8608 28.7385C14.6868 28.5645 14.5998 28.3515 14.5998 28.0995V26.2995H11.8998C11.6478 26.2995 11.4348 26.2125 11.2608 26.0385C11.0868 25.8645 10.9998 25.6515 10.9998 25.3995V16.3995C10.9998 16.1475 11.0868 15.9345 11.2608 15.7605C11.4348 15.5865 11.6478 15.4995 11.8998 15.4995H14.5998V11.8995C14.5998 11.6475 14.6868 11.4345 14.8608 11.2605C15.0348 11.0865 15.2478 10.9995 15.4998 10.9995H24.4998ZM23.5998 24.4995H16.3998V27.1995H23.5998V24.4995ZM27.1998 17.2995H12.7998V24.4995H14.5998V23.5995C14.5998 23.3475 14.6868 23.1345 14.8608 22.9605C15.0348 22.7865 15.2478 22.6995 15.4998 22.6995H24.4998C24.7518 22.6995 24.9648 22.7865 25.1388 22.9605C25.3128 23.1345 25.3998 23.3475 25.3998 23.5995V24.4995H27.1998V17.2995ZM16.3998 18.1995V19.9995H13.6998V18.1995H16.3998ZM23.5998 12.7995H16.3998V15.4995H23.5998V12.7995Z" fill="#999999"/>
</g>
<defs>
<clipPath id="clip0_2613_2368">
<rect x="8" y="8" width="24" height="24" rx="12" fill="white"/>
</clipPath>
</defs>
</svg>
