<svg width="40" height="49" viewBox="0 0 40 49" fill="none" xmlns="http://www.w3.org/2000/svg">
<g clip-path="url(#clip0_2910_131384)">
<path d="M29.6943 0.0507812H13.8312V10.908C13.8312 12.1058 12.8551 13.081 11.6554 13.081H0.804688V38.256C0.804688 39.2328 1.60085 40.0285 2.58003 40.0285H29.6951C30.6742 40.0285 31.4712 39.2336 31.4712 38.256V1.82167C31.4712 0.844869 30.6742 0.0507812 29.6951 0.0507812H29.6943ZM25.1347 33.9561H7.14039C6.61561 33.9561 6.19015 33.5313 6.19015 33.0074C6.19015 32.4834 6.61561 32.0587 7.14039 32.0587H25.1339C25.6587 32.0587 26.0842 32.4834 26.0842 33.0074C26.0842 33.5313 25.6587 33.9561 25.1339 33.9561H25.1347ZM25.1347 26.2588H7.14039C6.61561 26.2588 6.19015 25.834 6.19015 25.3101C6.19015 24.7862 6.61561 24.3614 7.14039 24.3614H25.1339C25.6587 24.3614 26.0842 24.7862 26.0842 25.3101C26.0842 25.834 25.6587 26.2588 25.1339 26.2588H25.1347ZM25.1347 18.5639H7.14039C6.61561 18.5639 6.19015 18.1391 6.19015 17.6152C6.19015 17.0913 6.61561 16.6665 7.14039 16.6665H25.1339C25.6587 16.6665 26.0842 17.0913 26.0842 17.6152C26.0842 18.1391 25.6587 18.5639 25.1339 18.5639H25.1347ZM25.2184 10.8674H22.2629C21.7842 10.8674 21.3963 10.4801 21.3963 10.0023V7.11168C21.3963 6.63382 21.7842 6.24654 22.2629 6.24654H25.2184C25.697 6.24654 26.0849 6.63382 26.0849 7.11168V10.0023C26.0849 10.4801 25.697 10.8674 25.2184 10.8674Z" fill="#2F5BC1"/>
<path d="M11.8034 9.68945V0.585938L1.31641 11.0567H10.434C11.4194 11.0567 11.8034 10.6733 11.8034 9.68945Z" fill="#2F5BC1"/>
<path d="M37.3818 8.96875H33.3501V38.2547C33.3501 40.2653 31.7116 41.9011 29.697 41.9011H8.49219V47.174C8.49219 48.1508 9.28835 48.9464 10.2675 48.9464H37.3826C38.3617 48.9464 39.1587 48.1516 39.1587 47.174V10.7396C39.1587 9.76284 38.3617 8.96875 37.3826 8.96875H37.3818Z" fill="#2F5BC1"/>
</g>
<defs>
<clipPath id="clip0_2910_131384">
<rect width="38.3505" height="48.8969" fill="white" transform="translate(0.804688 0.0507812)"/>
</clipPath>
</defs>
</svg>
