<svg width="78" height="84" viewBox="0 0 78 84" fill="none" xmlns="http://www.w3.org/2000/svg">
<g clip-path="url(#clip0_2981_30544)">
<path d="M65.2797 23.995L76.0078 18.7441L39.0001 0.630859L28.3047 5.86608L65.0613 23.8555C65.1404 23.8939 65.2126 23.9427 65.2797 23.995Z" fill="#FF8201"/>
<path d="M25.392 7.34375L17.8398 11.0536L54.777 29.1337L62.3464 25.4291L25.392 7.34375Z" fill="#FF8201"/>
<path d="M56.1406 45.0628L63.2113 41.604V27.9102L56.1406 31.3707V45.0628Z" fill="#FF8201"/>
<path d="M65.7916 26.6491V42.4245C65.7916 42.9266 65.5079 43.3834 65.0625 43.6013L55.4143 48.324C55.2372 48.4111 55.0446 48.4547 54.8537 48.4547C54.6147 48.4547 54.3774 48.3867 54.1676 48.2542C53.791 48.0154 53.564 47.597 53.564 47.1472V32.634L46.2303 36.2235L40.291 39.1296V83.7397L77.6856 65.4382V20.8281L65.7916 26.6491Z" fill="#FF8201"/>
<path d="M16.3576 56.8034L5.10157 51.2944C4.46018 50.9806 3.68984 51.2526 3.3786 51.9029C3.06909 52.5531 3.33733 53.3341 3.97872 53.6497L15.2347 59.1586C15.4153 59.2475 15.6062 59.2894 15.7953 59.2894C16.2751 59.2894 16.7359 59.0174 16.9577 58.5502C17.2672 57.8999 16.999 57.1172 16.3576 56.8034Z" fill="#FF8201"/>
<path d="M34.3025 37.4609L37.7106 39.1293L34.3008 37.4609H34.3025Z" fill="#FF8201"/>
<path d="M27.4277 31.1914L29.9125 32.4065L27.4277 31.1914Z" fill="#FF8201"/>
<path d="M10.9591 60.3649L5.09376 57.4937C4.45237 57.1799 3.68202 57.4518 3.37079 58.1021C3.06127 58.7524 3.32952 59.5334 3.9709 59.8489L9.83621 62.7202C10.0168 62.8091 10.2076 62.8509 10.3968 62.8509C10.8765 62.8509 11.3374 62.579 11.5592 62.1118C11.8687 61.4615 11.6004 60.6805 10.9591 60.3649Z" fill="#FF8201"/>
<path d="M35.4238 35.1055L39.0004 36.8558L35.4238 35.1072V35.1055Z" fill="#FF8201"/>
<path d="M14.8044 12.4727L1.99219 18.7434L26.872 30.9206L27.4274 31.1926L29.9122 32.4077L35.4232 35.1046V35.1063L38.9999 36.8549L48.0876 32.4077L48.0893 32.4059L51.8103 30.5859L14.8044 12.4727Z" fill="#FF8201"/>
<path d="M34.3011 37.4591L25.8514 33.3239L0.316406 20.8242V65.4343L37.711 83.7358V39.1257L34.3029 37.4573L34.3011 37.4591ZM11.5604 62.1115C11.3386 62.5788 10.8777 62.8507 10.398 62.8507C10.2106 62.8507 10.0197 62.8089 9.83743 62.72L3.97212 59.8487C3.33074 59.5349 3.06249 58.7521 3.37201 58.1019C3.68152 57.4516 4.45187 57.1779 5.09497 57.4935L10.9603 60.3647C11.6017 60.6785 11.8699 61.4595 11.5604 62.1115ZM16.958 58.5482C16.7362 59.0154 16.2753 59.2873 15.7956 59.2873C15.6082 59.2873 15.4173 59.2455 15.235 59.1566L3.979 53.6477C3.33762 53.3339 3.06937 52.5529 3.37888 51.9009C3.6884 51.2506 4.45875 50.9786 5.10185 51.2924L16.3579 56.8014C16.9993 57.1152 17.2675 57.8962 16.958 58.5482Z" fill="#FF8201"/>
</g>
<defs>
<clipPath id="clip0_2981_30544">
<rect width="77.3684" height="83.1081" fill="white" transform="translate(0.316406 0.630859)"/>
</clipPath>
</defs>
</svg>
