<svg width="100" height="100" viewBox="0 0 100 100" fill="none" xmlns="http://www.w3.org/2000/svg">
<g clip-path="url(#clip0_3192_83233)">
<path d="M76.25 61.25H46.25C45.7532 61.2515 45.2771 61.4495 44.9258 61.8008C44.5745 62.1521 44.3765 62.6282 44.375 63.125V68.75C44.3765 69.2468 44.5745 69.7229 44.9258 70.0742C45.2771 70.4255 45.7532 70.6235 46.25 70.625V76.25C46.2515 76.7468 46.4495 77.2229 46.8008 77.5742C47.1521 77.9255 47.6282 78.1235 48.125 78.125H53.75C54.2468 78.1235 54.7229 77.9255 55.0742 77.5742C55.4255 77.2229 55.6235 76.7468 55.625 76.25V70.625H66.875V76.25C66.8765 76.7468 67.0745 77.2229 67.4258 77.5742C67.7771 77.9255 68.2532 78.1235 68.75 78.125H74.375C74.8718 78.1235 75.3479 77.9255 75.6992 77.5742C76.0505 77.2229 76.2485 76.7468 76.25 76.25V70.625C76.7468 70.6235 77.2229 70.4255 77.5742 70.0742C77.9255 69.7229 78.1235 69.2468 78.125 68.75V63.125C78.1235 62.6282 77.9255 62.1521 77.5742 61.8008C77.2229 61.4495 76.7468 61.2515 76.25 61.25ZM51.875 74.375H50V70.625H51.875V74.375ZM72.5 74.375H70.625V70.625H72.5V74.375Z" fill="#2F5BC1"/>
<path d="M48.1251 46.2487C48.1312 44.5018 47.7848 42.7716 47.1066 41.1617C46.4285 39.5518 45.4324 38.0952 44.1782 36.8792C44.9813 35.3074 45.3675 33.5557 45.2996 31.7919C45.2317 30.0281 44.7121 28.3112 43.7905 26.8058C42.8689 25.3003 41.5762 24.0567 40.0363 23.194C38.4963 22.3314 36.7607 21.8785 34.9955 21.8789C33.2304 21.8793 31.4949 22.3328 29.9553 23.1962C28.4157 24.0595 27.1236 25.3036 26.2027 26.8095C25.2817 28.3153 24.7628 30.0324 24.6957 31.7962C24.6285 33.56 25.0153 35.3116 25.8191 36.8831C24.5658 38.0988 23.5705 39.5548 22.8928 41.164C22.2151 42.7733 21.869 44.5026 21.8751 46.2487C21.8806 49.4017 23.0202 52.4474 25.0857 54.8296C27.1512 57.2118 30.0047 58.7715 33.1251 59.2237V76.2487C33.1251 76.746 33.3226 77.2229 33.6743 77.5745C34.0259 77.9262 34.5028 78.1237 35.0001 78.1237C35.4974 78.1237 35.9743 77.9262 36.3259 77.5745C36.6775 77.2229 36.8751 76.746 36.8751 76.2487V59.2237C39.9954 58.7715 42.849 57.2118 44.9145 54.8296C46.98 52.4474 48.1196 49.4017 48.1251 46.2487ZM36.8751 55.4347V52.0952L39.5887 50.7384C39.8089 50.6283 40.0053 50.4758 40.1667 50.2898C40.328 50.1038 40.4512 49.8878 40.529 49.6541C40.6069 49.4205 40.638 49.1739 40.6205 48.9282C40.6031 48.6826 40.5374 48.4428 40.4273 48.2225C40.3171 48.0023 40.1647 47.8059 39.9787 47.6445C39.7926 47.4832 39.5766 47.36 39.343 47.2822C39.1094 47.2043 38.8627 47.1732 38.6171 47.1907C38.3714 47.2081 38.1316 47.2738 37.9114 47.3839L36.8751 47.9022V33.1237C36.8751 32.6264 36.6775 32.1495 36.3259 31.7979C35.9743 31.4463 35.4974 31.2487 35.0001 31.2487C34.5028 31.2487 34.0259 31.4463 33.6743 31.7979C33.3226 32.1495 33.1251 32.6264 33.1251 33.1237V43.2147L32.0887 42.6965C31.8684 42.5864 31.6286 42.5207 31.383 42.5033C31.1373 42.4858 30.8907 42.5169 30.6571 42.5948C30.1852 42.752 29.7952 43.0903 29.5728 43.5351C29.3504 43.9799 29.3138 44.4949 29.471 44.9667C29.6283 45.4386 29.9666 45.8286 30.4114 46.051L33.1251 47.4077V55.4347C31.3543 55.0752 29.7253 54.211 28.4347 52.9463C27.1441 51.6816 26.247 50.0705 25.8516 48.3074C25.4562 46.5442 25.5795 44.7043 26.2065 43.0096C26.8334 41.3149 27.9374 39.8379 29.3851 38.7566C29.5823 38.6085 29.7483 38.423 29.8736 38.2107C29.999 37.9984 30.0813 37.7634 30.1157 37.5193C30.1501 37.2751 30.1361 37.0266 30.0743 36.7879C30.0126 36.5491 29.9044 36.325 29.7559 36.1281C29.0434 35.1805 28.601 34.0574 28.4757 32.8784C28.3504 31.6994 28.5469 30.5085 29.0444 29.4323C29.5418 28.356 30.3216 27.4347 31.3008 26.7662C32.28 26.0977 33.422 25.707 34.6055 25.6356C34.741 25.6274 34.8746 25.6237 35.0095 25.6237C36.2281 25.6242 37.4226 25.9645 38.4586 26.6062C39.4947 27.2479 40.3313 28.1658 40.8747 29.2566C41.418 30.3475 41.6465 31.5682 41.5345 32.7818C41.4225 33.9953 40.9745 35.1536 40.2407 36.1266C40.0923 36.3236 39.9842 36.5479 39.9226 36.7866C39.861 37.0254 39.8471 37.274 39.8818 37.5182C39.9164 37.7623 39.9988 37.9972 40.1243 38.2095C40.2499 38.4217 40.4161 38.6072 40.6134 38.7551C42.0614 39.8362 43.1657 41.3132 43.7931 43.008C44.4204 44.7027 44.5438 46.5428 44.1486 48.3062C43.7534 50.0695 42.8564 51.6809 41.5658 52.9458C40.2751 54.2107 38.6461 55.0751 36.8751 55.4347Z" fill="#2F5BC1"/>
<path d="M59.3743 34.0625H53.7493C52.5551 34.0627 51.406 33.6071 50.5365 32.7886C49.667 31.9701 49.1428 30.8505 49.071 29.6586C48.9992 28.4666 49.3852 27.2922 50.1501 26.3753C50.9151 25.4583 52.0012 24.868 53.1868 24.725C53.5759 23.8107 54.2457 23.0439 55.0993 22.5353C55.9529 22.0267 56.946 21.8026 57.9353 21.8955C58.9246 21.9884 59.8587 22.3934 60.6027 23.052C61.3467 23.7106 61.862 24.5886 62.0743 25.5593C62.8881 26.1314 63.4984 26.9481 63.8163 27.8907C64.1343 28.8334 64.1434 29.8528 63.8423 30.801C63.5413 31.7491 62.9457 32.5766 62.1422 33.1631C61.3387 33.7497 60.3691 34.0647 59.3743 34.0625Z" fill="#2F5BC1"/>
<path d="M78.1252 43.4374C78.124 44.9288 77.531 46.3589 76.4763 47.4135C75.4217 48.4682 73.9916 49.0612 72.5002 49.0624H61.2502C59.8202 49.0626 58.4438 48.5182 57.4009 47.5397C56.3581 46.5612 55.7271 45.2223 55.6363 43.7952C55.5456 42.3681 56.0018 40.96 56.9123 39.8573C57.8228 38.7546 59.1192 38.0402 60.5377 37.8592C60.959 36.1822 61.9469 34.7023 63.3342 33.6701C64.7214 32.6379 66.4228 32.1169 68.1502 32.1952C69.8775 32.2735 71.5248 32.9464 72.8129 34.0999C74.1011 35.2534 74.9511 36.8166 75.2189 38.5249C76.0978 39.0097 76.8308 39.7209 77.3419 40.5848C77.853 41.4487 78.1234 42.4336 78.1252 43.4374Z" fill="#2F5BC1"/>
</g>
<defs>
<clipPath id="clip0_3192_83233">
<rect width="60" height="60" fill="white" transform="translate(20 20)"/>
</clipPath>
</defs>
</svg>
