<svg width="93" height="104" viewBox="0 0 93 104" fill="none" xmlns="http://www.w3.org/2000/svg">
<g clip-path="url(#clip0_2910_136493)">
<path d="M59.3869 60.6821C58.4224 60.6821 57.6372 61.4846 57.6372 62.4717V66.324C57.6372 66.943 57.1385 67.4477 56.5264 67.4477C55.9143 67.4477 55.4156 66.9443 55.4156 66.324V60.0913C55.4156 58.863 54.4377 57.8637 53.2366 57.8637C52.2722 57.8637 51.4869 58.6661 51.4869 59.6532V65.9572C51.4869 66.5763 50.9882 67.0809 50.3761 67.0809C49.764 67.0809 49.2653 66.5775 49.2653 65.9572V57.9633C49.2653 56.9763 48.4813 56.1738 47.5168 56.1738C46.5524 56.1738 45.7683 56.9763 45.7683 57.9633V65.823C45.7683 66.4421 45.2696 66.9467 44.6575 66.9467C44.0454 66.9467 43.5467 66.4433 43.5467 65.823V47.9264C43.5467 46.8803 42.7054 46.0286 41.68 46.0273H41.6434C41.1618 46.0273 40.6826 46.2353 40.3302 46.5984C39.9778 46.9615 39.7815 47.4489 39.7913 47.9264V65.0218C39.7913 65.519 39.462 65.9621 38.9902 66.1012C38.889 66.1307 38.7853 66.1455 38.6805 66.1455C38.2988 66.1455 37.9489 65.951 37.7428 65.6249L35.2054 61.588C34.8847 60.9258 34.2129 60.5 33.4825 60.5C33.1691 60.5 32.8607 60.5824 32.5997 60.735C31.7291 61.22 31.3621 62.3326 31.7645 63.2667C31.7694 63.2778 31.7755 63.2901 31.7803 63.3012L34.9884 69.4169C35.0103 69.4575 35.0286 69.5006 35.0457 69.5436L37.955 77.263C39.4742 81.2926 43.359 83.999 47.6229 83.999H53.5988C57.8981 83.999 61.3963 80.4618 61.3963 76.1135V62.7375C61.3963 61.604 60.494 60.6821 59.3857 60.6821H59.3869Z" fill="#2F5BC1"/>
<path d="M72.5123 20H20.4877C20.2183 20 20 20.2203 20 20.4923V30.3311C20 30.6031 20.2183 30.8234 20.4877 30.8234H72.5123C72.7817 30.8234 73 30.6031 73 30.3311V20.4923C73 20.2203 72.7817 20 72.5123 20ZM32.0798 25.4154C32.0798 24.7963 32.5785 24.2917 33.1906 24.2917H53.7885C54.4006 24.2917 54.8993 24.7963 54.8993 25.4154C54.8993 26.0345 54.4006 26.5391 53.7885 26.5391H33.1906C32.5785 26.5391 32.0798 26.0357 32.0798 25.4154ZM59.6448 25.4154C59.6448 24.7151 60.2082 24.1452 60.9007 24.1452C61.5933 24.1452 62.1566 24.7151 62.1566 25.4154C62.1566 26.1157 61.5933 26.6855 60.9007 26.6855C60.2082 26.6855 59.6448 26.1157 59.6448 25.4154ZM66.7132 26.6855C66.0206 26.6855 65.4573 26.1157 65.4573 25.4154C65.4573 24.7151 66.0206 24.1452 66.7132 24.1452C67.4058 24.1452 67.9691 24.7151 67.9691 25.4154C67.9691 26.1157 67.4058 26.6855 66.7132 26.6855Z" fill="#2F5BC1"/>
<path d="M72.5123 33.0703H20.4877C20.2183 33.0703 20 33.2906 20 33.5626V71.5577C20 71.8297 20.2183 72.05 20.4877 72.05H32.9065C33.0674 72.05 33.2174 71.97 33.3076 71.8371C33.3978 71.7042 33.4186 71.5343 33.3625 71.3829L33.0064 70.4389C32.9991 70.4205 32.9906 70.402 32.9821 70.3835L29.7972 64.3109C29.7874 64.2937 29.7789 64.2752 29.7704 64.2555C28.8486 62.2432 29.6216 59.8334 31.5359 58.7639C32.1066 58.4315 32.7736 58.2555 33.4661 58.2555C34.7476 58.2555 35.956 58.8352 36.6973 59.8051C36.7912 59.9282 36.9351 59.9971 37.0838 59.9971C37.1363 59.9971 37.1899 59.9885 37.2411 59.9712C37.4387 59.9035 37.5716 59.7165 37.5716 59.5048V47.9171C37.5496 46.8771 37.98 45.8248 38.7494 45.0309C39.5212 44.2359 40.554 43.7805 41.5855 43.7805C41.6112 43.7805 41.6368 43.7805 41.6721 43.7805C43.9315 43.7817 45.769 45.6414 45.769 47.9257V53.6192C45.769 53.7768 45.8434 53.9232 45.969 54.0168C46.0531 54.0795 46.1543 54.1115 46.2567 54.1115C46.3055 54.1115 46.3555 54.1042 46.4043 54.0882C46.7481 53.9786 47.1103 53.9232 47.4834 53.9232C48.8527 53.9232 50.2183 54.6863 50.8828 55.8223C50.9731 55.9774 51.1352 56.0648 51.3035 56.0648C51.3779 56.0648 51.4535 56.0475 51.5242 56.0119C52.0412 55.7472 52.6094 55.6131 53.2129 55.6131C55.0053 55.6131 56.7331 56.7922 57.3196 58.4168C57.3647 58.5423 57.4586 58.6432 57.5793 58.6974C57.6427 58.7257 57.7098 58.7405 57.7781 58.7405C57.8402 58.7405 57.9012 58.7282 57.9597 58.7048C58.4145 58.5202 58.8937 58.4266 59.3827 58.4266C60.4935 58.4266 61.6006 58.9103 62.42 59.7534C63.2162 60.5731 63.6417 61.6291 63.6198 62.7368V71.5552C63.6198 71.8272 63.8381 72.0475 64.1075 72.0475H72.5123C72.7817 72.0475 73 71.8272 73 71.5552V33.5626C73 33.2906 72.7817 33.0703 72.5123 33.0703ZM49.5745 41.6562L48.3137 42.9214C48.104 43.1319 47.826 43.2475 47.5309 43.2475C47.2359 43.2475 46.953 43.1294 46.7433 42.9152C46.3116 42.4759 46.3141 41.7632 46.7493 41.3263L48.0101 40.0611C48.2198 39.8506 48.4978 39.7349 48.7929 39.7349C49.088 39.7349 49.3709 39.8531 49.5806 40.0672C50.0122 40.5066 50.0098 41.2192 49.5745 41.6562ZM48.7685 47.8125C48.7685 47.1934 49.2672 46.6888 49.8793 46.6888H51.662C52.2741 46.6888 52.7728 47.1934 52.7728 47.8125C52.7728 48.4315 52.2741 48.9362 51.662 48.9362H49.8793C49.2672 48.9362 48.7685 48.4315 48.7685 47.8125ZM40.4479 39.4617V37.6722C40.4479 37.0531 40.9466 36.5485 41.5587 36.5485C42.1708 36.5485 42.6695 37.0531 42.6695 37.6722V39.4617C42.6695 40.0808 42.1708 40.5854 41.5587 40.5854C40.9466 40.5854 40.4479 40.0808 40.4479 39.4617ZM34.3489 47.8125C34.3489 48.4315 33.8502 48.9362 33.2381 48.9362H31.4555C30.8434 48.9362 30.3447 48.4315 30.3447 47.8125C30.3447 47.1934 30.8434 46.6888 31.4555 46.6888H33.2381C33.8502 46.6888 34.3489 47.1934 34.3489 47.8125ZM34.8037 42.9226L33.5429 41.6574C33.1076 41.2205 33.1052 40.5079 33.5368 40.0685C33.7466 39.8543 34.027 39.7362 34.3245 39.7362C34.622 39.7362 34.8976 39.8519 35.1073 40.0623L36.3681 41.3275C36.8034 41.7645 36.8058 42.4771 36.3742 42.9165C36.1645 43.1306 35.884 43.2488 35.5865 43.2488C35.289 43.2488 35.0134 43.1331 34.8037 42.9226Z" fill="#2F5BC1"/>
</g>
<defs>
<clipPath id="clip0_2910_136493">
<rect width="53" height="64" fill="white" transform="translate(20 20)"/>
</clipPath>
</defs>
</svg>
