<svg width="73" height="64" viewBox="0 0 73 64" fill="none" xmlns="http://www.w3.org/2000/svg">
<g clip-path="url(#clip0_2990_13535)">
<path d="M30.206 63.9356C31.5962 63.9356 32.724 62.808 32.724 61.4149V56.375H23.9141V61.4149C23.9141 62.8066 25.0404 63.9356 26.432 63.9356H30.2075H30.206Z" fill="white"/>
<path d="M59.1562 61.4149C59.1562 62.8066 60.2826 63.9356 61.6742 63.9356H65.4496C66.8398 63.9356 67.9676 62.808 67.9676 61.4149V56.375H59.1577V61.4149H59.1562Z" fill="white"/>
<path d="M63.5596 45.0355C64.6022 45.0355 65.4473 44.1894 65.4473 43.1457C65.4473 42.102 64.6022 41.2559 63.5596 41.2559C62.517 41.2559 61.6719 42.102 61.6719 43.1457C61.6719 44.1894 62.517 45.0355 63.5596 45.0355Z" fill="white"/>
<path d="M70.4822 33.6953H21.3968C20.0081 33.6996 18.8832 34.8258 18.8789 36.216V51.3358C18.8832 52.7261 20.0081 53.8522 21.3968 53.8565H70.4836C71.8723 53.8522 72.9973 52.7261 73.0016 51.3358V36.216C72.9973 34.8258 71.8723 33.6996 70.4836 33.6953H70.4822ZM28.319 47.5548C25.8866 47.5548 23.9133 45.5808 23.9133 43.1443C23.9133 40.7078 25.8852 38.7338 28.319 38.7338C30.7528 38.7338 32.7247 40.7078 32.7247 43.1443C32.7218 45.5794 30.7514 47.5519 28.319 47.5548ZM63.56 47.5548C61.1277 47.5548 59.1544 45.5808 59.1544 43.1443C59.1544 40.7078 61.1262 38.7338 63.56 38.7338C65.9938 38.7338 67.9657 40.7078 67.9657 43.1443C67.9629 45.5794 65.9924 47.5519 63.56 47.5548Z" fill="white"/>
<path d="M28.3194 45.0355C29.3619 45.0355 30.2071 44.1894 30.2071 43.1457C30.2071 42.102 29.3619 41.2559 28.3194 41.2559C27.2768 41.2559 26.4316 42.102 26.4316 43.1457C26.4316 44.1894 27.2768 45.0355 28.3194 45.0355Z" fill="white"/>
<path d="M70.4813 31.1746L65.7363 18.2971C64.6342 16.0819 62.3415 14.7131 59.8707 14.7945H32.0052C29.5343 14.7131 27.2431 16.0819 26.1395 18.2971L21.3945 31.1746H27.8134L30.809 20.7422C30.9658 20.2041 31.4577 19.8344 32.0166 19.8344H59.8578C60.4167 19.8344 60.9101 20.2041 61.0655 20.7422L64.061 31.1746H70.4799H70.4813Z" fill="white"/>
<path d="M32.9629 22.3555L30.4336 31.175H61.4458L58.9164 22.3555H32.9644H32.9629Z" fill="white"/>
<path d="M13.8451 47.5556V42.5156H5.03516V47.5556C5.03516 48.9472 6.16152 50.0763 7.55309 50.0763H11.3286C12.7187 50.0763 13.8465 48.9487 13.8465 47.5556H13.8451Z" fill="white"/>
<path d="M16.3623 36.2161C16.358 34.6546 17.0837 33.1802 18.3256 32.2338L22.8938 19.8359H2.51793C1.12922 19.8402 0.00427734 20.9664 0 22.3566V37.4765C0.00427734 38.8667 1.12922 39.9929 2.51793 39.9971H16.3623V36.2175V36.2161ZM9.4401 33.6969C7.65787 33.6969 6.05244 32.6221 5.37092 30.9749C4.68939 29.3278 5.0658 27.4308 6.32619 26.1691C7.58658 24.9073 9.48145 24.5305 11.1268 25.2127C12.7721 25.895 13.8458 27.5036 13.8458 29.2864C13.8429 31.7214 11.8725 33.694 9.4401 33.6969Z" fill="white"/>
<path d="M9.44047 31.1761C10.483 31.1761 11.3282 30.33 11.3282 29.2863C11.3282 28.2426 10.483 27.3965 9.44047 27.3965C8.3979 27.3965 7.55273 28.2426 7.55273 29.2863C7.55273 30.33 8.3979 31.1761 9.44047 31.1761Z" fill="white"/>
<path d="M8.93645 17.3157L11.932 6.88328C12.0888 6.34517 12.5807 5.97549 13.1396 5.97549H40.9809C41.5426 5.96978 42.0374 6.34232 42.1885 6.88328L43.7369 12.2758H49.1863L46.8579 4.98063C45.9298 2.54559 43.5972 0.935547 40.9923 0.935547H13.1268C10.5233 0.935547 8.18934 2.54559 7.26115 4.98063L2.51758 17.3157H8.93645Z" fill="white"/>
<path d="M23.8378 17.2766C25.3334 14.1393 28.5357 12.1781 32.0061 12.2737H41.1183L40.0361 8.49414H14.084L11.5547 17.3137H23.8264L23.8392 17.2766H23.8378Z" fill="white"/>
</g>
<defs>
<clipPath id="clip0_2990_13535">
<rect width="73" height="63" fill="white" transform="translate(0 0.935547)"/>
</clipPath>
</defs>
</svg>
