<svg width="158" height="158" viewBox="0 0 158 158" fill="none" xmlns="http://www.w3.org/2000/svg">
<path d="M62.691 61.5078C62.0396 61.5078 61.5156 62.0388 61.5156 62.6832V65.9402C61.5156 70.1884 64.9709 73.6437 69.2191 73.6437C73.4674 73.6437 76.9227 70.1884 76.9227 65.9402V62.6832C76.9227 62.0318 76.3916 61.5078 75.7473 61.5078H62.7051H62.691Z" fill="#FF8201"/>
<path d="M43.1275 57.3445H114.881C115.305 57.3445 115.702 57.1109 115.907 56.7427C116.12 56.3674 116.106 55.9143 115.886 55.5532L109.004 44.3024C108.083 42.8013 106.653 41.9375 105.088 41.9375H52.9197C51.1496 41.9375 49.5707 42.9146 48.9476 44.3873L42.1221 55.5532C41.9026 55.9143 41.8884 56.3745 42.1008 56.7427C42.3062 57.118 42.7027 57.3445 43.1275 57.3445Z" fill="#FF8201"/>
<path d="M82.2613 61.5078C81.6099 61.5078 81.0859 62.0388 81.0859 62.6832V65.9402C81.0859 70.1884 84.5412 73.6437 88.7895 73.6437C93.0377 73.6437 96.493 70.1884 96.493 65.9402V62.6832C96.493 62.0318 95.9619 61.5078 95.3176 61.5078H82.2755H82.2613Z" fill="#FF8201"/>
<path d="M57.3538 65.948V62.691C57.3538 62.0396 56.8228 61.5156 56.1785 61.5156H43.1363C42.4849 61.5156 41.9609 62.0467 41.9609 62.691V65.948C41.9609 70.1962 45.4162 73.6515 49.6645 73.6515C53.9127 73.6515 57.368 70.1962 57.368 65.948H57.3538Z" fill="#FF8201"/>
<path d="M114.874 61.5078H101.832C101.18 61.5078 100.656 62.0388 100.656 62.6832V65.9402C100.656 70.1884 104.111 73.6437 108.36 73.6437C112.608 73.6437 116.063 70.1884 116.063 65.9402V62.6832C116.063 62.0318 115.532 61.5078 114.888 61.5078H114.874Z" fill="#FF8201"/>
<path d="M88.7911 94.1211H69.2066C68.5575 94.1211 68.0312 94.6473 68.0312 95.2964V114.881C68.0312 115.53 68.5575 116.056 69.2066 116.056H88.7911C89.4402 116.056 89.9664 115.53 89.9664 114.881V95.2964C89.9664 94.6473 89.4402 94.1211 88.7911 94.1211Z" fill="#FF8201"/>
<path d="M108.361 77.8154C105.012 77.8154 101.769 76.2931 99.4606 73.638C99.234 73.3831 98.9154 73.2344 98.5685 73.2344C98.2215 73.2344 97.9029 73.3831 97.6763 73.638C95.3681 76.2931 92.1253 77.8154 88.7833 77.8154C85.4413 77.8154 82.1985 76.2931 79.8903 73.638C79.6637 73.3831 79.3451 73.2344 78.9981 73.2344C78.6512 73.2344 78.3326 73.3831 78.106 73.638C75.7978 76.2931 72.5549 77.8154 69.2059 77.8154C65.8568 77.8154 62.614 76.2931 60.3129 73.645C60.0863 73.3901 59.7677 73.2415 59.4207 73.2415C59.0738 73.2415 58.7552 73.3901 58.5286 73.645C56.2204 76.2931 52.9775 77.8154 49.6285 77.8154C48.9771 77.8154 48.4531 78.3465 48.4531 78.9908V111.603C48.4531 112.793 48.9063 113.912 49.7488 114.754C50.5914 115.597 51.7101 116.064 52.9138 116.064H62.6848C63.3362 116.064 63.8602 115.533 63.8602 114.889V92.0329C63.8602 90.9567 64.6673 90.0646 65.6798 89.9655H65.786H65.8922C65.9135 89.9655 92.0403 89.9655 92.0403 89.9655C93.1873 89.9655 94.1149 90.893 94.122 92.0329V114.889C94.122 115.54 94.653 116.064 95.2973 116.064H105.09C106.279 116.064 107.398 115.597 108.233 114.754C109.069 113.912 109.529 112.793 109.529 111.61V78.9979C109.529 78.3465 108.998 77.8225 108.354 77.8225L108.361 77.8154Z" fill="#FF8201"/>
</svg>
