<svg width="124" height="124" viewBox="0 0 124 124" fill="none" xmlns="http://www.w3.org/2000/svg">
<g clip-path="url(#clip0_2981_26848)">
<path d="M61.5449 0.539062C27.5786 0.539062 0.0449219 28.0728 0.0449219 62.0391C0.0449219 96.0053 27.5786 123.539 61.5449 123.539C95.5112 123.539 123.045 96.0053 123.045 62.0391C123.045 28.0728 95.5112 0.539062 61.5449 0.539062ZM78.1025 19.0891L78.1602 18.9399C78.4684 18.1426 79.3751 17.7588 80.1606 18.0929C80.1804 18.1008 80.2003 18.1108 80.2222 18.1187C81.0096 18.4548 81.3616 19.3754 80.9997 20.1489L80.9321 20.2941C80.5861 21.0357 79.7132 21.3619 78.9595 21.0397C78.9496 21.0357 78.9397 21.0318 78.9317 21.0278C78.1781 20.7077 77.8063 19.8526 78.1025 19.0871V19.0891ZM72.2307 17.2617L72.2685 17.1066C72.4673 16.2755 73.3144 15.7744 74.1376 15.9991C74.1595 16.005 74.1814 16.011 74.2012 16.017C75.0264 16.2436 75.4997 17.1086 75.2452 17.9239L75.1974 18.075C74.9529 18.8564 74.1336 19.2959 73.3422 19.0791C73.3323 19.0771 73.3224 19.0732 73.3124 19.0712C72.521 18.8544 72.0398 18.0571 72.2307 17.2597V17.2617ZM66.168 16.2436L66.1839 16.0866C66.2674 15.2415 67.033 14.6251 67.8761 14.7364C67.9059 14.7404 67.9357 14.7444 67.9655 14.7483C68.8086 14.8617 69.3853 15.6571 69.2441 16.4962L69.2183 16.6513C69.083 17.4606 68.3274 18.0054 67.5142 17.896C67.5042 17.896 67.4943 17.894 67.4844 17.892C66.6731 17.7827 66.0885 17.0589 66.17 16.2436H66.168ZM61.5131 14.3169C61.5449 14.3169 61.5747 14.3169 61.6066 14.3169C62.4556 14.3169 63.1317 15.0307 63.1019 15.8798L63.0959 16.0388C63.0681 16.8581 62.392 17.5003 61.5708 17.4983C61.5608 17.4983 61.5489 17.4983 61.539 17.4983C60.7197 17.4983 60.0456 16.8561 60.0178 16.0388L60.0118 15.8798C59.984 15.0307 60.6601 14.3188 61.5091 14.3169H61.5131ZM55.1501 14.7424C55.182 14.7384 55.2118 14.7344 55.2436 14.7305C56.0867 14.6191 56.8503 15.2355 56.9338 16.0806L56.9497 16.2397C57.0312 17.0549 56.4466 17.7807 55.6333 17.8881C55.6234 17.8881 55.6115 17.8901 55.6015 17.892C54.7883 18.0014 54.0346 17.4546 53.8974 16.6453L53.8716 16.4862C53.7304 15.6491 54.3071 14.8537 55.1482 14.7404L55.1501 14.7424ZM48.9125 16.013C48.9343 16.007 48.9562 16.0011 48.9781 15.9951C49.8033 15.7704 50.6503 16.2735 50.8472 17.1046L50.883 17.2577C51.0719 18.0551 50.5907 18.8525 49.7993 19.0692C49.7894 19.0712 49.7794 19.0752 49.7675 19.0772C48.9761 19.2939 48.1569 18.8544 47.9123 18.071L47.8665 17.9199C47.614 17.1046 48.0873 16.2397 48.9105 16.015L48.9125 16.013ZM42.8915 18.1088C42.9114 18.1008 42.9313 18.0909 42.9531 18.0829C43.7406 17.7489 44.6473 18.1346 44.9535 18.932L45.0112 19.0791C45.3055 19.8427 44.9356 20.6977 44.18 21.0179C44.1701 21.0218 44.1601 21.0258 44.1522 21.0298C43.3986 21.3499 42.5256 21.0238 42.1796 20.2801L42.112 20.137C41.7521 19.3615 42.1061 18.4428 42.8915 18.1088ZM40.2767 51.1703C43.0486 51.1007 49.5269 51.4229 53.3864 55.2824C57.23 59.128 57.5522 65.6023 57.4965 68.3941C54.7028 68.4418 48.2304 68.1256 44.3848 64.282C40.5392 60.4364 40.2191 53.9601 40.2767 51.1703ZM32.9116 44.5409C32.9116 45.4198 32.1978 46.1317 31.3209 46.1317H28.1394C27.2605 46.1317 26.5486 46.8435 26.5486 47.7224V95.4446C26.5486 96.3235 25.8348 97.0353 24.9579 97.0353C24.081 97.0353 23.3672 96.3235 23.3672 95.4446V47.7224C23.3672 46.8435 22.6553 46.1317 21.7764 46.1317H18.5949C17.718 46.1317 17.0042 45.4198 17.0042 44.5409V28.6335C17.0042 27.7546 17.718 27.0428 18.5949 27.0428C19.4718 27.0428 20.1857 27.7546 20.1857 28.6335V38.178C20.1857 39.0568 20.8975 39.7687 21.7764 39.7687C22.6553 39.7687 23.3672 39.0568 23.3672 38.178V28.6335C23.3672 27.7546 24.081 27.0428 24.9579 27.0428C25.8348 27.0428 26.5486 27.7546 26.5486 28.6335V38.178C26.5486 39.0568 27.2605 39.7687 28.1394 39.7687C29.0183 39.7687 29.7301 39.0568 29.7301 38.178V28.6335C29.7301 27.7546 30.444 27.0428 31.3209 27.0428C32.1978 27.0428 32.9116 27.7546 32.9116 28.6335V44.5409ZM39.4118 102.392L39.3342 102.533C38.9246 103.277 37.9801 103.541 37.2503 103.11C37.2245 103.094 37.1986 103.08 37.1728 103.064C36.443 102.631 36.2243 101.672 36.6817 100.957L36.7691 100.821C37.2106 100.131 38.1193 99.9245 38.8252 100.342C38.8331 100.348 38.8431 100.352 38.851 100.358C39.5569 100.778 39.8094 101.674 39.4138 102.392H39.4118ZM38.8709 23.7042C38.8709 23.7042 38.853 23.7142 38.8451 23.7201C38.1412 24.1397 37.2324 23.9329 36.791 23.2429L36.7055 23.1097C36.2442 22.3899 36.4709 21.4314 37.2046 20.994C37.2245 20.9821 37.2424 20.9721 37.2623 20.9602C37.998 20.5247 38.9485 20.7832 39.3601 21.5329L39.4356 21.672C39.8293 22.3899 39.5768 23.2866 38.8709 23.7042ZM44.9873 104.989L44.9296 105.138C44.6214 105.936 43.7147 106.319 42.9293 105.985C42.9094 105.977 42.8895 105.967 42.8676 105.959C42.0802 105.623 41.7283 104.703 42.0902 103.929L42.1578 103.784C42.5038 103.042 43.3767 102.716 44.1303 103.038C44.1402 103.042 44.1502 103.046 44.1581 103.05C44.9117 103.37 45.2836 104.225 44.9873 104.991V104.989ZM50.8611 106.814L50.8233 106.97C50.6245 107.801 49.7774 108.302 48.9542 108.077C48.9323 108.071 48.9105 108.065 48.8906 108.059C48.0654 107.832 47.5941 106.968 47.8487 106.152L47.8964 105.999C48.1409 105.218 48.9602 104.778 49.7516 104.995C49.7615 104.997 49.7715 105.001 49.7814 105.003C50.5708 105.22 51.054 106.017 50.8631 106.814H50.8611ZM56.9198 107.834L56.9039 107.992C56.8204 108.837 56.0549 109.453 55.2118 109.342C55.182 109.338 55.1521 109.334 55.1223 109.33C54.2812 109.216 53.7046 108.421 53.8438 107.584L53.8696 107.429C54.0048 106.62 54.7604 106.075 55.5737 106.184C55.5836 106.184 55.5936 106.186 55.6035 106.188C56.4148 106.297 56.9994 107.021 56.9179 107.836L56.9198 107.834ZM57.4965 93.5874C54.7067 93.659 48.2443 93.3329 44.3848 89.4753C40.5392 85.6297 40.2191 79.1514 40.2767 76.3637C43.0526 76.2961 49.5269 76.6182 53.3864 80.4777C57.232 84.3233 57.5541 90.7996 57.4965 93.5894V93.5874ZM61.5728 109.761H61.5449C61.525 109.761 61.5032 109.761 61.4833 109.761C60.6342 109.761 59.9582 109.047 59.986 108.2L59.992 108.041C60.0198 107.222 60.6959 106.58 61.5151 106.58C61.527 106.58 61.537 106.58 61.5489 106.58C62.3681 106.58 63.0422 107.222 63.07 108.039L63.076 108.2C63.1038 109.051 62.4258 109.761 61.5747 109.761H61.5728ZM63.1357 95.4446C63.1357 96.3593 62.3602 97.095 61.4336 97.0314C60.5905 96.9737 59.9542 96.234 59.9542 95.3889V51.9597C59.9542 51.0809 60.666 50.369 61.5449 50.369C62.4238 50.369 63.1357 51.0809 63.1357 51.9597V95.4466V95.4446ZM61.5449 47.7224C60.8768 47.7224 60.2425 47.4321 59.805 46.927C57.7112 44.5091 55.1839 40.7351 55.1839 36.5872C55.1839 31.1509 59.5326 26.3468 61.5469 24.4121C63.5612 26.3468 67.9099 31.1529 67.9099 36.5872C67.9099 40.7351 65.3806 44.5091 63.2868 46.927C62.8493 47.4321 62.215 47.7224 61.5469 47.7224H61.5449ZM67.9218 109.336C67.9019 109.338 67.882 109.342 67.8621 109.344C67.0111 109.457 66.2376 108.833 66.1521 107.98L66.1402 107.866C66.0586 107.039 66.6452 106.297 67.4684 106.186C68.2916 106.075 69.0552 106.639 69.1924 107.459L69.2103 107.57C69.3515 108.417 68.7709 109.22 67.9198 109.336H67.9218ZM74.1774 108.065C74.1555 108.071 74.1336 108.077 74.1118 108.083C73.2886 108.308 72.4415 107.807 72.2426 106.975L72.2069 106.822C72.018 106.025 72.4992 105.228 73.2905 105.011C73.3005 105.009 73.3104 105.005 73.3224 105.003C74.1138 104.786 74.933 105.226 75.1776 106.009L75.2233 106.16C75.4758 106.975 75.0026 107.84 74.1794 108.065H74.1774ZM80.1844 105.975C80.1745 105.979 80.1645 105.983 80.1546 105.989C79.3552 106.327 78.4445 105.942 78.1324 105.132L78.0906 105.025C77.7923 104.249 78.1602 103.378 78.9258 103.054C79.6893 102.73 80.5742 103.07 80.9241 103.822L80.9718 103.925C81.3377 104.713 80.9838 105.635 80.1844 105.975ZM78.7011 89.4753C74.8554 93.321 68.3752 93.6292 65.5894 93.5854C65.5277 90.7977 65.8439 84.3353 69.7014 80.4757C73.5451 76.6321 80.0293 76.3159 82.8111 76.3637C82.8688 79.1554 82.5447 85.6317 78.703 89.4753H78.7011ZM78.7011 64.282C74.8554 68.1256 68.3672 68.4338 65.5894 68.3941C65.5277 65.6063 65.8439 59.1419 69.7014 55.2824C73.5471 51.4368 80.0234 51.1206 82.8131 51.1723C82.8728 53.9601 82.5586 60.4225 78.7011 64.282ZM85.9131 103.068C85.8773 103.09 85.8395 103.112 85.8037 103.134C85.0779 103.563 84.1533 103.311 83.7477 102.573L83.6502 102.394C83.2625 101.688 83.5051 100.799 84.1971 100.388L84.2706 100.344C84.9646 99.9325 85.8574 100.143 86.2929 100.823L86.4022 100.994C86.8576 101.704 86.6369 102.637 85.9131 103.07V103.068ZM86.4082 23.1216L86.3227 23.2548C85.8813 23.9448 84.9725 24.1516 84.2667 23.7321L84.2408 23.7161C83.5349 23.2966 83.2824 22.3998 83.6781 21.682L83.7556 21.5428C84.1652 20.7991 85.1097 20.5347 85.8395 20.9662C85.8653 20.9821 85.8912 20.996 85.917 21.0119C86.6468 21.4454 86.8655 22.4038 86.4082 23.1196V23.1216ZM100.633 48.7266C100.077 48.989 99.7227 49.5498 99.7227 50.1642V95.4446C99.7227 96.3235 99.0088 97.0353 98.1319 97.0353C97.2551 97.0353 96.5412 96.3235 96.5412 95.4446V50.1642C96.5412 49.5478 96.1873 48.989 95.6305 48.7266C92.3695 47.1875 90.1782 42.9482 90.1782 38.178C90.1782 32.0397 93.7455 27.0428 98.1319 27.0428C102.518 27.0428 106.086 32.0397 106.086 38.178C106.086 42.9462 103.894 47.1855 100.633 48.7266Z" fill="#FF8201"/>
</g>
<defs>
<clipPath id="clip0_2981_26848">
<rect width="123" height="123" fill="white" transform="translate(0.0449219 0.539062)"/>
</clipPath>
</defs>
</svg>
