<svg width="100" height="100" viewBox="0 0 100 100" fill="none" xmlns="http://www.w3.org/2000/svg">
<path fill-rule="evenodd" clip-rule="evenodd" d="M26.4688 59.7731H73.5921V36.9385C73.5921 36.6403 73.4715 36.3601 73.2739 36.1569C73.0879 35.9655 72.8322 35.8438 72.5459 35.8438H64.5566V53.8985C64.5566 54.7614 64.2126 55.5841 63.6029 56.1937C62.9933 56.8034 62.1707 57.1474 61.3077 57.1474H38.7532C37.8903 57.1474 37.0676 56.8034 36.4579 56.1936C35.8483 55.584 35.5043 54.7614 35.5043 53.8985V35.8438H27.515C27.2021 35.8438 26.9493 35.9577 26.7743 36.1377C26.5788 36.3388 26.4688 36.6268 26.4688 36.9385V59.7731Z" fill="#0F316A"/>
<path d="M40.4297 74.2793H59.5653V76.4311H40.4297V74.2793Z" fill="#2F5BC1"/>
<path fill-rule="evenodd" clip-rule="evenodd" d="M73.5921 61.0645H26.4688V64.4711C26.4688 64.7825 26.5721 65.0521 26.7561 65.2362C26.9312 65.4112 27.1903 65.5173 27.515 65.5173H72.5459C72.8436 65.5173 73.106 65.4039 73.2923 65.2176C73.4787 65.0312 73.5921 64.7689 73.5921 64.4711V61.0645ZM58.4723 62.6453H59.8293C60.1858 62.6453 60.4748 62.9344 60.4748 63.2909C60.4748 63.6473 60.1858 63.9364 59.8293 63.9364H58.4723C58.1159 63.9364 57.8268 63.6474 57.8268 63.2909C57.8268 62.9344 58.1159 62.6453 58.4723 62.6453ZM63.3976 62.6453H64.7545C65.111 62.6453 65.4001 62.9344 65.4001 63.2909C65.4001 63.6473 65.111 63.9364 64.7545 63.9364H63.3976C63.0411 63.9364 62.7521 63.6474 62.7521 63.2909C62.7521 62.9344 63.0411 62.6453 63.3976 62.6453ZM68.2279 62.6453H69.6798C70.0363 62.6453 70.3253 62.9344 70.3253 63.2909C70.3253 63.6473 70.0363 63.9364 69.6798 63.9364H68.2279C67.8713 63.9364 67.5823 63.6474 67.5823 63.2909C67.5823 62.9344 67.8713 62.6453 68.2279 62.6453Z" fill="#2F5BC1"/>
<path fill-rule="evenodd" clip-rule="evenodd" d="M53.7549 66.8086H46.528L45.0469 72.9878H55.0131L53.7549 66.8086Z" fill="#2F5BC1"/>
<path fill-rule="evenodd" clip-rule="evenodd" d="M57.0386 30.5721C56.6556 30.5721 56.3451 30.2616 56.3451 29.8787V23.748H38.7526C38.2413 23.748 37.7759 23.9578 37.4381 24.2955C37.1004 24.6333 36.8906 25.0988 36.8906 25.6101V53.8993C36.8906 54.4106 37.1004 54.876 37.4381 55.2138C37.7759 55.5516 38.2414 55.7613 38.7526 55.7613H61.3072C61.8185 55.7613 62.2838 55.5516 62.6216 55.2138C62.9595 54.876 63.1692 54.4106 63.1692 53.8993V30.5721H57.0386ZM47.8279 35.0401C47.8279 34.6571 48.1384 34.3466 48.5214 34.3466H59.7363C60.1193 34.3466 60.4298 34.6571 60.4298 35.0401C60.4298 35.4231 60.1193 35.7336 59.7363 35.7336H48.5214C48.1384 35.7336 47.8279 35.423 47.8279 35.0401ZM39.8332 34.5498C40.1039 34.279 40.543 34.279 40.8138 34.5498L41.7992 35.5351L44.2602 33.0741C44.5309 32.8033 44.97 32.8033 45.2408 33.0741C45.5116 33.3449 45.5116 33.784 45.2408 34.0547L42.292 37.0036L42.2895 37.0061C42.0187 37.2769 41.5796 37.2769 41.3088 37.0061L39.8331 35.5304C39.5624 35.2596 39.5624 34.8205 39.8332 34.5498ZM47.8279 42.1305C47.8279 41.7475 48.1384 41.437 48.5214 41.437H56.0508C56.4337 41.437 56.7442 41.7475 56.7442 42.1305C56.7442 42.5135 56.4337 42.824 56.0508 42.824H48.5214C48.1384 42.824 47.8279 42.5135 47.8279 42.1305ZM39.8332 41.6402C40.1039 41.3694 40.543 41.3694 40.8138 41.6402L41.7992 42.6255L44.2602 40.1645C44.5309 39.8937 44.97 39.8937 45.2408 40.1645C45.5116 40.4353 45.5116 40.8744 45.2408 41.1452L42.292 44.094L42.2895 44.0965C42.0187 44.3673 41.5796 44.3673 41.3088 44.0965L39.8331 42.6208C39.5624 42.35 39.5624 41.911 39.8332 41.6402ZM47.8279 49.2209C47.8279 48.8379 48.1384 48.5274 48.5214 48.5274H58.815C59.1979 48.5274 59.5084 48.8379 59.5084 49.2209C59.5084 49.6039 59.1979 49.9143 58.815 49.9143H48.5214C48.1384 49.9143 47.8279 49.6039 47.8279 49.2209ZM39.8332 48.7306C40.1039 48.4598 40.543 48.4598 40.8138 48.7306L41.7992 49.716L44.2602 47.2549C44.5309 46.9842 44.97 46.9842 45.2408 47.2549C45.5116 47.5257 45.5116 47.9648 45.2408 48.2355L42.292 51.1844L42.2895 51.1869C42.0187 51.4577 41.5796 51.4577 41.3088 51.1869L39.8331 49.7112C39.5624 49.4404 39.5624 49.0013 39.8332 48.7306Z" fill="#2F5BC1"/>
<path d="M57.7344 24.7285V29.185H62.1909L57.7344 24.7285Z" fill="#2F5BC1"/>
</svg>
