<svg width="99" height="99" viewBox="0 0 99 99" fill="none" xmlns="http://www.w3.org/2000/svg">
<g clip-path="url(#clip0_2910_131841)">
<path d="M66.9312 26.705V44.137H72.2948V23.1068C72.2948 21.3914 70.9044 20 69.188 20H37.8568C36.1403 20 34.75 21.3914 34.75 23.1068V25.3635H65.5909C66.3312 25.3635 66.9323 25.9636 66.9323 26.705H66.9312Z" fill="#2F5BC1"/>
<path d="M77.6597 46.8187C43.0239 46.8187 44.9545 47.1133 44.3653 46.2154C39.3768 38.7734 39.6453 38.7734 38.68 38.7734H21.3414C20.6011 38.7734 20 39.3735 20 40.1149V77.6607C20 78.401 20.6001 79.0021 21.3414 79.0021H77.6597C78.3999 79.0021 79.0011 78.4021 79.0011 77.6607V48.1602C79.0011 47.4199 78.401 46.8187 77.6597 46.8187Z" fill="#2F5BC1"/>
<path d="M42.0306 37.8891L46.2006 44.1375H64.249V28.0469H29.0968C27.775 28.0469 26.7031 29.1187 26.7031 30.4406V36.0933H38.6771C40.025 36.0933 41.2838 36.7672 42.0295 37.8902L42.0306 37.8891ZM48.1584 32.0701H58.8854C59.6257 32.0701 60.2269 32.6701 60.2269 33.4115C60.2269 34.1529 59.6268 34.7529 58.8854 34.7529H48.1584C47.4181 34.7529 46.8169 34.1529 46.8169 33.4115C46.8169 32.6701 47.417 32.0701 48.1584 32.0701ZM48.1584 37.4336H58.8854C59.6257 37.4336 60.2269 38.0337 60.2269 38.775C60.2269 39.5164 59.6268 40.1165 58.8854 40.1165H48.1584C47.4181 40.1165 46.8169 39.5164 46.8169 38.775C46.8169 38.0337 47.417 37.4336 48.1584 37.4336Z" fill="#2F5BC1"/>
</g>
<defs>
<clipPath id="clip0_2910_131841">
<rect width="59" height="59" fill="white" transform="translate(20 20)"/>
</clipPath>
</defs>
</svg>
