<svg width="110" height="110" viewBox="0 0 110 110" fill="none" xmlns="http://www.w3.org/2000/svg">
<path d="M54.9132 39.2843C53.9015 39.7742 52.8991 40.453 51.9693 41.3839C47.3084 46.0457 43.0715 50.2827 43.0715 50.2827L43.0733 50.2854C43.048 50.3108 43.0225 50.3316 42.9971 50.3579C41.7907 51.5652 41.7429 53.4899 42.857 54.7528C42.9011 54.8035 42.9483 54.8534 42.9971 54.9013C44.2496 56.1555 46.2833 56.1586 47.5406 54.9013L52.4347 50.0072C53.279 50.3166 54.1092 50.497 54.9057 50.5873C55.9909 50.7076 57.0101 50.6625 57.9165 50.5346C60.1262 50.2215 59.8949 50.3127 61.1765 49.8915C62.4552 49.4721 63.892 48.6126 63.892 48.6126L64.7618 49.4815C64.8576 49.5746 67.0749 51.7954 68.206 52.9247C68.4063 53.1259 68.5764 53.2914 68.6903 53.41C68.821 53.5463 68.9667 53.645 69.0569 53.7766L74.7004 59.4203C76.3271 57.5951 78.1851 54.8768 77.9557 51.7561L63.8542 37.6565C63.8542 37.6565 58.9732 37.3078 54.9132 39.2843Z" fill="#2F5BC1"/>
<path d="M55.6992 73.9191C54.4504 72.6686 52.4233 72.6686 51.1737 73.9191L50.2448 74.848C51.4916 73.5995 51.4906 71.5769 50.242 70.3273C48.9924 69.0796 46.968 69.0796 45.7184 70.3282C46.968 69.0796 46.968 67.0552 45.7184 65.8046C44.4697 64.5539 42.4444 64.556 41.1947 65.8046C42.4444 64.556 42.4444 62.5306 41.1947 61.2799C39.946 60.0314 37.9207 60.0314 36.671 61.2818L33.8737 64.0781C32.6241 65.3287 32.6241 67.3521 33.8737 68.6027C35.1224 69.8515 37.1469 69.8515 38.3964 68.6027C37.1468 69.8515 37.1468 71.8767 38.3964 73.1263C39.647 74.375 41.6713 74.375 42.921 73.1263C41.6713 74.375 41.6713 76.3995 42.921 77.6501C44.1706 78.8987 46.195 78.8987 47.4447 77.6501L48.3747 76.7191C47.1279 77.9697 47.1288 79.9922 48.3774 81.2419C49.627 82.4904 51.6514 82.4904 52.9012 81.2419L55.6994 78.4436C56.9479 77.1922 56.9479 75.1678 55.6992 73.9191Z" fill="#2F5BC1"/>
<path d="M89.4513 44.3755L72.9843 27.9066C72.2527 27.177 71.07 27.177 70.3403 27.9066L65.0587 33.1881C64.3291 33.9177 64.3291 35.1006 65.0587 35.8313L81.5276 52.2992C82.2563 53.0306 83.4411 53.0306 84.1698 52.2992L89.4513 47.0166C90.1828 46.289 90.1828 45.1061 89.4513 44.3755ZM84.7574 48.0275C83.9713 48.8117 82.7001 48.8117 81.9168 48.0275C81.1327 47.2423 81.1327 45.9711 81.9168 45.1869C82.7001 44.4027 83.9713 44.4027 84.7574 45.1869C85.5417 45.9711 85.5407 47.2423 84.7574 48.0275Z" fill="#2F5BC1"/>
<path d="M44.9398 33.6549L39.6592 28.3734C38.9296 27.6438 37.7458 27.6438 37.0161 28.3734L20.5473 44.8422C19.8176 45.5699 19.8176 46.7547 20.5473 47.4834L25.8288 52.7668C26.5575 53.4956 27.7432 53.4956 28.4709 52.7668L44.9398 36.2979C45.6704 35.5682 45.6704 34.3854 44.9398 33.6549ZM28.0825 48.4942C27.2983 49.2774 26.0263 49.2774 25.2419 48.4942C24.4578 47.7091 24.4578 46.4378 25.2419 45.6536C26.0261 44.8695 27.2983 44.8695 28.0825 45.6536C28.8667 46.4378 28.8667 47.709 28.0825 48.4942Z" fill="#2F5BC1"/>
<path d="M74.3494 62.7681L73.3283 61.7451L63.415 51.8318L62.7474 52.1279L62.0206 52.3903L61.9681 52.4063C61.8401 52.4468 60.6441 52.8125 58.286 53.1462C57.0391 53.3203 55.8037 53.3419 54.6077 53.2055C54.1348 53.1529 53.6646 53.0757 53.2001 52.9742L49.4052 56.7673C47.125 59.0475 43.412 59.0475 41.1318 56.7673C41.0518 56.6865 40.9747 56.6046 40.9033 56.5238L40.8788 56.4965C39.4393 54.8642 39.0736 52.6301 39.7506 50.6913L41.2098 48.4205L41.2071 48.4178L50.1049 39.521C50.4668 39.1599 50.8467 38.8233 51.2416 38.5054C48.4688 37.961 46.1425 38.1218 46.1425 38.1218L32.0438 52.223C31.8539 54.819 33.6367 57.6642 34.905 59.3258C37.1871 57.1433 40.8166 57.1716 43.0591 59.4152C43.894 60.2492 44.4197 61.2769 44.6415 62.3544C45.7209 62.5782 46.7478 63.1029 47.5827 63.9378C48.4176 64.7737 48.9433 65.8014 49.1652 66.8799C50.2437 67.1018 51.2723 67.6264 52.1064 68.4614C52.664 69.019 53.0843 69.6622 53.3673 70.3505C54.8848 70.3318 56.4082 70.8996 57.5629 72.0533C59.8393 74.3278 59.8383 78.0324 57.5629 80.3061L56.632 81.2388L57.0983 81.7053C58.349 82.9558 60.3733 82.9558 61.623 81.7053C62.8726 80.4565 62.8726 78.4312 61.623 77.1815L62.5538 78.1153C63.8044 79.3639 65.8278 79.3639 67.0774 78.1153C68.327 76.8647 68.328 74.8403 67.0774 73.5898C68.328 74.8403 70.3514 74.8403 71.601 73.5898C72.8498 72.3421 72.8526 70.3167 71.601 69.066C72.8526 70.3167 74.876 70.3167 76.1248 69.066C77.3753 67.8175 77.3753 65.792 76.1248 64.5434L74.3494 62.7681Z" fill="#2F5BC1"/>
</svg>
