<svg width="1100" height="402" viewBox="0 0 1100 402" fill="none" xmlns="http://www.w3.org/2000/svg">
<g clip-path="url(#clip0_2938_10941)">
<rect width="1100" height="401.25" transform="translate(0 0.355469)" fill="white"/>
<g filter="url(#filter0_d_2938_10941)">
<rect x="286.25" y="339.105" width="772.5" height="62.5" rx="12.5" fill="url(#paint0_linear_2938_10941)"/>
</g>
<path d="M576.837 373.018H579.621V375.079H587.59V373.018H590.395V381.284H576.837V373.018ZM579.621 377.247V379.032H587.59V377.247H579.621ZM576.901 362.605H589.375V364.858H576.901V362.605ZM574.734 369.49H592.541V371.764H574.734V369.49ZM587.675 362.605H590.459V364.178C590.459 365.814 590.459 367.514 589.906 369.979L587.059 370.17C587.675 367.642 587.675 365.835 587.675 364.178V362.605ZM598.872 362.712H601.209V364.603C601.209 368.322 599.403 371.7 595.557 372.933L594.176 370.702C597.491 369.639 598.872 367.089 598.872 364.603V362.712ZM599.446 362.712H601.762V364.603C601.762 367.025 603.122 369.405 606.331 370.383L604.949 372.593C601.188 371.403 599.446 368.258 599.446 364.603V362.712ZM597.193 374.42H610.623V381.497H607.776V376.673H597.193V374.42ZM607.776 361.819H610.623V373.549H607.776V361.819ZM618.611 363.328H620.906V366.197C620.906 371.254 619.164 375.823 615.254 377.629L613.575 375.292C616.996 373.804 618.611 370.022 618.611 366.197V363.328ZM619.164 363.328H621.459V366.197C621.459 369.83 623.01 373.443 626.368 374.888L624.71 377.162C620.906 375.419 619.164 371.042 619.164 366.197V363.328ZM627.303 361.798H630.15V381.539H627.303V361.798ZM643.409 364.688H648.254V366.94H643.409V364.688ZM647 361.819H649.826V371.807H647V361.819ZM636.821 372.635H649.826V377.927H639.647V380.392H636.864V375.887H647.021V374.803H636.821V372.635ZM636.864 379.095H650.379V381.284H636.864V379.095ZM637.862 362.457H640.157V363.859C640.157 367.578 638.415 370.787 634.654 371.977L633.209 369.745C636.481 368.768 637.862 366.367 637.862 363.859V362.457ZM638.415 362.457H640.71V363.859C640.71 366.197 642.027 368.47 645.13 369.405L643.685 371.594C640.094 370.425 638.415 367.387 638.415 363.859V362.457ZM652.906 363.54H664.487V365.772H652.906V363.54ZM658.707 366.388C661.533 366.388 663.531 367.854 663.531 370.022C663.531 372.189 661.533 373.634 658.707 373.634C655.859 373.634 653.862 372.189 653.862 370.022C653.862 367.854 655.859 366.388 658.707 366.388ZM658.707 368.513C657.432 368.513 656.582 369.023 656.582 370.022C656.582 370.999 657.432 371.509 658.707 371.509C659.961 371.509 660.832 370.999 660.832 370.022C660.832 369.023 659.961 368.513 658.707 368.513ZM665.571 361.819H668.397V374.165H665.571V361.819ZM667.611 366.898H671.011V369.193H667.611V366.898ZM655.264 374.973H668.397V381.497H665.571V377.225H655.264V374.973ZM657.283 361.713H660.109V364.815H657.283V361.713ZM674.197 363.477H686.649V365.75H674.197V363.477ZM672.475 376.843H690.262V379.138H672.475V376.843ZM676.194 370.638H678.999V377.565H676.194V370.638ZM685.82 363.477H688.668V365.41C688.668 367.79 688.668 370.51 687.967 374.505L685.162 374.229C685.82 370.489 685.82 367.727 685.82 365.41V363.477ZM681.06 370.638H683.844V377.565H681.06V370.638ZM698.272 362.988H707.813V371.318H698.272V362.988ZM705.051 365.198H701.035V369.108H705.051V365.198ZM710.788 361.819H713.636V372.975H710.788V361.819ZM705.54 375.504H707.962V375.759C707.962 378.564 705.242 380.987 700.206 381.454L699.292 379.329C703.606 378.968 705.54 377.204 705.54 375.759V375.504ZM706.007 375.504H708.451V375.759C708.451 377.14 710.406 378.947 714.677 379.329L713.763 381.454C708.706 380.987 706.007 378.479 706.007 375.759V375.504ZM700.057 374.038H713.912V376.142H700.057V374.038ZM705.561 372.444H708.451V375.015H705.561V372.444ZM726.109 374.25H728.999V381.497H726.109V374.25ZM732.909 374.25H735.799V381.497H732.909V374.25ZM722.093 372.763H739.921V375.037H722.093V372.763ZM730.954 362.478C735.161 362.478 738.073 364.199 738.073 366.898C738.073 369.554 735.161 371.275 730.954 371.275C726.768 371.275 723.856 369.554 723.856 366.898C723.856 364.199 726.768 362.478 730.954 362.478ZM730.954 364.73C728.383 364.73 726.746 365.495 726.746 366.898C726.746 368.279 728.383 369.044 730.954 369.044C733.546 369.044 735.161 368.279 735.161 366.898C735.161 365.495 733.546 364.73 730.954 364.73ZM755.156 361.819H758.004V381.497H755.156V361.819ZM746.486 366.919H748.717V367.939C748.717 372.104 746.869 376.29 743.235 377.863L741.726 375.695C744.956 374.25 746.486 370.914 746.486 367.939V366.919ZM747.102 366.919H749.312V367.939C749.312 370.765 750.864 373.995 754.115 375.377L752.606 377.544C748.972 376.035 747.102 371.977 747.102 367.939V366.919ZM742.385 365.028H753.329V367.259H742.385V365.028ZM746.486 362.265H749.312V366.175H746.486V362.265ZM766.311 371.913H769.137V376.227H766.311V371.913ZM774.938 361.819H777.764V376.715H774.938V361.819ZM763.591 378.904H778.189V381.157H763.591V378.904ZM763.591 375.313H766.417V379.499H763.591V375.313ZM761.466 372.763L761.126 370.51C764.717 370.51 769.519 370.468 773.642 369.937L773.812 371.955C769.626 372.657 765.014 372.763 761.466 372.763ZM771.219 373.252H775.554V375.185H771.219V373.252ZM767.458 362.499C770.327 362.499 772.346 363.923 772.346 366.005C772.346 368.109 770.327 369.512 767.458 369.512C764.568 369.512 762.549 368.109 762.549 366.005C762.549 363.923 764.568 362.499 767.458 362.499ZM767.458 364.56C766.141 364.56 765.227 365.049 765.227 366.005C765.227 366.962 766.141 367.45 767.458 367.45C768.754 367.45 769.668 366.962 769.668 366.005C769.668 365.049 768.754 364.56 767.458 364.56Z" fill="white"/>
<path d="M974.557 259.289C974.557 259.951 974.706 260.596 975.005 261.223C975.31 261.844 975.752 262.397 976.332 262.884C976.918 263.37 977.621 263.742 978.441 264L977.439 265.512C976.555 265.225 975.787 264.8 975.137 264.237C974.486 263.669 973.974 262.998 973.599 262.225C973.235 263.062 972.717 263.792 972.043 264.413C971.375 265.034 970.578 265.5 969.652 265.811L968.65 264.299C969.477 264.018 970.186 263.619 970.777 263.104C971.369 262.582 971.817 261.993 972.122 261.337C972.427 260.675 972.582 259.992 972.588 259.289V259.096H969.16V257.531H977.896V259.096H974.557V259.289ZM970.918 266.848H981.764V272.42H979.795V268.43H970.918V266.848ZM979.795 256.529H981.764V266.109H979.795V256.529ZM986.422 261.662H989.006V257.988H990.816V268.57H984.576V257.988H986.422V261.662ZM989.006 266.988V263.209H986.422V266.988H989.006ZM992.381 256.811H994.227V262.664H995.914V256.529H997.795V272.42H995.914V264.281H994.227V271.646H992.381V256.811ZM1007.83 264.211H1014.12V265.775H999.641V264.211H1005.9V262.137H1007.83V264.211ZM1000.43 261.504C1001.5 261.369 1002.44 261.1 1003.26 260.695C1004.09 260.285 1004.73 259.79 1005.18 259.21C1005.63 258.63 1005.86 258.023 1005.86 257.391V256.793H1007.85V257.391C1007.85 258.035 1008.08 258.647 1008.53 259.228C1008.98 259.808 1009.62 260.3 1010.44 260.704C1011.27 261.103 1012.22 261.369 1013.3 261.504L1012.54 263.033C1011.24 262.834 1010.09 262.453 1009.1 261.891C1008.1 261.322 1007.35 260.622 1006.85 259.79C1006.34 260.622 1005.58 261.322 1004.59 261.891C1003.59 262.453 1002.44 262.834 1001.13 263.033L1000.43 261.504ZM1001.33 269.607C1001.33 269.016 1001.55 268.512 1001.99 268.096C1002.43 267.674 1003.06 267.354 1003.89 267.138C1004.72 266.921 1005.71 266.812 1006.87 266.812C1008.01 266.812 1008.99 266.921 1009.81 267.138C1010.64 267.354 1011.27 267.674 1011.71 268.096C1012.15 268.512 1012.37 269.016 1012.37 269.607C1012.37 270.205 1012.15 270.712 1011.71 271.128C1011.27 271.544 1010.64 271.86 1009.82 272.077C1009 272.294 1008.01 272.402 1006.87 272.402C1005.71 272.402 1004.72 272.294 1003.89 272.077C1003.06 271.86 1002.43 271.544 1001.99 271.128C1001.55 270.712 1001.33 270.205 1001.33 269.607ZM1003.31 269.607C1003.31 270.041 1003.6 270.369 1004.2 270.592C1004.81 270.814 1005.69 270.926 1006.87 270.926C1008.01 270.926 1008.89 270.814 1009.49 270.592C1010.1 270.369 1010.41 270.041 1010.42 269.607C1010.41 269.174 1010.11 268.849 1009.5 268.632C1008.9 268.415 1008.02 268.307 1006.87 268.307C1005.69 268.307 1004.81 268.415 1004.2 268.632C1003.6 268.849 1003.31 269.174 1003.31 269.607Z" fill="#414141"/>
<path d="M440.865 300.807H443.449V297.133H445.26V307.715H439.02V297.133H440.865V300.807ZM443.449 306.133V302.354H440.865V306.133H443.449ZM446.824 295.955H448.67V301.809H450.357V295.674H452.238V311.564H450.357V303.426H448.67V310.791H446.824V295.955ZM462.275 303.355H468.568V304.92H454.084V303.355H460.342V301.281H462.275V303.355ZM454.875 300.648C455.941 300.514 456.885 300.244 457.705 299.84C458.531 299.43 459.17 298.935 459.621 298.354C460.078 297.774 460.307 297.168 460.307 296.535V295.938H462.293V296.535C462.293 297.18 462.519 297.792 462.97 298.372C463.421 298.952 464.06 299.444 464.886 299.849C465.712 300.247 466.664 300.514 467.742 300.648L466.986 302.178C465.686 301.979 464.537 301.598 463.541 301.035C462.545 300.467 461.795 299.767 461.291 298.935C460.781 299.767 460.028 300.467 459.032 301.035C458.036 301.598 456.885 301.979 455.578 302.178L454.875 300.648ZM455.771 308.752C455.771 308.16 455.991 307.656 456.431 307.24C456.87 306.818 457.503 306.499 458.329 306.282C459.161 306.065 460.154 305.957 461.309 305.957C462.451 305.957 463.433 306.065 464.253 306.282C465.079 306.499 465.712 306.818 466.151 307.24C466.591 307.656 466.811 308.16 466.811 308.752C466.811 309.35 466.591 309.856 466.151 310.272C465.718 310.688 465.088 311.005 464.262 311.222C463.441 311.438 462.457 311.547 461.309 311.547C460.154 311.547 459.161 311.438 458.329 311.222C457.503 311.005 456.87 310.688 456.431 310.272C455.991 309.856 455.771 309.35 455.771 308.752ZM457.758 308.752C457.752 309.186 458.048 309.514 458.646 309.736C459.249 309.959 460.137 310.07 461.309 310.07C462.457 310.07 463.333 309.959 463.937 309.736C464.546 309.514 464.854 309.186 464.859 308.752C464.854 308.318 464.549 307.993 463.945 307.776C463.342 307.56 462.463 307.451 461.309 307.451C460.137 307.451 459.249 307.56 458.646 307.776C458.048 307.993 457.752 308.318 457.758 308.752Z" fill="#454545"/>
<path d="M808.438 175.355C808.438 168.97 813.614 163.793 820 163.793H1051.25C1057.64 163.793 1062.81 168.97 1062.81 175.355V206.605C1062.81 212.991 1057.64 218.168 1051.25 218.168H820C813.614 218.168 808.438 212.991 808.438 206.605V175.355Z" fill="white"/>
<path d="M808.438 175.355C808.438 168.97 813.614 163.793 820 163.793H1051.25C1057.64 163.793 1062.81 168.97 1062.81 175.355V206.605C1062.81 212.991 1057.64 218.168 1051.25 218.168H820C813.614 218.168 808.438 212.991 808.438 206.605V175.355Z" stroke="#2F5BC1" stroke-width="1.875"/>
<path d="M894.167 192.377H887.962V193.766H892.392V198.705H890.159V195.541H881.194V193.766H885.747V192.377H879.577V190.602H894.167V192.377ZM880.192 188.352C881.306 188.275 882.246 188.12 883.014 187.886C883.787 187.651 884.382 187.367 884.798 187.033C885.214 186.693 885.469 186.324 885.562 185.926H880.983V184.186H885.747V182.744H887.962V184.186H892.761V185.926H888.138C888.231 186.324 888.483 186.693 888.894 187.033C889.31 187.367 889.904 187.651 890.678 187.886C891.451 188.12 892.397 188.275 893.517 188.352L892.831 190.021C891.378 189.922 890.145 189.673 889.131 189.274C888.117 188.87 887.355 188.34 886.846 187.684C886.336 188.34 885.574 188.87 884.561 189.274C883.553 189.673 882.325 189.922 880.878 190.021L880.192 188.352ZM901.04 185.469C901.034 186.172 901.166 186.843 901.436 187.481C901.711 188.12 902.127 188.688 902.684 189.187C903.246 189.685 903.946 190.068 904.784 190.338L903.606 192.096C902.751 191.809 902.016 191.393 901.4 190.848C900.791 190.303 900.308 189.655 899.95 188.905C899.587 189.726 899.083 190.435 898.438 191.032C897.794 191.63 897.021 192.084 896.118 192.395L894.87 190.619C895.749 190.35 896.479 189.951 897.059 189.424C897.645 188.896 898.078 188.293 898.359 187.613C898.641 186.928 898.784 186.207 898.79 185.451V183.711H901.04V185.469ZM897.437 193.291H899.722V196.648H908.423V198.441H897.437V193.291ZM905.575 182.727H907.825V187.35H909.987V189.248H907.825V194.451H905.575V182.727ZM925.28 190.848H919.093V191.867H923.505V195.963H914.593V196.93H923.927V198.617H912.396V194.381H921.29V193.555H912.378V191.867H916.843V190.848H910.69V189.072H925.28V190.848ZM912.501 183.184H923.435V188.229H912.501V183.184ZM921.202 186.506V184.924H914.698V186.506H921.202ZM943.069 186.014H945.249V187.859H943.069V191.146H940.837V182.744H943.069V186.014ZM931.046 183.412H933.296V188.8C934.38 188.776 935.432 188.718 936.451 188.624C937.477 188.524 938.505 188.369 939.536 188.158L939.8 189.986C937.427 190.432 934.966 190.648 932.417 190.637H931.046V183.412ZM932.558 191.867H934.772V193.484H940.837V191.867H943.087V198.547H932.558V191.867ZM940.837 196.754V195.26H934.772V196.754H940.837ZM960.542 191.99H954.354V193.361H958.802V198.547H947.64V193.361H952.122V191.99H945.952V190.215H960.542V191.99ZM947.235 183.166H959.241V184.959H957.149V187.402H959.136V189.195H947.341V187.402H949.31V184.959H947.235V183.166ZM956.604 196.754V195.102H949.854V196.754H956.604ZM954.899 187.402V184.959H951.56V187.402H954.899ZM965.974 183.412C966.642 183.406 967.26 183.523 967.828 183.764C968.402 184.004 968.883 184.341 969.27 184.774C969.662 185.208 969.932 185.709 970.078 186.277H972.759V182.727H974.991V191.322H972.759V188.07H970.087C969.952 188.65 969.688 189.166 969.296 189.617C968.909 190.062 968.429 190.408 967.854 190.654C967.28 190.9 966.653 191.023 965.974 191.023C965.165 191.023 964.436 190.859 963.785 190.531C963.135 190.203 962.625 189.749 962.256 189.169C961.893 188.583 961.714 187.924 961.72 187.191C961.714 186.471 961.893 185.823 962.256 185.249C962.625 184.669 963.135 184.218 963.785 183.896C964.436 183.567 965.165 183.406 965.974 183.412ZM963.847 187.191C963.847 187.584 963.935 187.93 964.11 188.229C964.292 188.521 964.544 188.747 964.866 188.905C965.188 189.063 965.558 189.143 965.974 189.143C966.378 189.143 966.738 189.063 967.055 188.905C967.371 188.741 967.617 188.513 967.793 188.22C967.975 187.927 968.065 187.584 968.065 187.191C968.065 186.799 967.975 186.459 967.793 186.172C967.617 185.879 967.371 185.656 967.055 185.504C966.738 185.352 966.378 185.275 965.974 185.275C965.558 185.275 965.188 185.352 964.866 185.504C964.544 185.656 964.292 185.879 964.11 186.172C963.935 186.459 963.847 186.799 963.847 187.191ZM964.321 192.025H966.536V193.572H972.759V192.025H974.991V198.547H964.321V192.025ZM972.759 196.736V195.295H966.536V196.736H972.759ZM982.058 187.596C982.058 188.908 982.312 190.106 982.822 191.19C983.332 192.269 984.126 193.098 985.204 193.678L983.974 195.312C983.276 194.955 982.682 194.472 982.189 193.862C981.697 193.247 981.305 192.535 981.012 191.727C980.725 192.611 980.335 193.394 979.843 194.073C979.351 194.747 978.753 195.289 978.05 195.699L976.767 194.012C977.851 193.385 978.647 192.497 979.157 191.349C979.673 190.2 979.937 188.949 979.948 187.596V187.227H977.364V185.434H979.948V183.271H982.04V185.434H984.571V187.227H982.058V187.596ZM983.64 188.791H985.521V182.99H987.63V197.984H985.521V190.619H983.64V188.791ZM988.772 182.727H990.899V198.723H988.772V182.727Z" fill="#04329A"/>
<path d="M695.557 190.539C695.557 191.201 695.706 191.846 696.005 192.473C696.31 193.094 696.752 193.647 697.332 194.134C697.918 194.62 698.621 194.992 699.441 195.25L698.439 196.762C697.555 196.475 696.787 196.05 696.137 195.487C695.486 194.919 694.974 194.248 694.599 193.475C694.235 194.312 693.717 195.042 693.043 195.663C692.375 196.284 691.578 196.75 690.652 197.061L689.65 195.549C690.477 195.268 691.186 194.869 691.777 194.354C692.369 193.832 692.817 193.243 693.122 192.587C693.427 191.925 693.582 191.242 693.588 190.539V190.346H690.16V188.781H698.896V190.346H695.557V190.539ZM691.918 198.098H702.764V203.67H700.795V199.68H691.918V198.098ZM700.795 187.779H702.764V197.359H700.795V187.779ZM707.422 192.912H710.006V189.238H711.816V199.82H705.576V189.238H707.422V192.912ZM710.006 198.238V194.459H707.422V198.238H710.006ZM713.381 188.061H715.227V193.914H716.914V187.779H718.795V203.67H716.914V195.531H715.227V202.896H713.381V188.061ZM728.832 195.461H735.125V197.025H720.641V195.461H726.898V193.387H728.832V195.461ZM721.432 192.754C722.498 192.619 723.441 192.35 724.262 191.945C725.088 191.535 725.727 191.04 726.178 190.46C726.635 189.88 726.863 189.273 726.863 188.641V188.043H728.85V188.641C728.85 189.285 729.075 189.897 729.526 190.478C729.978 191.058 730.616 191.55 731.442 191.954C732.269 192.353 733.221 192.619 734.299 192.754L733.543 194.283C732.242 194.084 731.094 193.703 730.098 193.141C729.102 192.572 728.352 191.872 727.848 191.04C727.338 191.872 726.585 192.572 725.589 193.141C724.593 193.703 723.441 194.084 722.135 194.283L721.432 192.754ZM722.328 200.857C722.328 200.266 722.548 199.762 722.987 199.346C723.427 198.924 724.06 198.604 724.886 198.388C725.718 198.171 726.711 198.062 727.865 198.062C729.008 198.062 729.989 198.171 730.81 198.388C731.636 198.604 732.269 198.924 732.708 199.346C733.147 199.762 733.367 200.266 733.367 200.857C733.367 201.455 733.147 201.962 732.708 202.378C732.274 202.794 731.645 203.11 730.818 203.327C729.998 203.544 729.014 203.652 727.865 203.652C726.711 203.652 725.718 203.544 724.886 203.327C724.06 203.11 723.427 202.794 722.987 202.378C722.548 201.962 722.328 201.455 722.328 200.857ZM724.314 200.857C724.309 201.291 724.604 201.619 725.202 201.842C725.806 202.064 726.693 202.176 727.865 202.176C729.014 202.176 729.89 202.064 730.493 201.842C731.103 201.619 731.41 201.291 731.416 200.857C731.41 200.424 731.105 200.099 730.502 199.882C729.898 199.665 729.02 199.557 727.865 199.557C726.693 199.557 725.806 199.665 725.202 199.882C724.604 200.099 724.309 200.424 724.314 200.857Z" fill="#424242"/>
<path d="M283.438 230.355C283.438 223.97 288.614 218.793 295 218.793H523.75C530.136 218.793 535.312 223.97 535.312 230.355V260.355C535.312 266.741 530.136 271.918 523.75 271.918H295C288.614 271.918 283.438 266.741 283.438 260.355V230.355Z" fill="white"/>
<path d="M283.438 230.355C283.438 223.97 288.614 218.793 295 218.793H523.75C530.136 218.793 535.312 223.97 535.312 230.355V260.355C535.312 266.741 530.136 271.918 523.75 271.918H295C288.614 271.918 283.438 266.741 283.438 260.355V230.355Z" stroke="#2F5BC1" stroke-width="1.875"/>
<path d="M366.3 243.527H361.747V245.127H367.952V246.92H353.327V245.127H359.515V243.527H355.173V237.973H357.405V241.734H366.3V243.527ZM354.997 250.752C354.997 250.125 355.22 249.589 355.665 249.144C356.116 248.698 356.761 248.361 357.599 248.133C358.442 247.898 359.444 247.781 360.604 247.781C361.759 247.781 362.752 247.898 363.584 248.133C364.416 248.361 365.055 248.698 365.5 249.144C365.945 249.589 366.171 250.125 366.177 250.752C366.171 251.379 365.945 251.915 365.5 252.36C365.055 252.806 364.416 253.143 363.584 253.371C362.752 253.605 361.759 253.723 360.604 253.723C359.444 253.723 358.442 253.605 357.599 253.371C356.761 253.143 356.116 252.806 355.665 252.36C355.22 251.915 354.997 251.379 354.997 250.752ZM357.282 250.752C357.276 251.168 357.552 251.484 358.108 251.701C358.671 251.912 359.503 252.018 360.604 252.018C361.688 252.018 362.512 251.912 363.074 251.701C363.637 251.484 363.921 251.168 363.927 250.752C363.921 249.92 362.837 249.504 360.675 249.504C359.532 249.504 358.68 249.606 358.117 249.812C357.555 250.011 357.276 250.324 357.282 250.752ZM374.79 240.469C374.784 241.172 374.916 241.843 375.186 242.481C375.461 243.12 375.877 243.688 376.434 244.187C376.996 244.685 377.696 245.068 378.534 245.338L377.356 247.096C376.501 246.809 375.766 246.393 375.15 245.848C374.541 245.303 374.058 244.655 373.7 243.905C373.337 244.726 372.833 245.435 372.188 246.032C371.544 246.63 370.771 247.084 369.868 247.395L368.62 245.619C369.499 245.35 370.229 244.951 370.809 244.424C371.395 243.896 371.828 243.293 372.109 242.613C372.391 241.928 372.534 241.207 372.54 240.451V238.711H374.79V240.469ZM371.187 248.291H373.472V251.648H382.173V253.441H371.187V248.291ZM379.325 237.727H381.575V242.35H383.737V244.248H381.575V249.451H379.325V237.727ZM399.03 245.848H392.843V246.867H397.255V250.963H388.343V251.93H397.677V253.617H386.146V249.381H395.04V248.555H386.128V246.867H390.593V245.848H384.44V244.072H399.03V245.848ZM386.251 238.184H397.185V243.229H386.251V238.184ZM394.952 241.506V239.924H388.448V241.506H394.952ZM416.819 241.014H418.999V242.859H416.819V246.146H414.587V237.744H416.819V241.014ZM404.796 238.412H407.046V243.8C408.13 243.776 409.182 243.718 410.201 243.624C411.227 243.524 412.255 243.369 413.286 243.158L413.55 244.986C411.177 245.432 408.716 245.648 406.167 245.637H404.796V238.412ZM406.308 246.867H408.522V248.484H414.587V246.867H416.837V253.547H406.308V246.867ZM414.587 251.754V250.26H408.522V251.754H414.587ZM434.292 246.99H428.104V248.361H432.552V253.547H421.39V248.361H425.872V246.99H419.702V245.215H434.292V246.99ZM420.985 238.166H432.991V239.959H430.899V242.402H432.886V244.195H421.091V242.402H423.06V239.959H420.985V238.166ZM430.354 251.754V250.102H423.604V251.754H430.354ZM428.649 242.402V239.959H425.31V242.402H428.649ZM439.724 238.412C440.392 238.406 441.01 238.523 441.578 238.764C442.152 239.004 442.633 239.341 443.02 239.774C443.412 240.208 443.682 240.709 443.828 241.277H446.509V237.727H448.741V246.322H446.509V243.07H443.837C443.702 243.65 443.438 244.166 443.046 244.617C442.659 245.062 442.179 245.408 441.604 245.654C441.03 245.9 440.403 246.023 439.724 246.023C438.915 246.023 438.186 245.859 437.535 245.531C436.885 245.203 436.375 244.749 436.006 244.169C435.643 243.583 435.464 242.924 435.47 242.191C435.464 241.471 435.643 240.823 436.006 240.249C436.375 239.669 436.885 239.218 437.535 238.896C438.186 238.567 438.915 238.406 439.724 238.412ZM437.597 242.191C437.597 242.584 437.685 242.93 437.86 243.229C438.042 243.521 438.294 243.747 438.616 243.905C438.938 244.063 439.308 244.143 439.724 244.143C440.128 244.143 440.488 244.063 440.805 243.905C441.121 243.741 441.367 243.513 441.543 243.22C441.725 242.927 441.815 242.584 441.815 242.191C441.815 241.799 441.725 241.459 441.543 241.172C441.367 240.879 441.121 240.656 440.805 240.504C440.488 240.352 440.128 240.275 439.724 240.275C439.308 240.275 438.938 240.352 438.616 240.504C438.294 240.656 438.042 240.879 437.86 241.172C437.685 241.459 437.597 241.799 437.597 242.191ZM438.071 247.025H440.286V248.572H446.509V247.025H448.741V253.547H438.071V247.025ZM446.509 251.736V250.295H440.286V251.736H446.509ZM455.808 242.596C455.808 243.908 456.062 245.106 456.572 246.19C457.082 247.269 457.876 248.098 458.954 248.678L457.724 250.312C457.026 249.955 456.432 249.472 455.939 248.862C455.447 248.247 455.055 247.535 454.762 246.727C454.475 247.611 454.085 248.394 453.593 249.073C453.101 249.747 452.503 250.289 451.8 250.699L450.517 249.012C451.601 248.385 452.397 247.497 452.907 246.349C453.423 245.2 453.687 243.949 453.698 242.596V242.227H451.114V240.434H453.698V238.271H455.79V240.434H458.321V242.227H455.808V242.596ZM457.39 243.791H459.271V237.99H461.38V252.984H459.271V245.619H457.39V243.791ZM462.522 237.727H464.649V253.723H462.522V237.727Z" fill="#04329A"/>
<path d="M451.764 97.5547H449.795V89.0293H451.764V97.5547ZM438.809 93.459C438.809 92.7383 438.993 92.0938 439.362 91.5254C439.737 90.957 440.25 90.5176 440.9 90.207C441.551 89.8906 442.283 89.7324 443.098 89.7324C443.906 89.7324 444.636 89.8906 445.286 90.207C445.937 90.5176 446.446 90.957 446.815 91.5254C447.185 92.0938 447.369 92.7383 447.369 93.459C447.369 94.1738 447.185 94.8125 446.815 95.375C446.446 95.9316 445.937 96.3682 445.286 96.6846C444.636 96.9951 443.906 97.1504 443.098 97.1504C442.283 97.1504 441.551 96.9951 440.9 96.6846C440.25 96.3682 439.737 95.9316 439.362 95.375C438.993 94.8125 438.809 94.1738 438.809 93.459ZM440.725 93.459C440.725 93.875 440.824 94.2412 441.023 94.5576C441.223 94.874 441.501 95.1201 441.858 95.2959C442.222 95.4658 442.635 95.5508 443.098 95.5508C443.549 95.5508 443.953 95.4658 444.311 95.2959C444.668 95.1201 444.946 94.874 445.146 94.5576C445.351 94.2412 445.453 93.875 445.453 93.459C445.453 93.043 445.351 92.6768 445.146 92.3604C444.946 92.0381 444.668 91.792 444.311 91.6221C443.953 91.4521 443.549 91.3672 443.098 91.3672C442.635 91.3672 442.222 91.4521 441.858 91.6221C441.501 91.792 441.223 92.0381 441.023 92.3604C440.824 92.6768 440.725 93.043 440.725 93.459ZM441.252 98.293H443.186V99.9277H449.812V98.293H451.764V104.727H441.252V98.293ZM449.812 103.145V101.457H443.186V103.145H449.812ZM467.057 92.0176V92.2021C467.051 93.0869 467.033 93.8545 467.004 94.5049C466.98 95.1494 466.925 95.8994 466.837 96.7549C466.749 97.6045 466.611 98.5273 466.424 99.5234L464.455 99.3125C464.648 98.3574 464.789 97.458 464.877 96.6143C464.971 95.7646 465.026 95.0176 465.044 94.373C465.067 93.7285 465.082 92.9551 465.088 92.0527H455.596V90.4883H467.057V92.0176ZM454.084 101.264H459.428V95.7441H461.361V101.264H468.568V102.863H454.084V101.264Z" fill="#454545"/>
<path d="M282.188 142.855C282.188 136.47 287.364 131.293 293.75 131.293H525C531.386 131.293 536.562 136.47 536.562 142.855V172.855C536.562 179.241 531.386 184.418 525 184.418H293.75C287.364 184.418 282.188 179.241 282.188 172.855V142.855Z" fill="white"/>
<path d="M282.188 142.855C282.188 136.47 287.364 131.293 293.75 131.293H525C531.386 131.293 536.562 136.47 536.562 142.855V172.855C536.562 179.241 531.386 184.418 525 184.418H293.75C287.364 184.418 282.188 179.241 282.188 172.855V142.855Z" stroke="#2F5BC1" stroke-width="1.875"/>
<path d="M363.698 151.158C363.698 152.541 363.414 153.786 362.846 154.894C362.277 155.995 361.445 156.938 360.35 157.724C359.26 158.503 357.933 159.109 356.368 159.543L355.489 157.803C357.194 157.34 358.542 156.689 359.532 155.852C360.522 155.008 361.111 154.041 361.299 152.951H356.351V151.158H363.698ZM358.284 159.824H368.884V166.029H358.284V159.824ZM366.669 164.271V161.582H360.481V164.271H366.669ZM363.804 154.041H366.651V150.244H368.884V159.191H366.651V155.869H363.804V154.041ZM385.548 159.49H379.36V160.861H383.808V166.047H372.646V160.861H377.128V159.49H370.958V157.715H385.548V159.49ZM372.241 150.666H384.247V152.459H382.155V154.902H384.142V156.695H372.347V154.902H374.315V152.459H372.241V150.666ZM381.61 164.254V162.602H374.86V164.254H381.61ZM379.905 154.902V152.459H376.565V154.902H379.905ZM399.206 154.814H401.368V156.678H399.206V161.881H396.956V150.227H399.206V154.814ZM386.62 155.324C386.62 154.545 386.813 153.848 387.2 153.232C387.587 152.611 388.114 152.128 388.782 151.782C389.456 151.437 390.2 151.264 391.015 151.264C391.823 151.264 392.559 151.437 393.221 151.782C393.889 152.128 394.413 152.611 394.794 153.232C395.181 153.848 395.374 154.545 395.374 155.324C395.374 156.092 395.181 156.786 394.794 157.407C394.413 158.022 393.889 158.506 393.221 158.857C392.559 159.209 391.823 159.385 391.015 159.385C390.2 159.385 389.456 159.209 388.782 158.857C388.114 158.506 387.587 158.022 387.2 157.407C386.813 156.786 386.62 156.092 386.62 155.324ZM388.835 160.65H391.067V164.148H399.786V165.941H388.835V160.65ZM388.835 155.324C388.829 155.746 388.92 156.118 389.107 156.44C389.301 156.757 389.564 157.003 389.898 157.179C390.232 157.349 390.604 157.434 391.015 157.434C391.425 157.434 391.794 157.349 392.122 157.179C392.456 157.003 392.717 156.757 392.904 156.44C393.098 156.118 393.194 155.746 393.194 155.324C393.194 154.891 393.098 154.516 392.904 154.199C392.717 153.877 392.456 153.631 392.122 153.461C391.794 153.291 391.425 153.209 391.015 153.215C390.604 153.209 390.232 153.291 389.898 153.461C389.564 153.631 389.301 153.877 389.107 154.199C388.92 154.516 388.829 154.891 388.835 155.324ZM415.554 161.916H413.321V156.186H410.702V154.375H413.321V150.244H415.554V161.916ZM401.983 158.312C402.833 158.049 403.545 157.662 404.119 157.152C404.693 156.637 405.121 156.054 405.402 155.403C405.684 154.747 405.827 154.064 405.833 153.355V153.109H402.616V151.316H411.3V153.109H408.118V153.373C408.112 154.012 408.244 154.639 408.514 155.254C408.783 155.863 409.193 156.414 409.744 156.906C410.295 157.393 410.978 157.768 411.792 158.031L410.685 159.807C409.823 159.525 409.082 159.112 408.461 158.567C407.846 158.017 407.359 157.372 407.002 156.634C406.633 157.46 406.123 158.175 405.473 158.778C404.822 159.382 404.04 159.836 403.126 160.141L401.983 158.312ZM404.937 160.896H407.187V164.148H415.94V165.941H404.937V160.896ZM423.675 152.406C423.669 153.145 423.795 153.836 424.053 154.48C424.316 155.125 424.721 155.693 425.266 156.186C425.816 156.678 426.505 157.053 427.331 157.311L426.153 159.068C425.31 158.775 424.589 158.365 423.991 157.838C423.399 157.305 422.931 156.669 422.585 155.931C422.222 156.792 421.712 157.533 421.056 158.154C420.399 158.775 419.603 159.244 418.665 159.561L417.487 157.768C418.366 157.486 419.099 157.079 419.685 156.546C420.271 156.007 420.701 155.395 420.977 154.709C421.258 154.018 421.401 153.285 421.407 152.512V151.053H423.675V152.406ZM420.142 163.129C420.142 162.479 420.361 161.919 420.801 161.45C421.246 160.981 421.882 160.627 422.708 160.387C423.534 160.141 424.513 160.018 425.644 160.018C426.78 160.018 427.762 160.141 428.588 160.387C429.414 160.627 430.05 160.981 430.495 161.45C430.94 161.919 431.163 162.479 431.163 163.129C431.163 163.779 430.94 164.336 430.495 164.799C430.05 165.268 429.414 165.622 428.588 165.862C427.762 166.103 426.78 166.223 425.644 166.223C424.507 166.223 423.525 166.103 422.699 165.862C421.879 165.622 421.246 165.268 420.801 164.799C420.361 164.336 420.142 163.779 420.142 163.129ZM422.374 163.129C422.374 163.574 422.652 163.911 423.209 164.14C423.771 164.368 424.583 164.482 425.644 164.482C426.71 164.482 427.521 164.368 428.078 164.14C428.641 163.911 428.925 163.574 428.931 163.129C428.925 162.672 428.644 162.329 428.087 162.101C427.53 161.872 426.716 161.758 425.644 161.758C424.577 161.758 423.766 161.875 423.209 162.109C422.652 162.338 422.374 162.678 422.374 163.129ZM425.872 153.162H428.878V150.227H431.11V159.596H428.878V154.99H425.872V153.162ZM441.481 151.158C441.481 152.541 441.197 153.786 440.629 154.894C440.061 155.995 439.229 156.938 438.133 157.724C437.043 158.503 435.716 159.109 434.151 159.543L433.272 157.803C434.978 157.34 436.325 156.689 437.315 155.852C438.306 155.008 438.895 154.041 439.082 152.951H434.134V151.158H441.481ZM436.067 159.824H446.667V166.029H436.067V159.824ZM444.452 164.271V161.582H438.265V164.271H444.452ZM441.587 154.041H444.435V150.244H446.667V159.191H444.435V155.869H441.587V154.041ZM454.63 153.848C454.624 154.826 454.762 155.775 455.043 156.695C455.324 157.609 455.749 158.43 456.317 159.156C456.886 159.883 457.583 160.445 458.409 160.844L457.056 162.637C456.224 162.221 455.512 161.641 454.92 160.896C454.328 160.146 453.862 159.273 453.522 158.277C453.159 159.35 452.664 160.287 452.037 161.09C451.41 161.887 450.657 162.502 449.778 162.936L448.39 161.125C449.263 160.727 449.998 160.149 450.596 159.394C451.193 158.632 451.639 157.773 451.932 156.818C452.23 155.857 452.38 154.867 452.38 153.848V151.457H454.63V153.848ZM459.112 150.227H461.362V156.396H463.718V158.295H461.362V166.223H459.112V150.227Z" fill="#04329A"/>
<path d="M392 96.7321L392 81.3555L409.655 98.4407L427.309 81.3555L427.309 96.7321L409.655 113.817L392 96.7321Z" fill="url(#paint1_linear_2938_10941)"/>
<path d="M391 199.732L391 184.355L408.655 201.441L426.309 184.355L426.309 199.732L408.655 216.817L391 199.732Z" fill="url(#paint2_linear_2938_10941)"/>
<path d="M391 293.732L391 278.355L408.655 295.441L426.309 278.355L426.309 293.732L408.655 310.817L391 293.732Z" fill="url(#paint3_linear_2938_10941)"/>
<path d="M391 319.732L391 304.355L408.655 321.441L426.309 304.355L426.309 319.732L408.655 336.817L391 319.732Z" fill="url(#paint4_linear_2938_10941)"/>
<path d="M919 96.7321L919 81.3555L936.655 98.4407L954.309 81.3555L954.309 96.7321L936.655 113.817L919 96.7321Z" fill="url(#paint5_linear_2938_10941)"/>
<path d="M919 122.732L919 107.355L936.655 124.441L954.309 107.355L954.309 122.732L936.655 139.817L919 122.732Z" fill="url(#paint6_linear_2938_10941)"/>
<path d="M919 267.732L919 252.355L936.655 269.441L954.309 252.355L954.309 267.732L936.655 284.817L919 267.732Z" fill="url(#paint7_linear_2938_10941)"/>
<path d="M919 293.732L919 278.355L936.655 295.441L954.309 278.355L954.309 293.732L936.655 310.817L919 293.732Z" fill="url(#paint8_linear_2938_10941)"/>
<path d="M810.702 14.1055C810.702 7.5895 815.984 2.30726 822.5 2.30726H1046.25C1052.77 2.30726 1058.05 7.5895 1058.05 14.1055V51.6055C1058.05 58.1214 1052.77 63.4037 1046.25 63.4037H822.5C815.984 63.4037 810.702 58.1214 810.702 51.6055V14.1055Z" fill="#2196F3"/>
<path d="M810.702 14.1055C810.702 7.5895 815.984 2.30726 822.5 2.30726H1046.25C1052.77 2.30726 1058.05 7.5895 1058.05 14.1055V51.6055C1058.05 58.1214 1052.77 63.4037 1046.25 63.4037H822.5C815.984 63.4037 810.702 58.1214 810.702 51.6055V14.1055Z" fill="white" fill-opacity="0.88"/>
<path d="M810.702 14.1055C810.702 7.5895 815.984 2.30726 822.5 2.30726H1046.25C1052.77 2.30726 1058.05 7.5895 1058.05 14.1055V51.6055C1058.05 58.1214 1052.77 63.4037 1046.25 63.4037H822.5C815.984 63.4037 810.702 58.1214 810.702 51.6055V14.1055Z" stroke="#04329A" stroke-width="1.40359"/>
<path d="M893.542 35.877H887.337V37.2656H891.767V42.2051H889.534V39.041H880.569V37.2656H885.122V35.877H878.952V34.1016H893.542V35.877ZM879.567 31.8516C880.681 31.7754 881.621 31.6201 882.389 31.3857C883.162 31.1514 883.757 30.8672 884.173 30.5332C884.589 30.1934 884.844 29.8242 884.938 29.4258H880.358V27.6855H885.122V26.2441H887.337V27.6855H892.136V29.4258H887.513C887.606 29.8242 887.858 30.1934 888.269 30.5332C888.685 30.8672 889.279 31.1514 890.053 31.3857C890.826 31.6201 891.772 31.7754 892.892 31.8516L892.206 33.5215C890.753 33.4219 889.52 33.1729 888.506 32.7744C887.492 32.3701 886.73 31.8398 886.221 31.1836C885.711 31.8398 884.949 32.3701 883.936 32.7744C882.928 33.1729 881.7 33.4219 880.253 33.5215L879.567 31.8516ZM900.415 28.9688C900.409 29.6719 900.541 30.3428 900.811 30.9814C901.086 31.6201 901.502 32.1885 902.059 32.6865C902.621 33.1846 903.321 33.5684 904.159 33.8379L902.981 35.5957C902.126 35.3086 901.391 34.8926 900.775 34.3477C900.166 33.8027 899.683 33.1553 899.325 32.4053C898.962 33.2256 898.458 33.9346 897.813 34.5322C897.169 35.1299 896.396 35.584 895.493 35.8945L894.245 34.1191C895.124 33.8496 895.854 33.4512 896.434 32.9238C897.02 32.3965 897.453 31.793 897.734 31.1133C898.016 30.4277 898.159 29.707 898.165 28.9512V27.2109H900.415V28.9688ZM896.812 36.791H899.097V40.1484H907.798V41.9414H896.812V36.791ZM904.95 26.2266H907.2V30.8496H909.362V32.748H907.2V37.9512H904.95V26.2266ZM924.655 34.3477H918.468V35.3672H922.88V39.4629H913.968V40.4297H923.302V42.1172H911.771V37.8809H920.665V37.0547H911.753V35.3672H916.218V34.3477H910.065V32.5723H924.655V34.3477ZM911.876 26.6836H922.81V31.7285H911.876V26.6836ZM920.577 30.0059V28.4238H914.073V30.0059H920.577ZM936.978 36.1934C938.144 36.1934 939.154 36.3135 940.01 36.5537C940.865 36.7881 941.524 37.1338 941.987 37.5908C942.45 38.042 942.685 38.584 942.69 39.2168C942.685 39.8379 942.45 40.374 941.987 40.8252C941.524 41.2822 940.862 41.6279 940.001 41.8623C939.146 42.1025 938.138 42.2227 936.978 42.2227C935.823 42.2227 934.815 42.1025 933.954 41.8623C933.099 41.6279 932.439 41.2822 931.977 40.8252C931.514 40.374 931.282 39.8379 931.282 39.2168C931.282 38.584 931.514 38.042 931.977 37.5908C932.439 37.1338 933.099 36.7881 933.954 36.5537C934.815 36.3135 935.823 36.1934 936.978 36.1934ZM929.806 33.3633H935.255V30.5684H937.47V33.3633H944.325V35.1738H929.806V33.3633ZM931.44 26.9473H942.603V28.248V28.7139C942.603 29.417 942.573 30.0674 942.515 30.665C942.456 31.2627 942.333 31.8867 942.146 32.5371L939.948 32.3262C940.112 31.6699 940.221 31.0723 940.273 30.5332C940.326 29.9883 940.358 29.3789 940.37 28.7051H931.44V26.9473ZM933.515 39.2168C933.509 39.6445 933.805 39.9697 934.402 40.1924C935.006 40.4092 935.864 40.5176 936.978 40.5176C938.091 40.5176 938.949 40.4092 939.553 40.1924C940.156 39.9697 940.458 39.6445 940.458 39.2168C940.458 38.7773 940.159 38.4434 939.562 38.2148C938.97 37.9805 938.129 37.8633 937.039 37.8633C935.902 37.8633 935.029 37.9775 934.42 38.2061C933.811 38.4346 933.509 38.7715 933.515 39.2168ZM949.282 37.0371H955.944V35.332H958.159V42.0469H947.085V35.332H949.282V37.0371ZM945.327 32.4844H955.628C955.769 31.7871 955.862 31.1455 955.909 30.5596C955.956 29.9736 955.985 29.3438 955.997 28.6699H947.12V26.877H958.229V28.1602V28.6436C958.229 29.2939 958.203 29.918 958.15 30.5156C958.104 31.1074 958.004 31.7637 957.852 32.4844H959.97V34.2773H945.327V32.4844ZM955.944 40.2363V38.7422H949.282V40.2363H955.944ZM965.349 26.9121C966.017 26.9062 966.635 27.0234 967.203 27.2637C967.777 27.5039 968.258 27.8408 968.645 28.2744C969.037 28.708 969.307 29.209 969.453 29.7773H972.134V26.2266H974.366V34.8223H972.134V31.5703H969.462C969.327 32.1504 969.063 32.666 968.671 33.1172C968.284 33.5625 967.804 33.9082 967.229 34.1543C966.655 34.4004 966.028 34.5234 965.349 34.5234C964.54 34.5234 963.811 34.3594 963.16 34.0312C962.51 33.7031 962 33.249 961.631 32.6689C961.268 32.083 961.089 31.4238 961.095 30.6914C961.089 29.9707 961.268 29.3232 961.631 28.749C962 28.1689 962.51 27.7178 963.16 27.3955C963.811 27.0674 964.54 26.9062 965.349 26.9121ZM963.222 30.6914C963.222 31.084 963.31 31.4297 963.485 31.7285C963.667 32.0215 963.919 32.2471 964.241 32.4053C964.563 32.5635 964.933 32.6426 965.349 32.6426C965.753 32.6426 966.113 32.5635 966.43 32.4053C966.746 32.2412 966.992 32.0127 967.168 31.7197C967.35 31.4268 967.44 31.084 967.44 30.6914C967.44 30.2988 967.35 29.959 967.168 29.6719C966.992 29.3789 966.746 29.1562 966.43 29.0039C966.113 28.8516 965.753 28.7754 965.349 28.7754C964.933 28.7754 964.563 28.8516 964.241 29.0039C963.919 29.1562 963.667 29.3789 963.485 29.6719C963.31 29.959 963.222 30.2988 963.222 30.6914ZM963.696 35.5254H965.911V37.0723H972.134V35.5254H974.366V42.0469H963.696V35.5254ZM972.134 40.2363V38.7949H965.911V40.2363H972.134ZM981.433 31.0957C981.433 32.4082 981.688 33.6064 982.197 34.6904C982.707 35.7686 983.501 36.5977 984.579 37.1777L983.349 38.8125C982.651 38.4551 982.057 37.9717 981.564 37.3623C981.072 36.7471 980.68 36.0352 980.387 35.2266C980.1 36.1113 979.71 36.8936 979.218 37.5732C978.726 38.2471 978.128 38.7891 977.425 39.1992L976.142 37.5117C977.226 36.8848 978.022 35.9971 978.532 34.8486C979.048 33.7002 979.312 32.4492 979.323 31.0957V30.7266H976.739V28.9336H979.323V26.7715H981.415V28.9336H983.946V30.7266H981.433V31.0957ZM983.015 32.291H984.896V26.4902H987.005V41.4844H984.896V34.1191H983.015V32.291ZM988.147 26.2266H990.274V42.2227H988.147V26.2266Z" fill="#04329A"/>
<path d="M548.202 14.1055C548.202 7.5895 553.484 2.30726 560 2.30726H783.75C790.266 2.30726 795.548 7.5895 795.548 14.1055V51.6055C795.548 58.1214 790.266 63.4037 783.75 63.4037H560C553.484 63.4037 548.202 58.1214 548.202 51.6055V14.1055Z" fill="#2196F3"/>
<path d="M548.202 14.1055C548.202 7.5895 553.484 2.30726 560 2.30726H783.75C790.266 2.30726 795.548 7.5895 795.548 14.1055V51.6055C795.548 58.1214 790.266 63.4037 783.75 63.4037H560C553.484 63.4037 548.202 58.1214 548.202 51.6055V14.1055Z" fill="white" fill-opacity="0.88"/>
<path d="M548.202 14.1055C548.202 7.5895 553.484 2.30726 560 2.30726H783.75C790.266 2.30726 795.548 7.5895 795.548 14.1055V51.6055C795.548 58.1214 790.266 63.4037 783.75 63.4037H560C553.484 63.4037 548.202 58.1214 548.202 51.6055V14.1055Z" stroke="#04329A" stroke-width="1.40359"/>
<path d="M624.317 24.9746C624.312 25.625 624.525 26.2637 624.959 26.8906C625.398 27.5117 626.04 28.0508 626.884 28.5078C627.728 28.959 628.735 29.2578 629.907 29.4043L629.028 31.2148C627.657 31.0156 626.465 30.6172 625.451 30.0195C624.443 29.416 623.673 28.6719 623.14 27.7871C622.601 28.6719 621.827 29.416 620.819 30.0195C619.817 30.6172 618.64 31.0156 617.286 31.2148L616.39 29.4043C617.55 29.2578 618.549 28.959 619.387 28.5078C620.23 28.0508 620.869 27.5117 621.303 26.8906C621.736 26.2637 621.956 25.625 621.962 24.9746V24.2012H624.317V24.9746ZM615.827 32.4277H630.417V34.2559H624.194V39.7227H621.979V34.2559H615.827V32.4277ZM637.29 26.4688C637.284 27.1719 637.416 27.8428 637.686 28.4814C637.961 29.1201 638.377 29.6885 638.934 30.1865C639.496 30.6846 640.196 31.0684 641.034 31.3379L639.856 33.0957C639.001 32.8086 638.266 32.3926 637.65 31.8477C637.041 31.3027 636.558 30.6553 636.2 29.9053C635.837 30.7256 635.333 31.4346 634.688 32.0322C634.044 32.6299 633.271 33.084 632.368 33.3945L631.12 31.6191C631.999 31.3496 632.729 30.9512 633.309 30.4238C633.895 29.8965 634.328 29.293 634.609 28.6133C634.891 27.9277 635.034 27.207 635.04 26.4512V24.7109H637.29V26.4688ZM633.687 34.291H635.972V37.6484H644.673V39.4414H633.687V34.291ZM641.825 23.7266H644.075V28.3496H646.237V30.248H644.075V35.4512H641.825V23.7266ZM661.53 31.8477H655.343V32.8672H659.755V36.9629H650.843V37.9297H660.177V39.6172H648.646V35.3809H657.54V34.5547H648.628V32.8672H653.093V31.8477H646.94V30.0723H661.53V31.8477ZM648.751 24.1836H659.685V29.2285H648.751V24.1836ZM657.452 27.5059V25.9238H650.948V27.5059H657.452ZM679.319 27.0137H681.499V28.8594H679.319V32.1465H677.087V23.7441H679.319V27.0137ZM667.296 24.4121H669.546V29.7998C670.63 29.7764 671.682 29.7178 672.701 29.624C673.727 29.5244 674.755 29.3691 675.786 29.1582L676.05 30.9863C673.677 31.4316 671.216 31.6484 668.667 31.6367H667.296V24.4121ZM668.808 32.8672H671.022V34.4844H677.087V32.8672H679.337V39.5469H668.808V32.8672ZM677.087 37.7539V36.2598H671.022V37.7539H677.087ZM696.792 32.9902H690.604V34.3613H695.052V39.5469H683.89V34.3613H688.372V32.9902H682.202V31.2148H696.792V32.9902ZM683.485 24.166H695.491V25.959H693.399V28.4023H695.386V30.1953H683.591V28.4023H685.56V25.959H683.485V24.166ZM692.854 37.7539V36.1016H686.104V37.7539H692.854ZM691.149 28.4023V25.959H687.81V28.4023H691.149ZM702.224 24.4121C702.892 24.4062 703.51 24.5234 704.078 24.7637C704.652 25.0039 705.133 25.3408 705.52 25.7744C705.912 26.208 706.182 26.709 706.328 27.2773H709.009V23.7266H711.241V32.3223H709.009V29.0703H706.337C706.202 29.6504 705.938 30.166 705.546 30.6172C705.159 31.0625 704.679 31.4082 704.104 31.6543C703.53 31.9004 702.903 32.0234 702.224 32.0234C701.415 32.0234 700.686 31.8594 700.035 31.5312C699.385 31.2031 698.875 30.749 698.506 30.1689C698.143 29.583 697.964 28.9238 697.97 28.1914C697.964 27.4707 698.143 26.8232 698.506 26.249C698.875 25.6689 699.385 25.2178 700.035 24.8955C700.686 24.5674 701.415 24.4062 702.224 24.4121ZM700.097 28.1914C700.097 28.584 700.185 28.9297 700.36 29.2285C700.542 29.5215 700.794 29.7471 701.116 29.9053C701.438 30.0635 701.808 30.1426 702.224 30.1426C702.628 30.1426 702.988 30.0635 703.305 29.9053C703.621 29.7412 703.867 29.5127 704.043 29.2197C704.225 28.9268 704.315 28.584 704.315 28.1914C704.315 27.7988 704.225 27.459 704.043 27.1719C703.867 26.8789 703.621 26.6562 703.305 26.5039C702.988 26.3516 702.628 26.2754 702.224 26.2754C701.808 26.2754 701.438 26.3516 701.116 26.5039C700.794 26.6562 700.542 26.8789 700.36 27.1719C700.185 27.459 700.097 27.7988 700.097 28.1914ZM700.571 33.0254H702.786V34.5723H709.009V33.0254H711.241V39.5469H700.571V33.0254ZM709.009 37.7363V36.2949H702.786V37.7363H709.009ZM718.308 28.5957C718.308 29.9082 718.562 31.1064 719.072 32.1904C719.582 33.2686 720.376 34.0977 721.454 34.6777L720.224 36.3125C719.526 35.9551 718.932 35.4717 718.439 34.8623C717.947 34.2471 717.555 33.5352 717.262 32.7266C716.975 33.6113 716.585 34.3936 716.093 35.0732C715.601 35.7471 715.003 36.2891 714.3 36.6992L713.017 35.0117C714.101 34.3848 714.897 33.4971 715.407 32.3486C715.923 31.2002 716.187 29.9492 716.198 28.5957V28.2266H713.614V26.4336H716.198V24.2715H718.29V26.4336H720.821V28.2266H718.308V28.5957ZM719.89 29.791H721.771V23.9902H723.88V38.9844H721.771V31.6191H719.89V29.791ZM725.022 23.7266H727.149V39.7227H725.022V23.7266Z" fill="#04329A"/>
<path fill-rule="evenodd" clip-rule="evenodd" d="M679 69.3555H664V314.033L654 304.355V319.732L671.655 336.817L689.309 319.732V304.355L679 314.332V69.3555Z" fill="url(#paint9_linear_2938_10941)"/>
<path d="M285.702 14.1055C285.702 7.5895 290.984 2.30726 297.5 2.30726H522.5C529.016 2.30726 534.298 7.5895 534.298 14.1055V51.6055C534.298 58.1214 529.016 63.4037 522.5 63.4037H297.5C290.984 63.4037 285.702 58.1214 285.702 51.6055V14.1055Z" fill="#2196F3"/>
<path d="M285.702 14.1055C285.702 7.5895 290.984 2.30726 297.5 2.30726H522.5C529.016 2.30726 534.298 7.5895 534.298 14.1055V51.6055C534.298 58.1214 529.016 63.4037 522.5 63.4037H297.5C290.984 63.4037 285.702 58.1214 285.702 51.6055V14.1055Z" fill="white" fill-opacity="0.88"/>
<path d="M285.702 14.1055C285.702 7.5895 290.984 2.30726 297.5 2.30726H522.5C529.016 2.30726 534.298 7.5895 534.298 14.1055V51.6055C534.298 58.1214 529.016 63.4037 522.5 63.4037H297.5C290.984 63.4037 285.702 58.1214 285.702 51.6055V14.1055Z" stroke="#04329A" stroke-width="1.40359"/>
<path d="M366.925 29.5273H362.372V31.127H368.577V32.9199H353.952V31.127H360.14V29.5273H355.798V23.9727H358.03V27.7344H366.925V29.5273ZM355.622 36.752C355.622 36.125 355.845 35.5889 356.29 35.1436C356.741 34.6982 357.386 34.3613 358.224 34.1328C359.067 33.8984 360.069 33.7812 361.229 33.7812C362.384 33.7812 363.377 33.8984 364.209 34.1328C365.041 34.3613 365.68 34.6982 366.125 35.1436C366.57 35.5889 366.796 36.125 366.802 36.752C366.796 37.3789 366.57 37.915 366.125 38.3604C365.68 38.8057 365.041 39.1426 364.209 39.3711C363.377 39.6055 362.384 39.7227 361.229 39.7227C360.069 39.7227 359.067 39.6055 358.224 39.3711C357.386 39.1426 356.741 38.8057 356.29 38.3604C355.845 37.915 355.622 37.3789 355.622 36.752ZM357.907 36.752C357.901 37.168 358.177 37.4844 358.733 37.7012C359.296 37.9121 360.128 38.0176 361.229 38.0176C362.313 38.0176 363.137 37.9121 363.699 37.7012C364.262 37.4844 364.546 37.168 364.552 36.752C364.546 35.9199 363.462 35.5039 361.3 35.5039C360.157 35.5039 359.305 35.6064 358.742 35.8115C358.18 36.0107 357.901 36.3242 357.907 36.752ZM375.415 26.4688C375.409 27.1719 375.541 27.8428 375.811 28.4814C376.086 29.1201 376.502 29.6885 377.059 30.1865C377.621 30.6846 378.321 31.0684 379.159 31.3379L377.981 33.0957C377.126 32.8086 376.391 32.3926 375.775 31.8477C375.166 31.3027 374.683 30.6553 374.325 29.9053C373.962 30.7256 373.458 31.4346 372.813 32.0322C372.169 32.6299 371.396 33.084 370.493 33.3945L369.245 31.6191C370.124 31.3496 370.854 30.9512 371.434 30.4238C372.02 29.8965 372.453 29.293 372.734 28.6133C373.016 27.9277 373.159 27.207 373.165 26.4512V24.7109H375.415V26.4688ZM371.812 34.291H374.097V37.6484H382.798V39.4414H371.812V34.291ZM379.95 23.7266H382.2V28.3496H384.362V30.248H382.2V35.4512H379.95V23.7266ZM399.655 31.8477H393.468V32.8672H397.88V36.9629H388.968V37.9297H398.302V39.6172H386.771V35.3809H395.665V34.5547H386.753V32.8672H391.218V31.8477H385.065V30.0723H399.655V31.8477ZM386.876 24.1836H397.81V29.2285H386.876V24.1836ZM395.577 27.5059V25.9238H389.073V27.5059H395.577ZM411.978 33.6934C413.144 33.6934 414.154 33.8135 415.01 34.0537C415.865 34.2881 416.524 34.6338 416.987 35.0908C417.45 35.542 417.685 36.084 417.69 36.7168C417.685 37.3379 417.45 37.874 416.987 38.3252C416.524 38.7822 415.862 39.1279 415.001 39.3623C414.146 39.6025 413.138 39.7227 411.978 39.7227C410.823 39.7227 409.815 39.6025 408.954 39.3623C408.099 39.1279 407.439 38.7822 406.977 38.3252C406.514 37.874 406.282 37.3379 406.282 36.7168C406.282 36.084 406.514 35.542 406.977 35.0908C407.439 34.6338 408.099 34.2881 408.954 34.0537C409.815 33.8135 410.823 33.6934 411.978 33.6934ZM404.806 30.8633H410.255V28.0684H412.47V30.8633H419.325V32.6738H404.806V30.8633ZM406.44 24.4473H417.603V25.748V26.2139C417.603 26.917 417.573 27.5674 417.515 28.165C417.456 28.7627 417.333 29.3867 417.146 30.0371L414.948 29.8262C415.112 29.1699 415.221 28.5723 415.273 28.0332C415.326 27.4883 415.358 26.8789 415.37 26.2051H406.44V24.4473ZM408.515 36.7168C408.509 37.1445 408.805 37.4697 409.402 37.6924C410.006 37.9092 410.864 38.0176 411.978 38.0176C413.091 38.0176 413.949 37.9092 414.553 37.6924C415.156 37.4697 415.458 37.1445 415.458 36.7168C415.458 36.2773 415.159 35.9434 414.562 35.7148C413.97 35.4805 413.129 35.3633 412.039 35.3633C410.902 35.3633 410.029 35.4775 409.42 35.7061C408.811 35.9346 408.509 36.2715 408.515 36.7168ZM424.282 34.5371H430.944V32.832H433.159V39.5469H422.085V32.832H424.282V34.5371ZM420.327 29.9844H430.628C430.769 29.2871 430.862 28.6455 430.909 28.0596C430.956 27.4736 430.985 26.8438 430.997 26.1699H422.12V24.377H433.229V25.6602V26.1436C433.229 26.7939 433.203 27.418 433.15 28.0156C433.104 28.6074 433.004 29.2637 432.852 29.9844H434.97V31.7773H420.327V29.9844ZM430.944 37.7363V36.2422H424.282V37.7363H430.944ZM440.349 24.4121C441.017 24.4062 441.635 24.5234 442.203 24.7637C442.777 25.0039 443.258 25.3408 443.645 25.7744C444.037 26.208 444.307 26.709 444.453 27.2773H447.134V23.7266H449.366V32.3223H447.134V29.0703H444.462C444.327 29.6504 444.063 30.166 443.671 30.6172C443.284 31.0625 442.804 31.4082 442.229 31.6543C441.655 31.9004 441.028 32.0234 440.349 32.0234C439.54 32.0234 438.811 31.8594 438.16 31.5312C437.51 31.2031 437 30.749 436.631 30.1689C436.268 29.583 436.089 28.9238 436.095 28.1914C436.089 27.4707 436.268 26.8232 436.631 26.249C437 25.6689 437.51 25.2178 438.16 24.8955C438.811 24.5674 439.54 24.4062 440.349 24.4121ZM438.222 28.1914C438.222 28.584 438.31 28.9297 438.485 29.2285C438.667 29.5215 438.919 29.7471 439.241 29.9053C439.563 30.0635 439.933 30.1426 440.349 30.1426C440.753 30.1426 441.113 30.0635 441.43 29.9053C441.746 29.7412 441.992 29.5127 442.168 29.2197C442.35 28.9268 442.44 28.584 442.44 28.1914C442.44 27.7988 442.35 27.459 442.168 27.1719C441.992 26.8789 441.746 26.6562 441.43 26.5039C441.113 26.3516 440.753 26.2754 440.349 26.2754C439.933 26.2754 439.563 26.3516 439.241 26.5039C438.919 26.6562 438.667 26.8789 438.485 27.1719C438.31 27.459 438.222 27.7988 438.222 28.1914ZM438.696 33.0254H440.911V34.5723H447.134V33.0254H449.366V39.5469H438.696V33.0254ZM447.134 37.7363V36.2949H440.911V37.7363H447.134ZM456.433 28.5957C456.433 29.9082 456.688 31.1064 457.197 32.1904C457.707 33.2686 458.501 34.0977 459.579 34.6777L458.349 36.3125C457.651 35.9551 457.057 35.4717 456.564 34.8623C456.072 34.2471 455.68 33.5352 455.387 32.7266C455.1 33.6113 454.71 34.3936 454.218 35.0732C453.726 35.7471 453.128 36.2891 452.425 36.6992L451.142 35.0117C452.226 34.3848 453.022 33.4971 453.532 32.3486C454.048 31.2002 454.312 29.9492 454.323 28.5957V28.2266H451.739V26.4336H454.323V24.2715H456.415V26.4336H458.946V28.2266H456.433V28.5957ZM458.015 29.791H459.896V23.9902H462.005V38.9844H459.896V31.6191H458.015V29.791ZM463.147 23.7266H465.274V39.7227H463.147V23.7266Z" fill="#04329A"/>
<rect x="77" y="100.48" width="143" height="144" rx="71.5" fill="url(#paint10_linear_2938_10941)"/>
<rect x="77" y="100.48" width="143" height="144" rx="71.5" stroke="#E3E4FF" stroke-width="8"/>
<path d="M112.396 155.799C112.39 156.906 112.559 157.973 112.904 159.002C113.249 160.031 113.751 160.945 114.408 161.746C115.072 162.54 115.86 163.136 116.771 163.533L115.463 165.271C114.486 164.796 113.646 164.113 112.943 163.221C112.24 162.329 111.697 161.29 111.312 160.105C110.915 161.362 110.355 162.469 109.633 163.426C108.91 164.376 108.054 165.102 107.064 165.604L105.697 163.846C106.628 163.41 107.432 162.771 108.109 161.932C108.786 161.092 109.301 160.138 109.652 159.07C110.004 158.003 110.183 156.912 110.189 155.799V152.986H112.396V155.799ZM114.818 157.264H118.529V151.561H120.678V169.236H118.529V159.021H114.818V157.264ZM131.186 151.736C132.527 151.736 133.673 151.857 134.623 152.098C135.574 152.332 136.299 152.674 136.801 153.123C137.302 153.572 137.553 154.119 137.553 154.764C137.553 155.415 137.302 155.968 136.801 156.424C136.299 156.88 135.574 157.225 134.623 157.459C133.673 157.687 132.527 157.804 131.186 157.811C129.844 157.804 128.699 157.687 127.748 157.459C126.798 157.225 126.072 156.88 125.57 156.424C125.069 155.968 124.818 155.415 124.818 154.764C124.818 154.119 125.069 153.572 125.57 153.123C126.072 152.674 126.798 152.332 127.748 152.098C128.705 151.857 129.851 151.736 131.186 151.736ZM123.158 158.729H139.252V160.428H132.26V161.775H137.24V166.092H127.201V167.4H137.729V169.061H125.072V164.549H135.111V163.377H125.053V161.775H130.092V160.428H123.158V158.729ZM127.104 154.764C127.097 155.245 127.436 155.604 128.119 155.838C128.803 156.072 129.825 156.196 131.186 156.209C132.566 156.196 133.598 156.072 134.281 155.838C134.965 155.604 135.307 155.245 135.307 154.764C135.307 154.308 134.958 153.963 134.262 153.729C133.572 153.488 132.546 153.364 131.186 153.357C129.844 153.364 128.826 153.488 128.129 153.729C127.439 153.963 127.097 154.308 127.104 154.764ZM155.15 164.529H152.963V151.58H155.15V164.529ZM140.658 160.877C141.576 160.597 142.357 160.193 143.002 159.666C143.653 159.132 144.145 158.523 144.477 157.84C144.809 157.15 144.975 156.43 144.975 155.682V155.447H141.205V153.729H144.975V151.658H147.162V153.729H150.912V155.447H147.143V155.682C147.143 156.385 147.309 157.062 147.641 157.713C147.979 158.357 148.474 158.93 149.125 159.432C149.783 159.926 150.567 160.304 151.479 160.564L150.443 162.283C149.434 161.984 148.562 161.538 147.826 160.945C147.09 160.346 146.514 159.64 146.098 158.826C145.694 159.718 145.121 160.49 144.379 161.141C143.637 161.785 142.748 162.264 141.713 162.576L140.658 160.877ZM143.471 163.357H145.658V167.107H155.639V168.865H143.471V163.357ZM171.713 157.479H174.096V159.275H171.713V165.35H169.545V151.561H171.713V157.479ZM157.572 161.814C159.258 161.814 160.743 161.795 162.025 161.756V160.633C161.036 160.509 160.251 160.216 159.672 159.754C159.099 159.292 158.816 158.709 158.822 158.006C158.822 157.439 158.998 156.951 159.35 156.541C159.701 156.124 160.196 155.809 160.834 155.594C161.479 155.372 162.227 155.265 163.08 155.271C163.933 155.265 164.678 155.372 165.316 155.594C165.961 155.809 166.459 156.124 166.811 156.541C167.162 156.951 167.338 157.439 167.338 158.006C167.338 158.702 167.058 159.282 166.498 159.744C165.938 160.206 165.17 160.503 164.193 160.633V161.648C165.86 161.551 167.338 161.404 168.627 161.209L168.803 162.732C167.156 163.038 165.46 163.24 163.715 163.338C161.97 163.436 160.001 163.494 157.807 163.514L157.572 161.814ZM158.021 153.104H162.025V151.502H164.193V153.104H168.158V154.686H158.021V153.104ZM160.111 164.432H162.279V167.107H172.338V168.865H160.111V164.432ZM160.912 158.006C160.906 158.383 161.094 158.68 161.479 158.895C161.863 159.109 162.396 159.217 163.08 159.217C163.764 159.217 164.298 159.109 164.682 158.895C165.072 158.68 165.268 158.383 165.268 158.006C165.268 157.596 165.079 157.283 164.701 157.068C164.324 156.847 163.796 156.736 163.119 156.736C162.416 156.736 161.869 156.844 161.479 157.059C161.094 157.273 160.906 157.589 160.912 158.006ZM189.799 161.893H187.631V159.939H183.432V158.182H187.631V156.287H183.598C183.044 157.68 182.133 158.868 180.863 159.852C179.594 160.828 177.995 161.587 176.068 162.127L175.189 160.408C177.221 159.861 178.796 159.087 179.916 158.084C181.042 157.075 181.69 155.903 181.859 154.568H176.127V152.811H184.232C184.232 153.423 184.184 154.008 184.086 154.568H187.631V151.58H189.799V161.893ZM177.963 165.604C177.963 164.887 178.21 164.266 178.705 163.738C179.2 163.211 179.896 162.804 180.795 162.518C181.7 162.231 182.755 162.088 183.959 162.088C185.144 162.088 186.186 162.231 187.084 162.518C187.982 162.804 188.679 163.211 189.174 163.738C189.669 164.266 189.916 164.887 189.916 165.604C189.916 166.32 189.669 166.945 189.174 167.479C188.679 168.006 187.982 168.41 187.084 168.689C186.186 168.976 185.144 169.119 183.959 169.119C182.761 169.119 181.71 168.976 180.805 168.689C179.9 168.41 179.2 168.006 178.705 167.479C178.21 166.945 177.963 166.32 177.963 165.604ZM180.131 165.604C180.131 166.176 180.469 166.619 181.146 166.932C181.824 167.244 182.761 167.4 183.959 167.4C185.137 167.4 186.062 167.244 186.732 166.932C187.403 166.619 187.742 166.176 187.748 165.604C187.742 165.018 187.403 164.568 186.732 164.256C186.068 163.943 185.144 163.787 183.959 163.787C182.761 163.787 181.824 163.943 181.146 164.256C180.469 164.568 180.131 165.018 180.131 165.604ZM130.629 193.221H126.703V199.217H124.496V193.221H120.59V199.217H118.363V193.221H114.496V191.463H130.629V193.221ZM116.195 186.131C116.195 185.343 116.459 184.653 116.986 184.061C117.514 183.462 118.256 182.999 119.213 182.674C120.176 182.348 121.28 182.186 122.523 182.186C123.773 182.186 124.877 182.348 125.834 182.674C126.798 182.999 127.546 183.462 128.08 184.061C128.62 184.653 128.891 185.343 128.891 186.131C128.891 186.912 128.62 187.596 128.08 188.182C127.546 188.761 126.798 189.21 125.834 189.529C124.877 189.842 123.773 189.998 122.523 189.998C121.273 189.998 120.17 189.842 119.213 189.529C118.256 189.21 117.514 188.761 116.986 188.182C116.459 187.596 116.195 186.912 116.195 186.131ZM118.422 186.131C118.422 186.574 118.588 186.958 118.92 187.283C119.258 187.602 119.737 187.85 120.355 188.025C120.974 188.195 121.697 188.279 122.523 188.279C123.357 188.279 124.083 188.195 124.701 188.025C125.32 187.85 125.798 187.602 126.137 187.283C126.475 186.958 126.645 186.574 126.645 186.131C126.645 185.675 126.475 185.285 126.137 184.959C125.798 184.627 125.32 184.376 124.701 184.207C124.083 184.031 123.357 183.943 122.523 183.943C121.697 183.943 120.974 184.031 120.355 184.207C119.737 184.376 119.258 184.627 118.92 184.959C118.588 185.285 118.422 185.675 118.422 186.131ZM147.895 192.459H131.762V190.74H138.734V189.432H133.832V182.029H145.961V183.709H136V184.92H145.531V186.521H136V187.771H146.098V189.432H140.902V190.74H147.895V192.459ZM133.676 196.307C133.676 195.695 133.913 195.174 134.389 194.744C134.87 194.314 135.57 193.989 136.488 193.768C137.406 193.546 138.52 193.436 139.828 193.436C141.117 193.436 142.217 193.546 143.129 193.768C144.04 193.989 144.737 194.314 145.219 194.744C145.701 195.174 145.941 195.695 145.941 196.307C145.935 197.244 145.401 197.96 144.34 198.455C143.285 198.95 141.781 199.197 139.828 199.197C137.849 199.197 136.329 198.95 135.268 198.455C134.206 197.967 133.676 197.251 133.676 196.307ZM135.844 196.307C135.844 196.736 136.173 197.055 136.83 197.264C137.494 197.472 138.493 197.576 139.828 197.576C141.137 197.576 142.12 197.472 142.777 197.264C143.435 197.055 143.767 196.736 143.773 196.307C143.754 195.473 142.439 195.057 139.828 195.057C137.172 195.057 135.844 195.473 135.844 196.307ZM164.184 194.783H162.113V181.561H164.184V194.783ZM148.969 190.76C149.724 190.395 150.359 189.913 150.873 189.314C151.394 188.709 151.781 188.048 152.035 187.332C152.296 186.616 152.426 185.896 152.426 185.174V182.771H154.535V185.174C154.535 185.883 154.652 186.567 154.887 187.225C155.128 187.876 155.492 188.468 155.98 189.002C156.469 189.536 157.074 189.965 157.797 190.291L156.586 191.971C155.863 191.632 155.242 191.18 154.721 190.613C154.206 190.047 153.799 189.393 153.5 188.65C153.174 189.49 152.732 190.236 152.172 190.887C151.612 191.531 150.941 192.036 150.16 192.4L148.969 190.76ZM152.367 193.201H154.535V197.107H164.672V198.865H152.367V193.201ZM156.215 185.76H158.578V181.873H160.648V194.256H158.578V187.537H156.215V185.76ZM181.176 199.236H179.027V189.705H175.707V187.947H179.027V181.561H181.176V199.236ZM167.172 183.084H175.434V184.861H169.359V188.025H174.73V189.744H169.359V193.377C170.785 193.37 172.032 193.335 173.1 193.27C174.167 193.204 175.245 193.084 176.332 192.908L176.547 194.666C175.329 194.848 174.115 194.975 172.904 195.047C171.7 195.118 170.251 195.161 168.559 195.174H167.172V183.084Z" fill="white"/>
</g>
<defs>
<filter id="filter0_d_2938_10941" x="281.25" y="339.105" width="782.5" height="72.5" filterUnits="userSpaceOnUse" color-interpolation-filters="sRGB">
<feFlood flood-opacity="0" result="BackgroundImageFix"/>
<feColorMatrix in="SourceAlpha" type="matrix" values="0 0 0 0 0 0 0 0 0 0 0 0 0 0 0 0 0 0 127 0" result="hardAlpha"/>
<feOffset dy="5"/>
<feGaussianBlur stdDeviation="2.5"/>
<feComposite in2="hardAlpha" operator="out"/>
<feColorMatrix type="matrix" values="0 0 0 0 0 0 0 0 0 0 0 0 0 0 0 0 0 0 0.25 0"/>
<feBlend mode="normal" in2="BackgroundImageFix" result="effect1_dropShadow_2938_10941"/>
<feBlend mode="normal" in="SourceGraphic" in2="effect1_dropShadow_2938_10941" result="shape"/>
</filter>
<linearGradient id="paint0_linear_2938_10941" x1="672.5" y1="339.105" x2="672.5" y2="401.605" gradientUnits="userSpaceOnUse">
<stop stop-color="#2F5BC1"/>
<stop offset="1" stop-color="#6951CB"/>
</linearGradient>
<linearGradient id="paint1_linear_2938_10941" x1="409.655" y1="81.3555" x2="409.655" y2="113.817" gradientUnits="userSpaceOnUse">
<stop stop-color="white"/>
<stop offset="1" stop-color="#0089EC"/>
</linearGradient>
<linearGradient id="paint2_linear_2938_10941" x1="408.655" y1="184.355" x2="408.655" y2="216.817" gradientUnits="userSpaceOnUse">
<stop stop-color="white"/>
<stop offset="1" stop-color="#0089EC"/>
</linearGradient>
<linearGradient id="paint3_linear_2938_10941" x1="408.655" y1="278.355" x2="408.655" y2="310.817" gradientUnits="userSpaceOnUse">
<stop stop-color="white"/>
<stop offset="1" stop-color="#0089EC"/>
</linearGradient>
<linearGradient id="paint4_linear_2938_10941" x1="408.655" y1="304.355" x2="408.655" y2="336.817" gradientUnits="userSpaceOnUse">
<stop stop-color="white"/>
<stop offset="1" stop-color="#0089EC"/>
</linearGradient>
<linearGradient id="paint5_linear_2938_10941" x1="936.655" y1="81.3555" x2="936.655" y2="113.817" gradientUnits="userSpaceOnUse">
<stop stop-color="white"/>
<stop offset="1" stop-color="#0089EC"/>
</linearGradient>
<linearGradient id="paint6_linear_2938_10941" x1="936.655" y1="107.355" x2="936.655" y2="139.817" gradientUnits="userSpaceOnUse">
<stop stop-color="white"/>
<stop offset="1" stop-color="#0089EC"/>
</linearGradient>
<linearGradient id="paint7_linear_2938_10941" x1="936.655" y1="252.355" x2="936.655" y2="284.817" gradientUnits="userSpaceOnUse">
<stop stop-color="white"/>
<stop offset="1" stop-color="#0089EC"/>
</linearGradient>
<linearGradient id="paint8_linear_2938_10941" x1="936.655" y1="278.355" x2="936.655" y2="310.817" gradientUnits="userSpaceOnUse">
<stop stop-color="white"/>
<stop offset="1" stop-color="#0089EC"/>
</linearGradient>
<linearGradient id="paint9_linear_2938_10941" x1="620" y1="81.3555" x2="700.5" y2="351.355" gradientUnits="userSpaceOnUse">
<stop stop-color="white"/>
<stop offset="1" stop-color="#0089EC"/>
</linearGradient>
<linearGradient id="paint10_linear_2938_10941" x1="148.5" y1="100.48" x2="148.5" y2="244.48" gradientUnits="userSpaceOnUse">
<stop stop-color="#2F5BC1"/>
<stop offset="1" stop-color="#6951CB"/>
</linearGradient>
<clipPath id="clip0_2938_10941">
<rect width="1100" height="401.25" fill="white" transform="translate(0 0.355469)"/>
</clipPath>
</defs>
</svg>
