<svg width="60" height="60" viewBox="0 0 60 60" fill="none" xmlns="http://www.w3.org/2000/svg">
<g clip-path="url(#clip0_2987_40252)">
<path d="M33.6185 30.75H29.2513V33C29.2513 33.264 29.1973 33.5145 29.1133 33.75H31.5013C31.88 33.75 32.231 33.8528 32.5445 34.0185C32.9645 33.0863 33.3253 31.983 33.6185 30.75Z" fill="#FF8201"/>
<path d="M38.2487 14.2495C38.2487 13.222 38.4572 12.2425 38.8329 11.35C37.0892 9.96695 35.0619 9.01745 32.9102 8.56445C33.8792 9.9167 34.6292 11.9245 35.1467 14.2495H38.2487Z" fill="#FF8201"/>
<path d="M33.625 14.25C32.7422 10.5165 31.3247 8.25 30.001 8.25C28.6772 8.25 27.2597 10.5165 26.377 14.25H33.625Z" fill="#FF8201"/>
<path d="M34.4918 23.25H25.5195C25.5375 24.2678 25.5908 25.2697 25.6815 26.25H27C28.2405 26.25 29.25 27.2595 29.25 28.5V29.25H33.93C34.26 27.42 34.455 25.3815 34.4918 23.25Z" fill="#FF8201"/>
<path d="M27 33.75C27.414 33.75 27.75 33.414 27.75 33V28.5C27.75 28.086 27.414 27.75 27 27.75H26.25V30.75H21.75V27.75H21C20.586 27.75 20.25 28.086 20.25 28.5V33C20.25 33.414 20.586 33.75 21 33.75H22.5H25.5H27Z" fill="#FF8201"/>
<path d="M33.9305 15.75H26.0675C25.7495 17.5163 25.55 19.5382 25.5117 21.75H34.4855C34.448 19.5382 34.2477 17.5163 33.9305 15.75Z" fill="#FF8201"/>
<path d="M25.5 41.25H31.5C31.914 41.25 32.25 40.914 32.25 40.5V36C32.25 35.586 31.914 35.25 31.5 35.25H30.75V38.25H26.25V35.25H25.5C25.086 35.25 24.75 35.586 24.75 36V40.5C24.75 40.914 25.086 41.25 25.5 41.25Z" fill="#FF8201"/>
<path d="M35.4414 15.75C35.7692 17.6565 35.9559 19.7092 35.9919 21.75H41.5974L39.5087 18.6165C38.9274 17.7443 38.5509 16.7685 38.3724 15.75H35.4414Z" fill="#FF8201"/>
<path d="M17.4014 23.25L16.0469 25.2817C16.4789 27.4612 17.3991 29.4788 18.7499 31.2188V28.5C18.7499 27.2595 19.7594 26.25 20.9999 26.25H24.1769C24.0899 25.2675 24.0366 24.267 24.0194 23.25H17.4014Z" fill="#FF8201"/>
<path d="M18.75 35.25H20.25V36.75H18.75V35.25Z" fill="#FF8201"/>
<path d="M15.75 36V40.5C15.75 40.914 16.086 41.25 16.5 41.25H22.5C22.914 41.25 23.25 40.914 23.25 40.5V36C23.25 35.586 22.914 35.25 22.5 35.25H21.75V38.25H17.25V35.25H16.5C16.086 35.25 15.75 35.586 15.75 36Z" fill="#FF8201"/>
<path d="M23.25 27.75H24.75V29.25H23.25V27.75Z" fill="#FF8201"/>
<path d="M27.75 35.25H29.25V36.75H27.75V35.25Z" fill="#FF8201"/>
<path d="M42.75 51.75C44.4069 51.75 45.75 50.4069 45.75 48.75C45.75 47.0931 44.4069 45.75 42.75 45.75C41.0931 45.75 39.75 47.0931 39.75 48.75C39.75 50.4069 41.0931 51.75 42.75 51.75Z" fill="#FF8201"/>
<path d="M40.5005 30.75H41.5993C42.758 29.1172 43.5673 27.243 43.9565 25.2855L42.599 23.25H35.9923C35.9098 28.0725 35.036 32.4907 33.6133 35.2522C33.6965 35.487 33.7505 35.7367 33.7505 36V36.2317C34.265 36.0915 34.7698 35.9242 35.264 35.7262C35.408 32.9595 37.6985 30.75 40.5005 30.75Z" fill="#FF8201"/>
<path d="M38.25 36C38.25 34.7595 39.2595 33.75 40.5 33.75H50.1667C49.2195 32.8238 47.9257 32.25 46.5 32.25H40.5C38.4323 32.25 36.75 33.9323 36.75 36V48.75H38.25C38.25 46.2682 40.2682 44.25 42.75 44.25C45.2318 44.25 47.25 46.2682 47.25 48.75H50.25C51.0773 48.75 51.75 48.0773 51.75 47.25V41.25H38.25V36Z" fill="#FF8201"/>
<path d="M40.5 35.25C40.086 35.25 39.75 35.586 39.75 36V39.75H51.75V37.5C51.75 36.6945 51.5617 35.9333 51.2362 35.25H40.5Z" fill="#FF8201"/>
<path d="M33.7513 40.4997C33.7513 40.7637 33.6973 41.0142 33.6133 41.2497H35.2513V37.3467C34.7593 37.5207 34.2583 37.6714 33.7513 37.7959V40.4997Z" fill="#FF8201"/>
<path d="M14.7922 24.4598L19.2428 17.7847C19.9012 16.7955 20.25 15.6442 20.25 14.4562V14.25C20.25 10.9418 17.5582 8.25 14.25 8.25C10.9418 8.25 8.25 10.9418 8.25 14.25V14.4562C8.25 15.6442 8.59875 16.7948 9.258 17.7847L13.7085 24.4598C13.95 24.8235 14.55 24.8235 14.7922 24.4598ZM10.5 14.25C10.5 12.1793 12.1793 10.5 14.25 10.5C16.3208 10.5 18 12.1793 18 14.25C18 16.3208 16.3208 18 14.25 18C12.1793 18 10.5 16.3208 10.5 14.25Z" fill="#FF8201"/>
<path d="M24.8523 14.2497C25.3698 11.9247 26.1198 9.91693 27.0888 8.56543C24.9378 9.01843 22.9098 9.96793 21.166 11.3509C21.5418 12.2427 21.7503 13.2222 21.7503 14.2497H24.8523Z" fill="#FF8201"/>
<path d="M24.0078 21.75C24.0446 19.7092 24.2306 17.6565 24.5583 15.75H21.6266C21.4481 16.7692 21.0716 17.7443 20.4903 18.6165L18.4023 21.75H24.0078Z" fill="#FF8201"/>
<path d="M21.75 51.75C23.4069 51.75 24.75 50.4069 24.75 48.75C24.75 47.0931 23.4069 45.75 21.75 45.75C20.0931 45.75 18.75 47.0931 18.75 48.75C18.75 50.4069 20.0931 51.75 21.75 51.75Z" fill="#FF8201"/>
<path d="M45.75 8.25C42.4418 8.25 39.75 10.9418 39.75 14.25V14.4562C39.75 15.6442 40.0988 16.7947 40.758 17.7847L45.2085 24.4597C45.45 24.8228 46.0507 24.8228 46.2922 24.4597L50.7428 17.7847C51.4013 16.7955 51.75 15.6442 51.75 14.4562V14.25C51.75 10.9418 49.0582 8.25 45.75 8.25ZM45.75 18C43.6793 18 42 16.3207 42 14.25C42 12.1792 43.6793 10.5 45.75 10.5C47.8208 10.5 49.5 12.1792 49.5 14.25C49.5 16.3207 47.8208 18 45.75 18Z" fill="#FF8201"/>
<path d="M25.5 42.75H22.5H16.5H14.25V48.75H17.25C17.25 46.2682 19.2682 44.25 21.75 44.25C24.2318 44.25 26.25 46.2682 26.25 48.75H35.25V42.75H31.5H25.5Z" fill="#FF8201"/>
</g>
<defs>
<clipPath id="clip0_2987_40252">
<rect width="60" height="60" fill="white"/>
</clipPath>
</defs>
</svg>
