<svg width="53" height="53" viewBox="0 0 53 53" fill="none" xmlns="http://www.w3.org/2000/svg">
<path d="M26.7471 52.7321C41.1792 52.7321 52.8788 41.0325 52.8788 26.6004C52.8788 12.1683 41.1792 0.46875 26.7471 0.46875C12.315 0.46875 0.615479 12.1683 0.615479 26.6004C0.615479 41.0325 12.315 52.7321 26.7471 52.7321Z" fill="#67A118"/>
<path d="M39.3517 20.375V14.6329C39.3517 12.9053 37.9405 11.4941 36.213 11.4941H17.332C15.6045 11.4941 14.1933 12.9053 14.1933 14.6329V20.375C12.7577 20.667 11.6628 21.9322 11.6628 23.4651V24.7303C11.6628 25.7765 12.5144 26.6281 13.5607 26.6281H14.1933V36.0686C14.1933 37.5771 15.2882 38.8667 16.7237 39.1587V39.8399C16.7237 40.8862 17.5753 41.7378 18.6215 41.7378H21.152C22.1982 41.7378 23.0498 40.8862 23.0498 39.8399V39.2073H30.6168V39.8399C30.6168 40.8862 31.4684 41.7378 32.5146 41.7378H35.0451C36.0913 41.7378 36.9429 40.8862 36.9429 39.8399V39.1587C38.3784 38.8667 39.4733 37.6015 39.4733 36.0686V26.6281H40.1059C41.1522 26.6281 42.0038 25.7765 42.0038 24.7303V23.4651C42.0038 21.9565 40.9089 20.667 39.4733 20.375H39.3517ZM19.9598 35.5576C18.8405 35.5576 17.9403 34.6574 17.9403 33.5382C17.9403 32.4189 18.8405 31.5187 19.9598 31.5187C21.079 31.5187 21.9792 32.4189 21.9792 33.5382C21.9792 34.6574 21.079 35.5576 19.9598 35.5576ZM33.5609 35.5576C32.4416 35.5576 31.5414 34.6574 31.5414 33.5382C31.5414 32.4189 32.4416 31.5187 33.5609 31.5187C34.6801 31.5187 35.5804 32.4189 35.5804 33.5382C35.5804 34.6574 34.6801 35.5576 33.5609 35.5576ZM36.8456 27.2364C36.8456 28.2826 35.994 29.1342 34.9477 29.1342H18.5729C17.5266 29.1342 16.6751 28.2826 16.6751 27.2364V20.9346C16.6751 19.8884 17.5266 19.0368 18.5729 19.0368H34.9477C35.994 19.0368 36.8456 19.8884 36.8456 20.9346V27.2364Z" fill="white"/>
</svg>
