<svg width="43" height="45" viewBox="0 0 43 45" fill="none" xmlns="http://www.w3.org/2000/svg">
<path d="M21.2207 44.1898C32.9405 44.1898 42.4413 34.4182 42.4413 22.3644C42.4413 10.3106 32.9405 0.539062 21.2207 0.539062C9.50082 0.539062 0 10.3106 0 22.3644C0 34.4182 9.50082 44.1898 21.2207 44.1898Z" fill="#FF8201"/>
<path d="M31.4559 17.1635V12.3676C31.4559 10.9247 30.3099 9.74609 28.9071 9.74609H13.5744C12.1716 9.74609 11.0256 10.9247 11.0256 12.3676V17.1635C9.85984 17.4073 8.9707 18.464 8.9707 19.7443V20.801C8.9707 21.6748 9.66225 22.3861 10.5119 22.3861H11.0256V30.2709C11.0256 31.5308 11.9147 32.6078 13.0805 32.8517V33.4207C13.0805 34.2945 13.772 35.0058 14.6216 35.0058H16.6765C17.5261 35.0058 18.2177 34.2945 18.2177 33.4207V32.8923H24.3626V33.4207C24.3626 34.2945 25.0542 35.0058 25.9038 35.0058H27.9587C28.8083 35.0058 29.4998 34.2945 29.4998 33.4207V32.8517C30.6656 32.6078 31.5547 31.5511 31.5547 30.2709V22.3861H32.0684C32.9181 22.3861 33.6096 21.6748 33.6096 20.801V19.7443C33.6096 18.4844 32.7205 17.4073 31.5547 17.1635H31.4559ZM15.7084 29.8441C14.7995 29.8441 14.0684 29.0922 14.0684 28.1574C14.0684 27.2226 14.7995 26.4707 15.7084 26.4707C16.6173 26.4707 17.3483 27.2226 17.3483 28.1574C17.3483 29.0922 16.6173 29.8441 15.7084 29.8441ZM26.7534 29.8441C25.8445 29.8441 25.1134 29.0922 25.1134 28.1574C25.1134 27.2226 25.8445 26.4707 26.7534 26.4707C27.6623 26.4707 28.3933 27.2226 28.3933 28.1574C28.3933 29.0922 27.6623 29.8441 26.7534 29.8441ZM29.4208 22.8941C29.4208 23.768 28.7292 24.4792 27.8796 24.4792H14.5821C13.7325 24.4792 13.041 23.768 13.041 22.8941V17.6309C13.041 16.757 13.7325 16.0458 14.5821 16.0458H27.8796C28.7292 16.0458 29.4208 16.757 29.4208 17.6309V22.8941Z" fill="white"/>
</svg>
