<svg width="100" height="100" viewBox="0 0 100 100" fill="none" xmlns="http://www.w3.org/2000/svg">
<g clip-path="url(#clip0_3192_82943)">
<path fill-rule="evenodd" clip-rule="evenodd" d="M66.401 28.3113L63.6654 28.4096C63.1496 28.4278 62.7463 28.8607 62.7644 29.3764C62.7826 29.8921 63.2155 30.2955 63.7312 30.2773L68.8502 30.0935C69.4793 30.1159 69.9595 29.5163 69.7844 28.9009L68.3609 23.9112C68.2194 23.4137 67.7012 23.1252 67.2037 23.2667C66.7062 23.4083 66.4176 23.9265 66.5592 24.4239L67.1659 26.5504C62.1791 22.8943 56.1868 20.9375 50 20.9375C33.9494 20.9375 20.9375 33.9494 20.9375 50C20.9375 55.2646 22.3559 60.4135 25.065 64.9286C25.3299 65.3715 25.9038 65.5159 26.3466 65.2509C26.7895 64.9859 26.9339 64.4121 26.6689 63.9691C24.1272 59.7329 22.8125 54.9385 22.8125 50C22.8125 34.9846 34.9846 22.8125 50 22.8125C55.948 22.8125 61.6616 24.7211 66.401 28.3113ZM33.4408 75.5759L32.8341 73.4496C37.822 77.1069 43.8125 79.0625 50 79.0625C66.0506 79.0625 79.0625 66.0506 79.0625 50C79.0625 44.8582 77.7165 39.8362 75.1273 35.3925C74.8685 34.9455 74.2962 34.793 73.8493 35.0519C73.4023 35.3108 73.2499 35.883 73.5088 36.33C75.9331 40.4912 77.1875 45.1855 77.1875 50C77.1875 65.0154 65.0154 77.1875 50 77.1875C44.0546 77.1875 38.3411 75.2776 33.603 71.6885L36.3346 71.5904C36.8504 71.5722 37.2537 71.1393 37.2356 70.6236C37.2174 70.1079 36.7845 69.7045 36.2688 69.7227L31.1497 69.9065C30.5206 69.8844 30.0403 70.4836 30.2155 71.0991L31.6391 76.0887C31.7806 76.5862 32.2988 76.8748 32.7963 76.7333C33.2937 76.5916 33.5824 76.0735 33.4408 75.5759ZM56.7316 30.4692H43.771C43.1255 30.4692 42.5991 30.9956 42.5991 31.6411V68.1093H46.3222V57.5717C46.3222 56.5937 47.2073 55.7957 48.2927 55.7957H52.21C53.2953 55.7957 54.1805 56.5936 54.1805 57.5717V68.1093H57.9035V31.6411C57.9034 30.9956 57.377 30.4692 56.7316 30.4692ZM49.1455 50.7385C49.1455 50.9967 48.9349 51.2073 48.6767 51.2073H46.0596C45.8014 51.2073 45.5908 50.9967 45.5908 50.7385V48.1215C45.5908 47.8633 45.8014 47.6527 46.0596 47.6527H48.6767C48.9349 47.6527 49.1455 47.8633 49.1455 48.1215V50.7385ZM49.1455 44.9723C49.1455 45.2305 48.9349 45.4411 48.6767 45.4411H46.0596C45.8014 45.4411 45.5908 45.2305 45.5908 44.9723V42.3552C45.5908 42.097 45.8014 41.8864 46.0596 41.8864H48.6767C48.9349 41.8864 49.1455 42.097 49.1455 42.3552V44.9723ZM54.9118 50.7385C54.9118 50.9967 54.7012 51.2073 54.443 51.2073H51.826C51.5679 51.2073 51.3573 50.9967 51.3573 50.7385V48.1215C51.3573 47.8633 51.5679 47.6527 51.826 47.6527H54.443C54.7012 47.6527 54.9118 47.8633 54.9118 48.1215V50.7385ZM54.9118 44.9723C54.9118 45.2305 54.7012 45.4411 54.443 45.4411H51.826C51.5679 45.4411 51.3573 45.2305 51.3573 44.9723V42.3552C51.3573 42.097 51.5679 41.8864 51.826 41.8864H54.443C54.7012 41.8864 54.9118 42.097 54.9118 42.3552V44.9723ZM54.9118 36.9946C54.9118 37.2528 54.7012 37.4634 54.443 37.4634H46.0596C45.8014 37.4634 45.5908 37.2528 45.5908 36.9946V34.5099C45.5908 34.2518 45.8014 34.0412 46.0596 34.0412H54.443C54.7012 34.0412 54.9118 34.2518 54.9118 34.5099V36.9946ZM54.1715 26.7249C54.5582 26.7249 54.8746 27.0413 54.8746 27.428V28.5943H45.628V27.428C45.628 27.0413 45.9444 26.7249 46.3311 26.7249H49.3137V25.1095C49.3137 24.5918 49.7335 24.172 50.2513 24.172C50.769 24.172 51.1888 24.5918 51.1888 25.1095V26.7249H54.1715ZM69.7931 36.5454L59.7784 40.9159V68.1143H62.3612V49.4705C62.3612 48.9528 62.7809 48.533 63.2987 48.533C63.8164 48.533 64.2362 48.9528 64.2362 49.4705V68.1141H66.1555V49.4705C66.1555 48.9528 66.5752 48.533 67.093 48.533C67.6107 48.533 68.0305 48.9528 68.0305 49.4705V68.1141H69.4414C70.0869 68.1141 70.6133 67.5877 70.6133 66.9423V37.0823C70.6134 36.6583 70.1818 36.3757 69.7931 36.5454ZM68.6949 45.2348C68.6949 45.4926 68.484 45.7036 68.2262 45.7036H62.1657C61.9079 45.7036 61.697 45.4926 61.697 45.2348V43.3172C61.697 43.0593 61.9079 42.8484 62.1657 42.8484H68.2262C68.484 42.8484 68.6949 43.0593 68.6949 43.3172V45.2348ZM30.5584 37.4633C29.9138 37.4633 29.3865 37.9906 29.3865 38.6352V66.9375C29.3865 67.582 29.9138 68.1093 30.5584 68.1093H40.7241V37.4633H30.5584ZM36.8326 62.7443C36.8326 63.0024 36.622 63.213 36.3638 63.213H33.7468C33.4886 63.213 33.278 63.0024 33.278 62.7443V60.1271C33.278 59.8689 33.4886 59.6584 33.7468 59.6584H36.3638C36.622 59.6584 36.8326 59.8689 36.8326 60.1271V62.7443ZM36.8326 56.978C36.8326 57.2362 36.622 57.4468 36.3638 57.4468H33.7468C33.4886 57.4468 33.278 57.2362 33.278 56.978V54.3609C33.278 54.1027 33.4886 53.8922 33.7468 53.8922H36.3638C36.622 53.8922 36.8326 54.1027 36.8326 54.3609V56.978ZM36.8326 51.2117C36.8326 51.4699 36.622 51.6805 36.3638 51.6805H33.7468C33.4886 51.6805 33.278 51.4699 33.278 51.2117V48.5946C33.278 48.3364 33.4886 48.1258 33.7468 48.1258H36.3638C36.622 48.1258 36.8326 48.3364 36.8326 48.5946V51.2117ZM36.8326 45.4454C36.8326 45.7036 36.622 45.9141 36.3638 45.9141H33.7468C33.4886 45.9141 33.278 45.7036 33.278 45.4454V42.8282C33.278 42.5701 33.4886 42.3595 33.7468 42.3595H36.3638C36.622 42.3595 36.8326 42.5701 36.8326 42.8282V45.4454Z" fill="#2F5BC1"/>
</g>
<defs>
<clipPath id="clip0_3192_82943">
<rect width="60" height="60" fill="white" transform="translate(20 20)"/>
</clipPath>
</defs>
</svg>
