<svg width="100" height="100" viewBox="0 0 100 100" fill="none" xmlns="http://www.w3.org/2000/svg">
<g clip-path="url(#clip0_3361_15505)">
<path d="M50.0002 79.2972C66.1805 79.2972 79.2972 66.1805 79.2972 50.0002C79.2972 33.8199 66.1805 20.7031 50.0002 20.7031C33.8199 20.7031 20.7031 33.8199 20.7031 50.0002C20.7031 66.1805 33.8199 79.2972 50.0002 79.2972Z" fill="#2F5BC1"/>
<path fill-rule="evenodd" clip-rule="evenodd" d="M48.9821 61.5432C48.9682 60.8913 48.6981 60.2423 48.6981 60.2423C48.1579 58.9525 47.0842 58.8389 47.0842 58.8389C47.6284 60.1106 46.5597 60.495 46.4594 61.5053C46.4589 61.5181 46.4584 61.5307 46.458 61.5432H45.3353C44.9582 61.1327 44.6911 60.5943 44.6032 59.9251C44.3925 58.3208 45.5865 57.5024 45.2914 56.3957C45.2914 56.3957 46.1835 56.9001 46.3043 57.49C46.3043 57.49 47.5965 56.3566 47.1494 54.2461C47.1494 54.2461 48.6245 55.6531 48.6855 57.4313C48.6855 57.4313 49.5989 57.1547 49.7594 56.4738C51.2559 58.8581 51.0589 60.5597 50.1744 61.5432H48.9821Z" fill="white"/>
<path fill-rule="evenodd" clip-rule="evenodd" d="M32.5195 66.1133H68.2125V68.8355H32.5195V66.1133Z" fill="white"/>
<path fill-rule="evenodd" clip-rule="evenodd" d="M51.5543 65.2771V62.8222C51.5543 62.5784 51.3548 62.3789 51.1109 62.3789H44.33C44.0862 62.3789 43.8867 62.5784 43.8867 62.8222V65.2771H51.5543Z" fill="white"/>
<path fill-rule="evenodd" clip-rule="evenodd" d="M34.7461 65.2755V45.9155H38.4815V65.2755H34.7461ZM34.7461 43.7152H38.4815V40.0781H34.7461V43.7152Z" fill="white"/>
<path fill-rule="evenodd" clip-rule="evenodd" d="M31.793 43.5078H54.3497V46.1267H31.793V43.5078Z" fill="white"/>
<path fill-rule="evenodd" clip-rule="evenodd" d="M45.2266 40.3789H46.4825V43.7151H45.2266V40.3789ZM48.9604 40.3789H50.2163V43.7151H48.9604V40.3789ZM50.2163 45.9153H45.2266V50.5449C45.2266 51.9168 46.3492 53.0397 47.7214 53.0397C49.0936 53.0397 50.2163 51.9171 50.2163 50.5449V45.9153Z" fill="white"/>
<path fill-rule="evenodd" clip-rule="evenodd" d="M50.4331 40.5889H45.0064C44.7751 40.5889 44.5859 40.3997 44.5859 40.1684V39.1744C44.5859 38.9431 44.7751 38.7539 45.0064 38.7539H50.4331C50.6643 38.7539 50.8535 38.9431 50.8535 39.1744V40.1684C50.8535 40.3997 50.6643 40.5889 50.4331 40.5889Z" fill="white"/>
<path d="M46.7695 38.9638H48.6702V36.4909C48.6702 34.6063 50.2156 33.0608 52.1003 33.0608H56.1548C58.0394 33.0608 59.5848 34.6063 59.5848 36.4909V45.6441H61.4855V36.4909C61.4855 33.5571 59.0886 31.1602 56.1548 31.1602H52.1003C49.1664 31.1602 46.7695 33.5571 46.7695 36.4909V38.9638Z" fill="white"/>
<path fill-rule="evenodd" clip-rule="evenodd" d="M57.8069 46.9014H63.2595C63.4519 46.9014 63.6094 46.744 63.6094 46.5516V45.4788C63.6094 45.2863 63.4519 45.1289 63.2595 45.1289H57.8069C57.6145 45.1289 57.457 45.2864 57.457 45.4788V46.5516C57.457 46.744 57.6145 46.9014 57.8069 46.9014Z" fill="white"/>
<path d="M58.7617 48.1016V49.0286H59.9959C60.2518 49.0286 60.4594 48.821 60.4594 48.5651C60.4594 48.3091 60.2518 48.1016 59.9959 48.1016H58.7617Z" fill="white"/>
<path d="M58.7617 49.7031V50.6301H59.9959C60.2518 50.6301 60.4594 50.4226 60.4594 50.1666C60.4594 49.9106 60.2518 49.7031 59.9959 49.7031H58.7617Z" fill="white"/>
<path d="M58.7617 51.3008V52.2278H59.9959C60.2518 52.2278 60.4594 52.0202 60.4594 51.7642C60.4594 51.5083 60.2518 51.3008 59.9959 51.3008H58.7617Z" fill="white"/>
<path d="M63.3945 54.0201C63.3878 54.0173 62.9539 53.8191 63.0048 52.2058L63.0059 46.6914H61.8854L61.8863 52.1981C61.8239 54.3828 62.7784 54.9562 62.888 55.0154C63.6947 55.4348 64.3766 56.0614 64.8629 56.825C64.6006 56.9109 64.3385 56.9881 64.0763 56.9881C63.4859 56.9881 62.8955 56.5966 62.3051 56.5966C61.7147 56.5966 61.1243 56.9881 60.534 56.9881C59.9436 56.9881 59.3532 56.5966 58.7628 56.5966C58.1724 56.5966 57.582 56.9881 56.9916 56.9881C56.7295 56.9881 56.4673 56.9109 56.2051 56.8251C56.6912 56.0615 57.3731 55.4347 58.1799 55.0154C58.2895 54.9562 59.244 54.3828 59.1817 52.1981C59.182 50.9692 59.1822 48.2265 59.1824 46.6914H58.062L58.0631 52.2058C58.114 53.8191 57.6801 54.0173 57.6735 54.0201C56.6464 54.5525 55.7886 55.3583 55.1919 56.3422C54.6141 57.2946 54.2812 58.4103 54.2812 59.6007C54.2812 61.9762 55.6205 64.1515 57.7446 65.2169L57.994 65.2781H63.0739L63.3234 65.2169C65.4474 64.1515 66.7866 61.9762 66.7866 59.6007C66.7866 58.4103 66.4538 57.2946 65.876 56.3421C65.2793 55.3583 64.4215 54.5525 63.3945 54.0201ZM62.7939 58.8663C63.3535 58.8663 63.8071 59.3199 63.8071 59.8795C63.8071 60.439 63.3535 60.8926 62.7939 60.8926C62.2344 60.8926 61.7808 60.439 61.7808 59.8795C61.7808 59.3199 62.2344 58.8663 62.7939 58.8663ZM58.274 60.0294C58.8336 60.0294 59.2872 60.4829 59.2872 61.0425C59.2872 61.6021 58.8336 62.0557 58.274 62.0557C57.7144 62.0557 57.2609 61.6021 57.2609 61.0425C57.2609 60.4829 57.7144 60.0294 58.274 60.0294Z" fill="white"/>
</g>
<defs>
<clipPath id="clip0_3361_15505">
<rect width="60" height="60" fill="white" transform="translate(20 20)"/>
</clipPath>
</defs>
</svg>
