<svg width="80" height="86" viewBox="0 0 80 86" fill="none" xmlns="http://www.w3.org/2000/svg">
<g clip-path="url(#clip0_6059_42518)">
<mask id="mask0_6059_42518" style="mask-type:luminance" maskUnits="userSpaceOnUse" x="0" y="0" width="80" height="86">
<path d="M79.5 0.600006H0.5V85.6H79.5V0.600006Z" fill="white"/>
</mask>
<g mask="url(#mask0_6059_42518)">
<path fill-rule="evenodd" clip-rule="evenodd" d="M79.1002 79.7L70.9002 65.2C70.7002 64.7 70.1002 64.6 69.6002 64.8L68.4002 65.5L67.1002 63.2C70.0002 61.2 72.2002 58.3 73.2002 54.7C76.0002 44.8 68.5002 35.1 58.3002 35.1C48.1002 35.1 39.0002 47.7 44.8002 58C47.5002 62.9 52.7002 65.9 58.3002 65.9C63.9002 65.9 61.9002 65.6 63.6002 65L65.0002 67.5L63.8002 68.2C63.3002 68.4 63.2002 69 63.4002 69.5L71.6002 84C72.1002 85 73.3002 85.7 74.5002 85.7C75.7002 85.7 76.8002 84.9 78.0002 84.2C79.6002 83.3 80.1002 81.3 79.2002 79.8L79.1002 79.7ZM46.3002 47.1C49.3002 36.6 63.6002 34.9 69.0002 44.4C73.6002 52.7 67.6002 62.7 58.2002 62.7C48.8002 62.7 44.0002 54.9 46.3002 47.1Z" fill="#FF8201"/>
<path fill-rule="evenodd" clip-rule="evenodd" d="M31.2996 62C27.6996 62 27.6996 67.4 31.2996 67.4C34.8996 67.4 34.8996 62 31.2996 62Z" fill="#FF8201"/>
<path fill-rule="evenodd" clip-rule="evenodd" d="M16.1995 46.1C15.8995 46.1 15.4995 46.3 15.3995 46.7C8.89949 60.8 19.3995 77.1 35.2995 77.1C51.1995 77.1 49.4995 73.5 53.4995 67.5C50.5995 66.9 47.9995 65.5 45.7995 63.6C41.6995 63.9 38.8995 59.7 40.7995 56.2C39.8995 53.6 39.5995 50.9 39.9995 48.3C32.1995 47.1 24.1995 45.2 16.1995 46.1ZM45.0995 66.4C46.3995 66.4 46.3995 68.4 45.0995 68.4C43.7995 68.4 43.6995 66.4 45.0995 66.4ZM30.6995 52C31.9995 52 31.9995 54 30.6995 54C29.3995 54 29.2995 52 30.6995 52ZM22.9995 65C21.6995 65 21.6995 63 22.9995 63C24.2995 63 24.3995 65 22.9995 65ZM22.8995 59.8C20.2995 59.8 18.1995 57.7 18.1995 55.2C18.1995 52.7 20.2995 50.7 22.8995 50.7C25.4995 50.7 27.4995 52.7 27.4995 55.2C27.4995 57.7 25.3995 59.8 22.8995 59.8ZM31.3995 69.6C28.7995 69.6 26.7995 67.5 26.7995 65C26.7995 62.5 28.8995 60.5 31.3995 60.5C33.8995 60.5 36.0995 62.6 36.0995 65C36.0995 67.4 33.9995 69.6 31.3995 69.6ZM36.8995 72.2C35.4995 72.2 35.4995 70.2 36.8995 70.2C38.2995 70.2 38.1995 72.2 36.8995 72.2ZM37.4995 61.6C36.1995 61.6 36.1995 59.6 37.4995 59.6C38.7995 59.6 38.8995 61.6 37.4995 61.6Z" fill="#FF8201"/>
<path fill-rule="evenodd" clip-rule="evenodd" d="M23.2004 52.3C20.3004 52.3 20.3004 57.7 23.2004 57.7C26.1004 57.7 26.1004 52.3 23.2004 52.3Z" fill="#FF8201"/>
<path fill-rule="evenodd" clip-rule="evenodd" d="M35.7 79.5C21.8 79.5 10.5 68.3 10.5 54.5C10.5 40.7 12.6 42.9 16.4 38.5C17.1 37.7 17 36.6 16.4 35.8L12.7 32.2L16.1 28.9L20.2 32.9C20.9 33.5 21.9 33.7 22.7 33.2C24.5 32.1 26.4 31.3 28.4 30.7C29.3 30.5 29.9 29.7 29.9 28.8V11.1H42V28.8C42 29.6 42.6 30.4 43.4 30.7C46 31.4 48.3 32.6 50.5 34.1C52 33.4 53.5 32.9 55.1 32.7C52.4 30.4 49.3 28.6 46 27.4V10.1C48.3 9.80001 50.1 7.80001 50.1 5.40001C50.1 3.00001 47.9 0.700012 45.3 0.700012H26.5C23.9 0.700012 21.7 2.80001 21.7 5.40001C21.7 8.00001 23.5 9.80001 25.8 10.1V27.4C24.4 27.8 23.2 28.4 21.9 29.1L18.2 25.4L19.7 23.9C20.1 23.5 20.1 22.9 19.7 22.5L14.3 17.1C13.9 16.7 13.3 16.7 12.9 17.1L0.8 29.1C0.4 29.5 0.4 30.1 0.8 30.5L6.2 35.8C6.4 36 6.7 36.1 6.9 36.1C7.1 36.1 7.5 36.1 7.6 35.8L9.1 34.3L12.2 37.3C8.5 42.3 6.5 48.3 6.5 54.5C6.5 70.4 19.6 83.4 35.7 83.4C51.8 83.4 57.3 76.9 62.1 66.9C60.5 67.3 58.9 67.4 57.3 67.4C52.8 74.7 44.5 79.5 35.7 79.5Z" fill="#FF8201"/>
</g>
</g>
<defs>
<clipPath id="clip0_6059_42518">
<rect width="79" height="86" fill="white" transform="translate(0.5)"/>
</clipPath>
</defs>
</svg>
