<svg width="91" height="78" viewBox="0 0 91 78" fill="none" xmlns="http://www.w3.org/2000/svg">
<path fill-rule="evenodd" clip-rule="evenodd" d="M71.8853 24.2369H79.1569C80.2189 24.2369 81.0827 25.1146 81.0827 26.1936C81.0827 27.2727 80.2189 28.1503 79.1569 28.1503H70.5825L67.3608 37.9266C66.8369 39.5236 65.3642 40.5955 63.7144 40.5955H63.6153C61.9231 40.5451 60.4645 39.3869 60.0114 37.7324L57.3987 28.1575H52.1804L49.5677 37.7324C49.1146 39.3869 47.656 40.5523 45.9638 40.5955H45.8646C44.2149 40.5955 42.7422 39.5236 42.2182 37.9266L38.9966 28.1503H30.7833C29.7212 28.1503 28.8574 27.2727 28.8574 26.1936C28.8574 25.1146 29.7212 24.2369 30.7833 24.2369H37.708L35.6051 17.8633H30.7833C29.7212 17.8633 28.8574 16.9857 28.8574 15.9066C28.8574 14.8275 29.7212 13.9499 30.7833 13.9499H34.3164L31.8454 6.45405C31.1656 4.41103 32.256 2.19536 34.2669 1.51196C36.2848 0.821362 38.4656 1.92919 39.1382 3.97221L42.4306 13.9499H48.0808L51.0688 3.00826C51.5219 1.3537 52.9451 0.245861 54.5453 0.152344H54.5594H54.7931H55.0267H55.048C56.6411 0.253056 58.0713 1.3537 58.5245 3.00826L61.5124 13.9499H67.1626L70.455 3.97221C71.1347 1.92919 73.3155 0.828552 75.3263 1.51196C77.3372 2.19536 78.4205 4.41103 77.7478 6.45405L75.2768 13.9499H79.171C80.2331 13.9499 81.0969 14.8275 81.0969 15.9066C81.0969 16.9857 80.2331 17.8633 79.171 17.8633H73.9881L71.8853 24.2369ZM64.0685 23.3305L65.874 17.8633H62.5745L64.0685 23.3305ZM45.5177 23.3305L47.0117 17.8633H43.7122L45.5177 23.3305ZM54.8002 18.5899L53.2566 24.2369H56.3437L54.8002 18.5899ZM19.0371 44.6319V76.5864H0.769531V39.0352H19.0371V43.5816C18.945 43.9125 18.945 44.2722 19.0371 44.6319ZM15.1641 57.8108C15.1641 54.6599 12.8983 52.2788 9.9033 52.2788C6.85163 52.2788 4.45844 54.7103 4.45844 57.8108C4.45844 60.7602 6.95076 63.1557 9.9033 63.1557C12.8558 63.1557 15.1641 60.9616 15.1641 57.8108ZM89.5574 47.4658C89.5786 47.5162 89.6069 47.5666 89.6352 47.6097V47.6025C90.3079 48.6312 90.5345 50.034 90.2442 51.3504C89.968 52.6094 89.2387 53.6524 88.1979 54.2855L49.3334 76.8738C48.5545 77.363 47.4854 77.6076 46.1259 77.6076C42.1396 77.6076 37.1692 75.5286 37.1196 75.507C34.9037 74.5647 32.6383 73.4139 30.4436 72.299L30.4432 72.2988L30.4428 72.2986C29.6356 71.9749 28.7505 71.536 27.9505 71.0757C27.5185 70.8311 27.03 70.7016 26.5415 70.7016H22.8242V45.8185C23.858 45.6674 25.4369 45.502 27.2495 45.502C31.3137 45.502 36.8435 46.3364 40.1571 50.3361C40.759 50.9548 41.1626 50.998 41.6794 50.998H59.246C60.7471 50.998 61.6533 52.2353 61.6533 53.4294C61.6604 54.0625 61.4126 54.6668 60.9595 55.1272C60.4922 55.6091 59.8337 55.8825 59.1681 55.8825H43.5699C42.522 55.8825 41.6653 56.7314 41.6582 57.7816C41.6511 58.3715 41.8777 58.9398 42.2742 59.3499C42.6353 59.7168 43.0884 59.9182 43.5557 59.9182H59.2531C60.4072 59.9182 61.5967 59.5657 62.4888 58.9686C62.6021 58.9614 62.7154 58.9254 62.8145 58.8679L83.7443 46.5235C84.7781 45.8832 85.7339 45.5667 86.5977 45.5667C88.7148 45.5667 89.5503 47.4443 89.5574 47.4658ZM9.9027 60.0921C11.2126 60.0921 12.1472 59.1425 12.1472 57.8117C12.1472 56.4808 11.2126 55.5312 9.9027 55.5312C8.59282 55.5312 7.6582 56.4808 7.6582 57.8117C7.6582 59.1425 8.59282 60.0921 9.9027 60.0921Z" fill="#FF8201"/>
</svg>
