<svg width="101" height="107" viewBox="0 0 101 107" fill="none" xmlns="http://www.w3.org/2000/svg">
<path d="M34 44.8265H26.2457C25.4493 44.8265 24.8044 44.1816 24.8044 43.3852V35.6309C22.0085 36.6215 20 39.2918 20 42.4243C20 46.3986 23.2336 49.6309 27.2065 49.6309C30.3378 49.6309 33.008 47.6223 34 44.8265Z" fill="#FF8201"/>
<path d="M74.5 63.6309C75.3284 63.6309 76 62.9593 76 62.1309C76 61.3024 75.3284 60.6309 74.5 60.6309C73.6716 60.6309 73 61.3024 73 62.1309C73 62.9593 73.6716 63.6309 74.5 63.6309Z" fill="#FF8201"/>
<path d="M48.5 66.6309C49.3284 66.6309 50 65.9593 50 65.1309C50 64.3024 49.3284 63.6309 48.5 63.6309C47.6716 63.6309 47 64.3024 47 65.1309C47 65.9593 47.6716 66.6309 48.5 66.6309Z" fill="#FF8201"/>
<path d="M38.5 76.6309C39.3284 76.6309 40 75.9593 40 75.1309C40 74.3024 39.3284 73.6309 38.5 73.6309C37.6716 73.6309 37 74.3024 37 75.1309C37 75.9593 37.6716 76.6309 38.5 76.6309Z" fill="#FF8201"/>
<path d="M60 76.6309C60.5523 76.6309 61 75.9593 61 75.1309C61 74.3024 60.5523 73.6309 60 73.6309C59.4477 73.6309 59 74.3024 59 75.1309C59 75.9593 59.4477 76.6309 60 76.6309Z" fill="#FF8201"/>
<path d="M70.9992 33.5434V20.6309H31V33.0806C34.3755 34.6958 36.714 38.1544 36.714 42.153C36.6614 42.6571 36.7987 43.1985 36.5998 43.6729C36.0928 47.0154 33.9391 49.8191 31 51.2255V86.6309H81V34.9781H72.429C71.6397 34.9781 71.0005 34.3362 71.0005 33.5434H70.9992ZM41.0008 30.6739H65.2865C66.0759 30.6739 66.715 31.3159 66.715 32.1087C66.715 32.9014 66.0759 33.5434 65.2865 33.5434H41.0008C40.2114 33.5434 39.5723 32.9014 39.5723 32.1087C39.5723 31.3159 40.2114 30.6739 41.0008 30.6739ZM41.0008 36.4129H65.2865C66.0759 36.4129 66.715 37.0548 66.715 37.8476C66.715 38.6404 66.0759 39.2823 65.2865 39.2823H41.0008C40.2114 39.2823 39.5723 38.6404 39.5723 37.8476C39.5723 37.0548 40.2114 36.4129 41.0008 36.4129ZM73.8575 66.5434C73.1965 66.5434 72.5702 66.3926 72.0106 66.1232L63.7874 74.3822C63.8324 74.6323 63.858 74.8888 63.858 75.1518C63.858 77.5249 61.9354 79.4559 59.5725 79.4559C57.2097 79.4559 55.287 77.5249 55.287 75.1518C55.287 74.4879 55.4372 73.8588 55.7054 73.2968L50.8629 68.4332C50.1224 69.0442 49.1752 69.4128 48.1445 69.4128C47.4836 69.4128 46.8572 69.262 46.2976 68.9926L42.0109 73.2981C42.2791 73.8601 42.4293 74.4892 42.4293 75.153C42.4293 77.5262 40.5066 79.4572 38.1438 79.4572C35.7809 79.4572 33.8583 77.5262 33.8583 75.153C33.8583 72.7799 35.7809 70.8489 38.1438 70.8489C38.8048 70.8489 39.4311 70.9997 39.9907 71.2691L44.2775 66.9636C44.0092 66.4016 43.8591 65.7725 43.8591 65.1087C43.8591 62.7355 45.7817 60.8045 48.1445 60.8045C50.5074 60.8045 52.43 62.7355 52.43 65.1087C52.43 65.3716 52.4057 65.6282 52.3595 65.8782L57.7256 71.2678C58.2852 70.9984 58.9115 70.8476 59.5725 70.8476C60.6032 70.8476 61.5504 71.215 62.2909 71.8273L69.9904 64.0942C69.7222 63.5322 69.572 62.9031 69.572 62.2392C69.572 59.8661 71.4947 57.935 73.8575 57.935C76.2204 57.935 78.143 59.8661 78.143 62.2392C78.143 64.6124 76.2204 66.5434 73.8575 66.5434ZM76.7145 55.0656H52.4288C51.6394 55.0656 51.0003 54.4236 51.0003 53.6309C51.0003 52.8381 51.6394 52.1961 52.4288 52.1961H76.7145C77.5038 52.1961 78.143 52.8381 78.143 53.6309C78.143 54.4236 77.5038 55.0656 76.7145 55.0656ZM78.143 47.892C78.143 48.6847 77.5038 49.3267 76.7145 49.3267H52.4288C51.6394 49.3267 51.0003 48.6847 51.0003 47.892C51.0003 47.0992 51.6394 46.4572 52.4288 46.4572H76.7145C77.5038 46.4572 78.143 47.0992 78.143 47.892Z" fill="#FF8201"/>
<path d="M74 23.6309V31.6309H80L74 23.6309Z" fill="#FF8201"/>
<path d="M28 34.6309V41.6309H34C33.7869 37.8836 31.212 34.8782 28 34.6309Z" fill="#FF8201"/>
</svg>
