<svg width="47" height="48" viewBox="0 0 47 48" fill="none" xmlns="http://www.w3.org/2000/svg">
<path d="M23.354 47.5703C36.252 47.5703 46.708 37.1143 46.708 24.2163C46.708 11.3182 36.252 0.862305 23.354 0.862305C10.4559 0.862305 0 11.3182 0 24.2163C0 37.1143 10.4559 47.5703 23.354 47.5703Z" fill="#2350A1"/>
<path d="M23.0059 9.42383C16.2071 9.42383 10.7004 10.1841 10.7004 15.5062V29.9517C10.7004 32.8864 13.1154 35.2737 16.0841 35.2737L13.7768 37.5546V38.3149H32.235V37.5546L29.9277 35.2737C32.8964 35.2737 35.3113 32.8864 35.3113 29.9517V15.5062C35.3113 10.1841 29.8046 9.42383 23.0059 9.42383ZM16.0841 32.2326C14.8074 32.2326 13.7768 31.2138 13.7768 29.9517C13.7768 28.6896 14.8074 27.6708 16.0841 27.6708C17.3608 27.6708 18.3913 28.6896 18.3913 29.9517C18.3913 31.2138 17.3608 32.2326 16.0841 32.2326ZM21.4677 23.1091H13.7768V15.5062H21.4677V23.1091ZM29.9277 32.2326C28.651 32.2326 27.6204 31.2138 27.6204 29.9517C27.6204 28.6896 28.651 27.6708 29.9277 27.6708C31.2044 27.6708 32.235 28.6896 32.235 29.9517C32.235 31.2138 31.2044 32.2326 29.9277 32.2326ZM32.235 23.1091H24.5441V15.5062H32.235V23.1091Z" fill="white"/>
</svg>
