<svg width="110" height="110" viewBox="0 0 110 110" fill="none" xmlns="http://www.w3.org/2000/svg">
<path d="M55.0001 36.1662C59.4637 36.1662 63.0838 32.5472 63.0838 28.0836C63.0838 23.62 59.4639 20 55.0001 20C50.5364 20 46.9176 23.6199 46.9176 28.0836C46.9176 32.5474 50.5365 36.1662 55.0001 36.1662Z" fill="#2F5BC1"/>
<path d="M55.0001 51.1992C60.5527 51.1992 66.2391 49.2765 65.3518 43.9534C64.9904 41.7916 63.2028 38.7612 61.8449 37.4044C61.6691 37.2297 60.8732 37.184 60.6569 37.318C59.0091 38.3344 57.0746 38.9269 55 38.9269C52.9265 38.9269 50.9919 38.3344 49.3443 37.318C49.1279 37.184 48.3318 37.2297 48.1561 37.4044C46.7993 38.7612 45.0097 41.7916 44.6493 43.9534C43.7621 49.2767 49.4487 51.1992 55.0001 51.1992Z" fill="#2F5BC1"/>
<path d="M33.0819 74.967C37.5455 74.967 41.1656 71.348 41.1656 66.8844C41.1656 62.4197 37.5457 58.8008 33.0819 58.8008C28.6182 58.8008 24.9993 62.4197 24.9993 66.8844C24.9994 71.348 28.6183 74.967 33.0819 74.967Z" fill="#2F5BC1"/>
<path d="M39.9268 76.206C39.7511 76.0292 38.9551 75.9856 38.7387 76.1187C37.09 77.135 35.1565 77.7267 33.0819 77.7267C31.0075 77.7267 29.0739 77.1352 27.4262 76.1187C27.2097 75.9858 26.4127 76.0292 26.2371 76.206C24.8802 77.5619 23.0916 80.5922 22.7314 82.754C21.8439 88.0773 27.5305 89.999 33.0819 89.999C38.6345 89.999 44.321 88.0773 43.4335 82.754C43.0724 80.5922 41.2837 77.5619 39.9268 76.206Z" fill="#2F5BC1"/>
<path d="M76.9179 74.967C81.3815 74.967 85.0005 71.348 85.0005 66.8844C85.0005 62.4197 81.3815 58.8008 76.9179 58.8008C72.4543 58.8008 68.8343 62.4197 68.8343 66.8844C68.8344 71.348 72.4543 74.967 76.9179 74.967Z" fill="#2F5BC1"/>
<path d="M87.2686 82.754C86.9082 80.5922 85.1197 77.5619 83.7629 76.206C83.5871 76.0292 82.7901 75.9856 82.5737 76.1187C80.926 77.135 78.9925 77.7267 76.9179 77.7267C74.8435 77.7267 72.9099 77.1352 71.2612 76.1187C71.0448 75.9858 70.2488 76.0292 70.0731 76.206C68.7163 77.5619 66.9281 80.5922 66.5668 82.754C65.6795 88.0773 71.3654 89.999 76.9179 89.999C82.4695 89.999 88.1559 88.0773 87.2686 82.754Z" fill="#2F5BC1"/>
<path d="M65.9703 70.7185L56.3333 65.1552V54.0283C56.3333 53.2918 55.7368 52.6953 55.0003 52.6953C54.2647 52.6953 53.6682 53.2918 53.6682 54.0283V65.1552L44.0312 70.7185C43.3941 71.0867 43.1746 71.9028 43.5428 72.5399C43.9112 73.1773 44.727 73.3955 45.3642 73.0283L55.0001 67.4638L64.6372 73.0272C65.2744 73.3955 66.0894 73.1772 66.4576 72.5398C66.8259 71.9028 66.6074 71.0867 65.9703 70.7185Z" fill="#2F5BC1"/>
</svg>
