<svg width="100" height="100" viewBox="0 0 100 100" fill="none" xmlns="http://www.w3.org/2000/svg">
<circle cx="50" cy="50" r="30" fill="#2F5BC1"/>
<g clip-path="url(#clip0_2938_10647)">
<path d="M43.9422 50.9062H41.3398V53.001H43.9422V50.9062Z" fill="white"/>
<path d="M37.7891 58.0752H40.3585H40.3914V55.9805H37.7891V58.0752Z" fill="white"/>
<path d="M43.9422 55.9805H41.3398V58.0752H43.9422V55.9805Z" fill="white"/>
<path d="M52.5719 55.9805H50.4766V59.5972H52.5719V55.9805Z" fill="white"/>
<path d="M40.3914 50.9062H37.7891V53.001H40.3914V50.9062Z" fill="white"/>
<path d="M45.3017 43.8047H37.5245C36.9674 43.8047 36.4623 44.1331 36.2357 44.642L35 47.4214H41.684L45.3017 43.8047Z" fill="white"/>
<path d="M49.9997 46.3398C48.5824 46.3398 47.4297 47.4923 47.4297 48.9092C47.4297 50.3262 48.5824 51.4786 49.9997 51.4786C51.4171 51.4786 52.5698 50.3262 52.5698 48.9092C52.5698 47.4923 51.4171 46.3398 49.9997 46.3398ZM51.2265 48.8263L50.4739 49.2022V49.9237C50.4739 50.1857 50.2612 50.3983 49.9991 50.3983C49.737 50.3983 49.5243 50.1857 49.5243 49.9237V48.9092C49.5243 48.7295 49.6256 48.565 49.787 48.4846L50.8018 47.977C51.0366 47.86 51.3215 47.9549 51.4386 48.189C51.5557 48.4238 51.4607 48.7086 51.2265 48.8257V48.8263Z" fill="white"/>
<path d="M49.525 55.9805H47.4297V59.5972H49.525V55.9805Z" fill="white"/>
<path d="M53.5836 60.5449H46.4141V61.6246H53.5836V60.5449Z" fill="white"/>
<path d="M62.2117 50.9062H59.6094V53.001H62.2117V50.9062Z" fill="white"/>
<path d="M58.6609 50.9062H56.0586V53.001H58.6609V50.9062Z" fill="white"/>
<path d="M62.2117 55.9805H59.6094V58.0752H62.2117V55.9805Z" fill="white"/>
<path d="M54.6992 43.8047L58.3169 47.4208H65.001L63.7653 44.642C63.5387 44.1325 63.0335 43.8047 62.4765 43.8047H54.6992Z" fill="white"/>
<path d="M58.1179 48.37C57.9919 48.37 57.871 48.32 57.7824 48.2308L49.9988 40.4492L42.2152 48.2308C42.126 48.32 42.0057 48.37 41.8797 48.37H35.7578V61.6251H45.4645V60.0708C45.4645 59.8088 45.6772 59.5962 45.9393 59.5962H46.4792V55.5054C46.4792 55.2434 46.6919 55.0308 46.954 55.0308H53.043C53.3051 55.0308 53.5178 55.2434 53.5178 55.5054V59.5962H54.0577C54.3198 59.5962 54.5325 59.8088 54.5325 60.0708V61.6251H64.2392V48.37H58.1173H58.1179ZM44.8916 58.5488C44.8916 58.8108 44.6789 59.0234 44.4169 59.0234H37.3131C37.0511 59.0234 36.8384 58.8108 36.8384 58.5488V55.5048C36.8384 55.2428 37.0511 55.0301 37.3131 55.0301H44.4175C44.6796 55.0301 44.8923 55.2428 44.8923 55.5048V58.5488H44.8916ZM44.8916 53.4758C44.8916 53.7378 44.6789 53.9505 44.4169 53.9505H37.3131C37.0511 53.9505 36.8384 53.7378 36.8384 53.4758V50.4318C36.8384 50.1698 37.0511 49.9572 37.3131 49.9572H44.4175C44.6796 49.9572 44.8923 50.1698 44.8923 50.4318V53.4758H44.8916ZM49.9988 52.4285C48.058 52.4285 46.4792 50.8501 46.4792 48.9098C46.4792 46.9695 48.058 45.3912 49.9988 45.3912C51.9397 45.3912 53.5184 46.9695 53.5184 48.9098C53.5184 50.8501 51.9397 52.4285 49.9988 52.4285ZM63.1593 58.5488C63.1593 58.8108 62.9466 59.0234 62.6845 59.0234H55.5801C55.3181 59.0234 55.1054 58.8108 55.1054 58.5488V55.5048C55.1054 55.2428 55.3181 55.0301 55.5801 55.0301H62.6845C62.9466 55.0301 63.1593 55.2428 63.1593 55.5048V58.5488ZM63.1593 53.4752C63.1593 53.7372 62.9466 53.9499 62.6845 53.9499H55.5801C55.3181 53.9499 55.1054 53.7372 55.1054 53.4752V50.4312C55.1054 50.1692 55.3181 49.9566 55.5801 49.9566H62.6845C62.9466 49.9566 63.1593 50.1692 63.1593 50.4312V53.4752Z" fill="white"/>
<path d="M58.6609 55.9805H56.0586V58.0752H58.6609V55.9805Z" fill="white"/>
<path d="M53.0755 34.625H50.4656H50.0383H49.5312V39.2233H50.4656V36.6172H53.0755V34.625Z" fill="white"/>
</g>
<defs>
<clipPath id="clip0_2938_10647">
<rect width="30" height="27" fill="white" transform="translate(35 34.625)"/>
</clipPath>
</defs>
</svg>
