<svg width="100" height="100" viewBox="0 0 100 100" fill="none" xmlns="http://www.w3.org/2000/svg">
<g clip-path="url(#clip0_3192_82658)">
<g clip-path="url(#clip1_3192_82658)">
<path d="M63.6364 28.0258V37.2727C63.6364 37.7748 63.2294 38.1818 62.7273 38.1818H60.9091C60.407 38.1818 60 37.7748 60 37.2727V28.0258L59.2012 28.8246C58.8462 29.1797 58.2706 29.1797 57.9155 28.8246L56.6299 27.539C56.2749 27.184 56.2749 26.6084 56.6299 26.2534L60.2916 22.5916C60.973 21.5604 62.6634 21.5604 63.3448 22.5916L67.0065 26.2534C67.3615 26.6084 67.3615 27.184 67.0065 27.539L65.7208 28.8246C65.3658 29.1797 64.7902 29.1797 64.4352 28.8246L63.6364 28.0258ZM72.7273 31.9742V22.7273C72.7273 22.2252 73.1343 21.8182 73.6364 21.8182H75.4545C75.9566 21.8182 76.3636 22.2252 76.3636 22.7273V31.9742L77.1624 31.1754C77.5175 30.8203 78.0931 30.8203 78.4481 31.1754L79.7337 32.461C80.0887 32.816 80.0887 33.3916 79.7337 33.7466L75.8311 37.6493C75.1211 38.3593 73.9699 38.3593 73.2598 37.6493L69.3572 33.7466C69.0022 33.3916 69.0022 32.816 69.3572 32.461L70.6428 31.1754C70.9978 30.8203 71.5734 30.8203 71.9285 31.1754L72.7273 31.9742ZM72.2178 40.9091L69.9647 52.1748C69.7947 53.0246 69.0485 53.6364 68.1818 53.6364H38.5422L39.6992 60H66.3636C66.8657 60 67.2727 60.407 67.2727 60.9091V62.7273C67.2727 63.2294 66.8657 63.6364 66.3636 63.6364H38.1818C37.3031 63.6364 36.5501 63.0079 36.393 62.1434L29.3917 23.6364H20.9091C20.407 23.6364 20 23.2294 20 22.7273V20.9091C20 20.407 20.407 20 20.9091 20H30.9091C31.7878 20 32.5408 20.6284 32.6979 21.4929L34.5753 31.8182H57.2727V37.2727C57.2727 39.281 58.9008 40.9091 60.9091 40.9091H72.2178ZM40 80C36.4855 80 33.6364 77.1509 33.6364 73.6364C33.6364 70.1218 36.4855 67.2727 40 67.2727C43.5145 67.2727 46.3636 70.1218 46.3636 73.6364C46.3636 77.1509 43.5145 80 40 80ZM40 76.3636C41.5062 76.3636 42.7273 75.1426 42.7273 73.6364C42.7273 72.1301 41.5062 70.9091 40 70.9091C38.4938 70.9091 37.2727 72.1301 37.2727 73.6364C37.2727 75.1426 38.4938 76.3636 40 76.3636ZM61.8182 80C58.3036 80 55.4545 77.1509 55.4545 73.6364C55.4545 70.1218 58.3036 67.2727 61.8182 67.2727C65.3327 67.2727 68.1818 70.1218 68.1818 73.6364C68.1818 77.1509 65.3327 80 61.8182 80ZM61.8182 76.3636C63.3244 76.3636 64.5455 75.1426 64.5455 73.6364C64.5455 72.1301 63.3244 70.9091 61.8182 70.9091C60.312 70.9091 59.0909 72.1301 59.0909 73.6364C59.0909 75.1426 60.312 76.3636 61.8182 76.3636Z" fill="#2F5BC1"/>
</g>
</g>
<defs>
<clipPath id="clip0_3192_82658">
<rect width="60" height="60" fill="white" transform="translate(20 20)"/>
</clipPath>
<clipPath id="clip1_3192_82658">
<rect width="60" height="60" fill="white" transform="translate(20 20)"/>
</clipPath>
</defs>
</svg>
