<svg width="158" height="158" viewBox="0 0 158 158" fill="none" xmlns="http://www.w3.org/2000/svg">
<path d="M93.0588 110.66V107.049C93.0588 106.575 92.7968 106.136 92.3791 105.909C92.1879 105.81 91.9826 105.754 91.7702 105.754C91.5224 105.754 91.2675 105.824 91.055 105.973L86.4386 109.046C86.1271 109.258 85.766 109.365 85.3836 109.365C84.9588 109.365 84.5481 109.223 84.2153 108.954L77.8925 104.005C77.6589 103.821 77.3756 103.729 77.0995 103.729C76.8517 103.729 76.5968 103.799 76.3773 103.948L68.8295 109.032C68.5109 109.244 68.1498 109.357 67.7675 109.357C67.3851 109.357 67.0453 109.251 66.7337 109.053L58.8815 103.948C58.6691 103.806 58.4213 103.743 58.1806 103.743C57.8832 103.743 57.5929 103.842 57.3522 104.04L51.4966 108.918C51.1568 109.202 50.7319 109.357 50.2859 109.357C49.7761 109.357 49.3017 109.159 48.9406 108.798L48.006 107.863C47.7582 107.616 47.4325 107.488 47.0926 107.488C46.9227 107.488 46.7598 107.524 46.597 107.587C46.1155 107.786 45.7969 108.26 45.7969 108.777V113.839C45.7969 116.31 47.8077 118.321 50.2788 118.321H93.4836C93.9439 118.321 94.3687 118.073 94.6023 117.677C94.836 117.28 94.8289 116.785 94.6023 116.388C93.5969 114.647 93.0659 112.664 93.0659 110.653L93.0588 110.66Z" fill="#FF8201"/>
<path d="M112.197 43.1835C112.197 43.1269 112.183 43.0702 112.176 43.0207C112.169 42.9499 112.155 42.8862 112.134 42.8224C112.134 42.8012 112.134 42.7799 112.119 42.7658C112.105 42.7304 112.077 42.7021 112.063 42.6667C112.034 42.61 112.006 42.5534 111.964 42.4967C111.928 42.4472 111.893 42.3976 111.85 42.3551C111.808 42.3126 111.765 42.2702 111.716 42.2277C111.666 42.1852 111.617 42.1498 111.567 42.1215C111.546 42.1073 111.532 42.0931 111.51 42.079C111.468 42.0577 111.425 42.0507 111.39 42.0294C111.341 42.0082 111.298 41.9869 111.248 41.9728C111.156 41.9445 111.064 41.9374 110.972 41.9303C110.951 41.9303 110.93 41.9161 110.902 41.9161C110.781 41.9161 110.668 41.9374 110.555 41.9657C110.54 41.9657 110.519 41.9728 110.505 41.9799C110.385 42.0223 110.271 42.0719 110.165 42.1427L105.577 45.2015C105.265 45.4139 104.897 45.5201 104.522 45.5201C104.147 45.5201 103.779 45.4068 103.467 45.2015L95.6644 39.9973C95.4449 39.8557 95.1971 39.7778 94.9493 39.7778C94.7015 39.7778 94.4466 39.8486 94.2342 39.9973L86.4315 45.2015C86.12 45.4139 85.7518 45.5201 85.3765 45.5201C85.0013 45.5201 84.6189 45.4068 84.3074 45.1873L76.526 39.877C76.3065 39.7283 76.0516 39.6504 75.7967 39.6504C75.5914 39.6504 75.386 39.7 75.2019 39.792L64.5671 45.3006C64.3051 45.4422 64.0078 45.513 63.7033 45.513C63.3493 45.513 62.9953 45.4139 62.6908 45.2227L57.3238 41.8807C57.1185 41.7533 56.8778 41.6825 56.6441 41.6825C56.4317 41.6825 56.2122 41.7391 56.021 41.8453C55.6104 42.0719 55.3555 42.5038 55.3555 42.9711V98.1561C55.3555 98.5951 55.575 98.9986 55.9431 99.2394C56.1556 99.381 56.4034 99.4518 56.6512 99.4518C56.8282 99.4518 57.0052 99.4164 57.1681 99.3456C57.4159 99.2394 57.692 99.1757 57.954 99.1757C58.3151 99.1757 58.662 99.2748 58.9523 99.473L67.0099 104.705C67.2223 104.847 67.4701 104.911 67.7108 104.911C67.9516 104.911 68.2135 104.84 68.433 104.691L76.1507 99.4872C76.4693 99.2748 76.8304 99.1615 77.2128 99.1615C77.6447 99.1615 78.0483 99.3031 78.3881 99.5651L84.7181 104.528C84.9517 104.713 85.2349 104.805 85.5111 104.805C85.7589 104.805 86.0067 104.734 86.2262 104.585L93.8801 99.4801C94.1917 99.2677 94.5599 99.1615 94.9351 99.1615C95.2467 99.1615 95.5511 99.2394 95.8273 99.3881C96.4433 99.7208 96.8327 100.365 96.8327 101.066V110.639C96.8327 114.873 100.274 118.314 104.508 118.314C108.742 118.314 112.183 114.873 112.183 110.639V43.2119C112.183 43.2119 112.183 43.1906 112.183 43.1835H112.197ZM101.343 93.4051H82.1903C81.1424 93.4051 80.2928 92.5554 80.2928 91.5075C80.2928 90.4596 81.1424 89.61 82.1903 89.61H101.343C102.391 89.61 103.24 90.4596 103.24 91.5075C103.24 92.5554 102.391 93.4051 101.343 93.4051ZM74.5151 82.0693V85.121C74.5151 86.1689 73.6655 87.0185 72.6176 87.0185C71.5697 87.0185 70.72 86.1689 70.72 85.121V81.9277C70.72 81.2126 70.1394 80.6391 69.4314 80.6391H66.2381C65.1902 80.6391 64.3405 79.7894 64.3405 78.7415C64.3405 77.6936 65.1902 76.8439 66.2381 76.8439H74.2178C75.8109 76.8439 77.1066 75.5482 77.1066 73.9551C77.1066 72.362 75.8109 71.0663 74.2178 71.0663H71.0245C67.3356 71.0663 64.3335 68.0642 64.3335 64.3753C64.3335 61.1962 66.5921 58.4419 69.7075 57.8188C70.3094 57.6984 70.7483 57.1674 70.7483 56.5514C70.7483 56.4381 70.7342 56.339 70.72 56.254V53.2024C70.72 52.1544 71.5697 51.3048 72.6176 51.3048C73.6655 51.3048 74.5151 52.1544 74.5151 53.2024V56.3956C74.5151 57.1108 75.0957 57.6843 75.8038 57.6843H78.9971C80.045 57.6843 80.8946 58.5339 80.8946 59.5818C80.8946 60.6297 80.045 61.4794 78.9971 61.4794H71.0174C69.4243 61.4794 68.1286 62.7751 68.1286 64.3682C68.1286 65.9613 69.4243 67.257 71.0174 67.257H74.2107C77.8996 67.257 80.9017 70.2591 80.9017 73.948C80.9017 77.1272 78.643 79.8814 75.5276 80.5045C74.9258 80.6249 74.4868 81.1559 74.4868 81.7719C74.4868 81.8852 74.501 81.9843 74.5151 82.0693ZM101.343 80.6391H88.5769C87.529 80.6391 86.6793 79.7894 86.6793 78.7415C86.6793 77.6936 87.529 76.8439 88.5769 76.8439H101.343C102.391 76.8439 103.24 77.6936 103.24 78.7415C103.24 79.7894 102.391 80.6391 101.343 80.6391ZM101.343 67.873H88.5769C87.529 67.873 86.6793 67.0234 86.6793 65.9755C86.6793 64.9276 87.529 64.0779 88.5769 64.0779H101.343C102.391 64.0779 103.24 64.9276 103.24 65.9755C103.24 67.0234 102.391 67.873 101.343 67.873ZM101.343 55.107H88.5769C87.529 55.107 86.6793 54.2573 86.6793 53.2094C86.6793 52.1615 87.529 51.3119 88.5769 51.3119H101.343C102.391 51.3119 103.24 52.1615 103.24 53.2094C103.24 54.2573 102.391 55.107 101.343 55.107Z" fill="#FF8201"/>
</svg>
