<svg width="1100" height="303" viewBox="0 0 1100 303" fill="none" xmlns="http://www.w3.org/2000/svg">
<rect x="290.5" y="21.5" width="525.702" height="280.241" rx="24.4622" fill="#EDF9FF" stroke="#2D75F8"/>
<rect opacity="0.9" x="0.5" y="86.2031" width="350.967" height="178.728" rx="24.4622" fill="white" stroke="#2D75F8"/>
<rect opacity="0.9" x="748.535" y="86.2031" width="350.967" height="178.728" rx="24.4622" fill="white" stroke="#2D75F8"/>
<rect x="371.211" y="86.4023" width="350.967" height="178.728" rx="24.4622" fill="#E5FFD6" fill-opacity="0.45" stroke="#00593F"/>
<rect x="113.16" y="70.7266" width="127.201" height="41.9345" rx="20.9672" fill="#2F5BC1"/>
<path d="M137.429 98.6172H134.503V84.498H137.429V98.6172ZM142.636 98.6172H139.749V88.0278H142.499V89.8804H142.616C142.857 89.2629 143.253 88.7786 143.806 88.4275C144.358 88.07 145.021 87.8913 145.795 87.8913C146.529 87.8913 147.17 88.0538 147.716 88.3788C148.268 88.6973 148.694 89.1556 148.993 89.7537C149.292 90.3517 149.442 91.057 149.442 91.8696V98.6172H146.575V92.3766C146.568 91.7201 146.396 91.2098 146.058 90.8458C145.727 90.4752 145.262 90.29 144.664 90.29C144.053 90.29 143.562 90.485 143.191 90.875C142.821 91.265 142.636 91.8046 142.636 92.4937V98.6172ZM158.256 93.9563H151.821V91.6551H158.256V93.9563ZM160.714 84.498H166.33C167.344 84.498 168.202 84.6507 168.904 84.9562C169.606 85.2618 170.133 85.6876 170.484 86.2336C170.842 86.7797 171.017 87.4102 171.011 88.1253C171.017 88.9248 170.786 89.5879 170.318 90.1144C169.85 90.6345 169.236 90.979 168.475 91.148V91.2845C169.015 91.3106 169.522 91.4666 169.996 91.7526C170.471 92.0386 170.851 92.4384 171.137 92.9519C171.43 93.459 171.576 94.0473 171.576 94.7168C171.57 95.4774 171.378 96.1502 171.001 96.7353C170.63 97.3203 170.078 97.7819 169.343 98.1199C168.615 98.4514 167.734 98.6172 166.701 98.6172H160.714V84.498ZM166.116 96.199C166.935 96.2055 167.543 96.0527 167.939 95.7407C168.342 95.4287 168.54 94.9964 168.534 94.4438C168.534 94.0473 168.44 93.6963 168.251 93.3907C168.063 93.0852 167.79 92.8479 167.432 92.6789C167.081 92.5034 166.668 92.4156 166.194 92.4156H163.639V96.199H166.116ZM165.901 90.407C166.311 90.4135 166.678 90.342 167.003 90.1925C167.334 90.0429 167.591 89.8317 167.773 89.5586C167.955 89.2856 168.046 88.9638 168.046 88.5933C168.053 88.0733 167.871 87.6572 167.5 87.3452C167.13 87.0332 166.616 86.8772 165.96 86.8772H163.639V90.407H165.901ZM178.129 98.8317C177.076 98.8317 176.156 98.6042 175.369 98.1491C174.589 97.6876 173.988 97.0441 173.565 96.2185C173.149 95.3929 172.941 94.4373 172.941 93.3517C172.941 92.2661 173.149 91.3138 173.565 90.4947C173.988 89.6692 174.589 89.0289 175.369 88.5738C176.156 88.1188 177.076 87.8913 178.129 87.8913C179.182 87.8913 180.098 88.1188 180.878 88.5738C181.665 89.0289 182.27 89.6692 182.692 90.4947C183.121 91.3138 183.336 92.2661 183.336 93.3517C183.336 94.4373 183.121 95.3929 182.692 96.2185C182.27 97.0441 181.665 97.6876 180.878 98.1491C180.098 98.6042 179.182 98.8317 178.129 98.8317ZM175.866 93.3517C175.866 93.9823 175.951 94.5413 176.12 95.0289C176.296 95.5099 176.556 95.8902 176.9 96.1697C177.245 96.4492 177.661 96.589 178.148 96.589C178.623 96.589 179.029 96.4525 179.367 96.1795C179.705 95.9 179.959 95.5197 180.128 95.0386C180.303 94.5576 180.391 94.0083 180.391 93.3907C180.391 92.7537 180.306 92.1881 180.137 91.6941C179.968 91.1935 179.715 90.8035 179.377 90.524C179.039 90.238 178.629 90.0949 178.148 90.0949C177.661 90.0949 177.245 90.2347 176.9 90.5142C176.556 90.7938 176.296 91.1805 176.12 91.6746C175.951 92.1621 175.866 92.7212 175.866 93.3517ZM191.936 88.0278H194.822V98.6172H192.053V96.706H191.936C191.689 97.3366 191.286 97.8371 190.727 98.2077C190.168 98.5717 189.498 98.7537 188.718 98.7537C188.016 98.7537 187.395 98.5944 186.856 98.2759C186.316 97.9509 185.897 97.4893 185.598 96.8913C185.299 96.2932 185.149 95.5879 185.149 94.7754V88.0278H188.036V94.2683C188.036 94.8924 188.201 95.3897 188.533 95.7602C188.871 96.1242 189.323 96.3095 189.888 96.316C190.252 96.3095 190.59 96.2217 190.902 96.0527C191.214 95.8837 191.465 95.6334 191.653 95.3019C191.842 94.9704 191.936 94.5738 191.936 94.1123V88.0278ZM199.951 98.6172H197.065V88.0278H199.815V89.8804H199.932C200.172 89.2629 200.569 88.7786 201.121 88.4275C201.674 88.07 202.337 87.8913 203.11 87.8913C203.845 87.8913 204.485 88.0538 205.031 88.3788C205.584 88.6973 206.01 89.1556 206.309 89.7537C206.608 90.3517 206.757 91.057 206.757 91.8696V98.6172H203.89V92.3766C203.884 91.7201 203.712 91.2098 203.374 90.8458C203.042 90.4752 202.577 90.29 201.979 90.29C201.368 90.29 200.877 90.485 200.507 90.875C200.136 91.265 199.951 91.8046 199.951 92.4937V98.6172ZM212.9 98.7927C212.081 98.7927 211.347 98.5814 210.697 98.1589C210.046 97.7299 209.533 97.1058 209.156 96.2867C208.779 95.4612 208.59 94.4763 208.59 93.3322C208.59 92.1621 208.782 91.1708 209.166 90.3582C209.549 89.5391 210.066 88.9248 210.716 88.5153C211.373 88.0993 212.101 87.8913 212.9 87.8913C213.7 87.8913 214.34 88.0765 214.821 88.4471C215.309 88.8176 215.669 89.2694 215.903 89.8024H216.001V84.498H218.887V98.6172H216.04V96.9205H215.903C215.663 97.4471 215.299 97.8924 214.811 98.2564C214.324 98.6139 213.687 98.7927 212.9 98.7927ZM211.555 93.2835C211.555 94.2521 211.746 95.0289 212.13 95.6139C212.52 96.1925 213.076 96.485 213.797 96.4915C214.272 96.4915 214.678 96.3615 215.016 96.1015C215.354 95.8349 215.611 95.4644 215.786 94.9899C215.968 94.5088 216.059 93.9498 216.059 93.3127C216.059 92.3506 215.861 91.5901 215.465 91.031C215.068 90.472 214.512 90.1925 213.797 90.1925C213.082 90.1925 212.53 90.4752 212.14 91.0408C211.75 91.5998 211.555 92.3474 211.555 93.2835Z" fill="white"/>
<rect x="484.266" width="127.201" height="41.9345" rx="20.9672" fill="#2D75F8"/>
<path d="M528.464 18.7443H530.98V20.792H528.464V29.6458H525.968V11.9382H528.464V18.7443ZM514.267 24.6728C516.379 23.6133 518.004 22.3586 519.142 20.909C520.28 19.4594 520.965 17.7497 521.199 15.7801H515.281V13.7519H523.725C523.712 16.5796 523.075 19.0759 521.814 21.2405C520.559 23.4052 518.512 25.1864 515.671 26.584L514.267 24.6728ZM540.496 18.3738H534.841V20.0704C536.408 20.0574 537.727 20.0152 538.8 19.9437C539.872 19.8722 540.945 19.7389 542.018 19.5439L542.291 21.5331C541.101 21.7476 539.898 21.8971 538.683 21.9816C537.474 22.0596 536.001 22.0986 534.266 22.0986H533.866H532.364V16.4821H538.078V14.922H532.345V12.9328H540.496V18.3738ZM533.846 23.5417H545.801V29.6653H543.305V25.5309H533.846V23.5417ZM543.305 11.9577H545.801V16.1896H548.2V18.2373H545.801V22.7227H543.305V11.9577ZM555.883 15.9556C555.877 17.0672 556.043 18.1398 556.381 19.1734C556.719 20.207 557.226 21.1268 557.902 21.9329C558.578 22.7389 559.4 23.3467 560.369 23.7563L558.906 25.7454C557.918 25.2969 557.066 24.6533 556.351 23.8148C555.643 22.9762 555.08 21.9914 554.664 20.8603C554.255 22.0954 553.68 23.1712 552.939 24.0878C552.197 24.9979 551.3 25.6934 550.247 26.1745L548.746 24.1073C549.747 23.6848 550.592 23.0575 551.281 22.2254C551.976 21.3868 552.496 20.428 552.841 19.3489C553.186 18.2633 553.361 17.1322 553.368 15.9556V13.3034H555.883V15.9556ZM561.324 11.9382H563.84V29.7238H561.324V11.9382ZM576.321 15.117H572.791C572.798 15.8256 572.947 16.5016 573.24 17.1452C573.539 17.7887 573.994 18.3608 574.605 18.8613C575.216 19.3619 575.977 19.7454 576.887 20.0119L575.697 21.9621C574.741 21.6696 573.919 21.2405 573.23 20.675C572.541 20.1094 571.995 19.4366 571.592 18.6566C571.182 19.5731 570.61 20.3695 569.876 21.0455C569.148 21.7151 568.267 22.2221 567.233 22.5667L565.966 20.597C566.908 20.298 567.701 19.8657 568.345 19.3001C568.988 18.7346 569.466 18.091 569.778 17.3695C570.097 16.6479 570.263 15.8971 570.276 15.117H566.648V13.1278H576.321V15.117ZM568.423 26.233C568.423 25.5179 568.667 24.9036 569.154 24.3901C569.642 23.8765 570.344 23.4865 571.26 23.22C572.177 22.9534 573.259 22.8202 574.507 22.8202C575.736 22.8202 576.799 22.9534 577.696 23.22C578.593 23.4865 579.282 23.8765 579.763 24.3901C580.251 24.9036 580.494 25.5179 580.494 26.233C580.494 26.9545 580.251 27.5721 579.763 28.0856C579.282 28.6057 578.593 29.0022 577.696 29.2752C576.799 29.5483 575.736 29.6848 574.507 29.6848C573.259 29.6848 572.177 29.5483 571.26 29.2752C570.35 29.0022 569.648 28.6057 569.154 28.0856C568.667 27.5656 568.423 26.948 568.423 26.233ZM570.919 26.233C570.913 26.7335 571.215 27.1138 571.826 27.3738C572.437 27.6274 573.331 27.7541 574.507 27.7541C575.664 27.7541 576.542 27.6274 577.14 27.3738C577.738 27.1203 578.037 26.74 578.037 26.233C578.037 25.7454 577.741 25.3782 577.15 25.1311C576.565 24.8776 575.707 24.7509 574.576 24.7509C573.373 24.7509 572.46 24.8744 571.836 25.1214C571.218 25.3684 570.913 25.7389 570.919 26.233ZM577.823 11.9382H580.319V16.0531H582.718V18.0813H580.319V22.4692H577.823V11.9382Z" fill="white"/>
<rect x="850" y="71" width="146" height="42" rx="21" fill="#2F5BC1"/>
<path d="M885.067 91.831C885.067 93.3326 884.781 94.6295 884.209 95.7216C883.637 96.8137 882.85 97.649 881.849 98.2276C880.854 98.7996 879.73 99.0856 878.475 99.0856C877.214 99.0856 876.083 98.7996 875.082 98.2276C874.081 97.649 873.294 96.8137 872.722 95.7216C872.15 94.623 871.864 93.3261 871.864 91.831C871.864 90.3294 872.15 89.0325 872.722 87.9404C873.294 86.8483 874.081 86.0163 875.082 85.4442C876.083 84.8657 877.214 84.5764 878.475 84.5764C879.73 84.5764 880.854 84.8657 881.849 85.4442C882.85 86.0163 883.637 86.8483 884.209 87.9404C884.781 89.0325 885.067 90.3294 885.067 91.831ZM874.848 91.831C874.848 92.8191 874.994 93.6642 875.287 94.3662C875.586 95.0618 876.008 95.5883 876.554 95.9459C877.1 96.3034 877.741 96.4854 878.475 96.4919C879.203 96.4854 879.837 96.3034 880.377 95.9459C880.923 95.5818 881.342 95.052 881.635 94.3565C881.934 93.6609 882.083 92.8191 882.083 91.831C882.083 90.8429 881.934 90.0011 881.635 89.3055C881.342 88.6035 880.923 88.0737 880.377 87.7162C879.837 87.3586 879.203 87.1766 878.475 87.1701C877.741 87.1766 877.1 87.3586 876.554 87.7162C876.008 88.0737 875.586 88.6035 875.287 89.3055C874.994 90.0011 874.848 90.8429 874.848 91.831ZM893.901 88.3012H896.787V98.8906H894.018V96.9795H893.901C893.654 97.61 893.251 98.1106 892.692 98.4811C892.133 98.8451 891.463 99.0271 890.683 99.0271C889.981 99.0271 889.36 98.8679 888.821 98.5493C888.281 98.2243 887.862 97.7628 887.563 97.1647C887.264 96.5667 887.114 95.8614 887.114 95.0488V88.3012H890.001V94.5417C890.001 95.1658 890.167 95.6631 890.498 96.0336C890.836 96.3977 891.288 96.5829 891.853 96.5894C892.217 96.5829 892.555 96.4952 892.867 96.3262C893.18 96.1571 893.43 95.9069 893.618 95.5753C893.807 95.2438 893.901 94.8473 893.901 94.3857V88.3012ZM904.608 90.4659H902.618V95.6338C902.612 96.0304 902.693 96.3066 902.862 96.4627C903.038 96.6122 903.288 96.6934 903.613 96.7064C903.912 96.7064 904.295 96.6869 904.764 96.6479V98.9296C904.334 98.9946 903.811 99.0271 903.194 99.0271C902.115 99.0271 901.266 98.7801 900.649 98.2861C900.031 97.7855 899.726 97.038 899.732 96.0434V90.4659H898.269V88.3012H899.732V85.766H902.618V88.3012H904.608V90.4659ZM912.662 94.2297H906.226V91.9285H912.662V94.2297ZM915.119 84.7714H920.735C921.75 84.7714 922.608 84.9242 923.31 85.2297C924.012 85.5352 924.538 85.961 924.889 86.507C925.247 87.0531 925.422 87.6836 925.416 88.3987C925.422 89.1983 925.192 89.8613 924.724 90.3879C924.255 90.9079 923.641 91.2525 922.881 91.4215V91.558C923.42 91.584 923.927 91.74 924.402 92.026C924.876 92.3121 925.257 92.7118 925.543 93.2254C925.835 93.7324 925.981 94.3207 925.981 94.9903C925.975 95.7509 925.783 96.4237 925.406 97.0087C925.036 97.5938 924.483 98.0553 923.748 98.3933C923.02 98.7249 922.14 98.8906 921.106 98.8906H915.119V84.7714ZM920.521 96.4724C921.34 96.4789 921.948 96.3262 922.344 96.0141C922.747 95.7021 922.946 95.2698 922.939 94.7173C922.939 94.3207 922.845 93.9697 922.656 93.6642C922.468 93.3586 922.195 93.1214 921.837 92.9524C921.486 92.7768 921.073 92.6891 920.599 92.6891H918.044V96.4724H920.521ZM920.306 90.6804C920.716 90.6869 921.083 90.6154 921.408 90.4659C921.74 90.3164 921.997 90.1051 922.179 89.8321C922.361 89.5591 922.452 89.2373 922.452 88.8668C922.458 88.3467 922.276 87.9307 921.906 87.6186C921.535 87.3066 921.021 87.1506 920.365 87.1506H918.044V90.6804H920.306ZM932.534 99.1051C931.481 99.1051 930.561 98.8776 929.774 98.4226C928.994 97.961 928.393 97.3175 927.971 96.4919C927.555 95.6663 927.346 94.7108 927.346 93.6252C927.346 92.5396 927.555 91.5872 927.971 90.7682C928.393 89.9426 928.994 89.3023 929.774 88.8472C930.561 88.3922 931.481 88.1647 932.534 88.1647C933.587 88.1647 934.504 88.3922 935.284 88.8472C936.07 89.3023 936.675 89.9426 937.097 90.7682C937.526 91.5872 937.741 92.5396 937.741 93.6252C937.741 94.7108 937.526 95.6663 937.097 96.4919C936.675 97.3175 936.07 97.961 935.284 98.4226C934.504 98.8776 933.587 99.1051 932.534 99.1051ZM930.272 93.6252C930.272 94.2557 930.356 94.8148 930.525 95.3023C930.701 95.7834 930.961 96.1636 931.305 96.4432C931.65 96.7227 932.066 96.8624 932.553 96.8624C933.028 96.8624 933.434 96.7259 933.772 96.4529C934.11 96.1734 934.364 95.7931 934.533 95.3121C934.708 94.831 934.796 94.2817 934.796 93.6642C934.796 93.0271 934.712 92.4616 934.543 91.9675C934.374 91.467 934.12 91.0769 933.782 90.7974C933.444 90.5114 933.034 90.3684 932.553 90.3684C932.066 90.3684 931.65 90.5081 931.305 90.7877C930.961 91.0672 930.701 91.454 930.525 91.948C930.356 92.4356 930.272 92.9946 930.272 93.6252ZM946.341 88.3012H949.227V98.8906H946.458V96.9795H946.341C946.094 97.61 945.691 98.1106 945.132 98.4811C944.573 98.8451 943.903 99.0271 943.123 99.0271C942.421 99.0271 941.801 98.8679 941.261 98.5493C940.721 98.2243 940.302 97.7628 940.003 97.1647C939.704 96.5667 939.555 95.8614 939.555 95.0488V88.3012H942.441V94.5417C942.441 95.1658 942.607 95.6631 942.938 96.0336C943.276 96.3977 943.728 96.5829 944.293 96.5894C944.658 96.5829 944.996 96.4952 945.308 96.3262C945.62 96.1571 945.87 95.9069 946.058 95.5753C946.247 95.2438 946.341 94.8473 946.341 94.3857V88.3012ZM954.356 98.8906H951.47V88.3012H954.22V90.1539H954.337C954.577 89.5363 954.974 89.052 955.526 88.701C956.079 88.3435 956.742 88.1647 957.516 88.1647C958.25 88.1647 958.891 88.3272 959.437 88.6522C959.989 88.9708 960.415 89.429 960.714 90.0271C961.013 90.6252 961.162 91.3305 961.162 92.143V98.8906H958.296V92.6501C958.289 91.9935 958.117 91.4832 957.779 91.1192C957.447 90.7487 956.983 90.5634 956.385 90.5634C955.773 90.5634 955.283 90.7584 954.912 91.1484C954.542 91.5385 954.356 92.078 954.356 92.7671V98.8906ZM967.305 99.0661C966.486 99.0661 965.752 98.8549 965.102 98.4323C964.452 98.0033 963.938 97.3792 963.561 96.5602C963.184 95.7346 962.996 94.7498 962.996 93.6057C962.996 92.4356 963.187 91.4442 963.571 90.6317C963.954 89.8126 964.471 89.1983 965.121 88.7887C965.778 88.3727 966.506 88.1647 967.305 88.1647C968.105 88.1647 968.745 88.35 969.226 88.7205C969.714 89.091 970.075 89.5428 970.309 90.0759H970.406V84.7714H973.293V98.8906H970.445V97.194H970.309C970.068 97.7205 969.704 98.1658 969.217 98.5298C968.729 98.8874 968.092 99.0661 967.305 99.0661ZM965.96 93.5569C965.96 94.5255 966.152 95.3023 966.535 95.8874C966.925 96.4659 967.481 96.7584 968.203 96.7649C968.677 96.7649 969.083 96.6349 969.421 96.3749C969.759 96.1084 970.016 95.7379 970.192 95.2633C970.374 94.7823 970.465 94.2232 970.465 93.5862C970.465 92.6241 970.266 91.8635 969.87 91.3045C969.473 90.7454 968.918 90.4659 968.203 90.4659C967.488 90.4659 966.935 90.7487 966.545 91.3142C966.155 91.8733 965.96 92.6208 965.96 93.5569Z" fill="white"/>
<rect x="484.266" y="70.7266" width="127.201" height="41.9345" rx="20.9672" fill="#00593F"/>
<path d="M522.457 93.7223C523.751 93.7223 524.872 93.8555 525.821 94.122C526.77 94.3821 527.502 94.7656 528.015 95.2726C528.529 95.7732 528.789 96.3745 528.795 97.0766C528.789 97.7656 528.529 98.3604 528.015 98.861C527.502 99.368 526.767 99.7515 525.812 100.012C524.863 100.278 523.744 100.411 522.457 100.411C521.177 100.411 520.059 100.278 519.103 100.012C518.154 99.7515 517.423 99.368 516.909 98.861C516.396 98.3604 516.139 97.7656 516.139 97.0766C516.139 96.3745 516.396 95.7732 516.909 95.2726C517.423 94.7656 518.154 94.3821 519.103 94.122C520.059 93.8555 521.177 93.7223 522.457 93.7223ZM514.501 90.5825H520.546V87.4817H523.003V90.5825H530.609V92.5912H514.501V90.5825ZM516.314 83.4644H528.698V84.9075V85.4243C528.698 86.2044 528.665 86.9259 528.6 87.589C528.535 88.252 528.399 88.9443 528.191 89.6659L525.753 89.4319C525.935 88.7038 526.055 88.0408 526.114 87.4427C526.172 86.8382 526.208 86.1621 526.221 85.4145H516.314V83.4644ZM518.616 97.0766C518.609 97.5511 518.937 97.9119 519.6 98.1589C520.27 98.3994 521.222 98.5197 522.457 98.5197C523.692 98.5197 524.645 98.3994 525.314 98.1589C525.984 97.9119 526.319 97.5511 526.319 97.0766C526.319 96.589 525.987 96.2185 525.324 95.965C524.668 95.7049 523.735 95.5749 522.526 95.5749C521.265 95.5749 520.296 95.7017 519.62 95.9552C518.944 96.2087 518.609 96.5825 518.616 97.0766ZM547.946 93.0007H531.721V91.0505H538.624V89.5294H533.69V83.4449H545.996V85.3755H536.167V87.5792H546.093V89.5294H541.062V91.0505H547.946V93.0007ZM533.573 97.1741C533.573 96.4785 533.82 95.8869 534.314 95.3994C534.808 94.9054 535.52 94.5316 536.45 94.2781C537.386 94.0245 538.501 93.8978 539.794 93.8978C541.075 93.8978 542.177 94.0245 543.1 94.2781C544.023 94.5316 544.732 94.9054 545.226 95.3994C545.72 95.8869 545.97 96.4785 545.976 97.1741C545.97 97.8631 545.72 98.4514 545.226 98.939C544.732 99.4265 544.023 99.797 543.1 100.051C542.177 100.304 541.075 100.431 539.794 100.431C538.501 100.431 537.389 100.304 536.46 100.051C535.53 99.797 534.815 99.4265 534.314 98.939C533.82 98.4514 533.573 97.8631 533.573 97.1741ZM536.109 97.1741C536.102 97.6356 536.404 97.9801 537.015 98.2077C537.633 98.4287 538.559 98.5392 539.794 98.5392C542.245 98.5392 543.474 98.0841 543.48 97.1741C543.474 96.719 543.158 96.3745 542.534 96.1405C541.917 95.9065 541.003 95.7894 539.794 95.7894C538.566 95.7894 537.643 95.9065 537.025 96.1405C536.408 96.368 536.102 96.7125 536.109 97.1741ZM565.166 91.6746H558.301V92.8057H563.196V97.3496H553.309V98.4222H563.664V100.294H550.871V95.5944H560.739V94.6778H550.852V92.8057H555.805V91.6746H548.98V89.7049H565.166V91.6746ZM550.988 83.1718H563.118V88.7688H550.988V83.1718ZM560.642 86.8577V85.1025H553.426V86.8577H560.642ZM582.464 95.0289H578.72V100.411H576.204V95.0289H572.499V100.411H570.022V95.0289H566.219V93.0787H582.464V95.0289ZM568.091 83.1913H580.592V88.3593H570.666V89.8024H581.001V91.7916H568.15V86.5456H578.037V85.2195H568.091V83.1913Z" fill="white"/>
<rect x="27.0411" y="166.83" width="117.322" height="47.4281" rx="5.40847" fill="#EDF4FF"/>
<rect x="27.0411" y="166.83" width="117.322" height="47.4281" rx="5.40847" stroke="#2F5BC1" stroke-width="2.49622"/>
<path d="M66.2857 185.437C66.2857 186.458 66.562 187.394 67.1145 188.246C67.6736 189.091 68.5154 189.728 69.64 190.157L68.3139 192.048C67.5728 191.769 66.9357 191.379 66.4027 190.878C65.8697 190.378 65.4406 189.789 65.1156 189.113C64.7776 189.913 64.3225 190.612 63.7505 191.21C63.1849 191.808 62.5024 192.276 61.7028 192.614L60.3572 190.703C61.1567 190.352 61.8198 189.893 62.3463 189.328C62.8729 188.762 63.2564 188.148 63.4969 187.485C63.744 186.815 63.8675 186.133 63.8675 185.437V183.351H66.2857V185.437ZM63.653 196.709C63.653 196.027 63.9 195.435 64.394 194.935C64.8946 194.434 65.6064 194.054 66.5295 193.794C67.459 193.527 68.5479 193.394 69.796 193.394C71.0376 193.394 72.1199 193.527 73.043 193.794C73.9726 194.054 74.6877 194.434 75.1882 194.935C75.6953 195.435 75.952 196.027 75.9585 196.709C75.952 197.385 75.6953 197.974 75.1882 198.474C74.6877 198.975 73.9726 199.358 73.043 199.625C72.1199 199.891 71.0376 200.025 69.796 200.025C68.5479 200.025 67.459 199.891 66.5295 199.625C65.6064 199.358 64.8946 198.975 64.394 198.474C63.9 197.974 63.653 197.385 63.653 196.709ZM66.1492 196.709C66.1427 197.184 66.4547 197.545 67.0853 197.792C67.7158 198.032 68.6194 198.152 69.796 198.152C70.9661 198.152 71.8664 198.032 72.497 197.792C73.1275 197.545 73.4428 197.184 73.4428 196.709C73.4428 196.228 73.1275 195.864 72.497 195.617C71.8664 195.37 70.9661 195.247 69.796 195.247C68.6194 195.247 67.7158 195.37 67.0853 195.617C66.4547 195.864 66.1427 196.228 66.1492 196.709ZM69.6985 182.61H72.0192V186.627H73.5013V182.298H75.861V193.141H73.5013V188.636H72.0192V192.594H69.6985V182.61ZM84.4223 185.32C84.4158 186.1 84.562 186.845 84.8611 187.553C85.1666 188.262 85.6281 188.892 86.2457 189.445C86.8697 189.998 87.6466 190.423 88.5761 190.722L87.2695 192.672C86.3204 192.354 85.5046 191.892 84.8221 191.288C84.146 190.683 83.6097 189.965 83.2132 189.133C82.8101 190.043 82.2511 190.83 81.536 191.493C80.821 192.156 79.9629 192.659 78.9618 193.004L77.5772 191.034C78.5523 190.735 79.3616 190.293 80.0051 189.708C80.6552 189.123 81.1362 188.454 81.4483 187.7C81.7603 186.939 81.9196 186.139 81.9261 185.301V183.37H84.4223V185.32ZM80.4244 193.999H82.9596V197.723H92.613V199.713H80.4244V193.999ZM89.4537 182.278H91.9499V187.407H94.3486V189.513H91.9499V195.286H89.4537V182.278ZM101.681 187.114C101.675 188.044 101.837 188.977 102.169 189.913C102.5 190.849 102.991 191.704 103.641 192.477C104.298 193.251 105.094 193.856 106.03 194.291L104.646 196.241C103.69 195.799 102.858 195.159 102.149 194.32C101.441 193.475 100.878 192.5 100.462 191.395C100.053 192.604 99.4808 193.674 98.7463 194.603C98.0182 195.526 97.1569 196.222 96.1623 196.69L94.7192 194.72C95.6683 194.278 96.4776 193.651 97.1471 192.838C97.8167 192.026 98.3205 191.122 98.6585 190.128C99.003 189.126 99.1786 188.122 99.1851 187.114V186.022H95.4212V183.994H105.25V186.022H101.681V187.114ZM106.635 182.278H109.131V189.045H111.744V191.132H109.131V200.025H106.635V182.278Z" fill="#2F5BC1"/>
<rect x="799.205" y="146.861" width="246.294" height="67.3979" rx="5.40847" fill="#EDF4FF"/>
<rect x="799.205" y="146.861" width="246.294" height="67.3979" rx="5.40847" stroke="#2F5BC1" stroke-width="2.49622"/>
<path d="M867.297 174.602H851.052V172.613H857.839V168.596H860.316V172.613H867.297V174.602ZM851.442 167.094C852.729 166.892 853.848 166.493 854.797 165.895C855.752 165.297 856.48 164.588 856.981 163.769C857.481 162.95 857.735 162.114 857.741 161.263V159.995H860.394V161.263C860.387 162.121 860.634 162.96 861.135 163.779C861.642 164.598 862.376 165.306 863.338 165.904C864.3 166.496 865.432 166.892 866.732 167.094L865.679 169.161C864.144 168.882 862.809 168.352 861.671 167.572C860.533 166.792 859.666 165.839 859.067 164.715C858.476 165.839 857.611 166.795 856.474 167.581C855.343 168.362 854.017 168.888 852.495 169.161L851.442 167.094ZM883.698 176.728H881.319V167.776H879.72V175.909H877.36V159.235H879.72V165.748H881.319V158.981H883.698V176.728ZM868.818 160.814H875.878V172.262H868.818V160.814ZM873.557 170.312V162.784H871.139V170.312H873.557ZM900.528 169.239H898.051V165.105H895.243V163.077H898.051V158.981H900.528V169.239ZM885.473 167.308C886.396 167.009 887.173 166.58 887.803 166.021C888.434 165.462 888.908 164.828 889.227 164.12C889.545 163.405 889.718 162.661 889.744 161.887H886.175V159.878H895.809V161.887H892.279C892.292 162.589 892.448 163.272 892.747 163.935C893.046 164.598 893.498 165.196 894.102 165.729C894.713 166.262 895.464 166.678 896.355 166.977L895.126 168.947C894.171 168.635 893.348 168.173 892.659 167.562C891.97 166.951 891.427 166.233 891.031 165.407C890.628 166.324 890.065 167.113 889.344 167.776C888.622 168.44 887.754 168.934 886.74 169.259L885.473 167.308ZM888.593 169.98H900.528V176.533H888.593V169.98ZM898.09 174.544V171.93H891.089V174.544H898.09ZM904.974 177.059H902.498L907.042 160.151H909.538L904.974 177.059ZM929.8 171.95H927.323V165.592H924.418V163.584H927.323V159.001H929.8V171.95ZM914.745 167.952C915.687 167.659 916.477 167.23 917.114 166.665C917.751 166.093 918.226 165.446 918.538 164.724C918.85 163.996 919.009 163.239 919.016 162.453V162.179H915.447V160.19H925.081V162.179H921.551V162.472C921.544 163.181 921.691 163.876 921.99 164.559C922.289 165.235 922.744 165.846 923.355 166.392C923.966 166.931 924.723 167.347 925.627 167.64L924.398 169.61C923.443 169.298 922.62 168.839 921.931 168.235C921.249 167.624 920.709 166.909 920.313 166.09C919.903 167.006 919.337 167.799 918.616 168.469C917.894 169.138 917.027 169.642 916.012 169.98L914.745 167.952ZM918.021 170.819H920.517V174.427H930.229V176.416H918.021V170.819ZM948.288 170.078H932.062V168.128H938.927V167.035H934.091V159.41H946.396V161.321H936.587V162.316H945.987V164.11H936.587V165.124H946.552V167.035H941.423V168.128H948.288V170.078ZM933.954 173.802C933.954 173.178 934.195 172.649 934.676 172.213C935.163 171.778 935.872 171.449 936.801 171.228C937.731 171.001 938.855 170.89 940.175 170.897C941.475 170.89 942.584 171.001 943.5 171.228C944.423 171.449 945.128 171.781 945.616 172.223C946.104 172.658 946.351 173.185 946.357 173.802C946.351 174.752 945.808 175.476 944.729 175.977C943.656 176.484 942.138 176.734 940.175 176.728C938.179 176.734 936.642 176.484 935.563 175.977C934.49 175.476 933.954 174.752 933.954 173.802ZM936.45 173.802C936.444 174.18 936.74 174.456 937.338 174.631C937.942 174.807 938.888 174.895 940.175 174.895C941.43 174.895 942.356 174.807 942.954 174.631C943.552 174.456 943.854 174.18 943.861 173.802C943.854 173.438 943.559 173.169 942.974 172.993C942.389 172.818 941.491 172.73 940.282 172.73C938.956 172.73 937.984 172.818 937.367 172.993C936.749 173.162 936.444 173.432 936.45 173.802ZM956.264 162.999C956.257 164.11 956.423 165.183 956.761 166.216C957.099 167.25 957.606 168.17 958.282 168.976C958.958 169.782 959.781 170.39 960.749 170.799L959.287 172.788C958.299 172.34 957.447 171.696 956.732 170.858C956.023 170.019 955.461 169.034 955.045 167.903C954.636 169.138 954.06 170.214 953.319 171.131C952.578 172.041 951.681 172.736 950.628 173.217L949.126 171.15C950.127 170.728 950.973 170.1 951.662 169.268C952.357 168.43 952.877 167.471 953.222 166.392C953.566 165.306 953.742 164.175 953.748 162.999V160.346H956.264V162.999ZM961.705 158.981H964.221V176.767H961.705V158.981ZM976.702 162.16H973.172C973.178 162.869 973.328 163.545 973.62 164.188C973.92 164.832 974.375 165.404 974.986 165.904C975.597 166.405 976.357 166.788 977.267 167.055L976.078 169.005C975.122 168.713 974.3 168.284 973.611 167.718C972.922 167.152 972.376 166.48 971.973 165.7C971.563 166.616 970.991 167.412 970.256 168.088C969.528 168.758 968.648 169.265 967.614 169.61L966.346 167.64C967.289 167.341 968.082 166.909 968.726 166.343C969.369 165.778 969.847 165.134 970.159 164.412C970.477 163.691 970.643 162.94 970.656 162.16H967.029V160.171H976.702V162.16ZM968.804 173.276C968.804 172.561 969.047 171.947 969.535 171.433C970.022 170.919 970.724 170.529 971.641 170.263C972.558 169.996 973.64 169.863 974.888 169.863C976.117 169.863 977.18 169.996 978.077 170.263C978.974 170.529 979.663 170.919 980.144 171.433C980.631 171.947 980.875 172.561 980.875 173.276C980.875 173.998 980.631 174.615 980.144 175.129C979.663 175.649 978.974 176.045 978.077 176.318C977.18 176.591 976.117 176.728 974.888 176.728C973.64 176.728 972.558 176.591 971.641 176.318C970.731 176.045 970.029 175.649 969.535 175.129C969.047 174.609 968.804 173.991 968.804 173.276ZM971.3 173.276C971.293 173.776 971.596 174.157 972.207 174.417C972.818 174.67 973.711 174.797 974.888 174.797C976.045 174.797 976.923 174.67 977.521 174.417C978.119 174.163 978.418 173.783 978.418 173.276C978.418 172.788 978.122 172.421 977.531 172.174C976.946 171.921 976.087 171.794 974.956 171.794C973.754 171.794 972.84 171.917 972.216 172.164C971.599 172.411 971.293 172.782 971.3 173.276ZM978.203 158.981H980.7V163.096H983.098V165.124H980.7V169.512H978.203V158.981ZM990.626 177.059H988.149L992.693 160.151H995.189L990.626 177.059ZM904.37 199.398H895.848V187.658H904.37V199.398ZM901.893 197.429V189.609H898.305V197.429H901.893ZM906.788 185.981H909.284V192.67H911.898V194.737H909.284V203.728H906.788V185.981ZM927.011 197.117H914.452V187.288H926.875V189.296H916.988V191.169H926.465V193.119H916.988V195.147H927.011V197.117ZM912.541 199.632H928.786V201.661H912.541V199.632ZM950.628 196.122H934.403V194.094H950.628V196.122ZM936.255 200.451C936.255 199.762 936.502 199.174 936.996 198.687C937.497 198.199 938.212 197.828 939.141 197.575C940.071 197.321 941.183 197.195 942.476 197.195C943.757 197.195 944.859 197.321 945.782 197.575C946.705 197.822 947.413 198.193 947.907 198.687C948.402 199.174 948.652 199.762 948.658 200.451C948.652 201.147 948.402 201.739 947.907 202.226C947.413 202.72 946.705 203.094 945.782 203.347C944.859 203.601 943.757 203.728 942.476 203.728C941.189 203.728 940.078 203.601 939.141 203.347C938.212 203.094 937.497 202.72 936.996 202.226C936.502 201.739 936.255 201.147 936.255 200.451ZM936.372 186.449H948.678V188.458H938.849V190.876H948.775V192.846H936.372V186.449ZM938.79 200.451C938.784 201.375 940.013 201.836 942.476 201.836C944.927 201.836 946.156 201.375 946.162 200.451C946.156 200.003 945.84 199.665 945.216 199.437C944.592 199.203 943.679 199.086 942.476 199.086C941.248 199.086 940.325 199.203 939.707 199.437C939.089 199.665 938.784 200.003 938.79 200.451Z" fill="#2F5BC1"/>
<path d="M749.699 187.217C748.78 187.217 748.035 187.962 748.035 188.881C748.035 189.8 748.78 190.545 749.699 190.545L749.699 187.217ZM832.074 188.881L815.433 179.273L815.433 198.489L832.074 188.881ZM749.699 190.545L817.097 190.545L817.097 187.217L749.699 187.217L749.699 190.545Z" fill="#2F5BC1"/>
<path d="M171.995 170.704H166.21V171.776H170.354V175.222H162V176.229H170.76V177.578H160.229V173.987H168.582V173.076H160.213V171.776H164.422V170.704H158.669V169.371H171.995V170.704ZM159.254 167.535C160.202 167.486 161.025 167.375 161.724 167.202C162.428 167.023 162.992 166.795 163.414 166.519C163.837 166.237 164.11 165.92 164.235 165.568H159.953V164.219H164.422V162.984H166.21V164.219H170.711V165.568H166.396C166.516 165.92 166.784 166.237 167.201 166.519C167.623 166.795 168.187 167.023 168.891 167.202C169.601 167.375 170.435 167.486 171.394 167.535L170.857 168.884C169.53 168.802 168.39 168.586 167.437 168.234C166.483 167.881 165.776 167.41 165.316 166.82C164.855 167.41 164.148 167.881 163.195 168.234C162.241 168.586 161.096 168.802 159.758 168.884L159.254 167.535ZM184.65 168.867H186.909V170.362H184.65V177.708H182.862V163.017H184.65V168.867ZM173.062 165.276H176.54V163.228H178.344V165.276H181.724V166.722H173.062V165.276ZM173.745 171.143C173.74 170.476 173.897 169.88 174.216 169.355C174.536 168.824 174.977 168.412 175.541 168.12C176.104 167.827 176.741 167.681 177.45 167.681C178.149 167.681 178.778 167.827 179.335 168.12C179.893 168.412 180.332 168.824 180.652 169.355C180.977 169.88 181.139 170.476 181.139 171.143C181.139 171.809 180.977 172.405 180.652 172.93C180.332 173.45 179.893 173.857 179.335 174.149C178.778 174.442 178.149 174.588 177.45 174.588C176.741 174.588 176.104 174.442 175.541 174.149C174.977 173.857 174.536 173.45 174.216 172.93C173.897 172.405 173.74 171.809 173.745 171.143ZM175.468 171.143C175.468 171.533 175.552 171.877 175.72 172.174C175.887 172.467 176.12 172.695 176.418 172.857C176.722 173.014 177.066 173.093 177.45 173.093C177.824 173.093 178.16 173.014 178.458 172.857C178.756 172.7 178.989 172.472 179.157 172.174C179.325 171.877 179.411 171.533 179.417 171.143C179.411 170.752 179.322 170.408 179.149 170.111C178.981 169.807 178.748 169.574 178.45 169.412C178.157 169.244 177.824 169.16 177.45 169.16C177.066 169.16 176.722 169.244 176.418 169.412C176.12 169.574 175.887 169.807 175.72 170.111C175.552 170.408 175.468 170.752 175.468 171.143Z" fill="#0F172A"/>
<path d="M544.384 222.678H546.773V219.282H548.447V229.065H542.677V219.282H544.384V222.678ZM546.773 227.602V224.108H544.384V227.602H546.773ZM549.893 218.193H551.599V223.605H553.16V217.933H554.898V232.624H553.16V225.1H551.599V231.909H549.893V218.193ZM564.303 225.035H570.121V226.481H556.73V225.035H562.515V223.117H564.303V225.035ZM557.461 222.532C558.447 222.407 559.319 222.158 560.077 221.784C560.841 221.405 561.432 220.947 561.849 220.411C562.271 219.875 562.483 219.314 562.483 218.729V218.177H564.319V218.729C564.319 219.325 564.528 219.891 564.945 220.427C565.362 220.964 565.952 221.419 566.716 221.793C567.48 222.161 568.36 222.407 569.357 222.532L568.658 223.946C567.456 223.762 566.394 223.41 565.473 222.89C564.552 222.364 563.859 221.717 563.393 220.947C562.921 221.717 562.225 222.364 561.304 222.89C560.383 223.41 559.319 223.762 558.111 223.946L557.461 222.532ZM558.29 230.024C558.29 229.477 558.493 229.011 558.899 228.626C559.305 228.236 559.891 227.941 560.654 227.741C561.424 227.54 562.342 227.44 563.409 227.44C564.465 227.44 565.373 227.54 566.131 227.741C566.895 227.941 567.48 228.236 567.886 228.626C568.293 229.011 568.496 229.477 568.496 230.024C568.496 230.576 568.293 231.045 567.886 231.43C567.485 231.814 566.903 232.107 566.139 232.307C565.381 232.508 564.471 232.608 563.409 232.608C562.342 232.608 561.424 232.508 560.654 232.307C559.891 232.107 559.305 231.814 558.899 231.43C558.493 231.045 558.29 230.576 558.29 230.024ZM560.126 230.024C560.121 230.425 560.394 230.728 560.947 230.934C561.505 231.14 562.326 231.243 563.409 231.243C564.471 231.243 565.281 231.14 565.839 230.934C566.402 230.728 566.686 230.425 566.692 230.024C566.686 229.623 566.405 229.322 565.847 229.122C565.289 228.921 564.476 228.821 563.409 228.821C562.326 228.821 561.505 228.921 560.947 229.122C560.394 229.322 560.121 229.623 560.126 230.024Z" fill="#0F172A"/>
<path d="M467.908 152.761H466.088V138.054H467.908V152.761ZM456.158 144.311C456.158 143.276 456.321 142.366 456.646 141.58C456.971 140.795 457.423 140.191 458.003 139.768C458.588 139.34 459.252 139.127 459.994 139.127C460.725 139.127 461.381 139.34 461.96 139.768C462.545 140.191 463.003 140.795 463.333 141.58C463.664 142.366 463.829 143.276 463.829 144.311C463.829 145.356 463.664 146.272 463.333 147.057C463.003 147.843 462.545 148.449 461.96 148.877C461.381 149.3 460.725 149.511 459.994 149.511C459.252 149.511 458.588 149.3 458.003 148.877C457.423 148.449 456.971 147.843 456.646 147.057C456.321 146.272 456.158 145.356 456.158 144.311ZM457.897 144.311C457.897 145.053 457.984 145.692 458.157 146.228C458.336 146.765 458.583 147.174 458.897 147.455C459.211 147.737 459.577 147.881 459.994 147.886C460.405 147.881 460.768 147.737 461.083 147.455C461.397 147.174 461.641 146.765 461.814 146.228C461.987 145.692 462.074 145.053 462.074 144.311C462.074 143.574 461.987 142.94 461.814 142.409C461.641 141.873 461.397 141.464 461.083 141.182C460.768 140.895 460.405 140.752 459.994 140.752C459.577 140.752 459.211 140.895 458.897 141.182C458.583 141.464 458.336 141.873 458.157 142.409C457.984 142.94 457.897 143.574 457.897 144.311ZM477.768 145.156H483.586V146.602H470.194V145.156H475.98V143.238H477.768V145.156ZM470.926 142.653C471.912 142.528 472.784 142.279 473.542 141.906C474.306 141.526 474.897 141.069 475.314 140.532C475.736 139.996 475.947 139.435 475.947 138.85V138.298H477.784V138.85C477.784 139.446 477.992 140.012 478.41 140.549C478.827 141.085 479.417 141.54 480.181 141.914C480.945 142.282 481.825 142.528 482.822 142.653L482.123 144.067C480.92 143.883 479.859 143.531 478.938 143.011C478.017 142.485 477.323 141.838 476.858 141.069C476.386 141.838 475.69 142.485 474.769 143.011C473.848 143.531 472.784 143.883 471.576 144.067L470.926 142.653ZM471.755 150.145C471.755 149.598 471.958 149.132 472.364 148.747C472.77 148.357 473.355 148.062 474.119 147.862C474.888 147.661 475.807 147.561 476.874 147.561C477.93 147.561 478.838 147.661 479.596 147.862C480.36 148.062 480.945 148.357 481.351 148.747C481.757 149.132 481.961 149.598 481.961 150.145C481.961 150.698 481.757 151.166 481.351 151.551C480.95 151.935 480.368 152.228 479.604 152.428C478.846 152.629 477.936 152.729 476.874 152.729C475.807 152.729 474.888 152.629 474.119 152.428C473.355 152.228 472.77 151.935 472.364 151.551C471.958 151.166 471.755 150.698 471.755 150.145ZM473.591 150.145C473.586 150.546 473.859 150.849 474.412 151.055C474.97 151.261 475.79 151.364 476.874 151.364C477.936 151.364 478.745 151.261 479.303 151.055C479.867 150.849 480.151 150.546 480.157 150.145C480.151 149.744 479.869 149.443 479.312 149.243C478.754 149.043 477.941 148.942 476.874 148.942C475.79 148.942 474.97 149.043 474.412 149.243C473.859 149.443 473.586 149.744 473.591 150.145Z" fill="#0F172A"/>
<path d="M630.087 142.799H632.476V139.403H634.15V149.186H628.38V139.403H630.087V142.799ZM632.476 147.724V144.229H630.087V147.724H632.476ZM635.596 138.314H637.303V143.726H638.863V138.054H640.602V152.745H638.863V145.221H637.303V152.03H635.596V138.314ZM650.006 145.156H655.824V146.602H642.433V145.156H648.218V143.238H650.006V145.156ZM643.164 142.653C644.15 142.528 645.022 142.279 645.781 141.906C646.544 141.526 647.135 141.069 647.552 140.532C647.974 139.996 648.186 139.435 648.186 138.85V138.298H650.022V138.85C650.022 139.446 650.231 140.012 650.648 140.549C651.065 141.085 651.655 141.54 652.419 141.914C653.183 142.282 654.063 142.528 655.06 142.653L654.361 144.067C653.159 143.883 652.097 143.531 651.176 143.011C650.255 142.485 649.562 141.838 649.096 141.069C648.625 141.838 647.928 142.485 647.008 143.011C646.087 143.531 645.022 143.883 643.814 144.067L643.164 142.653ZM643.993 150.145C643.993 149.598 644.196 149.132 644.602 148.747C645.009 148.357 645.594 148.062 646.357 147.862C647.127 147.661 648.045 147.561 649.112 147.561C650.168 147.561 651.076 147.661 651.834 147.862C652.598 148.062 653.183 148.357 653.589 148.747C653.996 149.132 654.199 149.598 654.199 150.145C654.199 150.698 653.996 151.166 653.589 151.551C653.188 151.935 652.606 152.228 651.842 152.428C651.084 152.629 650.174 152.729 649.112 152.729C648.045 152.729 647.127 152.629 646.357 152.428C645.594 152.228 645.009 151.935 644.602 151.551C644.196 151.166 643.993 150.698 643.993 150.145ZM645.829 150.145C645.824 150.546 646.097 150.849 646.65 151.055C647.208 151.261 648.029 151.364 649.112 151.364C650.174 151.364 650.984 151.261 651.542 151.055C652.105 150.849 652.389 150.546 652.395 150.145C652.389 149.744 652.108 149.443 651.55 149.243C650.992 149.043 650.179 148.942 649.112 148.942C648.029 148.942 647.208 149.043 646.65 149.243C646.097 149.443 645.824 149.744 645.829 150.145Z" fill="#0F172A"/>
<path d="M253.349 148.897H255.608V150.392H253.349V157.737H251.562V143.046H253.349V148.897ZM241.762 145.305H245.24V143.257H247.044V145.305H250.424V146.751H241.762V145.305ZM242.445 151.172C242.439 150.506 242.596 149.91 242.916 149.384C243.236 148.853 243.677 148.442 244.24 148.149C244.804 147.857 245.44 147.71 246.15 147.71C246.849 147.71 247.477 147.857 248.035 148.149C248.593 148.442 249.032 148.853 249.352 149.384C249.677 149.91 249.839 150.506 249.839 151.172C249.839 151.838 249.677 152.434 249.352 152.959C249.032 153.48 248.593 153.886 248.035 154.178C247.477 154.471 246.849 154.617 246.15 154.617C245.44 154.617 244.804 154.471 244.24 154.178C243.677 153.886 243.236 153.48 242.916 152.959C242.596 152.434 242.439 151.838 242.445 151.172ZM244.167 151.172C244.167 151.562 244.251 151.906 244.419 152.204C244.587 152.496 244.82 152.724 245.118 152.886C245.421 153.043 245.765 153.122 246.15 153.122C246.524 153.122 246.86 153.043 247.158 152.886C247.456 152.729 247.689 152.502 247.856 152.204C248.024 151.906 248.111 151.562 248.116 151.172C248.111 150.782 248.022 150.438 247.848 150.14C247.68 149.836 247.447 149.604 247.15 149.441C246.857 149.273 246.524 149.189 246.15 149.189C245.765 149.189 245.421 149.273 245.118 149.441C244.82 149.604 244.587 149.836 244.419 150.14C244.251 150.438 244.167 150.782 244.167 151.172ZM268.653 157.737H266.849V153.853H258.642V152.423H268.653V157.737ZM256.546 147.418C256.546 146.735 256.714 146.126 257.05 145.589C257.385 145.048 257.846 144.625 258.431 144.322C259.016 144.013 259.671 143.859 260.397 143.859C261.009 143.859 261.573 143.964 262.087 144.176C262.602 144.387 263.035 144.688 263.388 145.078H266.849V143.046H268.653V151.724H266.849V149.774H263.404C263.052 150.17 262.618 150.478 262.104 150.701C261.589 150.917 261.031 151.026 260.43 151.026C259.699 151.026 259.038 150.871 258.447 150.562C257.857 150.254 257.391 149.826 257.05 149.279C256.714 148.731 256.546 148.111 256.546 147.418ZM258.268 147.418C258.268 147.835 258.36 148.201 258.545 148.515C258.729 148.829 258.983 149.073 259.308 149.246C259.639 149.414 260.013 149.498 260.43 149.498C260.831 149.493 261.191 149.406 261.511 149.238C261.836 149.07 262.09 148.829 262.274 148.515C262.464 148.201 262.559 147.835 262.559 147.418C262.559 147.017 262.464 146.662 262.274 146.353C262.09 146.044 261.836 145.806 261.511 145.638C261.191 145.47 260.831 145.386 260.43 145.386C260.013 145.386 259.639 145.47 259.308 145.638C258.983 145.806 258.729 146.044 258.545 146.353C258.36 146.662 258.268 147.017 258.268 147.418ZM266.849 148.312V146.556H264.176C264.246 146.854 264.281 147.141 264.281 147.418C264.281 147.721 264.244 148.019 264.168 148.312H266.849Z" fill="#0F172A"/>
<rect x="201.779" y="166.83" width="115.658" height="47.4281" rx="5.40847" fill="#EDF4FF"/>
<rect x="201.779" y="166.83" width="115.658" height="47.4281" rx="5.40847" stroke="#2F5BC1" stroke-width="2.49622"/>
<path d="M249.475 192.516H246.998V190.781H243V188.792H246.998V187.095H243.185C242.074 189.903 239.561 191.84 235.648 192.907L234.673 190.937C236.656 190.417 238.177 189.692 239.236 188.762C240.302 187.826 240.927 186.731 241.109 185.476H235.629V183.487H243.819C243.819 184.085 243.777 184.638 243.692 185.145H246.998V182.298H249.475V192.516ZM237.501 196.319C237.501 195.598 237.751 194.967 238.252 194.428C238.752 193.888 239.461 193.472 240.377 193.18C241.294 192.881 242.357 192.731 243.566 192.731C244.762 192.731 245.815 192.881 246.725 193.18C247.635 193.472 248.344 193.888 248.851 194.428C249.358 194.967 249.611 195.598 249.611 196.319C249.611 197.047 249.358 197.684 248.851 198.23C248.344 198.783 247.632 199.206 246.715 199.498C245.805 199.797 244.755 199.947 243.566 199.947C242.357 199.947 241.294 199.797 240.377 199.498C239.461 199.206 238.752 198.786 238.252 198.24C237.751 197.694 237.501 197.054 237.501 196.319ZM239.977 196.319C239.977 196.865 240.289 197.278 240.914 197.558C241.538 197.837 242.422 197.977 243.566 197.977C244.684 197.977 245.552 197.837 246.169 197.558C246.793 197.272 247.109 196.859 247.115 196.319C247.109 195.78 246.793 195.37 246.169 195.091C245.552 194.805 244.684 194.668 243.566 194.681C242.428 194.668 241.544 194.805 240.914 195.091C240.289 195.37 239.977 195.78 239.977 196.319ZM267.163 200.025H264.784V191.073H263.184V199.206H260.825V182.532H263.184V189.045H264.784V182.278H267.163V200.025ZM252.283 184.111H259.343V195.559H252.283V184.111ZM257.022 193.609V186.081H254.604V193.609H257.022ZM279.117 185.457H275.588C275.594 186.165 275.744 186.841 276.036 187.485C276.335 188.129 276.79 188.701 277.401 189.201C278.012 189.702 278.773 190.085 279.683 190.352L278.493 192.302C277.538 192.009 276.715 191.58 276.026 191.015C275.337 190.449 274.791 189.776 274.388 188.996C273.979 189.913 273.407 190.709 272.672 191.385C271.944 192.055 271.063 192.562 270.03 192.907L268.762 190.937C269.705 190.638 270.498 190.206 271.141 189.64C271.785 189.074 272.262 188.431 272.575 187.709C272.893 186.988 273.059 186.237 273.072 185.457H269.444V183.468H279.117V185.457ZM271.219 196.573C271.219 195.858 271.463 195.243 271.95 194.73C272.438 194.216 273.14 193.826 274.057 193.56C274.973 193.293 276.056 193.16 277.304 193.16C278.532 193.16 279.595 193.293 280.492 193.56C281.389 193.826 282.078 194.216 282.559 194.73C283.047 195.243 283.291 195.858 283.291 196.573C283.291 197.294 283.047 197.912 282.559 198.425C282.078 198.946 281.389 199.342 280.492 199.615C279.595 199.888 278.532 200.025 277.304 200.025C276.056 200.025 274.973 199.888 274.057 199.615C273.147 199.342 272.445 198.946 271.95 198.425C271.463 197.905 271.219 197.288 271.219 196.573ZM273.715 196.573C273.709 197.073 274.011 197.454 274.622 197.714C275.233 197.967 276.127 198.094 277.304 198.094C278.461 198.094 279.338 197.967 279.936 197.714C280.534 197.46 280.833 197.08 280.833 196.573C280.833 196.085 280.538 195.718 279.946 195.471C279.361 195.217 278.503 195.091 277.372 195.091C276.169 195.091 275.256 195.214 274.632 195.461C274.014 195.708 273.709 196.079 273.715 196.573ZM280.619 182.278H283.115V186.393H285.514V188.421H283.115V192.809H280.619V182.278Z" fill="#2F5BC1"/>
<rect x="388.248" y="167.248" width="79.5038" height="47.5038" rx="5.40847" fill="white"/>
<rect x="388.248" y="167.248" width="79.5038" height="47.5038" rx="5.40847" stroke="#33A118" stroke-width="2.49622"/>
<path d="M426.737 192.102H424.26V190.367H420.263V188.378H424.26V186.681H420.448C419.336 189.489 416.824 191.426 412.91 192.492L411.935 190.523C413.918 190.003 415.439 189.278 416.499 188.348C417.565 187.412 418.189 186.317 418.371 185.062H412.891V183.073H421.082C421.082 183.671 421.039 184.224 420.955 184.731H424.26V181.884H426.737V192.102ZM414.763 195.905C414.763 195.184 415.013 194.553 415.514 194.014C416.014 193.474 416.723 193.058 417.64 192.765C418.556 192.466 419.619 192.317 420.828 192.317C422.024 192.317 423.077 192.466 423.987 192.765C424.897 193.058 425.606 193.474 426.113 194.014C426.62 194.553 426.874 195.184 426.874 195.905C426.874 196.633 426.62 197.27 426.113 197.816C425.606 198.369 424.894 198.791 423.978 199.084C423.067 199.383 422.018 199.533 420.828 199.533C419.619 199.533 418.556 199.383 417.64 199.084C416.723 198.791 416.014 198.372 415.514 197.826C415.013 197.28 414.763 196.64 414.763 195.905ZM417.24 195.905C417.24 196.451 417.552 196.864 418.176 197.144C418.8 197.423 419.684 197.563 420.828 197.563C421.946 197.563 422.814 197.423 423.432 197.144C424.056 196.858 424.371 196.445 424.377 195.905C424.371 195.366 424.056 194.956 423.432 194.677C422.814 194.391 421.946 194.254 420.828 194.267C419.69 194.254 418.806 194.391 418.176 194.677C417.552 194.956 417.24 195.366 417.24 195.905ZM444.425 199.611H442.046V190.659H440.447V198.791H438.087V182.118H440.447V188.631H442.046V181.864H444.425V199.611ZM429.545 183.697H436.605V195.145H429.545V183.697ZM434.284 193.195V185.667H431.866V193.195H434.284Z" fill="#1E4200"/>
<rect x="504.65" y="136.043" width="102.345" height="47.4281" rx="5.40847" fill="white"/>
<rect x="504.65" y="136.043" width="102.345" height="47.4281" rx="5.40847" stroke="#33A118" stroke-width="2.49622"/>
<path d="M554.139 160.917H551.663V156.782H548.854V154.754H551.663V150.659H554.139V160.917ZM539.084 158.986C540.007 158.687 540.784 158.258 541.415 157.699C542.045 157.14 542.52 156.506 542.838 155.798C543.157 155.083 543.329 154.338 543.355 153.565H539.786V151.556H549.42V153.565H545.89C545.903 154.267 546.059 154.949 546.358 155.612C546.657 156.275 547.109 156.873 547.714 157.407C548.325 157.94 549.075 158.356 549.966 158.655L548.737 160.624C547.782 160.312 546.96 159.851 546.27 159.24C545.581 158.629 545.039 157.91 544.642 157.085C544.239 158.001 543.677 158.791 542.955 159.454C542.234 160.117 541.366 160.611 540.352 160.936L539.084 158.986ZM542.204 161.658H554.139V168.21H542.204V161.658ZM551.702 166.221V163.608H544.701V166.221H551.702ZM572.686 166.436H556.441V164.349H563.266V161.151H557.786V159.201H560.165V154.13H557.708V152.141H571.32V154.13H568.824V159.201H571.242V161.151H565.743V164.349H572.686V166.436ZM566.367 159.201V154.13H562.662V159.201H566.367Z" fill="#1E4200"/>
<rect x="672.248" y="165.998" width="102.345" height="47.4281" rx="5.40847" fill="white"/>
<rect x="672.248" y="165.998" width="102.345" height="47.4281" rx="5.40847" stroke="#33A118" stroke-width="2.49622"/>
<path d="M712.624 183.247C712.618 184.41 712.588 185.418 712.536 186.27C712.484 187.121 712.361 188.096 712.166 189.195H714.516V191.203H707.593V198.38H705.097V191.203H698.329V189.195H709.64C709.848 188.174 709.982 187.241 710.04 186.396C710.105 185.545 710.141 184.625 710.147 183.637H700.182V181.648H712.624V183.247ZM730.975 198.361H728.596V189.409H726.997V197.541H724.637V180.868H726.997V187.381H728.596V180.614H730.975V198.361ZM716.095 182.447H723.155V193.895H716.095V182.447ZM720.834 191.945V184.417H718.416V191.945H720.834ZM739.4 185.45C739.394 186.38 739.556 187.313 739.888 188.249C740.219 189.185 740.71 190.04 741.36 190.813C742.017 191.587 742.813 192.192 743.749 192.627L742.364 194.577C741.409 194.135 740.577 193.495 739.868 192.656C739.16 191.811 738.597 190.836 738.181 189.731C737.772 190.94 737.2 192.01 736.465 192.939C735.737 193.862 734.876 194.558 733.881 195.026L732.438 193.056C733.387 192.614 734.196 191.987 734.866 191.174C735.535 190.362 736.039 189.458 736.377 188.463C736.722 187.462 736.897 186.458 736.904 185.45V184.358H733.14V182.33H742.969V184.358H739.4V185.45ZM744.353 180.614H746.85V187.381H749.463V189.468H746.85V198.361H744.353V180.614Z" fill="#1E4200"/>
</svg>
