<svg width="30" height="31" viewBox="0 0 30 31" fill="none" xmlns="http://www.w3.org/2000/svg">
<path d="M14.9985 30.536C23.2819 30.536 29.997 23.821 29.997 15.5375C29.997 7.25411 23.2819 0.539062 14.9985 0.539062C6.71505 0.539062 0 7.25411 0 15.5375C0 23.821 6.71505 30.536 14.9985 30.536Z" fill="#FFB724"/>
<path d="M17.402 15.5389C17.402 16.8644 16.3253 17.9411 14.9998 17.9411C13.6744 17.9411 12.5977 16.8644 12.5977 15.5389C12.5977 14.2135 13.6744 13.1367 14.9998 13.1367C16.3253 13.1367 17.402 14.2135 17.402 15.5389Z" fill="white"/>
<path d="M19.0546 8.28125H10.9412C9.17595 8.28125 7.73828 9.71892 7.73828 11.4842V19.5976C7.73828 21.3628 9.17595 22.8005 10.9412 22.8005H19.0546C20.8199 22.8005 22.2575 21.3628 22.2575 19.5976V11.4842C22.2575 9.71892 20.8199 8.28125 19.0546 8.28125ZM14.9994 19.546C12.7914 19.546 10.9958 17.7505 10.9958 15.5424C10.9958 13.3343 12.7914 11.5388 14.9994 11.5388C17.2075 11.5388 19.0031 13.3343 19.0031 15.5424C19.0031 17.7505 17.2075 19.546 14.9994 19.546ZM19.5885 11.7511C19.1456 11.7511 18.7877 11.3932 18.7877 10.9503C18.7877 10.5075 19.1456 10.1496 19.5885 10.1496C20.0313 10.1496 20.3892 10.5075 20.3892 10.9503C20.3892 11.3932 20.0313 11.7511 19.5885 11.7511Z" fill="white"/>
</svg>
