<svg width="115" height="135" viewBox="0 0 115 135" fill="none" xmlns="http://www.w3.org/2000/svg">
<g clip-path="url(#clip0_2981_27179)">
<path d="M13.5829 43.7852C6.09297 43.7852 0 49.9362 0 57.4975C0 65.0588 6.09297 71.2098 13.5829 71.2098C21.0729 71.2098 27.1659 65.0588 27.1659 57.4975C27.1659 49.9362 21.0729 43.7852 13.5829 43.7852Z" fill="#FFB724"/>
<path d="M13.5829 87.0312C6.09297 87.0312 0 93.1823 0 100.744C0 108.305 6.09297 114.456 13.5829 114.456C21.0729 114.456 27.1659 108.305 27.1659 100.744C27.1659 93.1823 21.0729 87.0312 13.5829 87.0312Z" fill="#FFB724"/>
<path d="M13.5829 0.539062C6.09297 0.539062 0 6.69008 0 14.2514C0 21.8127 6.09297 27.9637 13.5829 27.9637C21.0729 27.9637 27.1659 21.8127 27.1659 14.2514C27.1659 6.69008 21.0729 0.539062 13.5829 0.539062ZM21.2805 10.8899L12.3141 19.9444C11.9963 20.2653 11.5759 20.4257 11.1606 20.4257C10.7454 20.4257 10.325 20.2653 10.0071 19.9444L5.88791 15.7859C5.24964 15.1442 5.24964 14.0987 5.88791 13.4544C6.5236 12.8126 7.55918 12.8126 8.19488 13.4544L11.1606 16.4484L18.9736 8.561C19.6093 7.91924 20.6448 7.91924 21.2805 8.561C21.9188 9.20275 21.9188 10.2482 21.2805 10.8899Z" fill="#FFB724"/>
<path d="M68.2593 79.0077C68.2593 79.9186 67.5287 80.6561 66.6264 80.6561C65.7267 80.6561 64.9936 79.9212 64.9936 79.0077V53.9301V28.8525C64.9936 25.6593 62.4175 23.0586 59.2544 23.0586C56.0913 23.0586 53.5126 25.6593 53.5126 28.8525V79.0103C53.5126 79.9212 52.7846 80.6587 51.8798 80.6587C50.9749 80.6587 50.2495 79.9238 50.2495 79.0103V69.3012C47.1453 70.0465 44.8281 72.8671 44.8281 76.2285V97.5125C44.8281 101.091 48.3142 106.453 51.3851 111.183C54.5251 116.012 57.2319 120.181 57.2319 123.392V134.545H97.5219V124.575C97.5219 121.54 99.9007 118.269 102.654 114.483C105.742 110.236 109.236 105.426 109.236 100.853V67.2569C109.236 64.0611 106.66 61.4604 103.497 61.4604C100.334 61.4604 97.7552 64.0611 97.7552 67.2569V79.0103C97.7552 79.9212 97.0272 80.6587 96.1224 80.6587C95.2175 80.6587 94.4895 79.9238 94.4895 79.0103V62.2471C94.4895 59.0512 91.9134 56.4506 88.7503 56.4506C85.5872 56.4506 83.0111 59.0512 83.0111 62.2471V79.0103C83.0111 79.9212 82.2805 80.6587 81.3783 80.6587C80.476 80.6587 79.7454 79.9238 79.7454 79.0103V53.9327C79.7454 50.7369 77.1693 48.1388 74.0036 48.1388C70.838 48.1388 68.2644 50.7369 68.2644 53.9327V79.0103L68.2593 79.0077Z" fill="#FFB724"/>
<path d="M39.3594 26.5882H50.5354C51.5325 22.6652 55.0647 19.7592 59.2583 19.7592C63.4519 19.7592 66.9841 22.6678 67.9812 26.5882H115V2.56641H39.3594V26.5856V26.5882Z" fill="#FFB724"/>
</g>
<defs>
<clipPath id="clip0_2981_27179">
<rect width="115" height="134" fill="white" transform="translate(0 0.539062)"/>
</clipPath>
</defs>
</svg>
