<svg width="49" height="49" viewBox="0 0 49 49" fill="none" xmlns="http://www.w3.org/2000/svg">
<path d="M24.5345 48.8424C38.022 48.8424 48.9557 37.9087 48.9557 24.4212C48.9557 10.9337 38.022 0 24.5345 0C11.047 0 0.113281 10.9337 0.113281 24.4212C0.113281 37.9087 11.047 48.8424 24.5345 48.8424Z" fill="#2F5BC1"/>
<path d="M36.314 18.6043V13.238C36.314 11.6235 34.9951 10.3047 33.3807 10.3047H15.7356C14.1211 10.3047 12.8023 11.6235 12.8023 13.238V18.6043C11.4607 18.8771 10.4375 20.0595 10.4375 21.4921V22.6745C10.4375 23.6522 11.2334 24.4481 12.2111 24.4481H12.8023V33.2706C12.8023 34.6804 13.8255 35.8856 15.1671 36.1584V36.7951C15.1671 37.7729 15.963 38.5687 16.9407 38.5687H19.3055C20.2833 38.5687 21.0791 37.7729 21.0791 36.7951V36.2039H28.1508V36.7951C28.1508 37.7729 28.9467 38.5687 29.9244 38.5687H32.2893C33.267 38.5687 34.0629 37.7729 34.0629 36.7951V36.1584C35.4044 35.8856 36.4277 34.7032 36.4277 33.2706V24.4481H37.0189C37.9966 24.4481 38.7925 23.6522 38.7925 22.6745V21.4921C38.7925 20.0823 37.7692 18.8771 36.4277 18.6043H36.314ZM18.1913 32.7931C17.1454 32.7931 16.304 31.9518 16.304 30.9058C16.304 29.8598 17.1454 29.0185 18.1913 29.0185C19.2373 29.0185 20.0786 29.8598 20.0786 30.9058C20.0786 31.9518 19.2373 32.7931 18.1913 32.7931ZM30.9022 32.7931C29.8562 32.7931 29.0149 31.9518 29.0149 30.9058C29.0149 29.8598 29.8562 29.0185 30.9022 29.0185C31.9482 29.0185 32.7895 29.8598 32.7895 30.9058C32.7895 31.9518 31.9482 32.7931 30.9022 32.7931ZM33.9719 25.0165C33.9719 25.9943 33.1761 26.7901 32.1983 26.7901H16.8953C15.9175 26.7901 15.1216 25.9943 15.1216 25.0165V19.1272C15.1216 18.1495 15.9175 17.3536 16.8953 17.3536H32.1983C33.1761 17.3536 33.9719 18.1495 33.9719 19.1272V25.0165Z" fill="white"/>
</svg>
