<svg width="53" height="53" viewBox="0 0 53 53" fill="none" xmlns="http://www.w3.org/2000/svg">
<path d="M26.7469 52.3824C41.179 52.3824 52.8785 40.6829 52.8785 26.2508C52.8785 11.8187 41.179 0.119141 26.7469 0.119141C12.3148 0.119141 0.615234 11.8187 0.615234 26.2508C0.615234 40.6829 12.3148 52.3824 26.7469 52.3824Z" fill="#FE1322"/>
<path d="M39.3514 20.0234V14.2813C39.3514 12.5538 37.9402 11.1426 36.2127 11.1426H17.3318C15.6042 11.1426 14.193 12.5538 14.193 14.2813V20.0234C12.7575 20.3154 11.6626 21.5806 11.6626 23.1135V24.3787C11.6626 25.425 12.5142 26.2766 13.5604 26.2766H14.193V35.717C14.193 37.2256 15.2879 38.5151 16.7235 38.8071V39.4884C16.7235 40.5346 17.5751 41.3862 18.6213 41.3862H21.1517C22.198 41.3862 23.0496 40.5346 23.0496 39.4884V38.8558H30.6166V39.4884C30.6166 40.5346 31.4681 41.3862 32.5144 41.3862H35.0448C36.0911 41.3862 36.9427 40.5346 36.9427 39.4884V38.8071C38.3782 38.5151 39.4731 37.2499 39.4731 35.717V26.2766H40.1057C41.1519 26.2766 42.0035 25.425 42.0035 24.3787V23.1135C42.0035 21.605 40.9086 20.3154 39.4731 20.0234H39.3514ZM19.9595 35.2061C18.8403 35.2061 17.94 34.3058 17.94 33.1866C17.94 32.0674 18.8403 31.1671 19.9595 31.1671C21.0787 31.1671 21.979 32.0674 21.979 33.1866C21.979 34.3058 21.0787 35.2061 19.9595 35.2061ZM33.5606 35.2061C32.4414 35.2061 31.5411 34.3058 31.5411 33.1866C31.5411 32.0674 32.4414 31.1671 33.5606 31.1671C34.6799 31.1671 35.5801 32.0674 35.5801 33.1866C35.5801 34.3058 34.6799 35.2061 33.5606 35.2061ZM36.8453 26.8848C36.8453 27.9311 35.9937 28.7827 34.9475 28.7827H18.5726C17.5264 28.7827 16.6748 27.9311 16.6748 26.8848V20.5831C16.6748 19.5368 17.5264 18.6852 18.5726 18.6852H34.9475C35.9937 18.6852 36.8453 19.5368 36.8453 20.5831V26.8848Z" fill="white"/>
</svg>
