<svg width="20" height="21" viewBox="0 0 20 21" fill="none" xmlns="http://www.w3.org/2000/svg">
<g id="i_arrow_down.svg" clip-path="url(#clip0_3618_16323)">
<path id="Vector" d="M1.33991 8.96581L0.323311 9.9824C0.220855 10.0842 0.139542 10.2052 0.0840539 10.3385C0.0285662 10.4719 0 10.6148 0 10.7593C0 10.9037 0.0285662 11.0467 0.0840539 11.18C0.139542 11.3133 0.220855 11.4343 0.323311 11.5361L9.22603 20.4411C9.3278 20.5436 9.44884 20.6249 9.58216 20.6804C9.71549 20.7359 9.85847 20.7645 10.0029 20.7645C10.1473 20.7645 10.2903 20.7359 10.4236 20.6804C10.5569 20.6249 10.678 20.5436 10.7797 20.4411L19.6755 11.5407C19.778 11.439 19.8593 11.3179 19.9148 11.1846C19.9703 11.0513 19.9989 10.9083 19.9989 10.7639C19.9989 10.6195 19.9703 10.4765 19.9148 10.3431C19.8593 10.2098 19.778 10.0888 19.6755 9.98701L18.6589 8.97042C18.5553 8.86692 18.4321 8.78516 18.2964 8.72995C18.1608 8.67474 18.0154 8.64718 17.869 8.6489C17.7225 8.65062 17.5779 8.68157 17.4436 8.73995C17.3093 8.79833 17.188 8.88296 17.0868 8.98886L11.8332 14.5029V1.33787C11.8335 1.19338 11.8053 1.05026 11.7501 0.916716C11.695 0.783171 11.614 0.661833 11.5118 0.559667C11.4097 0.4575 11.2883 0.376517 11.1548 0.321366C11.0212 0.266214 10.8781 0.23798 10.7336 0.238284H9.26753C9.12304 0.23798 8.97992 0.266214 8.84637 0.321366C8.71283 0.376517 8.59149 0.4575 8.48932 0.559667C8.38716 0.661833 8.30617 0.783171 8.25102 0.916716C8.19587 1.05026 8.16763 1.19338 8.16794 1.33787V14.5029L2.90976 8.98425C2.80909 8.87749 2.68795 8.79211 2.55357 8.73318C2.41919 8.67426 2.27432 8.643 2.12759 8.64128C1.98087 8.63956 1.83531 8.66741 1.69958 8.72316C1.56385 8.77892 1.44075 8.86144 1.3376 8.96581H1.33991Z" fill="#3465D6"/>
</g>
<defs>
<clipPath id="clip0_3618_16323">
<rect width="20" height="20.5233" fill="white" transform="translate(0 0.238281)"/>
</clipPath>
</defs>
</svg>
