<svg width="100" height="97" viewBox="0 0 100 97" fill="none" xmlns="http://www.w3.org/2000/svg">
<g clip-path="url(#clip0_2910_135034)">
<path d="M59.0541 66.9014L57.7358 66.6797L58.346 65.4971C58.9181 64.3852 59.2085 63.1953 59.2085 61.9567C59.2085 57.6587 55.6911 54.1621 51.3675 54.1621C49.634 54.1621 47.9996 54.7101 46.6422 55.7441L45.482 56.6283L45.0997 55.2265C43.8329 50.5851 39.5596 47.3418 34.7056 47.3418C28.7612 47.3418 23.9244 52.1501 23.9244 58.0594C23.9244 59.9934 24.4426 61.8873 25.4239 63.5363L26.1345 64.7274L24.766 64.9881C22.0058 65.5142 20.0039 67.9281 20.0039 70.7244C20.0039 73.9482 22.6416 76.5704 25.8846 76.5704H58.2283C60.931 76.5704 63.1289 74.3854 63.1289 71.6987C63.1289 69.3165 61.4162 67.2984 59.0541 66.9014ZM36.6658 72.6731H34.7056V68.7758H30.7852V72.6731H28.8249V64.8785C28.8249 62.7288 30.583 60.9811 32.7454 60.9811C34.9078 60.9811 36.6658 62.7288 36.6658 64.8785V72.6731ZM42.5465 68.7758H40.5863V72.6731H38.6261V60.9811H42.5465C44.7089 60.9811 46.467 62.7288 46.467 64.8785C46.467 67.0281 44.7089 68.7758 42.5465 68.7758ZM54.3079 62.9298H52.3477V70.7244H54.3079V72.6731H48.4272V70.7244H50.3874V62.9298H48.4272V60.9811H54.3079V62.9298Z" fill="#2F5BC1"/>
<path d="M42.5039 63.373H40.6289V67.1445H42.5039C43.5375 67.1445 44.3789 66.2983 44.3789 65.2588C44.3789 64.2193 43.5375 63.373 42.5039 63.373Z" fill="#2F5BC1"/>
<path d="M32.6602 63.373C31.3682 63.373 30.3164 64.2193 30.3164 65.2588V67.1445H35.0039V65.2588C35.0039 64.2193 33.9521 63.373 32.6602 63.373Z" fill="#2F5BC1"/>
<path d="M76.2002 30.7641C74.6462 30.7641 73.2595 29.8344 72.6675 28.396C72.0522 26.9196 72.3745 25.2719 73.4756 24.1699L73.5171 24.1283L72.134 22.7436L72.0925 22.7852C70.9915 23.8873 69.3484 24.209 67.9067 23.6072C66.4395 23.0005 65.5117 21.6109 65.5117 20.0538V20H63.5586V20.0538C63.5586 21.6109 62.6309 23.0005 61.1953 23.5937C59.7219 24.2078 58.0789 23.8861 56.979 22.784L56.9375 22.7424L55.5544 24.1283L55.5959 24.1699C56.697 25.2719 57.0193 26.9184 56.4175 28.3654C55.8096 29.8344 54.4241 30.7641 52.8701 30.7641H52.8164V31.7426H56.7227C56.7227 27.426 60.2273 23.9142 64.5352 23.9142C68.843 23.9142 72.3477 27.426 72.3477 31.7426C72.3477 33.6606 71.6519 35.4734 70.3945 36.9045V39.7301C71.0293 39.9037 71.6165 40.2242 72.0913 40.7013L72.1328 40.7429L73.5159 39.357L73.4744 39.3166C72.3733 38.2133 72.051 36.5669 72.6528 35.1211C73.2607 33.6508 74.6462 32.7212 76.2002 32.7212H76.2539V30.7641H76.2002Z" fill="#2F5BC1"/>
<path d="M67.7738 33.4229H41.5251L39.7511 26.3934C39.6409 25.9603 39.25 25.6582 38.7992 25.6582H26.609C26.0675 25.6582 25.6289 26.0938 25.6289 26.6288V48.6041C27.9199 46.4215 31.0269 45.07 34.4499 45.07C39.7389 45.07 44.4446 48.3142 46.3216 53.1052C47.7709 52.2984 49.431 51.8641 51.1119 51.8641C55.4917 51.8641 59.2088 54.7249 60.4609 58.6582H67.7738C68.3153 58.6582 68.7539 58.2227 68.7539 57.6876V34.3935C68.7539 33.8585 68.3153 33.4229 67.7738 33.4229Z" fill="#2F5BC1"/>
<path d="M65.0039 29.4287C63.9703 29.4287 63.1289 30.2749 63.1289 31.3144H66.8789C66.8789 30.2749 66.0375 29.4287 65.0039 29.4287Z" fill="#2F5BC1"/>
<path d="M64.5352 25.6582C61.1747 25.6582 58.4414 28.2695 58.4414 31.48H60.4727C60.4727 29.3393 62.2944 27.5988 64.5352 27.5988C66.7759 27.5988 68.5977 29.3393 68.5977 31.48C68.5977 31.5382 68.585 31.5952 68.5824 31.6546C69.3721 31.9191 70.0145 32.477 70.3572 33.2011C70.535 32.6504 70.6289 32.0719 70.6289 31.48C70.6289 28.2695 67.8956 25.6582 64.5352 25.6582Z" fill="#2F5BC1"/>
</g>
<defs>
<clipPath id="clip0_2910_135034">
<rect width="60" height="56.5714" fill="white" transform="translate(20 20)"/>
</clipPath>
</defs>
</svg>
