<svg width="110" height="110" viewBox="0 0 110 110" fill="none" xmlns="http://www.w3.org/2000/svg">
<g clip-path="url(#clip0_2818_38728)">
<path d="M87.9637 51.9688C87.3023 51.2388 86.5037 50.6762 85.6035 50.3112C84.7034 49.9325 83.7209 49.7351 82.6946 49.7351C81.7121 49.7351 80.7269 49.9175 79.7856 50.2275C78.858 50.5501 77.9441 51.0003 77.1592 51.6039L77.0742 51.6602L77.0467 51.6739L76.9755 51.7453C76.8903 51.8153 76.723 51.9416 76.4979 52.0965C76.1466 52.3628 75.6555 52.7002 75.0792 53.1079C72.7738 44.9037 66.9175 40.6746 57.8693 40.3028C58.0285 37.472 58.5142 34.7634 59.7492 34.1938C63.6022 32.4155 70.7128 32.7118 75.4523 28.5639C80.1918 24.4118 72.4912 17.3024 63.0068 24.4157C57.7706 28.3416 56.0608 35.0652 55.5778 40.3041C46.3815 40.6965 41.9302 46.5503 40.2891 50.2977C40.0777 50.3401 39.8801 50.3813 39.6853 50.4239C36.8448 51.099 34.6549 52.194 32.8849 53.4454C31.1147 54.6954 29.7646 56.0868 28.5706 57.2943C28.3319 57.5481 28.0932 57.8007 27.8407 58.0394L21.7976 63.3222C20.6587 64.3349 20 65.7673 20 67.2987V85.1162C20 86.6888 20.9276 88.1364 22.3602 88.7828C22.8926 89.0215 23.4552 89.1478 24.0451 89.1478C25.0139 89.1478 25.9552 88.7966 26.6742 88.1652L37.9426 78.5121L55.6876 81.7299C56.165 81.8135 56.6726 81.8699 57.164 81.8699C58.8928 81.8699 60.5505 81.3361 61.9556 80.3523C63.207 79.481 69.1075 75.3645 74.9391 71.2753C77.8755 69.2239 80.7846 67.1863 83.0733 65.5574C84.2123 64.7423 85.1946 64.0398 85.9549 63.4771C86.3473 63.2095 86.6712 62.9708 86.9236 62.7746C87.1899 62.5784 87.3738 62.4371 87.5138 62.3109V62.3246L87.5575 62.2834L87.5849 62.2684L87.6398 62.212C88.3863 61.5246 88.9626 60.737 89.3688 59.8657C89.7776 58.9944 89.9862 58.0394 89.9999 57.0843V56.9855C90 55.1591 89.2701 53.3889 87.9637 51.9688ZM85.3209 59.683C83.5811 61.1307 59.9879 77.5281 59.9879 77.5281C58.9067 78.287 57.5866 78.5819 56.294 78.3569L37.8164 74.9991C37.2676 74.9003 36.7187 75.0416 36.2987 75.4066L24.4405 85.5648C24.2566 85.7199 24.0041 85.7624 23.779 85.6637C23.5677 85.5648 23.4278 85.3398 23.4278 85.1161V67.2987C23.4278 66.7649 23.6527 66.2599 24.0589 65.9224L30.1871 60.5545C32.5747 58.1656 34.7947 55.4677 39.2901 54.0764C41.1727 53.5014 43.4505 53.1502 46.302 53.1502H61.758C63.893 53.1502 65.622 54.8778 65.622 57.0141C65.622 59.1494 63.893 60.8782 61.758 60.8782C61.758 60.8782 53.7061 60.8782 51.1374 60.8782L51.1786 60.9058C50.4184 60.8782 49.7872 61.4683 49.7597 62.2272C49.7324 62.986 50.3223 63.6323 51.0799 63.6461L51.1374 63.6323H65.5535C65.5535 63.6323 71.7639 59.557 75.8529 56.7467C77.4254 55.6792 78.6906 54.779 79.168 54.3865C81.0643 52.9664 83.9157 52.6152 85.4335 54.2878C86.9676 55.9454 86.9812 58.1518 85.3209 59.683Z" fill="#2F5BC1"/>
<path d="M44.3368 31.2306C48.8843 32.3696 52.6357 32.4162 55.0041 35.6764C55.0041 35.6764 55.8933 32.4162 56.4889 30.9342C56.4889 30.9342 51.1702 20.5209 43.7468 20.8597C37.2236 21.1561 37.2236 29.4537 44.3368 31.2306Z" fill="#2F5BC1"/>
</g>
<defs>
<clipPath id="clip0_2818_38728">
<rect width="70" height="70" fill="white" transform="translate(20 20)"/>
</clipPath>
</defs>
</svg>
