<svg width="100" height="95" viewBox="0 0 100 95" fill="none" xmlns="http://www.w3.org/2000/svg">
<g clip-path="url(#clip0_2908_125769)">
<path d="M64.6258 45.9839C64.6445 46.012 64.6633 46.0447 64.682 46.0774C65.0617 46.821 65.0945 47.6908 64.7711 48.4577C64.3679 49.2199 63.6461 49.7624 62.7976 49.9401L63.3742 51.371C63.4023 51.4458 63.4258 51.5207 63.4351 51.6002C63.4586 52.021 63.2804 52.4232 62.9617 52.6944C62.8914 52.7692 62.807 52.83 62.7179 52.8768L61.0867 53.7138L62.432 54.5603C62.5398 54.6304 62.6336 54.7193 62.7086 54.8221C62.9336 55.1495 62.9898 55.5657 62.8539 55.9445L62.5117 56.9031C62.3476 57.2585 62.3195 57.6607 62.4461 58.0348L62.6195 58.8905C62.8679 60.1438 62.3242 61.4251 61.2461 62.1172C60.1351 62.8327 58.4945 63.1694 56.3711 63.1273C53.8914 63.0711 50.7976 64.0017 49.5695 66.7701C48.7164 68.6921 48.857 71.2594 49.1242 73.0738C49.1992 73.5835 48.8429 74.0605 48.332 74.1353C47.8211 74.2101 28.3961 74.1447 28.0117 74.1447C27.4914 74.1447 27.0742 73.7238 27.0742 73.2094C27.0742 73.1018 27.0929 72.9943 27.1304 72.8914C28.0633 70.3989 28.5742 67.7708 28.6304 65.11C28.6961 60.242 27.0929 55.575 23.7226 50.8426C19.8695 45.4274 18.9273 38.4223 21.2617 32.5629C23.1601 27.7977 27.3414 24.1175 33.032 22.1955C39.7211 19.9368 47.4929 20.5401 52.8273 23.7247C57.4633 26.493 62.8586 34.3352 60.7445 40.2928L64.6258 45.9886V45.9839Z" fill="#2F5BC1"/>
<path d="M70.9 48.0181C70.5344 47.6534 70.5344 47.0595 70.9 46.6947C71.2656 46.33 71.8562 46.33 72.2219 46.6947C76.2438 50.7163 76.2438 57.2258 72.2219 61.2427C71.8562 61.6075 71.2609 61.6075 70.8953 61.2427C70.5297 60.878 70.5297 60.2887 70.8953 59.924C74.2234 56.6646 74.3313 51.3897 71.0641 48.0695C71.0266 48.0321 70.9938 47.9947 70.8953 48.0228L70.9 48.0181Z" fill="#2F5BC1"/>
<path d="M68.25 49.3435C68.6156 48.9788 69.2109 48.9788 69.5766 49.3435C72.1359 51.9015 72.1359 56.0447 69.5766 58.6026C69.2109 58.9674 68.6156 58.9674 68.25 58.6026C67.8844 58.2379 67.8844 57.6486 68.25 57.2839C70.0781 55.4555 70.0781 52.5 68.25 50.6716C67.8937 50.3068 67.8984 49.7176 68.25 49.3482V49.3435Z" fill="#2F5BC1"/>
<path d="M65.5969 51.985C65.9625 51.6202 66.5578 51.6202 66.9234 51.985C68.0203 53.0792 68.0203 54.8562 66.9234 55.9552C66.5578 56.3199 65.9625 56.3199 65.5969 55.9552C65.2312 55.5904 65.2312 54.9965 65.5969 54.6318C65.9625 54.267 65.9625 53.6731 65.5969 53.3084C65.2312 52.9436 65.2312 52.3497 65.5969 51.985Z" fill="#2F5BC1"/>
<path d="M77.1875 39.0706H74.7641L72.2281 41.6005C71.8625 41.9653 71.2672 41.9653 70.9016 41.6005L68.3656 39.0706H65.9422C64.3906 39.0706 63.1297 37.8127 63.1297 36.2649V29.718C63.1297 28.1702 64.3906 26.9122 65.9422 26.9122H77.1875C78.7391 26.9122 80 28.1702 80 29.718V36.2649C80 37.8127 78.7391 39.0706 77.1875 39.0706ZM78.125 29.718C78.125 29.2036 77.7031 28.7828 77.1875 28.7828H65.9375C65.4219 28.7828 65 29.2036 65 29.718V36.2649C65 36.7792 65.4219 37.2001 65.9375 37.2001H68.75C68.9984 37.2001 69.2375 37.2983 69.4109 37.476L71.5625 39.6224L73.7141 37.476C73.8922 37.2983 74.1266 37.2001 74.375 37.2001H77.1875C77.7031 37.2001 78.125 36.7792 78.125 36.2649V29.718Z" fill="#2F5BC1"/>
</g>
<defs>
<clipPath id="clip0_2908_125769">
<rect width="60" height="53.3333" fill="white" transform="matrix(-1 0 0 1 80 20.8334)"/>
</clipPath>
</defs>
</svg>
