<svg width="30" height="31" viewBox="0 0 30 31" fill="none" xmlns="http://www.w3.org/2000/svg">
<path d="M14.9985 30.536C23.2819 30.536 29.997 23.821 29.997 15.5375C29.997 7.25411 23.2819 0.539062 14.9985 0.539062C6.71505 0.539062 0 7.25411 0 15.5375C0 23.821 6.71505 30.536 14.9985 30.536Z" fill="#FFB724"/>
<path d="M19.836 9.21888H19.2324V8.6153C19.2324 8.28166 18.9625 8.01172 18.6288 8.01172C18.2952 8.01172 18.0252 8.28166 18.0252 8.6153V9.21888H11.9743V8.6153C11.9743 8.28166 11.7043 8.01172 11.3707 8.01172C11.0371 8.01172 10.7671 8.28166 10.7671 8.6153V9.21888H10.1635C8.82899 9.21888 7.7462 10.3017 7.74316 11.6393V12.2428H22.2624V11.6393C22.2624 10.3047 21.1796 9.22191 19.842 9.21888H19.836Z" fill="white"/>
<path d="M7.73438 20.3772C7.73438 21.7117 8.81717 22.7945 10.1548 22.7976H19.8363C21.1708 22.7976 22.2536 21.7148 22.2567 20.3772V13.7227H7.7374V20.3772H7.73438ZM14.9955 15.3575H19.5936C19.9576 15.3575 20.2518 15.6517 20.2518 16.0156C20.2518 16.3796 19.9576 16.6738 19.5936 16.6738H14.9955C14.6316 16.6738 14.3373 16.3796 14.3373 16.0156C14.3373 15.6517 14.6316 15.3575 14.9955 15.3575ZM14.9955 18.6392H19.5936C19.9576 18.6392 20.2518 18.9335 20.2518 19.2974C20.2518 19.6614 19.9576 19.9556 19.5936 19.9556H14.9955C14.6316 19.9556 14.3373 19.6614 14.3373 19.2974C14.3373 18.9335 14.6316 18.6392 14.9955 18.6392ZM10.3974 15.3575H12.3689C12.7329 15.3575 13.0271 15.6517 13.0271 16.0156C13.0271 16.3796 12.7329 16.6738 12.3689 16.6738H10.3974C10.0334 16.6738 9.73922 16.3796 9.73922 16.0156C9.73922 15.6517 10.0334 15.3575 10.3974 15.3575ZM10.3974 18.6392H12.3689C12.7329 18.6392 13.0271 18.9335 13.0271 19.2974C13.0271 19.6614 12.7329 19.9556 12.3689 19.9556H10.3974C10.0334 19.9556 9.73922 19.6614 9.73922 19.2974C9.73922 18.9335 10.0334 18.6392 10.3974 18.6392Z" fill="white"/>
</svg>
