<svg width="30" height="31" viewBox="0 0 30 31" fill="none" xmlns="http://www.w3.org/2000/svg">
<path d="M14.9985 30.536C23.2819 30.536 29.997 23.821 29.997 15.5375C29.997 7.25411 23.2819 0.539062 14.9985 0.539062C6.71505 0.539062 0 7.25411 0 15.5375C0 23.821 6.71505 30.536 14.9985 30.536Z" fill="#FFB724"/>
<path d="M23.3277 17.8764H20.8158L21.5415 15.67H23.3277C23.6934 15.67 23.9916 15.3683 23.9916 14.992C23.9916 14.6156 23.6962 14.3139 23.3277 14.3139H21.9859L22.8383 11.7196C23.0717 11.01 22.6976 10.2429 22.0028 10.0074C21.3108 9.7689 20.5598 10.151 20.3263 10.8606L19.1927 14.3168H17.2461L16.2166 10.5274C16.0619 9.95564 15.5696 9.57354 15.0183 9.53906C15.0183 9.53906 15.0155 9.53906 15.0127 9.53906C14.9873 9.53906 14.9592 9.53906 14.9339 9.53906C14.9086 9.53906 14.8804 9.53906 14.8551 9.53906C14.8551 9.53906 14.8523 9.53906 14.8495 9.53906C14.2982 9.57354 13.8059 9.95564 13.6512 10.5274L12.6217 14.3168H10.6751L9.54149 10.8606C9.30802 10.151 8.55696 9.7689 7.86498 10.0074C7.17018 10.2458 6.79606 11.0129 7.02954 11.7196L7.88186 14.3139H6.66385C6.29817 14.3139 6 14.6156 6 14.992C6 15.3683 6.29536 15.67 6.66385 15.67H8.3263L9.05204 17.8764H6.66667C6.30098 17.8764 6.00281 18.1781 6.00281 18.5545C6.00281 18.9308 6.29817 19.2325 6.66667 19.2325H9.49648L10.6076 22.6168C10.7876 23.1684 11.2968 23.5391 11.865 23.5391C11.8762 23.5391 11.8875 23.5391 11.8987 23.5391C12.481 23.5247 12.9845 23.1225 13.1392 22.5479L14.0394 19.2296H15.8368L16.737 22.5479C16.8917 23.1225 17.3952 23.5218 17.9775 23.5391C17.9887 23.5391 18 23.5391 18.0112 23.5391C18.5795 23.5391 19.0858 23.1684 19.2686 22.6168L20.3797 19.2325H23.3361C23.7018 19.2325 24 18.9308 24 18.5545C24 18.1781 23.7046 17.8764 23.3361 17.8764H23.3277ZM18.7454 15.6671L18.1238 17.5604L17.609 15.6671H18.7454ZM12.2475 15.6671L11.7328 17.5604L11.1111 15.6671H12.2475ZM14.3966 17.8764L14.9283 15.9199L15.4599 17.8764H14.3966Z" fill="white"/>
</svg>
