<svg width="30" height="31" viewBox="0 0 30 31" fill="none" xmlns="http://www.w3.org/2000/svg">
<g clip-path="url(#clip0_2990_14490)">
<path d="M14.993 0.957031C6.71475 0.957031 0 7.67178 0 15.9501C0 24.2283 6.71475 30.9431 14.993 30.9431C23.2713 30.9431 29.986 24.2283 29.986 15.9501C29.986 7.67178 23.2852 0.957031 14.993 0.957031Z" fill="#ED2274"/>
<path d="M15.3472 24.2365C12.5272 24.2365 10.4072 22.5965 10.4072 20.2765C10.4072 18.3765 11.5672 17.1365 12.9472 16.4165V16.3165C11.8072 15.4965 10.9872 14.3765 10.9872 12.7965C10.9872 10.4165 12.8872 8.89648 15.4472 8.89648C18.0672 8.89648 19.7472 10.4765 19.7472 12.8365C19.7472 14.2965 18.8272 15.5165 17.8472 16.2165V16.3165C19.2072 17.0565 20.3272 18.2565 20.3272 20.2765C20.3272 22.5165 18.3472 24.2365 15.3472 24.2365ZM16.2872 15.4965C17.0072 14.7365 17.3472 13.8965 17.3472 13.0165C17.3472 11.8165 16.6272 10.9565 15.3872 10.9565C14.3872 10.9565 13.5872 11.6165 13.5872 12.7965C13.5872 14.1965 14.7272 14.8765 16.2872 15.4965ZM15.4272 22.1565C16.6872 22.1565 17.5872 21.4565 17.5872 20.1765C17.5872 18.6365 16.2272 17.9965 14.3072 17.2165C13.5072 17.8565 12.9472 18.8565 12.9472 19.9565C12.9472 21.2965 14.0472 22.1565 15.4272 22.1565Z" fill="white"/>
</g>
<defs>
<clipPath id="clip0_2990_14490">
<rect width="30" height="30" fill="white" transform="translate(0 0.957031)"/>
</clipPath>
</defs>
</svg>
