<svg width="53" height="53" viewBox="0 0 53 53" fill="none" xmlns="http://www.w3.org/2000/svg">
<path d="M26.7469 52.4528C41.179 52.4528 52.8785 40.7532 52.8785 26.3211C52.8785 11.889 41.179 0.189453 26.7469 0.189453C12.3148 0.189453 0.615234 11.889 0.615234 26.3211C0.615234 40.7532 12.3148 52.4528 26.7469 52.4528Z" fill="#5C616E"/>
<path d="M39.3514 20.0938V14.3516C39.3514 12.6241 37.9402 11.2129 36.2127 11.2129H17.3318C15.6042 11.2129 14.193 12.6241 14.193 14.3516V20.0938C12.7575 20.3857 11.6626 21.651 11.6626 23.1838V24.449C11.6626 25.4953 12.5142 26.3469 13.5604 26.3469H14.193V35.7874C14.193 37.2959 15.2879 38.5854 16.7235 38.8774V39.5587C16.7235 40.6049 17.5751 41.4565 18.6213 41.4565H21.1517C22.198 41.4565 23.0496 40.6049 23.0496 39.5587V38.9261H30.6166V39.5587C30.6166 40.6049 31.4681 41.4565 32.5144 41.4565H35.0448C36.0911 41.4565 36.9427 40.6049 36.9427 39.5587V38.8774C38.3782 38.5854 39.4731 37.3202 39.4731 35.7874V26.3469H40.1057C41.1519 26.3469 42.0035 25.4953 42.0035 24.449V23.1838C42.0035 21.6753 40.9086 20.3857 39.4731 20.0938H39.3514ZM19.9595 35.2764C18.8403 35.2764 17.94 34.3761 17.94 33.2569C17.94 32.1377 18.8403 31.2374 19.9595 31.2374C21.0787 31.2374 21.979 32.1377 21.979 33.2569C21.979 34.3761 21.0787 35.2764 19.9595 35.2764ZM33.5606 35.2764C32.4414 35.2764 31.5411 34.3761 31.5411 33.2569C31.5411 32.1377 32.4414 31.2374 33.5606 31.2374C34.6799 31.2374 35.5801 32.1377 35.5801 33.2569C35.5801 34.3761 34.6799 35.2764 33.5606 35.2764ZM36.8453 26.9551C36.8453 28.0014 35.9937 28.853 34.9475 28.853H18.5726C17.5264 28.853 16.6748 28.0014 16.6748 26.9551V20.6534C16.6748 19.6071 17.5264 18.7555 18.5726 18.7555H34.9475C35.9937 18.7555 36.8453 19.6071 36.8453 20.6534V26.9551Z" fill="white"/>
</svg>
