<svg width="110" height="129" viewBox="0 0 110 129" fill="none" xmlns="http://www.w3.org/2000/svg">
<g clip-path="url(#clip0_2981_27150)">
<path fill-rule="evenodd" clip-rule="evenodd" d="M66.0537 112.192H8.02143C3.59702 112.192 0 108.592 0 104.169V8.56156C0 4.13906 3.59952 0.539063 8.02143 0.539063H20.9922C20.5423 1.66406 20.3173 2.93906 20.3173 4.21406V27.5341C20.3173 33.1591 24.8917 37.8066 30.5134 37.8066C36.1352 37.8066 40.7846 33.1566 40.7846 27.5341V16.1366C40.7846 12.8366 37.635 10.6616 34.5604 10.6616C31.4858 10.6616 28.3362 12.8366 28.3362 16.1366V26.4841C28.3362 27.3841 29.0861 28.0591 29.986 28.0591C30.8859 28.0591 31.5608 27.3841 31.5608 26.4841V16.1366C31.5608 14.6366 33.2856 13.8866 34.5604 13.8866C35.8352 13.8866 37.56 14.6366 37.56 16.1366V27.5341C37.56 31.4341 34.4104 34.5816 30.5134 34.5816C26.6164 34.5816 23.4669 31.4316 23.4669 27.5341V4.21406C23.4669 2.86406 23.8418 1.58906 24.5167 0.539063H36.5126C37.1125 1.51406 37.4875 2.63906 37.5625 3.83906C37.6375 4.66406 38.3874 5.33906 39.2123 5.33906C40.1121 5.26406 40.7871 4.51406 40.7121 3.61406C40.7121 2.56406 40.4871 1.51406 40.1121 0.539062H85.4711C89.8955 0.539062 93.4925 4.13906 93.4925 8.56156V84.7466C92.5176 84.1466 91.3928 83.8466 90.268 83.8466H76.0973C70.0981 83.8466 65.1513 88.7966 65.1513 94.7941V108.967C65.1513 110.092 65.4513 111.217 66.0512 112.192H66.0537ZM71.5255 112.192C71.1505 112.192 70.7006 112.117 70.3256 111.967C69.1258 111.442 68.3759 110.242 68.3759 108.967V94.7941C68.3759 90.5191 71.8254 87.0716 76.0973 87.0716H90.268C91.5428 87.0716 92.7426 87.8216 93.1926 89.0216C93.7175 90.2216 93.4175 91.5716 92.5176 92.5466L73.8476 111.219C73.1727 111.819 72.3478 112.194 71.523 112.194L71.5255 112.192ZM101.741 128.539H24.3667C19.9423 128.539 16.3453 124.939 16.3453 120.517V115.342H71.528C73.2527 115.342 74.9025 114.667 76.1023 113.467L94.7724 94.7941C95.9722 93.5941 96.6471 91.9441 96.6471 90.2191V16.8866H101.821C106.246 16.8866 109.843 20.4866 109.843 24.9091V120.442C109.843 124.867 106.168 128.539 101.746 128.539H101.741ZM78.1996 74.5491C79.0994 74.5491 79.8493 73.7991 79.8493 72.9741C79.8493 72.0741 79.0994 71.3241 78.1996 71.3241H25.1916C24.2918 71.3241 23.6168 72.0741 23.6168 72.9741C23.6168 73.7991 24.2918 74.5491 25.1916 74.5491H78.1996ZM78.1996 57.2291C79.0994 57.2291 79.8493 56.5541 79.8493 55.6541C79.8493 54.7541 79.0994 54.0791 78.1996 54.0791H25.1916C24.2918 54.0791 23.6168 54.7541 23.6168 55.6541C23.6168 56.5541 24.2918 57.2291 25.1916 57.2291H78.1996ZM78.1996 39.9066C79.0994 39.9066 79.8493 39.2316 79.8493 38.3316C79.8493 37.4316 79.0994 36.7566 78.1996 36.7566H53.7578C52.8579 36.7566 52.183 37.4316 52.183 38.3316C52.183 39.2316 52.8579 39.9066 53.7578 39.9066H78.1996ZM78.1996 22.6591C79.0994 22.6591 79.8493 21.9091 79.8493 21.0091C79.8493 20.1841 79.0994 19.4341 78.1996 19.4341H56.0825C55.1826 19.4341 54.5077 20.1841 54.5077 21.0091C54.5077 21.9091 55.1826 22.6591 56.0825 22.6591H78.1996Z" fill="#FFB724"/>
</g>
<defs>
<clipPath id="clip0_2981_27150">
<rect width="109.838" height="128" fill="white" transform="translate(0 0.539062)"/>
</clipPath>
</defs>
</svg>
