<svg width="82" height="83" viewBox="0 0 82 83" fill="none" xmlns="http://www.w3.org/2000/svg">
<g clip-path="url(#clip0_2990_13559)">
<path d="M48.0698 44.3477H45.2422V62.7262V64.1399H48.0698V44.3477Z" fill="white"/>
<path d="M56.5505 55.6575C57.3313 55.6575 57.9643 55.0246 57.9643 54.2438C57.9643 53.463 57.3313 52.8301 56.5505 52.8301C55.7697 52.8301 55.1367 53.463 55.1367 54.2438C55.1367 55.0246 55.7697 55.6575 56.5505 55.6575Z" fill="white"/>
<path d="M42.4135 42.9333V41.5195H39.5859V44.347V57.0706V61.3118H42.4135V42.9333Z" fill="white"/>
<path d="M29.6892 65.554C30.47 65.554 31.103 64.9211 31.103 64.1403C31.103 63.3595 30.47 62.7266 29.6892 62.7266C28.9084 62.7266 28.2754 63.3595 28.2754 64.1403C28.2754 64.9211 28.9084 65.554 29.6892 65.554Z" fill="white"/>
<path d="M51.604 27.5034L76.0043 3.1041C76.5946 2.51564 76.5963 1.5596 76.0078 0.969367C76.0078 0.969367 76.0061 0.9676 76.0043 0.965833C75.4052 0.396806 74.465 0.396806 73.8659 0.965833L50.0488 25.9447L51.604 27.5034Z" fill="white"/>
<path d="M55.1622 31.0573L80.1616 7.21822C80.4338 6.94078 80.5858 6.56614 80.5858 6.17559C80.5858 5.77445 80.4285 5.3892 80.1439 5.10646C79.5431 4.53743 78.6029 4.53743 78.0038 5.10646L53.6035 29.5022L55.1622 31.0573Z" fill="white"/>
<path d="M3.25172 41.5195C1.45621 41.5195 0 42.9757 0 44.7711V49.5778C0 51.3732 1.45621 52.8294 3.25172 52.8294C2.68974 49.0812 2.68974 45.2677 3.25172 41.5195Z" fill="white"/>
<path d="M45.234 25.143L42.9922 27.3848L56.5432 40.9352L58.785 38.6934L45.234 25.143Z" fill="white"/>
<path d="M33.9316 55.6569H36.7592V46.3457L33.9316 49.1732V55.6569Z" fill="white"/>
<path d="M25.0356 49.5891L20.3789 54.2438L22.6215 56.4863L36.1745 42.9339L33.9319 40.6914L25.0356 49.5891Z" fill="white"/>
<path d="M24.0346 23.7253C23.872 23.5539 23.7218 23.3719 23.5857 23.1792C10.3137 32.8015 7.35538 51.3585 16.978 64.6299C26.59 77.8889 45.1708 80.8507 58.4304 71.2373C71.7024 61.6151 74.6608 43.0581 65.0381 29.7867C64.4355 28.9561 63.7905 28.1556 63.1048 27.3922L57.1669 33.0595L61.7988 37.6912C62.3502 38.2426 62.3502 39.1385 61.7988 39.6899L57.5574 43.9311C57.006 44.4824 56.11 44.4824 55.5587 43.9311L40.0069 28.38C39.4556 27.8287 39.4556 26.9327 40.0069 26.3814L44.2483 22.1402C44.7997 21.5888 45.6957 21.5888 46.2471 22.1402L48.0514 23.9444L52.1514 19.6502C43.598 16.1813 33.9135 16.9093 25.975 21.6188C26.0033 21.6507 26.0139 21.6948 26.0457 21.7266L26.8728 22.5537C27.4259 23.1068 27.4259 24.0027 26.8728 24.5559C26.3214 25.1072 25.4272 25.109 24.874 24.5594L24.0364 23.7271L24.0346 23.7253ZM29.6898 68.3798C27.3482 68.3798 25.4484 66.4801 25.4484 64.1386C25.4484 61.7971 27.3482 59.8974 29.6898 59.8974C32.0314 59.8974 33.9312 61.7971 33.9312 64.1386C33.9312 66.4801 32.0314 68.3798 29.6898 68.3798ZM37.759 72.2075L35.7603 70.2088L38.5878 67.3814L40.5866 69.38L37.759 72.2075ZM55.5516 66.5526L52.724 63.7251L54.7228 61.7264L57.5503 64.5539L55.5516 66.5526ZM62.6206 43.3461L64.6193 45.3448L61.7917 48.1723L59.793 46.1736L62.6206 43.3461ZM56.5518 50.0013C58.8934 50.0013 60.7932 51.901 60.7932 54.2425C60.7932 56.584 58.8934 58.4837 56.5518 58.4837C54.2103 58.4837 52.3105 56.584 52.3105 54.2425C52.3105 51.901 54.2103 50.0013 56.5518 50.0013ZM34.3447 27.7951C34.8961 27.2437 35.7921 27.2437 36.3434 27.7951L40.5848 32.0363C41.1362 32.5876 41.1362 33.4836 40.5848 34.0349L35.9299 38.6897L36.8577 39.6174C37.0574 39.0625 37.5823 38.6932 38.1725 38.6897H43.8277C44.6088 38.6897 45.2415 39.3223 45.2415 40.1034V41.5171H49.4829C50.264 41.5171 50.8967 42.1498 50.8967 42.9309V65.5506C50.8967 66.3317 50.264 66.9643 49.4829 66.9643H43.8277C43.0466 66.9643 42.4139 66.3317 42.4139 65.5506V64.1368H38.1725C37.3914 64.1368 36.7587 63.5042 36.7587 62.7231V58.4819H32.5174C31.7362 58.4819 31.1036 57.8493 31.1036 57.0682V51.9982L23.6211 59.4804C23.0697 60.0317 22.1737 60.0317 21.6223 59.4804L17.3809 55.2392C16.8296 54.6878 16.8296 53.7919 17.3809 53.2405L22.0359 48.5858L18.7947 45.3448C18.2434 44.7934 18.2434 43.8975 18.7947 43.3461L34.3465 27.7951H34.3447ZM25.8619 31.2092L23.0344 28.3818L25.0331 26.3831L27.8607 29.2106L25.8619 31.2092Z" fill="white"/>
<path d="M67.2115 23.4772L65.1509 25.4423C77.1593 38.7879 76.076 59.3401 62.7316 71.3497C49.3854 83.3576 28.8324 82.2743 16.8222 68.9305C4.81377 55.5849 5.89709 35.0327 19.2415 23.0231C20.3072 22.0635 21.4364 21.1764 22.6187 20.3652V20.3122C22.6152 19.031 23.1242 17.8029 24.0325 16.8998L24.8614 16.071C24.9957 15.9226 25.107 15.7565 25.1901 15.5745C23.725 16.3096 22.3148 17.1455 20.9664 18.075L18.9623 16.071C18.183 15.2899 18.183 14.0247 18.9623 13.2436L19.7911 12.4148C21.6768 10.5292 21.6768 7.47377 19.7911 5.58997L18.9623 4.76117C18.4109 4.20982 17.5149 4.20982 16.9636 4.76117C16.4122 5.31253 16.4122 6.20848 16.9636 6.75984L17.7924 7.58864C18.5717 8.36972 18.5717 9.63501 17.7924 10.4161L16.9636 11.2449C15.0779 13.1305 15.0779 16.1859 16.9636 18.0697L18.6831 19.7891C3.55019 32.1187 1.27399 54.3796 13.6005 69.5154C25.9288 84.6494 48.1907 86.9255 63.3271 74.5978C78.4636 62.27 80.738 40.009 68.4097 24.8733C68.0227 24.3979 67.6233 23.9314 67.2115 23.4772Z" fill="white"/>
<path d="M28.2758 14.6586C28.2723 15.8108 27.8534 16.9224 27.0935 17.7883C35.6558 13.7309 45.5647 13.6125 54.2207 17.4666L56.276 15.3107C47.4822 11.0819 37.3276 10.6896 28.2316 14.2257C28.1415 13.1017 27.6555 12.045 26.8603 11.2462L26.0314 10.4174C25.48 9.86607 24.5841 9.86607 24.0327 10.4174C23.4813 10.9688 23.4813 11.8647 24.0327 12.4161L24.8615 13.2449C25.2344 13.6213 25.4447 14.1285 25.4465 14.6586C25.4376 14.9802 25.3493 15.2966 25.1902 15.5758C26.1781 15.0792 27.1925 14.6303 28.2316 14.2257C28.244 14.367 28.2741 14.5084 28.2741 14.6586H28.2758Z" fill="white"/>
<path d="M78.748 41.5195C79.0273 43.391 79.1686 45.2818 79.1722 47.1745C79.1722 49.0671 79.029 50.958 78.748 52.8294C80.5436 52.8294 81.9998 51.3732 81.9998 49.5778V44.7711C81.9998 42.9757 80.5436 41.5195 78.748 41.5195Z" fill="white"/>
<path d="M32.9299 37.6922L37.5866 33.0375L35.344 30.7949L21.791 44.3473L24.0336 46.5898L32.9299 37.6922Z" fill="white"/>
</g>
<defs>
<clipPath id="clip0_2990_13559">
<rect width="82" height="82" fill="white" transform="translate(0 0.539062)"/>
</clipPath>
</defs>
</svg>
