<svg width="102" height="107" viewBox="0 0 102 107" fill="none" xmlns="http://www.w3.org/2000/svg">
<path d="M39.0898 38.9166V82.2056C39.0898 82.3092 39.02 82.3965 38.919 82.4192L20.2672 86.6253C20.1295 86.6564 20 86.5528 20 86.4116V43.1226C20 43.019 20.0697 42.9318 20.1709 42.909L38.8227 38.703C38.9602 38.6718 39.0898 38.7756 39.0898 38.9166ZM60.2295 56.7668C54.1541 52.4855 47.9225 47.1272 45.8877 39.6926L41.499 38.703C41.3613 38.672 41.2319 38.7756 41.2319 38.9168V82.2057C41.2319 82.3093 41.3017 82.3967 41.4027 82.4193L60.0552 86.6253C60.1928 86.6564 60.3223 86.5528 60.3223 86.4116V56.9459C60.3225 56.8724 60.2896 56.8091 60.2295 56.7668ZM81.2872 38.703L76.8978 39.6926C74.8643 47.1222 68.6296 52.4892 62.5574 56.7668C62.4973 56.8093 62.4645 56.8724 62.4645 56.9459V86.4116C62.4645 86.5526 62.5941 86.6564 62.7318 86.6253L81.3836 82.4193C81.4847 82.3965 81.5545 82.3093 81.5545 82.2057V38.9168C81.5545 38.7756 81.4249 38.672 81.2872 38.703ZM66.9154 50.6289C65.2029 52.155 63.3888 53.5496 61.5204 54.8778C61.4432 54.9329 61.344 54.9329 61.2667 54.8778C59.3976 53.5485 57.5844 52.156 55.8708 50.6291C51.0567 46.3398 47.3724 41.354 47.3724 34.6507C47.3724 26.9194 53.6626 20.6309 61.3936 20.6309C69.1241 20.6309 75.4134 26.9201 75.4134 34.6507C75.4134 41.3537 71.7289 46.3395 66.9154 50.6289ZM69.4264 34.6507C69.4264 30.2223 65.822 26.6177 61.3936 26.6177C56.9642 26.6177 53.3586 30.2209 53.3586 34.6507C53.3586 39.0812 56.963 42.6857 61.3936 42.6857C65.8232 42.6857 69.4264 39.08 69.4264 34.6507Z" fill="#FF8201"/>
</svg>
