<svg width="100" height="100" viewBox="0 0 100 100" fill="none" xmlns="http://www.w3.org/2000/svg">
<path d="M72.3147 25.5562C72.3147 23.4333 70.5953 21.7139 68.4723 21.7139H28.1275C26.0046 21.7139 24.2852 23.4333 24.2852 25.5562V30.3592H72.3147V25.5562ZM30.0487 27.4774C29.5204 27.4774 29.0881 27.0451 29.0881 26.5168C29.0881 25.9885 29.5204 25.5562 30.0487 25.5562C30.577 25.5562 31.0093 25.9885 31.0093 26.5168C31.0093 27.0451 30.577 27.4774 30.0487 27.4774ZM34.8517 27.4774C34.3233 27.4774 33.8911 27.0451 33.8911 26.5168C33.8911 25.9885 34.3233 25.5562 34.8517 25.5562C35.38 25.5562 35.8122 25.9885 35.8122 26.5168C35.8122 27.0451 35.38 27.4774 34.8517 27.4774ZM39.6546 27.4774C39.1263 27.4774 38.694 27.0451 38.694 26.5168C38.694 25.9885 39.1263 25.5562 39.6546 25.5562C40.1829 25.5562 40.6152 25.9885 40.6152 26.5168C40.6152 27.0451 40.1829 27.4774 39.6546 27.4774ZM66.5512 27.4774H52.1423C51.614 27.4774 51.1817 27.0451 51.1817 26.5168C51.1817 25.9885 51.614 25.5562 52.1423 25.5562H66.5512C67.0795 25.5562 67.5118 25.9885 67.5118 26.5168C67.5118 27.0451 67.0795 27.4774 66.5512 27.4774ZM79.3943 60.858L76.6374 59.7533C76.4068 58.9752 76.0994 58.2163 75.7152 57.5055L76.8775 54.787C77.0312 54.422 76.9544 54.0089 76.6758 53.7304L74.8795 51.9341C74.6009 51.6555 74.1783 51.5786 73.8228 51.7323L71.1044 52.8947C70.3935 52.5104 69.6347 52.1934 68.8566 51.9725L67.7519 49.2156C67.6078 48.8506 67.2524 48.6104 66.8586 48.6104H64.313C63.9191 48.6104 63.5637 48.8506 63.4196 49.2156L62.315 51.9725C61.5369 52.203 60.778 52.5104 60.0672 52.8947L57.3487 51.7323C56.9837 51.5786 56.5706 51.6555 56.2921 51.9341L54.4957 53.7304C54.2172 54.0089 54.1403 54.4316 54.294 54.787L55.4563 57.5055C55.0721 58.2163 54.7551 58.9752 54.5342 59.7533L51.7773 60.858C51.4123 61.002 51.1721 61.3575 51.1721 61.7513V64.2969C51.1721 64.6907 51.4123 65.0461 51.7773 65.1902L54.5342 66.2949C54.7647 67.073 55.0721 67.8319 55.4563 68.5427L54.294 71.2612C54.1403 71.6262 54.2172 72.0392 54.4957 72.3178L56.2921 74.1141C56.5706 74.3927 56.9933 74.4695 57.3487 74.3158L60.0672 73.1535C60.778 73.5378 61.5369 73.8548 62.315 74.0757L63.4196 76.8326C63.5637 77.1976 63.9191 77.4378 64.313 77.4378H66.8586C67.2524 77.4378 67.6078 77.1976 67.7519 76.8326L68.8566 74.0757C69.6347 73.8451 70.3935 73.5378 71.1044 73.1535L73.8228 74.3158C74.1879 74.4695 74.6009 74.3927 74.8795 74.1141L76.6758 72.3178C76.9544 72.0392 77.0312 71.6166 76.8775 71.2612L75.7152 68.5427C76.0994 67.8319 76.4164 67.073 76.6374 66.2949L79.3943 65.1902C79.7593 65.0461 79.9994 64.6907 79.9994 64.2969V61.7513C79.9994 61.3575 79.7593 61.002 79.3943 60.858ZM65.5906 69.7434C61.8731 69.7434 58.8664 66.7368 58.8664 63.0193C58.8664 59.3018 61.8731 56.2952 65.5906 56.2952C69.3081 56.2952 72.3147 59.3018 72.3147 63.0193C72.3147 66.7368 69.3081 69.7434 65.5906 69.7434ZM42.0561 40.9257H40.6152V38.0439H42.0561C42.8534 38.0439 43.497 38.6875 43.497 39.4848C43.497 40.2821 42.8534 40.9257 42.0561 40.9257ZM33.7086 41.8863H32.162L32.9401 39.821L33.7182 41.8863H33.7086ZM51.076 66.9673C49.981 66.5351 49.2509 65.4688 49.2605 64.2873V61.7513C49.2605 60.5698 49.981 59.5035 51.076 59.0713L52.9972 58.3028C53.1029 58.0146 53.2278 57.7264 53.3526 57.4479L52.5361 55.5459C52.0655 54.47 52.3056 53.202 53.1413 52.3759L54.9472 50.57C55.4852 50.0321 56.2248 49.7247 56.9837 49.7343C57.3775 49.7343 57.7618 49.8112 58.1172 49.9649L60.0191 50.7814C60.2977 50.6565 60.5859 50.5316 60.8741 50.4259L61.6425 48.5048C62.0748 47.4097 63.1411 46.6796 64.3226 46.6892H66.8586C68.0401 46.6892 69.1063 47.4097 69.5386 48.5048L70.3071 50.4259C70.5953 50.5316 70.8834 50.6565 71.162 50.7814L72.3147 50.2818V32.2804H24.2852V63.9799C24.2852 66.1028 26.0046 67.8222 28.1275 67.8222H53.0356C53.0356 67.8222 53.0068 67.7646 52.9972 67.7358L51.076 66.9673ZM51.1817 50.5316C51.1817 51.0599 50.7494 51.4922 50.2211 51.4922H45.4182C44.8898 51.4922 44.4576 51.0599 44.4576 50.5316C44.4576 50.0033 44.8898 49.571 45.4182 49.571H50.2211C50.7494 49.571 51.1817 50.0033 51.1817 50.5316ZM47.3393 37.0833C47.3393 36.555 47.7716 36.1227 48.2999 36.1227C48.8283 36.1227 49.2605 36.555 49.2605 37.0833V44.7681C49.2605 45.2964 48.8283 45.7286 48.2999 45.7286C47.7716 45.7286 47.3393 45.2964 47.3393 44.7681V37.0833ZM38.694 37.0833C38.694 36.555 39.1263 36.1227 39.6546 36.1227H42.0561C43.91 36.1227 45.4182 37.6309 45.4182 39.4848C45.4182 41.3387 43.91 42.8469 42.0561 42.8469H40.6152V44.7681C40.6152 45.2964 40.1829 45.7286 39.6546 45.7286C39.1263 45.7286 38.694 45.2964 38.694 44.7681V37.0833ZM29.1457 44.4318L32.0275 36.7471C32.21 36.2476 32.7672 35.9979 33.2667 36.1804C33.526 36.2764 33.7278 36.4878 33.8334 36.7471L36.7152 44.4318C36.8977 44.9314 36.648 45.4789 36.1485 45.671C35.6489 45.8535 35.1014 45.6038 34.9093 45.1043L34.4194 43.8075H31.432L30.9421 45.1043C30.7595 45.6038 30.2024 45.8535 29.7029 45.671C29.2034 45.4885 28.9536 44.9314 29.1361 44.4318H29.1457ZM30.0487 49.571H41.5758C42.1041 49.571 42.5364 50.0033 42.5364 50.5316C42.5364 51.0599 42.1041 51.4922 41.5758 51.4922H30.0487C29.5204 51.4922 29.0881 51.0599 29.0881 50.5316C29.0881 50.0033 29.5204 49.571 30.0487 49.571ZM41.5758 63.0193H30.0487C29.5204 63.0193 29.0881 62.587 29.0881 62.0587C29.0881 61.5304 29.5204 61.0981 30.0487 61.0981H41.5758C42.1041 61.0981 42.5364 61.5304 42.5364 62.0587C42.5364 62.587 42.1041 63.0193 41.5758 63.0193ZM48.2999 57.2557H30.0487C29.5204 57.2557 29.0881 56.8235 29.0881 56.2952C29.0881 55.7668 29.5204 55.3346 30.0487 55.3346H48.2999C48.8283 55.3346 49.2605 55.7668 49.2605 56.2952C49.2605 56.8235 48.8283 57.2557 48.2999 57.2557Z" fill="#2F5BC1"/>
</svg>
