<svg width="100" height="100" viewBox="0 0 100 100" fill="none" xmlns="http://www.w3.org/2000/svg">
<g clip-path="url(#clip0_2818_39106)">
<path d="M32.4658 69.4155H67.5342V53.5732C67.5342 43.8918 59.6835 36.0391 50 36.0391C40.3143 36.0391 32.4658 43.8919 32.4658 53.5732V69.4155ZM42.6001 40.79C43.4333 40.3073 44.3177 39.9014 45.2448 39.5851C45.8387 39.3843 46.4839 39.7005 46.6868 40.2944C46.8896 40.8883 46.5714 41.5335 45.9754 41.7364C45.1956 42.0034 44.448 42.3452 43.7429 42.7554C43.1982 43.0716 42.5038 42.8879 42.1899 42.343C41.8738 41.7983 42.0575 41.1063 42.6001 40.79ZM35.2259 53.5732C35.2259 50.5783 36.1252 47.7798 37.6655 45.447C38.0115 44.9256 38.7166 44.7804 39.242 45.1265C39.7654 45.4725 39.9085 46.1776 39.5625 46.7009C38.2572 48.6769 37.4988 51.0353 37.4988 53.5732V65.519C37.4988 66.1471 36.9904 66.6556 36.3623 66.6556C35.7342 66.6556 35.2258 66.1471 35.2258 65.519V53.5732H35.2259Z" fill="#2F5BC1"/>
<path d="M70.3498 73.0586H29.6503C28.9325 73.0586 28.3514 73.6396 28.3514 74.3574V80.8516H71.6486V74.3574C71.6486 73.6396 71.0676 73.0586 70.3498 73.0586Z" fill="#2F5BC1"/>
<path d="M51.1514 27.0162L51.5936 19.1484H48.4084L48.8507 27.0162H51.1514Z" fill="#2F5BC1"/>
<path d="M37.4305 30.0755L33.8801 23.043L31.12 24.6345L35.4373 31.227L37.4305 30.0755Z" fill="#2F5BC1"/>
<path d="M18.8922 38.0293L25.9268 41.5796L27.0782 39.5887L20.4858 35.2734L18.8922 38.0293Z" fill="#2F5BC1"/>
<path d="M15 55.7415L22.8656 55.2994V52.9987L15 52.5586V55.7415Z" fill="#2F5BC1"/>
<path d="M77.1344 52.9987L77.1322 55.2994L85 55.7415V52.5586L77.1344 52.9987Z" fill="#2F5BC1"/>
<path d="M79.5142 35.2734L72.9218 39.5887L74.0732 41.5796L81.1078 38.0293L79.5142 35.2734Z" fill="#2F5BC1"/>
<path d="M68.8779 24.6345L66.1222 23.043L62.5697 30.0776L64.5628 31.227L68.8779 24.6345Z" fill="#2F5BC1"/>
</g>
<defs>
<clipPath id="clip0_2818_39106">
<rect width="60" height="60" fill="white" transform="translate(20 20)"/>
</clipPath>
</defs>
</svg>
