<svg width="30" height="31" viewBox="0 0 30 31" fill="none" xmlns="http://www.w3.org/2000/svg">
<path d="M4.39225 4.93131C-1.46459 10.7912 -1.46459 20.2877 4.39528 26.1445C10.2552 32.0014 19.7517 32.0014 25.6085 26.1415C28.4202 23.3268 30.0004 19.5112 30.0004 15.5349C30.0004 11.5555 28.4202 7.74296 25.6055 4.93131C19.7456 -0.925526 10.2491 -0.925526 4.39225 4.93435V4.93131ZM22.718 21.4312V21.4251L21.9567 22.1803C20.974 23.1752 19.5424 23.5846 18.1805 23.2601C16.8096 22.8931 15.5054 22.3077 14.3195 21.5312C13.2185 20.8276 12.1963 20.0026 11.2743 19.0775C10.425 18.2343 9.66371 17.3123 8.99947 16.3174C8.27153 15.2498 7.69829 14.0851 7.28882 12.8567C6.82173 11.416 7.20996 9.83274 8.28973 8.77117L9.17842 7.88248C9.42713 7.63377 9.82749 7.63377 10.0762 7.88248L12.8848 10.6911C13.1335 10.9398 13.1335 11.3402 12.8848 11.5889L11.2348 13.2389C10.7617 13.706 10.701 14.4521 11.0953 14.9889C11.6928 15.8079 12.351 16.5783 13.0698 17.2941C13.8706 18.0978 14.7411 18.8288 15.6692 19.4779C16.206 19.854 16.934 19.7903 17.398 19.3292L18.9934 17.7096C19.2421 17.4609 19.6425 17.4609 19.8912 17.7096L22.7059 20.5303C22.9546 20.7791 22.9546 21.1794 22.7059 21.4281L22.718 21.4312Z" fill="#FFB724"/>
</svg>
