<svg width="100" height="100" viewBox="0 0 100 100" fill="none" xmlns="http://www.w3.org/2000/svg">
<g clip-path="url(#clip0_3192_82264)">
<g clip-path="url(#clip1_3192_82264)">
<path d="M79.9876 65.3624L77.9567 45.544H73.8055V41.2175C73.8055 35.5807 70.5044 31.6445 65.7777 31.6445C61.051 31.6445 57.7499 35.5812 57.7499 41.2175V45.544H55.0683V45.5114C55.0683 40.1605 51.9302 36.4237 47.4369 36.4237C45.242 36.4237 43.3741 37.3201 42.034 38.8558C41.2411 34.5147 38.2542 31.6445 34.2221 31.6445C31.9337 31.6445 29.8748 32.5995 28.4256 34.3342C26.9872 36.0561 26.1948 38.4943 26.1948 41.1958L26.1239 45.544H22.0436L20.0122 65.3624C19.947 65.9942 20.1454 66.6222 20.5565 67.0862C20.9502 67.5313 21.4855 67.777 22.0625 67.777H32.0806L34.0681 48.391C34.1229 47.8542 34.5666 47.4469 35.0968 47.4469H39.8046V49.5534H36.0286L34.122 68.1513C34.1101 68.2713 34.1139 68.3909 34.122 68.509C34.1257 68.5515 34.1281 68.5931 34.1338 68.6366C34.1867 69.0401 34.3507 69.4219 34.6195 69.7253C34.9791 70.1312 35.4663 70.3552 35.9922 70.3552H58.8816C59.408 70.3552 59.8952 70.1317 60.2543 69.7258C60.5232 69.4219 60.6876 69.0392 60.7401 68.6352C60.7453 68.5931 60.7481 68.5525 60.7509 68.5114C60.7594 68.3923 60.7637 68.2723 60.7509 68.1513L58.8447 49.5534H55.0683V47.4469H59.7766C60.3063 47.4469 60.7505 47.8542 60.8053 48.391L62.7927 67.777H77.9373C78.5138 67.777 79.0492 67.5318 79.4433 67.0862C79.8549 66.6222 80.0529 65.9942 79.9876 65.3624ZM42.3917 45.5114C42.3917 41.5904 44.3721 39.0571 47.4369 39.0571C50.5017 39.0571 52.4821 41.5904 52.4821 45.5114V49.5525H42.3917V45.5114ZM28.7105 45.544L28.7814 41.2175C28.7814 37.0021 30.9168 34.2779 34.2221 34.2779C37.5275 34.2779 39.6638 37.0021 39.6638 41.2175V45.544H28.7105ZM53.4343 59.4643L51.1789 61.7598L51.7119 65.008C51.7771 65.4045 51.6146 65.8042 51.2937 66.0381C51.1141 66.1681 50.9034 66.2352 50.6917 66.2352C50.5235 66.2352 50.3548 66.1936 50.2007 66.109L47.4374 64.5922L44.674 66.109C44.3262 66.2994 43.9024 66.273 43.5811 66.0386C43.2597 65.8042 43.0972 65.4045 43.1624 65.0085L43.6954 61.7603L41.4391 59.4657C41.1631 59.1845 41.0653 58.7682 41.1882 58.3907C41.3106 58.0127 41.6319 57.7372 42.0179 57.6781L45.1149 57.208L46.5056 54.2679C46.6776 53.9031 47.04 53.672 47.4374 53.672C47.8353 53.672 48.1972 53.9035 48.3697 54.2679L49.7589 57.207L52.8559 57.6772C53.2424 57.7358 53.5637 58.0113 53.6857 58.3893C53.8076 58.7668 53.7107 59.1831 53.4343 59.4643ZM60.3365 45.544V41.2175C60.3365 37.0021 62.4724 34.2779 65.7777 34.2779C69.0826 34.2779 71.2189 37.0021 71.2189 41.2175V45.544H60.3365Z" fill="#2F5BC1"/>
<path d="M26.4907 33.9813L24.3273 29.654L20 27.4907L24.3273 25.3273L26.4907 21L28.654 25.3273L32.9813 27.4907L28.654 29.654L26.4907 33.9813Z" fill="#2F5BC1"/>
<path d="M75 80L73.6668 77.3332L71 76L73.6668 74.6668L75 72L76.3332 74.6668L79 76L76.3332 77.3332L75 80Z" fill="#2F5BC1"/>
</g>
</g>
<defs>
<clipPath id="clip0_3192_82264">
<rect width="60" height="60" fill="white" transform="translate(20 20)"/>
</clipPath>
<clipPath id="clip1_3192_82264">
<rect width="60" height="60" fill="white" transform="translate(20 20)"/>
</clipPath>
</defs>
</svg>
