<svg width="71" height="71" viewBox="0 0 71 71" fill="none" xmlns="http://www.w3.org/2000/svg">
<g clip-path="url(#clip0_3400_22961)">
<path d="M13.7266 14.334H28.1504C28.1504 16.9725 25.998 19.1113 23.3429 19.1113H18.5354C15.8803 19.1113 13.7279 16.9725 13.7279 14.334H13.7266Z" fill="#2F5BC1"/>
<path d="M28.1484 14.334H42.5723C42.5723 16.9725 40.4199 19.1113 37.7648 19.1113H32.9573C30.3022 19.1113 28.1498 16.9725 28.1498 14.334H28.1484Z" fill="#2F5BC1"/>
<path d="M42.5703 14.334H56.9941C56.9941 16.9725 54.8418 19.1113 52.1866 19.1113H47.3792C44.7241 19.1113 42.5717 16.9725 42.5717 14.334H42.5703Z" fill="#2F5BC1"/>
<path d="M70.2158 14.3334C70.213 15.5997 69.7075 16.815 68.81 17.7137C68.1992 18.3125 67.4402 18.7405 66.6105 18.9566C66.2186 19.0626 65.8141 19.1149 65.4083 19.1121H61.803C59.1479 19.1121 56.9956 16.9733 56.9956 14.3348H65.4097C66.0731 14.3348 66.6119 13.7994 66.6119 13.1401C66.6119 12.4808 66.0731 11.9454 65.4097 11.9454H57.8141L55.7102 6.72627C55.551 6.32987 55.1909 6.04634 54.7656 5.98579C54.3404 5.92523 53.9138 6.09314 53.6479 6.4276C53.382 6.76205 53.3155 7.2135 53.4748 7.60989L55.2172 11.9454H43.7754V9.55606C43.7754 8.89678 43.2366 8.36138 42.5731 8.36138C41.9097 8.36138 41.3709 8.89678 41.3709 9.55606V11.9454H29.3515V9.55606C29.3515 8.89678 28.8128 8.36138 28.1493 8.36138C27.4859 8.36138 26.9471 8.89678 26.9471 9.55606V11.9454H15.5053L17.2477 7.60989C17.4928 6.99603 17.1923 6.30097 16.5745 6.05735C15.9568 5.81374 15.2574 6.11241 15.0122 6.72627L12.9083 11.9454H5.31277C4.64933 11.9454 4.11055 12.4808 4.11055 13.1401C4.11055 13.7994 4.64933 14.3348 5.31277 14.3348H13.7269C13.7269 16.9733 11.5745 19.1121 8.91941 19.1121H5.31415C4.90834 19.1162 4.5039 19.0639 4.11194 18.9566C3.2823 18.7405 2.5233 18.3125 1.91249 17.7137C1.01222 16.815 0.506676 15.5997 0.503906 14.3334C0.506676 13.5544 0.731053 12.7919 1.15349 12.1354L7.15072 2.77061C8.24628 1.04466 10.1576 0 12.2103 0H58.5094C60.5634 0 62.4734 1.04466 63.569 2.77061L69.5662 12.1354C69.9886 12.7919 70.213 13.5544 70.2158 14.3334Z" fill="#2F5BC1"/>
<path d="M2.90834 45.3867H67.8127C69.141 45.3867 70.2172 46.4561 70.2172 47.7761C70.2172 49.096 69.141 50.1654 67.8127 50.1654H2.90834C1.58008 50.1641 0.503906 49.0946 0.503906 47.7761C0.503906 46.4561 1.58008 45.3867 2.90834 45.3867Z" fill="#2F5BC1"/>
<path d="M67.2134 52.5527H3.51126C3.17928 52.5527 2.91016 52.8202 2.91016 53.1501V62.7048C2.91016 63.0347 3.17928 63.3021 3.51126 63.3021H67.2134C67.5454 63.3021 67.8145 63.0347 67.8145 62.7048V53.1501C67.8145 52.8202 67.5454 52.5527 67.2134 52.5527Z" fill="#2F5BC1"/>
<path d="M8.91685 21.4987V42.4001C8.91685 42.7304 8.64815 42.9974 8.31574 42.9974H4.71048C4.37807 42.9974 4.10938 42.7304 4.10938 42.4001V21.4023C4.50688 21.4657 4.90854 21.4973 5.31159 21.4973H8.91685V21.4987Z" fill="#2F5BC1"/>
<path d="M66.6122 21.4043V42.402C66.6122 42.7324 66.3435 42.9994 66.0111 42.9994H62.4058C62.0734 42.9994 61.8047 42.7324 61.8047 42.402V21.5006H65.4099C65.813 21.5006 66.2147 21.469 66.6122 21.4057V21.4043Z" fill="#2F5BC1"/>
<path d="M14.9288 35.832H36.5631C37.2265 35.832 37.7653 36.3674 37.7653 37.0267V42.4014C37.7653 42.7317 37.4966 42.9987 37.1642 42.9987H14.3277C13.9953 42.9987 13.7266 42.7317 13.7266 42.4014V37.0267C13.7266 36.3674 14.2653 35.832 14.9288 35.832Z" fill="#2F5BC1"/>
<path d="M24.5437 23.8887H14.9288C14.2648 23.8887 13.7266 24.4235 13.7266 25.0834V27.4713C13.7266 28.1311 14.2648 28.666 14.9288 28.666H24.5437C25.2077 28.666 25.7459 28.1311 25.7459 27.4713V25.0834C25.7459 24.4235 25.2077 23.8887 24.5437 23.8887Z" fill="#2F5BC1"/>
<path d="M21.5384 29.8594H17.9331C17.6012 29.8594 17.332 30.1268 17.332 30.4567V34.0394C17.332 34.3693 17.6012 34.6367 17.9331 34.6367H21.5384C21.8704 34.6367 22.1395 34.3693 22.1395 34.0394V30.4567C22.1395 30.1268 21.8704 29.8594 21.5384 29.8594Z" fill="#2F5BC1"/>
<path d="M48.582 33.4434L49.7178 42.475C49.7552 42.7751 50.0142 43.0008 50.3189 42.998H54.0668C54.3715 43.0008 54.6305 42.7751 54.6679 42.475L55.7939 33.4434H48.582Z" fill="#2F5BC1"/>
<path d="M2.90834 65.6914H67.8127C69.141 65.6914 70.2172 66.7608 70.2172 68.0808C70.2172 69.4007 69.141 70.4701 67.8127 70.4701H2.90834C1.58008 70.4687 0.503906 69.3993 0.503906 68.0794C0.503906 66.7608 1.58008 65.6914 2.90834 65.6914Z" fill="#2F5BC1"/>
</g>
<defs>
<clipPath id="clip0_3400_22961">
<rect width="69.7119" height="70.4696" fill="white" transform="translate(0.503906)"/>
</clipPath>
</defs>
</svg>
