<svg width="100" height="100" viewBox="0 0 100 100" fill="none" xmlns="http://www.w3.org/2000/svg">
<g clip-path="url(#clip0_2910_134411)">
<g clip-path="url(#clip1_2910_134411)">
<path d="M21.6769 81.6972H26.491C27.4172 81.6972 28.1679 80.9471 28.1679 80.0216V64.6629C28.1679 63.7374 27.4172 62.9873 26.491 62.9873H21.6769C20.7507 62.9885 20 63.7386 20 64.6641V80.0229C20 80.9484 20.7507 81.6984 21.6769 81.6984V81.6972Z" fill="#2F5BC1"/>
<path d="M71.1919 67.7656L70.0964 68.2631C69.9968 68.3627 69.8972 68.3627 69.8972 68.3627L56.0537 74.632L55.755 74.7316C55.6554 74.7316 55.6554 74.8311 55.5558 74.8311C55.1574 75.0301 54.759 75.1296 54.2611 75.1296H40.6168C41.1147 73.9355 42.3099 73.1393 43.6046 73.1393H54.2611C54.4602 73.1393 54.6594 73.1393 54.8586 73.0398H55.1574C55.257 72.9403 55.3566 72.9403 55.4562 72.8408C55.7475 72.5497 56.2504 71.8357 55.7251 71.006C55.3827 70.4649 54.7715 70.1539 54.1303 70.1539H46.0932C45.396 70.1539 44.5993 69.9549 43.9021 69.6563L36.9306 65.9743C36.5322 65.7753 36.1338 65.6758 35.7354 65.6758H32.043C31.057 65.6758 30.2578 66.4744 30.2578 67.4596V77.6237C30.2578 78.6089 31.057 79.4075 32.043 79.4075H34.142C34.6399 79.4075 35.2375 79.507 35.7354 79.706L46.6907 83.6866C48.085 84.1842 49.6785 84.0846 50.9732 83.388L73.0829 71.7449C73.7801 71.3468 74.1785 70.7498 74.1785 69.9536C74.1785 69.5556 74.0789 69.1575 73.8797 68.859C73.1825 67.6648 72.087 67.3663 71.1907 67.7643L71.1919 67.7656Z" fill="#2F5BC1"/>
<path d="M39.1203 48.8589H66.608V46.8686C66.608 46.57 66.4088 46.371 66.2096 46.371H52.0674C51.0715 46.371 50.1751 45.9729 49.478 45.2763L46.8885 42.689C46.5898 42.3904 46.0918 42.1914 45.6934 42.1914H34.3398C34.1406 42.1914 33.9414 42.3904 33.9414 42.689V62.4923L36.9292 50.5506C37.1284 49.5555 38.0247 48.8589 39.1203 48.8589Z" fill="#2F5BC1"/>
<path d="M36.1367 38.1107V40.3995H45.4985C46.3948 40.3995 47.2912 40.7975 47.9883 41.3946L50.5778 43.982C50.9761 44.38 51.4741 44.5791 51.9721 44.5791H66.1143C67.1102 44.5791 67.6082 44.7781 68.0066 45.0766C68.3054 45.3752 68.405 45.9723 68.405 46.8679V49.0572H70.2972V42.2903C70.2972 41.8922 69.9985 41.5937 69.6997 41.5937H54.4619C53.5655 41.5937 52.6692 41.1956 51.9721 40.5985L49.283 38.0111C48.8847 37.6131 48.3867 37.4141 47.8887 37.4141H36.7343C36.4355 37.4141 36.1367 37.7126 36.1367 38.1107Z" fill="#2F5BC1"/>
<path d="M38.8257 51.048L35.7383 63.4872C36.4354 63.4872 37.1326 63.6863 37.7301 63.9848L44.7017 67.6668C45.1001 67.8658 45.4984 67.9654 45.8968 67.9654H54.2626C56.2545 67.9654 57.848 69.5576 57.848 71.5479V71.6474L68.7037 66.7712L72.4882 51.247C72.4882 51.1475 72.4882 51.048 72.3886 51.048C72.3886 50.9484 72.289 50.9484 72.1894 50.9484H39.1245C39.0249 50.8489 38.9253 50.9484 38.8257 51.048ZM56.2545 54.8295H67.2098C67.8073 54.8295 68.2057 55.3271 68.2057 55.8246C68.2057 56.4217 67.7077 56.8198 67.2098 56.8198H56.2545C55.6569 56.8198 55.2586 56.3222 55.2586 55.8246C55.159 55.2276 55.6569 54.8295 56.2545 54.8295ZM53.8643 59.0091H65.8155C66.413 59.0091 66.8114 59.5067 66.8114 60.0042C66.8114 60.6013 66.413 60.9994 65.8155 60.9994H53.8643C53.2667 60.9994 52.8683 60.5018 52.8683 60.0042C52.8683 59.5067 53.2667 59.0091 53.8643 59.0091Z" fill="#2F5BC1"/>
<path d="M52.0682 25.8713C52.6657 25.8713 53.1637 25.3738 53.1637 24.7767V21.0947C53.2633 20.4976 52.7653 20 52.0682 20C51.4706 20 50.9727 20.4976 50.9727 21.0947V24.7767C50.9727 25.3738 51.4706 25.8713 52.0682 25.8713Z" fill="#2F5BC1"/>
<path d="M37.5292 29.056C37.7284 29.3545 38.1268 29.6531 38.5251 29.6531C38.7243 29.6531 38.9235 29.5535 39.1227 29.5535C39.4215 29.454 39.5211 29.1555 39.6207 28.8569C39.7203 28.5584 39.6207 28.2599 39.5211 28.0608L37.6288 24.8764C37.4296 24.5778 37.0312 24.2793 36.6329 24.2793C36.4337 24.2793 36.2345 24.3788 36.0353 24.3788C35.7365 24.4783 35.6369 24.7769 35.5373 25.0754C35.4378 25.374 35.5373 25.6725 35.6369 25.8715L37.5292 29.056Z" fill="#2F5BC1"/>
<path d="M29.0615 37.5127L25.8745 35.622C25.6753 35.5225 25.4761 35.5225 25.2769 35.5225C24.8786 35.5225 24.4802 35.7215 24.281 36.1195C23.9822 36.6171 24.1814 37.3137 24.6794 37.6123L27.8664 39.503C28.0656 39.6025 28.2647 39.6025 28.4639 39.6025C28.8623 39.6025 29.2607 39.4035 29.4599 39.0055C29.7586 38.4084 29.5595 37.8113 29.0615 37.5127Z" fill="#2F5BC1"/>
<path d="M79.8568 36.0219C79.6576 35.7233 79.2593 35.4248 78.8609 35.4248C78.6617 35.4248 78.4625 35.5243 78.2633 35.5243L75.1759 37.4151C74.8772 37.5146 74.7776 37.8131 74.678 38.1117C74.5784 38.4102 74.678 38.7088 74.7776 38.9078C74.9768 39.2063 75.3751 39.5049 75.7735 39.5049C75.9727 39.5049 76.1719 39.4054 76.3711 39.4054L79.558 37.5146C79.9564 37.2161 80.1556 36.5195 79.8568 36.0219Z" fill="#2F5BC1"/>
<path d="M65.2139 29.453C65.4131 29.5525 65.6122 29.5525 65.8114 29.5525C66.2098 29.5525 66.6082 29.3534 66.8074 28.9554L68.6996 25.7709C68.7992 25.4724 68.8988 25.1739 68.7992 24.9748C68.6996 24.6763 68.5004 24.4773 68.3013 24.2782C68.1021 24.1787 67.9029 24.1787 67.7037 24.1787C67.3053 24.1787 66.907 24.3777 66.7078 24.7758L64.8155 27.9602C64.5167 28.4578 64.6163 29.1544 65.2139 29.453Z" fill="#2F5BC1"/>
</g>
</g>
<defs>
<clipPath id="clip0_2910_134411">
<rect width="60" height="60" fill="white" transform="translate(20 20)"/>
</clipPath>
<clipPath id="clip1_2910_134411">
<rect width="60" height="64" fill="white" transform="translate(20 20)"/>
</clipPath>
</defs>
</svg>
