<svg width="49" height="49" viewBox="0 0 49 49" fill="none" xmlns="http://www.w3.org/2000/svg">
<g clip-path="url(#clip0_2910_131411)">
<path d="M38.944 5.6076V20.0546H43.3891V2.62558C43.3891 1.20395 42.2368 0.0507812 40.8143 0.0507812H14.8482C13.4257 0.0507812 12.2734 1.20395 12.2734 2.62558V4.49587H37.8332C38.4467 4.49587 38.9449 4.99318 38.9449 5.6076H38.944Z" fill="#2F5BC1"/>
<path d="M47.8369 22.2773C19.1321 22.2773 20.7321 22.5214 20.2438 21.7773C16.1095 15.6096 16.332 15.6096 15.532 15.6096H1.1625C0.548985 15.6096 0.0507812 16.1069 0.0507812 16.7213V47.8379C0.0507812 48.4514 0.548084 48.9496 1.1625 48.9496H47.8369C48.4504 48.9496 48.9486 48.4523 48.9486 47.8379V23.389C48.9486 22.7755 48.4513 22.2773 47.8369 22.2773Z" fill="#2F5BC1"/>
<path d="M18.3122 14.8756L21.7681 20.054H36.7259V6.71875H7.59318C6.49767 6.71875 5.60938 7.60705 5.60938 8.70255V13.3873H15.5329C16.65 13.3873 17.6933 13.9459 18.3113 14.8765L18.3122 14.8756ZM23.3906 10.053H32.2808C32.8943 10.053 33.3926 10.5503 33.3926 11.1647C33.3926 11.7792 32.8952 12.2765 32.2808 12.2765H23.3906C22.7771 12.2765 22.2789 11.7792 22.2789 11.1647C22.2789 10.5503 22.7762 10.053 23.3906 10.053ZM23.3906 14.4981H32.2808C32.8943 14.4981 33.3926 14.9954 33.3926 15.6098C33.3926 16.2243 32.8952 16.7216 32.2808 16.7216H23.3906C22.7771 16.7216 22.2789 16.2243 22.2789 15.6098C22.2789 14.9954 22.7762 14.4981 23.3906 14.4981Z" fill="#2F5BC1"/>
</g>
<defs>
<clipPath id="clip0_2910_131411">
<rect width="48.8969" height="48.8969" fill="white" transform="translate(0.0507812 0.0507812)"/>
</clipPath>
</defs>
</svg>
