<svg width="68" height="73" viewBox="0 0 68 73" fill="none" xmlns="http://www.w3.org/2000/svg">
<g clip-path="url(#clip0_2987_36737)">
<path fill-rule="evenodd" clip-rule="evenodd" d="M66.8281 67.7057L59.8985 55.3695C59.6885 54.9514 59.1869 54.8236 58.7669 55.0327L57.7344 55.6077L56.6203 53.6155C59.0644 51.9312 60.9368 49.4396 61.7884 46.4136C64.1391 38.0502 57.7986 29.8145 49.1074 29.8145C39.1972 29.8145 32.7284 40.5185 37.6864 49.2595C39.9963 53.4006 44.4061 55.9503 49.1541 55.9503C50.7115 55.9503 52.2281 55.6657 53.6397 55.1546L54.8063 57.2513L53.7738 57.8321C53.3539 58.0412 53.2255 58.5407 53.4355 58.9589L60.406 71.295C60.8668 72.172 61.835 72.718 62.8441 72.718C63.8532 72.718 64.7749 72.0094 65.784 71.4634C67.1256 70.7084 67.5922 68.995 66.8339 67.6999L66.8281 67.7057ZM39.028 40.0655C41.5479 31.1154 53.7272 29.6925 58.3061 37.7656C62.2142 44.7932 57.087 53.3193 49.1483 53.3193C42.2187 53.3193 37.1381 46.7098 39.028 40.0655Z" fill="#FF8201"/>
<path fill-rule="evenodd" clip-rule="evenodd" d="M26.3403 52.6328C23.2798 52.6328 23.2798 57.197 26.3403 57.197C29.4007 57.197 29.4007 52.6328 26.3403 52.6328Z" fill="#FF8201"/>
<path fill-rule="evenodd" clip-rule="evenodd" d="M13.5276 39.1426C13.2316 39.1834 12.971 39.3524 12.8466 39.6439C7.34518 51.6049 16.2162 65.4138 29.73 65.4138C36.0427 65.4138 41.7514 62.3477 45.1625 57.2707C42.7345 56.7228 40.5138 55.5511 38.6365 53.954C35.184 54.2455 32.7975 50.6373 34.3727 47.6587C33.6029 45.4787 33.3897 43.1704 33.6917 40.9845C27.0414 39.9761 20.2609 38.3848 13.5217 39.1368L13.5276 39.1426ZM38.0443 56.3905C39.1517 56.3905 39.1517 58.0693 38.0443 58.0693C36.9369 58.0693 36.8955 56.3905 38.0443 56.3905ZM25.7682 44.1788C26.8756 44.1788 26.8756 45.8576 25.7682 45.8576C24.6608 45.8576 24.6194 44.1788 25.7682 44.1788ZM19.2423 55.1723C18.1349 55.1723 18.1349 53.4935 19.2423 53.4935C20.3497 53.4935 20.3911 55.1723 19.2423 55.1723ZM19.1594 50.7656C16.986 50.7656 15.1917 49.0052 15.1917 46.8601C15.1917 44.7151 16.9801 43.0014 19.1594 43.0014C21.3386 43.0014 23.0797 44.7209 23.0797 46.8601C23.0797 48.9994 21.2913 50.7656 19.1594 50.7656ZM26.3663 59.1185C24.193 59.1185 22.446 57.3581 22.446 55.2131C22.446 53.068 24.193 51.3543 26.3663 51.3543C28.5397 51.3543 30.334 53.1146 30.334 55.2131C30.334 57.3115 28.5456 59.1185 26.3663 59.1185ZM31.0979 61.3043C29.9491 61.3043 29.9491 59.6256 31.0979 59.6256C32.2468 59.6256 32.2053 61.3043 31.0979 61.3043ZM31.5243 52.3627C30.4169 52.3627 30.4169 50.684 31.5243 50.684C32.6317 50.684 32.6732 52.3627 31.5243 52.3627Z" fill="#FF8201"/>
<path fill-rule="evenodd" clip-rule="evenodd" d="M19.4619 44.418C17.0049 44.418 17.0049 48.9822 19.4619 48.9822C21.9189 48.9822 21.8843 44.418 19.4619 44.418Z" fill="#FF8201"/>
<path fill-rule="evenodd" clip-rule="evenodd" d="M30.0683 67.5212C18.2749 67.5212 8.69355 58.0047 8.69355 46.3357C8.69355 41.364 10.4383 36.5209 13.6735 32.7307C14.2295 32.0581 14.1821 31.0871 13.5907 30.4554L10.4797 27.3788L13.3305 24.6004L16.82 28.0105C17.3759 28.5603 18.2276 28.6831 18.9078 28.262C20.3982 27.3378 22.0602 26.6184 23.7221 26.1154C24.4437 25.9048 24.9582 25.2321 24.9582 24.4718V9.48635H35.2197V24.5186C35.2197 25.2321 35.687 25.9106 36.4145 26.1212C38.5851 26.7529 40.59 27.7648 42.4176 29.0282C43.6537 28.4375 44.9726 28.0163 46.3329 27.8058C44.0736 25.8697 41.4358 24.308 38.6265 23.3019V8.59729C40.6019 8.31068 42.116 6.63199 42.116 4.60235C42.116 2.41479 40.2825 0.601562 38.0291 0.601562H22.1016C19.8896 0.601562 18.0561 2.41479 18.0561 4.60235C18.0561 6.64369 19.5879 8.32823 21.5456 8.60314V23.3019C20.3982 23.6821 19.3336 24.1852 18.269 24.735L15.1166 21.6174L16.3941 20.354C16.7372 20.0147 16.7372 19.4708 16.3941 19.1725L11.84 14.6219C11.497 14.2826 10.9884 14.2826 10.6453 14.6219L0.431106 24.735C0.088069 25.0742 0.088069 25.6182 0.431106 25.9574L4.98521 30.4613C5.15673 30.6309 5.36965 30.7128 5.58257 30.7128C5.83689 30.7128 6.04981 30.6309 6.17992 30.4613L7.46336 29.192L10.1012 31.7656C6.9902 35.977 5.28685 41.1125 5.28685 46.3357C5.28685 59.853 16.4 70.8903 30.0683 70.8903C39.6497 70.8903 48.4207 65.3336 52.5076 56.8641C51.1473 57.2034 49.7811 57.3262 48.4207 57.2853C44.5882 63.5204 37.6033 67.5212 30.0683 67.5212Z" fill="#FF8201"/>
</g>
<defs>
<clipPath id="clip0_2987_36737">
<rect width="67.024" height="72.1144" fill="white" transform="translate(0.175781 0.601562)"/>
</clipPath>
</defs>
</svg>
