<svg width="100" height="100" viewBox="0 0 100 100" fill="none" xmlns="http://www.w3.org/2000/svg">
<path d="M68.3813 89.0625H31.6188C31.0383 89.0625 30.4693 89.2242 29.9756 89.5294C29.4819 89.8347 29.0829 90.2714 28.8235 90.7906L26.6953 95.0453C26.5166 95.4027 26.4322 95.7998 26.4501 96.199C26.4681 96.5982 26.5878 96.9862 26.7979 97.3261C27.008 97.666 27.3015 97.9465 27.6506 98.1411C27.9996 98.3356 28.3926 98.4376 28.7922 98.4375H71.2078C71.6074 98.4376 72.0004 98.3356 72.3495 98.1411C72.6985 97.9465 72.992 97.666 73.2021 97.3261C73.4123 96.9862 73.532 96.5982 73.5499 96.199C73.5679 95.7998 73.4835 95.4027 73.3047 95.0453L71.1766 90.7906C70.9171 90.2714 70.5182 89.8347 70.0244 89.5294C69.5307 89.2242 68.9617 89.0625 68.3813 89.0625Z" fill="#868695"/>
<path d="M33.511 90.7906L31.3828 95.0453C31.2041 95.4027 31.1197 95.7998 31.1376 96.199C31.1556 96.5982 31.2753 96.9862 31.4854 97.3261C31.6955 97.666 31.989 97.9465 32.3381 98.1411C32.6871 98.3356 33.0801 98.4376 33.4797 98.4375H71.2078C71.6074 98.4376 72.0004 98.3356 72.3495 98.1411C72.6985 97.9465 72.992 97.666 73.2022 97.3261C73.4123 96.9862 73.532 96.5982 73.5499 96.199C73.5679 95.7998 73.4835 95.4027 73.3047 95.0453L71.1766 90.7906C70.9171 90.2714 70.5182 89.8347 70.0244 89.5294C69.5307 89.2242 68.9617 89.0625 68.3813 89.0625H36.3063C35.7258 89.0625 35.1568 89.2242 34.6631 89.5294C34.1694 89.8347 33.7704 90.2714 33.511 90.7906Z" fill="#7A7A8A"/>
<path d="M89.0625 1.5625H10.9375C6.62278 1.5625 3.125 5.06028 3.125 9.375V71.875C3.125 76.1897 6.62278 79.6875 10.9375 79.6875H89.0625C93.3772 79.6875 96.875 76.1897 96.875 71.875V9.375C96.875 5.06028 93.3772 1.5625 89.0625 1.5625Z" fill="#868695"/>
<path d="M11.7188 3.90625H89.0625C91.1345 3.90625 93.1216 4.72935 94.5868 6.19448C96.0519 7.65961 96.875 9.64675 96.875 11.7188V71.875C96.875 73.947 96.0519 75.9341 94.5868 77.3993C93.1216 78.8644 91.1345 79.6875 89.0625 79.6875H13.2812C11.2092 79.6875 9.22211 78.8644 7.75698 77.3993C6.29185 75.9341 5.46875 73.947 5.46875 71.875V10.1562C5.46875 8.49865 6.12723 6.90894 7.29933 5.73683C8.47143 4.56473 10.0611 3.90625 11.7188 3.90625Z" fill="#7A7A8A"/>
<path d="M92.1875 65.625V9.375C92.1875 7.64911 90.7884 6.25 89.0625 6.25H10.9375C9.21161 6.25 7.8125 7.64911 7.8125 9.375V65.625C7.8125 67.3509 9.21161 68.75 10.9375 68.75H89.0625C90.7884 68.75 92.1875 67.3509 92.1875 65.625Z" fill="#8ADCF9"/>
<path d="M92.1875 65.625V12.5C92.1875 10.7741 90.7884 9.375 89.0625 9.375H14.0625C12.3366 9.375 10.9375 10.7741 10.9375 12.5V65.625C10.9375 67.3509 12.3366 68.75 14.0625 68.75H89.0625C90.7884 68.75 92.1875 67.3509 92.1875 65.625Z" fill="#C5E2F0"/>
<path d="M64.0625 92.1875H35.9375L40.625 79.6875H59.375L64.0625 92.1875Z" fill="#696979"/>
<path d="M51.5625 75.3906H48.4375C48.1267 75.3906 47.8286 75.2672 47.6089 75.0474C47.3891 74.8276 47.2656 74.5296 47.2656 74.2188C47.2656 73.9079 47.3891 73.6099 47.6089 73.3901C47.8286 73.1703 48.1267 73.0469 48.4375 73.0469H51.5625C51.8733 73.0469 52.1714 73.1703 52.3911 73.3901C52.6109 73.6099 52.7344 73.9079 52.7344 74.2188C52.7344 74.5296 52.6109 74.8276 52.3911 75.0474C52.1714 75.2672 51.8733 75.3906 51.5625 75.3906Z" fill="#696979"/>
<path d="M60.9375 75.3906H57.8125C57.5017 75.3906 57.2036 75.2672 56.9839 75.0474C56.7641 74.8276 56.6406 74.5296 56.6406 74.2188C56.6406 73.9079 56.7641 73.6099 56.9839 73.3901C57.2036 73.1703 57.5017 73.0469 57.8125 73.0469H60.9375C61.2483 73.0469 61.5464 73.1703 61.7661 73.3901C61.9859 73.6099 62.1094 73.9079 62.1094 74.2188C62.1094 74.5296 61.9859 74.8276 61.7661 75.0474C61.5464 75.2672 61.2483 75.3906 60.9375 75.3906Z" fill="#696979"/>
<path d="M42.1875 75.3906H39.0625C38.7517 75.3906 38.4536 75.2672 38.2339 75.0474C38.0141 74.8276 37.8906 74.5296 37.8906 74.2188C37.8906 73.9079 38.0141 73.6099 38.2339 73.3901C38.4536 73.1703 38.7517 73.0469 39.0625 73.0469H42.1875C42.4983 73.0469 42.7964 73.1703 43.0161 73.3901C43.2359 73.6099 43.3594 73.9079 43.3594 74.2188C43.3594 74.5296 43.2359 74.8276 43.0161 75.0474C42.7964 75.2672 42.4983 75.3906 42.1875 75.3906Z" fill="#696979"/>
<path d="M72.8017 62.5002H27.1985C26.2829 62.5186 25.3787 62.2946 24.5775 61.851C23.7764 61.4074 23.1067 60.7598 22.6364 59.974C22.166 59.1882 21.9118 58.292 21.8994 57.3763C21.887 56.4606 22.1169 55.5578 22.5657 54.7596L45.3673 15.1471C45.8425 14.341 46.5199 13.6729 47.3324 13.2088C48.1449 12.7446 49.0644 12.5005 50.0001 12.5005C50.9358 12.5005 51.8554 12.7446 52.6679 13.2088C53.4803 13.6729 54.1577 14.341 54.6329 15.1471L77.4345 54.7596C77.8833 55.5578 78.1132 56.4606 78.1008 57.3763C78.0884 58.292 77.8342 59.1882 77.3639 59.974C76.8936 60.7598 76.2239 61.4074 75.4227 61.851C74.6215 62.2946 73.7173 62.5186 72.8017 62.5002Z" fill="#E96E79"/>
<path d="M52.3438 25.7812C52.3438 24.4868 51.2944 23.4375 50 23.4375C48.7056 23.4375 47.6562 24.4868 47.6562 25.7812V44.5312C47.6562 45.8257 48.7056 46.875 50 46.875C51.2944 46.875 52.3438 45.8257 52.3438 44.5312V25.7812Z" fill="#F3FBFF"/>
<path d="M50 56.25C51.2944 56.25 52.3438 55.2007 52.3438 53.9062C52.3438 52.6118 51.2944 51.5625 50 51.5625C48.7056 51.5625 47.6562 52.6118 47.6562 53.9062C47.6562 55.2007 48.7056 56.25 50 56.25Z" fill="#F3FBFF"/>
</svg>
