<svg width="100" height="100" viewBox="0 0 100 100" fill="none" xmlns="http://www.w3.org/2000/svg">
<g clip-path="url(#clip0_2908_125825)">
<path d="M25.3579 41.3694L20.5703 45.5203L25.3579 49.6711V41.3694Z" fill="#2F5BC1"/>
<path d="M50.0056 20L46.6758 22.8881H53.3367L50.0056 20Z" fill="#2F5BC1"/>
<path d="M57.0605 64.9154L72.5019 51.5283V33.6659H65.0022C64.4108 33.6659 63.9312 33.1835 63.9312 32.5887V25.0459H27.5V51.5283L42.9413 64.9154H57.0605ZM66.0745 53.0639C66.0745 53.6587 65.5948 54.1411 65.0035 54.1411H47.8608C47.2694 54.1411 46.7898 53.6587 46.7898 53.0639C46.7898 52.4691 47.2694 51.9855 47.8608 51.9855H65.0035C65.5948 51.9855 66.0745 52.4679 66.0745 53.0627V53.0639ZM66.0745 46.5983C66.0745 47.1931 65.5948 47.6755 65.0035 47.6755H60.7181C60.1267 47.6755 59.6471 47.1931 59.6471 46.5983C59.6471 46.0035 60.1267 45.5199 60.7181 45.5199H65.0035C65.5948 45.5199 66.0745 46.0023 66.0745 46.5971V46.5983ZM54.2882 40.1327C54.2882 39.5379 54.7678 39.0555 55.3592 39.0555H65.0022C65.5936 39.0555 66.0732 39.5379 66.0732 40.1327C66.0732 40.7275 65.5936 41.2112 65.0022 41.2112H55.3592C54.7678 41.2112 54.2882 40.7288 54.2882 40.134V40.1327ZM35.0022 32.5899H41.4309C42.0222 32.5899 42.5031 33.0723 42.5031 33.6684C42.5031 34.2644 42.0235 34.7456 41.4309 34.7456H35.0022C34.4108 34.7456 33.9312 34.2632 33.9312 33.6684C33.9312 33.0736 34.4108 32.5899 35.0022 32.5899ZM33.9312 40.1327C33.9312 39.5379 34.4108 39.0555 35.0022 39.0555H51.0739C51.6652 39.0555 52.1449 39.5379 52.1449 40.1327C52.1449 40.7275 51.6652 41.2112 51.0739 41.2112H35.0022C34.4108 41.2112 33.9312 40.7288 33.9312 40.134V40.1327ZM33.9312 46.5983C33.9312 46.0035 34.4108 45.5211 35.0022 45.5211H56.4302C57.0216 45.5211 57.5013 46.0035 57.5013 46.5983C57.5013 47.1931 57.0216 47.6768 56.4302 47.6768H35.0022C34.4108 47.6768 33.9312 47.1944 33.9312 46.5996V46.5983ZM33.9312 53.0639C33.9312 52.4691 34.4108 51.9855 35.0022 51.9855H43.5729C44.1643 51.9855 44.6452 52.4679 44.6452 53.0627C44.6452 53.6574 44.1656 54.1411 43.5729 54.1411H35.0022C34.4108 54.1411 33.9312 53.6587 33.9312 53.0639ZM41.4309 59.5295C41.4309 58.9347 41.9105 58.4511 42.5031 58.4511H57.5025C58.0939 58.4511 58.5735 58.9335 58.5735 59.5295C58.5735 60.1256 58.0939 60.6067 57.5025 60.6067H42.5031C41.9118 60.6067 41.4309 60.1243 41.4309 59.5295Z" fill="#2F5BC1"/>
<path d="M74.6406 41.3694V49.6711L79.4282 45.5202L74.6406 41.3694Z" fill="#2F5BC1"/>
<path d="M66.0742 26.5625V31.5039H70.9874L66.0742 26.5625Z" fill="#2F5BC1"/>
<path d="M79.9993 79.1134V47.8677L59.2656 65.8438L79.9993 79.1134Z" fill="#2F5BC1"/>
<path d="M42.8132 67.0681L22.6094 79.9993H77.3936L57.1898 67.0681H42.8132Z" fill="#2F5BC1"/>
<path d="M20 47.8677V79.1134L40.7337 65.8438L20 47.8677Z" fill="#2F5BC1"/>
</g>
<defs>
<clipPath id="clip0_2908_125825">
<rect width="60" height="60" fill="white" transform="translate(20 20)"/>
</clipPath>
</defs>
</svg>
