<svg width="53" height="53" viewBox="0 0 53 53" fill="none" xmlns="http://www.w3.org/2000/svg">
<path d="M26.7471 52.7848C41.1792 52.7848 52.8788 41.0853 52.8788 26.6531C52.8788 12.221 41.1792 0.521484 26.7471 0.521484C12.315 0.521484 0.615479 12.221 0.615479 26.6531C0.615479 41.0853 12.315 52.7848 26.7471 52.7848Z" fill="#2F5BC1"/>
<path d="M39.3517 20.4238V14.6817C39.3517 12.9542 37.9405 11.543 36.213 11.543H17.332C15.6045 11.543 14.1933 12.9542 14.1933 14.6817V20.4238C12.7577 20.7158 11.6628 21.981 11.6628 23.5139V24.7791C11.6628 25.8254 12.5144 26.6769 13.5607 26.6769H14.1933V36.1174C14.1933 37.626 15.2882 38.9155 16.7237 39.2075V39.8888C16.7237 40.935 17.5753 41.7866 18.6215 41.7866H21.152C22.1982 41.7866 23.0498 40.935 23.0498 39.8888V39.2561H30.6168V39.8888C30.6168 40.935 31.4684 41.7866 32.5146 41.7866H35.0451C36.0913 41.7866 36.9429 40.935 36.9429 39.8888V39.2075C38.3784 38.9155 39.4733 37.6503 39.4733 36.1174V26.6769H40.1059C41.1522 26.6769 42.0038 25.8254 42.0038 24.7791V23.5139C42.0038 22.0054 40.9089 20.7158 39.4733 20.4238H39.3517ZM19.9598 35.6065C18.8405 35.6065 17.9403 34.7062 17.9403 33.587C17.9403 32.4678 18.8405 31.5675 19.9598 31.5675C21.079 31.5675 21.9792 32.4678 21.9792 33.587C21.9792 34.7062 21.079 35.6065 19.9598 35.6065ZM33.5609 35.6065C32.4416 35.6065 31.5414 34.7062 31.5414 33.587C31.5414 32.4678 32.4416 31.5675 33.5609 31.5675C34.6801 31.5675 35.5804 32.4678 35.5804 33.587C35.5804 34.7062 34.6801 35.6065 33.5609 35.6065ZM36.8456 27.2852C36.8456 28.3315 35.994 29.1831 34.9477 29.1831H18.5729C17.5266 29.1831 16.6751 28.3315 16.6751 27.2852V20.9835C16.6751 19.9372 17.5266 19.0856 18.5729 19.0856H34.9477C35.994 19.0856 36.8456 19.9372 36.8456 20.9835V27.2852Z" fill="white"/>
</svg>
