<svg width="67" height="77" viewBox="0 0 67 77" fill="none" xmlns="http://www.w3.org/2000/svg">
<g clip-path="url(#clip0_2987_36694)">
<path d="M61.2276 54.4797C61.2276 54.4797 59.7834 52.5021 56.3361 51.1951C56.3361 51.1951 48.9774 48.9883 45.4957 46.5779C45.4957 46.6458 45.4957 46.7221 45.4957 46.7901C45.4785 47.7407 45.3668 48.895 45.2206 50.0917C44.7822 53.6649 43.9655 57.6286 43.9655 57.6286C42.8824 55.8717 41.9195 54.7174 41.0599 53.9705C40.0111 53.0623 39.1256 52.7737 38.4465 52.7737C38.3605 52.7737 38.2831 52.7737 38.2058 52.7822C37.3461 52.8671 36.8303 53.4018 36.6756 53.5631C40.9223 48.4451 42.7018 44.0146 43.1231 42.8603C42.3322 43.4629 41.3693 43.8109 40.3291 43.8109H37.2601C34.7069 43.8109 32.618 41.757 32.618 39.2277C32.618 36.6984 34.6983 34.6529 37.2601 34.6529H40.3291C41.3607 34.6529 42.3408 34.9924 43.1403 35.5865C44.5759 35.3913 45.9342 35.0433 47.1721 34.585C47.834 33.2525 48.1779 31.6653 48.1779 31.6653C49.2095 28.805 48.5647 27.6931 48.0833 27.2773C48.8312 24.8753 50.456 18.1277 46.5875 13.8246C46.5875 13.8246 45.1003 10.5823 39.1342 9.40256C39.1342 9.40256 37.0882 8.56229 36.091 6.45739C35.7815 6.41495 35.472 6.36403 35.1454 6.33008C34.5608 6.5847 33.8645 7.09395 33.8645 8.12943L32.8673 7.73901L31.9474 8.38406L30.8814 7.73901C30.8814 7.73901 30.8041 7.71354 30.6579 7.71354C30.4516 7.71354 30.1077 7.74749 29.5919 7.92573C29.5919 7.92573 21.8292 10.8709 19.8433 16.9564C19.8433 16.9564 18.743 19.5366 20.084 27.0651C19.7574 27.1924 18.3217 27.9817 19.6542 31.6568C19.6542 31.6568 20.2302 34.3558 21.3563 35.6714C21.9925 37.6066 22.9553 39.4738 24.1331 41.1204C24.1331 41.1204 24.1245 41.1119 24.1159 41.1034C24.1159 41.1034 24.262 41.8249 24.1331 42.8434C24.4081 43.5818 26.6347 49.3278 30.5548 53.6649C30.3484 53.4612 29.9186 53.1132 29.2825 53.0114C29.1535 52.9859 29.0246 52.9774 28.8784 52.9774C28.2423 52.9774 27.4514 53.2236 26.5143 53.9705C25.6031 54.7004 24.5457 55.9056 23.3594 57.8408C23.3594 57.8408 22.3879 53.1048 21.9925 49.3278C21.8979 48.4197 21.8377 47.5624 21.8292 46.8495C21.8292 46.7052 21.8292 46.5694 21.8292 46.4421C18.4163 48.895 10.8168 51.1696 10.8168 51.1696C7.36958 52.4852 5.90815 54.4458 5.90815 54.4458C1.73878 60.5568 0.56963 68.0173 0.277344 70.5721C0.277344 74.0519 15.1753 76.8698 33.555 76.8698C51.9346 76.8698 66.8412 74.0519 66.8412 70.5721C66.5489 68.0173 65.3798 60.5483 61.2276 54.4797Z" fill="#FF8201"/>
<path d="M11.8579 37.3776H12.0557C14.1876 37.3776 15.9156 35.6716 15.9156 33.5667V25.945C15.9156 24.4512 15.0387 23.1611 13.7664 22.533C14.3166 12.2291 22.982 4.00474 33.5559 4.00474C44.1298 4.00474 52.7952 12.2291 53.3454 22.533C52.0731 23.1611 51.1962 24.4512 51.1962 25.945V33.5667C51.1962 34.0675 51.2994 34.5343 51.4713 34.9757C49.219 36.5628 45.9437 37.7002 42.2557 38.0142C41.8431 37.3861 41.1295 36.9702 40.3129 36.9702H37.2439C35.963 36.9702 34.9314 37.9972 34.9314 39.2534C34.9314 40.5095 35.963 41.5365 37.2439 41.5365H40.3129C41.2069 41.5365 41.972 41.0357 42.3589 40.3058C46.64 39.9748 50.3623 38.6847 52.9757 36.775C53.5775 37.157 54.291 37.3776 55.0561 37.3776H55.2452C57.3772 37.3776 59.1051 35.6716 59.1051 33.5667V25.945C59.1051 24.4257 58.2025 23.1186 56.9044 22.5075C56.337 10.2685 46.0812 0.482422 33.5473 0.482422C21.0134 0.482422 10.7662 10.2685 10.1988 22.5075C8.9007 23.1186 7.99805 24.4172 7.99805 25.945V33.5667C7.99805 35.6716 9.72597 37.3776 11.8579 37.3776Z" fill="#FF8201"/>
</g>
<defs>
<clipPath id="clip0_2987_36694">
<rect width="66.5639" height="76.3876" fill="white" transform="translate(0.277344 0.482422)"/>
</clipPath>
</defs>
</svg>
