<svg width="104" height="117" viewBox="0 0 104 117" fill="none" xmlns="http://www.w3.org/2000/svg">
<path d="M51.8855 35.7188C47.354 35.7355 43.6911 39.4043 43.6953 43.9274C43.775 48.3961 47.3834 52.0021 51.8603 52.0859C56.2826 52.1445 60.1176 48.3333 60.1092 43.8897C60.0924 39.3666 56.4127 35.7104 51.8813 35.7188H51.8855Z" fill="#2F5BC1"/>
<path d="M11.4047 53.314C24.2186 63.223 37.0158 73.1488 49.8045 83.0914C51.7597 84.6075 52.066 84.6242 54.0212 83.1039C66.7848 73.1949 79.5484 63.2942 92.3161 53.3894C93.1175 52.8449 93.5748 51.9152 93.5161 50.9477C93.4825 38.6598 93.4951 26.3719 93.4951 14.084C93.4951 11.2445 92.9329 10.6875 90.0588 10.6875C77.3833 10.6875 64.7037 10.6875 52.0282 10.6875C39.1892 10.6875 26.3501 10.6875 13.511 10.6875C10.9726 10.6875 10.318 11.3283 10.318 13.837C10.318 26.2463 10.3096 38.6556 10.297 51.065C10.2467 51.9528 10.6663 52.8072 11.4005 53.3098L11.4047 53.314ZM26.7906 42.7558C27.1137 30.7527 36.6423 20.5253 48.6381 19.0176C62.3541 17.1916 74.954 26.8075 76.7833 40.4984C76.8169 40.7329 76.8421 40.9716 76.8672 41.2062C77.1819 44.0331 77.333 46.8852 76.8253 49.6829C76.1959 53.1758 73.9638 55.4122 70.5526 56.2163C67.2086 57.0037 64.2547 56.0572 62.0604 53.3265C61.431 52.5392 61.1373 52.468 60.3485 53.1758C56.5975 56.5179 52.2254 57.3722 47.5388 55.6677C42.8815 53.9757 40.0955 50.5121 39.4115 45.6037C38.3752 38.1447 43.8255 31.6448 51.3653 31.2636C54.1094 31.138 56.8198 31.9295 59.0646 33.5126C59.3583 33.7137 59.6436 33.9147 59.9792 34.1492C60.0338 34.0152 60.0799 33.877 60.1135 33.7388C60.3149 32.1389 61.1834 31.205 62.4086 31.2762C63.7135 31.3516 64.5778 32.3777 64.5862 34.0236C64.6114 38.5216 64.5988 43.0238 64.5988 47.526C64.5988 48.3804 64.6324 49.218 65.0729 50.0012C65.8659 51.4126 67.5358 52.2795 69.0547 52.024C70.8799 51.7141 72.4155 50.4158 72.5036 48.7364C72.7428 44.0248 72.747 39.3509 70.5736 34.9366C66.7177 27.1132 58.5317 22.142 49.2129 23.4361C39.6591 24.7637 32.8577 31.6364 31.4563 40.8963C29.7738 52.1329 37.536 62.599 48.7933 64.2784C48.9569 64.3036 49.1248 64.3245 49.2884 64.3454C54.4198 65.003 59.1191 63.8554 63.4282 61.041C64.0366 60.6432 64.603 60.1699 65.3918 60.1448C66.2687 60.0484 67.1079 60.5217 67.4855 61.3174C67.9512 62.1257 67.7876 63.1476 67.0953 63.7717C66.6967 64.1737 66.2477 64.5297 65.761 64.8229C56.7191 70.3512 47.5094 70.6108 38.5094 65.0197C30.3696 59.9647 26.5389 52.2837 26.7948 42.76L26.7906 42.7558Z" fill="#2F5BC1"/>
<path d="M97.8281 48.2094C97.8281 48.8544 98.0757 48.9046 98.5456 48.5319C99.5945 47.7068 100.639 46.8818 101.709 46.086C102.267 45.6714 102.154 45.328 101.709 44.9259C100.48 43.8203 99.2673 42.6979 97.8323 41.3828V48.2052L97.8281 48.2094Z" fill="#2F5BC1"/>
<path d="M54.2099 1.30072C52.968 0.262068 51.1806 0.199246 49.8673 1.14576C47.7988 2.59065 46.0533 4.44598 44.1484 6.31387H59.7693C57.8099 4.52555 56.098 2.80843 54.2141 1.30072H54.2099Z" fill="#2F5BC1"/>
<path d="M2.00912 45.9967C3.12939 46.8678 4.24966 47.7389 5.37833 48.5975C5.76014 48.8865 5.98252 48.7608 5.98252 48.2876C5.98252 46.0763 5.98252 43.8691 5.98252 41.4023C4.5056 42.7593 3.23009 43.9278 1.95457 45.0921C1.59793 45.4187 1.64828 45.7203 2.00492 45.9967H2.00912Z" fill="#2F5BC1"/>
<path d="M36.9571 78.7313C26.1278 70.3174 15.2985 61.9077 4.46504 53.498C3.06784 52.4133 1.66226 51.3453 0.265062 50.2773C-0.0873832 50.6626 0.0133155 51.0019 0.0133155 51.3118C0.00911975 70.6022 0.00492397 89.8926 0.00911975 109.187C0.00911975 110.079 0.160168 110.963 0.453872 111.805C0.768556 112.726 1.121 112.843 1.88883 112.165C13.595 101.829 25.3097 91.5008 37.0327 81.1855C38.5599 79.8369 38.7403 80.1217 36.9529 78.7313H36.9571Z" fill="#2F5BC1"/>
<path d="M103.803 50.1328C103.245 50.5265 102.939 50.7233 102.658 50.9453C90.704 60.2261 78.7544 69.507 66.8048 78.792C65.1685 80.0652 65.2062 79.7845 66.7587 81.1582C73.7153 87.3148 80.6803 93.4587 87.6578 99.5859C92.4368 103.795 97.2116 108.008 101.986 112.221C102.737 112.891 103.04 112.644 103.35 111.844C103.774 110.756 103.803 109.633 103.803 108.498C103.803 89.5303 103.803 70.5624 103.803 51.5986C103.803 51.205 103.803 50.8113 103.803 50.1412V50.1328Z" fill="#2F5BC1"/>
<path d="M98.3541 114.898C93.0045 110.17 87.6465 105.445 82.2884 100.725C75.806 95.0087 69.3277 89.2878 62.8536 83.5627C62.0816 82.8758 61.5403 82.7795 60.7054 83.4873C59.1613 84.8023 57.5334 86.0169 55.9012 87.2231C53.2621 89.1789 50.5516 89.1747 47.9166 87.2272C46.5446 86.2137 45.2146 85.1499 43.8635 84.1071C41.9922 82.6622 42.009 82.679 40.2509 84.2328C33.437 90.2511 26.6189 96.261 19.7965 102.267C14.9252 106.56 10.0539 110.848 5.17844 115.137C4.95187 115.338 4.55327 115.509 4.67495 115.886C4.78404 116.234 5.20361 116.255 5.50152 116.301C6.54207 116.481 7.59521 116.582 8.64835 116.594C23.0692 116.582 37.4859 116.582 51.9068 116.586C66.2858 116.586 80.6647 116.586 95.0436 116.577C96.017 116.552 96.9863 116.481 97.9513 116.36C98.3835 116.314 98.9834 116.314 99.1177 115.874C99.2646 115.388 98.6646 115.174 98.3499 114.894L98.3541 114.898Z" fill="#2F5BC1"/>
</svg>
