<svg width="122" height="106" viewBox="0 0 122 106" fill="none" xmlns="http://www.w3.org/2000/svg">
<g clip-path="url(#clip0_2987_36763)">
<path d="M45.9841 50.3531C42.0336 50.3531 37.9794 52.3324 34.444 55.8281V52.9549C34.444 44.0241 28.0594 36.5617 19.6238 34.8777C17.7563 34.5026 16.0165 35.9551 16.0165 37.8546V37.9345C16.0165 39.395 17.062 40.6241 18.4906 40.9194C24.085 42.0687 28.3068 47.025 28.3068 52.9549V55.8281C24.7634 52.3324 20.7092 50.3531 16.7428 50.3531C3.68637 50.3611 -1.24571 67.9594 1.08466 81.1682C3.51877 94.9755 12.6248 105.391 22.0021 105.391C27.3811 105.391 30.1983 102.19 31.3794 101.512C32.5685 102.206 35.4097 105.399 40.7966 105.399C50.142 105.399 59.0325 94.9835 61.4666 81.1682C63.8609 67.6083 58.8649 50.3531 45.9921 50.3531H45.9841Z" fill="#FF8201"/>
<path d="M119.933 97.7579L110.918 81.3587C110.645 80.8028 109.993 80.6329 109.446 80.9109L108.103 81.6753L106.654 79.027C109.833 76.7879 112.269 73.4757 113.377 69.4531C116.435 58.335 108.187 47.3867 96.8811 47.3867C95.2952 47.3867 93.7777 47.6029 92.3436 48.0044C82.1456 50.8534 76.3713 63.0447 82.0242 73.2363C85.029 78.7413 90.7653 82.1308 96.9418 82.1308C98.8463 82.1308 100.698 81.7911 102.435 81.1888C102.549 81.1502 102.663 81.1194 102.777 81.0807L104.294 83.868L102.951 84.6401C102.405 84.918 102.238 85.582 102.511 86.1379L111.579 102.537C112.178 103.703 113.438 104.429 114.75 104.429C116.063 104.429 117.262 103.487 118.575 102.761C120.32 101.757 120.927 99.4797 119.94 97.7579H119.933ZM103.035 77.1817C101.229 78.1082 99.165 78.6409 96.9342 78.6409C87.9199 78.6409 81.311 69.8545 83.7694 61.0218C85.2642 55.6095 89.3616 52.274 93.937 51.2549C99.423 50.0273 105.599 52.1196 108.847 57.9644C112.831 65.2838 109.598 73.8308 103.042 77.1817H103.035Z" fill="#FF8201"/>
<path d="M99.7049 87.9253C99.3059 87.1272 99.1543 86.2493 99.266 85.3953C98.412 85.4991 97.5581 85.5549 96.7042 85.5549C89.0188 85.5549 81.9399 81.4047 78.2289 74.7166C74.5258 68.1481 74.5817 60.3186 78.4044 53.7741C81.2934 48.8258 85.8584 45.378 91.1576 43.9653C91.0618 43.2151 90.998 42.4489 90.998 41.6667V33.8053C90.998 25.6247 84.3421 18.5534 75.4356 18.5215C66.4733 18.5534 60.0807 25.6646 60.0807 33.8053V41.6667C60.0807 44.7474 59.3226 47.5568 57.918 49.8155C58.2611 50.1746 58.6522 50.4619 58.9794 50.853C64.9649 57.9881 67.5188 70.2232 65.4917 81.716C64.3584 88.1648 62.02 93.9191 58.8916 98.6041C63.5204 102.475 69.2027 104.861 75.4276 104.861C86.01 104.861 95.3155 98.213 100.024 88.484L99.7448 87.9892L99.7129 87.9173L99.7049 87.9253Z" fill="#FF8201"/>
<path d="M63.1372 6.15914C67.2951 6.15914 70.7747 8.94455 71.916 12.7356C73.0652 12.552 74.2304 12.3844 75.4434 12.3844C81.3651 12.4084 86.8479 14.7149 90.6946 18.4501H90.9819C97.7655 18.4501 103.264 12.9511 103.264 6.16712V0.0136719H87.9093C82.8575 0.0136719 78.2127 2.48782 75.4115 6.24693C72.6103 2.48782 68.165 0.0136719 63.1292 0.0136719C61.4293 0.0136719 60.0566 1.38642 60.0566 3.0864C60.0566 4.78638 61.4293 6.15914 63.1292 6.15914H63.1372Z" fill="#FF8201"/>
</g>
<defs>
<clipPath id="clip0_2987_36763">
<rect width="120.852" height="105.383" fill="white" transform="translate(0.527344 0.0136719)"/>
</clipPath>
</defs>
</svg>
