<svg width="1100" height="525" viewBox="0 0 1100 525" fill="none" xmlns="http://www.w3.org/2000/svg">
<rect x="90.0508" y="20.1348" width="239.977" height="241.655" rx="119.988" fill="url(#paint0_linear_364_16511)"/>
<rect x="90.0508" y="20.1348" width="239.977" height="241.655" rx="119.988" stroke="#E3E4FF" stroke-width="13.4253"/>
<path d="M191.586 111.092V121.998H195.617V125.279H191.586V139.467H187.586V111.092H191.586ZM168.836 131.498C175.57 128.123 179.195 123.592 179.945 117.248H170.461V113.998H183.992C183.961 122.498 180.648 129.857 171.086 134.561L168.836 131.498ZM211.117 112.686V121.404H202.055V124.123C206.742 124.092 209.93 123.936 213.555 123.279L213.992 126.467C209.914 127.201 206.258 127.389 200.492 127.373H198.086V118.373H207.242V115.873H198.055V112.686H211.117ZM200.461 132.873V129.686H219.617V139.498H215.617V132.873H200.461ZM215.617 128.373V111.123H219.617V117.904H223.461V121.186H219.617V128.373H215.617ZM250.898 122.717V125.936H224.961V122.717H235.898V120.873H228.18V111.904H247.617V120.873H239.836V122.717H250.898ZM227.961 130.342V127.342H247.742V134.623H231.898V136.342H248.492V139.342H227.992V131.811H243.805V130.342H227.961ZM232.086 117.811H243.648V114.998H232.086V117.811ZM191.898 151.092V157.811H195.523V161.123H191.898V167.842H187.898V151.092H191.898ZM168.836 164.779C170.914 164.779 173.273 164.779 175.742 164.732V163.482C172.633 163.092 170.727 161.811 170.742 159.779C170.727 157.467 173.461 156.107 177.711 156.123C181.93 156.107 184.664 157.467 184.68 159.779C184.664 161.795 182.773 163.076 179.711 163.467V164.592C182.055 164.467 184.383 164.279 186.586 163.998L186.867 166.467C180.805 167.482 174.211 167.529 169.242 167.529L168.836 164.779ZM169.586 155.529V152.873H175.742V150.842H179.711V152.873H185.867V155.529H169.586ZM172.617 171.498V168.842H191.898V175.217H176.648V176.686H192.836V179.342H172.648V172.811H187.898V171.498H172.617ZM174.555 159.779C174.539 160.639 175.68 161.076 177.711 161.092C179.711 161.076 180.852 160.639 180.867 159.779C180.852 158.951 179.711 158.592 177.711 158.592C175.68 158.592 174.539 158.951 174.555 159.779ZM207.805 154.967C207.789 158.764 209.742 162.279 214.305 163.686L212.211 166.811C209.148 165.748 207.07 163.795 205.867 161.232C204.617 164.201 202.32 166.529 198.898 167.686L196.805 164.498C201.664 162.936 203.758 159.123 203.773 155.154V152.561H207.805V154.967ZM201.523 174.029C201.523 170.529 205.242 168.482 211.305 168.498C217.383 168.482 221.102 170.529 221.117 174.029C221.102 177.545 217.383 179.545 211.305 179.529C205.242 179.545 201.523 177.545 201.523 174.029ZM205.492 174.029C205.492 175.607 207.539 176.436 211.305 176.436C215.086 176.436 217.133 175.607 217.148 174.029C217.133 172.404 215.086 171.592 211.305 171.592C207.539 171.592 205.492 172.404 205.492 174.029ZM211.711 159.561V156.311H217.055V151.092H221.023V167.748H217.055V159.561H211.711ZM247.711 151.092V162.654H251.43V165.967H247.711V179.529H243.68V151.092H247.711ZM224.617 171.498C226.695 171.498 229.117 171.498 231.648 171.436V168.998C228.633 168.404 226.664 166.482 226.68 163.842C226.664 160.67 229.539 158.498 233.68 158.498C237.742 158.498 240.648 160.67 240.68 163.842C240.648 166.482 238.648 168.42 235.648 168.998V171.295C237.898 171.17 240.164 170.982 242.273 170.686L242.523 173.592C236.477 174.717 229.945 174.764 225.148 174.748L224.617 171.498ZM225.18 157.373V154.248H231.648V151.248H235.648V154.248H242.055V157.373H225.18ZM230.461 163.842C230.445 165.342 231.727 166.154 233.68 166.154C235.57 166.154 236.836 165.342 236.836 163.842C236.836 162.373 235.57 161.545 233.68 161.529C231.727 161.545 230.445 162.373 230.461 163.842Z" fill="white"/>
<path d="M361.404 158.616H346.027L363.113 140.962L346.027 123.307H361.404L378.489 140.962L361.404 158.616Z" fill="url(#paint1_linear_364_16511)"/>
<circle cx="514.988" cy="140.962" r="120.5" fill="#EDF4FF"/>
<circle cx="514.988" cy="140.962" r="97.5" fill="white"/>
<path d="M454.41 134.649C454.4 136.222 454.665 137.769 455.207 139.29C455.749 140.8 456.556 142.165 457.629 143.384C458.702 144.592 460.004 145.514 461.535 146.149L459.379 149.274C457.754 148.587 456.358 147.582 455.191 146.259C454.025 144.925 453.108 143.368 452.441 141.587C451.775 143.514 450.848 145.212 449.66 146.681C448.483 148.139 447.077 149.243 445.441 149.993L443.16 146.837C444.681 146.16 445.978 145.175 447.051 143.884C448.134 142.592 448.947 141.144 449.488 139.54C450.04 137.925 450.316 136.295 450.316 134.649V132.899H444.285V129.649H460.348V132.899H454.41V134.649ZM463.16 126.899H467.191V155.337H463.16V126.899ZM495.254 155.337H491.285V148.118H475.723V144.993H495.254V155.337ZM471.66 135.368C471.65 134.056 471.967 132.873 472.613 131.821C473.27 130.759 474.171 129.931 475.316 129.337C476.462 128.733 477.743 128.431 479.16 128.431C480.316 128.431 481.389 128.629 482.379 129.024C483.368 129.42 484.207 129.983 484.895 130.712H491.285V126.899H495.254V143.712H491.285V140.118H484.895C484.207 140.858 483.374 141.431 482.395 141.837C481.415 142.243 480.358 142.451 479.223 142.462C477.796 142.462 476.504 142.16 475.348 141.556C474.191 140.941 473.285 140.097 472.629 139.024C471.973 137.941 471.65 136.722 471.66 135.368ZM475.441 135.368C475.441 136.129 475.598 136.79 475.91 137.353C476.233 137.905 476.681 138.326 477.254 138.618C477.827 138.91 478.483 139.056 479.223 139.056C479.921 139.056 480.551 138.91 481.113 138.618C481.676 138.326 482.118 137.905 482.441 137.353C482.775 136.79 482.941 136.129 482.941 135.368C482.941 134.649 482.775 134.019 482.441 133.478C482.118 132.925 481.676 132.504 481.113 132.212C480.551 131.92 479.921 131.774 479.223 131.774C478.483 131.774 477.827 131.92 477.254 132.212C476.681 132.504 476.233 132.92 475.91 133.462C475.598 134.004 475.441 134.639 475.441 135.368ZM491.285 136.931V133.931H486.566C486.671 134.358 486.723 134.837 486.723 135.368C486.723 135.889 486.665 136.41 486.551 136.931H491.285ZM530.785 143.556H526.816V139.931H521.504V141.993H508.004V128.993H521.504V131.056H526.816V126.899H530.785V143.556ZM511.285 149.837C511.285 148.681 511.676 147.686 512.457 146.853C513.249 146.019 514.379 145.389 515.848 144.962C517.316 144.524 519.056 144.306 521.066 144.306C523.087 144.306 524.832 144.524 526.301 144.962C527.77 145.389 528.9 146.019 529.691 146.853C530.483 147.686 530.879 148.681 530.879 149.837C530.879 150.993 530.483 151.983 529.691 152.806C528.9 153.639 527.77 154.269 526.301 154.696C524.832 155.123 523.087 155.337 521.066 155.337C519.046 155.337 517.301 155.123 515.832 154.696C514.374 154.269 513.249 153.639 512.457 152.806C511.676 151.983 511.285 150.993 511.285 149.837ZM517.598 138.837V132.149H511.973V138.837H517.598ZM515.254 149.837C515.254 150.649 515.749 151.264 516.738 151.681C517.738 152.097 519.181 152.306 521.066 152.306C522.962 152.306 524.405 152.097 525.395 151.681C526.395 151.264 526.9 150.649 526.91 149.837C526.9 149.004 526.4 148.379 525.41 147.962C524.421 147.545 522.973 147.337 521.066 147.337C519.16 147.337 517.712 147.545 516.723 147.962C515.743 148.379 515.254 149.004 515.254 149.837ZM526.816 136.712V134.212H521.504V136.712H526.816ZM560.754 151.931H534.723V148.743H545.598V142.306H549.566V148.743H560.754V151.931ZM535.348 139.899C537.41 139.576 539.202 138.936 540.723 137.978C542.254 137.019 543.421 135.884 544.223 134.571C545.025 133.259 545.431 131.92 545.441 130.556V128.524H549.691V130.556C549.681 131.931 550.077 133.274 550.879 134.587C551.691 135.899 552.868 137.035 554.41 137.993C555.952 138.941 557.764 139.576 559.848 139.899L558.16 143.212C555.702 142.764 553.561 141.915 551.738 140.665C549.915 139.415 548.525 137.889 547.566 136.087C546.618 137.889 545.233 139.42 543.41 140.681C541.598 141.931 539.473 142.774 537.035 143.212L535.348 139.899ZM585.379 138.462H589.098V141.774H585.379V155.337H581.348V126.899H585.379V138.462ZM562.285 147.306C565.285 147.306 567.629 147.285 569.316 147.243V144.806C568.316 144.608 567.441 144.269 566.691 143.79C565.941 143.311 565.363 142.717 564.957 142.009C564.551 141.3 564.348 140.514 564.348 139.649C564.348 138.608 564.639 137.681 565.223 136.868C565.816 136.056 566.645 135.425 567.707 134.978C568.77 134.53 569.983 134.306 571.348 134.306C572.691 134.306 573.889 134.53 574.941 134.978C576.004 135.425 576.832 136.056 577.426 136.868C578.03 137.681 578.337 138.608 578.348 139.649C578.337 140.514 578.124 141.306 577.707 142.024C577.29 142.733 576.702 143.326 575.941 143.806C575.191 144.285 574.316 144.618 573.316 144.806V147.103C575.848 146.967 578.056 146.764 579.941 146.493L580.191 149.399C577.691 149.858 575.103 150.165 572.426 150.321C569.749 150.478 566.926 150.556 563.957 150.556H562.816L562.285 147.306ZM562.848 130.056H569.316V127.056H573.316V130.056H579.723V133.181H562.848V130.056ZM568.129 139.649C568.118 140.389 568.4 140.962 568.973 141.368C569.556 141.764 570.348 141.962 571.348 141.962C572.316 141.962 573.082 141.764 573.645 141.368C574.217 140.962 574.504 140.389 574.504 139.649C574.504 138.931 574.217 138.368 573.645 137.962C573.072 137.556 572.306 137.347 571.348 137.337C570.358 137.347 569.572 137.556 568.988 137.962C568.405 138.368 568.118 138.931 568.129 139.649Z" fill="#04329A"/>
<path d="M666.865 158.616H651.488L668.573 140.962L651.488 123.307H666.865L683.95 140.962L666.865 158.616Z" fill="url(#paint2_linear_364_16511)"/>
<rect x="701.096" y="2.64453" width="296" height="62" rx="12.5" fill="#EDF4FF"/>
<path d="M747.075 27.9922C747.069 28.9941 747.219 29.9609 747.523 30.8926C747.828 31.8242 748.285 32.6533 748.895 33.3799C749.504 34.1064 750.245 34.6543 751.118 35.0234L749.8 36.8164C748.909 36.4121 748.142 35.832 747.497 35.0762C746.858 34.3203 746.352 33.4326 745.977 32.4131C745.607 33.5264 745.089 34.4961 744.421 35.3223C743.753 36.1426 742.944 36.7695 741.995 37.2031L740.642 35.3398C741.544 34.959 742.306 34.3936 742.927 33.6436C743.554 32.8877 744.022 32.0234 744.333 31.0508C744.644 30.0723 744.802 29.0527 744.808 27.9922V25.6016H747.075V27.9922ZM751.979 24.3711H754.247V40.4023H751.979V24.3711ZM765.04 33.3711H757.218V25.6543H765.04V33.3711ZM759.081 34.707H761.349V38.2051H770.226V40.0156H759.081V34.707ZM762.808 31.5957V27.4297H759.433V31.5957H762.808ZM767.554 24.3887H769.804V35.7617H767.554V24.3887ZM786.591 32.3691H771.966V30.6113H786.591V32.3691ZM773.653 33.3184H784.78V37.502H775.868V38.4863H785.202V40.2266H773.671V35.9023H782.565V35.0059H773.653V33.3184ZM773.794 24.6875H784.728V26.4805H776.026V27.9746H784.851V29.7324H773.794V24.6875ZM801.392 40.3672H799.247V24.3711H801.392V40.3672ZM787.663 31.2969C787.663 30.1191 787.804 29.0938 788.085 28.2207C788.372 27.3477 788.776 26.6797 789.298 26.2168C789.825 25.748 790.44 25.5137 791.144 25.5137C791.782 25.5137 792.348 25.7041 792.84 26.085C793.338 26.4658 793.739 27.0166 794.044 27.7373C794.354 28.4521 794.551 29.3047 794.633 30.2949H795.942V24.5996H798.052V39.6289H795.942V32.0703H794.65C794.586 33.1074 794.401 34.0068 794.097 34.7686C793.792 35.5244 793.385 36.1045 792.875 36.5088C792.371 36.9131 791.794 37.1152 791.144 37.1152C790.44 37.1152 789.825 36.8809 789.298 36.4121C788.776 35.9375 788.372 35.2637 788.085 34.3906C787.804 33.5117 787.663 32.4805 787.663 31.2969ZM789.737 31.2969C789.731 32.5098 789.849 33.4268 790.089 34.0479C790.335 34.6631 790.687 34.9648 791.144 34.9531C791.606 34.9648 791.964 34.666 792.216 34.0566C792.474 33.4473 792.603 32.5479 792.603 31.3584C792.603 30.1221 792.477 29.1904 792.225 28.5635C791.973 27.9365 791.612 27.623 791.144 27.623C790.687 27.623 790.335 27.9336 790.089 28.5547C789.849 29.1758 789.731 30.0898 789.737 31.2969ZM816.948 40.3672H814.839V24.3711H816.948V40.3672ZM802.886 35.4629C804.474 34.5195 805.657 33.4531 806.437 32.2637C807.222 31.0742 807.693 29.6797 807.852 28.0801H803.765V26.2695H810.075C810.075 27.8574 809.891 29.2812 809.521 30.541H811.446V24.7227H813.538V39.6641H811.446V32.3164H808.827C808.358 33.2539 807.74 34.1152 806.973 34.9004C806.205 35.6855 805.265 36.4004 804.151 37.0449L802.886 35.4629ZM938.009 40.3672H935.882V24.3711H938.009V40.3672ZM923.841 35.6914C924.948 35.0117 925.763 34.042 926.284 32.7822C926.812 31.5166 927.075 30.1426 927.075 28.6602V27.7988H924.456V26.0059H931.663V27.7988H929.237V28.6602C929.231 30.1074 929.48 31.4258 929.984 32.6152C930.494 33.8047 931.3 34.7129 932.401 35.3398L931.083 36.9922C929.735 36.1953 928.766 34.8652 928.174 33.002C927.893 33.9746 927.503 34.833 927.005 35.5771C926.507 36.3213 925.903 36.9102 925.194 37.3438L923.841 35.6914ZM930.521 29.8555H932.63V24.6348H934.739V39.6289H932.63V31.666H930.521V29.8555ZM946.938 34.3379C948.104 34.3379 949.115 34.458 949.971 34.6982C950.826 34.9326 951.485 35.2783 951.948 35.7354C952.411 36.1865 952.646 36.7285 952.651 37.3613C952.646 37.9824 952.411 38.5186 951.948 38.9697C951.485 39.4268 950.823 39.7725 949.962 40.0068C949.106 40.2471 948.099 40.3672 946.938 40.3672C945.784 40.3672 944.776 40.2471 943.915 40.0068C943.06 39.7725 942.4 39.4268 941.938 38.9697C941.475 38.5186 941.243 37.9824 941.243 37.3613C941.243 36.7285 941.475 36.1865 941.938 35.7354C942.4 35.2783 943.06 34.9326 943.915 34.6982C944.776 34.458 945.784 34.3379 946.938 34.3379ZM939.767 31.5078H945.216V28.7129H947.431V31.5078H954.286V33.3184H939.767V31.5078ZM941.401 25.0918H952.563V26.3926V26.8584C952.563 27.5615 952.534 28.2119 952.476 28.8096C952.417 29.4072 952.294 30.0312 952.106 30.6816L949.909 30.4707C950.073 29.8145 950.182 29.2168 950.234 28.6777C950.287 28.1328 950.319 27.5234 950.331 26.8496H941.401V25.0918ZM943.476 37.3613C943.47 37.7891 943.766 38.1143 944.363 38.3369C944.967 38.5537 945.825 38.6621 946.938 38.6621C948.052 38.6621 948.91 38.5537 949.514 38.3369C950.117 38.1143 950.419 37.7891 950.419 37.3613C950.419 36.9219 950.12 36.5879 949.522 36.3594C948.931 36.125 948.09 36.0078 947 36.0078C945.863 36.0078 944.99 36.1221 944.381 36.3506C943.771 36.5791 943.47 36.916 943.476 37.3613Z" fill="#0F172A"/>
<path d="M837.321 34.2148H822.608V32.1934H828.655V31.0156H824.472V24.7051H826.95V26.0586H832.944V24.7051H835.44V31.0156H831.204V32.1934H837.321V34.2148ZM824.243 35.1641H835.546V40.4375H833.015V37.1504H824.243V35.1641ZM832.944 29.0293V27.9043H826.95V29.0293H832.944ZM851.015 28.1152H853.106V30.207H851.015V33.7754H848.483V24.3008H851.015V28.1152ZM838.147 25.6367H841.663V24.2129H844.194V25.6367H847.71V27.623H838.147V25.6367ZM838.903 30.8398C838.903 30.2773 839.07 29.7793 839.404 29.3457C839.744 28.9121 840.219 28.5752 840.828 28.335C841.443 28.0947 842.144 27.9746 842.929 27.9746C843.708 27.9746 844.399 28.0947 845.003 28.335C845.612 28.5752 846.087 28.9121 846.427 29.3457C846.767 29.7793 846.937 30.2773 846.937 30.8398C846.937 31.4023 846.767 31.9004 846.427 32.334C846.087 32.7676 845.612 33.1016 845.003 33.3359C844.399 33.5703 843.708 33.6875 842.929 33.6875C842.144 33.6875 841.443 33.5703 840.828 33.3359C840.219 33.1016 839.744 32.7676 839.404 32.334C839.07 31.9004 838.903 31.4023 838.903 30.8398ZM840.345 34.3555H842.858V35.4453H848.483V34.3555H851.015V40.2617H840.345V34.3555ZM841.364 30.8398C841.364 31.1738 841.499 31.4287 841.769 31.6045C842.044 31.7744 842.419 31.8594 842.894 31.8594C843.397 31.8594 843.793 31.7744 844.08 31.6045C844.373 31.4346 844.522 31.1797 844.528 30.8398C844.522 30.5176 844.379 30.2686 844.098 30.0928C843.816 29.9111 843.438 29.8203 842.964 29.8203C842.472 29.8203 842.082 29.9082 841.795 30.084C841.508 30.2598 841.364 30.5117 841.364 30.8398ZM848.483 38.293V37.3613H842.858V38.293H848.483ZM872.478 34.1797H866.571V36.7988H864.075V34.1797H857.729V32.1758H872.478V34.1797ZM859.399 35.4629H861.931V38.1523H870.86V40.1738H859.399V35.4629ZM859.54 24.9863H870.597V31.0332H859.54V24.9863ZM868.118 29.082V26.9375H862.019V29.082H868.118ZM886.329 30.7695H888.28V32.8438H886.329V40.4375H883.763V24.3008H886.329V30.7695ZM873.128 35.7969C874.751 35.7969 876.022 35.7881 876.942 35.7705V34.5049C876.392 34.3877 875.908 34.1914 875.492 33.916C875.082 33.6406 874.766 33.3037 874.543 32.9053C874.326 32.5068 874.218 32.0703 874.218 31.5957C874.218 31.0039 874.385 30.4766 874.719 30.0137C875.059 29.5508 875.533 29.1934 876.143 28.9414C876.752 28.6836 877.446 28.5547 878.226 28.5547C878.993 28.5547 879.682 28.6836 880.291 28.9414C880.9 29.1992 881.375 29.5596 881.715 30.0225C882.061 30.4795 882.233 31.0039 882.233 31.5957C882.233 32.0762 882.119 32.5156 881.891 32.9141C881.662 33.3125 881.34 33.6494 880.924 33.9248C880.508 34.2002 880.024 34.3965 879.474 34.5137V35.6826C880.874 35.6006 882.058 35.4922 883.024 35.3574L883.2 37.1855C881.694 37.4727 880.162 37.6572 878.604 37.7393C877.051 37.8154 875.331 37.8535 873.444 37.8535L873.128 35.7969ZM873.427 26.041H876.942V24.4062H879.474V26.041H882.954V28.0273H873.427V26.041ZM876.626 31.5957C876.62 31.9648 876.761 32.2461 877.048 32.4395C877.335 32.6328 877.728 32.7324 878.226 32.7383C878.718 32.7324 879.104 32.6328 879.386 32.4395C879.673 32.2461 879.813 31.9648 879.808 31.5957C879.813 31.2324 879.673 30.9541 879.386 30.7607C879.099 30.5674 878.712 30.4707 878.226 30.4707C877.728 30.4707 877.335 30.5674 877.048 30.7607C876.761 30.9541 876.62 31.2324 876.626 31.5957ZM896.12 34.3027C897.298 34.3027 898.32 34.4258 899.188 34.6719C900.055 34.9121 900.723 35.2637 901.191 35.7266C901.66 36.1836 901.897 36.7344 901.903 37.3789C901.897 38.0117 901.66 38.5596 901.191 39.0225C900.723 39.4854 900.052 39.8369 899.179 40.0771C898.312 40.3232 897.292 40.4434 896.12 40.4375C894.954 40.4434 893.935 40.3232 893.062 40.0771C892.194 39.8369 891.523 39.4854 891.049 39.0225C890.574 38.5596 890.337 38.0117 890.337 37.3789C890.337 36.7344 890.571 36.1836 891.04 35.7266C891.515 35.2637 892.186 34.9121 893.053 34.6719C893.926 34.4258 894.948 34.3027 896.12 34.3027ZM888.913 31.4023H894.204V28.6602H896.7V31.4023H903.538V33.4414H888.913V31.4023ZM890.53 25.0039H901.833V26.3047V26.7705C901.833 27.4795 901.804 28.1357 901.745 28.7393C901.687 29.3428 901.563 29.9727 901.376 30.6289L898.88 30.4004C899.038 29.7734 899.144 29.1963 899.196 28.6689C899.255 28.1357 899.287 27.5703 899.293 26.9727H890.53V25.0039ZM892.868 37.3789C892.862 37.7715 893.132 38.0615 893.677 38.249C894.228 38.4365 895.042 38.5332 896.12 38.5391C898.3 38.5273 899.39 38.1406 899.39 37.3789C899.39 36.9805 899.114 36.6816 898.563 36.4824C898.019 36.2832 897.228 36.1836 896.19 36.1836C893.97 36.1836 892.862 36.582 892.868 37.3789ZM917.267 28.6953H919.358V30.7695H917.267V35.7793H914.7V24.3008H917.267V28.6953ZM904.276 32.3164C905.993 31.8535 907.338 31.209 908.311 30.3828C909.289 29.5566 909.872 28.6133 910.06 27.5527H904.979V25.4961H912.854C912.854 27.7051 912.21 29.5596 910.921 31.0596C909.638 32.5537 907.769 33.6348 905.313 34.3027L904.276 32.3164ZM906.649 34.6016H909.216V38.1523H917.759V40.1738H906.649V34.6016Z" fill="#2F5BC1"/>
<path d="M831.797 92.3767L831.797 77L849.452 94.0852L867.106 77L867.106 92.3767L849.452 109.462L831.797 92.3767Z" fill="url(#paint3_linear_364_16511)"/>
<rect x="699.951" y="119.462" width="299" height="55" rx="12.5" fill="#EDF4FF"/>
<path d="M765.129 152.663H750.486V150.87H756.604V147.249H758.836V150.87H765.129V152.663ZM750.838 145.896C751.998 145.714 753.006 145.354 753.861 144.814C754.723 144.275 755.379 143.637 755.83 142.898C756.281 142.16 756.51 141.407 756.516 140.64V139.497H758.906V140.64C758.9 141.413 759.123 142.169 759.574 142.907C760.031 143.646 760.693 144.284 761.561 144.823C762.428 145.356 763.447 145.714 764.619 145.896L763.67 147.759C762.287 147.507 761.083 147.029 760.058 146.326C759.032 145.623 758.25 144.765 757.711 143.751C757.178 144.765 756.398 145.626 755.373 146.335C754.354 147.038 753.158 147.513 751.787 147.759L750.838 145.896ZM771.879 141.097C771.873 141.765 772.002 142.4 772.266 143.004C772.535 143.602 772.942 144.135 773.487 144.604C774.038 145.072 774.721 145.433 775.535 145.685L774.34 147.425C773.508 147.149 772.793 146.751 772.195 146.229C771.598 145.708 771.123 145.09 770.771 144.375C770.414 145.201 769.919 145.916 769.286 146.52C768.659 147.117 767.9 147.565 767.01 147.864L765.797 146.106C766.658 145.819 767.373 145.409 767.941 144.876C768.51 144.343 768.932 143.736 769.207 143.057C769.482 142.371 769.623 141.647 769.629 140.886V139.427H771.879V141.097ZM768.012 151.485C768.012 150.847 768.231 150.296 768.671 149.833C769.116 149.364 769.752 149.007 770.578 148.761C771.404 148.515 772.377 148.392 773.496 148.392C774.598 148.392 775.553 148.515 776.361 148.761C777.17 149.007 777.794 149.364 778.233 149.833C778.673 150.296 778.893 150.847 778.893 151.485C778.893 152.13 778.673 152.684 778.233 153.146C777.794 153.615 777.17 153.97 776.361 154.21C775.553 154.456 774.598 154.579 773.496 154.579C772.377 154.579 771.404 154.456 770.578 154.21C769.752 153.97 769.116 153.615 768.671 153.146C768.231 152.684 768.012 152.13 768.012 151.485ZM770.262 151.485C770.256 151.931 770.525 152.265 771.07 152.487C771.621 152.71 772.43 152.821 773.496 152.821C775.617 152.821 776.678 152.376 776.678 151.485C776.678 151.052 776.405 150.721 775.86 150.492C775.321 150.264 774.533 150.149 773.496 150.149C772.441 150.149 771.636 150.264 771.079 150.492C770.528 150.721 770.256 151.052 770.262 151.485ZM776.484 138.583H778.734V142.327H780.896V144.19H778.734V148.075H776.484V138.583ZM788.807 148.55C789.973 148.55 790.983 148.67 791.839 148.91C792.694 149.145 793.354 149.49 793.816 149.947C794.279 150.398 794.514 150.94 794.52 151.573C794.514 152.194 794.279 152.73 793.816 153.182C793.354 153.639 792.691 153.984 791.83 154.219C790.975 154.459 789.967 154.579 788.807 154.579C787.652 154.579 786.645 154.459 785.783 154.219C784.928 153.984 784.269 153.639 783.806 153.182C783.343 152.73 783.111 152.194 783.111 151.573C783.111 150.94 783.343 150.398 783.806 149.947C784.269 149.49 784.928 149.145 785.783 148.91C786.645 148.67 787.652 148.55 788.807 148.55ZM781.635 145.72H787.084V142.925H789.299V145.72H796.154V147.53H781.635V145.72ZM783.27 139.304H794.432V140.604V141.07C794.432 141.773 794.402 142.424 794.344 143.021C794.285 143.619 794.162 144.243 793.975 144.894L791.777 144.683C791.941 144.026 792.05 143.429 792.103 142.89C792.155 142.345 792.188 141.735 792.199 141.062H783.27V139.304ZM785.344 151.573C785.338 152.001 785.634 152.326 786.231 152.549C786.835 152.766 787.693 152.874 788.807 152.874C789.92 152.874 790.778 152.766 791.382 152.549C791.985 152.326 792.287 152.001 792.287 151.573C792.287 151.134 791.988 150.8 791.391 150.571C790.799 150.337 789.958 150.22 788.868 150.22C787.731 150.22 786.858 150.334 786.249 150.562C785.64 150.791 785.338 151.128 785.344 151.573ZM810.551 150.097H808.301V138.601H810.551V150.097ZM797.402 143.646C797.402 142.878 797.596 142.187 797.982 141.571C798.369 140.956 798.894 140.479 799.556 140.139C800.224 139.793 800.965 139.62 801.779 139.62C802.588 139.62 803.326 139.793 803.994 140.139C804.662 140.479 805.189 140.956 805.576 141.571C805.963 142.187 806.156 142.878 806.156 143.646C806.156 144.425 805.963 145.125 805.576 145.746C805.189 146.361 804.662 146.842 803.994 147.188C803.326 147.533 802.588 147.706 801.779 147.706C800.965 147.706 800.224 147.533 799.556 147.188C798.888 146.842 798.36 146.361 797.974 145.746C797.593 145.125 797.402 144.425 797.402 143.646ZM799.6 143.646C799.594 144.079 799.685 144.457 799.872 144.779C800.06 145.096 800.317 145.339 800.646 145.509C800.979 145.673 801.357 145.755 801.779 145.755C802.189 145.755 802.556 145.673 802.878 145.509C803.206 145.339 803.464 145.096 803.651 144.779C803.845 144.457 803.941 144.079 803.941 143.646C803.941 143.224 803.845 142.854 803.651 142.538C803.464 142.222 803.206 141.981 802.878 141.817C802.55 141.647 802.184 141.565 801.779 141.571C801.357 141.565 800.979 141.647 800.646 141.817C800.317 141.981 800.06 142.222 799.872 142.538C799.685 142.854 799.594 143.224 799.6 143.646ZM799.828 148.937H802.096V152.505H810.973V154.298H799.828V148.937ZM827.338 146.581H812.713V144.823H827.338V146.581ZM814.4 147.53H825.527V151.714H816.615V152.698H825.949V154.438H814.418V150.114H823.312V149.218H814.4V147.53ZM814.541 138.899H825.475V140.692H816.773V142.187H825.598V143.944H814.541V138.899ZM833.455 139.655C834.293 139.655 835.049 139.822 835.723 140.156C836.396 140.49 836.924 140.956 837.305 141.554C837.691 142.146 837.885 142.819 837.885 143.575C837.885 144.331 837.691 145.008 837.305 145.605C836.924 146.203 836.396 146.672 835.723 147.012C835.049 147.346 834.293 147.513 833.455 147.513C832.623 147.513 831.867 147.346 831.188 147.012C830.508 146.672 829.975 146.203 829.588 145.605C829.201 145.008 829.008 144.331 829.008 143.575C829.008 142.825 829.201 142.151 829.588 141.554C829.975 140.956 830.508 140.49 831.188 140.156C831.867 139.822 832.623 139.655 833.455 139.655ZM828.999 149.517C830.757 149.517 832.436 149.481 834.035 149.411C835.641 149.341 837.152 149.206 838.57 149.007L838.746 150.624C837.176 150.929 835.579 151.125 833.956 151.213C832.339 151.301 830.555 151.345 828.604 151.345L828.34 149.517H828.999ZM831.24 143.575C831.24 143.985 831.334 144.343 831.521 144.647C831.715 144.946 831.979 145.175 832.312 145.333C832.652 145.491 833.033 145.567 833.455 145.562C833.883 145.567 834.267 145.491 834.606 145.333C834.946 145.175 835.213 144.946 835.406 144.647C835.605 144.343 835.705 143.985 835.705 143.575C835.705 143.171 835.605 142.819 835.406 142.521C835.213 142.216 834.946 141.984 834.606 141.826C834.267 141.668 833.883 141.589 833.455 141.589C833.033 141.589 832.652 141.668 832.312 141.826C831.979 141.984 831.715 142.216 831.521 142.521C831.334 142.819 831.24 143.171 831.24 143.575ZM839.484 138.583H841.717V154.614H839.484V138.583ZM932.895 152.716H918.252V150.888H924.422V147.935H919.799V139.603H922.049V142.081H929.027V139.603H931.26V147.935H926.654V150.888H932.895V152.716ZM929.027 146.142V143.874H922.049V146.142H929.027ZM942.896 141.448H939.715C939.721 142.087 939.855 142.696 940.119 143.276C940.389 143.856 940.799 144.372 941.35 144.823C941.9 145.274 942.586 145.62 943.406 145.86L942.334 147.618C941.473 147.354 940.731 146.968 940.11 146.458C939.489 145.948 938.997 145.342 938.634 144.639C938.265 145.465 937.749 146.183 937.087 146.792C936.431 147.396 935.637 147.853 934.705 148.163L933.562 146.388C934.412 146.118 935.127 145.729 935.707 145.219C936.287 144.709 936.718 144.129 936.999 143.479C937.286 142.828 937.436 142.151 937.447 141.448H934.178V139.655H942.896V141.448ZM935.777 151.468C935.777 150.823 935.997 150.27 936.437 149.807C936.876 149.344 937.509 148.992 938.335 148.752C939.161 148.512 940.137 148.392 941.262 148.392C942.369 148.392 943.327 148.512 944.136 148.752C944.944 148.992 945.565 149.344 945.999 149.807C946.438 150.27 946.658 150.823 946.658 151.468C946.658 152.118 946.438 152.675 945.999 153.138C945.565 153.606 944.944 153.964 944.136 154.21C943.327 154.456 942.369 154.579 941.262 154.579C940.137 154.579 939.161 154.456 938.335 154.21C937.515 153.964 936.882 153.606 936.437 153.138C935.997 152.669 935.777 152.112 935.777 151.468ZM938.027 151.468C938.021 151.919 938.294 152.262 938.845 152.496C939.396 152.725 940.201 152.839 941.262 152.839C942.305 152.839 943.096 152.725 943.635 152.496C944.174 152.268 944.443 151.925 944.443 151.468C944.443 151.028 944.177 150.697 943.644 150.475C943.116 150.246 942.343 150.132 941.323 150.132C940.239 150.132 939.416 150.243 938.854 150.466C938.297 150.688 938.021 151.022 938.027 151.468ZM944.25 138.583H946.5V142.292H948.662V144.12H946.5V148.075H944.25V138.583Z" fill="#0F172A"/>
<path d="M853.881 140.06C853.869 141.138 854.153 142.084 854.733 142.898C855.313 143.707 856.242 144.302 857.52 144.683L856.184 146.634C855.352 146.376 854.64 146.001 854.048 145.509C853.462 145.017 852.993 144.428 852.642 143.742C852.267 144.533 851.757 145.213 851.112 145.781C850.468 146.35 849.686 146.78 848.766 147.073L847.465 145.052C848.361 144.788 849.097 144.404 849.671 143.9C850.245 143.396 850.661 142.822 850.919 142.178C851.183 141.533 851.314 140.856 851.314 140.147V139.128H853.881V140.06ZM848.994 147.653H854.391V151.907H851.49V152.681C852.152 152.669 852.715 152.646 853.178 152.61C853.646 152.575 854.121 152.511 854.602 152.417L854.812 154.28C854.168 154.409 853.523 154.491 852.879 154.526C852.234 154.562 851.285 154.579 850.031 154.579H849.012V150.149H851.947V149.481H848.994V147.653ZM855.182 147.653H860.648V154.579H855.182V147.653ZM858.486 152.751V149.481H857.361V152.751H858.486ZM858.117 138.513H860.648V141.624H862.74V143.663H860.648V147.056H858.117V138.513ZM868.559 139.567C869.402 139.567 870.167 139.74 870.853 140.086C871.538 140.426 872.077 140.9 872.47 141.51C872.868 142.119 873.07 142.808 873.076 143.575C873.07 144.343 872.868 145.034 872.47 145.649C872.077 146.259 871.538 146.733 870.853 147.073C870.167 147.413 869.402 147.583 868.559 147.583C867.721 147.583 866.956 147.413 866.265 147.073C865.579 146.733 865.037 146.259 864.639 145.649C864.24 145.034 864.041 144.343 864.041 143.575C864.041 142.808 864.24 142.119 864.639 141.51C865.037 140.9 865.579 140.426 866.265 140.086C866.956 139.74 867.721 139.567 868.559 139.567ZM864.015 149.429C867.958 149.429 871.16 149.259 873.621 148.919L873.814 150.747C872.25 151.052 870.653 151.248 869.024 151.336C867.401 151.424 865.629 151.468 863.707 151.468L863.426 149.429H864.015ZM866.555 143.575C866.555 143.962 866.64 144.293 866.81 144.568C866.985 144.844 867.223 145.052 867.521 145.192C867.82 145.333 868.157 145.403 868.532 145.403C869.136 145.403 869.631 145.245 870.018 144.929C870.41 144.612 870.609 144.161 870.615 143.575C870.609 143.194 870.516 142.866 870.334 142.591C870.158 142.315 869.915 142.107 869.604 141.967C869.3 141.82 868.951 141.747 868.559 141.747C868.178 141.747 867.835 141.82 867.53 141.967C867.226 142.107 866.985 142.315 866.81 142.591C866.64 142.866 866.555 143.194 866.555 143.575ZM874.482 138.513H876.996V154.685H874.482V138.513ZM896.613 154.685H894.117V146.106H891.463V144.085H894.117V138.513H896.613V154.685ZM883.676 139.831H891.217V141.87H886.207V144.313H890.672V146.282H886.207V149.051C887.309 149.039 888.305 149.007 889.195 148.954C890.092 148.901 890.988 148.808 891.885 148.673L892.131 150.677C891.035 150.841 889.939 150.952 888.844 151.011C887.754 151.069 886.465 151.104 884.977 151.116H883.676V139.831ZM912.152 150.29H909.639V144.647H907.213V142.608H909.639V138.53H912.152V150.29ZM898.354 146.528C899.232 146.265 899.953 145.878 900.516 145.368C901.084 144.853 901.497 144.272 901.755 143.628C902.013 142.983 902.145 142.31 902.15 141.606V141.571H899.057V139.55H907.811V141.571H904.734V141.624C904.734 142.263 904.857 142.887 905.104 143.496C905.355 144.1 905.751 144.647 906.29 145.14C906.835 145.626 907.523 146.001 908.355 146.265L907.125 148.269C906.27 147.993 905.537 147.595 904.928 147.073C904.318 146.552 903.835 145.931 903.478 145.21C903.108 146.007 902.604 146.695 901.966 147.275C901.333 147.85 900.562 148.28 899.654 148.567L898.354 146.528ZM901.342 149.271H903.873V152.364H912.521V154.386H901.342V149.271Z" fill="#2F5BC1"/>
<path d="M831.797 199.839L831.797 184.462L849.452 201.547L867.106 184.462L867.106 199.839L849.452 216.924L831.797 199.839Z" fill="url(#paint4_linear_364_16511)"/>
<rect x="701.451" y="226.924" width="296" height="55" rx="12.5" fill="#EDF4FF"/>
<path d="M763.459 251.846H758.906V253.445H765.111V255.238H750.486V253.445H756.674V251.846H752.332V246.291H754.564V250.053H763.459V251.846ZM752.156 259.07C752.156 258.443 752.379 257.907 752.824 257.462C753.275 257.017 753.92 256.68 754.758 256.451C755.602 256.217 756.604 256.1 757.764 256.1C758.918 256.1 759.911 256.217 760.743 256.451C761.575 256.68 762.214 257.017 762.659 257.462C763.104 257.907 763.33 258.443 763.336 259.07C763.33 259.697 763.104 260.233 762.659 260.679C762.214 261.124 761.575 261.461 760.743 261.689C759.911 261.924 758.918 262.041 757.764 262.041C756.604 262.041 755.602 261.924 754.758 261.689C753.92 261.461 753.275 261.124 752.824 260.679C752.379 260.233 752.156 259.697 752.156 259.07ZM754.441 259.07C754.436 259.486 754.711 259.803 755.268 260.02C755.83 260.23 756.662 260.336 757.764 260.336C758.848 260.336 759.671 260.23 760.233 260.02C760.796 259.803 761.08 259.486 761.086 259.07C761.08 258.238 759.996 257.822 757.834 257.822C756.691 257.822 755.839 257.925 755.276 258.13C754.714 258.329 754.436 258.643 754.441 259.07ZM774.674 255.045H766.852V247.328H774.674V255.045ZM768.715 256.381H770.982V259.879H779.859V261.689H768.715V256.381ZM772.441 253.27V249.104H769.066V253.27H772.441ZM777.188 246.062H779.438V257.436H777.188V246.062ZM796.225 254.043H781.6V252.285H796.225V254.043ZM783.287 254.992H794.414V259.176H785.502V260.16H794.836V261.9H783.305V257.576H792.199V256.68H783.287V254.992ZM783.428 246.361H794.361V248.154H785.66V249.648H794.484V251.406H783.428V246.361ZM802.342 247.117C803.18 247.117 803.936 247.284 804.609 247.618C805.283 247.952 805.811 248.418 806.191 249.016C806.578 249.607 806.771 250.281 806.771 251.037C806.771 251.793 806.578 252.47 806.191 253.067C805.811 253.665 805.283 254.134 804.609 254.474C803.936 254.808 803.18 254.975 802.342 254.975C801.51 254.975 800.754 254.808 800.074 254.474C799.395 254.134 798.861 253.665 798.475 253.067C798.088 252.47 797.895 251.793 797.895 251.037C797.895 250.287 798.088 249.613 798.475 249.016C798.861 248.418 799.395 247.952 800.074 247.618C800.754 247.284 801.51 247.117 802.342 247.117ZM797.886 256.979C799.644 256.979 801.322 256.943 802.922 256.873C804.527 256.803 806.039 256.668 807.457 256.469L807.633 258.086C806.062 258.391 804.466 258.587 802.843 258.675C801.226 258.763 799.441 258.807 797.49 258.807L797.227 256.979H797.886ZM800.127 251.037C800.127 251.447 800.221 251.805 800.408 252.109C800.602 252.408 800.865 252.637 801.199 252.795C801.539 252.953 801.92 253.029 802.342 253.023C802.77 253.029 803.153 252.953 803.493 252.795C803.833 252.637 804.1 252.408 804.293 252.109C804.492 251.805 804.592 251.447 804.592 251.037C804.592 250.633 804.492 250.281 804.293 249.982C804.1 249.678 803.833 249.446 803.493 249.288C803.153 249.13 802.77 249.051 802.342 249.051C801.92 249.051 801.539 249.13 801.199 249.288C800.865 249.446 800.602 249.678 800.408 249.982C800.221 250.281 800.127 250.633 800.127 251.037ZM808.371 246.045H810.604V262.076H808.371V246.045ZM932.895 260.178H918.252V258.35H924.422V255.396H919.799V247.064H922.049V249.543H929.027V247.064H931.26V255.396H926.654V258.35H932.895V260.178ZM929.027 253.604V251.336H922.049V253.604H929.027ZM942.896 248.91H939.715C939.721 249.549 939.855 250.158 940.119 250.738C940.389 251.318 940.799 251.834 941.35 252.285C941.9 252.736 942.586 253.082 943.406 253.322L942.334 255.08C941.473 254.816 940.731 254.43 940.11 253.92C939.489 253.41 938.997 252.804 938.634 252.101C938.265 252.927 937.749 253.645 937.087 254.254C936.431 254.857 935.637 255.314 934.705 255.625L933.562 253.85C934.412 253.58 935.127 253.19 935.707 252.681C936.287 252.171 936.718 251.591 936.999 250.94C937.286 250.29 937.436 249.613 937.447 248.91H934.178V247.117H942.896V248.91ZM935.777 258.93C935.777 258.285 935.997 257.731 936.437 257.269C936.876 256.806 937.509 256.454 938.335 256.214C939.161 255.974 940.137 255.854 941.262 255.854C942.369 255.854 943.327 255.974 944.136 256.214C944.944 256.454 945.565 256.806 945.999 257.269C946.438 257.731 946.658 258.285 946.658 258.93C946.658 259.58 946.438 260.137 945.999 260.6C945.565 261.068 944.944 261.426 944.136 261.672C943.327 261.918 942.369 262.041 941.262 262.041C940.137 262.041 939.161 261.918 938.335 261.672C937.515 261.426 936.882 261.068 936.437 260.6C935.997 260.131 935.777 259.574 935.777 258.93ZM938.027 258.93C938.021 259.381 938.294 259.724 938.845 259.958C939.396 260.187 940.201 260.301 941.262 260.301C942.305 260.301 943.096 260.187 943.635 259.958C944.174 259.729 944.443 259.387 944.443 258.93C944.443 258.49 944.177 258.159 943.644 257.937C943.116 257.708 942.343 257.594 941.323 257.594C940.239 257.594 939.416 257.705 938.854 257.928C938.297 258.15 938.021 258.484 938.027 258.93ZM944.25 246.045H946.5V249.754H948.662V251.582H946.5V255.537H944.25V246.045Z" fill="#0F172A"/>
<path d="M829.535 250.527H831.627V252.602H829.535V257.682H827.004V245.992H829.535V250.527ZM816.738 251.125C816.732 250.34 816.926 249.634 817.318 249.007C817.717 248.374 818.259 247.882 818.944 247.53C819.636 247.173 820.395 246.994 821.221 246.994C822.041 246.994 822.791 247.173 823.471 247.53C824.15 247.882 824.687 248.374 825.079 249.007C825.472 249.634 825.668 250.34 825.668 251.125C825.668 251.904 825.472 252.61 825.079 253.243C824.687 253.87 824.15 254.362 823.471 254.72C822.791 255.077 822.041 255.256 821.221 255.256C820.395 255.256 819.639 255.077 818.953 254.72C818.268 254.362 817.726 253.87 817.327 253.243C816.929 252.61 816.732 251.904 816.738 251.125ZM818.953 256.451H821.484V259.826H830.062V261.848H818.953V256.451ZM819.217 251.125C819.217 251.518 819.305 251.86 819.48 252.153C819.656 252.446 819.896 252.672 820.201 252.83C820.506 252.982 820.846 253.059 821.221 253.059C821.596 253.059 821.933 252.982 822.231 252.83C822.53 252.672 822.768 252.449 822.943 252.162C823.119 251.869 823.207 251.523 823.207 251.125C823.207 250.715 823.119 250.366 822.943 250.079C822.768 249.786 822.53 249.563 822.231 249.411C821.933 249.259 821.596 249.186 821.221 249.191C820.846 249.186 820.506 249.259 820.201 249.411C819.896 249.563 819.656 249.786 819.48 250.079C819.305 250.372 819.217 250.721 819.217 251.125ZM845.9 255.555H843.387V251.863H841.102V249.824H843.387V245.975H845.9V255.555ZM832.084 253.604C832.916 253.334 833.607 252.956 834.158 252.47C834.715 251.978 835.131 251.427 835.406 250.817C835.688 250.208 835.849 249.572 835.89 248.91H832.805V246.889H841.559V248.91H838.5C838.564 249.854 838.893 250.712 839.484 251.485C840.076 252.259 840.949 252.836 842.104 253.217L840.873 255.203C840.023 254.934 839.294 254.538 838.685 254.017C838.081 253.495 837.598 252.877 837.234 252.162C836.871 252.971 836.37 253.671 835.731 254.263C835.093 254.854 834.316 255.303 833.402 255.607L832.084 253.604ZM834.756 259C834.756 258.35 834.979 257.79 835.424 257.321C835.875 256.847 836.52 256.483 837.357 256.231C838.195 255.979 839.186 255.854 840.328 255.854C841.488 255.854 842.487 255.979 843.325 256.231C844.169 256.483 844.816 256.844 845.268 257.312C845.725 257.781 845.953 258.344 845.953 259C845.953 259.656 845.725 260.219 845.268 260.688C844.816 261.156 844.169 261.517 843.325 261.769C842.487 262.021 841.488 262.146 840.328 262.146C839.186 262.146 838.195 262.021 837.357 261.769C836.52 261.517 835.875 261.153 835.424 260.679C834.979 260.21 834.756 259.65 834.756 259ZM837.27 259C837.27 259.809 838.266 260.213 840.258 260.213C841.318 260.213 842.112 260.116 842.64 259.923C843.167 259.724 843.434 259.416 843.439 259C843.434 258.578 843.173 258.268 842.657 258.068C842.142 257.869 841.365 257.77 840.328 257.77C839.309 257.77 838.544 257.869 838.034 258.068C837.524 258.268 837.27 258.578 837.27 259ZM857.115 248.822H854.048C854.083 249.438 854.229 250.029 854.487 250.598C854.751 251.16 855.146 251.67 855.674 252.127C856.201 252.584 856.863 252.941 857.66 253.199L856.43 255.15C855.574 254.893 854.845 254.506 854.241 253.99C853.638 253.469 853.151 252.848 852.782 252.127C852.419 252.924 851.918 253.609 851.279 254.184C850.641 254.758 849.867 255.186 848.959 255.467L847.658 253.48C848.496 253.217 849.19 252.842 849.741 252.355C850.298 251.869 850.711 251.324 850.98 250.721C851.256 250.111 851.411 249.479 851.446 248.822H848.361V246.818H857.115V248.822ZM850.312 256.24H861.457V262.111H858.943V258.244H850.312V256.24ZM856.676 249.754H858.943V245.975H861.457V255.572H858.943V251.811H856.676V249.754ZM876.908 257.523H874.377V245.992H876.908V257.523ZM863.566 251.09C863.566 250.316 863.763 249.616 864.155 248.989C864.548 248.362 865.084 247.873 865.764 247.521C866.449 247.17 867.205 246.994 868.031 246.994C868.857 246.994 869.61 247.17 870.29 247.521C870.97 247.873 871.506 248.362 871.898 248.989C872.297 249.61 872.496 250.311 872.496 251.09C872.496 251.881 872.297 252.59 871.898 253.217C871.506 253.844 870.97 254.336 870.29 254.693C869.61 255.045 868.857 255.221 868.031 255.221C867.205 255.221 866.449 255.045 865.764 254.693C865.084 254.336 864.548 253.844 864.155 253.217C863.763 252.59 863.566 251.881 863.566 251.09ZM865.975 256.363H868.541V259.826H877.312V261.848H865.975V256.363ZM866.027 251.09C866.027 251.5 866.112 251.852 866.282 252.145C866.458 252.432 866.695 252.651 866.994 252.804C867.299 252.95 867.645 253.023 868.031 253.023C868.4 253.023 868.734 252.95 869.033 252.804C869.332 252.651 869.563 252.429 869.728 252.136C869.897 251.843 869.982 251.494 869.982 251.09C869.982 250.691 869.897 250.349 869.728 250.062C869.558 249.774 869.323 249.558 869.024 249.411C868.731 249.259 868.4 249.186 868.031 249.191C867.645 249.186 867.299 249.259 866.994 249.411C866.695 249.558 866.458 249.774 866.282 250.062C866.112 250.349 866.027 250.691 866.027 251.09ZM891.92 249.279H890.707V253.48C891.457 253.41 892.025 253.352 892.412 253.305L892.605 255.15C891.24 255.391 889.799 255.555 888.281 255.643C886.764 255.725 885.188 255.766 883.553 255.766H883.078L882.797 253.762C883.125 253.762 883.676 253.756 884.449 253.744V249.279H883.219V247.275H891.92V249.279ZM885.205 256.75H887.736V259.826H896.314V261.848H885.205V256.75ZM888.281 253.639V249.279H886.875V253.691L888.281 253.639ZM893.256 245.992H895.787V250.422H897.879V252.496H895.787V257.875H893.256V245.992ZM913.242 260.371H898.494V258.314H904.594V256.064H900.146V250.51H909.094V248.998H900.129V246.977H911.59V252.479H902.678V254.025H911.959V256.064H907.09V258.314H913.242V260.371Z" fill="#2F5BC1"/>
<path fill-rule="evenodd" clip-rule="evenodd" d="M1011.02 524.655L1100 433.29L1011.02 341.924V375.79H0V490.79H1011.02V524.655Z" fill="url(#paint5_linear_364_16511)"/>
<path d="M106.039 425.82L110.75 437.328H110.938L115.648 425.82H120.008V442.789H116.586V431.68H116.445L112.016 442.719H109.672L105.242 431.633H105.102V442.789H101.68V425.82H106.039ZM122.867 442.789V425.82H128.914C130.609 425.82 132.074 426.16 133.309 426.84C134.551 427.512 135.5 428.484 136.156 429.758C136.812 431.023 137.141 432.531 137.141 434.281C137.141 436.039 136.809 437.559 136.145 438.84C135.488 440.113 134.535 441.09 133.285 441.77C132.043 442.449 130.562 442.789 128.844 442.789H122.867ZM128.703 439.766C130.344 439.766 131.574 439.32 132.395 438.43C133.215 437.539 133.625 436.156 133.625 434.281C133.625 432.422 133.215 431.051 132.395 430.168C131.582 429.285 130.359 428.844 128.727 428.844H126.383V439.766H128.703ZM157.391 444.945H154.578V423.617H157.391V444.945ZM138.57 438.406C140.695 437.156 142.277 435.738 143.316 434.152C144.363 432.559 144.992 430.695 145.203 428.562H139.812V426.148H148.18C148.18 427.188 148.113 428.219 147.98 429.242H150.102V424.086H152.938V444.008H150.102V436.977H147.078V434.562H150.102V431.656H147.488C146.973 433.477 146.133 435.121 144.969 436.59C143.812 438.051 142.266 439.359 140.328 440.516L138.57 438.406ZM173.023 427.367H160.367V425.188H165.195V423.477H168.172V425.188H173.023V427.367ZM159.734 435.359C162.078 435.359 163.898 435.34 165.195 435.301V434.164C163.992 434 163.047 433.652 162.359 433.121C161.68 432.582 161.344 431.906 161.352 431.094C161.352 430.438 161.57 429.867 162.008 429.383C162.445 428.891 163.066 428.516 163.871 428.258C164.684 427.992 165.625 427.859 166.695 427.859C167.742 427.859 168.668 427.992 169.473 428.258C170.277 428.516 170.902 428.891 171.348 429.383C171.801 429.875 172.031 430.445 172.039 431.094C172.031 431.898 171.68 432.57 170.984 433.109C170.289 433.648 169.352 434 168.172 434.164V435.195C170.109 435.086 171.789 434.945 173.211 434.773L173.422 436.766C171.406 437.117 169.316 437.348 167.152 437.457C164.988 437.566 162.648 437.625 160.133 437.633L159.734 435.359ZM162.734 438.898H177.57V444.945H174.523V441.195H162.734V438.898ZM164.234 431.094C164.227 431.469 164.434 431.758 164.855 431.961C165.285 432.164 165.879 432.266 166.637 432.266C167.41 432.266 168.023 432.168 168.477 431.973C168.93 431.77 169.156 431.477 169.156 431.094C169.156 430.688 168.934 430.379 168.488 430.168C168.051 429.957 167.453 429.852 166.695 429.852C165.914 429.852 165.305 429.957 164.867 430.168C164.438 430.379 164.227 430.688 164.234 431.094ZM174.523 423.664H177.57V438.055H174.523V423.664Z" fill="white"/>
<path d="M217.416 442.123L225.749 433.789L217.416 425.456V442.123Z" fill="white"/>
<path d="M278.969 415.797H281.992V418.258H278.969V428.898H275.969V407.617H278.969V415.797ZM261.906 422.922C264.445 421.648 266.398 420.141 267.766 418.398C269.133 416.656 269.957 414.602 270.238 412.234H263.125V409.797H273.273C273.258 413.195 272.492 416.195 270.977 418.797C269.469 421.398 267.008 423.539 263.594 425.219L261.906 422.922ZM293.43 415.352H286.633V417.391C288.516 417.375 290.102 417.324 291.391 417.238C292.68 417.152 293.969 416.992 295.258 416.758L295.586 419.148C294.156 419.406 292.711 419.586 291.25 419.688C289.797 419.781 288.027 419.828 285.941 419.828H285.461H283.656V413.078H290.523V411.203H283.633V408.812H293.43V415.352ZM285.438 421.562H299.805V428.922H296.805V423.953H285.438V421.562ZM296.805 407.641H299.805V412.727H302.688V415.188H299.805V420.578H296.805V407.641ZM323.078 418.75H303.625V416.336H311.828V414.953H306.039V408.227H320.617V414.953H314.781V416.336H323.078V418.75ZM305.875 419.805H320.711V425.266H308.828V426.555H321.273V428.805H305.898V423.156H317.758V422.055H305.875V419.805ZM317.641 412.656V410.547H308.969V412.656H317.641ZM349.422 426.367H329.898V423.93H349.422V426.367ZM331.961 408.977H334.961V412.516H344.266V408.977H347.242V420.367H331.961V408.977ZM344.266 418.023V414.836H334.961V418.023H344.266ZM368.969 423.461H366.133V416.102H364.281V423.016H361.492V408.016H364.281V413.688H366.133V407.641H368.969V423.461ZM351.484 409.352H359.617V415.984H354.391V418.176C355.617 418.16 356.695 418.117 357.625 418.047C358.562 417.969 359.516 417.836 360.484 417.648L360.742 420.016C359.57 420.227 358.418 420.367 357.285 420.438C356.152 420.5 354.719 420.531 352.984 420.531H351.508V413.781H356.734V411.695H351.484V409.352ZM354.508 421.961H357.508V426.18H369.508V428.57H354.508V421.961ZM388.773 419.875H373.68V409.398H388.609V411.812H376.633V417.484H388.773V419.875ZM371.383 423.883H390.906V426.344H371.383V423.883ZM313.902 460.992H310.926V439.617H313.902V460.992ZM297.145 441.398H307.293V449.625H300.262V453.539C301.98 453.523 303.559 453.465 304.996 453.363C306.434 453.262 307.902 453.086 309.402 452.836L309.66 455.25C308.02 455.539 306.383 455.738 304.75 455.848C303.117 455.949 301.23 456 299.09 456H297.168V447.258H304.246V443.812H297.145V441.398ZM334.059 448.734H319.129V440.578H322.105V446.344H334.059V448.734ZM316.762 451.148H336.215V453.539H331.762V460.945H328.738V453.539H324.262V460.945H321.262V453.539H316.762V451.148ZM355.48 450.281H352.504V446.297H348.93C348.734 447.039 348.379 447.695 347.863 448.266C347.348 448.828 346.707 449.262 345.941 449.566C345.184 449.871 344.355 450.023 343.457 450.023C342.379 450.023 341.406 449.816 340.539 449.402C339.68 448.98 339.004 448.395 338.512 447.645C338.02 446.887 337.777 446.031 337.785 445.078C337.777 444.141 338.02 443.305 338.512 442.57C339.004 441.828 339.68 441.254 340.539 440.848C341.406 440.434 342.379 440.227 343.457 440.227C344.355 440.227 345.184 440.379 345.941 440.684C346.707 440.98 347.348 441.406 347.863 441.961C348.379 442.516 348.734 443.156 348.93 443.883H352.504V439.617H355.48V450.281ZM340.621 445.078C340.621 445.602 340.738 446.055 340.973 446.438C341.215 446.82 341.551 447.113 341.98 447.316C342.41 447.512 342.902 447.609 343.457 447.609C343.996 447.609 344.473 447.512 344.887 447.316C345.309 447.113 345.641 446.82 345.883 446.438C346.125 446.055 346.246 445.602 346.246 445.078C346.246 444.586 346.125 444.156 345.883 443.789C345.641 443.414 345.309 443.129 344.887 442.934C344.465 442.738 343.988 442.641 343.457 442.641C342.902 442.641 342.41 442.738 341.98 442.934C341.551 443.129 341.215 443.414 340.973 443.789C340.738 444.156 340.621 444.586 340.621 445.078ZM341.277 451.219H355.48V456.984H344.301V458.367H356.113V460.711H341.301V454.781H352.504V453.516H341.277V451.219Z" fill="white"/>
<path d="M428.916 442.123L437.249 433.789L428.916 425.456V442.123Z" fill="white"/>
<path d="M508.035 428.969H505.059V423.578H493.387V421.211H508.035V428.969ZM490.949 409.141H501.074V412.727H505.059V407.617H508.035V420.227H505.059V415.117H501.074V419.078H490.949V409.141ZM498.145 416.711V411.555H493.926V416.711H498.145ZM528.777 428.945H525.801V418.258H521.559V415.82H525.801V407.617H528.777V428.945ZM510.59 422.898C512.371 422.023 513.828 421.059 514.961 420.004C516.094 418.941 516.957 417.773 517.551 416.5C518.145 415.219 518.516 413.781 518.664 412.188H511.598V409.844H521.676C521.668 412.125 521.375 414.188 520.797 416.031C520.219 417.875 519.23 419.574 517.832 421.129C516.434 422.684 514.535 424.055 512.137 425.242L510.59 422.898ZM549.426 428.992H546.449V407.617H549.426V428.992ZM532.668 409.398H542.816V417.625H535.785V421.539C537.504 421.523 539.082 421.465 540.52 421.363C541.957 421.262 543.426 421.086 544.926 420.836L545.184 423.25C543.543 423.539 541.906 423.738 540.273 423.848C538.641 423.949 536.754 424 534.613 424H532.691V415.258H539.77V411.812H532.668V409.398ZM574.879 414.625H577.598V417.086H574.879V424.258H571.879V407.617H574.879V414.625ZM557.582 419.875C559.543 419.875 561.27 419.852 562.762 419.805V418.574C561.59 418.41 560.668 418.051 559.996 417.496C559.332 416.941 559.004 416.25 559.012 415.422C559.012 414.727 559.223 414.129 559.645 413.629C560.074 413.129 560.684 412.75 561.473 412.492C562.262 412.227 563.184 412.094 564.238 412.094C565.285 412.094 566.199 412.227 566.98 412.492C567.77 412.75 568.379 413.129 568.809 413.629C569.246 414.129 569.465 414.727 569.465 415.422C569.457 416.25 569.121 416.941 568.457 417.496C567.801 418.043 566.895 418.402 565.738 418.574V419.664C567.637 419.547 569.355 419.375 570.895 419.148L571.105 421.211C569.129 421.594 567.09 421.844 564.988 421.961C562.895 422.078 560.527 422.148 557.887 422.172L557.582 419.875ZM558.145 409.352H562.762V407.547H565.738V409.352H570.355V411.484H558.145V409.352ZM560.582 423.156H563.582V426.18H575.605V428.57H560.582V423.156ZM561.871 415.422C561.863 415.812 562.059 416.117 562.457 416.336C562.863 416.555 563.438 416.664 564.18 416.664C564.953 416.664 565.547 416.559 565.961 416.348C566.383 416.129 566.598 415.82 566.605 415.422C566.598 414.977 566.391 414.645 565.984 414.426C565.578 414.199 564.996 414.086 564.238 414.086C563.465 414.086 562.875 414.199 562.469 414.426C562.062 414.645 561.863 414.977 561.871 415.422ZM596.535 419.922H593.559V417.836H588.754V415.445H593.559V413.406H588.977C587.641 416.781 584.621 419.109 579.918 420.391L578.746 418.023C581.129 417.398 582.957 416.527 584.23 415.41C585.512 414.285 586.262 412.969 586.48 411.461H579.895V409.07H589.738C589.738 409.789 589.688 410.453 589.586 411.062H593.559V407.641H596.535V419.922ZM582.145 424.492C582.145 423.625 582.445 422.867 583.047 422.219C583.648 421.57 584.5 421.07 585.602 420.719C586.703 420.359 587.98 420.18 589.434 420.18C590.871 420.18 592.137 420.359 593.23 420.719C594.324 421.07 595.176 421.57 595.785 422.219C596.395 422.867 596.699 423.625 596.699 424.492C596.699 425.367 596.395 426.133 595.785 426.789C595.176 427.453 594.32 427.961 593.219 428.312C592.125 428.672 590.863 428.852 589.434 428.852C587.98 428.852 586.703 428.672 585.602 428.312C584.5 427.961 583.648 427.457 583.047 426.801C582.445 426.145 582.145 425.375 582.145 424.492ZM585.121 424.492C585.121 425.148 585.496 425.645 586.246 425.98C586.996 426.316 588.059 426.484 589.434 426.484C590.777 426.484 591.82 426.316 592.562 425.98C593.312 425.637 593.691 425.141 593.699 424.492C593.691 423.844 593.312 423.352 592.562 423.016C591.82 422.672 590.777 422.508 589.434 422.523C588.066 422.508 587.004 422.672 586.246 423.016C585.496 423.352 585.121 423.844 585.121 424.492ZM601.879 429.344H598.902L604.363 409.023H607.363L601.879 429.344ZM491.746 455.203H488.77V447.562H485.277V445.148H488.77V439.641H491.746V455.203ZM473.652 450.398C474.785 450.047 475.734 449.531 476.5 448.852C477.266 448.164 477.836 447.387 478.211 446.52C478.586 445.645 478.777 444.734 478.785 443.789V443.461H474.496V441.07H486.074V443.461H481.832V443.812C481.824 444.664 482 445.5 482.359 446.32C482.719 447.133 483.266 447.867 484 448.523C484.734 449.172 485.645 449.672 486.73 450.023L485.254 452.391C484.105 452.016 483.117 451.465 482.289 450.738C481.469 450.004 480.82 449.145 480.344 448.16C479.852 449.262 479.172 450.215 478.305 451.02C477.438 451.824 476.395 452.43 475.176 452.836L473.652 450.398ZM477.59 453.844H480.59V458.18H492.262V460.57H477.59V453.844ZM512.371 460.992H509.348V439.617H512.371V460.992ZM495.145 448.711C495.145 447.188 495.383 445.852 495.859 444.703C496.344 443.555 497.012 442.672 497.863 442.055C498.723 441.43 499.699 441.117 500.793 441.117C501.863 441.117 502.82 441.43 503.664 442.055C504.516 442.672 505.184 443.555 505.668 444.703C506.152 445.852 506.395 447.188 506.395 448.711C506.395 450.242 506.152 451.586 505.668 452.742C505.184 453.891 504.516 454.777 503.664 455.402C502.82 456.02 501.863 456.328 500.793 456.328C499.699 456.328 498.723 456.02 497.863 455.402C497.012 454.777 496.344 453.891 495.859 452.742C495.383 451.586 495.145 450.242 495.145 448.711ZM498.027 448.711C498.027 449.75 498.141 450.641 498.367 451.383C498.594 452.117 498.914 452.676 499.328 453.059C499.75 453.434 500.238 453.617 500.793 453.609C501.332 453.617 501.805 453.434 502.211 453.059C502.625 452.676 502.945 452.117 503.172 451.383C503.398 450.641 503.512 449.75 503.512 448.711C503.512 447.672 503.398 446.785 503.172 446.051C502.945 445.316 502.625 444.762 502.211 444.387C501.805 444.004 501.332 443.812 500.793 443.812C500.238 443.812 499.75 444.004 499.328 444.387C498.914 444.762 498.594 445.316 498.367 446.051C498.141 446.785 498.027 447.672 498.027 448.711ZM524.863 452.906C526.418 452.906 527.766 453.066 528.906 453.387C530.047 453.699 530.926 454.16 531.543 454.77C532.16 455.371 532.473 456.094 532.48 456.938C532.473 457.766 532.16 458.48 531.543 459.082C530.926 459.691 530.043 460.152 528.895 460.465C527.754 460.785 526.41 460.945 524.863 460.945C523.324 460.945 521.98 460.785 520.832 460.465C519.691 460.152 518.812 459.691 518.195 459.082C517.578 458.48 517.27 457.766 517.27 456.938C517.27 456.094 517.578 455.371 518.195 454.77C518.812 454.16 519.691 453.699 520.832 453.387C521.98 453.066 523.324 452.906 524.863 452.906ZM515.301 449.133H522.566V445.406H525.52V449.133H534.66V451.547H515.301V449.133ZM517.48 440.578H532.363V442.312V442.934C532.363 443.871 532.324 444.738 532.246 445.535C532.168 446.332 532.004 447.164 531.754 448.031L528.824 447.75C529.043 446.875 529.188 446.078 529.258 445.359C529.328 444.633 529.371 443.82 529.387 442.922H517.48V440.578ZM520.246 456.938C520.238 457.508 520.633 457.941 521.43 458.238C522.234 458.527 523.379 458.672 524.863 458.672C526.348 458.672 527.492 458.527 528.297 458.238C529.102 457.941 529.504 457.508 529.504 456.938C529.504 456.352 529.105 455.906 528.309 455.602C527.52 455.289 526.398 455.133 524.945 455.133C523.43 455.133 522.266 455.285 521.453 455.59C520.641 455.895 520.238 456.344 520.246 456.938ZM552.918 445.594H555.801V448.055H552.918V454.898H549.895V439.617H552.918V445.594ZM535.855 450.445C538.215 449.789 540.07 448.875 541.422 447.703C542.781 446.523 543.578 445.172 543.812 443.648H536.793V441.211H547.105C547.105 443.117 546.715 444.836 545.934 446.367C545.16 447.891 544.027 449.195 542.535 450.281C541.043 451.367 539.23 452.211 537.098 452.812L535.855 450.445ZM539.043 453.328H542.066V458.18H553.645V460.57H539.043V453.328ZM580.152 460.992H577.176V439.617H580.152V460.992ZM563.395 441.398H573.543V449.625H566.512V453.539C568.23 453.523 569.809 453.465 571.246 453.363C572.684 453.262 574.152 453.086 575.652 452.836L575.91 455.25C574.27 455.539 572.633 455.738 571 455.848C569.367 455.949 567.48 456 565.34 456H563.418V447.258H570.496V443.812H563.395V441.398ZM600.309 448.734H585.379V440.578H588.355V446.344H600.309V448.734ZM583.012 451.148H602.465V453.539H598.012V460.945H594.988V453.539H590.512V460.945H587.512V453.539H583.012V451.148ZM621.73 450.281H618.754V446.297H615.18C614.984 447.039 614.629 447.695 614.113 448.266C613.598 448.828 612.957 449.262 612.191 449.566C611.434 449.871 610.605 450.023 609.707 450.023C608.629 450.023 607.656 449.816 606.789 449.402C605.93 448.98 605.254 448.395 604.762 447.645C604.27 446.887 604.027 446.031 604.035 445.078C604.027 444.141 604.27 443.305 604.762 442.57C605.254 441.828 605.93 441.254 606.789 440.848C607.656 440.434 608.629 440.227 609.707 440.227C610.605 440.227 611.434 440.379 612.191 440.684C612.957 440.98 613.598 441.406 614.113 441.961C614.629 442.516 614.984 443.156 615.18 443.883H618.754V439.617H621.73V450.281ZM606.871 445.078C606.871 445.602 606.988 446.055 607.223 446.438C607.465 446.82 607.801 447.113 608.23 447.316C608.66 447.512 609.152 447.609 609.707 447.609C610.246 447.609 610.723 447.512 611.137 447.316C611.559 447.113 611.891 446.82 612.133 446.438C612.375 446.055 612.496 445.602 612.496 445.078C612.496 444.586 612.375 444.156 612.133 443.789C611.891 443.414 611.559 443.129 611.137 442.934C610.715 442.738 610.238 442.641 609.707 442.641C609.152 442.641 608.66 442.738 608.23 442.934C607.801 443.129 607.465 443.414 607.223 443.789C606.988 444.156 606.871 444.586 606.871 445.078ZM607.527 451.219H621.73V456.984H610.551V458.367H622.363V460.711H607.551V454.781H618.754V453.516H607.527V451.219Z" fill="white"/>
<path d="M661.416 442.123L669.749 433.789L661.416 425.456V442.123Z" fill="white"/>
<path d="M722.977 415.961H726.117V418.422H722.977V428.945H720.023V407.617H722.977V415.961ZM706.031 410.805H710.859V407.945H713.859V410.805H718.57V413.195H706.031V410.805ZM706.898 419.477C706.898 418.5 707.133 417.625 707.602 416.852C708.07 416.078 708.719 415.477 709.547 415.047C710.383 414.609 711.32 414.391 712.359 414.391C713.383 414.391 714.309 414.609 715.137 415.047C715.965 415.477 716.613 416.078 717.082 416.852C717.559 417.625 717.797 418.5 717.797 419.477C717.797 420.453 717.559 421.328 717.082 422.102C716.613 422.867 715.965 423.469 715.137 423.906C714.309 424.344 713.383 424.562 712.359 424.562C711.32 424.562 710.383 424.344 709.547 423.906C708.719 423.469 708.07 422.867 707.602 422.102C707.133 421.328 706.898 420.453 706.898 419.477ZM709.758 419.477C709.758 420.016 709.867 420.484 710.086 420.883C710.312 421.281 710.621 421.586 711.012 421.797C711.402 422.008 711.852 422.109 712.359 422.102C712.859 422.109 713.305 422.008 713.695 421.797C714.086 421.586 714.391 421.281 714.609 420.883C714.828 420.484 714.938 420.016 714.938 419.477C714.938 418.938 714.828 418.469 714.609 418.07C714.391 417.672 714.086 417.363 713.695 417.145C713.305 416.926 712.859 416.812 712.359 416.805C711.852 416.812 711.402 416.926 711.012 417.145C710.621 417.363 710.312 417.672 710.086 418.07C709.867 418.469 709.758 418.938 709.758 419.477ZM744.141 414.297H729.305V407.875H732.281V411.93H744.141V414.297ZM726.867 415.727H746.391V418.094H726.867V415.727ZM729.094 419.383H744.047V425.055H732.141V426.414H744.703V428.711H729.141V422.898H741.07V421.68H729.094V419.383ZM757.242 420.906C758.797 420.906 760.145 421.066 761.285 421.387C762.426 421.699 763.305 422.16 763.922 422.77C764.539 423.371 764.852 424.094 764.859 424.938C764.852 425.766 764.539 426.48 763.922 427.082C763.305 427.691 762.422 428.152 761.273 428.465C760.133 428.785 758.789 428.945 757.242 428.945C755.703 428.945 754.359 428.785 753.211 428.465C752.07 428.152 751.191 427.691 750.574 427.082C749.957 426.48 749.648 425.766 749.648 424.938C749.648 424.094 749.957 423.371 750.574 422.77C751.191 422.16 752.07 421.699 753.211 421.387C754.359 421.066 755.703 420.906 757.242 420.906ZM747.68 417.133H754.945V413.406H757.898V417.133H767.039V419.547H747.68V417.133ZM749.859 408.578H764.742V410.312V410.934C764.742 411.871 764.703 412.738 764.625 413.535C764.547 414.332 764.383 415.164 764.133 416.031L761.203 415.75C761.422 414.875 761.566 414.078 761.637 413.359C761.707 412.633 761.75 411.82 761.766 410.922H749.859V408.578ZM752.625 424.938C752.617 425.508 753.012 425.941 753.809 426.238C754.613 426.527 755.758 426.672 757.242 426.672C758.727 426.672 759.871 426.527 760.676 426.238C761.48 425.941 761.883 425.508 761.883 424.938C761.883 424.352 761.484 423.906 760.688 423.602C759.898 423.289 758.777 423.133 757.324 423.133C755.809 423.133 754.645 423.285 753.832 423.59C753.02 423.895 752.617 424.344 752.625 424.938ZM786.445 423.742H783.445V422.055H779.367V420.016H783.445V407.641H786.445V423.742ZM768.305 417.086C770.984 417.07 773.438 417.023 775.664 416.945C777.891 416.859 780 416.695 781.992 416.453L782.156 418.586C780.531 418.859 778.812 419.062 777 419.195V423.25H774V426.18H786.914V428.57H771.023V422.195H774V419.371C772.516 419.426 770.734 419.453 768.656 419.453L768.305 417.086ZM769.875 412.188C769.875 411.438 770.102 410.773 770.555 410.195C771.008 409.617 771.641 409.168 772.453 408.848C773.266 408.527 774.195 408.367 775.242 408.367C776.266 408.367 777.18 408.527 777.984 408.848C778.789 409.168 779.418 409.617 779.871 410.195C780.332 410.773 780.562 411.438 780.562 412.188C780.562 412.938 780.332 413.598 779.871 414.168C779.418 414.738 778.789 415.176 777.984 415.48C777.18 415.785 776.266 415.938 775.242 415.938C774.188 415.938 773.254 415.785 772.441 415.48C771.637 415.176 771.008 414.738 770.555 414.168C770.102 413.598 769.875 412.938 769.875 412.188ZM772.711 412.188C772.703 412.695 772.93 413.09 773.391 413.371C773.859 413.645 774.492 413.781 775.289 413.781C776.008 413.781 776.59 413.641 777.035 413.359C777.488 413.078 777.719 412.688 777.727 412.188C777.719 411.672 777.484 411.27 777.023 410.98C776.57 410.691 775.977 410.547 775.242 410.547C774.469 410.547 773.852 410.691 773.391 410.98C772.93 411.27 772.703 411.672 772.711 412.188ZM734.402 460.992H731.426V439.617H734.402V460.992ZM717.645 441.398H727.793V449.625H720.762V453.539C722.48 453.523 724.059 453.465 725.496 453.363C726.934 453.262 728.402 453.086 729.902 452.836L730.16 455.25C728.52 455.539 726.883 455.738 725.25 455.848C723.617 455.949 721.73 456 719.59 456H717.668V447.258H724.746V443.812H717.645V441.398ZM754.559 448.734H739.629V440.578H742.605V446.344H754.559V448.734ZM737.262 451.148H756.715V453.539H752.262V460.945H749.238V453.539H744.762V460.945H741.762V453.539H737.262V451.148ZM775.98 450.281H773.004V446.297H769.43C769.234 447.039 768.879 447.695 768.363 448.266C767.848 448.828 767.207 449.262 766.441 449.566C765.684 449.871 764.855 450.023 763.957 450.023C762.879 450.023 761.906 449.816 761.039 449.402C760.18 448.98 759.504 448.395 759.012 447.645C758.52 446.887 758.277 446.031 758.285 445.078C758.277 444.141 758.52 443.305 759.012 442.57C759.504 441.828 760.18 441.254 761.039 440.848C761.906 440.434 762.879 440.227 763.957 440.227C764.855 440.227 765.684 440.379 766.441 440.684C767.207 440.98 767.848 441.406 768.363 441.961C768.879 442.516 769.234 443.156 769.43 443.883H773.004V439.617H775.98V450.281ZM761.121 445.078C761.121 445.602 761.238 446.055 761.473 446.438C761.715 446.82 762.051 447.113 762.48 447.316C762.91 447.512 763.402 447.609 763.957 447.609C764.496 447.609 764.973 447.512 765.387 447.316C765.809 447.113 766.141 446.82 766.383 446.438C766.625 446.055 766.746 445.602 766.746 445.078C766.746 444.586 766.625 444.156 766.383 443.789C766.141 443.414 765.809 443.129 765.387 442.934C764.965 442.738 764.488 442.641 763.957 442.641C763.402 442.641 762.91 442.738 762.48 442.934C762.051 443.129 761.715 443.414 761.473 443.789C761.238 444.156 761.121 444.586 761.121 445.078ZM761.777 451.219H775.98V456.984H764.801V458.367H776.613V460.711H761.801V454.781H773.004V453.516H761.777V451.219Z" fill="white"/>
<path d="M825.916 442.123L834.249 433.789L825.916 425.456V442.123Z" fill="white"/>
<path d="M882.805 428.094H878.492C878.516 428.836 878.711 429.547 879.078 430.227C879.445 430.906 879.996 431.516 880.73 432.055C881.473 432.586 882.391 433 883.484 433.297L882.125 435.594C880.938 435.289 879.914 434.82 879.055 434.188C878.203 433.547 877.531 432.781 877.039 431.891C876.555 432.867 875.879 433.707 875.012 434.41C874.152 435.113 873.109 435.633 871.883 435.969L870.477 433.672C871.57 433.367 872.492 432.93 873.242 432.359C873.992 431.789 874.555 431.137 874.93 430.402C875.305 429.668 875.5 428.898 875.516 428.094H871.227V425.75H875.516V423.523H878.539V425.75H882.805V428.094ZM873.617 437H887.562V444.711H873.617V437ZM884.609 442.32V439.367H876.57V442.32H884.609ZM884.562 423.617H887.562V428.633H890.445V431.07H887.562V436.109H884.562V423.617ZM897.266 425.117C898.227 425.117 899.094 425.367 899.867 425.867C900.641 426.367 901.27 427.078 901.754 428H906.43V423.617H909.383V444.992H906.43V437H901.977C901.5 438.055 900.852 438.875 900.031 439.461C899.219 440.039 898.297 440.328 897.266 440.328C896.188 440.328 895.227 440.02 894.383 439.402C893.547 438.777 892.895 437.891 892.426 436.742C891.957 435.586 891.727 434.242 891.734 432.711C891.727 431.188 891.957 429.852 892.426 428.703C892.895 427.555 893.547 426.672 894.383 426.055C895.227 425.43 896.188 425.117 897.266 425.117ZM894.594 432.711C894.594 433.75 894.703 434.641 894.922 435.383C895.141 436.117 895.453 436.676 895.859 437.059C896.266 437.434 896.734 437.617 897.266 437.609C897.805 437.617 898.273 437.434 898.672 437.059C899.078 436.676 899.391 436.117 899.609 435.383C899.828 434.641 899.938 433.75 899.938 432.711C899.938 431.672 899.828 430.785 899.609 430.051C899.391 429.316 899.078 428.762 898.672 428.387C898.273 428.004 897.805 427.812 897.266 427.812C896.734 427.812 896.266 428.004 895.859 428.387C895.453 428.762 895.141 429.32 894.922 430.062C894.703 430.797 894.594 431.68 894.594 432.711ZM902.586 430.414C902.727 431.117 902.797 431.883 902.797 432.711C902.797 433.375 902.75 434.008 902.656 434.609H906.43V430.414H902.586ZM930.453 437H927.617V431.328H925.906V436.297H923.117V424.016H925.906V428.891H927.617V423.617H930.453V437ZM912.008 425.82H915.781V423.805H918.758V425.82H922.484V428.141H912.008V425.82ZM912.664 432.57C912.664 431.836 912.859 431.188 913.25 430.625C913.648 430.062 914.199 429.625 914.902 429.312C915.605 429 916.398 428.844 917.281 428.844C918.18 428.844 918.98 429 919.684 429.312C920.387 429.617 920.938 430.055 921.336 430.625C921.742 431.188 921.945 431.836 921.945 432.57C921.945 433.297 921.742 433.941 921.336 434.504C920.938 435.059 920.387 435.492 919.684 435.805C918.98 436.117 918.18 436.273 917.281 436.273C916.398 436.273 915.605 436.117 914.902 435.805C914.199 435.492 913.648 435.059 913.25 434.504C912.859 433.941 912.664 433.297 912.664 432.57ZM915.336 432.547C915.336 433.039 915.508 433.43 915.852 433.719C916.195 434 916.66 434.141 917.246 434.141C917.848 434.141 918.328 434.004 918.688 433.73C919.055 433.449 919.242 433.062 919.25 432.57C919.242 432.086 919.062 431.703 918.711 431.422C918.359 431.141 917.895 431 917.316 431C916.715 431 916.234 431.137 915.875 431.41C915.516 431.676 915.336 432.055 915.336 432.547ZM915.781 441.078C915.781 440.266 916.074 439.57 916.66 438.992C917.254 438.406 918.102 437.961 919.203 437.656C920.312 437.344 921.633 437.188 923.164 437.188C924.695 437.188 926.012 437.344 927.113 437.656C928.223 437.961 929.074 438.402 929.668 438.98C930.262 439.559 930.562 440.258 930.57 441.078C930.562 441.891 930.262 442.586 929.668 443.164C929.074 443.75 928.223 444.191 927.113 444.488C926.012 444.793 924.695 444.945 923.164 444.945C921.641 444.945 920.324 444.793 919.215 444.488C918.105 444.191 917.254 443.75 916.66 443.164C916.074 442.586 915.781 441.891 915.781 441.078ZM918.781 441.078C918.773 441.617 919.137 442.023 919.871 442.297C920.613 442.562 921.711 442.695 923.164 442.695C926.086 442.695 927.547 442.156 927.547 441.078C927.547 440.523 927.188 440.113 926.469 439.848C925.758 439.574 924.688 439.438 923.258 439.438C921.758 439.438 920.633 439.57 919.883 439.836C919.141 440.102 918.773 440.516 918.781 441.078ZM940.719 428.445C940.711 429.75 940.895 431.016 941.27 432.242C941.645 433.461 942.211 434.555 942.969 435.523C943.727 436.492 944.656 437.242 945.758 437.773L943.953 440.164C942.844 439.609 941.895 438.836 941.105 437.844C940.316 436.844 939.695 435.68 939.242 434.352C938.758 435.781 938.098 437.031 937.262 438.102C936.426 439.164 935.422 439.984 934.25 440.562L932.398 438.148C933.562 437.617 934.543 436.848 935.34 435.84C936.137 434.824 936.73 433.68 937.121 432.406C937.52 431.125 937.719 429.805 937.719 428.445V425.258H940.719V428.445ZM946.695 423.617H949.695V431.844H952.836V434.375H949.695V444.945H946.695V423.617ZM977.539 444.945H974.656V434.094H972.711V444.008H969.922V424.18H972.711V431.703H974.656V423.617H977.539V444.945ZM958.883 438.5C961.008 437.25 962.59 435.828 963.629 434.234C964.676 432.641 965.301 430.773 965.504 428.633H959.961V426.242H968.422C968.414 428.336 968.168 430.242 967.684 431.961C967.207 433.672 966.395 435.254 965.246 436.707C964.105 438.152 962.562 439.438 960.617 440.562L958.883 438.5ZM988.438 438.359C990.336 438.242 992.062 438.07 993.617 437.844L993.852 440.023C991.766 440.422 989.641 440.68 987.477 440.797C985.32 440.914 982.938 440.977 980.328 440.984L979.977 438.57C982.039 438.57 983.867 438.547 985.461 438.5V435.148H988.438V438.359ZM980.398 433.555C981.945 433.141 983.137 432.488 983.973 431.598C984.816 430.699 985.289 429.68 985.391 428.539H981.078V426.125H985.461V423.805H988.438V426.125H992.844V428.539H988.484C988.555 429.25 988.785 429.922 989.176 430.555C989.566 431.18 990.125 431.734 990.852 432.219C991.578 432.703 992.461 433.07 993.5 433.32L992.141 435.641C990.922 435.336 989.875 434.859 989 434.211C988.133 433.555 987.449 432.77 986.949 431.855C986.473 432.816 985.801 433.637 984.934 434.316C984.074 434.996 983.031 435.492 981.805 435.805L980.398 433.555ZM994.836 423.617H997.812V444.992H994.836V423.617Z" fill="white"/>
<defs>
<linearGradient id="paint0_linear_364_16511" x1="210.039" y1="20.1348" x2="210.039" y2="261.789" gradientUnits="userSpaceOnUse">
<stop stop-color="#2F5BC1"/>
<stop offset="1" stop-color="#6951CB"/>
</linearGradient>
<linearGradient id="paint1_linear_364_16511" x1="346.027" y1="140.962" x2="378.489" y2="140.962" gradientUnits="userSpaceOnUse">
<stop stop-color="white"/>
<stop offset="1" stop-color="#0089EC"/>
</linearGradient>
<linearGradient id="paint2_linear_364_16511" x1="651.488" y1="140.962" x2="683.95" y2="140.962" gradientUnits="userSpaceOnUse">
<stop stop-color="white"/>
<stop offset="1" stop-color="#0089EC"/>
</linearGradient>
<linearGradient id="paint3_linear_364_16511" x1="849.452" y1="77" x2="849.452" y2="109.462" gradientUnits="userSpaceOnUse">
<stop stop-color="white"/>
<stop offset="1" stop-color="#0089EC"/>
</linearGradient>
<linearGradient id="paint4_linear_364_16511" x1="849.452" y1="184.462" x2="849.452" y2="216.924" gradientUnits="userSpaceOnUse">
<stop stop-color="white"/>
<stop offset="1" stop-color="#0089EC"/>
</linearGradient>
<linearGradient id="paint5_linear_364_16511" x1="0" y1="433.29" x2="1100" y2="433.29" gradientUnits="userSpaceOnUse">
<stop stop-color="#3659C2"/>
<stop offset="1" stop-color="#5E52C9"/>
</linearGradient>
</defs>
</svg>
