<svg width="727" height="619" viewBox="0 0 727 619" fill="none" xmlns="http://www.w3.org/2000/svg">
<path d="M549 279.217C549 382.614 464.158 466.434 359.5 466.434C254.842 466.434 170 382.614 170 279.217C170 175.82 254.842 92 359.5 92C464.158 92 549 175.82 549 279.217Z" fill="#D61846" fill-opacity="0.04"/>
<ellipse cx="359.5" cy="279.215" rx="159.363" ry="157.993" fill="#D61846" fill-opacity="0.06"/>
<ellipse cx="360.87" cy="278.759" rx="126.029" ry="126.486" fill="#D61846" fill-opacity="0.2"/>
<circle cx="359.957" cy="279.215" r="96.8048" fill="white"/>
<path d="M403.42 270.737H406.707V276.03H403.42V281.882H397.863V266.43H403.42V270.737ZM386.981 276.391C384.647 279.482 381.162 281.52 377.052 281.75V276.786C381.491 276.26 384.417 272.15 384.515 266.561L390.104 266.89C390.104 268.731 389.809 270.506 389.217 272.183L396.844 277.016L394.017 281.027L386.981 276.391ZM391.025 282.276C398.094 282.276 403.683 283.887 403.683 288.556C403.683 293.225 398.094 294.836 391.025 294.836C383.956 294.836 378.367 293.225 378.367 288.556C378.367 283.887 383.956 282.276 391.025 282.276ZM391.025 290.397C394.74 290.397 397.699 289.904 397.699 288.556C397.699 287.241 394.74 286.715 391.025 286.715C387.31 286.715 384.351 287.241 384.351 288.556C384.351 289.904 387.31 290.397 391.025 290.397Z" fill="#5B5C54"/>
<path d="M368.506 266.43H373.701V294.507H368.506V282.013H366.172V294.014H361.043V290.693L357.295 292.764L353.679 286.189C352.035 290.693 349.372 293.06 345.755 293.192V287.767C348.583 287.372 350.325 281.487 350.424 272.117H346.249V267.087H359.564V272.117H355.684C355.651 274.616 355.52 276.917 355.29 278.989L361.043 288.951V266.561H366.172V276.753H368.506V266.43Z" fill="#5B5C54"/>
<path d="M341.616 266.43V287.208H336.059V266.43H341.616ZM323.599 266.463C329.09 266.463 332.838 269.816 332.838 274.879C332.838 279.975 329.09 283.296 323.599 283.296C318.109 283.296 314.361 279.975 314.361 274.879C314.361 269.816 318.109 266.463 323.599 266.463ZM323.599 271.098C321.462 271.098 319.884 272.446 319.884 274.879C319.884 277.312 321.462 278.66 323.599 278.66C325.736 278.66 327.314 277.312 327.314 274.879C327.314 272.446 325.736 271.098 323.599 271.098ZM322.481 284.676V289.509H342.01V294.507H316.826V284.676H322.481Z" fill="#5B5C54"/>
<circle cx="95.5" cy="437.5" r="95.5" fill="#E3F0FF"/>
<path d="M46.9023 411.587L54.8922 393.242H134.783L143.069 411.587H46.9023Z" stroke="#2366B0" stroke-width="2.49295" stroke-miterlimit="10"/>
<path d="M46.5425 412.295C46.5472 412.548 46.5674 412.805 46.6064 413.068C47.1283 416.708 50.5172 419.132 53.7082 419.578C54.1008 419.634 54.4965 419.657 54.8923 419.657C55.2787 419.656 55.6636 419.629 56.0437 419.578C58.6613 419.224 61.053 417.73 61.9941 415.731C62.3057 415.072 62.4444 414.385 62.502 413.766V413.76C62.555 413.191 62.541 412.679 62.5285 412.295C62.5145 411.865 62.502 411.599 62.5862 411.588H62.5908C62.6734 411.588 62.7155 411.855 62.77 412.295C62.7825 412.397 62.7965 412.506 62.8105 412.624C62.9804 414.017 63.3341 416.498 64.9545 418.098C67.449 420.566 72.7449 420.751 75.6072 418.394C77.7651 416.621 78.245 413.648 78.6766 412.295C78.7981 411.915 78.915 411.664 79.063 411.604C79.0817 411.596 79.1004 411.59 79.1207 411.59C79.1331 411.588 79.1456 411.588 79.1581 411.59C79.3435 411.608 79.4245 411.873 79.4821 412.297C79.6489 413.515 79.6068 416.051 81.2288 417.803C83.0439 419.765 86.6229 420.401 89.2187 419.284C92.4205 417.905 93.5642 414.109 94.5442 413.043C94.7421 412.825 94.9353 412.721 95.1363 412.774C95.9699 412.992 95.1986 415.448 96.6165 417.509C98.4597 420.19 103.383 421.293 106.381 419.58C109.251 417.94 109.983 413.928 110.585 412.297C110.683 412.031 110.778 411.828 110.879 411.71C110.938 411.638 111.001 411.596 111.066 411.591C111.083 411.587 111.099 411.59 111.116 411.591C111.297 411.619 111.367 411.883 111.407 412.299C111.517 413.453 111.406 415.787 112.891 417.51C114.711 419.619 117.88 419.592 119.104 419.581C119.38 419.58 125.248 419.46 126.798 416.03C127.071 415.429 127.18 414.787 127.193 414.167M127.193 414.167C127.207 413.495 127.108 412.85 126.982 412.299C126.923 412.038 126.854 411.8 126.791 411.591C126.677 411.222 126.572 410.946 126.526 410.806M127.193 414.167C126.984 413.489 126.842 412.842 126.744 412.299C126.699 412.037 126.658 411.798 126.63 411.591C126.577 411.22 126.549 410.946 126.526 410.806M127.193 414.167C127.68 415.764 128.532 417.551 130.053 418.693C130.538 419.059 131.091 419.357 131.684 419.581C132.549 419.911 133.507 420.091 134.492 420.108C136.212 420.142 138.006 419.689 139.522 418.695C142.192 416.942 142.935 414.214 143.073 413.665C143.186 413.215 143.26 412.758 143.294 412.3M126.526 410.806C126.502 410.741 126.493 410.705 126.501 410.703C126.509 410.703 126.518 410.737 126.526 410.806Z" stroke="#2366B0" stroke-width="2.49295" stroke-miterlimit="10"/>
<path d="M68.2078 392.652L62.2886 414.55" stroke="#2366B0" stroke-width="2.49295" stroke-miterlimit="10"/>
<path d="M81.2272 392.652L78.8589 413.366" stroke="#2366B0" stroke-width="2.49295" stroke-miterlimit="10"/>
<path d="M94.5425 392.652V413.366" stroke="#2366B0" stroke-width="2.49295" stroke-miterlimit="10"/>
<path d="M108.153 392.652L111.113 413.366" stroke="#2366B0" stroke-width="2.49295" stroke-miterlimit="10"/>
<path d="M121.468 392.652L127.091 411.885" stroke="#2366B0" stroke-width="2.49295" stroke-miterlimit="10"/>
<path d="M56.1137 419.574H52.8589V452.419H56.1137V419.574Z" fill="#2366B0"/>
<path d="M137.689 419.574H134.435V452.419H137.689V419.574Z" fill="#2366B0"/>
<path d="M59.8923 457.574H129.192C133.023 457.574 136.135 460.686 136.135 464.517V490.356H52.9495V464.517C52.9495 460.686 56.061 457.574 59.8923 457.574Z" fill="#2366B0"/>
<path d="M95.5775 449.412C95.5199 448.961 95.389 447.797 96.0714 446.65C96.1228 446.564 97.1808 444.829 98.3899 444.973C99.1424 445.064 99.2624 445.801 100.018 445.812C100.775 445.823 100.979 445.087 101.744 445.072C102.531 445.056 103.133 445.816 103.323 446.058C104.351 447.359 103.966 449.104 103.865 449.559C103.751 450.076 103.44 451.488 102.139 452.42C100.78 453.393 98.7264 453.565 97.2556 452.518C95.8455 451.514 95.6367 449.866 95.5791 449.411L95.5775 449.412Z" fill="#2366B0"/>
<path d="M96.3676 441.523C96.1977 441.764 96.3785 442.155 96.5654 442.559C96.6215 442.68 97.2401 443.973 98.242 444.039C98.8169 444.076 99.1441 443.684 99.4261 443.891C99.5944 444.016 99.6068 444.251 99.624 444.679C99.6598 445.616 99.3825 446.088 99.624 446.307C99.744 446.415 99.9668 446.44 100.118 446.357C100.632 446.075 100.327 444.553 100.068 443.743C99.8702 443.121 99.7408 442.719 99.3778 442.313C98.4507 441.276 96.7166 441.027 96.3691 441.524L96.3676 441.523Z" fill="#2366B0"/>
<path d="M96.8115 441.818C97.1325 441.824 98.2902 441.882 99.0302 442.754C99.1814 442.934 99.2936 443.119 99.3761 443.297L96.8115 441.816V441.818Z" fill="#2366B0"/>
<path d="M96.947 442.241C97.1465 442.188 97.3786 442.141 97.6404 442.111C97.9582 442.075 98.2434 442.077 98.4817 442.093L96.947 442.241Z" fill="#2366B0"/>
<path d="M106.447 449.412C106.389 448.961 106.258 447.797 106.941 446.65C106.992 446.564 108.05 444.829 109.259 444.973C110.012 445.064 110.132 445.801 110.887 445.812C111.644 445.823 111.849 445.087 112.614 445.072C113.4 445.056 114.002 445.816 114.192 446.058C115.22 447.359 114.835 449.104 114.734 449.559C114.62 450.076 114.309 451.488 113.008 452.42C111.649 453.393 109.596 453.565 108.125 452.518C106.715 451.514 106.506 449.866 106.448 449.411L106.447 449.412Z" fill="#2366B0"/>
<path d="M107.237 441.523C107.067 441.764 107.248 442.155 107.435 442.559C107.491 442.68 108.109 443.973 109.111 444.039C109.686 444.076 110.013 443.684 110.295 443.891C110.464 444.016 110.476 444.251 110.493 444.679C110.529 445.616 110.252 446.088 110.493 446.307C110.613 446.415 110.836 446.44 110.987 446.357C111.501 446.075 111.196 444.553 110.937 443.743C110.739 443.121 110.61 442.719 110.247 442.313C109.32 441.276 107.586 441.027 107.238 441.524L107.237 441.523Z" fill="#2366B0"/>
<path d="M107.679 441.818C108 441.824 109.158 441.882 109.898 442.754C110.049 442.934 110.161 443.119 110.244 443.297L107.679 441.816V441.818Z" fill="#2366B0"/>
<path d="M107.815 442.241C108.014 442.188 108.246 442.141 108.508 442.111C108.826 442.075 109.111 442.077 109.349 442.093L107.815 442.241Z" fill="#2366B0"/>
<path d="M116.73 449.412C116.673 448.961 116.542 447.797 117.224 446.65C117.276 446.564 118.334 444.829 119.543 444.973C120.295 445.064 120.415 445.801 121.171 445.812C121.928 445.823 122.132 445.087 122.897 445.072C123.684 445.056 124.286 445.816 124.476 446.058C125.504 447.359 125.119 449.104 125.018 449.559C124.904 450.076 124.592 451.488 123.291 452.42C121.933 453.393 119.879 453.565 118.408 452.518C116.998 451.514 116.79 449.866 116.732 449.411L116.73 449.412Z" fill="#2366B0"/>
<path d="M117.519 441.523C117.349 441.764 117.53 442.155 117.717 442.559C117.773 442.68 118.391 443.973 119.393 444.039C119.968 444.076 120.295 443.684 120.577 443.891C120.746 444.016 120.758 444.251 120.775 444.679C120.811 445.616 120.534 446.088 120.775 446.307C120.895 446.415 121.118 446.44 121.269 446.357C121.783 446.075 121.478 444.553 121.219 443.743C121.022 443.121 120.892 442.719 120.529 442.313C119.602 441.276 117.868 441.027 117.52 441.524L117.519 441.523Z" fill="#2366B0"/>
<path d="M117.963 441.818C118.284 441.824 119.442 441.882 120.182 442.754C120.333 442.934 120.445 443.119 120.528 443.297L117.963 441.816V441.818Z" fill="#2366B0"/>
<path d="M118.098 442.241C118.298 442.188 118.53 442.141 118.792 442.111C119.11 442.075 119.395 442.077 119.633 442.093L118.098 442.241Z" fill="#2366B0"/>
<path d="M110.691 437.063C110.634 436.611 110.503 435.447 111.185 434.302C111.237 434.217 112.295 432.481 113.504 432.626C114.256 432.716 114.376 433.453 115.132 433.464C115.889 433.475 116.093 432.74 116.858 432.724C117.645 432.708 118.246 433.469 118.437 433.71C119.465 435.011 119.08 436.756 118.979 437.211C118.865 437.729 118.553 439.14 117.252 440.072C115.894 441.046 113.84 441.217 112.369 440.17C110.959 439.167 110.75 437.518 110.693 437.063H110.691Z" fill="#2366B0"/>
<path d="M111.481 429.171C111.311 429.413 111.492 429.804 111.679 430.207C111.735 430.329 112.354 431.622 113.355 431.687C113.93 431.725 114.258 431.332 114.54 431.539C114.708 431.664 114.72 431.899 114.738 432.328C114.773 433.264 114.496 433.738 114.738 433.956C114.857 434.063 115.08 434.088 115.231 434.006C115.746 433.724 115.44 432.201 115.182 431.391C114.984 430.77 114.854 430.368 114.491 429.961C113.564 428.925 111.83 428.676 111.483 429.173L111.481 429.171Z" fill="#2366B0"/>
<path d="M111.924 429.466C112.245 429.473 113.402 429.53 114.142 430.403C114.293 430.582 114.406 430.767 114.488 430.945L111.924 429.465V429.466Z" fill="#2366B0"/>
<path d="M112.061 429.889C112.26 429.836 112.492 429.789 112.754 429.76C113.072 429.724 113.357 429.725 113.595 429.741L112.061 429.889Z" fill="#2366B0"/>
<path d="M99.2611 437.063C99.2035 436.611 99.0726 435.447 99.755 434.302C99.8064 434.217 100.864 432.481 102.073 432.626C102.826 432.716 102.946 433.453 103.702 433.464C104.459 433.475 104.663 432.74 105.428 432.724C106.215 432.708 106.816 433.469 107.006 433.71C108.035 435.011 107.65 436.756 107.549 437.211C107.435 437.729 107.123 439.14 105.822 440.072C104.464 441.046 102.41 441.217 100.939 440.17C99.5291 439.167 99.3203 437.518 99.2627 437.063H99.2611Z" fill="#2366B0"/>
<path d="M100.051 429.171C99.8811 429.413 100.062 429.804 100.249 430.207C100.305 430.329 100.923 431.622 101.925 431.687C102.5 431.725 102.827 431.332 103.109 431.539C103.278 431.664 103.29 431.899 103.307 432.328C103.343 433.264 103.066 433.738 103.307 433.956C103.427 434.063 103.65 434.088 103.801 434.006C104.315 433.724 104.01 432.201 103.751 431.391C103.554 430.77 103.424 430.368 103.061 429.961C102.134 428.925 100.401 428.676 100.052 429.173L100.051 429.171Z" fill="#2366B0"/>
<path d="M100.495 429.466C100.816 429.473 101.974 429.53 102.714 430.403C102.865 430.582 102.977 430.767 103.06 430.945L100.495 429.465V429.466Z" fill="#2366B0"/>
<path d="M100.63 429.889C100.83 429.836 101.062 429.789 101.324 429.76C101.642 429.724 101.927 429.725 102.165 429.741L100.63 429.889Z" fill="#2366B0"/>
<path d="M97.2059 450.132C96.0669 449.395 95.9516 447.759 96.9753 446.864C97.2869 446.588 97.6827 446.406 98.094 446.359C97.7076 446.489 97.3586 446.699 97.0859 446.979C96.1931 447.886 96.3053 449.268 97.2059 450.132Z" fill="#2366B0"/>
<path d="M102.827 438.516C102.039 438.449 101.252 437.854 101.163 437.031C101.09 436.297 101.567 435.595 102.204 435.269C102.509 435.11 102.854 435.029 103.197 435.04C103.14 435.051 103.086 435.059 103.031 435.073C102.657 435.154 102.297 435.327 102.011 435.579C101.536 435.989 101.221 436.659 101.416 437.281C101.612 437.913 102.209 438.34 102.827 438.518V438.516Z" fill="#2366B0"/>
<path d="M113.554 438.592C112.768 438.561 111.989 438.026 111.796 437.243C111.567 436.344 112.123 435.378 112.947 435.007C113.049 434.962 113.152 434.923 113.257 434.895C112.866 435.089 112.531 435.373 112.298 435.722C111.48 436.967 112.168 438.262 113.554 438.593V438.592Z" fill="#2366B0"/>
<path d="M119.473 446.578C118.779 446.281 118.215 446.365 117.997 447.159C117.91 447.47 117.885 447.795 117.874 448.118C117.83 448.887 117.986 449.64 118.288 450.352C117.852 449.701 117.642 448.898 117.673 448.113C117.679 447.772 117.707 447.434 117.812 447.103C118.075 446.257 118.768 446.103 119.473 446.578Z" fill="#2366B0"/>
<path d="M108.935 450.747C108.083 450.693 107.318 450.063 107.192 449.2C107.126 448.781 107.206 448.346 107.368 447.958C107.622 447.324 108.163 446.665 108.906 446.696C109.188 446.707 109.456 446.815 109.674 446.975C109.436 446.855 109.171 446.779 108.906 446.796C108.228 446.829 107.782 447.45 107.553 448.035C107.306 448.628 107.274 449.342 107.645 449.892C107.932 450.341 108.421 450.629 108.934 450.749L108.935 450.747Z" fill="#2366B0"/>
<path d="M76.0109 434.285C78.9728 434.285 81.3739 431.883 81.3739 428.922C81.3739 425.96 78.9728 423.559 76.0109 423.559C73.049 423.559 70.6479 425.96 70.6479 428.922C70.6479 431.883 73.049 434.285 76.0109 434.285Z" fill="#2366B0"/>
<path d="M80.3394 436H71.3149V442.56H80.3394V436Z" fill="#2366B0"/>
<path d="M67.7391 436.738H68.6506V452.42H64.8784V439.599C64.8784 438.021 66.1607 436.738 67.7391 436.738Z" fill="#2366B0"/>
<path d="M86.8477 452.422H83.0755V436.74H83.987C85.5653 436.74 86.8477 438.022 86.8477 439.6V452.422Z" fill="#2366B0"/>
<path d="M171.769 601.933V605.929H150.736V590.539H171.499V594.535H155.245V596.344H171.121V600.124H155.245V601.933H171.769ZM149.44 608.062H172.768V612.247H149.44V608.062Z" fill="#2F5BC1"/>
<path d="M134.7 598.774C132.027 602.392 128.058 604.687 123.657 604.714V600.394C128.247 600.367 132.513 596.101 133.35 589.918L137.994 590.647C137.778 592.267 137.346 593.779 136.725 595.21L146.553 601.123L144.15 604.822L134.7 598.774ZM123.198 612.247V607.981H146.526V612.247H123.198Z" fill="#2F5BC1"/>
<path d="M119.259 590V613.058H114.696V590H119.259ZM111.348 590.54V603.23H102.519V607.874H107.514C109.701 607.874 112.077 607.415 113.481 606.767V610.871C112.077 611.573 109.62 611.978 107.325 611.978H97.9827V599.18H106.812V594.644H97.9287V590.54H111.348Z" fill="#2F5BC1"/>
<path d="M78.6261 597.965C76.7361 600.233 73.9551 601.772 70.6611 601.961V597.965C74.2521 597.533 76.6281 594.185 76.7091 590.108L81.2991 590.378C81.2991 591.89 81.0291 593.348 80.5161 594.698L84.9441 597.641V595.589H88.6431V594.482H84.9441V591.026H88.6431V590H93.1251V601.718H88.6431V599.045H86.1051L83.9991 601.664L78.6261 597.965ZM77.0331 610.007H93.3681V613.058H72.5241V606.443H88.6161V605.579H72.4701V602.528H93.1251V609.143H77.0331V610.007Z" fill="#2F5BC1"/>
<path d="M63.2923 590H67.4233V613.058H63.2923V590ZM57.8113 598.478V590.108H61.8883V612.653H57.8113V602.798H56.1373V598.478H57.8113ZM55.0573 594.536V607.658C55.7053 607.523 56.2723 607.361 56.7583 607.172V611.114C55.3813 611.735 53.1943 611.978 51.1693 611.978H44.3113V607.982H45.5803V594.536H44.5003V590.54H56.1913V594.536H55.0573ZM49.5763 594.536V607.982H51.0613V594.536H49.5763Z" fill="#2F5BC1"/>
<path d="M29.7337 598.774C27.0607 602.392 23.0917 604.687 18.6907 604.714V600.394C23.2807 600.367 27.5467 596.101 28.3837 589.918L33.0277 590.647C32.8117 592.267 32.3797 593.779 31.7587 595.21L41.5867 601.123L39.1837 604.822L29.7337 598.774ZM18.2317 612.247V607.981H41.5597V612.247H18.2317Z" fill="#2F5BC1"/>
<path d="M144.853 558.537H147.553V562.884H144.853V567.69H140.29V555H144.853V558.537ZM131.407 563.748C129.625 565.881 126.817 567.474 123.469 567.555V563.559C126.439 563.397 128.41 561.237 128.869 559.05H123.793V555.27H138.481V559.05H133.486C133.459 559.482 133.351 559.914 133.243 560.346L139.291 563.694L137.158 567.069L131.407 563.748ZM134.674 568.014C140.479 568.014 145.068 569.337 145.068 573.171C145.068 577.005 140.479 578.328 134.674 578.328C128.869 578.328 124.279 577.005 124.279 573.171C124.279 569.337 128.869 568.014 134.674 568.014ZM134.674 574.683C137.725 574.683 140.155 574.278 140.155 573.171C140.155 572.091 137.725 571.659 134.674 571.659C131.623 571.659 129.193 572.091 129.193 573.171C129.193 574.278 131.623 574.683 134.674 574.683Z" fill="#2F5BC1"/>
<path d="M114.696 555H119.259V578.058H114.696V555ZM108.135 555.621C108.135 559.05 107.811 562.128 107.244 564.801L114.075 574.305L110.376 576.951L105.624 570.066C103.68 574.494 100.71 576.951 97.1729 576.978V572.28C100.872 571.848 103.464 565.098 103.491 555.459L108.135 555.621Z" fill="#2F5BC1"/>
<path d="M89.3991 555H93.6651V578.058H89.3991V567.798H87.4821V577.653H83.2701V555.108H87.4821V563.478H89.3991V555ZM71.1201 576.978V555.54H81.5961V576.978H71.1201ZM75.3591 559.671V572.847H77.3841V559.671H75.3591Z" fill="#2F5BC1"/>
<path d="M58.4864 573.008H67.8014V577.247H44.4734V573.008H53.8424V569.201H45.7424V555.539H66.5324V559.778H50.4134V564.989H66.8024V569.201H58.4864V573.008Z" fill="#2F5BC1"/>
<circle cx="631.5" cy="98.5" r="95.5" fill="#D2F3EF"/>
<g clip-path="url(#clip0_3361_14997)">
<path d="M676.63 96.3711H673.273V99.7279H676.63V96.3711Z" fill="#1B6E73"/>
<path d="M676.63 103.082H673.273V106.439H676.63V103.082Z" fill="#1B6E73"/>
<path d="M680 99.7266H676.643V103.083H680V99.7266Z" fill="#1B6E73"/>
<path d="M673.273 99.7266H669.916V103.083H673.273V99.7266Z" fill="#1B6E73"/>
<path d="M588.714 121.68H585.357V125.036H588.714V121.68Z" fill="#1B6E73"/>
<path d="M588.714 128.391H585.357V131.747H588.714V128.391Z" fill="#1B6E73"/>
<path d="M592.084 125.035H588.727V128.392H592.084V125.035Z" fill="#1B6E73"/>
<path d="M585.357 125.035H582V128.392H585.357V125.035Z" fill="#1B6E73"/>
<path d="M659.113 103.455C659.113 98.3396 654.944 94.1836 649.842 94.1836C644.74 94.1836 640.571 98.353 640.571 103.455V109.369H659.127V103.455H659.113Z" fill="#1B6E73"/>
<path d="M649.842 92.4364C652.133 92.4364 654.012 90.5582 654.012 88.267C654.012 85.9759 652.133 84.0977 649.842 84.0977C647.551 84.0977 645.673 85.9759 645.673 88.267C645.673 90.5582 647.551 92.4364 649.842 92.4364Z" fill="#1B6E73"/>
<path d="M616.221 92.4364C618.512 92.4364 620.39 90.5582 620.39 88.267C620.39 85.9759 618.512 84.0977 616.221 84.0977C613.93 84.0977 612.052 85.9759 612.052 88.267C612.052 90.5582 613.93 92.4364 616.221 92.4364Z" fill="#1B6E73"/>
<path d="M611.252 134.516H664.228V110.992H602.114V119.464H631.553C631.953 119.464 632.365 119.864 632.365 120.277C632.365 120.69 631.966 121.089 631.553 121.089H601.968V149.729H649.829C650.228 149.729 650.641 150.128 650.641 150.541C650.641 150.954 650.242 151.354 649.829 151.354H601.968V159.826H664.215V136.168H611.252C610.853 136.168 610.44 135.769 610.44 135.356C610.44 134.943 610.706 134.543 611.252 134.543V134.516Z" fill="#1B6E73"/>
<path d="M625.505 103.455C625.505 98.3396 621.336 94.1836 616.234 94.1836C611.132 94.1836 606.963 98.353 606.963 103.455V109.369H625.519V103.455H625.505Z" fill="#1B6E73"/>
<path d="M620.922 53.6754H624.239V78.4252C624.239 78.7449 624.559 79.0646 624.879 79.0646C625.198 79.0646 625.518 78.7449 625.518 78.4252V53.0361C625.518 52.7164 625.198 52.3967 624.879 52.3967H622.308L631.632 40.7145L640.957 52.3967H638.386C638.066 52.3967 637.746 52.7164 637.746 53.0361V73.0703C637.746 73.39 638.066 73.7097 638.386 73.7097C638.705 73.7097 639.025 73.39 639.025 73.0703V53.6754H642.342C642.555 53.6754 642.875 53.5689 642.981 53.2492C643.088 53.0361 643.088 52.7164 642.875 52.5032L632.178 39.2092C632.072 39.1027 631.859 38.9961 631.646 38.9961C631.432 38.9961 631.219 39.1027 631.113 39.2092L620.403 52.6098C620.19 52.8229 620.19 53.0361 620.296 53.3558C620.403 53.4623 620.723 53.6754 620.936 53.6754H620.922Z" fill="#1B6E73"/>
<path d="M602.167 62.9974H604.525V87.7471C604.525 88.0668 604.845 88.3865 605.164 88.3865C605.484 88.3865 605.804 88.0668 605.804 87.7471V62.3446C605.804 62.025 605.484 61.7053 605.164 61.7053H603.339L610.2 50.2362L617.06 61.7053H615.235C614.915 61.7053 614.595 62.025 614.595 62.3446V82.4855C614.595 82.8052 614.915 83.1249 615.235 83.1249C615.554 83.1249 615.874 82.8052 615.874 82.4855V62.984H618.232C618.445 62.984 618.658 62.8775 618.765 62.6643C618.871 62.4512 618.871 62.2381 618.765 62.025L610.732 48.6244C610.626 48.4113 610.413 48.3047 610.2 48.3047C609.986 48.3047 609.773 48.4113 609.667 48.6244L601.634 62.025C601.528 62.2381 601.528 62.4512 601.634 62.6643C601.741 62.8775 601.954 62.984 602.167 62.984V62.9974Z" fill="#1B6E73"/>
<path d="M645.033 63.002H647.391V82.3968C647.391 82.7165 647.71 83.0362 648.03 83.0362C648.35 83.0362 648.669 82.7165 648.669 82.3968V62.3626C648.669 62.0429 648.35 61.7232 648.03 61.7232H646.205L653.065 50.2541L659.925 61.7232H658.1C657.781 61.7232 657.461 62.0429 657.461 62.3626V87.8716C657.461 88.1913 657.781 88.511 658.1 88.511C658.42 88.511 658.74 88.1913 658.74 87.8716V63.0153H661.098C661.311 63.0153 661.524 62.9087 661.63 62.6956C661.737 62.4825 661.737 62.2693 661.63 62.0562L653.598 48.6556C653.492 48.4425 653.278 48.3359 653.065 48.3359C652.852 48.3359 652.639 48.4425 652.532 48.6556L644.5 62.0562C644.394 62.2693 644.394 62.4825 644.5 62.6956C644.607 62.9087 644.82 63.0153 645.033 63.0153V63.002Z" fill="#1B6E73"/>
<path d="M615.568 46.9188C617.393 46.9188 618.885 45.4136 618.885 43.602C618.885 41.7904 617.379 40.2852 615.568 40.2852C613.756 40.2852 612.251 41.7904 612.251 43.602C612.251 45.4136 613.756 46.9188 615.568 46.9188Z" fill="#1B6E73"/>
<path d="M659.819 46.9188C661.644 46.9188 663.136 45.4136 663.136 43.602C663.136 41.7904 661.631 40.2852 659.819 40.2852C658.007 40.2852 656.502 41.7904 656.502 43.602C656.502 45.4136 657.901 46.9188 659.819 46.9188Z" fill="#1B6E73"/>
<path d="M630.993 61.0663V75.8522C630.993 76.1719 631.313 76.4916 631.633 76.4916C631.952 76.4916 632.272 76.1719 632.272 75.8522V61.0663C632.272 60.7466 631.952 60.4269 631.633 60.4269C631.313 60.3203 630.993 60.64 630.993 61.0663Z" fill="#1B6E73"/>
<path d="M652.426 70.3933V85.1792C652.426 85.4989 652.746 85.8186 653.065 85.8186C653.385 85.8186 653.705 85.4989 653.705 85.1792V70.3933C653.705 70.0736 653.385 69.7539 653.065 69.7539C652.746 69.7539 652.426 70.0736 652.426 70.3933Z" fill="#1B6E73"/>
<path d="M609.56 69.112V83.7914C609.56 84.1111 609.88 84.4308 610.199 84.4308C610.519 84.4308 610.839 84.1111 610.839 83.7914V69.112C610.839 68.7924 610.519 68.4727 610.199 68.4727C609.88 68.4727 609.56 68.6858 609.56 69.112Z" fill="#1B6E73"/>
</g>
<path d="M707.665 215.16H712.228V238.218H707.665V226.824H700.537V222.423H707.665V215.16ZM695.434 232.953H699.673C701.86 232.953 704.236 232.548 705.64 231.9V236.031C704.236 236.733 701.752 237.138 699.538 237.138H690.736V215.565H695.434V232.953Z" fill="#1B6E73"/>
<path d="M685.905 227.097V231.093H664.872V215.703H685.635V219.699H669.381V221.508H685.257V225.288H669.381V227.097H685.905ZM663.576 233.226H686.904V237.411H663.576V233.226Z" fill="#1B6E73"/>
<path d="M661.689 223.584V228.012H658.989V238.218H654.426V215.16H658.989V223.584H661.689ZM650.754 219.831V232.71C651.753 232.521 652.671 232.278 653.346 231.954V236.031C651.942 236.733 649.404 237.138 647.19 237.138H637.551V233.007H639.441V219.831H637.713V215.7H652.482V219.831H650.754ZM643.923 219.831V233.007H646.272V219.831H643.923Z" fill="#1B6E73"/>
<path d="M621.076 215.16H625.639V229.146H621.076V223.854H618.025V219.939H621.076V215.16ZM611.437 224.853C609.655 227.121 606.928 228.741 603.661 228.822V224.718C606.766 224.502 608.71 221.964 609.088 219.264H603.985V215.43H618.673V219.264H613.705C613.651 219.966 613.516 220.641 613.3 221.316L619.591 225.339L617.188 228.633L611.437 224.853ZM604.903 233.871V229.956H625.639V238.488H620.995V233.871H604.903Z" fill="#1B6E73"/>
<path d="M592.863 217.16V221.048H577.095V217.16H582.603V215H587.301V217.16H592.863ZM594.807 215.162H599.37V238.22H594.807V215.162ZM587.247 233.117H587.517C589.65 233.117 592.053 232.847 593.484 232.199V236.222C592.053 236.87 589.731 237.14 587.436 237.14H577.014V233.117H582.684V231.173C579.849 230.633 577.959 229.067 577.959 226.556C577.959 223.424 580.929 221.75 585.006 221.75C589.083 221.75 592.053 223.424 592.053 226.556C592.053 229.094 590.136 230.66 587.247 231.173V233.117ZM582.225 226.556C582.225 227.366 583.359 227.771 585.006 227.771C586.653 227.771 587.787 227.366 587.787 226.556C587.787 225.746 586.653 225.341 585.006 225.341C583.359 225.341 582.225 225.746 582.225 226.556Z" fill="#1B6E73"/>
<path d="M575.126 223.584V228.012H572.426V238.218H567.863V215.16H572.426V223.584H575.126ZM561.599 215.781C561.599 219.264 561.275 222.396 560.708 225.096L567.377 234.492L563.651 237.111L559.061 230.388C557.171 234.708 554.282 237.111 550.772 237.138V232.44C554.471 232.008 556.928 225.258 556.955 215.619L561.599 215.781Z" fill="#1B6E73"/>
<circle cx="96.5" cy="95.5" r="95.5" fill="#D2F3EF"/>
<g clip-path="url(#clip1_3361_14997)">
<path d="M68.1751 82.3711C57.1939 82.3711 48.2024 91.3626 48.2024 102.344V122.316H54.0043V111.791C54.0043 111.335 54.46 110.88 54.9156 110.88C55.3713 110.88 55.8269 111.335 55.8269 111.791V139.403H67.2638V123.395C67.2638 122.939 67.7194 122.483 68.1751 122.483C68.6307 122.483 69.0864 122.939 69.0864 123.395V139.555H80.5232V123.395V111.958C80.5232 111.502 80.9788 111.047 81.4345 111.047C81.8901 111.047 82.3458 111.502 82.3458 111.958V122.483H88.1477V102.511C88.1477 91.3778 79.1562 82.3711 68.1599 82.3711H68.1751ZM70.1647 111.958H66.3525V108.146H70.1647V111.958ZM70.1647 104.333H66.3525V100.521H70.1647V104.333ZM70.1647 96.7089H66.3525V92.8966H70.1647V96.7089Z" fill="#1B6E73"/>
<path d="M68.175 80.5287C72.8986 80.5287 76.7108 76.7164 76.7108 71.9929C76.7108 67.2693 72.8986 63.457 68.175 63.457C63.4514 63.457 59.6392 67.2693 59.6392 71.9929C59.6392 76.7164 63.4514 80.5287 68.175 80.5287Z" fill="#1B6E73"/>
<path d="M95.0432 53.8438V78.7071H109.685C109.989 78.7071 110.292 78.8589 110.444 79.0108C110.596 79.3146 110.748 79.6184 110.596 79.7702L109.077 85.1013L120.362 78.6919C120.514 78.54 120.666 78.54 120.818 78.54H129.354V53.8438H95.0432ZM121.425 61.3164L106.176 72.7532C106.024 72.9051 105.872 72.9051 105.569 72.9051H105.417C105.113 72.9051 104.961 72.6013 104.809 72.4495L102.82 68.4853C102.516 68.0297 102.82 67.4221 103.275 67.2702C103.731 66.9665 104.338 67.2702 104.49 67.7259L105.857 70.475L120.195 59.6457C120.651 59.3419 121.258 59.3419 121.562 59.7976C121.866 60.4051 121.866 60.8608 121.41 61.3164H121.425Z" fill="#1B6E73"/>
<path d="M106.693 127.594C103.017 127.594 99.949 130.662 99.949 134.337V141.081H113.436V134.337C113.436 130.51 110.368 127.594 106.693 127.594Z" fill="#1B6E73"/>
<path d="M129.687 127.594C126.012 127.594 122.944 130.662 122.944 134.337V141.081H136.431V134.337C136.431 130.51 133.363 127.594 129.687 127.594Z" fill="#1B6E73"/>
<path d="M129.688 125.606C132.3 125.606 134.441 123.464 134.441 120.852C134.441 118.239 132.3 116.098 129.688 116.098C127.075 116.098 124.934 118.239 124.934 120.852C124.934 123.464 127.075 125.606 129.688 125.606Z" fill="#1B6E73"/>
<path d="M106.693 125.606C109.305 125.606 111.447 123.464 111.447 120.852C111.447 118.239 109.305 116.098 106.693 116.098C104.08 116.098 101.939 118.239 101.939 120.852C101.939 123.464 104.08 125.606 106.693 125.606Z" fill="#1B6E73"/>
<path d="M107.118 96.7462C109.73 96.7462 111.872 94.6046 111.872 91.9922C111.872 89.3798 109.73 87.2383 107.118 87.2383C104.506 87.2383 102.364 89.3798 102.364 91.9922C102.364 94.6046 104.506 96.7462 107.118 96.7462Z" fill="#1B6E73"/>
<path d="M130.113 98.7383C126.437 98.7383 123.369 101.806 123.369 105.482V112.226H136.857V105.482C136.857 101.654 133.789 98.7383 130.113 98.7383Z" fill="#1B6E73"/>
<path d="M130.113 96.7462C132.725 96.7462 134.867 94.6046 134.867 91.9922C134.867 89.3798 132.725 87.2383 130.113 87.2383C127.501 87.2383 125.359 89.3798 125.359 91.9922C125.359 94.6046 127.501 96.7462 130.113 96.7462Z" fill="#1B6E73"/>
<path d="M107.118 98.7383C103.442 98.7383 100.374 101.806 100.374 105.482V112.226H113.862V105.482C113.862 101.654 110.793 98.7383 107.118 98.7383Z" fill="#1B6E73"/>
<path d="M140.168 122.799C140.168 124.333 141.398 125.715 143.084 125.715C144.77 125.715 146 124.485 146 122.799C146 121.113 144.77 119.883 143.084 119.883C141.398 119.883 140.168 121.113 140.168 122.799Z" fill="#1B6E73"/>
<path d="M46 77.2326C46 78.7666 47.2303 80.1487 48.9162 80.1487C50.6021 80.1487 51.8323 78.9185 51.8323 77.2326C51.8323 75.5467 50.6021 74.3164 48.9162 74.3164C47.2303 74.3164 46 75.5467 46 77.2326Z" fill="#1B6E73"/>
<path d="M84.6702 50H80.8428V53.8275H84.6702V50Z" fill="#1B6E73"/>
<path d="M84.6702 57.6719H80.8428V61.4993H84.6702V57.6719Z" fill="#1B6E73"/>
<path d="M88.4976 53.8281H84.6702V57.6556H88.4976V53.8281Z" fill="#1B6E73"/>
<path d="M80.8275 53.8281H77V57.6556H80.8275V53.8281Z" fill="#1B6E73"/>
</g>
<path d="M159.544 214.406H164.107V237.464H159.544V227.15H152.416V222.884H159.544V214.406ZM147.259 232.28H151.552C153.739 232.28 156.115 231.902 157.519 231.281V235.331C156.115 236.006 153.442 236.384 151.228 236.384H142.615V214.946H156.115V219.05H147.259V232.28Z" fill="#1B6E73"/>
<path d="M137.757 214.406V237.464H133.194V214.406H137.757ZM129.846 214.946V227.636H121.017V232.28H126.012C128.199 232.28 130.575 231.821 131.979 231.173V235.277C130.575 235.979 128.118 236.384 125.823 236.384H116.481V223.586H125.31V219.05H116.427V214.946H129.846Z" fill="#1B6E73"/>
<path d="M96.2804 215.701V219.049H81.2954V215.701H86.7764V214H91.4204V215.701H96.2804ZM99.3044 228.337V226.393H97.0634V222.613H99.3044V221.101H97.0634V217.321H99.3044V214.405H103.786V228.337H99.3044ZM89.0984 228.148C85.3184 228.148 82.2134 226.771 82.2134 223.882C82.2134 220.993 85.3184 219.616 89.0984 219.616C92.8784 219.616 95.9834 220.993 95.9834 223.882C95.9834 226.771 92.8784 228.148 89.0984 228.148ZM89.0984 222.829C87.4514 222.829 86.4794 223.234 86.4794 223.882C86.4794 224.53 87.4514 224.935 89.0984 224.935C90.7454 224.935 91.7174 224.53 91.7174 223.882C91.7174 223.207 90.7454 222.829 89.0984 222.829ZM93.5264 228.607C99.4394 228.607 103.975 229.741 103.975 233.17C103.975 236.599 99.4394 237.733 93.5264 237.733C87.6134 237.733 83.0234 236.599 83.0234 233.17C83.0234 229.741 87.6134 228.607 93.5264 228.607ZM93.5264 234.331C96.6854 234.331 99.1424 234.061 99.1424 233.17C99.1424 232.306 96.6854 232.009 93.5264 232.009C90.3674 232.009 87.8564 232.306 87.8564 233.17C87.8564 234.061 90.3674 234.331 93.5264 234.331Z" fill="#1B6E73"/>
<path d="M69.0668 225.557H78.4628V228.878H55.1348V225.557H64.5308V224.558H56.5658V214.406H77.0588V217.241H61.0748V218.213H76.6808V220.805H61.0748V221.75H77.3288V224.558H69.0668V225.557ZM66.7988 229.526C73.0088 229.526 77.3558 230.714 77.3558 233.657C77.3558 236.6 73.0088 237.788 66.7988 237.788C60.5888 237.788 56.2418 236.6 56.2418 233.657C56.2418 230.714 60.5888 229.526 66.7988 229.526ZM66.7988 234.629C70.1738 234.629 72.5228 234.359 72.5228 233.657C72.5228 232.982 70.1738 232.685 66.7988 232.685C63.4238 232.685 61.0748 232.982 61.0748 233.657C61.0748 234.359 63.4238 234.629 66.7988 234.629Z" fill="#1B6E73"/>
<path d="M40.4221 223.045C37.7491 226.582 33.7531 228.742 29.3521 228.742V224.422C33.9421 224.422 38.2081 220.426 39.0451 214.324L43.6891 215.053C43.4731 216.619 43.0681 218.104 42.4741 219.454L52.2211 225.124L49.8721 228.85L40.4221 223.045ZM42.8791 227.284V232.387H52.2211V236.653H28.8931V232.387H38.2351V227.284H42.8791Z" fill="#1B6E73"/>
<circle cx="630.5" cy="442.5" r="95.5" fill="#E3F0FF"/>
<g clip-path="url(#clip2_3361_14997)">
<path d="M629.739 414.302C635.021 414.302 639.274 410.049 639.274 404.766C639.274 399.484 635.021 395.23 629.739 395.23C624.456 395.23 620.203 399.484 620.203 404.766C620.203 410.049 624.456 414.302 629.739 414.302Z" fill="#2366B0"/>
<path d="M629.739 416.52C617.468 416.52 607.426 426.579 607.426 438.832V469.667H613.907V449.566C613.907 449.06 614.414 448.536 614.937 448.536C615.46 448.536 615.966 449.043 615.966 449.566V490.629H628.743V462.342C628.743 461.836 629.249 461.313 629.772 461.313C630.295 461.313 630.802 461.819 630.802 462.342V490.629H643.578V449.566C643.578 449.06 644.084 448.536 644.608 448.536C645.131 448.536 645.637 449.043 645.637 449.566V469.836H652.118V438.832C652.118 426.562 642.059 416.52 629.806 416.52H629.739ZM631.781 453.819H627.528V449.566H631.781V453.819ZM631.781 445.313H627.528V441.06H631.781V445.313ZM631.781 436.79H627.528V432.536H631.781V436.79Z" fill="#2366B0"/>
<path d="M661.603 409.192L671.139 399.656C671.308 399.488 671.477 399.15 671.477 398.981C671.477 398.644 671.308 398.475 671.139 398.306L669.772 396.939L677.772 395.572L676.405 403.572L675.038 402.205C674.7 401.867 674.008 401.867 673.502 402.205L663.966 411.572C663.629 411.91 663.629 412.601 663.966 413.108C664.135 413.277 664.473 413.445 664.641 413.445C664.81 413.445 665.148 413.277 665.317 413.108L674.177 404.247L676.219 406.289C676.557 406.627 676.895 406.627 677.249 406.627C677.587 406.458 677.924 406.12 677.924 405.783L679.798 394.205C679.798 393.867 679.798 393.53 679.46 393.361C679.291 393.192 678.954 393.023 678.616 393.023L667.038 394.897C666.7 394.897 666.363 395.234 666.194 395.572C666.025 395.91 666.194 396.416 666.532 396.601L668.574 398.644L659.713 407.504C659.376 407.842 659.376 408.534 659.713 409.04C660.388 409.715 661.08 409.715 661.587 409.209L661.603 409.192Z" fill="#2366B0"/>
<path d="M598.566 476.988L589.03 486.524C588.692 486.861 588.692 487.553 589.03 488.06L590.397 489.427L582.397 490.794L583.764 482.794L585.131 484.161C585.3 484.33 585.637 484.498 585.806 484.498C585.975 484.498 586.312 484.33 586.481 484.161L596.017 474.625C596.355 474.287 596.355 473.595 596.017 473.089C595.679 472.752 594.988 472.752 594.481 473.089L585.62 481.95L583.747 479.739C583.409 479.401 583.072 479.401 582.717 479.401C582.38 479.57 582.042 479.908 582.042 480.245L580.169 491.806C580.169 492.144 580.169 492.482 580.506 492.65C580.675 492.819 581.013 492.988 581.182 492.988H581.35L592.928 491.114C593.266 491.114 593.604 490.777 593.772 490.439C593.941 490.102 593.772 489.595 593.435 489.41L591.393 487.368L600.253 478.507C600.591 478.169 600.591 477.477 600.253 476.971C599.747 476.465 599.055 476.465 598.549 476.971L598.566 476.988Z" fill="#2366B0"/>
<path d="M678.127 480.402C678.127 480.065 677.789 479.727 677.452 479.558C677.114 479.39 676.608 479.558 676.422 479.896L674.38 481.938L665.519 473.077C665.182 472.74 664.49 472.74 663.983 473.077C663.646 473.415 663.646 474.107 663.983 474.613L673.519 484.149C673.857 484.487 674.549 484.487 675.055 484.149L676.422 482.782L677.789 490.782L669.789 489.415L671.156 488.048C671.494 487.71 671.494 487.018 671.156 486.512L661.62 476.976C661.283 476.639 660.591 476.639 660.084 476.976C659.747 477.314 659.747 478.006 660.084 478.512L668.945 487.373L666.734 489.415C666.397 489.752 666.397 490.09 666.397 490.444C666.565 490.782 666.903 491.12 667.241 491.12L678.819 492.993H678.987C679.325 492.993 679.494 492.824 679.663 492.655C679.831 492.487 680 492.149 680 491.812L678.127 480.402Z" fill="#2366B0"/>
<path d="M591.241 398.968L593.283 396.926C593.62 396.588 593.62 396.251 593.62 395.896C593.451 395.559 593.114 395.221 592.776 395.221L581.198 393.348C580.844 393.348 580.506 393.348 580.338 393.685C580.169 393.854 580 394.192 580 394.529L581.873 406.107C581.873 406.445 582.211 406.782 582.549 406.951C582.886 407.12 583.392 406.951 583.578 406.613L585.62 404.571L594.481 413.432C594.65 413.601 594.987 413.77 595.156 413.77C595.494 413.77 595.662 413.601 595.831 413.432C596.169 413.094 596.169 412.403 595.831 411.896L586.65 402.04C586.312 401.702 585.62 401.702 585.114 402.04L583.747 403.407L582.38 395.39L590.38 396.757L589.013 398.124C588.675 398.462 588.675 399.154 589.013 399.66L598.549 409.196C598.886 409.533 599.578 409.533 600.084 409.196C600.422 408.858 600.422 408.166 600.084 407.66L591.241 398.968Z" fill="#2366B0"/>
</g>
<path d="M689.288 595.082H693.851V618.14H689.288V607.88H685.994V603.614H689.288V595.082ZM676.922 612.875H681.296C683.483 612.875 685.859 612.443 687.263 611.768V615.953C685.859 616.655 683.51 617.06 681.296 617.06H672.359V595.622H685.616V599.807H676.922V604.181H684.536V608.339H676.922V612.875Z" fill="#2366B0"/>
<path d="M667.501 595.082V618.14H662.938V595.082H667.501ZM653.137 595.352C657.484 595.352 660.373 598.754 660.373 606.341C660.373 613.928 657.484 617.33 653.137 617.33C648.79 617.33 645.874 613.928 645.874 606.341C645.874 598.754 648.79 595.352 653.137 595.352ZM653.137 599.537C651.598 599.537 650.383 601.184 650.383 606.341C650.383 611.525 651.598 613.145 653.137 613.145C654.649 613.145 655.864 611.525 655.864 606.341C655.864 601.184 654.649 599.537 653.137 599.537Z" fill="#2366B0"/>
<path d="M637.642 595.082H641.908V618.14H637.642V595.082ZM631.837 603.56V595.19H636.049V617.735H631.837V607.88H629.839V617.06H619.363V595.622H623.521V602.426H625.681V595.622H629.839V603.56H631.837ZM623.521 612.956H625.681V606.503H623.521V612.956Z" fill="#2366B0"/>
<path d="M606.702 613.061H616.044V617.327H592.716V613.061H602.058V608.876H593.985V595.484H598.656V604.61H614.91V608.876H606.702V613.061Z" fill="#2366B0"/>
<path d="M588.776 595.082V618.14H584.213V595.082H588.776ZM574.412 595.352C578.759 595.352 581.648 598.754 581.648 606.341C581.648 613.928 578.759 617.33 574.412 617.33C570.065 617.33 567.149 613.928 567.149 606.341C567.149 598.754 570.065 595.352 574.412 595.352ZM574.412 599.537C572.873 599.537 571.658 601.184 571.658 606.341C571.658 611.525 572.873 613.145 574.412 613.145C575.924 613.145 577.139 611.525 577.139 606.341C577.139 601.184 575.924 599.537 574.412 599.537Z" fill="#2366B0"/>
<path d="M669.147 567.047C669.066 568.559 668.904 569.963 668.661 571.259L675.249 579.089L671.847 582.059L667.068 576.065C665.178 579.872 662.208 582.032 658.698 582.059V577.577C662.019 577.253 664.26 573.068 664.557 567.047H659.211V562.835H664.53V560H669.201V562.835H674.25V567.047H669.147ZM676.059 560.081H680.622V583.139H676.059V560.081Z" fill="#2366B0"/>
<path d="M656.432 568.506V572.934H653.732V583.14H649.169V560.082H653.732V568.506H656.432ZM632.726 564.78V560.622H645.767V566.859C645.767 576.228 640.718 582.06 632.726 582.06V577.74C638.261 577.686 641.123 573.609 641.123 566.859V564.78H632.726Z" fill="#2366B0"/>
<path d="M623.117 567.831V563.781H607.187V560.082H627.707V567.831H623.117ZM618.041 568.911H629.165V572.556H605.837V568.911H613.451V565.482H618.041V568.911ZM617.501 573.744C623.711 573.744 628.031 575.094 628.031 578.577C628.031 582.06 623.711 583.41 617.501 583.41C611.291 583.41 606.971 582.06 606.971 578.577C606.971 575.094 611.291 573.744 617.501 573.744ZM617.501 579.954C620.849 579.954 623.171 579.522 623.171 578.577C623.171 577.659 620.849 577.2 617.501 577.2C614.153 577.2 611.831 577.659 611.831 578.577C611.831 579.522 614.153 579.954 617.501 579.954Z" fill="#2366B0"/>
<path d="M596.875 567.831V563.781H580.945V560.082H601.465V567.831H596.875ZM591.799 568.911H602.923V572.556H579.595V568.911H587.209V565.482H591.799V568.911ZM591.259 573.744C597.469 573.744 601.789 575.094 601.789 578.577C601.789 582.06 597.469 583.41 591.259 583.41C585.049 583.41 580.729 582.06 580.729 578.577C580.729 575.094 585.049 573.744 591.259 573.744ZM591.259 579.954C594.607 579.954 596.929 579.522 596.929 578.577C596.929 577.659 594.607 577.2 591.259 577.2C587.911 577.2 585.589 577.659 585.589 578.577C585.589 579.522 587.911 579.954 591.259 579.954Z" fill="#2366B0"/>
<defs>
<clipPath id="clip0_3361_14997">
<rect width="98" height="120.805" fill="white" transform="translate(582 39)"/>
</clipPath>
<clipPath id="clip1_3361_14997">
<rect width="100" height="91.0845" fill="white" transform="translate(46 50)"/>
</clipPath>
<clipPath id="clip2_3361_14997">
<rect width="100" height="100" fill="white" transform="translate(580 393)"/>
</clipPath>
</defs>
</svg>
