<svg width="344" height="240" viewBox="0 0 344 240" fill="none" xmlns="http://www.w3.org/2000/svg">
<g clip-path="url(#clip0_3618_16514)">
<path fill-rule="evenodd" clip-rule="evenodd" d="M13.297 41.1676C10.5938 41.892 8.98994 44.6705 9.71436 47.373L14.0163 63.4272C12.2882 63.5457 10.5938 64.2657 9.27284 65.5859L2.17704 72.6817C-0.725028 75.5837 -0.725028 80.2892 2.17704 83.1912L7.84593 88.8601C8.70924 89.7234 9.73191 90.3302 10.8189 90.6796L13.1267 99.2922L32.7035 94.0466L29.9594 83.8067L30.8439 74.6846C30.9543 73.5443 30.5771 72.4097 29.8051 71.5632L25.3884 66.7167L19.5024 44.7502C18.778 42.0477 16.0002 40.4432 13.297 41.1676Z" fill="url(#paint0_linear_3618_16514)"/>
<path d="M16.3165 67.8242C18.5592 70.4193 18.2741 74.3403 15.6791 76.583L8.08984 83.143" stroke="#E3A9AA" stroke-width="1.35089" stroke-linecap="round"/>
<path d="M19.3413 142.903C21.8428 149.991 29.2749 154.061 36.5936 152.354C44.5235 150.504 49.4519 142.575 47.601 134.644L37.6631 92.0823C37.2186 90.178 35.2544 89.0479 33.3853 89.6203L7.10807 97.6642C5.27107 98.227 4.2718 100.207 4.91142 102.019L19.3413 142.903V142.903Z" fill="#9BD0D6"/>
<path d="M63.7394 90.5364C69.7599 85.2352 78.9383 85.8193 84.2388 91.8405C89.5399 97.861 88.9559 107.039 82.9354 112.34L43.237 147.29L24.041 125.488L63.7394 90.5372V90.5364Z" fill="#9BD0D6"/>
<path d="M58.7829 102.679C61.5651 91.9493 69.313 84.7227 78.0338 84.7227H84.9688C104.637 85.6693 99.52 91.037 100.788 99.7571L110.912 169.371C111.228 171.548 109.541 173.499 107.341 173.499H49.9912C47.7346 173.499 46.0314 171.451 46.4429 169.232L58.7837 102.679H58.7829Z" fill="#9BD0D6"/>
<path d="M42.6754 115.041C42.2843 113.58 43.0504 112.105 44.3874 111.747L80.2144 102.147C81.5514 101.789 82.952 102.683 83.3438 104.144L95.8453 150.8C96.2371 152.26 95.4703 153.735 94.1341 154.094L58.3063 163.694C56.9693 164.052 55.5688 163.158 55.1777 161.697L42.6761 115.041L42.6754 115.041Z" fill="#565656"/>
<path d="M45.2148 116.316C44.8566 114.979 45.5408 113.636 46.7433 113.313L78.9577 104.682C80.1594 104.359 81.4241 105.181 81.7823 106.517L93.2144 149.183C93.5725 150.518 92.8883 151.863 91.6866 152.184L59.4722 160.817C58.2704 161.138 57.0058 160.317 56.6476 158.981L45.2155 116.316H45.2148Z" fill="white"/>
<path d="M54.5964 108.953C54.4531 108.417 54.7711 107.866 55.3069 107.722L70.3041 103.703C70.8399 103.56 71.3911 103.878 71.5343 104.414L72.4466 107.819C72.5906 108.355 72.2719 108.905 71.7361 109.049L56.7389 113.067C56.2031 113.211 55.6527 112.893 55.5086 112.358L54.5964 108.953Z" fill="#2C2C2C"/>
<path d="M50.2051 119.663L79.3171 111.862L79.7425 113.45L50.6305 121.251L50.2051 119.663Z" fill="#D4D4D4"/>
<path d="M51.6821 125.177L80.7942 117.377L81.2196 118.965L52.1076 126.765L51.6821 125.177Z" fill="#D4D4D4"/>
<path d="M54.2002 136.59L83.9007 128.632L84.3736 130.396L54.6731 138.354L54.2002 136.589V136.59Z" fill="#D4D4D4"/>
<path d="M53.2319 130.621L82.3439 122.821L82.8169 124.585L53.7049 132.386L53.2319 130.621Z" fill="#D4D4D4"/>
<path d="M57.3137 148.209L87.0135 140.251L87.4864 142.016L57.7859 149.974L57.313 148.21L57.3137 148.209Z" fill="#D4D4D4"/>
<path d="M56.3442 142.241L85.4563 134.441L85.9292 136.206L56.8172 144.006L56.3442 142.241Z" fill="#D4D4D4"/>
<path fill-rule="evenodd" clip-rule="evenodd" d="M42.2433 133.377C38.081 133.377 34.9084 137.106 35.5751 141.214L37.4377 152.699C37.9684 155.97 40.7922 158.373 44.1059 158.373H60.989L116.282 158.372V138.106H60.3114L48.9714 133.815C48.2075 133.526 47.3976 133.377 46.581 133.377H42.2447H42.2433Z" fill="#FCD1D2"/>
<path fill-rule="evenodd" clip-rule="evenodd" d="M87.1744 88.3464C83.1707 91.0028 81.2745 95.8932 82.4404 100.554L90.8879 134.311L64.1552 134.123C62.2802 134.11 60.7539 135.626 60.7539 137.501V159.639C60.7539 161.505 62.2663 163.017 64.1319 163.017H108.514C117.199 163.017 123.875 155.336 122.667 146.736C122.577 146.1 122.447 145.478 122.278 144.875V144.872C122.096 144.222 121.871 143.594 121.605 142.987L104.132 93.9882C101.655 87.0445 93.3177 84.2696 87.1744 88.3457V88.3464Z" fill="#9BD0D6"/>
<path d="M106.942 173.485H49.4849L34.6025 240H116.699L106.942 173.485Z" fill="#4E4B57"/>
<path d="M96.507 18.4989C89.7161 22.5735 87.5655 29.7044 87.3389 32.7607C94.4698 53.3602 94.1605 91.0278 108.787 100.779C121.012 108.929 131.198 103.269 133.575 98.7421C132.33 99.5345 126.103 100.075 122.37 95.6857C114.9 86.9028 137.99 46.8433 130.441 30.4076C123.288 14.8315 104.996 13.406 96.507 18.4996V18.4989Z" fill="url(#paint1_linear_3618_16514)"/>
<path d="M79.857 22.4119C67.4161 16.4821 52.4475 33.1328 53.5323 43.98L108.852 59.1658C124.038 34.2176 90.8812 14.1641 79.857 22.4119Z" fill="#4E4347"/>
<path d="M72.0813 77.1553H84.9842L84.876 84.7123C84.835 87.61 82.585 89.996 79.6946 90.2073L78.7166 90.2789C77.294 90.3827 75.8664 90.1692 74.5367 89.6532C73.0564 89.0786 72.0806 87.6539 72.0806 86.0661V77.1553H72.0813Z" fill="#F0C5C6"/>
<path d="M58.9962 56.7209C61.6482 54.0689 61.6482 49.769 58.9962 47.117C56.3441 44.465 52.0443 44.465 49.3923 47.117C46.7402 49.769 46.7402 54.0689 49.3923 56.7209C52.0443 59.3729 56.3441 59.3729 58.9962 56.7209Z" fill="#F9CBCC"/>
<path d="M103.046 66.403C95.6383 79.2335 76.4218 82.9879 63.5921 75.5807C50.7623 68.1735 49.1768 52.408 56.584 39.5783C63.9919 26.7485 80.3977 22.3523 93.2275 29.7602C106.058 37.1674 110.453 53.5732 103.046 66.4037V66.403Z" fill="#FBD4D5"/>
<path d="M55.6083 59.6241C57.0125 59.6241 58.1507 57.9517 58.1507 55.8887C58.1507 53.8257 57.0125 52.1533 55.6083 52.1533C54.2042 52.1533 53.0659 53.8257 53.0659 55.8887C53.0659 57.9517 54.2042 59.6241 55.6083 59.6241Z" fill="#F5BCBE"/>
<path d="M83.9038 66.8354C84.9896 65.0813 84.448 62.779 82.6939 61.6931C80.9398 60.6073 78.6375 61.1489 77.5516 62.903C76.4657 64.6571 77.0074 66.9594 78.7615 68.0453C80.5156 69.1312 82.8179 68.5895 83.9038 66.8354Z" fill="#F5BCBE"/>
<path d="M64.6334 51.1985C65.4668 51.4215 65.9609 52.2782 65.738 53.1115L65.3162 54.6861C65.0932 55.5195 64.2365 56.0136 63.4032 55.7907C62.5698 55.5677 62.0757 54.711 62.2986 53.8776L62.7204 52.3031C62.9434 51.4697 63.8001 50.9756 64.6334 51.1985Z" fill="#46383D"/>
<path d="M76.9886 54.7839C77.8943 55.0266 78.4316 55.9579 78.1889 56.8636L77.8373 58.1757C77.5946 59.0814 76.6633 59.6187 75.7576 59.376C74.8519 59.1333 74.3146 58.202 74.5573 57.2963L74.9089 55.9842C75.1516 55.0785 76.0829 54.5412 76.9886 54.7839Z" fill="#46383D"/>
<path d="M66.6479 58.9438L67.1289 59.7772" stroke="#E3A9AA" stroke-width="1.3582" stroke-linecap="round"/>
<path d="M71.3761 64.3394C70.7562 64.6968 70.072 64.9293 69.363 65.0229C68.6539 65.1164 67.9324 65.0689 67.2409 64.884C66.5501 64.6983 65.9017 64.3789 65.3337 63.9439C64.7664 63.5082 64.2898 62.9651 63.9316 62.3452" stroke="#E3A9AA" stroke-width="1.3582" stroke-linecap="round"/>
<path fill-rule="evenodd" clip-rule="evenodd" d="M110.001 54.0851C110.001 73.6261 75.5889 54.0851 72.3345 39.6383C72.3345 39.6383 56.4755 53.463 53.5332 43.9775C54.2562 42.1698 56.1041 38.9673 56.678 37.9724C64.6985 24.0805 82.268 19.2091 95.9209 27.0915C105.626 32.6946 110.001 43.4439 110.001 54.0851Z" fill="#4E4347"/>
<path d="M107.118 71.57C103.802 74.8851 98.4274 74.8851 95.1124 71.57C91.7973 68.2549 94.2403 65.7666 97.5561 62.4515C100.871 59.1364 103.802 56.2497 107.118 59.5648C110.433 62.8799 110.433 68.2549 107.118 71.57Z" fill="url(#paint2_linear_3618_16514)"/>
<path fill-rule="evenodd" clip-rule="evenodd" d="M241.122 17.2559C238.019 16.5432 230.59 17.5527 225.379 25.0345C223.084 28.3291 220.163 33.9169 218.383 40.1771C216.603 46.4374 202.628 101.123 221.634 106.066C222.372 106.213 223.744 106.423 224.578 106.423H277.423C278.258 106.423 280.055 106.092 280.793 105.945C301.49 99.5795 280.793 33.3869 280.793 33.3869C280.793 33.3869 279.183 28.0579 274.624 21.8876C266.064 10.3027 247.918 9.42037 241.121 17.2559H241.122Z" fill="#4E4347"/>
<path d="M264.321 70.0225H251.485V81.5072H264.321V70.0225Z" fill="#F0C5C6"/>
<path fill-rule="evenodd" clip-rule="evenodd" d="M306.968 3.07367C309.391 1.67454 312.489 2.50496 313.889 4.92822L318.672 13.2141L320.981 10.9049C323.884 8.0028 328.589 8.0028 331.491 10.9049L340.871 20.2843C343.773 23.1864 343.773 27.8918 340.871 30.7939L335.202 36.4628C334.339 37.3261 333.316 37.9328 332.229 38.2822L329.921 46.8949L310.344 41.6492L313.088 31.4094L312.204 22.2865C312.204 22.2865 312.204 22.2792 312.203 22.2755L305.112 9.99477C303.713 7.57151 304.544 4.47281 306.967 3.07294L306.968 3.07367Z" fill="url(#paint3_linear_3618_16514)"/>
<path d="M326.731 15.4258C324.488 18.0208 324.774 21.9426 327.369 24.1853L334.958 30.7453" stroke="#E3A9AA" stroke-width="1.35089" stroke-linecap="round"/>
<path d="M322.575 89.8879C320.074 96.9749 312.642 101.046 305.322 99.3382C297.392 97.488 292.464 89.5589 294.315 81.629L304.252 39.0666C304.697 37.1624 306.661 36.0323 308.531 36.6046L334.808 44.6485C336.645 45.2114 337.644 47.191 337.005 49.0031L322.575 89.8879Z" fill="#BADAFF"/>
<path d="M257.425 83.8777C249.677 85.9537 245.079 93.918 247.155 101.667C249.231 109.416 257.195 114.014 264.944 111.938L310.306 99.7835L302.787 71.7241L257.425 83.8784V83.8777Z" fill="#BADAFF"/>
<path d="M277.847 98.2043C275.065 87.4747 267.317 80.248 258.596 80.248H249.813C242.978 80.248 237.109 86.5624 235.842 95.2825L225.718 164.896C225.401 167.073 227.089 169.024 229.289 169.024H286.638C288.894 169.024 290.598 166.976 290.187 164.757L277.846 98.2043H277.847Z" fill="#BADAFF"/>
<path d="M273.411 117.662L280.871 114.947C281.433 114.742 281.998 115.049 282.132 115.632L286.84 136.027C286.975 136.609 286.628 137.247 286.066 137.452L278.606 140.168C278.044 140.372 277.479 140.065 277.345 139.483L272.636 119.088C272.502 118.505 272.848 117.867 273.411 117.662Z" fill="#565656"/>
<path fill-rule="evenodd" clip-rule="evenodd" d="M286.533 136.626C286.399 136.888 286.173 137.102 285.892 137.205L278.653 139.839C278.408 139.929 278.163 139.918 277.955 139.828L273.912 122.315C273.781 121.75 274.117 121.131 274.663 120.933L281.284 118.523C281.829 118.325 282.377 118.622 282.508 119.187L286.534 136.627L286.533 136.626Z" fill="#7B7B7B"/>
<path d="M232.954 62.8566C241.408 74.929 260.777 76.9846 272.849 68.5306C284.921 60.0773 284.259 45.1562 275.806 33.0837C267.352 21.0113 251.58 17.2386 239.507 25.6919C227.435 34.1452 224.5 50.7841 232.954 62.8566H232.954Z" fill="#FBD4D5"/>
<path d="M261.224 30.9263C272.447 35.7721 278.045 38.9227 280.874 38.7911C280.874 38.7911 271.502 15.6148 257.677 16.2588C251.687 16.538 242.805 19.9247 242.805 19.9247C242.805 19.9247 229.959 25.1719 226.593 32.5418C222.782 40.8854 229.19 56.1742 229.19 56.1742C229.19 56.1742 244.198 54.819 248.442 42.5462L246.331 48.8657C246.331 48.8657 263.574 46.6354 261.224 30.9263Z" fill="#4E4347"/>
<path d="M275.295 52.4131C276.686 52.2913 277.669 50.5354 277.491 48.4911C277.312 46.4468 276.039 44.8883 274.647 45.01C273.256 45.1318 272.272 46.8877 272.451 48.932C272.63 50.9763 273.903 52.5348 275.295 52.4131Z" fill="#F5BCBE"/>
<path d="M253.327 63.1269C255.221 62.3363 256.115 60.1602 255.325 58.2665C254.534 56.3728 252.358 55.4786 250.464 56.2692C248.571 57.0598 247.677 59.2358 248.467 61.1295C249.258 63.0232 251.434 63.9175 253.327 63.1269Z" fill="#F5BCBE"/>
<path d="M266.895 43.9713C266.088 44.2651 265.673 45.1562 265.966 45.9625L266.521 47.4859C266.814 48.2922 267.706 48.7081 268.512 48.4143C269.319 48.1204 269.735 47.2293 269.441 46.423L268.886 44.8996C268.592 44.0933 267.701 43.6774 266.895 43.9713Z" fill="#46383D"/>
<path d="M254.799 48.5953C253.922 48.9141 253.47 49.8834 253.789 50.7598L254.251 52.0296C254.57 52.906 255.539 53.3578 256.416 53.0391C257.292 52.7204 257.744 51.7511 257.425 50.8746L256.963 49.6048C256.644 48.7284 255.675 48.2766 254.799 48.5953Z" fill="#46383D"/>
<path d="M265.406 51.8193L265.002 52.687" stroke="#E3A9AA" stroke-width="1.35089" stroke-linecap="round"/>
<path d="M229.368 68.3293C232.94 71.3272 238.267 70.8615 241.265 67.2884C244.262 63.716 241.626 61.4616 238.053 58.4638C234.48 55.466 231.324 52.8592 228.327 56.4323C225.329 60.0047 225.794 65.3315 229.367 68.3293H229.368Z" fill="url(#paint4_linear_3618_16514)"/>
<path d="M264.315 60.4895C266.101 60.6371 267.832 59.8308 268.868 58.3681L268.924 58.2884C269.749 57.1239 269.91 55.6152 269.352 54.3016C269.278 54.1298 269.09 54.0384 268.91 54.0874L268.808 54.1152C266.05 54.8593 263.441 56.075 261.096 57.7087L261.009 57.7694C260.856 57.8761 260.805 58.0786 260.89 58.2453C261.535 59.518 262.795 60.3645 264.217 60.4822L264.314 60.4902L264.315 60.4895Z" fill="#E3A9AA"/>
<path fill-rule="evenodd" clip-rule="evenodd" d="M296.28 127.928C300.443 127.928 303.615 131.656 302.948 135.765L301.086 147.249C300.556 150.521 297.731 152.923 294.417 152.923H277.534H222.241V132.657H278.21L289.553 128.365C290.316 128.076 291.126 127.928 291.943 127.928H296.279H296.28Z" fill="#FCD1D2"/>
<path d="M257.492 94.4511C258.668 89.7493 256.756 84.8158 252.716 82.1359C246.571 78.0584 238.23 80.7734 235.662 87.6864L216.667 138.807L245.378 142.86L257.492 94.4511Z" fill="#BADAFF"/>
<path d="M230.144 128.986C223.058 129.036 217.078 134.27 216.092 141.288C214.883 149.887 221.56 157.569 230.244 157.569H274.627C276.492 157.569 278.004 156.056 278.004 154.191V132.052C278.004 130.177 276.477 128.661 274.602 128.674L230.143 128.986H230.144Z" fill="#BADAFF"/>
<path d="M229.725 169.239H287.041V240H229.725V169.239Z" fill="#393545"/>
<path d="M251.282 80.293C255.432 82.6387 269.928 105.735 277.627 117.644C277.627 117.644 270.03 95.6805 264.815 81.3756" stroke="black" stroke-width="0.721496" stroke-linecap="round" stroke-linejoin="round"/>
<path d="M208.497 188.345H125.353V240H208.497V188.345Z" fill="#4A4A4A"/>
<path d="M206.982 141.997H127.023C124.678 141.997 122.777 143.897 122.777 146.242V192.59C122.777 194.935 124.678 196.836 127.023 196.836H206.982C209.327 196.836 211.228 194.935 211.228 192.59V146.242C211.228 143.897 209.327 141.997 206.982 141.997Z" fill="#E8E8E8"/>
<path d="M125.177 47.1055C126.694 52.7678 132.514 56.1282 138.177 54.6106C143.839 53.0938 147.199 47.2736 145.682 41.6113C144.165 35.949 138.345 32.5886 132.683 34.1061C127.02 35.623 123.66 41.4432 125.177 47.1055Z" fill="#FAC9CA"/>
<path fill-rule="evenodd" clip-rule="evenodd" d="M166.402 78.6685C137.22 78.6714 126.068 83.7876 126.068 83.7876C118.566 86.5961 114.668 93.0114 112.466 101.268V163.793H166.402V78.6685Z" fill="#E8E8E8"/>
<path fill-rule="evenodd" clip-rule="evenodd" d="M166.386 78.6685C195.568 78.6714 206.72 83.7876 206.72 83.7876C214.221 86.5961 218.119 93.0114 220.322 101.268V163.793H166.386V78.6685Z" fill="#E8E8E8"/>
<path d="M178.289 74.4229H155.363V79.9419H178.289V74.4229Z" fill="#E8E8E8"/>
<path d="M175.054 72.9888H158.072V81.4801H175.054V72.9888Z" fill="#F0C5C6"/>
<path fill-rule="evenodd" clip-rule="evenodd" d="M175.054 77.8197C171.307 77.8168 167.499 77.3124 163.71 76.2605C161.763 75.7195 159.882 75.0521 158.072 74.267V72.9878H175.054V77.8197Z" fill="#E3A9AA"/>
<path d="M187.749 49.1094C189.266 54.7717 195.086 58.1321 200.749 56.6145C206.411 55.0977 209.771 49.2775 208.254 43.6152C206.737 37.9529 200.917 34.5925 195.254 36.11C189.592 37.6269 186.232 43.4471 187.749 49.1094Z" fill="#F9CBCC"/>
<path d="M134.44 49.4574C139.235 67.35 157.568 77.9839 175.387 73.209C193.208 68.4341 203.767 50.0583 198.972 32.1656C194.178 14.273 175.845 3.63912 158.025 8.41327C140.205 13.1882 129.646 31.564 134.44 49.4566V49.4574Z" fill="#FBD4D5"/>
<path d="M161.752 58.6161C161.752 60.6892 164.033 62.3705 166.847 62.3705C169.662 62.3705 171.943 60.6899 171.943 58.6161C171.943 56.5423 169.662 56.4268 166.847 56.4268C164.033 56.4268 161.752 56.543 161.752 58.6161Z" fill="#E3A9AA"/>
<path d="M179.257 51.2377C179.257 53.8174 181.348 55.9081 183.928 55.9081C186.507 55.9081 188.598 53.8174 188.598 51.2377C188.598 48.658 186.507 46.5674 183.928 46.5674C181.348 46.5674 179.257 48.658 179.257 51.2377Z" fill="#F5BCBE"/>
<path d="M145.292 51.2377C145.292 53.8174 147.383 55.9081 149.963 55.9081C152.543 55.9081 154.633 53.8174 154.633 51.2377C154.633 48.658 152.543 46.5674 149.963 46.5674C147.383 46.5674 145.292 48.658 145.292 51.2377Z" fill="#F5BCBE"/>
<path d="M177.732 45.1282C177.732 43.9557 176.782 43.0054 175.61 43.0054C174.437 43.0054 173.487 43.9557 173.487 45.1282V46.8263C173.487 47.9988 174.437 48.9491 175.61 48.9491C176.782 48.9491 177.732 47.9988 177.732 46.8263V45.1282Z" fill="#46383D"/>
<path d="M160.576 45.1282C160.576 43.9557 159.626 43.0054 158.453 43.0054C157.281 43.0054 156.331 43.9557 156.331 45.1282V46.8263C156.331 47.9988 157.281 48.9491 158.453 48.9491C159.626 48.9491 160.576 47.9988 160.576 46.8263V45.1282Z" fill="#46383D"/>
<path fill-rule="evenodd" clip-rule="evenodd" d="M165.257 51.1575C165.589 50.8264 166.126 50.8264 166.458 51.1575L167.309 52.0084C167.64 52.3396 167.64 52.8776 167.309 53.2095C166.977 53.5413 166.44 53.5413 166.108 53.2095L165.257 52.3586C164.925 52.0267 164.925 51.4894 165.257 51.1575Z" fill="#E3A9AA"/>
<path fill-rule="evenodd" clip-rule="evenodd" d="M150.696 79.1984C152.442 84.9602 159.317 92.678 167.2 92.678C175.083 92.678 181.402 84.9594 182.995 79.1977C177.925 78.7701 172.533 78.6685 166.847 78.6685C161.162 78.6685 155.767 78.7701 150.696 79.1984Z" fill="#F0C5C6"/>
<path d="M147.429 79.5273L155.308 74.5098L166.826 92.5939L158.335 100.11L147.429 79.5273Z" fill="#F4F4F4"/>
<path d="M186.062 79.5273L178.183 74.5098L166.665 92.5939L175.156 100.11L186.062 79.5273Z" fill="#F4F4F4"/>
<path d="M174.892 152.543L166.826 164.43L158.759 152.543L163.96 103.293H169.692L174.893 152.543H174.892Z" fill="#6694AF"/>
<path d="M172.176 97.3495L166.741 92.2544L161.307 97.3495L163.855 103.464H169.629L172.176 97.3495H172.176Z" fill="#709DB7"/>
<path fill-rule="evenodd" clip-rule="evenodd" d="M189.592 7.90862C191.292 9.62281 193.251 11.598 195.745 13.3874C206.222 20.9036 201.797 34.1734 200.114 39.21C198.01 41.4753 183.538 44.1925 178.486 26.9782C173.435 44.6457 152.387 39.2092 152.387 39.2092L157.891 33.5484C146.995 44.5178 132.843 39.2092 132.843 39.2092L132.844 39.2041L132.841 39.2063C131.167 34.6924 126.708 14.6667 139.758 9.76316C143.141 8.49195 146.417 6.96709 149.559 5.50436C160.97 0.193656 170.618 -4.2976 177.204 7.15569C182.648 0.907841 185.291 3.57233 189.592 7.90788V7.90862Z" fill="#4E4347"/>
<path fill-rule="evenodd" clip-rule="evenodd" d="M177.015 3.81524C176.738 2.15661 175.823 1.61859 174.957 0.834961C176.626 1.25236 177.358 1.81815 178.006 3.3379C178.654 4.85911 178.006 7.50971 178.006 7.50971H176.36C176.771 6.76482 177.255 5.26043 177.015 3.81597V3.81524Z" fill="#4E4347"/>
<path d="M194.494 112.532C194.494 110.633 192.954 109.094 191.055 109.094H139.202C137.303 109.094 135.763 110.633 135.763 112.532V184.199C135.763 186.098 137.303 187.637 139.202 187.637H191.055C192.954 187.637 194.494 186.098 194.494 184.199V112.532Z" fill="#2C2C2C"/>
<path fill-rule="evenodd" clip-rule="evenodd" d="M218.199 61.2589C218.199 59.1485 216.487 57.438 214.378 57.438C212.268 57.438 210.557 59.1485 210.557 61.2589V76.1859C210.473 76.0434 210.388 75.903 210.299 75.7656C208.669 73.2166 206.345 71.6837 203.824 71.0653C199.091 69.9044 193.919 72.0141 191.333 75.566C190.091 77.2722 190.468 79.6625 192.174 80.9045C193.881 82.1457 196.27 81.7693 197.512 80.0631C198.324 78.9476 200.368 78.0865 202.003 78.4878C202.667 78.6508 203.316 79.031 203.861 79.884C204.445 80.7978 205.036 82.4645 205.036 85.3358C205.036 85.9988 204.793 86.463 204.234 86.895C203.581 87.4009 202.503 87.8139 201.195 87.9038C199.889 87.993 198.712 87.735 197.932 87.3132C197.22 86.9279 196.987 86.5171 196.917 86.0997C196.568 84.0186 194.599 82.6136 192.517 82.9615C190.436 83.3102 189.031 85.2795 189.38 87.3614C189.914 90.5522 191.947 92.7642 194.294 94.034C195.489 94.6802 196.792 95.1063 198.117 95.341C200.362 96.542 203.477 99.0106 203.763 102.443H223.293C223.151 99.4748 223.207 92.3585 224.561 87.6034L232.989 75.5668C234.199 73.8379 233.779 71.4549 232.05 70.2451C230.322 69.0346 227.939 69.4549 226.729 71.1837L225.304 73.2181L227.373 65.4965C227.919 63.4578 226.709 61.3627 224.671 60.8167C222.633 60.2706 220.537 61.4797 219.991 63.5184L218.198 70.2115V61.2604L218.199 61.2589Z" fill="#FEDDD9"/>
<path d="M230.086 104.989C230.086 103.114 228.566 101.593 226.69 101.593H201.216C199.34 101.593 197.82 103.114 197.82 104.989V165.702C197.82 174.612 205.043 181.835 213.953 181.835C222.863 181.835 230.086 174.612 230.086 165.702V104.989Z" fill="#F4F4F4"/>
<path d="M223.597 109.02C224.476 109.02 225.189 108.307 225.189 107.428C225.189 106.548 224.476 105.835 223.597 105.835C222.718 105.835 222.005 106.548 222.005 107.428C222.005 108.307 222.718 109.02 223.597 109.02Z" fill="#D9D9D9"/>
<path fill-rule="evenodd" clip-rule="evenodd" d="M181.216 170.711C180.668 170.394 180.173 170.021 179.734 169.602H132.601V148.387H180.488L193.081 141.115C195.619 139.651 198.862 140.52 200.327 143.057C201.791 145.594 200.923 148.838 198.385 150.303L198.189 150.415L201.515 152.335C205.236 154.483 206.51 159.241 204.362 162.961L199.11 172.059C196.962 175.78 192.204 177.055 188.483 174.907L181.216 170.711H181.216Z" fill="#FBD4D5"/>
<path fill-rule="evenodd" clip-rule="evenodd" d="M127.554 83.3389C135.869 84.5077 135.116 96.287 135.116 105.628V143.512L177.292 143.877C179.502 143.849 181.195 145.834 180.819 148.013V173.559C180.494 175.441 178.733 176.725 176.842 176.459H123.733C113.756 176.459 105.689 171.649 105.689 161.883C105.689 161.883 110.536 110.972 111.704 102.656C112.873 94.3404 119.275 85.4617 127.554 83.3389Z" fill="#F4F4F4"/>
<path d="M174.418 172.777C175.298 172.777 176.01 172.065 176.01 171.185C176.01 170.306 175.298 169.593 174.418 169.593C173.539 169.593 172.826 170.306 172.826 171.185C172.826 172.065 173.539 172.777 174.418 172.777Z" fill="#D9D9D9"/>
<path d="M167.873 144.119V176.315" stroke="#D6D6D6" stroke-width="0.707607"/>
<path d="M197.593 112.558H229.789" stroke="#D6D6D6" stroke-width="0.707607"/>
<path d="M167.179 207.096C167.179 206.803 167.417 206.565 167.71 206.565C168.003 206.565 168.241 206.803 168.241 207.096H167.179ZM168.241 207.096V240H167.179V207.096H168.241Z" fill="#3D3D3D"/>
</g>
<defs>
<linearGradient id="paint0_linear_3618_16514" x1="32.0303" y1="38.343" x2="8.0126" y2="107.22" gradientUnits="userSpaceOnUse">
<stop stop-color="#FDC9C9"/>
<stop offset="1" stop-color="#FBD4D4"/>
</linearGradient>
<linearGradient id="paint1_linear_3618_16514" x1="91.439" y1="32.105" x2="144.41" y2="94.5834" gradientUnits="userSpaceOnUse">
<stop stop-color="#42373B"/>
<stop offset="1" stop-color="#4E4347"/>
</linearGradient>
<linearGradient id="paint2_linear_3618_16514" x1="107.199" y1="70.9633" x2="97.5407" y2="62.3996" gradientUnits="userSpaceOnUse">
<stop offset="0.4" stop-color="#F9CBCC"/>
<stop offset="1" stop-color="#FBD4D5"/>
</linearGradient>
<linearGradient id="paint3_linear_3618_16514" x1="310.379" y1="-13.8299" x2="334.398" y2="55.0455" gradientUnits="userSpaceOnUse">
<stop stop-color="#FDC9CA"/>
<stop offset="1" stop-color="#FBD6D4"/>
</linearGradient>
<linearGradient id="paint4_linear_3618_16514" x1="229.235" y1="67.735" x2="238.063" y2="58.4112" gradientUnits="userSpaceOnUse">
<stop offset="0.4" stop-color="#F9CBCC"/>
<stop offset="1" stop-color="#FBD4D5"/>
</linearGradient>
<clipPath id="clip0_3618_16514">
<rect width="343.047" height="240" fill="white"/>
</clipPath>
</defs>
</svg>
