<svg width="1001" height="92" viewBox="0 0 1001 92" fill="none" xmlns="http://www.w3.org/2000/svg">
<g clip-path="url(#clip0_2818_33759)">
<path d="M988.073 89.7459C989.15 88.5712 989.732 87.0333 989.695 85.3984C989.659 82.6132 987.419 80.3971 984.742 80.4455C983.665 80.4697 982.659 80.9178 981.921 81.7291C981.739 81.9229 981.582 82.1288 981.448 82.3468C981.787 82.1893 982.151 82.0924 982.526 82.0682C984.246 81.9592 985.735 83.3277 985.844 85.1199C985.953 86.8395 984.754 88.3169 983.144 88.5349C983.12 88.5349 983.095 88.547 983.059 88.5591C982.926 88.5834 982.72 88.5834 982.478 88.5591C982.139 88.5228 981.824 88.438 981.521 88.3048C981.037 88.1111 980.516 87.8083 980.056 87.3239C978.954 86.1735 977.864 84.2359 979.123 80.6514C979.68 78.6169 984.258 71.7627 990.773 64.4362C1002.68 51.0426 1000.95 43.3044 1000.61 40.1074C999.117 31.9453 991.584 26.4837 983.725 27.9127C980.613 28.4819 977.912 30.262 976.108 32.9504C974.606 35.1787 973.88 37.8065 973.989 40.4828C974.013 41.0399 974.074 41.5969 974.17 42.154C975.103 47.5913 980.116 51.2485 985.336 50.3039C989.598 49.5289 992.444 45.2783 991.681 40.8461C991.052 37.201 987.697 34.7548 984.209 35.3845C982.817 35.6388 981.594 36.4381 980.782 37.6491C980.516 38.0366 980.322 38.4483 980.165 38.8843C980.819 38.303 981.654 37.9397 982.575 37.8792C984.863 37.7338 986.837 39.5503 986.995 41.936C987.14 44.3216 985.408 46.3682 983.12 46.5135C982.889 46.5256 982.659 46.5135 982.441 46.4893C981.182 46.3803 979.935 45.6416 978.966 44.3701C977.537 42.5052 977.004 39.9136 977.585 37.6127C978.142 35.3845 979.923 33.3137 982.345 32.0906C985.009 30.7343 987.915 30.6374 990.531 31.8121C996.658 34.5611 1000.28 40.6766 997.47 50.6188C996.114 54.1186 993.922 58.1633 989.647 63.2858C978.13 77.0789 976.617 81.2447 976.689 84.1027C976.689 84.2601 976.713 84.357 976.726 84.4418V84.466C976.895 88.4865 980.128 91.6714 984.004 91.5987C985.566 91.5745 987.019 90.9085 988.109 89.7338L988.073 89.7459Z" fill="#EAEAEA"/>
<path d="M914.674 5.8494C915.994 4.96538 917.605 4.6263 919.216 4.90483C921.965 5.36501 923.805 7.9202 923.357 10.548C923.176 11.6137 922.57 12.5341 921.662 13.1396C921.444 13.2849 921.214 13.406 920.984 13.515C921.19 13.2122 921.347 12.861 921.42 12.4856C921.783 10.8024 920.669 9.13119 918.913 8.74367C917.23 8.38037 915.583 9.32495 915.123 10.8992C915.11 10.9235 915.098 10.9477 915.086 10.984C915.05 11.1051 915.013 11.311 915.001 11.5653C914.977 11.9044 915.013 12.2313 915.098 12.5462C915.207 13.0548 915.437 13.6119 915.837 14.1447C916.806 15.4041 918.562 16.7847 922.279 16.0823C924.374 15.8401 931.846 12.3645 940.081 7.03618C955.134 -2.68808 962.509 0.206187 965.621 1.02966C973.456 3.74228 977.706 12.0255 975.103 19.582C974.074 22.5732 971.894 24.971 968.951 26.3394C966.517 27.4777 963.816 27.7926 961.189 27.2839C960.644 27.175 960.099 27.0296 959.566 26.8601C954.334 25.1042 951.476 19.6063 953.208 14.5806C954.625 10.4875 959.251 8.31983 963.526 9.7488C967.026 10.9235 968.939 14.6049 967.776 17.9714C967.316 19.3156 966.335 20.3934 965.015 21.011C964.591 21.2048 964.143 21.3501 963.695 21.4349C964.361 20.8778 964.858 20.1149 965.064 19.2066C965.56 16.9663 964.059 14.7381 961.734 14.2174C959.396 13.7087 957.108 15.1014 956.623 17.3538C956.575 17.5839 956.551 17.8019 956.538 18.032C956.454 19.2914 956.999 20.6477 958.101 21.786C959.723 23.4814 962.206 24.4018 964.567 24.1838C966.856 23.9779 969.169 22.5369 970.755 20.3329C972.499 17.9109 973.032 15.0529 972.281 12.2798C970.501 5.80097 965.003 1.29608 954.758 2.55551C951.101 3.36687 946.766 4.91694 941.05 8.35616C925.658 17.6323 921.311 18.4921 918.501 17.9835C918.356 17.9593 918.247 17.923 918.162 17.8988H918.138C914.19 17.1237 911.538 13.4423 912.204 9.61559C912.47 8.07763 913.342 6.73343 914.674 5.8494Z" fill="#EAEAEA"/>
<path d="M996.138 9.42254V9.45887C997.845 13.0313 994.091 16.8943 993.316 17.6452C994.152 18.1296 994.842 18.6866 995.375 19.28C998.354 22.6466 995.75 26.5338 995.605 26.8245C995.605 26.8245 986.304 19.1226 973.977 29.0648C973.977 29.0648 984.984 19.3406 978.808 7.86036C978.808 7.86036 984.9 4.80866 987.637 11.239C987.637 11.239 992.541 7.07321 996.138 9.42254Z" fill="#EAEAEA"/>
<path d="M949.139 8.15039C945.809 11.3595 941.655 10.0274 941.655 10.0274C943.472 12.9217 946.342 12.0861 946.342 12.0861C944.828 16.1066 947.625 20.006 947.625 20.006C947.311 19.013 947.141 16.9059 948.134 13.4424C948.982 10.4997 949.139 8.15039 949.139 8.15039Z" fill="#EAEAEA"/>
<path d="M942.951 40.2304C943.012 40.8964 943.484 41.3566 943.932 41.5019C944.404 41.6593 944.852 41.4414 945.058 41.1992C945.288 40.957 945.361 40.6784 945.361 40.5089C945.361 40.3394 945.337 40.2546 945.337 40.2546C945.337 40.2546 945.349 40.3394 945.337 40.5089C945.313 40.6663 945.216 40.9085 944.986 41.1144C944.768 41.3082 944.392 41.4414 944.017 41.2718C943.653 41.1144 943.326 40.7027 943.326 40.2062C943.326 39.7097 943.593 39.1526 944.089 38.8498C944.586 38.535 945.24 38.4381 945.894 38.5713C946.56 38.6924 947.25 38.9952 947.94 39.3464C948.643 39.6975 949.345 40.1335 950.12 40.5089C950.895 40.8843 951.719 41.1992 952.554 41.3082C953.378 41.4293 954.189 41.3929 954.928 41.2839C955.17 41.2476 955.364 41.1749 955.594 41.1386C952.663 42.4707 949.624 44.0934 948.655 45.4497C947.952 46.2248 946.923 48.1139 948.074 49.773C949.321 51.3473 951.343 50.7781 952.227 50.2574C953.717 49.6156 955.981 46.9514 957.955 44.3235C957.858 44.5415 957.749 44.7232 957.652 44.9532C957.374 45.6798 957.132 46.4791 957.035 47.351C956.926 48.2229 957.011 49.1312 957.18 50.0031C957.338 50.8871 957.556 51.7106 957.713 52.4977C957.87 53.2849 957.979 54.0599 957.919 54.7623C957.87 55.4646 957.628 56.1065 957.204 56.5182C956.805 56.942 956.211 57.0874 955.751 56.9542C955.279 56.8331 954.988 56.385 954.928 55.9854C954.867 55.5736 955.073 55.2224 955.315 55.0529C955.557 54.8713 955.8 54.8349 955.957 54.847C956.115 54.8591 956.199 54.8955 956.199 54.8955C956.199 54.8955 956.127 54.847 955.969 54.8107C955.812 54.7744 955.545 54.7744 955.255 54.9439C954.976 55.1013 954.661 55.4889 954.698 56.0096C954.71 56.5061 955.025 57.0874 955.63 57.3175C956.211 57.5475 956.986 57.4143 957.543 56.9057C958.113 56.4092 958.452 55.6221 958.536 54.8228C958.718 53.188 958.21 51.5168 957.895 49.8456C957.737 49.0101 957.652 48.1866 957.725 47.4116C957.798 46.6244 957.979 45.8736 958.222 45.1712C958.694 43.7665 959.336 42.5676 959.905 41.5867C959.905 41.5625 959.929 41.5504 959.941 41.5261C961.092 39.8671 961.891 38.6198 961.951 38.535H961.927C961.806 38.5834 960.462 39.0678 958.67 39.8065C958.645 39.8065 958.621 39.8186 958.597 39.8307C957.543 40.1698 956.272 40.5089 954.855 40.6421C954.141 40.7027 953.402 40.7148 952.651 40.5816C951.912 40.4605 951.174 40.1698 950.435 39.8065C948.958 39.0678 947.541 38.1475 945.979 37.9174C945.203 37.8084 944.392 37.9537 943.787 38.4018C943.181 38.8377 942.866 39.5886 942.927 40.2304H942.951Z" fill="#EAEAEA"/>
<path d="M963.514 34.5259C963.514 36.3787 965.015 37.8683 966.856 37.8683C968.697 37.8683 970.198 36.3666 970.198 34.5259C970.198 32.6852 968.697 31.1836 966.856 31.1836C965.015 31.1836 963.514 32.6852 963.514 34.5259Z" fill="#EAEAEA"/>
<path d="M938.216 34.5009C939.476 34.3919 941.135 33.7864 942.043 33.1809C943.775 32.0305 944.647 32.7813 944.647 32.7813C944.925 30.6257 943 30.8316 943 30.8316C944.186 29.33 943.811 27.3439 943.484 26.3873C942.079 22.282 935.976 20.8773 934.704 26.1451C937.151 22.1972 942.007 25.2005 940.808 28.785C939.96 31.316 937.962 32.6481 935.54 32.1637C936.218 31.5219 936.436 30.2382 936.436 30.2382C931.314 31.8609 931.483 26.3509 931.483 26.3509C932.101 18.7943 939.149 15.4883 943.944 14.3984C943.605 14.3742 943.278 14.2895 942.975 14.1562C942.77 14.1926 942.552 14.2168 942.358 14.2531C940.59 14.5438 938.676 15.234 937.187 15.9243C935.479 16.7357 934.293 16.3481 934.293 16.3481C933.639 17.5591 934.111 18.1283 934.559 18.3826C930.599 22.1609 930.151 25.8423 930.272 27.9373C930.623 31.9699 934.28 34.8279 938.216 34.5009Z" fill="#EAEAEA"/>
<path d="M990.228 53.8285C987.104 57.2314 988.533 61.3488 988.533 61.3488C985.59 59.6049 986.365 56.7107 986.365 56.7107C982.381 58.3334 978.409 55.6329 978.409 55.6329C979.414 55.9114 981.521 56.0446 984.96 54.9547C987.879 54.0344 990.228 53.8164 990.228 53.8164V53.8285Z" fill="#EAEAEA"/>
<path d="M964.168 65.4181C964.241 64.1587 964.81 62.4754 965.391 61.5672C966.505 59.8112 965.718 58.9514 965.718 58.9514C967.873 58.6245 967.716 60.55 967.716 60.55C969.181 59.3269 971.179 59.6417 972.148 59.9445C976.29 61.2523 977.852 67.3073 972.608 68.712C976.496 66.169 973.371 61.3855 969.823 62.6692C967.316 63.5774 966.033 65.6119 966.578 68.0218C967.207 67.3194 968.479 67.0772 968.479 67.0772C966.989 72.2481 972.487 71.9333 972.487 71.9333C980.032 71.1219 983.144 64.0013 984.125 59.1815C984.161 59.5206 984.246 59.8476 984.391 60.1503C984.367 60.3562 984.343 60.5742 984.307 60.78C984.064 62.5481 983.423 64.4857 982.757 65.9873C981.994 67.719 982.405 68.8937 982.405 68.8937C981.219 69.5839 980.637 69.1238 980.371 68.6757C976.69 72.7325 973.032 73.2775 970.925 73.2048C966.881 72.9626 963.938 69.366 964.168 65.4302V65.4181Z" fill="#EAEAEA"/>
<path d="M13.6971 89.7479C12.6193 88.5732 12.038 87.0352 12.0743 85.4004C12.1107 82.6151 14.351 80.399 17.0273 80.4474C18.1051 80.4717 19.1102 80.9197 19.8489 81.7311C20.0305 81.9249 20.188 82.1307 20.3212 82.3487C19.9821 82.1913 19.6188 82.0944 19.2434 82.0702C17.5238 81.9612 16.0343 83.3296 15.9253 85.1219C15.8163 86.8415 17.0152 88.3189 18.6258 88.5369C18.65 88.5369 18.6742 88.549 18.7106 88.5611C18.8438 88.5853 19.0496 88.5853 19.2918 88.5611C19.6309 88.5248 19.9458 88.44 20.2485 88.3068C20.7329 88.113 21.2536 87.8103 21.7138 87.3259C22.8158 86.1754 23.9057 84.2379 22.6463 80.6533C22.0892 78.6189 17.5117 71.7646 10.9966 64.4381C-0.907486 51.0446 0.82423 43.3064 1.16331 40.1093C2.65283 31.9473 10.1852 26.4857 18.0445 27.9147C21.1568 28.4838 23.8573 30.264 25.6617 32.9524C27.1633 35.1806 27.8899 37.8085 27.7809 40.4848C27.7567 41.0418 27.6961 41.5989 27.5992 42.1559C26.6668 47.5933 21.6654 51.2505 16.4339 50.3059C12.1712 49.5309 9.32539 45.2803 10.0883 40.848C10.718 37.203 14.0725 34.7568 17.5601 35.3865C18.9528 35.6408 20.1759 36.44 20.9872 37.651C21.2536 38.0385 21.4474 38.4503 21.6048 38.8862C20.9509 38.305 20.1153 37.9417 19.195 37.8811C16.9062 37.7358 14.9323 39.5523 14.7748 41.9379C14.6295 44.3236 16.3612 46.3702 18.65 46.5155C18.8801 46.5276 19.1102 46.5155 19.3282 46.4913C20.5876 46.3823 21.8349 45.6436 22.8037 44.372C24.2327 42.5071 24.7655 39.9156 24.1842 37.6147C23.6272 35.3865 21.847 33.3157 19.4251 32.0926C16.7609 30.7363 13.8545 30.6394 11.2388 31.8141C5.11114 34.563 1.49028 40.6785 4.29977 50.6207C5.65608 54.1205 7.84798 58.1652 12.1228 63.2877C23.6393 77.0809 25.153 81.2467 25.0804 84.1046C25.0804 84.2621 25.0562 84.359 25.044 84.4437V84.4679C24.8745 88.4884 21.6412 91.6733 17.766 91.6007C16.2038 91.5765 14.7506 90.9104 13.6607 89.7357L13.6971 89.7479Z" fill="#EAEAEA"/>
<path d="M87.0955 5.84989C85.7755 4.96587 84.1649 4.62679 82.5542 4.90532C79.8053 5.36549 77.9646 7.92068 78.4126 10.5485C78.5943 11.6142 79.1998 12.5346 80.108 13.1401C80.326 13.2854 80.5561 13.4065 80.7983 13.5155C80.5924 13.2127 80.435 12.8615 80.3623 12.4861C79.9869 10.8028 81.1132 9.13167 82.8691 8.74416C84.5524 8.38086 86.1993 9.32543 86.6595 10.8997C86.6716 10.9239 86.6837 10.9482 86.6958 10.9845C86.7322 11.1056 86.7685 11.3115 86.7806 11.5658C86.8048 11.9048 86.7685 12.2318 86.6837 12.5467C86.5747 13.0553 86.3446 13.6123 85.945 14.1452C84.9762 15.4046 83.2203 16.7851 79.5025 16.0828C77.4075 15.8406 69.9357 12.365 61.701 7.03666C46.6241 -2.67549 39.2371 0.218782 36.1248 1.04226C28.2897 3.75488 24.0392 12.0381 26.6428 19.5946C27.6721 22.5858 29.8519 24.9835 32.7946 26.352C35.2287 27.4903 37.9292 27.8052 40.5571 27.2965C41.102 27.1875 41.647 27.0422 42.1798 26.8727C47.4113 25.1168 50.2692 19.6189 48.5375 14.5932C47.1206 10.5001 42.4947 8.33242 38.2199 9.76139C34.7201 10.9361 32.8067 14.6175 33.9693 17.984C34.4295 19.3282 35.4104 20.406 36.7303 21.0236C37.1542 21.2174 37.6023 21.3627 38.0503 21.4475C37.3843 20.8904 36.8878 20.1275 36.6819 19.2192C36.1854 16.9789 37.687 14.7507 40.0121 14.2299C42.3493 13.7213 44.6381 15.114 45.1225 17.3664C45.1709 17.5965 45.1952 17.8145 45.2073 18.0446C45.292 19.304 44.7471 20.6603 43.6451 21.7986C42.0224 23.494 39.5398 24.4144 37.1784 24.1964C34.8896 23.9905 32.5766 22.5495 30.9902 20.3454C29.2464 17.9235 28.7136 15.0655 29.4644 12.2924C31.2446 5.81356 36.7425 1.30867 46.9874 2.5681C50.6446 3.37947 54.98 4.92954 60.6959 8.36875C76.0875 17.6449 80.435 18.5047 83.2445 17.9961C83.3898 17.9719 83.4988 17.9356 83.5836 17.9114H83.6078C87.5556 17.1363 90.2077 13.4549 89.5417 9.62818C89.2752 8.09022 88.4033 6.74602 87.0712 5.862L87.0955 5.84989Z" fill="#EAEAEA"/>
<path d="M5.63171 9.42254V9.45887C3.92421 13.0313 7.67829 16.8943 8.45332 17.6452C7.61774 18.1296 6.92747 18.6866 6.39464 19.28C3.4156 22.6466 6.01923 26.5338 6.16455 26.8245C6.16455 26.8245 15.465 19.1226 27.7928 29.0648C27.7928 29.0648 16.7849 19.3406 22.961 7.86036C22.961 7.86036 16.8697 4.80866 14.1329 11.239C14.1329 11.239 9.22836 7.07321 5.63171 9.42254Z" fill="#EAEAEA"/>
<path d="M52.6304 8.15039C55.9606 11.3595 60.1143 10.0274 60.1143 10.0274C58.2978 12.9217 55.4278 12.0861 55.4278 12.0861C56.9415 16.1066 54.1441 20.006 54.1441 20.006C54.459 19.013 54.6285 16.9059 53.6355 13.4424C52.7878 10.4997 52.6304 8.15039 52.6304 8.15039Z" fill="#EAEAEA"/>
<path d="M57.971 38.4018C57.3776 37.9537 56.5542 37.8084 55.7791 37.9174C54.2169 38.1354 52.8001 39.0678 51.3227 39.8065C50.584 40.1698 49.8453 40.4605 49.1066 40.5816C48.3557 40.7148 47.617 40.7027 46.9026 40.6421C45.4857 40.5089 44.2021 40.1698 43.1606 39.8307C43.1364 39.8307 43.1122 39.8186 43.0879 39.8065C41.2957 39.0678 39.9636 38.5834 39.8304 38.535H39.8062C39.8667 38.6198 40.666 39.8792 41.8164 41.5261C41.8285 41.5504 41.8406 41.5625 41.8527 41.5867C42.4219 42.5676 43.0637 43.7665 43.536 45.1712C43.7661 45.8736 43.9599 46.6244 44.0325 47.4116C44.1052 48.1866 44.0325 49.0101 43.863 49.8456C43.5481 51.5168 43.0395 53.188 43.2211 54.8228C43.318 55.6342 43.6571 56.4213 44.2142 56.9057C44.7712 57.4143 45.5463 57.5475 46.1275 57.3175C46.733 57.0874 47.0479 56.494 47.06 56.0096C47.0963 55.4889 46.7815 55.1013 46.5029 54.9439C46.2123 54.7744 45.9459 54.7744 45.7885 54.8107C45.631 54.847 45.5584 54.8955 45.5584 54.8955C45.5584 54.8955 45.6431 54.8591 45.8006 54.847C45.958 54.8349 46.2002 54.8713 46.4424 55.0529C46.6846 55.2224 46.8904 55.5736 46.8299 55.9854C46.7815 56.385 46.4787 56.8331 46.0064 56.9542C45.5462 57.0874 44.9529 56.9542 44.5532 56.5182C44.1294 56.0944 43.8872 55.4646 43.8388 54.7623C43.7903 54.0599 43.8993 53.2849 44.0446 52.4977C44.202 51.7106 44.42 50.8871 44.5775 50.0031C44.7349 49.1312 44.8197 48.2229 44.7228 47.351C44.6259 46.4791 44.3958 45.6798 44.1052 44.9532C44.0204 44.7232 43.8993 44.5415 43.8024 44.3235C45.7763 46.9514 48.0288 49.6156 49.5304 50.2574C50.4265 50.7781 52.4368 51.3473 53.6841 49.773C54.8345 48.1139 53.8052 46.2248 53.1028 45.4497C52.134 44.1055 49.0945 42.4828 46.1639 41.1386C46.3939 41.1871 46.5877 41.2476 46.8299 41.2839C47.5686 41.3929 48.38 41.4293 49.2034 41.3082C50.039 41.1992 50.8625 40.8843 51.6375 40.5089C52.4126 40.1214 53.1271 39.6975 53.8173 39.3464C54.5076 38.9952 55.1979 38.6924 55.8639 38.5713C56.5299 38.4502 57.1839 38.535 57.6683 38.8498C58.1648 39.1526 58.4433 39.7097 58.4312 40.2062C58.4312 40.7027 58.0921 41.1265 57.7409 41.2718C57.3655 41.4414 56.9901 41.3082 56.7721 41.1144C56.5421 40.9206 56.4452 40.6784 56.4209 40.5089C56.3967 40.3394 56.4209 40.2546 56.4209 40.2546C56.4209 40.2546 56.3967 40.3394 56.3967 40.5089C56.3967 40.6784 56.4694 40.9449 56.6995 41.1992C56.9175 41.4414 57.3534 41.6593 57.8257 41.5019C58.2859 41.3566 58.7461 40.8964 58.8066 40.2304C58.8793 39.5886 58.5644 38.8377 57.9468 38.4018H57.971Z" fill="#EAEAEA"/>
<path d="M38.256 34.5259C38.256 36.3787 36.7543 37.8683 34.9136 37.8683C33.0729 37.8683 31.5713 36.3666 31.5713 34.5259C31.5713 32.6852 33.0729 31.1836 34.9136 31.1836C36.7543 31.1836 38.256 32.6852 38.256 34.5259Z" fill="#EAEAEA"/>
<path d="M63.5536 34.5009C62.2942 34.3919 60.6351 33.7864 59.7269 33.1809C57.9952 32.0305 57.1232 32.7813 57.1232 32.7813C56.8447 30.6257 58.7702 30.8316 58.7702 30.8316C57.5834 29.33 57.9588 27.3439 58.2858 26.3873C59.6906 22.282 65.7939 20.8773 67.0655 26.1451C64.6193 22.1972 59.7632 25.2005 60.9621 28.785C61.8098 31.316 63.8079 32.6481 66.2299 32.1637C65.5517 31.5219 65.3338 30.2382 65.3338 30.2382C70.4563 31.8609 70.2867 26.3509 70.2867 26.3509C69.6691 18.7943 62.6212 15.4883 57.8256 14.3984C58.1647 14.3742 58.4917 14.2895 58.7944 14.1562C59.0003 14.1926 59.2183 14.2168 59.412 14.2531C61.1801 14.5438 63.0934 15.234 64.583 15.9243C66.2905 16.7357 67.4772 16.3481 67.4772 16.3481C68.1312 17.5591 67.6589 18.1283 67.2108 18.3826C71.1707 22.1609 71.6188 25.8423 71.4977 27.9373C71.1465 31.9699 67.4893 34.8279 63.5536 34.5009Z" fill="#EAEAEA"/>
<path d="M11.5415 53.8285C14.6659 57.2314 13.2369 61.3488 13.2369 61.3488C16.1796 59.6049 15.4046 56.7107 15.4046 56.7107C19.3887 58.3334 23.3608 55.6329 23.3608 55.6329C22.3557 55.9114 20.2485 56.0446 16.8093 54.9547C13.8908 54.0344 11.5415 53.8164 11.5415 53.8164V53.8285Z" fill="#EAEAEA"/>
<path d="M37.6024 65.4181C37.5297 64.1587 36.9605 62.4754 36.3793 61.5672C35.2651 59.8112 36.0402 58.9514 36.0402 58.9514C33.8846 58.6245 34.042 60.55 34.042 60.55C32.5767 59.3269 30.5786 59.6417 29.6098 59.9445C25.4682 61.2523 23.9061 67.3073 29.1496 68.712C25.2624 66.169 28.3867 61.3855 31.9349 62.6692C34.4417 63.5774 35.7253 65.6119 35.1804 68.0218C34.5507 67.3194 33.2791 67.0772 33.2791 67.0772C34.7686 72.2481 29.2707 71.9333 29.2707 71.9333C21.7263 71.1219 18.614 64.0013 17.6331 59.1815C17.5968 59.5206 17.512 59.8476 17.3667 60.1503C17.3909 60.3562 17.4151 60.5742 17.4515 60.78C17.6937 62.5481 18.3355 64.4857 19.0015 65.9873C19.7645 67.719 19.3527 68.8937 19.3527 68.8937C20.5395 69.5839 21.1208 69.1238 21.3872 68.6757C25.0686 72.7325 28.7258 73.2775 30.8329 73.2048C34.8776 72.9626 37.8203 69.366 37.5902 65.4302L37.6024 65.4181Z" fill="#EAEAEA"/>
<g clip-path="url(#clip1_2818_33759)">
<path d="M135.994 13.4954C135.994 14.9831 138.148 16.1836 140.778 16.1836C143.407 16.1836 145.561 14.9729 145.561 13.4954C145.561 12.0179 143.407 10.8071 140.778 10.8071C138.148 10.8071 135.994 12.0179 135.994 13.4954Z" fill="#EAEAEA"/>
<path d="M116 13.4944L116 13.4841C117.004 11.5346 121.916 11.3192 122.92 11.2987C122.646 10.8267 122.5 10.3752 122.5 9.97506C122.5 7.66647 126.627 7.0611 126.919 6.99954C126.919 6.99954 128.617 13.125 143.06 13.5047C143.06 13.5047 129.639 13.5047 126.919 20.0098C126.919 20.0098 120.912 19.1068 122.92 15.7004C122.92 15.7004 117.041 15.6286 116 13.5047L116 13.4944Z" fill="#EAEAEA"/>
<path d="M469.275 13.4949C469.275 13.4949 284.951 11.607 234.465 11.607C183.978 11.607 143.06 12.4586 143.06 13.4949C143.06 14.5312 183.978 15.3828 234.465 15.3828C284.951 15.3828 469.275 13.4949 469.275 13.4949Z" fill="#EAEAEA"/>
<path d="M866.007 13.4954C866.007 12.0076 863.852 10.8071 861.223 10.8071C858.594 10.8071 856.439 12.0179 856.439 13.4954C856.439 14.9729 858.594 16.1836 861.223 16.1836C863.852 16.1836 866.007 14.9729 866.007 13.4954Z" fill="#EAEAEA"/>
<path d="M886 13.4954L886 13.5056C884.996 15.4551 880.084 15.6706 879.08 15.6911C879.354 16.1631 879.5 16.6146 879.5 17.0147C879.5 19.3233 875.374 19.9287 875.081 19.9902C875.081 19.9902 873.383 13.8648 858.94 13.4851C858.94 13.4851 872.361 13.4851 875.081 6.98001C875.081 6.98001 881.089 7.88292 879.08 11.2894C879.08 11.2894 884.959 11.3612 886 13.4851L886 13.4954Z" fill="#EAEAEA"/>
<path d="M532.725 13.4949C532.725 13.4949 717.05 15.3828 767.536 15.3828C818.022 15.3828 858.94 14.5312 858.94 13.4949C858.94 12.4586 818.022 11.607 767.536 11.607C717.05 11.607 532.725 13.4949 532.725 13.4949Z" fill="#EAEAEA"/>
<path d="M492.227 13.4946C492.227 14.7669 494.052 15.793 496.317 15.793C498.581 15.793 500.407 14.7669 500.407 13.4946C500.407 12.2223 498.581 11.1963 496.317 11.1963C494.052 11.1963 492.227 12.2223 492.227 13.4946Z" fill="#EAEAEA"/>
<path d="M475.154 13.4945L475.154 13.4843C476.013 11.8221 480.212 11.6374 481.052 11.6169C480.815 11.2167 480.687 10.8268 480.687 10.478C480.687 8.50795 484.211 7.98467 484.448 7.93337C484.448 7.93337 485.891 13.1662 498.252 13.4843C498.252 13.4843 486.785 13.4843 484.448 19.0352C484.448 19.0352 479.299 18.2656 481.034 15.3517C481.034 15.3517 476.013 15.2901 475.136 13.474L475.154 13.4945Z" fill="#EAEAEA"/>
<path d="M517.296 13.4955L517.296 13.5057C516.438 15.1679 512.239 15.3526 511.399 15.3731C511.636 15.7733 511.764 16.1632 511.764 16.5121C511.764 18.4821 508.24 19.0053 508.003 19.0566C508.003 19.0566 506.56 13.8238 494.199 13.5057C494.199 13.5057 505.665 13.5057 508.003 7.95485C508.003 7.95485 513.152 8.72439 511.417 11.6383C511.417 11.6383 516.438 11.6999 517.315 13.516L517.296 13.4955Z" fill="#EAEAEA"/>
</g>
</g>
<defs>
<clipPath id="clip0_2818_33759">
<rect width="1000" height="91.5993" fill="white" transform="translate(0.885254)"/>
</clipPath>
<clipPath id="clip1_2818_33759">
<rect width="13" height="770" fill="white" transform="translate(116 20) rotate(-90)"/>
</clipPath>
</defs>
</svg>
