<svg width="132" height="115" viewBox="0 0 132 115" fill="none" xmlns="http://www.w3.org/2000/svg">
<g clip-path="url(#clip0_2910_133956)">
<path d="M30.7955 47.9921C40.858 47.9921 49.7908 41.482 53.0203 31.7902C53.2929 30.97 54.0487 30.4232 54.8941 30.4193H66.7992C67.1615 30.4193 67.5082 30.2727 67.7614 30.0151L72.9154 24.777C73.2894 24.3966 73.7841 24.1866 74.3139 24.1866C74.8437 24.1866 75.3385 24.3966 75.7163 24.777L81.0612 30.2132C81.5715 30.7323 82.4792 30.7323 82.9895 30.2132L87.6877 25.4347C88.4551 24.6502 89.7095 24.6462 90.4731 25.4188C90.477 25.4228 90.4848 25.4307 90.4926 25.4387L94.6298 29.6466C94.8869 29.9081 95.2336 30.0547 95.5959 30.0547C95.9582 30.0547 96.3049 29.9081 96.5581 29.6506L100.789 25.3475C101.521 24.6026 102.705 24.559 103.485 25.2485L110.902 31.7902C111.151 32.0081 111.467 32.131 111.794 32.131H116.235C116.636 32.131 117.018 31.9487 117.279 31.6357L123.177 24.5115C123.641 23.9528 123.598 23.1247 123.08 22.6175L116.831 16.5156C116.578 16.2659 116.239 16.1273 115.888 16.1273H54.2591C53.4605 16.1273 52.7398 15.6439 52.432 14.891C50.005 9.01097 45.4744 4.4464 39.6698 2.03336C33.8653 -0.379678 27.4881 -0.34798 21.707 2.12053C12.969 5.84905 7.32031 14.4869 7.32031 24.1271C7.32031 30.5025 9.76289 36.4974 14.1961 41.0065C18.6294 45.5156 24.5235 48 30.7916 48L30.7955 47.9921ZM17.6321 24.1628C17.6321 20.5769 19.0073 17.205 21.5005 14.6652C23.9937 12.1293 27.3089 10.7306 30.8384 10.7306C34.3679 10.7306 37.6792 12.1293 40.1763 14.6652C42.6734 17.201 44.0447 20.573 44.0447 24.1588C44.0369 31.5564 38.1116 37.5791 30.8423 37.591C27.3167 37.591 24.0015 36.1923 21.5083 33.6565C19.0151 31.1206 17.6399 27.7487 17.6399 24.1588L17.6321 24.1628Z" fill="#2F5BC1"/>
<path d="M30.8342 33.5628C33.3041 33.5628 35.622 32.5841 37.3673 30.809C39.1125 29.0339 40.0747 26.6723 40.0747 24.1642C40.0747 18.9815 35.9298 14.7656 30.8342 14.7656C25.7387 14.7656 21.5938 18.9815 21.5938 24.1682C21.6015 29.3429 25.7465 33.5588 30.8342 33.5667V33.5628Z" fill="#2F5BC1"/>
<path d="M18.8004 70.0117H1.36348C0.610451 70.0117 0 70.6326 0 71.3985V113.217C0 113.983 0.610451 114.603 1.36348 114.603H18.8004C19.5535 114.603 20.1639 113.983 20.1639 113.217V71.3985C20.1639 70.6326 19.5535 70.0117 18.8004 70.0117Z" fill="#2F5BC1"/>
<path d="M94.62 77.3821C94.842 77.7426 95.0446 78.119 95.2238 78.4955C95.3874 78.8362 95.6796 79.0977 96.038 79.2126C96.1743 79.2562 96.3107 79.276 96.4509 79.276C96.6769 79.276 96.9067 79.2166 97.1093 79.1057L113.709 69.8061C114.106 69.5843 114.367 69.1761 114.41 68.7205C114.453 68.2648 114.27 67.8131 113.919 67.5199C113.245 66.9572 112.478 66.5452 111.64 66.3035C111.617 66.2955 111.597 66.2876 111.574 66.2837C109.096 65.614 105.882 66.4659 102.022 68.8275H102.014C101.967 68.8552 101.92 68.879 101.878 68.9067C101.862 68.9146 101.85 68.9225 101.831 68.9344L93.424 73.1384C93.0344 73.3326 92.7579 73.709 92.6838 74.1449C92.6098 74.5807 92.7462 75.0285 93.05 75.3494C93.6422 75.9675 94.1681 76.649 94.6239 77.3781L94.62 77.3821Z" fill="#2F5BC1"/>
<path d="M131.91 73.3176C131.789 72.8302 131.528 72.3944 131.17 72.0734C129.986 70.9798 126.912 69.9932 118.988 71.5306C118.848 71.5583 118.712 71.6098 118.587 71.6772L95.7077 84.4952C95.5324 84.5943 95.3415 84.6656 95.135 84.7052L57.4796 92.194C56.9615 92.297 56.4317 92.19 55.9915 91.8889C55.5513 91.5877 55.2552 91.1321 55.1539 90.6051C54.9435 89.5155 55.6487 88.4536 56.72 88.2396L90.3239 81.5592C90.768 81.472 91.1381 81.1629 91.3173 80.7429C91.4965 80.319 91.4536 79.8356 91.2082 79.4473C89.5681 76.8599 86.2958 74.9897 81.4846 73.8842C81.3911 73.8644 81.2938 73.8525 81.1964 73.8485C71.1261 73.7534 62.9296 73.8327 56.8368 74.0784C56.5797 74.0902 56.3304 74.0467 56.0889 73.9595C56.0811 73.9595 56.0733 73.9516 56.0655 73.9516C39.4349 67.604 32.6214 72.2359 24.7327 77.5969C24.3548 77.8544 24.125 78.2863 24.125 78.7499V104.667C24.125 105.159 24.3821 105.614 24.7989 105.864C25.2158 106.114 25.7339 106.117 26.1546 105.876L30.9775 103.106C31.4255 102.849 31.9436 102.781 32.4383 102.908C50.3934 107.584 64.3282 109.933 74.0634 109.933C77.7331 109.933 80.8068 109.6 83.2727 108.931C83.4286 108.887 83.5727 108.82 83.7052 108.729L131.365 74.7955C131.828 74.4667 132.042 73.8763 131.906 73.3216L131.91 73.3176Z" fill="#2F5BC1"/>
<path d="M97.4432 65.7243C97.4198 65.1775 97.0809 64.6901 96.5784 64.492C95.1487 63.9175 92.2698 63.7827 86.699 66.378C86.6639 66.3939 86.6289 66.4137 86.5938 66.4335L84.0188 67.9233C83.5435 68.2007 83.2747 68.7396 83.337 69.2943C83.3994 69.849 83.7889 70.3086 84.3148 70.4632C85.203 70.7207 86.0874 71.0337 86.9444 71.3824C87.108 71.4498 87.2833 71.4815 87.4547 71.4815C87.6612 71.4815 87.8677 71.4339 88.0547 71.3388L96.6797 67.0279C97.1627 66.7862 97.4627 66.275 97.4393 65.7282L97.4432 65.7243Z" fill="#2F5BC1"/>
</g>
<defs>
<clipPath id="clip0_2910_133956">
<rect width="131.954" height="114.36" fill="white" transform="translate(0 0.238281)"/>
</clipPath>
</defs>
</svg>
