<svg width="123" height="80" viewBox="0 0 123 80" fill="none" xmlns="http://www.w3.org/2000/svg">
<path d="M56.6602 29.7626V8.77637H23.335V29.7628L0 29.8115V71.2226H32.9639V56.164H47.0337V71.2226H80V29.8115L56.6602 29.7626ZM16.4356 63.2001H10.2247V56.3667H16.4356V63.2001ZM16.4356 45.7125H10.2247V38.8765H16.4356V45.7125ZM43.1055 45.7125H36.892V38.8765H43.1055V45.7125ZM40 28.2368C35.7323 28.2368 32.2608 24.7628 32.2608 20.4951C32.2608 16.23 35.7325 12.7582 40 12.7582C44.2675 12.7582 47.7392 16.23 47.7392 20.4951C47.7392 24.7626 44.2677 28.2368 40 28.2368ZM69.7755 63.2001H63.5597V56.3667H69.7755V63.2001ZM69.7755 45.7125H63.5597V38.8765H69.7755V45.7125Z" fill="#219785"/>
<path d="M40 14.5254C36.7065 14.5254 34.0283 17.2037 34.0283 20.4946C34.0283 23.788 36.7065 26.4663 40 26.4663C43.2911 26.4663 45.9717 23.788 45.9717 20.4946C45.9717 17.2035 43.2911 14.5254 40 14.5254ZM41.1865 20.8779C41.1865 21.3051 40.9083 21.6616 40.5322 21.7984C40.3711 21.9034 40.1758 21.9693 39.9658 21.9693H36.9042C36.3353 21.9693 35.8739 21.5079 35.8739 20.9415C35.8739 20.3726 36.3353 19.9112 36.9042 19.9112H39.2236V16.6616C39.2236 16.1221 39.6631 15.6826 40.205 15.6826C40.7469 15.6826 41.1864 16.1221 41.1864 16.6616V20.8779H41.1865Z" fill="#219785"/>
<g clip-path="url(#clip0_2818_29719)">
<path d="M121.693 38.1245C121.18 39.6303 120.634 41.1434 120.036 42.6577L117.737 41.7501C118.023 41.0238 118.299 40.2952 118.565 39.5667C118.811 38.8937 118.819 38.1652 118.591 37.5305C118.261 36.6102 117.915 35.7042 117.565 34.8017L118.924 31.3433L118.051 31L116.788 34.2163C115.864 34.8098 114.938 35.3913 114.009 35.9515C113.445 36.2902 113.01 36.8254 112.78 37.456C112.53 38.1394 112.274 38.8175 112.009 39.4894L109.71 38.5823C110.228 37.2677 110.716 35.9183 111.185 34.5453L110.291 34.2409C109.827 35.6029 109.343 36.938 108.831 38.2355L108.607 38.7975C108.44 39.209 108.27 39.6164 108.097 40.0199C107.812 40.6866 107.816 41.4329 108.106 42.1002C108.4 42.775 108.683 43.4577 108.951 44.1502L106.704 43.0102C106.425 43.5613 106.137 44.1016 105.838 44.6304C105.5 45.2319 105.434 45.9461 105.651 46.6288C105.872 47.3184 106.074 48.0184 106.256 48.7309L104.176 47.3081C103.842 47.7986 103.495 48.277 103.137 48.7458C102.73 49.278 102.57 49.9642 102.689 50.6676C102.811 51.3772 102.909 52.0971 102.985 52.8285L101.138 51.115C100.736 51.5488 100.32 51.9735 99.8918 52.389C99.4062 52.8623 99.1378 53.5284 99.1495 54.2477C99.1876 56.4499 99.0205 58.7271 98.6902 61.0312C98.3772 61.2566 98.0624 61.4793 97.7445 61.6979C95.8805 62.9833 93.9408 64.1645 91.958 65.2736C92.352 64.8695 92.6905 64.4723 92.985 64.082C93.3816 63.5544 93.6978 63.0377 93.9636 62.5254C94.3625 61.7562 94.6475 60.9996 94.923 60.2168C95.1984 59.4327 95.4639 58.6189 95.8004 57.7113C96.0248 57.1052 96.233 56.4997 96.4244 55.8971C95.9248 56.2765 95.4129 56.6468 94.8921 57.0108C92.9412 58.37 91.3619 59.6484 90.1098 60.8841C89.1694 61.8084 88.4127 62.7029 87.806 63.547C86.8949 64.8118 86.3237 65.9627 85.9366 66.8789C85.7429 67.3362 85.5944 67.7345 85.471 68.0487C85.4098 68.2066 85.3546 68.3429 85.3059 68.4522C85.2573 68.5609 85.2144 68.6427 85.1863 68.6862L85.1377 68.7623L83.413 69.5642L83.9127 70.6573L85.3557 69.9883L85.829 70.0444C85.8751 70.0495 85.9523 70.065 86.0507 70.0896C86.235 70.1365 86.4899 70.2172 86.8004 70.3127C87.3444 70.4781 88.06 70.6876 88.9513 70.8312C90.2891 71.0464 92.03 71.1197 94.2055 70.659C96.3748 70.1926 99.0011 69.2059 101.97 67.1434C102.613 66.6935 103.252 66.2305 103.884 65.7515C103.143 65.8545 102.407 65.9398 101.677 66.0096C100.381 66.1315 99.3088 66.1012 98.2678 66.0714C97.4877 66.0491 96.7258 66.0256 95.9166 66.0583C95.3102 66.0818 94.6778 66.1362 93.9968 66.2409C93.3437 66.341 92.6462 66.487 91.879 66.6906C94.119 65.4625 96.3157 64.1428 98.4269 62.6869C98.7512 62.4638 99.0725 62.2366 99.3924 62.0064C101.711 62.4041 104.11 62.6583 106.598 62.7034C107.408 62.7183 108.275 62.3566 108.942 61.7077C109.528 61.1382 110.102 60.5522 110.661 59.9495L108.814 58.2355C109.622 58.1783 110.437 58.0958 111.256 57.9866C112.067 57.8806 112.883 57.3868 113.453 56.6405C113.953 55.9858 114.436 55.3185 114.899 54.6414L112.819 53.2188C113.609 53.043 114.401 52.8445 115.193 52.6224C115.978 52.4037 116.705 51.8075 117.156 51.0073C117.551 50.3046 117.929 49.5973 118.289 48.8876L116.042 47.747C116.797 47.4803 117.551 47.1964 118.303 46.8972C119.048 46.6013 119.687 45.9546 120.034 45.1425C120.245 44.652 120.449 44.161 120.648 43.6705L120.914 43.0044C121.519 41.4723 122.07 39.946 122.587 38.4289L121.693 38.1245ZM113.908 37.8681C114.032 37.5305 114.264 37.2455 114.564 37.0669C115.129 36.7298 115.692 36.3864 116.254 36.0362C116.347 35.9784 116.455 35.9641 116.553 35.9973C116.651 36.0305 116.729 36.1071 116.767 36.2102C117.001 36.8317 117.229 37.4572 117.451 38.0878C117.569 38.422 117.564 38.8032 117.436 39.1545C117.141 39.9632 116.835 40.769 116.514 41.5725C115.849 41.8575 115.181 42.1311 114.514 42.3926C114.262 42.491 113.996 42.3766 113.891 42.1299C113.612 41.4729 113.323 40.824 113.027 40.1818C113.332 39.4173 113.625 38.6453 113.908 37.8681ZM109.202 40.4938L109.344 40.1579C109.424 39.9702 109.639 39.8786 109.825 39.9559L111.938 40.8338C112.292 41.6036 112.633 42.3836 112.958 43.1762C113.017 43.3176 113.012 43.4835 112.945 43.6295C112.594 44.4003 112.226 45.162 111.84 45.914C111.74 46.1086 111.543 46.2287 111.34 46.223C111.136 46.2161 110.963 46.0851 110.896 45.8888C110.391 44.4191 109.822 42.9987 109.206 41.6126C109.05 41.2578 109.048 40.852 109.202 40.4938ZM106.885 45.2204L107.056 44.9148C107.151 44.742 107.371 44.679 107.548 44.7746L109.581 45.8751C109.853 46.6643 110.105 47.4666 110.334 48.2845C110.376 48.431 110.351 48.593 110.269 48.7298C110.113 48.9867 109.955 49.2426 109.793 49.496C109.502 49.9545 109.202 50.4077 108.891 50.8541C108.767 51.0338 108.556 51.1266 108.356 51.0927C108.155 51.059 108.001 50.905 107.96 50.703C107.652 49.1854 107.253 47.7191 106.784 46.3009C106.664 45.9375 106.701 45.5478 106.885 45.2204ZM104.091 49.476L104.298 49.2025C104.413 49.0502 104.636 49.0205 104.799 49.1395L106.663 50.5067C106.829 51.3199 106.968 52.1475 107.079 52.9888C107.099 53.1392 107.051 53.2961 106.95 53.4191C106.759 53.6503 106.566 53.8804 106.369 54.107C106.014 54.518 105.651 54.922 105.278 55.3174C105.129 55.4759 104.907 55.5377 104.713 55.4743C104.52 55.4108 104.39 55.2362 104.379 55.0302C104.3 53.4845 104.12 51.9753 103.85 50.5165C103.78 50.1422 103.868 49.7679 104.091 49.476ZM100.475 59.3058C100.291 59.2177 100.186 59.027 100.203 58.821C100.333 57.2741 100.379 55.7455 100.331 54.2535C100.319 53.8718 100.463 53.5095 100.729 53.2514L100.976 53.0094C101.113 52.8738 101.339 52.8772 101.483 53.0191L103.125 54.6455C103.168 55.4748 103.183 56.3155 103.17 57.1654C103.168 57.3166 103.099 57.4665 102.981 57.5729C102.759 57.7749 102.534 57.9752 102.307 58.1727C101.897 58.5303 101.48 58.8812 101.057 59.2239C100.887 59.3613 100.659 59.3939 100.475 59.3058ZM108.105 60.8459C107.761 61.1795 107.315 61.3706 106.89 61.3695C105.226 61.3672 103.6 61.2676 102.011 61.0891C101.799 61.0645 101.638 60.9184 101.597 60.7181C101.555 60.5167 101.64 60.2975 101.815 60.1573C102.248 59.8059 102.676 59.4459 103.097 59.0786C103.33 58.8755 103.561 58.67 103.79 58.4622C103.911 58.3523 104.067 58.2928 104.222 58.2997C105.086 58.3374 105.959 58.3472 106.843 58.3288L108.745 60.2123L108.105 60.8459ZM112.769 55.5521L112.498 55.9098C112.205 56.2933 111.788 56.5508 111.365 56.6143C109.709 56.8609 108.075 57.0012 106.471 57.0389C106.257 57.0441 106.078 56.9205 106.011 56.7259C105.944 56.5325 106 56.3041 106.154 56.1404C106.538 55.7329 106.912 55.3163 107.279 54.8928C107.482 54.6588 107.68 54.4224 107.878 54.1832C107.982 54.0567 108.129 53.9766 108.283 53.96C109.144 53.8719 110.011 53.7528 110.883 53.6023L112.746 54.9701C112.909 55.0891 112.921 55.3507 112.769 55.5521ZM116.216 49.4669C116.394 49.563 116.443 49.816 116.323 50.0329L116.108 50.4175C115.876 50.8307 115.503 51.1391 115.096 51.2582C113.5 51.7274 111.906 52.1063 110.326 52.381C110.115 52.4177 109.92 52.322 109.824 52.1395C109.729 51.9569 109.751 51.724 109.879 51.5391C110.198 51.0796 110.507 50.6126 110.807 50.1404C110.974 49.88 111.136 49.6168 111.297 49.3523C111.381 49.2116 111.516 49.1114 111.665 49.0736C112.503 48.8648 113.344 48.6278 114.184 48.3662L116.216 49.4669ZM119.097 44.2755L118.93 44.6687C118.749 45.0905 118.42 45.4259 118.032 45.5837C116.516 46.2019 114.989 46.7593 113.464 47.236C113.261 47.3002 113.054 47.2309 112.935 47.0637C112.816 46.8961 112.807 46.6626 112.909 46.4628C113.304 45.6936 113.68 44.9148 114.039 44.1284C114.107 43.9791 114.229 43.8634 114.374 43.8097C115.189 43.5115 116.002 43.1933 116.814 42.8591L118.927 43.737C119.113 43.8143 119.191 44.0552 119.097 44.2755Z" fill="#219785"/>
</g>
<defs>
<clipPath id="clip0_2818_29719">
<rect width="40" height="40" fill="white" transform="translate(83 31)"/>
</clipPath>
</defs>
</svg>
