<svg width="884" height="385" viewBox="0 0 884 385" fill="none" xmlns="http://www.w3.org/2000/svg">
<path d="M44.6555 95.1523H34.7922V93.4336H38.7375V91.5195H40.9055V93.4336H44.6555V95.1523ZM35.7102 99.1562C35.7102 98.5052 35.8795 97.9323 36.218 97.4375C36.5631 96.9362 37.0448 96.5488 37.6633 96.2754C38.2883 95.9954 38.998 95.8555 39.7922 95.8555C40.5865 95.8555 41.2961 95.9954 41.9211 96.2754C42.5527 96.5488 43.0442 96.9362 43.3958 97.4375C43.7538 97.9388 43.9329 98.5117 43.9329 99.1562C43.9329 99.8008 43.7538 100.37 43.3958 100.865C43.0442 101.36 42.5527 101.744 41.9211 102.018C41.2961 102.285 40.5865 102.418 39.7922 102.418C38.9915 102.418 38.2818 102.285 37.6633 102.018C37.0448 101.744 36.5631 101.36 36.218 100.865C35.8795 100.37 35.7102 99.8008 35.7102 99.1562ZM37.5657 106.246C37.5657 105.602 37.8066 105.051 38.2883 104.596C38.7766 104.133 39.4732 103.782 40.3782 103.541C41.2831 103.3 42.3573 103.18 43.6008 103.18C44.8378 103.18 45.9088 103.3 46.8137 103.541C47.7187 103.782 48.4153 104.133 48.9036 104.596C49.3918 105.051 49.636 105.602 49.636 106.246C49.636 106.878 49.3918 107.424 48.9036 107.887C48.4153 108.349 47.7187 108.701 46.8137 108.941C45.9088 109.189 44.8378 109.312 43.6008 109.312C42.3639 109.312 41.2896 109.189 40.3782 108.941C39.4732 108.701 38.7766 108.349 38.2883 107.887C37.8066 107.424 37.5657 106.878 37.5657 106.246ZM37.7415 99.1562C37.7349 99.6706 37.9172 100.074 38.2883 100.367C38.6594 100.654 39.1607 100.797 39.7922 100.797C40.4303 100.797 40.9413 100.65 41.3254 100.357C41.7096 100.064 41.9016 99.6641 41.9016 99.1562C41.9016 98.6354 41.7063 98.2253 41.3157 97.9258C40.9316 97.6263 40.4237 97.4766 39.7922 97.4766C39.1607 97.4766 38.6594 97.6263 38.2883 97.9258C37.9172 98.2253 37.7349 98.6354 37.7415 99.1562ZM39.8508 106.246C39.8443 106.695 40.1601 107.044 40.7981 107.291C41.4426 107.532 42.3541 107.652 43.5325 107.652C44.7499 107.652 45.6842 107.535 46.3352 107.301C46.9862 107.06 47.3118 106.708 47.3118 106.246C47.3118 105.784 46.9928 105.436 46.3547 105.201C45.7167 104.96 44.7987 104.84 43.6008 104.84C42.3964 104.84 41.4687 104.96 40.8176 105.201C40.1666 105.436 39.8443 105.784 39.8508 106.246ZM44.7532 99.1758H47.3704V97.4375H44.7727V95.6797H47.3704V91.6758H49.5383V102.984H47.3704V100.914H44.7532V99.1758Z" fill="#222222"/>
<path d="M21.5562 94.2539H29.1733V92.3398H31.3218V99.5078H26.439V101.129H33.4116V102.887H17.3179V101.129H24.2515V99.5078H19.4077V92.3398H21.5562V94.2539ZM19.3101 104.02H21.478V107.223H31.5952V108.98H19.3101V104.02ZM29.1733 97.7695V95.9336H21.5562V97.7695H29.1733Z" fill="#222222"/>
<path d="M14.6289 109.332H12.4414V91.6758H14.6289V109.332ZM0 104.469C2.27865 103.388 3.98763 102.096 5.12695 100.592C6.27279 99.0879 6.94661 97.3138 7.14844 95.2695H0.898438V93.5508H9.35547C9.35547 96.3568 8.7207 98.8177 7.45117 100.934C6.18164 103.049 4.07552 104.807 1.13281 106.207L0 104.469Z" fill="#222222"/>
<path d="M79.636 0.425781V200.426" stroke="#231F20" stroke-width="0.360129"/>
<path d="M746.636 0.425781V200.426" stroke="#231F20" stroke-width="0.360129"/>
<path d="M772.636 21.4258V200.426" stroke="#231F20" stroke-width="0.360129"/>
<path d="M799.636 21.4258V200.426" stroke="#231F20" stroke-width="0.360129"/>
<path d="M826.636 21.4258V200.426" stroke="#231F20" stroke-width="0.360129"/>
<path d="M852.636 21.4258V200.426" stroke="#231F20" stroke-width="0.360129"/>
<path d="M879.636 0.425781V200.426" stroke="#231F20" stroke-width="0.360129"/>
<path d="M79.6362 51.0781H879.636" stroke="#231F20" stroke-width="0.360129"/>
<path d="M79.6362 16.3516H879.636" stroke="#231F20" stroke-width="0.360129"/>
<path d="M762.902 47.2869H761.899C761.783 47.0811 761.68 46.6052 761.668 46.1036C761.076 46.7724 759.931 47.4541 758.709 47.5184C757.166 47.6213 755.944 46.9653 755.802 45.6792C755.661 44.3801 756.484 43.6342 757.552 43.3255C758.413 43.0682 759.532 43.0682 760.458 42.901C760.934 42.811 761.668 42.6567 761.668 41.9878C761.668 41.2033 760.973 40.393 759.468 40.393C758.053 40.393 757.179 41.0489 757.217 42.0007H756.253C756.111 40.5216 757.642 39.5312 759.455 39.5312C761.269 39.5312 762.696 40.4316 762.696 42.0136V46.065C762.696 46.721 762.889 47.2483 762.902 47.274V47.2869ZM761.655 44.6374V43.2097C761.423 43.3898 761.076 43.5313 760.767 43.5827C760.137 43.7113 758.761 43.8271 758.285 43.9428C757.269 44.2258 756.754 44.7403 756.793 45.4991C756.844 46.3994 757.758 46.7724 758.825 46.6952C760.24 46.5795 761.655 45.5377 761.655 44.6245V44.6374Z" fill="#231F20"/>
<path d="M408.562 47.1951H401.823C401.861 45.896 402.041 44.5713 404.073 43.1693L405.822 41.9603C406.646 41.3944 407.34 40.7385 407.366 39.6967C407.392 38.4619 406.53 37.5488 405.077 37.5488C403.623 37.5488 402.813 38.6163 402.8 39.7996H401.887C401.861 38.269 402.967 36.6484 405.141 36.6484C407.314 36.6484 408.485 38.0632 408.408 39.6967C408.331 41.343 407.276 42.1404 406.247 42.8478L404.536 44.0182C403.675 44.5841 403.134 45.4973 402.941 46.3848H408.562V47.1951Z" fill="#231F20"/>
<path d="M413.012 40.4049C414.517 40.5464 416.163 41.8069 416.073 44.0448C415.996 46.3085 414.35 47.5561 412.652 47.5561C410.658 47.5561 409.385 46.1413 409.179 44.6879H410.144C410.234 45.5368 411.134 46.6686 412.575 46.6686C414.015 46.6686 414.98 45.511 415.044 44.0834C415.121 42.4757 414.08 41.331 412.742 41.2795C411.456 41.2409 410.735 41.8969 410.362 42.4114H409.488L410.234 37.0352H415.674V37.884H411.057L410.62 41.1252C411.301 40.585 412.253 40.3406 413.025 40.3921L413.012 40.4049Z" fill="#231F20"/>
<path d="M423.945 47.2791H422.941C422.826 47.0733 422.723 46.5974 422.71 46.0958C422.118 46.7646 420.974 47.4463 419.752 47.5106C418.208 47.6135 416.986 46.9575 416.845 45.6713C416.703 44.3723 417.527 43.6263 418.594 43.3177C419.456 43.0604 420.575 43.0604 421.501 42.8932C421.977 42.8032 422.71 42.6488 422.71 41.98C422.71 41.1955 422.015 40.3852 420.511 40.3852C419.096 40.3852 418.221 41.0411 418.26 41.9929H417.295C417.154 40.5138 418.684 39.5234 420.498 39.5234C422.311 39.5234 423.739 40.4238 423.739 42.0058V46.0572C423.739 46.7132 423.932 47.2405 423.945 47.2662V47.2791ZM422.697 44.6295V43.2019C422.466 43.382 422.118 43.5234 421.81 43.5749C421.179 43.7035 419.803 43.8193 419.327 43.935C418.311 44.218 417.797 44.7324 417.835 45.4913C417.9 46.3916 418.8 46.7646 419.867 46.6874C421.282 46.5717 422.697 45.5299 422.697 44.6167V44.6295Z" fill="#231F20"/>
<path d="M426.62 48.4316C425.99 47.467 424.832 45.6406 424.832 43.2998C424.832 40.959 425.99 39.1197 426.62 38.168H426.929C425.861 40.0072 425.372 41.7049 425.372 43.2998C425.372 44.8947 425.848 46.5924 426.929 48.4316H426.62Z" fill="#231F20"/>
<path d="M435.186 45.9956C434.427 46.0985 433.205 46.1757 432.125 46.2143L428.022 46.24V45.8027H431.276V43.7963H431.829V45.8027H432.112C433.218 45.7641 434.414 45.6998 435.186 45.5583V46.0085V45.9956ZM431.302 40.9667H428.897V40.5294H434.247V40.9667H431.842V41.121C431.842 42.523 434.067 43.5648 434.376 43.6419L434.016 44.0406C433.835 44.0021 432.163 43.2046 431.559 41.9828C431.147 43.1532 428.922 44.1307 428.755 44.1821L428.421 43.7834C428.768 43.6805 431.302 42.6259 431.302 41.121V40.9667ZM430.067 38.9603H433.025V39.3976H430.067V38.9603ZM435.778 38.4844H436.318V48.1049H435.778V38.4844Z" fill="#231F20"/>
<path d="M447.212 46.6874H437.591V46.2501H442.131V43.7163H442.672V46.2501H447.212V46.6874ZM442.402 40.7839C441.72 42.9961 438.942 44.2051 438.595 44.2951L438.247 43.9221C439.778 43.4848 442.093 41.7999 442.093 39.7421V38.9961H442.71V39.7421C442.71 41.8128 444.987 43.4205 446.556 43.9221L446.209 44.2951C445.861 44.2051 443.199 43.0733 442.402 40.7839Z" fill="#231F20"/>
<path d="M448.858 39.7062V39.2689H453.437C453.205 41.4812 451.263 42.9988 448.678 43.7834L448.318 43.3847C450.761 42.8445 452.575 41.1982 452.794 39.7062H448.858ZM456.665 48.0021H449.9V45.8284H455.88V44.568H449.9V44.1307H456.421V46.2657H450.44V47.5648H456.665V48.0021ZM455.906 38.4844H456.446V43.5776H455.906V38.4844Z" fill="#231F20"/>
<path d="M458.401 42.7931C458.401 40.6709 459.353 39.2818 460.807 39.2818C462.26 39.2818 463.212 40.6709 463.212 42.7931C463.212 44.9152 462.273 46.3043 460.807 46.3043C459.34 46.3043 458.401 44.9024 458.401 42.7931ZM458.98 42.7802C458.98 44.4522 459.623 45.8027 460.832 45.8027C462.041 45.8027 462.659 44.4522 462.659 42.7802C462.659 41.1082 462.041 39.7834 460.832 39.7834C459.623 39.7834 458.98 41.1339 458.98 42.7802ZM465.81 38.4844H466.35V48.1049H465.81V38.4844Z" fill="#231F20"/>
<path d="M469.179 46.3327H468.279V45.4709H469.179V46.3327ZM469.192 41.561H468.292V40.6992H469.192V41.561Z" fill="#231F20"/>
<path d="M476.176 47.0043H475.7V41.1008H474.208V40.702C474.568 40.702 474.864 40.612 475.263 40.3419C475.572 40.1104 475.79 39.7503 475.79 39.3516H476.163V46.9914L476.176 47.0043Z" fill="#231F20"/>
<path d="M480.408 39.1719C482.144 39.1719 483.109 40.8825 483.109 43.1976C483.109 45.5127 482.144 47.2105 480.408 47.2105C478.671 47.2105 477.719 45.4998 477.719 43.1976C477.719 40.8953 478.671 39.1719 480.408 39.1719ZM480.408 46.7346C481.797 46.7346 482.555 45.204 482.555 43.1976C482.555 41.1912 481.797 39.6478 480.408 39.6478C479.019 39.6478 478.273 41.1654 478.273 43.1976C478.273 45.2297 479.006 46.7346 480.408 46.7346Z" fill="#231F20"/>
<path d="M488.896 47.0171H488.408C488.356 46.9142 488.292 46.4383 488.279 46.0396C487.803 46.5798 486.851 47.12 485.913 47.1843C484.755 47.2486 483.842 46.7084 483.765 45.7952C483.713 44.9078 484.305 44.3161 485.064 44.0975C485.72 43.9174 486.658 43.8917 487.314 43.776C487.675 43.6988 488.279 43.5058 488.279 43.0171C488.279 42.3226 487.61 41.6923 486.44 41.6923C485.398 41.6923 484.536 42.2197 484.549 43.0557H484.086C484.022 42.0525 485.102 41.2422 486.44 41.2422C487.777 41.2422 488.794 41.911 488.794 43.0814V46.0911C488.794 46.5412 488.896 47.0043 488.896 47.0043V47.0171ZM488.279 45.1779V43.8145C488.048 43.9946 487.765 44.0975 487.533 44.1361C487.083 44.239 485.822 44.3547 485.488 44.419C484.626 44.5991 484.228 45.165 484.24 45.7052C484.24 46.4512 484.999 46.837 486.003 46.747C486.851 46.6827 488.279 45.9496 488.279 45.1779Z" fill="#231F20"/>
<path d="M490.183 42.7931C490.183 40.6709 491.134 39.2818 492.588 39.2818C494.041 39.2818 494.993 40.6709 494.993 42.7931C494.993 44.9152 494.054 46.3043 492.588 46.3043C491.122 46.3043 490.183 44.9024 490.183 42.7931ZM490.749 42.7802C490.749 44.4522 491.392 45.8027 492.601 45.8027C493.81 45.8027 494.427 44.4522 494.427 42.7802C494.427 41.1082 493.81 39.7834 492.601 39.7834C491.392 39.7834 490.749 41.1339 490.749 42.7802ZM497.578 38.4844H498.118V48.1049H497.578V38.4844Z" fill="#231F20"/>
<path d="M503.134 39.7834C503.134 41.8156 505.27 43.0632 506.183 43.4361L505.835 43.8349C505.205 43.539 503.597 42.703 502.864 41.0053C502.17 42.9603 500.331 43.9249 499.996 44.0921L499.572 43.7448C500.511 43.3461 502.594 41.8799 502.594 39.7834V38.8188H503.134V39.7834ZM504.742 44.6066C506.993 44.6066 508.202 45.3911 508.202 46.4715C508.202 47.5519 506.993 48.3236 504.742 48.3236C502.491 48.3236 501.282 47.5519 501.282 46.4715C501.282 45.3911 502.504 44.6066 504.742 44.6066ZM504.755 45.0439C503.07 45.0439 501.861 45.5841 501.861 46.4844C501.861 47.3847 503.07 47.8992 504.755 47.8992C506.44 47.8992 507.636 47.359 507.636 46.4844C507.636 45.6098 506.427 45.0439 504.755 45.0439ZM507.803 41.5583V44.4008H507.263V38.4844H507.803V41.121H509.321V41.5583H507.803Z" fill="#231F20"/>
<path d="M517.192 39.6033V39.8734C517.192 42.3815 519.675 43.1403 519.983 43.2304L519.649 43.6291C519.405 43.539 517.501 42.8574 516.922 41.1853C516.408 42.8188 514.427 43.7705 514.131 43.8992L513.745 43.5262C514.234 43.3075 516.639 42.3172 516.639 39.8734V39.6033H514.35V39.166H519.52V39.6033H517.192ZM515.52 44.9024H522.311V48.1049H521.758V45.3397H515.52V44.9024ZM521.758 40.9024V38.4844H522.298V44.2078H521.758V41.3268H519.456V40.8895H521.758V40.9024Z" fill="#231F20"/>
<path d="M530.388 41.8279V43.4614H533.115V43.8987H523.495V43.4614H526.286V41.8408C525.27 41.5193 524.691 40.9405 524.691 40.2717C524.691 39.2556 525.977 38.4453 528.292 38.4453C530.607 38.4453 531.932 39.2813 531.932 40.2974C531.932 40.9533 531.366 41.5064 530.376 41.8151L530.388 41.8279ZM532.048 46.5611C532.048 47.5771 530.646 48.336 528.318 48.336C525.99 48.336 524.588 47.5771 524.588 46.5611C524.588 45.545 526.003 44.7861 528.318 44.7861C530.633 44.7861 532.048 45.545 532.048 46.5611ZM531.482 46.5611C531.482 45.7379 530.093 45.2234 528.318 45.2234C526.543 45.2234 525.154 45.7379 525.154 46.5611C525.154 47.3842 526.517 47.8987 528.318 47.8987C530.118 47.8987 531.482 47.3585 531.482 46.5611ZM531.379 40.3103C531.379 39.5 530.08 38.8955 528.305 38.8955C526.53 38.8955 525.27 39.4743 525.27 40.2845C525.27 41.0948 526.517 41.6607 528.305 41.6607C530.093 41.6607 531.379 41.0948 531.379 40.3103ZM526.839 41.9823V43.4742H529.848V41.9823C529.411 42.0852 528.884 42.1238 528.305 42.1238C527.765 42.1238 527.263 42.0852 526.839 41.9951V41.9823Z" fill="#231F20"/>
<path d="M533.964 38.168C534.607 39.1326 535.765 40.959 535.765 43.2998C535.765 45.6406 534.607 47.467 533.964 48.4316H533.655C534.736 46.5924 535.212 44.8947 535.212 43.2998C535.212 41.7049 534.736 39.9943 533.655 38.168H533.964Z" fill="#231F20"/>
<path d="M789.372 47.2869H788.369C788.253 47.0811 788.15 46.6052 788.137 46.1036C787.546 46.7724 786.401 47.4541 785.179 47.5184C783.636 47.6213 782.414 46.9653 782.272 45.6792C782.131 44.3801 782.954 43.6342 784.021 43.3255C784.883 43.0682 786.002 43.0682 786.928 42.901C787.404 42.811 788.137 42.6567 788.137 41.9878C788.137 41.2033 787.443 40.393 785.938 40.393C784.523 40.393 783.648 41.0489 783.687 42.0007H782.722C782.581 40.5216 784.111 39.5312 785.925 39.5312C787.738 39.5312 789.166 40.4316 789.166 42.0136V46.065C789.166 46.721 789.359 47.2483 789.372 47.274V47.2869ZM788.137 44.6374V43.2097C787.906 43.3898 787.558 43.5313 787.25 43.5827C786.619 43.7113 785.243 43.8271 784.767 43.9428C783.751 44.2258 783.237 44.7403 783.275 45.4991C783.327 46.3994 784.24 46.7724 785.308 46.6952C786.722 46.5795 788.137 45.5377 788.137 44.6245V44.6374Z" fill="#231F20"/>
<path d="M816.163 47.2869H815.16C815.044 47.0811 814.941 46.6052 814.928 46.1036C814.337 46.7724 813.192 47.4541 811.97 47.5184C810.427 47.6213 809.205 46.9653 809.063 45.6792C808.922 44.3801 809.745 43.6342 810.812 43.3255C811.674 43.0682 812.793 43.0682 813.719 42.901C814.195 42.811 814.928 42.6567 814.928 41.9878C814.928 41.2033 814.234 40.393 812.729 40.393C811.314 40.393 810.439 41.0489 810.478 42.0007H809.513C809.372 40.5216 810.902 39.5312 812.716 39.5312C814.529 39.5312 815.957 40.4316 815.957 42.0136V46.065C815.957 46.721 816.15 47.2483 816.163 47.274V47.2869ZM814.928 44.6374V43.2097C814.697 43.3898 814.349 43.5313 814.041 43.5827C813.41 43.7113 812.034 43.8271 811.558 43.9428C810.542 44.2258 810.028 44.7403 810.066 45.4991C810.131 46.3994 811.031 46.7724 812.099 46.6952C813.513 46.5795 814.928 45.5377 814.928 44.6245V44.6374Z" fill="#231F20"/>
<path d="M818.427 12.5309H817.424L816.24 9.79136H810.864L809.694 12.5566H808.652L812.973 2.29297H814.131L818.427 12.5309ZM815.893 8.89104L813.539 3.34763L811.224 8.89104H815.893Z" fill="#231F20"/>
<path d="M408.472 5.67837C409.977 5.81985 411.623 7.0803 411.533 9.31824C411.456 11.5819 409.809 12.8295 408.112 12.8295C406.118 12.8295 404.845 11.4147 404.639 9.96133H405.604C405.694 10.8102 406.594 11.942 408.034 11.942C409.475 11.942 410.44 10.7845 410.504 9.35682C410.581 7.74911 409.539 6.60441 408.202 6.55297C406.915 6.51438 406.195 7.17033 405.822 7.6848H404.948L405.694 2.30859H411.134V3.15747H406.517L406.079 6.39863C406.761 5.85843 407.713 5.61406 408.485 5.66551L408.472 5.67837Z" fill="#231F20"/>
<path d="M421.655 12.5309H420.652L419.468 9.79136H414.092L412.922 12.5566H411.88L416.201 2.29297H417.359L421.655 12.5309ZM419.121 8.89104L416.767 3.34763L414.452 8.89104H419.121Z" fill="#231F20"/>
<path d="M843.288 47.2869H842.285C842.169 47.0811 842.067 46.6052 842.054 46.1036C841.462 46.7724 840.317 47.4541 839.095 47.5184C837.552 47.6213 836.33 46.9653 836.189 45.6792C836.047 44.3801 836.87 43.6342 837.938 43.3255C838.8 43.0682 839.919 43.0682 840.845 42.901C841.321 42.811 842.054 42.6567 842.054 41.9878C842.054 41.2033 841.359 40.393 839.854 40.393C838.44 40.393 837.565 41.0489 837.604 42.0007H836.639C836.497 40.5216 838.028 39.5312 839.841 39.5312C841.655 39.5312 843.083 40.4316 843.083 42.0136V46.065C843.083 46.721 843.276 47.2483 843.288 47.274V47.2869ZM842.041 44.6374V43.2097C841.809 43.3898 841.462 43.5313 841.153 43.5827C840.523 43.7113 839.147 43.8271 838.671 43.9428C837.655 44.2258 837.141 44.7403 837.179 45.4991C837.231 46.3994 838.144 46.7724 839.211 46.6952C840.626 46.5795 842.041 45.5377 842.041 44.6245V44.6374Z" fill="#231F20"/>
<path d="M869.333 47.2869H868.33C868.214 47.0811 868.112 46.6052 868.099 46.1036C867.507 46.7724 866.362 47.4541 865.14 47.5184C863.597 47.6213 862.375 46.9653 862.234 45.6792C862.092 44.3801 862.915 43.6342 863.983 43.3255C864.845 43.0682 865.964 43.0682 866.89 42.901C867.366 42.811 868.099 42.6567 868.099 41.9878C868.099 41.2033 867.404 40.393 865.899 40.393C864.484 40.393 863.61 41.0489 863.648 42.0007H862.684C862.542 40.5216 864.073 39.5312 865.886 39.5312C867.7 39.5312 869.128 40.4316 869.128 42.0136V46.065C869.128 46.721 869.32 47.2483 869.333 47.274V47.2869ZM868.086 44.6374V43.2097C867.854 43.3898 867.507 43.5313 867.198 43.5827C866.568 43.7113 865.192 43.8271 864.716 43.9428C863.7 44.2258 863.185 44.7403 863.224 45.4991C863.275 46.3994 864.189 46.7724 865.256 46.6952C866.671 46.5795 868.086 45.5377 868.086 44.6245V44.6374Z" fill="#231F20"/>
<path d="M44.7727 302.152H34.9094V300.434H38.8547V298.52H41.0227V300.434H44.7727V302.152ZM35.8274 306.156C35.8274 305.505 35.9967 304.932 36.3352 304.438C36.6803 303.936 37.162 303.549 37.7805 303.275C38.4055 302.995 39.1152 302.855 39.9094 302.855C40.7037 302.855 41.4133 302.995 42.0383 303.275C42.6698 303.549 43.1614 303.936 43.5129 304.438C43.871 304.939 44.05 305.512 44.05 306.156C44.05 306.801 43.871 307.37 43.5129 307.865C43.1614 308.36 42.6698 308.744 42.0383 309.018C41.4133 309.285 40.7037 309.418 39.9094 309.418C39.1086 309.418 38.399 309.285 37.7805 309.018C37.162 308.744 36.6803 308.36 36.3352 307.865C35.9967 307.37 35.8274 306.801 35.8274 306.156ZM37.6829 313.246C37.6829 312.602 37.9237 312.051 38.4055 311.596C38.8938 311.133 39.5904 310.782 40.4954 310.541C41.4003 310.3 42.4745 310.18 43.718 310.18C44.955 310.18 46.026 310.3 46.9309 310.541C47.8359 310.782 48.5325 311.133 49.0208 311.596C49.509 312.051 49.7532 312.602 49.7532 313.246C49.7532 313.878 49.509 314.424 49.0208 314.887C48.5325 315.349 47.8359 315.701 46.9309 315.941C46.026 316.189 44.955 316.312 43.718 316.312C42.481 316.312 41.4068 316.189 40.4954 315.941C39.5904 315.701 38.8938 315.349 38.4055 314.887C37.9237 314.424 37.6829 313.878 37.6829 313.246ZM37.8586 306.156C37.8521 306.671 38.0344 307.074 38.4055 307.367C38.7766 307.654 39.2779 307.797 39.9094 307.797C40.5474 307.797 41.0585 307.65 41.4426 307.357C41.8267 307.064 42.0188 306.664 42.0188 306.156C42.0188 305.635 41.8235 305.225 41.4329 304.926C41.0487 304.626 40.5409 304.477 39.9094 304.477C39.2779 304.477 38.7766 304.626 38.4055 304.926C38.0344 305.225 37.8521 305.635 37.8586 306.156ZM39.968 313.246C39.9615 313.695 40.2773 314.044 40.9153 314.291C41.5598 314.532 42.4713 314.652 43.6497 314.652C44.8671 314.652 45.8014 314.535 46.4524 314.301C47.1034 314.06 47.429 313.708 47.429 313.246C47.429 312.784 47.1099 312.436 46.4719 312.201C45.8339 311.96 44.9159 311.84 43.718 311.84C42.5136 311.84 41.5859 311.96 40.9348 312.201C40.2838 312.436 39.9615 312.784 39.968 313.246ZM44.8704 306.176H47.4875V304.438H44.8899V302.68H47.4875V298.676H49.6555V309.984H47.4875V307.914H44.8704V306.176Z" fill="#222222"/>
<path d="M33.5288 308.91H17.4351V307.172H21.1851V304.936C20.508 304.649 19.9904 304.288 19.6323 303.852C19.2743 303.409 19.0952 302.901 19.0952 302.328C19.0952 301.632 19.3524 301.033 19.8667 300.531C20.3875 300.023 21.1265 299.636 22.0835 299.369C23.0405 299.102 24.1668 298.969 25.4624 298.969C26.758 298.969 27.881 299.102 28.8315 299.369C29.7886 299.636 30.5275 300.023 31.0483 300.531C31.5692 301.033 31.8296 301.632 31.8296 302.328C31.8231 302.901 31.6375 303.409 31.2729 303.852C30.9149 304.294 30.3973 304.656 29.7202 304.936V307.172H33.5288V308.91ZM19.3101 313.129C19.3101 312.458 19.5542 311.889 20.0425 311.42C20.5308 310.945 21.2339 310.587 22.1519 310.346C23.0763 310.098 24.1799 309.978 25.4624 309.984C26.7254 309.978 27.8127 310.098 28.7241 310.346C29.6421 310.587 30.3452 310.945 30.8335 311.42C31.3283 311.889 31.5757 312.458 31.5757 313.129C31.5757 313.806 31.3315 314.379 30.8433 314.848C30.355 315.323 29.6519 315.681 28.7339 315.922C27.8224 316.169 26.7319 316.293 25.4624 316.293C24.1733 316.293 23.0698 316.169 22.1519 315.922C21.2339 315.681 20.5308 315.323 20.0425 314.848C19.5542 314.379 19.3101 313.806 19.3101 313.129ZM21.3608 302.328C21.3543 302.855 21.6994 303.262 22.396 303.549C23.0991 303.829 24.0985 303.969 25.394 303.969C26.7352 303.969 27.7671 303.829 28.4897 303.549C29.2189 303.269 29.5835 302.862 29.5835 302.328C29.5835 301.794 29.2254 301.381 28.5093 301.088C27.7996 300.795 26.8035 300.648 25.521 300.648C24.1864 300.648 23.1577 300.795 22.4351 301.088C21.7124 301.374 21.3543 301.788 21.3608 302.328ZM21.5171 313.129C21.5106 313.624 21.8394 314.001 22.5034 314.262C23.1675 314.522 24.131 314.652 25.394 314.652C26.6896 314.652 27.6792 314.525 28.3628 314.271C29.0529 314.011 29.4012 313.63 29.4077 313.129C29.4012 312.641 29.0594 312.27 28.3823 312.016C27.7052 311.762 26.7319 311.632 25.4624 311.625C24.1733 311.632 23.1903 311.762 22.5132 312.016C21.8426 312.27 21.5106 312.641 21.5171 313.129ZM27.5522 307.172V305.492C26.8947 305.583 26.1981 305.629 25.4624 305.629C24.7267 305.629 24.0301 305.583 23.3726 305.492V307.172H27.5522Z" fill="#222222"/>
<path d="M16.0938 308.773H0V307.055H16.0938V308.773ZM1.66016 302.504C1.66016 301.807 1.92057 301.202 2.44141 300.688C2.96224 300.173 3.70117 299.779 4.6582 299.506C5.62174 299.226 6.74479 299.086 8.02734 299.086C9.3099 299.086 10.4297 299.226 11.3867 299.506C12.3438 299.779 13.0827 300.173 13.6035 300.688C14.1309 301.202 14.3945 301.807 14.3945 302.504C14.3945 303.207 14.1341 303.816 13.6133 304.33C13.0924 304.844 12.3535 305.238 11.3965 305.512C10.4395 305.785 9.31641 305.922 8.02734 305.922C6.74479 305.922 5.62174 305.785 4.6582 305.512C3.70117 305.238 2.96224 304.844 2.44141 304.33C1.92057 303.816 1.66016 303.207 1.66016 302.504ZM1.875 313.129C1.875 312.445 2.11914 311.863 2.60742 311.381C3.0957 310.899 3.79883 310.538 4.7168 310.297C5.64128 310.049 6.74479 309.926 8.02734 309.926C9.29036 309.926 10.3776 310.049 11.2891 310.297C12.207 310.538 12.9102 310.899 13.3984 311.381C13.8932 311.863 14.1406 312.445 14.1406 313.129C14.1406 313.806 13.8932 314.385 13.3984 314.867C12.9102 315.349 12.207 315.714 11.2891 315.961C10.3776 316.208 9.29036 316.332 8.02734 316.332C6.74479 316.332 5.64128 316.208 4.7168 315.961C3.79883 315.714 3.0957 315.349 2.60742 314.867C2.11914 314.392 1.875 313.812 1.875 313.129ZM3.92578 302.504C3.91927 303.057 4.26758 303.484 4.9707 303.783C5.68034 304.076 6.67969 304.223 7.96875 304.223C9.29688 304.223 10.3255 304.079 11.0547 303.793C11.7839 303.5 12.1484 303.07 12.1484 302.504C12.1484 301.951 11.7871 301.527 11.0645 301.234C10.3418 300.935 9.32943 300.785 8.02734 300.785C6.72526 300.785 5.71289 300.935 4.99023 301.234C4.27409 301.527 3.91927 301.951 3.92578 302.504ZM4.08203 313.129C4.07552 313.624 4.40104 314.001 5.05859 314.262C5.72266 314.522 6.68945 314.652 7.95898 314.652C9.26107 314.652 10.2539 314.525 10.9375 314.271C11.6211 314.011 11.9661 313.63 11.9727 313.129C11.9661 312.615 11.6243 312.227 10.9473 311.967C10.2702 311.7 9.29688 311.566 8.02734 311.566C6.73828 311.566 5.75521 311.7 5.07812 311.967C4.40755 312.227 4.07552 312.615 4.08203 313.129Z" fill="#222222"/>
<g clip-path="url(#clip0_2818_37065)">
<path d="M760.753 279.092C768.117 279.092 774.087 273.123 774.087 265.759C774.087 258.395 768.117 252.426 760.753 252.426C753.389 252.426 747.42 258.395 747.42 265.759C747.42 273.123 753.389 279.092 760.753 279.092Z" fill="#35959A"/>
<path d="M787.42 279.092C794.784 279.092 800.753 273.123 800.753 265.759C800.753 258.395 794.784 252.426 787.42 252.426C780.056 252.426 774.086 258.395 774.086 265.759C774.086 273.123 780.056 279.092 787.42 279.092Z" fill="#35959A"/>
<path d="M814.087 279.092C821.45 279.092 827.42 273.123 827.42 265.759C827.42 258.395 821.45 252.426 814.087 252.426C806.723 252.426 800.753 258.395 800.753 265.759C800.753 273.123 806.723 279.092 814.087 279.092Z" fill="#35959A"/>
<path d="M840.753 279.092C848.117 279.092 854.087 273.123 854.087 265.759C854.087 258.395 848.117 252.426 840.753 252.426C833.389 252.426 827.42 258.395 827.42 265.759C827.42 273.123 833.389 279.092 840.753 279.092Z" fill="#35959A"/>
<path d="M734.601 252.447L93.5935 252.426C86.4552 252.726 80.7532 258.557 80.7532 265.759C80.7532 272.962 86.4552 278.792 93.572 279.071L734.58 279.092C741.696 278.792 747.398 272.962 747.398 265.759C747.398 258.557 741.718 252.726 734.601 252.447Z" fill="#35959A"/>
<path d="M867.42 279.092C874.784 279.092 880.753 273.123 880.753 265.759C880.753 258.395 874.784 252.426 867.42 252.426C860.056 252.426 854.086 258.395 854.086 265.759C854.086 273.123 860.056 279.092 867.42 279.092Z" fill="#35959A"/>
<path d="M760.753 305.764C768.117 305.764 774.087 299.795 774.087 292.431C774.087 285.067 768.117 279.098 760.753 279.098C753.389 279.098 747.42 285.067 747.42 292.431C747.42 299.795 753.389 305.764 760.753 305.764Z" fill="#00549C"/>
<path d="M787.42 305.764C794.784 305.764 800.753 299.795 800.753 292.431C800.753 285.067 794.784 279.098 787.42 279.098C780.056 279.098 774.086 285.067 774.086 292.431C774.086 299.795 780.056 305.764 787.42 305.764Z" fill="#00549C"/>
<path d="M814.087 305.764C821.45 305.764 827.42 299.795 827.42 292.431C827.42 285.067 821.45 279.098 814.087 279.098C806.723 279.098 800.753 285.067 800.753 292.431C800.753 299.795 806.723 305.764 814.087 305.764Z" fill="#00549C"/>
<path d="M840.753 305.764C848.117 305.764 854.087 299.795 854.087 292.431C854.087 285.067 848.117 279.098 840.753 279.098C833.389 279.098 827.42 285.067 827.42 292.431C827.42 299.795 833.389 305.764 840.753 305.764Z" fill="#00549C"/>
<path d="M734.601 279.119L93.5935 279.098C86.4767 279.398 80.7747 285.228 80.7747 292.431C80.7747 299.634 86.4767 305.464 93.5935 305.743L734.601 305.764C741.718 305.464 747.42 299.634 747.42 292.431C747.42 285.228 741.718 279.398 734.601 279.119Z" fill="#00549C"/>
<path d="M867.42 305.764C874.784 305.764 880.753 299.795 880.753 292.431C880.753 285.067 874.784 279.098 867.42 279.098C860.056 279.098 854.086 285.067 854.086 292.431C854.086 299.795 860.056 305.764 867.42 305.764Z" fill="#00549C"/>
<path d="M760.753 332.421C768.117 332.421 774.087 326.451 774.087 319.087C774.087 311.723 768.117 305.754 760.753 305.754C753.389 305.754 747.42 311.723 747.42 319.087C747.42 326.451 753.389 332.421 760.753 332.421Z" fill="#BD1339"/>
<path d="M787.42 332.421C794.784 332.421 800.753 326.451 800.753 319.087C800.753 311.723 794.784 305.754 787.42 305.754C780.056 305.754 774.086 311.723 774.086 319.087C774.086 326.451 780.056 332.421 787.42 332.421Z" fill="#BD1339"/>
<path d="M814.087 332.421C821.45 332.421 827.42 326.451 827.42 319.087C827.42 311.723 821.45 305.754 814.087 305.754C806.723 305.754 800.753 311.723 800.753 319.087C800.753 326.451 806.723 332.421 814.087 332.421Z" fill="#BD1339"/>
<path d="M840.753 332.421C848.117 332.421 854.087 326.451 854.087 319.087C854.087 311.723 848.117 305.754 840.753 305.754C833.389 305.754 827.42 311.723 827.42 319.087C827.42 326.451 833.389 332.421 840.753 332.421Z" fill="#BD1339"/>
<path d="M734.601 305.775L93.5935 305.754C86.4767 306.054 80.7747 311.885 80.7747 319.087C80.7747 326.29 86.4767 332.12 93.5935 332.399L734.601 332.421C741.718 332.12 747.42 326.29 747.42 319.087C747.42 311.885 741.718 306.054 734.601 305.775Z" fill="#BD1339"/>
<path d="M867.42 332.421C874.784 332.421 880.753 326.451 880.753 319.087C880.753 311.723 874.784 305.754 867.42 305.754C860.056 305.754 854.086 311.723 854.086 319.087C854.086 326.451 860.056 332.421 867.42 332.421Z" fill="#BD1339"/>
<path d="M760.753 359.092C768.117 359.092 774.087 353.123 774.087 345.759C774.087 338.395 768.117 332.426 760.753 332.426C753.389 332.426 747.42 338.395 747.42 345.759C747.42 353.123 753.389 359.092 760.753 359.092Z" fill="#595B56"/>
<path d="M787.42 359.092C794.784 359.092 800.753 353.123 800.753 345.759C800.753 338.395 794.784 332.426 787.42 332.426C780.056 332.426 774.086 338.395 774.086 345.759C774.086 353.123 780.056 359.092 787.42 359.092Z" fill="#595B56"/>
<path d="M814.087 359.092C821.45 359.092 827.42 353.123 827.42 345.759C827.42 338.395 821.45 332.426 814.087 332.426C806.723 332.426 800.753 338.395 800.753 345.759C800.753 353.123 806.723 359.092 814.087 359.092Z" fill="#595B56"/>
<path d="M840.753 359.092C848.117 359.092 854.087 353.123 854.087 345.759C854.087 338.395 848.117 332.426 840.753 332.426C833.389 332.426 827.42 338.395 827.42 345.759C827.42 353.123 833.389 359.092 840.753 359.092Z" fill="#595B56"/>
<path d="M734.601 332.447L93.5935 332.426C86.4767 332.726 80.7747 338.557 80.7747 345.759C80.7747 352.962 86.4767 358.792 93.5935 359.071L734.601 359.092C741.718 358.792 747.42 352.962 747.42 345.759C747.42 338.557 741.718 332.726 734.601 332.447Z" fill="#595B56"/>
<path d="M867.42 359.092C874.784 359.092 880.753 353.123 880.753 345.759C880.753 338.395 874.784 332.426 867.42 332.426C860.056 332.426 854.086 338.395 854.086 345.759C854.086 353.123 860.056 359.092 867.42 359.092Z" fill="#595B56"/>
</g>
<path d="M79.7532 234.426V384.426" stroke="#231F20" stroke-width="0.360129"/>
<path d="M746.753 230.426V384.426" stroke="#231F20" stroke-width="0.360129"/>
<path d="M772.753 230.426V384.426" stroke="#231F20" stroke-width="0.360129"/>
<path d="M799.753 230.426V384.426" stroke="#231F20" stroke-width="0.360129"/>
<path d="M826.753 230.426V384.426" stroke="#231F20" stroke-width="0.360129"/>
<path d="M852.753 230.426V384.426" stroke="#231F20" stroke-width="0.360129"/>
<path d="M879.753 230.426V384.426" stroke="#231F20" stroke-width="0.360129"/>
<defs>
<clipPath id="clip0_2818_37065">
<rect width="800" height="106.667" fill="white" transform="translate(80.7532 252.426)"/>
</clipPath>
</defs>
</svg>
