<svg width="1096" height="1109" viewBox="0 0 1096 1109" fill="none" xmlns="http://www.w3.org/2000/svg">
<rect width="1095.23" height="280" rx="6.66667" fill="white"/>
<rect x="0.333333" y="0.333333" width="1094.56" height="279.333" rx="6.33333" stroke="#4C4E64" stroke-opacity="0.22" stroke-width="0.666667"/>
<g clip-path="url(#clip0_3218_16093)">
<path d="M312.245 128.864L328.554 146.771L323.157 151.33L309.264 135.918C306.225 141.724 301.86 147.044 296.19 151.954L290.871 147.316C300.554 138.879 305.796 129.001 306.77 117.524V111.504H314.311V115.381C314.233 120.077 313.551 124.578 312.245 128.864ZM343.693 168.886H336.153V132.255H321.637V125.766H336.153V104.82H343.693V168.905V168.886Z" fill="#595B56"/>
<path d="M377.09 144.838V139.246H350.61V132.816H411.305V139.246H384.825V144.838H398.036V161.088H371.498V164.888H399.634V171.318H363.821V154.795H390.359V151.19H363.392V144.838H377.07H377.09ZM364.035 117.93C364.035 114.189 365.633 111.091 368.945 108.597C372.121 106.181 376.135 104.934 380.967 104.934C385.8 104.934 389.813 106.181 393.126 108.597C396.38 111.091 398.036 114.189 398.036 117.93C398.036 121.671 396.38 124.769 393.126 127.185C389.813 129.679 385.8 130.926 380.967 130.926C376.135 130.926 372.121 129.679 368.945 127.185C365.633 124.769 364.035 121.651 364.035 117.93ZM371.693 117.93C371.693 119.8 372.531 121.32 374.245 122.489C375.901 123.736 378.123 124.36 380.948 124.36C383.773 124.36 386.072 123.736 387.787 122.489C389.443 121.32 390.34 119.8 390.34 117.93C390.34 116.059 389.443 114.54 387.787 113.292C386.053 112.123 383.773 111.5 380.948 111.5C378.123 111.5 375.901 112.123 374.245 113.292C372.511 114.54 371.693 116.118 371.693 117.93Z" fill="#595B56"/>
<path d="M434.18 128.86L450.761 146.007L445.364 150.566L431.257 135.777C428.218 141.584 423.853 146.981 418.125 151.95L412.805 147.312C422.489 138.875 427.731 128.997 428.705 117.52V111.5H436.245V115.377C436.167 120.073 435.486 124.574 434.18 128.86ZM464.674 168.882H457.133V104.797H464.674V168.882Z" fill="#595B56"/>
<path d="M519.698 129.757H506.156V136.402H532.285V142.968H471.591V136.402H498.479V129.757H484.723V106.746H492.459V123.269H519.698V129.757ZM484.996 158.867C484.996 154.99 486.594 151.756 489.828 149.262C493.004 146.768 497.096 145.521 501.928 145.521C506.76 145.521 510.852 146.768 514.165 149.262C517.341 151.756 518.997 154.99 518.997 158.867C518.997 162.745 517.341 165.979 514.165 168.473C510.852 170.967 506.78 172.214 501.928 172.214C497.076 172.214 493.004 170.967 489.828 168.473C486.574 165.979 484.996 162.803 484.996 158.867ZM492.673 158.867C492.673 160.933 493.511 162.531 495.167 163.778C496.823 165.025 499.044 165.648 501.948 165.648C504.851 165.648 507.131 165.025 508.865 163.778C510.521 162.531 511.359 160.952 511.359 158.867C511.359 156.783 510.521 155.204 508.865 153.957C507.131 152.71 504.851 152.087 501.948 152.087C499.044 152.087 496.843 152.71 495.167 153.957C493.491 155.204 492.673 156.861 492.673 158.867Z" fill="#595B56"/>
<path d="M594.5 148.211H567.962V170.267H560.226V148.211H533.824V141.644H594.519V148.211H594.5ZM568.156 110.761C568.02 112.69 567.669 114.502 567.124 116.217L586.764 131.084L582.068 136.266L564.026 122.647C560.44 128.044 554.478 132.954 546.334 137.241L541.501 132.058C553.952 125.004 560.226 117.815 560.518 110.488V107.234H568.195V110.761H568.156Z" fill="#595B56"/>
<path d="M617.511 124.028L633.06 139.304L627.74 143.864L614.53 130.517C611.627 135.563 607.34 140.337 601.806 144.818L596.545 140.259C606.229 132.173 611.276 123.463 611.821 114.13V109.006H619.284V112.805C619.284 116.682 618.738 120.404 617.491 124.009L617.511 124.028ZM647.03 170.616H611.432V147.663H618.972V164.108H647.03V170.596V170.616ZM656.909 128.86H646.27V152.222H638.73V104.797H646.27V122.002H656.909V128.841V128.86Z" fill="#595B56"/>
<path d="M680.349 122.294L696.171 136.265L691.124 140.766L677.582 128.529C674.679 133.576 670.314 138.349 664.508 142.831L659.189 138.408C668.873 130.672 673.919 122.294 674.465 113.312V108.343H681.927V112.084C681.927 115.611 681.44 119.001 680.329 122.314L680.349 122.294ZM709.868 171.999H702.328V153.197H673.296V146.708H709.868V171.999ZM702.951 144.76V104.797H710.492V144.76H702.951Z" fill="#595B56"/>
<path d="M743.869 148.285V142.342H717.389V135.776H778.084V142.342H751.604V148.285H764.873V170.965H730.444V148.285H743.849H743.869ZM767.523 132.658H727.852V126.17H735.178V123.89C735.178 122.097 735.042 120.636 734.828 119.681C734.555 118.785 734.204 117.752 733.659 116.564L740.439 114.498C741.472 115.882 742.173 117.324 742.446 118.843C742.66 120.441 742.797 122.097 742.797 123.812V126.17H752.617V113.797H728.417V107.309H766.997V113.797H760.158V126.17H767.562V132.658H767.523ZM757.293 164.535V154.715H738.14V164.535H757.293Z" fill="#595B56"/>
<path d="M779.623 135.975H802.44V122.706H810.253V135.975H840.318V142.541H779.623V135.975ZM827.653 107.566C827.653 112.886 827.439 117.523 827.107 121.537C826.698 125.609 826.211 129.214 825.51 132.39H818.047C818.534 128.805 818.943 125.336 819.352 121.888C819.703 118.575 819.898 115.945 819.898 114.074H791.217V107.586H827.653V107.566ZM793.087 158.655C793.087 155.07 794.607 151.874 797.783 149.108C800.823 146.419 804.895 145.035 810.019 145.035C815.144 145.035 819.216 146.419 822.392 149.108C825.51 151.874 827.088 155.05 827.088 158.655C827.088 162.26 825.49 165.494 822.392 168.203C819.216 170.969 815.066 172.275 810.019 172.275C804.973 172.275 800.9 170.969 797.783 168.203C794.607 165.514 793.087 162.318 793.087 158.655ZM800.764 158.655C800.764 160.526 801.602 162.182 803.258 163.565C804.856 165.085 807.136 165.786 810.039 165.786C812.942 165.786 815.3 165.105 816.956 163.565C818.612 162.182 819.45 160.526 819.45 158.655C819.45 156.785 818.612 155.206 816.956 153.687C815.3 152.303 812.942 151.543 810.039 151.543C807.136 151.543 804.856 152.303 803.258 153.687C801.602 155.206 800.764 156.863 800.764 158.655Z" fill="#595B56"/>
<path d="M863.193 128.86L879.501 146.767L874.104 151.326L860.212 135.914C857.172 141.72 852.807 147.04 847.137 151.95L841.818 147.312C851.502 138.875 856.743 128.997 857.718 117.52V111.5H865.258V115.377C865.18 120.073 864.498 124.574 863.193 128.86ZM903 135.349H892.069V168.882H884.528V104.797H892.069V128.51H903V135.349Z" fill="#595B56"/>
<path d="M177.568 145.63C177.568 151.787 170.378 156.775 161.493 156.775C152.608 156.775 145.418 151.787 145.418 145.63C145.418 139.472 152.627 134.484 161.493 134.484C170.358 134.484 177.568 139.472 177.568 145.63Z" fill="#BD1339"/>
<path d="M174.606 133.161C174.606 133.161 199.02 131.622 200.13 146.411C200.13 146.411 200.091 174.761 140.352 179.71L173.651 206.852C173.651 206.852 229.24 183.023 216.225 147.736C216.225 147.736 209.522 130.278 174.606 133.161Z" fill="#00549C"/>
<path d="M148.516 158.979C148.516 158.979 115.645 159.641 120.945 141.345C120.945 141.345 124.257 116.19 172.345 112.449C172.345 112.449 205.645 107.812 234.54 119.074L276.004 77.1627C276.004 77.1627 216.03 58.1846 149.841 81.9948C149.841 81.9948 105.942 95.0106 103.078 129.42C103.078 129.42 99.1027 161.2 148.516 158.979Z" fill="#35959A"/>
</g>
<rect width="106" height="40" fill="#2350A1"/>
<path d="M41.9208 28.7383H39.7333V11.082H41.9208V28.7383ZM27.2919 23.875C29.5705 22.7943 31.2795 21.502 32.4188 19.998C33.5647 18.4941 34.2385 16.7201 34.4403 14.6758H28.1903V12.957H36.6474C36.6474 15.763 36.0126 18.224 34.7431 20.3398C33.4735 22.4557 31.3674 24.2135 28.4247 25.6133L27.2919 23.875ZM48.8481 13.6602H56.4653V11.7461H58.6138V18.9141H53.731V20.5352H60.7036V22.293H44.6099V20.5352H51.5435V18.9141H46.6997V11.7461H48.8481V13.6602ZM46.6021 23.4258H48.77V26.6289H58.8872V28.3867H46.6021V23.4258ZM56.4653 17.1758V15.3398H48.8481V17.1758H56.4653ZM71.9474 14.5586H62.0841V12.8398H66.0294V10.9258H68.1974V12.8398H71.9474V14.5586ZM63.0021 18.5625C63.0021 17.9115 63.1713 17.3385 63.5099 16.8438C63.8549 16.3424 64.3367 15.9551 64.9552 15.6816C65.5802 15.4017 66.2898 15.2617 67.0841 15.2617C67.8784 15.2617 68.588 15.4017 69.213 15.6816C69.8445 15.9551 70.336 16.3424 70.6876 16.8438C71.0457 17.3451 71.2247 17.918 71.2247 18.5625C71.2247 19.207 71.0457 19.7767 70.6876 20.2715C70.336 20.7663 69.8445 21.1504 69.213 21.4238C68.588 21.6908 67.8784 21.8242 67.0841 21.8242C66.2833 21.8242 65.5737 21.6908 64.9552 21.4238C64.3367 21.1504 63.8549 20.7663 63.5099 20.2715C63.1713 19.7767 63.0021 19.207 63.0021 18.5625ZM64.8575 25.6523C64.8575 25.0078 65.0984 24.4577 65.5802 24.002C66.0685 23.5397 66.7651 23.1882 67.67 22.9473C68.575 22.7064 69.6492 22.5859 70.8927 22.5859C72.1297 22.5859 73.2006 22.7064 74.1056 22.9473C75.0105 23.1882 75.7071 23.5397 76.1954 24.002C76.6837 24.4577 76.9278 25.0078 76.9278 25.6523C76.9278 26.2839 76.6837 26.8307 76.1954 27.293C75.7071 27.7552 75.0105 28.1068 74.1056 28.3477C73.2006 28.5951 72.1297 28.7188 70.8927 28.7188C69.6557 28.7188 68.5815 28.5951 67.67 28.3477C66.7651 28.1068 66.0685 27.7552 65.5802 27.293C65.0984 26.8307 64.8575 26.2839 64.8575 25.6523ZM65.0333 18.5625C65.0268 19.0768 65.2091 19.4805 65.5802 19.7734C65.9513 20.0599 66.4526 20.2031 67.0841 20.2031C67.7221 20.2031 68.2332 20.0566 68.6173 19.7637C69.0014 19.4707 69.1935 19.0703 69.1935 18.5625C69.1935 18.0417 68.9981 17.6315 68.6075 17.332C68.2234 17.0326 67.7156 16.8828 67.0841 16.8828C66.4526 16.8828 65.9513 17.0326 65.5802 17.332C65.2091 17.6315 65.0268 18.0417 65.0333 18.5625ZM67.1427 25.6523C67.1362 26.1016 67.4519 26.4499 68.0899 26.6973C68.7345 26.9382 69.6459 27.0586 70.8243 27.0586C72.0418 27.0586 72.976 26.9414 73.6271 26.707C74.2781 26.4661 74.6036 26.1146 74.6036 25.6523C74.6036 25.1901 74.2846 24.8418 73.6466 24.6074C73.0086 24.3665 72.0906 24.2461 70.8927 24.2461C69.6883 24.2461 68.7605 24.3665 68.1095 24.6074C67.4584 24.8418 67.1362 25.1901 67.1427 25.6523ZM72.045 18.582H74.6622V16.8438H72.0646V15.0859H74.6622V11.082H76.8302V22.3906H74.6622V20.3203H72.045V18.582Z" fill="white"/>
<rect x="561" y="330" width="534" height="250" rx="6.66667" fill="white"/>
<rect x="561.333" y="330.333" width="533.333" height="249.333" rx="6.33333" stroke="#4C4E64" stroke-opacity="0.22" stroke-width="0.666667"/>
<g clip-path="url(#clip1_3218_16093)">
<path d="M768.925 513.61C770.434 516.787 773.661 518.974 777.408 518.974C781.903 518.974 785.66 515.818 786.579 511.602H764.15C764.05 510.943 764 510.273 764 509.584C764 502.172 770.004 496.168 777.418 496.168C783.422 496.168 788.507 500.114 790.216 505.558H785.9C784.391 502.382 781.164 500.194 777.418 500.194C772.922 500.194 769.165 503.351 768.246 507.576H790.685C790.785 508.236 790.835 508.905 790.835 509.584C790.835 516.997 784.831 523 777.418 523C771.413 523 766.328 519.054 764.619 513.61H768.935H768.925Z" fill="#595B56"/>
<path d="M825.673 511.602V523H821.647V509.584C821.647 502.172 827.651 496.168 835.065 496.168H848.482V500.194H835.065C830.569 500.194 826.812 503.351 825.893 507.566H848.482V511.592H825.673V511.602Z" fill="#595B56"/>
<path d="M854.486 511.602V523H850.46V509.584C850.46 502.172 856.465 496.168 863.878 496.168H877.295V500.194H863.878C859.382 500.194 855.625 503.351 854.706 507.566H877.295V511.592H854.486V511.602Z" fill="#595B56"/>
<path d="M905 514.96C902.932 519.695 898.206 523.012 892.701 523.012C885.288 523.012 879.284 517.008 879.284 509.596C879.284 502.184 885.288 496.18 892.701 496.18C898.206 496.18 902.932 499.486 905 504.231H900.404C898.706 501.804 895.888 500.206 892.701 500.206C887.516 500.206 883.31 504.411 883.31 509.596C883.31 514.781 887.516 518.986 892.701 518.986C895.888 518.986 898.716 517.398 900.404 514.96H905Z" fill="#595B56"/>
<path d="M806.241 496.18C798.828 496.18 792.823 502.184 792.823 509.596V523.012H796.85V511.614H815.632V523.012H819.659V509.596C819.659 502.184 813.654 496.18 806.241 496.18ZM797.06 507.578C797.979 503.362 801.735 500.196 806.231 500.196C810.727 500.196 814.484 503.352 815.403 507.578H797.06Z" fill="#595B56"/>
<path d="M826.552 440.966C826.552 445.361 821.417 448.928 815.083 448.928C808.749 448.928 803.614 445.361 803.614 440.966C803.614 436.57 808.749 433.004 815.083 433.004C821.417 433.004 826.552 436.56 826.552 440.966Z" fill="#BD1339"/>
<path d="M824.444 432.063C824.444 432.063 841.868 430.974 842.648 441.514C842.648 441.514 842.618 461.733 799.997 465.279L823.755 484.639C823.755 484.639 863.408 467.637 854.127 442.473C854.127 442.473 849.341 430.015 824.434 432.073" fill="#00549C"/>
<path d="M805.822 450.485C805.822 450.485 782.373 450.965 786.15 437.898C786.15 437.898 788.508 419.957 822.816 417.289C822.816 417.289 846.584 413.983 867.195 422.005L896.788 392.105C896.788 392.105 853.987 378.569 806.771 395.562C806.771 395.562 775.45 404.842 773.401 429.387C773.401 429.387 770.574 452.054 805.822 450.475" fill="#35959A"/>
</g>
<rect x="561" y="330" width="199" height="40" fill="#2350A1"/>
<path d="M603.248 358.719H601.041V354.676H597.291V353.035H601.041V341.102H603.248V358.719ZM588.268 350.164C590.683 350.158 592.793 350.125 594.596 350.066C596.406 350.001 598.151 349.852 599.831 349.617L599.967 351.219C598.457 351.473 596.816 351.658 595.045 351.775V358.191H592.858V351.883C591.829 351.922 590.39 351.941 588.541 351.941L588.268 350.164ZM589.538 345.438C589.538 344.747 589.73 344.132 590.114 343.592C590.498 343.045 591.035 342.622 591.725 342.322C592.415 342.016 593.196 341.863 594.069 341.863C594.928 341.863 595.696 342.016 596.373 342.322C597.057 342.622 597.591 343.045 597.975 343.592C598.366 344.132 598.561 344.747 598.561 345.438C598.561 346.141 598.369 346.762 597.985 347.303C597.601 347.837 597.067 348.253 596.383 348.553C595.7 348.846 594.928 348.992 594.069 348.992C593.19 348.992 592.405 348.846 591.715 348.553C591.032 348.253 590.498 347.837 590.114 347.303C589.73 346.762 589.538 346.141 589.538 345.438ZM591.588 345.438C591.588 345.828 591.689 346.167 591.891 346.453C592.099 346.733 592.389 346.951 592.76 347.107C593.138 347.257 593.574 347.332 594.069 347.332C594.538 347.332 594.954 347.257 595.319 347.107C595.69 346.951 595.976 346.73 596.178 346.443C596.387 346.157 596.491 345.822 596.491 345.438C596.491 345.06 596.387 344.728 596.178 344.441C595.976 344.148 595.69 343.924 595.319 343.768C594.954 343.605 594.538 343.523 594.069 343.523C593.581 343.523 593.148 343.605 592.77 343.768C592.392 343.924 592.099 344.148 591.891 344.441C591.689 344.728 591.588 345.06 591.588 345.438ZM620.117 351.102H607.734V342.625H619.981V344.383H609.883V349.363H620.117V351.102ZM605.781 354.695H621.914V356.492H605.781V354.695ZM632.201 354.363H623.841V342.801H632.201V354.363ZM630.033 352.625V344.5H625.97V352.625H630.033ZM634.877 341.082H637.045V347.859H639.759V349.695H637.045V358.738H634.877V341.082ZM654.968 344.832C654.968 345.965 654.955 346.922 654.929 347.703C654.903 348.478 654.831 349.357 654.714 350.34C654.603 351.323 654.428 352.397 654.187 353.562L652.019 353.367C652.338 352.013 652.562 350.63 652.693 349.217L642.292 349.754L641.999 347.996L652.79 347.586C652.823 346.798 652.839 345.88 652.839 344.832V344.48H642.527V342.723H654.968V344.832ZM640.652 354.715H656.745V356.492H640.652V354.715ZM669.233 343.895C669.233 344.643 669.392 345.359 669.711 346.043C670.03 346.727 670.502 347.332 671.127 347.859C671.752 348.387 672.508 348.79 673.393 349.07L672.221 350.77C671.284 350.451 670.473 349.985 669.79 349.373C669.112 348.761 668.575 348.035 668.178 347.195C667.788 348.152 667.234 348.982 666.518 349.686C665.808 350.382 664.956 350.906 663.959 351.258L662.788 349.559C663.712 349.24 664.493 348.784 665.131 348.191C665.769 347.592 666.248 346.909 666.567 346.141C666.892 345.366 667.058 344.552 667.065 343.699V342.02H669.233V343.895ZM665.19 355.359C665.19 354.669 665.431 354.074 665.913 353.572C666.394 353.071 667.084 352.69 667.983 352.43C668.881 352.169 669.942 352.039 671.166 352.039C672.377 352.039 673.426 352.169 674.311 352.43C675.203 352.69 675.887 353.071 676.362 353.572C676.844 354.074 677.084 354.669 677.084 355.359C677.084 356.062 676.844 356.665 676.362 357.166C675.887 357.674 675.206 358.058 674.321 358.318C673.435 358.585 672.384 358.719 671.166 358.719C669.942 358.719 668.881 358.585 667.983 358.318C667.084 358.058 666.394 357.674 665.913 357.166C665.431 356.665 665.19 356.062 665.19 355.359ZM667.358 355.359C667.358 355.9 667.687 356.31 668.344 356.59C669.002 356.863 669.942 357 671.166 357C672.384 357 673.315 356.863 673.959 356.59C674.61 356.31 674.936 355.9 674.936 355.359C674.936 354.839 674.607 354.438 673.95 354.158C673.299 353.878 672.371 353.738 671.166 353.738C669.956 353.738 669.018 353.882 668.354 354.168C667.69 354.448 667.358 354.845 667.358 355.359ZM674.741 341.082H676.909V345.379H679.37V347.176H676.909V351.648H674.741V341.082ZM694.246 348.113H696.961V349.91H694.246V358.738H692.098V341.082H694.246V348.113ZM680.32 343.797H684.5V341.336H686.668V343.797H690.731V345.535H680.32V343.797ZM681.141 350.848C681.134 350.047 681.323 349.331 681.707 348.699C682.091 348.061 682.622 347.566 683.299 347.215C683.976 346.863 684.741 346.688 685.594 346.688C686.434 346.688 687.189 346.863 687.859 347.215C688.53 347.566 689.057 348.061 689.441 348.699C689.832 349.331 690.027 350.047 690.027 350.848C690.027 351.648 689.832 352.365 689.441 352.996C689.057 353.621 688.53 354.109 687.859 354.461C687.189 354.812 686.434 354.988 685.594 354.988C684.741 354.988 683.976 354.812 683.299 354.461C682.622 354.109 682.091 353.621 681.707 352.996C681.323 352.365 681.134 351.648 681.141 350.848ZM683.211 350.848C683.211 351.316 683.312 351.73 683.514 352.088C683.716 352.439 683.995 352.713 684.354 352.908C684.718 353.097 685.132 353.191 685.594 353.191C686.043 353.191 686.447 353.097 686.805 352.908C687.163 352.719 687.443 352.446 687.645 352.088C687.846 351.73 687.951 351.316 687.957 350.848C687.951 350.379 687.843 349.965 687.635 349.607C687.433 349.243 687.153 348.963 686.795 348.768C686.443 348.566 686.043 348.465 685.594 348.465C685.132 348.465 684.718 348.566 684.354 348.768C683.995 348.963 683.716 349.243 683.514 349.607C683.312 349.965 683.211 350.379 683.211 350.848ZM713.986 356.609H697.853V354.832H704.826V350.77H706.994V354.832H713.986V356.609ZM698.556 349.793C699.709 349.604 700.754 349.236 701.691 348.689C702.629 348.136 703.368 347.475 703.908 346.707C704.448 345.932 704.728 345.125 704.748 344.285H699.201V342.508H712.599V344.285H707.033C707.052 345.125 707.336 345.926 707.882 346.688C708.429 347.449 709.178 348.097 710.129 348.631C711.086 349.158 712.157 349.513 713.341 349.695L712.482 351.414C710.985 351.147 709.657 350.636 708.498 349.881C707.339 349.119 706.476 348.188 705.91 347.088C705.343 348.201 704.487 349.148 703.341 349.93C702.196 350.704 700.887 351.232 699.416 351.512L698.556 349.793ZM729.214 345.438H731.675V347.234H729.214V351.395H727.046V341.082H729.214V345.438ZM715.308 342.723H719.468V340.945H721.636V342.723H725.777V344.461H715.308V342.723ZM716.206 348.172C716.206 347.553 716.389 347.01 716.753 346.541C717.118 346.072 717.626 345.711 718.277 345.457C718.934 345.197 719.689 345.066 720.542 345.066C721.382 345.066 722.128 345.197 722.779 345.457C723.436 345.711 723.947 346.072 724.312 346.541C724.676 347.01 724.859 347.553 724.859 348.172C724.859 348.79 724.676 349.334 724.312 349.803C723.947 350.271 723.436 350.636 722.779 350.896C722.128 351.15 721.382 351.277 720.542 351.277C719.689 351.277 718.934 351.15 718.277 350.896C717.626 350.643 717.118 350.281 716.753 349.812C716.389 349.337 716.206 348.79 716.206 348.172ZM717.808 352.098H719.956V353.621H727.046V352.098H729.214V358.523H717.808V352.098ZM718.316 348.172C718.309 348.641 718.508 349.008 718.911 349.275C719.322 349.542 719.865 349.676 720.542 349.676C721.219 349.676 721.763 349.542 722.173 349.275C722.583 349.008 722.788 348.641 722.788 348.172C722.788 347.71 722.583 347.345 722.173 347.078C721.763 346.805 721.219 346.668 720.542 346.668C719.865 346.668 719.322 346.805 718.911 347.078C718.508 347.345 718.309 347.71 718.316 348.172ZM727.046 356.805V355.301H719.956V356.805H727.046Z" fill="white"/>
<rect x="561" y="608" width="534" height="224" rx="6.66667" fill="white"/>
<rect x="561.333" y="608.333" width="533.333" height="223.333" rx="6.33333" stroke="#4C4E64" stroke-opacity="0.22" stroke-width="0.666667"/>
<g clip-path="url(#clip2_3218_16093)">
<path d="M795.34 742.128C797.247 746.139 801.332 748.913 806.071 748.913C811.751 748.913 816.507 744.919 817.669 739.591H789.3C789.177 738.764 789.112 737.913 789.112 737.045C789.112 727.682 796.707 720.086 806.071 720.086C813.667 720.086 820.092 725.079 822.253 731.954H816.801C814.894 727.944 810.81 725.169 806.071 725.169C800.39 725.169 795.635 729.163 794.473 734.5H822.842C822.965 735.326 823.03 736.178 823.03 737.045C823.03 746.409 815.434 754.005 806.071 754.005C798.475 754.005 792.05 749.012 789.889 742.136H795.34V742.128Z" fill="#595B56"/>
<path d="M867.073 739.591V754.005H861.982V737.045C861.982 727.682 869.578 720.086 878.942 720.086H895.901V725.177H878.942C873.261 725.177 868.506 729.171 867.344 734.508H895.901V739.599H867.073V739.591Z" fill="#595B56"/>
<path d="M903.513 739.591V754.005H898.422V737.045C898.422 727.682 906.018 720.086 915.381 720.086H932.34V725.177H915.381C909.701 725.177 904.945 729.171 903.783 734.508H932.34V739.599H903.513V739.591Z" fill="#595B56"/>
<path d="M967.372 743.831C964.753 749.822 958.778 754.005 951.821 754.005C942.457 754.005 934.862 746.409 934.862 737.045C934.862 727.682 942.457 720.086 951.821 720.086C958.778 720.086 964.753 724.268 967.372 730.26H961.569C959.425 727.182 955.856 725.169 951.829 725.169C945.273 725.169 939.961 730.481 939.961 737.037C939.961 743.593 945.273 748.905 951.829 748.905C955.864 748.905 959.425 746.892 961.569 743.814H967.372V743.831Z" fill="#595B56"/>
<path d="M842.51 720.086C833.147 720.086 825.551 727.682 825.551 737.045V754.005H830.642V739.591H854.387V754.005H859.478V737.045C859.478 727.682 851.882 720.086 842.518 720.086H842.51ZM830.912 734.5C832.074 729.163 836.83 725.169 842.51 725.169C848.191 725.169 852.946 729.163 854.108 734.5H830.912Z" fill="#595B56"/>
<path d="M731.563 737.086C731.563 740.687 727.356 743.609 722.167 743.609C716.977 743.609 712.77 740.687 712.77 737.086C712.77 733.485 716.977 730.562 722.167 730.562C727.356 730.562 731.563 733.476 731.563 737.086Z" fill="#BD1339"/>
<path d="M729.836 729.793C729.836 729.793 744.111 728.901 744.749 737.536C744.749 737.536 744.725 754.103 709.807 757.008L729.271 772.871C729.271 772.871 761.757 758.94 754.154 738.322C754.154 738.322 750.233 728.115 729.828 729.801" fill="#00549C"/>
<path d="M714.579 744.886C714.579 744.886 695.369 745.279 698.463 734.573C698.463 734.573 700.395 719.873 728.502 717.688C728.502 717.688 747.974 714.979 764.859 721.551L789.103 697.053C789.103 697.053 754.039 685.963 715.357 699.885C715.357 699.894 689.697 707.497 688.019 727.608C688.019 727.608 685.703 746.18 714.579 744.886Z" fill="#35959A"/>
</g>
<rect x="561" y="608" width="199" height="40" fill="#2350A1"/>
<path d="M603.248 636.719H601.041V632.676H597.291V631.035H601.041V619.102H603.248V636.719ZM588.268 628.164C590.683 628.158 592.793 628.125 594.596 628.066C596.406 628.001 598.151 627.852 599.831 627.617L599.967 629.219C598.457 629.473 596.816 629.658 595.045 629.775V636.191H592.858V629.883C591.829 629.922 590.39 629.941 588.541 629.941L588.268 628.164ZM589.538 623.438C589.538 622.747 589.73 622.132 590.114 621.592C590.498 621.045 591.035 620.622 591.725 620.322C592.415 620.016 593.196 619.863 594.069 619.863C594.928 619.863 595.696 620.016 596.373 620.322C597.057 620.622 597.591 621.045 597.975 621.592C598.366 622.132 598.561 622.747 598.561 623.438C598.561 624.141 598.369 624.762 597.985 625.303C597.601 625.837 597.067 626.253 596.383 626.553C595.7 626.846 594.928 626.992 594.069 626.992C593.19 626.992 592.405 626.846 591.715 626.553C591.032 626.253 590.498 625.837 590.114 625.303C589.73 624.762 589.538 624.141 589.538 623.438ZM591.588 623.438C591.588 623.828 591.689 624.167 591.891 624.453C592.099 624.733 592.389 624.951 592.76 625.107C593.138 625.257 593.574 625.332 594.069 625.332C594.538 625.332 594.954 625.257 595.319 625.107C595.69 624.951 595.976 624.73 596.178 624.443C596.387 624.157 596.491 623.822 596.491 623.438C596.491 623.06 596.387 622.728 596.178 622.441C595.976 622.148 595.69 621.924 595.319 621.768C594.954 621.605 594.538 621.523 594.069 621.523C593.581 621.523 593.148 621.605 592.77 621.768C592.392 621.924 592.099 622.148 591.891 622.441C591.689 622.728 591.588 623.06 591.588 623.438ZM620.117 629.102H607.734V620.625H619.981V622.383H609.883V627.363H620.117V629.102ZM605.781 632.695H621.914V634.492H605.781V632.695ZM632.201 632.363H623.841V620.801H632.201V632.363ZM630.033 630.625V622.5H625.97V630.625H630.033ZM634.877 619.082H637.045V625.859H639.759V627.695H637.045V636.738H634.877V619.082ZM654.968 622.832C654.968 623.965 654.955 624.922 654.929 625.703C654.903 626.478 654.831 627.357 654.714 628.34C654.603 629.323 654.428 630.397 654.187 631.562L652.019 631.367C652.338 630.013 652.562 628.63 652.693 627.217L642.292 627.754L641.999 625.996L652.79 625.586C652.823 624.798 652.839 623.88 652.839 622.832V622.48H642.527V620.723H654.968V622.832ZM640.652 632.715H656.745V634.492H640.652V632.715ZM673.139 622.363H669.448C669.474 623.027 669.65 623.662 669.975 624.268C670.301 624.867 670.773 625.4 671.391 625.869C672.016 626.338 672.762 626.699 673.627 626.953L672.592 628.652C671.603 628.359 670.75 627.92 670.034 627.334C669.317 626.748 668.761 626.055 668.364 625.254C667.967 626.133 667.4 626.891 666.665 627.529C665.935 628.167 665.06 628.646 664.038 628.965L662.924 627.266C663.816 626.999 664.581 626.618 665.219 626.123C665.857 625.628 666.345 625.059 666.684 624.414C667.023 623.763 667.208 623.079 667.241 622.363H663.53V620.586H673.139V622.363ZM662.768 631.484C664.689 631.484 666.186 631.471 667.26 631.445V628.223H669.428V631.367C671.004 631.296 672.423 631.172 673.686 630.996L673.842 632.559C672.729 632.767 671.567 632.923 670.356 633.027C669.151 633.132 668.032 633.197 666.997 633.223C665.961 633.242 664.744 633.255 663.344 633.262H663.061L662.768 631.484ZM674.702 619.082H676.87V626.172H679.428V627.988H676.87V636.738H674.702V619.082ZM696.531 630.82H689.5V636.738H687.352V630.82H680.398V629.023H696.531V630.82ZM682.098 623.672C682.098 622.878 682.361 622.181 682.889 621.582C683.416 620.983 684.158 620.521 685.115 620.195C686.072 619.87 687.176 619.707 688.426 619.707C689.676 619.707 690.779 619.87 691.736 620.195C692.7 620.521 693.449 620.983 693.982 621.582C694.523 622.181 694.793 622.878 694.793 623.672C694.793 624.46 694.523 625.15 693.982 625.742C693.449 626.328 692.7 626.781 691.736 627.1C690.773 627.419 689.669 627.578 688.426 627.578C687.182 627.578 686.079 627.419 685.115 627.1C684.158 626.781 683.416 626.328 682.889 625.742C682.361 625.15 682.098 624.46 682.098 623.672ZM684.324 623.672C684.324 624.128 684.49 624.521 684.822 624.854C685.161 625.179 685.639 625.43 686.258 625.605C686.876 625.775 687.599 625.859 688.426 625.859C689.259 625.859 689.985 625.775 690.604 625.605C691.222 625.43 691.701 625.179 692.039 624.854C692.378 624.521 692.547 624.128 692.547 623.672C692.547 623.216 692.378 622.822 692.039 622.49C691.701 622.158 691.222 621.904 690.604 621.729C689.985 621.553 689.259 621.465 688.426 621.465C687.599 621.465 686.876 621.553 686.258 621.729C685.639 621.904 685.161 622.158 684.822 622.49C684.49 622.822 684.324 623.216 684.324 623.672ZM713.986 634.609H697.853V632.832H704.826V628.77H706.994V632.832H713.986V634.609ZM698.556 627.793C699.709 627.604 700.754 627.236 701.691 626.689C702.629 626.136 703.368 625.475 703.908 624.707C704.448 623.932 704.728 623.125 704.748 622.285H699.201V620.508H712.599V622.285H707.033C707.052 623.125 707.336 623.926 707.882 624.688C708.429 625.449 709.178 626.097 710.129 626.631C711.086 627.158 712.157 627.513 713.341 627.695L712.482 629.414C710.985 629.147 709.657 628.636 708.498 627.881C707.339 627.119 706.476 626.188 705.91 625.088C705.343 626.201 704.487 627.148 703.341 627.93C702.196 628.704 700.887 629.232 699.416 629.512L698.556 627.793ZM729.214 623.438H731.675V625.234H729.214V629.395H727.046V619.082H729.214V623.438ZM715.308 620.723H719.468V618.945H721.636V620.723H725.777V622.461H715.308V620.723ZM716.206 626.172C716.206 625.553 716.389 625.01 716.753 624.541C717.118 624.072 717.626 623.711 718.277 623.457C718.934 623.197 719.689 623.066 720.542 623.066C721.382 623.066 722.128 623.197 722.779 623.457C723.436 623.711 723.947 624.072 724.312 624.541C724.676 625.01 724.859 625.553 724.859 626.172C724.859 626.79 724.676 627.334 724.312 627.803C723.947 628.271 723.436 628.636 722.779 628.896C722.128 629.15 721.382 629.277 720.542 629.277C719.689 629.277 718.934 629.15 718.277 628.896C717.626 628.643 717.118 628.281 716.753 627.812C716.389 627.337 716.206 626.79 716.206 626.172ZM717.808 630.098H719.956V631.621H727.046V630.098H729.214V636.523H717.808V630.098ZM718.316 626.172C718.309 626.641 718.508 627.008 718.911 627.275C719.322 627.542 719.865 627.676 720.542 627.676C721.219 627.676 721.763 627.542 722.173 627.275C722.583 627.008 722.788 626.641 722.788 626.172C722.788 625.71 722.583 625.345 722.173 625.078C721.763 624.805 721.219 624.668 720.542 624.668C719.865 624.668 719.322 624.805 718.911 625.078C718.508 625.345 718.309 625.71 718.316 626.172ZM727.046 634.805V633.301H719.956V634.805H727.046Z" fill="white"/>
<rect x="561" y="858" width="534" height="250" rx="6.66667" fill="white"/>
<rect x="561.333" y="858.333" width="533.333" height="249.333" rx="6.33333" stroke="#4C4E64" stroke-opacity="0.22" stroke-width="0.666667"/>
<path d="M761.615 1020.38C763.341 1024.01 767.033 1026.52 771.318 1026.52C776.461 1026.52 780.758 1022.91 781.81 1018.08H756.153C756.038 1017.33 755.981 1016.56 755.981 1015.77C755.981 1007.29 762.85 1000.43 771.33 1000.43C778.198 1000.43 784.015 1004.94 785.97 1011.17H781.033C779.307 1007.53 775.615 1005.03 771.33 1005.03C766.187 1005.03 761.89 1008.64 760.838 1013.48H786.507C786.621 1014.23 786.678 1015 786.678 1015.77C786.678 1024.25 779.81 1031.12 771.33 1031.12C764.461 1031.12 758.644 1026.61 756.69 1020.38H761.627H761.615Z" fill="#595B56"/>
<path d="M826.53 1018.08V1031.12H821.924V1015.77C821.924 1007.29 828.793 1000.43 837.273 1000.43H852.621V1005.03H837.273C832.13 1005.03 827.833 1008.64 826.781 1013.47H852.621V1018.07H826.53V1018.08Z" fill="#595B56"/>
<path d="M859.49 1018.08V1031.12H854.884V1015.77C854.884 1007.29 861.753 1000.43 870.233 1000.43H885.581V1005.03H870.233C865.09 1005.03 860.793 1008.64 859.741 1013.47H885.581V1018.07H859.49V1018.08Z" fill="#595B56"/>
<path d="M917.272 1021.92C914.907 1027.34 909.501 1031.13 903.204 1031.13C894.724 1031.13 887.855 1024.27 887.855 1015.79C887.855 1007.31 894.724 1000.44 903.204 1000.44C909.501 1000.44 914.907 1004.22 917.272 1009.65H912.015C910.072 1006.87 906.85 1005.04 903.204 1005.04C897.272 1005.04 892.461 1009.85 892.461 1015.79C892.461 1021.72 897.272 1026.53 903.204 1026.53C906.85 1026.53 910.084 1024.71 912.015 1021.92H917.272Z" fill="#595B56"/>
<path d="M804.301 1000.44C795.821 1000.44 788.953 1007.31 788.953 1015.79V1031.13H793.558V1018.09H815.044V1031.13H819.65V1015.79C819.65 1007.31 812.781 1000.44 804.301 1000.44ZM793.798 1013.48C794.85 1008.65 799.147 1005.03 804.29 1005.03C809.433 1005.03 813.73 1008.64 814.781 1013.48H793.798Z" fill="#595B56"/>
<path d="M764.658 970.202L771.294 977.481L769.104 979.336L763.456 973.073C762.216 975.431 760.445 977.593 758.143 979.597L755.981 977.714C759.914 974.284 762.048 970.268 762.449 965.598V963.156H765.515V964.732C765.487 966.642 765.208 968.469 764.677 970.212L764.658 970.202ZM777.445 986.475H774.379V971.582H768.479V968.944H774.379V960.426H777.445V986.475Z" fill="#595B56"/>
<path d="M791.014 976.701V974.427H780.25V971.817H804.92V974.427H794.155V976.701H799.523V983.299H788.731V984.846H800.166V987.456H785.609V980.736H796.401V979.273H785.441V976.692H791.005L791.014 976.701ZM785.702 965.769C785.702 964.25 786.345 962.982 787.697 961.976C788.992 960.988 790.623 960.484 792.589 960.484C794.556 960.484 796.187 960.988 797.538 961.976C798.862 962.982 799.533 964.25 799.533 965.769C799.533 967.288 798.862 968.555 797.538 969.534C796.187 970.55 794.556 971.053 792.589 971.053C790.623 971.053 788.992 970.55 787.697 969.534C786.345 968.555 785.702 967.288 785.702 965.769ZM788.824 965.769C788.824 966.524 789.16 967.148 789.868 967.623C790.539 968.127 791.443 968.378 792.589 968.378C793.736 968.378 794.668 968.127 795.367 967.623C796.038 967.148 796.411 966.524 796.411 965.769C796.411 965.014 796.047 964.389 795.367 963.886C794.668 963.411 793.736 963.159 792.589 963.159C791.443 963.159 790.539 963.411 789.868 963.886C789.169 964.389 788.824 965.042 788.824 965.769Z" fill="#595B56"/>
<path d="M814.23 970.202L820.978 977.173L818.787 979.028L813.056 973.017C811.816 975.375 810.045 977.565 807.715 979.597L805.553 977.714C809.486 974.284 811.62 970.268 812.021 965.598V963.156H815.087V964.732C815.059 966.642 814.78 968.469 814.249 970.212L814.23 970.202ZM826.616 986.475H823.55V960.426H826.616V986.475Z" fill="#595B56"/>
<path d="M848.993 970.576H843.485V973.269H854.11V975.935H829.44V973.269H840.372V970.576H834.78V961.219H837.931V967.938H849.002V970.576H848.993ZM834.883 982.403C834.883 980.828 835.526 979.504 836.849 978.498C838.145 977.482 839.804 976.979 841.77 976.979C843.737 976.979 845.396 977.482 846.747 978.498C848.043 979.504 848.714 980.828 848.714 982.403C848.714 983.978 848.043 985.301 846.747 986.308C845.396 987.314 843.737 987.827 841.77 987.827C839.804 987.827 838.145 987.324 836.849 986.308C835.526 985.292 834.883 984.006 834.883 982.403ZM838.005 982.403C838.005 983.241 838.341 983.894 839.021 984.397C839.692 984.9 840.596 985.152 841.78 985.152C842.963 985.152 843.886 984.9 844.585 984.397C845.256 983.894 845.601 983.241 845.601 982.403C845.601 981.564 845.265 980.912 844.585 980.408C843.886 979.905 842.954 979.653 841.78 979.653C840.605 979.653 839.701 979.905 839.021 980.408C838.341 980.912 838.005 981.592 838.005 982.403Z" fill="#595B56"/>
<path d="M879.394 978.081H868.602V987.047H865.452V978.081H854.715V975.415H879.385V978.081H879.394ZM868.686 962.843C868.63 963.626 868.49 964.362 868.266 965.061L876.244 971.1L874.334 973.207L866.999 967.671C865.536 969.861 863.122 971.855 859.804 973.598L857.837 971.492C862.898 968.621 865.452 965.704 865.564 962.722V961.398H868.686V962.834V962.843Z" fill="#595B56"/>
<path d="M888.751 968.236L895.07 974.443L892.908 976.297L887.54 970.873C886.356 972.924 884.613 974.862 882.367 976.689L880.233 974.834C884.166 971.544 886.216 968.003 886.44 964.21V962.131H889.478V963.678C889.478 965.253 889.254 966.773 888.751 968.226V968.236ZM900.755 987.183H886.281V977.854H889.348V984.545H900.755V987.183ZM904.772 970.202H900.448V979.699H897.381V960.426H900.448V967.425H904.772V970.202Z" fill="#595B56"/>
<path d="M914.297 967.537L920.737 973.213L918.687 975.039L913.179 970.062C911.995 972.113 910.224 974.051 907.866 975.878L905.704 974.079C909.637 970.929 911.687 967.527 911.911 963.874V961.852H914.949V963.371C914.949 964.806 914.754 966.176 914.306 967.527L914.297 967.537ZM926.301 987.742H923.235V980.1H911.436V977.462H926.301V987.751V987.742ZM923.486 976.67V960.426H926.553V976.67H923.486Z" fill="#595B56"/>
<path d="M940.122 978.104V975.691H929.357V973.025H954.027V975.691H943.263V978.104H948.659V987.322H934.66V978.104H940.112H940.122ZM949.731 971.748H933.598V969.111H936.58V968.179C936.58 967.452 936.524 966.855 936.44 966.464C936.329 966.1 936.189 965.681 935.965 965.196L938.724 964.348C939.143 964.907 939.423 965.504 939.535 966.119C939.619 966.762 939.674 967.442 939.674 968.141V969.092H943.663V964.059H933.831V961.422H949.507V964.059H946.72V969.092H949.731V971.73V971.748ZM945.574 984.703V980.714H937.792V984.703H945.574Z" fill="#595B56"/>
<path d="M954.652 973.102H963.925V967.706H967.103V973.102H979.33V975.767H954.661V973.102H954.652ZM974.186 961.555C974.186 963.717 974.102 965.599 973.962 967.23C973.795 968.889 973.599 970.353 973.319 971.639H970.281C970.477 970.176 970.644 968.768 970.812 967.37C970.952 966.019 971.036 964.956 971.036 964.192H959.377V961.555H974.186ZM960.132 982.319C960.132 980.856 960.747 979.57 962.042 978.442C963.282 977.342 964.941 976.783 967.019 976.783C969.097 976.783 970.756 977.342 972.052 978.442C973.319 979.57 973.962 980.856 973.962 982.319C973.962 983.782 973.319 985.106 972.052 986.196C970.756 987.324 969.069 987.855 967.019 987.855C964.969 987.855 963.31 987.324 962.042 986.196C960.747 985.097 960.132 983.81 960.132 982.319ZM963.254 982.319C963.254 983.074 963.589 983.754 964.27 984.314C964.913 984.929 965.845 985.208 967.028 985.208C968.212 985.208 969.163 984.929 969.834 984.314C970.505 983.754 970.849 983.074 970.849 982.319C970.849 981.564 970.514 980.912 969.834 980.297C969.163 979.738 968.203 979.421 967.028 979.421C965.854 979.421 964.922 979.728 964.27 980.297C963.599 980.912 963.254 981.592 963.254 982.319Z" fill="#595B56"/>
<path d="M988.632 970.202L995.268 977.481L993.077 979.336L987.43 973.073C986.19 975.431 984.419 977.593 982.117 979.597L979.955 977.714C983.888 974.284 986.022 970.268 986.414 965.598V963.156H989.48V964.732C989.452 966.642 989.172 968.469 988.641 970.212L988.632 970.202ZM1004.81 972.849H1000.37V986.475H997.309V960.426H1000.37V970.062H1004.81V972.849Z" fill="#595B56"/>
<line x1="756.388" y1="994.136" x2="1004.39" y2="994.136" stroke="#595B56" stroke-width="1.14286"/>
<path d="M683.587 1001.21C683.587 1004.82 679.38 1007.74 674.191 1007.74C669.002 1007.74 664.795 1004.82 664.795 1001.21C664.795 997.613 669.002 994.691 674.191 994.691C679.38 994.691 683.587 997.605 683.587 1001.21Z" fill="#BD1339"/>
<path d="M681.86 993.926C681.86 993.926 696.134 993.034 696.773 1001.67C696.773 1001.67 696.748 1018.23 661.833 1021.14L681.296 1037C681.296 1037 713.78 1023.07 706.177 1002.45C706.177 1002.45 702.256 992.248 681.852 993.934" fill="#00549C"/>
<path d="M666.603 1009.02C666.603 1009.02 647.394 1009.41 650.488 998.703C650.488 998.703 652.419 984.004 680.525 981.819C680.525 981.819 699.996 979.11 716.881 985.682L741.124 961.186C741.124 961.186 706.061 950.096 667.381 964.018C667.381 964.026 641.722 971.629 640.044 991.738C640.044 991.738 637.728 1010.31 666.603 1009.02Z" fill="#35959A"/>
<rect x="561" y="858" width="199" height="40" fill="#2350A1"/>
<path d="M595.026 873.32C595.019 874.408 595.198 875.465 595.563 876.494C595.928 877.523 596.455 878.438 597.145 879.238C597.835 880.039 598.646 880.638 599.577 881.035L598.288 882.773C597.291 882.311 596.422 881.641 595.68 880.762C594.944 879.876 594.368 878.844 593.952 877.666C593.535 878.936 592.946 880.049 592.184 881.006C591.429 881.963 590.527 882.689 589.479 883.184L588.151 881.367C589.108 880.957 589.938 880.339 590.641 879.512C591.344 878.678 591.881 877.725 592.252 876.65C592.623 875.576 592.812 874.466 592.819 873.32V870.508H595.026V873.32ZM600.846 869.082H603.034V886.758H600.846V869.082ZM619.824 872.793C619.824 873.848 619.811 874.753 619.785 875.508C619.766 876.263 619.71 877.129 619.619 878.105C619.528 879.082 619.382 880.15 619.18 881.309L616.973 881.113C617.188 880.039 617.344 879.023 617.441 878.066C617.539 877.103 617.598 876.243 617.617 875.488C617.643 874.733 617.656 873.835 617.656 872.793V872.559H607.481V870.801H619.824V872.793ZM605.781 882.539H621.875V884.316H605.781V882.539ZM637.943 886.738H635.795V869.082H637.943V886.738ZM624.232 870.801H626.381V880.449C629.16 880.404 631.771 880.137 634.213 879.648L634.486 881.465C631.739 882.038 628.828 882.318 625.756 882.305H624.232V870.801ZM655.456 886.758H653.288V877.734H649.87V875.977H653.288V869.082H655.456V886.758ZM640.613 881.719C641.504 881.315 642.276 880.739 642.927 879.99C643.578 879.242 644.073 878.405 644.411 877.48C644.756 876.556 644.929 875.625 644.929 874.688V873.77H641.14V872.031H644.948V869.453H647.116V872.031H650.808V873.77H647.097V874.688C647.09 875.586 647.26 876.478 647.605 877.363C647.956 878.249 648.461 879.049 649.118 879.766C649.782 880.482 650.567 881.042 651.472 881.445L650.3 883.105C649.317 882.689 648.461 882.067 647.732 881.24C647.003 880.407 646.436 879.45 646.032 878.369C645.635 879.521 645.072 880.537 644.343 881.416C643.62 882.295 642.768 882.956 641.784 883.398L640.613 881.719ZM673.139 872.363H669.448C669.474 873.027 669.65 873.662 669.975 874.268C670.301 874.867 670.773 875.4 671.391 875.869C672.016 876.338 672.762 876.699 673.627 876.953L672.592 878.652C671.603 878.359 670.75 877.92 670.034 877.334C669.317 876.748 668.761 876.055 668.364 875.254C667.967 876.133 667.4 876.891 666.665 877.529C665.935 878.167 665.06 878.646 664.038 878.965L662.924 877.266C663.816 876.999 664.581 876.618 665.219 876.123C665.857 875.628 666.345 875.059 666.684 874.414C667.023 873.763 667.208 873.079 667.241 872.363H663.53V870.586H673.139V872.363ZM662.768 881.484C664.689 881.484 666.186 881.471 667.26 881.445V878.223H669.428V881.367C671.004 881.296 672.423 881.172 673.686 880.996L673.842 882.559C672.729 882.767 671.567 882.923 670.356 883.027C669.151 883.132 668.032 883.197 666.997 883.223C665.961 883.242 664.744 883.255 663.344 883.262H663.061L662.768 881.484ZM674.702 869.082H676.87V876.172H679.428V877.988H676.87V886.738H674.702V869.082ZM696.531 880.82H689.5V886.738H687.352V880.82H680.398V879.023H696.531V880.82ZM682.098 873.672C682.098 872.878 682.361 872.181 682.889 871.582C683.416 870.983 684.158 870.521 685.115 870.195C686.072 869.87 687.176 869.707 688.426 869.707C689.676 869.707 690.779 869.87 691.736 870.195C692.7 870.521 693.449 870.983 693.982 871.582C694.523 872.181 694.793 872.878 694.793 873.672C694.793 874.46 694.523 875.15 693.982 875.742C693.449 876.328 692.7 876.781 691.736 877.1C690.773 877.419 689.669 877.578 688.426 877.578C687.182 877.578 686.079 877.419 685.115 877.1C684.158 876.781 683.416 876.328 682.889 875.742C682.361 875.15 682.098 874.46 682.098 873.672ZM684.324 873.672C684.324 874.128 684.49 874.521 684.822 874.854C685.161 875.179 685.639 875.43 686.258 875.605C686.876 875.775 687.599 875.859 688.426 875.859C689.259 875.859 689.985 875.775 690.604 875.605C691.222 875.43 691.701 875.179 692.039 874.854C692.378 874.521 692.547 874.128 692.547 873.672C692.547 873.216 692.378 872.822 692.039 872.49C691.701 872.158 691.222 871.904 690.604 871.729C689.985 871.553 689.259 871.465 688.426 871.465C687.599 871.465 686.876 871.553 686.258 871.729C685.639 871.904 685.161 872.158 684.822 872.49C684.49 872.822 684.324 873.216 684.324 873.672ZM713.986 884.609H697.853V882.832H704.826V878.77H706.994V882.832H713.986V884.609ZM698.556 877.793C699.709 877.604 700.754 877.236 701.691 876.689C702.629 876.136 703.368 875.475 703.908 874.707C704.448 873.932 704.728 873.125 704.748 872.285H699.201V870.508H712.599V872.285H707.033C707.052 873.125 707.336 873.926 707.882 874.688C708.429 875.449 709.178 876.097 710.129 876.631C711.086 877.158 712.157 877.513 713.341 877.695L712.482 879.414C710.985 879.147 709.657 878.636 708.498 877.881C707.339 877.119 706.476 876.188 705.91 875.088C705.343 876.201 704.487 877.148 703.341 877.93C702.196 878.704 700.887 879.232 699.416 879.512L698.556 877.793ZM729.214 873.438H731.675V875.234H729.214V879.395H727.046V869.082H729.214V873.438ZM715.308 870.723H719.468V868.945H721.636V870.723H725.777V872.461H715.308V870.723ZM716.206 876.172C716.206 875.553 716.389 875.01 716.753 874.541C717.118 874.072 717.626 873.711 718.277 873.457C718.934 873.197 719.689 873.066 720.542 873.066C721.382 873.066 722.128 873.197 722.779 873.457C723.436 873.711 723.947 874.072 724.312 874.541C724.676 875.01 724.859 875.553 724.859 876.172C724.859 876.79 724.676 877.334 724.312 877.803C723.947 878.271 723.436 878.636 722.779 878.896C722.128 879.15 721.382 879.277 720.542 879.277C719.689 879.277 718.934 879.15 718.277 878.896C717.626 878.643 717.118 878.281 716.753 877.812C716.389 877.337 716.206 876.79 716.206 876.172ZM717.808 880.098H719.956V881.621H727.046V880.098H729.214V886.523H717.808V880.098ZM718.316 876.172C718.309 876.641 718.508 877.008 718.911 877.275C719.322 877.542 719.865 877.676 720.542 877.676C721.219 877.676 721.763 877.542 722.173 877.275C722.583 877.008 722.788 876.641 722.788 876.172C722.788 875.71 722.583 875.345 722.173 875.078C721.763 874.805 721.219 874.668 720.542 874.668C719.865 874.668 719.322 874.805 718.911 875.078C718.508 875.345 718.309 875.71 718.316 876.172ZM727.046 884.805V883.301H719.956V884.805H727.046Z" fill="white"/>
<rect y="330" width="534" height="779" rx="6.66667" fill="white"/>
<rect x="0.333333" y="330.333" width="533.333" height="778.333" rx="6.33333" stroke="#4C4E64" stroke-opacity="0.22" stroke-width="0.666667"/>
<rect y="330" width="199" height="40" fill="#2350A1"/>
<path d="M34.0258 345.32C34.0193 346.408 34.1984 347.465 34.5629 348.494C34.9275 349.523 35.4549 350.438 36.145 351.238C36.8351 352.039 37.6456 352.638 38.5766 353.035L37.2876 354.773C36.2915 354.311 35.4223 353.641 34.6801 352.762C33.9445 351.876 33.3683 350.844 32.9516 349.666C32.5349 350.936 31.9458 352.049 31.184 353.006C30.4288 353.963 29.5271 354.689 28.479 355.184L27.1508 353.367C28.1079 352.957 28.9379 352.339 29.6411 351.512C30.3442 350.678 30.8813 349.725 31.2524 348.65C31.6235 347.576 31.8123 346.466 31.8188 345.32V342.508H34.0258V345.32ZM39.8461 341.082H42.0336V358.758H39.8461V341.082ZM58.8243 344.793C58.8243 345.848 58.8112 346.753 58.7852 347.508C58.7657 348.263 58.7103 349.129 58.6192 350.105C58.528 351.082 58.3816 352.15 58.1797 353.309L55.9727 353.113C56.1876 352.039 56.3438 351.023 56.4415 350.066C56.5391 349.103 56.5977 348.243 56.6172 347.488C56.6433 346.733 56.6563 345.835 56.6563 344.793V344.559H46.4805V342.801H58.8243V344.793ZM44.7813 354.539H60.8751V356.316H44.7813V354.539ZM76.943 358.738H74.7946V341.082H76.943V358.738ZM63.2321 342.801H65.3805V352.449C68.1605 352.404 70.7711 352.137 73.2126 351.648L73.486 353.465C70.7386 354.038 67.8284 354.318 64.7555 354.305H63.2321V342.801ZM94.4563 358.758H92.2883V349.734H88.8704V347.977H92.2883V341.082H94.4563V358.758ZM79.6126 353.719C80.5045 353.315 81.276 352.739 81.927 351.99C82.578 351.242 83.0728 350.405 83.4114 349.48C83.7564 348.556 83.929 347.625 83.929 346.688V345.77H80.1399V344.031H83.9485V341.453H86.1165V344.031H89.8079V345.77H86.0969V346.688C86.0904 347.586 86.2597 348.478 86.6047 349.363C86.9563 350.249 87.4609 351.049 88.1184 351.766C88.7825 352.482 89.567 353.042 90.4719 353.445L89.3001 355.105C88.317 354.689 87.4609 354.067 86.7317 353.24C86.0025 352.407 85.4361 351.45 85.0325 350.369C84.6353 351.521 84.0722 352.537 83.343 353.416C82.6204 354.295 81.7675 354.956 80.7844 355.398L79.6126 353.719ZM108.233 343.895C108.233 344.643 108.392 345.359 108.711 346.043C109.03 346.727 109.502 347.332 110.127 347.859C110.752 348.387 111.508 348.79 112.393 349.07L111.221 350.77C110.284 350.451 109.473 349.985 108.79 349.373C108.112 348.761 107.575 348.035 107.178 347.195C106.788 348.152 106.234 348.982 105.518 349.686C104.808 350.382 103.956 350.906 102.959 351.258L101.788 349.559C102.712 349.24 103.493 348.784 104.131 348.191C104.769 347.592 105.248 346.909 105.567 346.141C105.892 345.366 106.058 344.552 106.065 343.699V342.02H108.233V343.895ZM104.19 355.359C104.19 354.669 104.431 354.074 104.913 353.572C105.394 353.071 106.084 352.69 106.983 352.43C107.881 352.169 108.942 352.039 110.166 352.039C111.377 352.039 112.426 352.169 113.311 352.43C114.203 352.69 114.887 353.071 115.362 353.572C115.844 354.074 116.084 354.669 116.084 355.359C116.084 356.062 115.844 356.665 115.362 357.166C114.887 357.674 114.206 358.058 113.321 358.318C112.435 358.585 111.384 358.719 110.166 358.719C108.942 358.719 107.881 358.585 106.983 358.318C106.084 358.058 105.394 357.674 104.913 357.166C104.431 356.665 104.19 356.062 104.19 355.359ZM106.358 355.359C106.358 355.9 106.687 356.31 107.344 356.59C108.002 356.863 108.942 357 110.166 357C111.384 357 112.315 356.863 112.959 356.59C113.61 356.31 113.936 355.9 113.936 355.359C113.936 354.839 113.607 354.438 112.95 354.158C112.299 353.878 111.371 353.738 110.166 353.738C108.956 353.738 108.018 353.882 107.354 354.168C106.69 354.448 106.358 354.845 106.358 355.359ZM113.741 341.082H115.909V345.379H118.37V347.176H115.909V351.648H113.741V341.082ZM133.246 348.113H135.961V349.91H133.246V358.738H131.098V341.082H133.246V348.113ZM119.32 343.797H123.5V341.336H125.668V343.797H129.731V345.535H119.32V343.797ZM120.141 350.848C120.134 350.047 120.323 349.331 120.707 348.699C121.091 348.061 121.622 347.566 122.299 347.215C122.976 346.863 123.741 346.688 124.594 346.688C125.434 346.688 126.189 346.863 126.859 347.215C127.53 347.566 128.057 348.061 128.441 348.699C128.832 349.331 129.027 350.047 129.027 350.848C129.027 351.648 128.832 352.365 128.441 352.996C128.057 353.621 127.53 354.109 126.859 354.461C126.189 354.812 125.434 354.988 124.594 354.988C123.741 354.988 122.976 354.812 122.299 354.461C121.622 354.109 121.091 353.621 120.707 352.996C120.323 352.365 120.134 351.648 120.141 350.848ZM122.211 350.848C122.211 351.316 122.312 351.73 122.514 352.088C122.716 352.439 122.995 352.713 123.354 352.908C123.718 353.097 124.132 353.191 124.594 353.191C125.043 353.191 125.447 353.097 125.805 352.908C126.163 352.719 126.443 352.446 126.645 352.088C126.846 351.73 126.951 351.316 126.957 350.848C126.951 350.379 126.843 349.965 126.635 349.607C126.433 349.243 126.153 348.963 125.795 348.768C125.443 348.566 125.043 348.465 124.594 348.465C124.132 348.465 123.718 348.566 123.354 348.768C122.995 348.963 122.716 349.243 122.514 349.607C122.312 349.965 122.211 350.379 122.211 350.848ZM152.986 356.609H136.853V354.832H143.826V350.77H145.994V354.832H152.986V356.609ZM137.556 349.793C138.709 349.604 139.754 349.236 140.691 348.689C141.629 348.136 142.368 347.475 142.908 346.707C143.448 345.932 143.728 345.125 143.748 344.285H138.201V342.508H151.599V344.285H146.033C146.052 345.125 146.336 345.926 146.882 346.688C147.429 347.449 148.178 348.097 149.129 348.631C150.086 349.158 151.157 349.513 152.341 349.695L151.482 351.414C149.985 351.147 148.657 350.636 147.498 349.881C146.339 349.119 145.476 348.188 144.91 347.088C144.343 348.201 143.487 349.148 142.341 349.93C141.196 350.704 139.887 351.232 138.416 351.512L137.556 349.793ZM168.214 345.438H170.675V347.234H168.214V351.395H166.046V341.082H168.214V345.438ZM154.308 342.723H158.468V340.945H160.636V342.723H164.777V344.461H154.308V342.723ZM155.206 348.172C155.206 347.553 155.389 347.01 155.753 346.541C156.118 346.072 156.626 345.711 157.277 345.457C157.934 345.197 158.689 345.066 159.542 345.066C160.382 345.066 161.128 345.197 161.779 345.457C162.436 345.711 162.947 346.072 163.312 346.541C163.676 347.01 163.859 347.553 163.859 348.172C163.859 348.79 163.676 349.334 163.312 349.803C162.947 350.271 162.436 350.636 161.779 350.896C161.128 351.15 160.382 351.277 159.542 351.277C158.689 351.277 157.934 351.15 157.277 350.896C156.626 350.643 156.118 350.281 155.753 349.812C155.389 349.337 155.206 348.79 155.206 348.172ZM156.808 352.098H158.956V353.621H166.046V352.098H168.214V358.523H156.808V352.098ZM157.316 348.172C157.309 348.641 157.508 349.008 157.911 349.275C158.322 349.542 158.865 349.676 159.542 349.676C160.219 349.676 160.763 349.542 161.173 349.275C161.583 349.008 161.788 348.641 161.788 348.172C161.788 347.71 161.583 347.345 161.173 347.078C160.763 346.805 160.219 346.668 159.542 346.668C158.865 346.668 158.322 346.805 157.911 347.078C157.508 347.345 157.309 347.71 157.316 348.172ZM166.046 356.805V355.301H158.956V356.805H166.046Z" fill="white"/>
<g clip-path="url(#clip3_3218_16093)">
<path d="M123.218 643.276C123.218 646.127 119.889 648.438 115.787 648.438C111.685 648.438 108.356 646.127 108.356 643.276C108.356 640.424 111.685 638.113 115.787 638.113C119.889 638.113 123.218 640.424 123.218 643.276Z" fill="#BD1339"/>
<path d="M121.85 637.508C121.85 637.508 133.139 636.798 133.648 643.635C133.648 643.635 133.627 656.737 106.013 659.038L121.416 671.588C121.416 671.588 147.121 660.564 141.1 644.25C141.1 644.25 138.005 636.173 121.85 637.508Z" fill="#00549C"/>
<path d="M109.787 649.447C109.787 649.447 94.5863 649.754 97.035 641.285C97.035 641.285 98.5614 629.656 120.801 627.929C120.801 627.929 136.203 625.787 149.57 630.992L168.735 611.615C168.735 611.615 140.994 602.838 110.391 613.851C110.391 613.851 90.0918 619.862 88.7668 635.773C88.7668 635.773 86.9329 650.465 109.776 649.436" fill="#35959A"/>
<path d="M117.143 691.92L124.691 700.199L122.2 702.309L115.776 695.185C114.366 697.867 112.352 700.326 109.734 702.605L107.275 700.464C111.748 696.563 114.175 691.995 114.631 686.684V683.907H118.119V685.698C118.087 687.871 117.769 689.949 117.165 691.931L117.143 691.92ZM131.687 710.428H128.2V693.489H121.49V690.489H128.2V680.801H131.687V710.428Z" fill="#595B56"/>
<path d="M119.507 733.417V730.831H107.264V727.863H135.323V730.831H123.08V733.417H129.185V740.933H116.91V742.692H129.917V745.66H113.359V738.018H125.634V736.353H113.168V733.417H119.497H119.507ZM113.465 720.983C113.465 719.255 114.197 717.824 115.734 716.669C117.207 715.545 119.062 714.973 121.299 714.973C123.536 714.973 125.391 715.545 126.928 716.669C128.433 717.824 129.196 719.255 129.196 720.983C129.196 722.711 128.433 724.152 126.928 725.265C125.391 726.421 123.536 726.993 121.299 726.993C119.062 726.993 117.207 726.421 115.734 725.265C114.197 724.152 113.465 722.711 113.465 720.983ZM117.016 720.983C117.016 721.842 117.398 722.552 118.204 723.092C118.967 723.665 119.995 723.951 121.299 723.951C122.603 723.951 123.663 723.665 124.468 723.092C125.232 722.552 125.656 721.842 125.656 720.983C125.656 720.124 125.242 719.414 124.468 718.842C123.673 718.301 122.613 718.015 121.299 718.015C119.984 718.015 118.967 718.301 118.204 718.842C117.409 719.414 117.016 720.156 117.016 720.983Z" fill="#595B56"/>
<path d="M117.143 761.331L124.818 769.26L122.327 771.369L115.808 764.532C114.398 767.214 112.384 769.705 109.734 772.016L107.275 769.874C111.748 765.973 114.175 761.405 114.631 756.094V753.317H118.119V755.108C118.087 757.281 117.769 759.359 117.165 761.341L117.143 761.331ZM131.242 779.839H127.754V750.211H131.242V779.839Z" fill="#595B56"/>
<path d="M129.514 795.029H123.249V798.093H135.333V801.125H107.275V798.093H119.709V795.029H113.349V784.387H116.931V792.029H129.525V795.029H129.514ZM113.465 808.481C113.465 806.69 114.197 805.184 115.702 804.04C117.175 802.884 119.062 802.312 121.299 802.312C123.535 802.312 125.422 802.884 126.959 804.04C128.433 805.184 129.196 806.69 129.196 808.481C129.196 810.273 128.433 811.778 126.959 812.923C125.422 814.067 123.535 814.65 121.299 814.65C119.062 814.65 117.175 814.078 115.702 812.923C114.197 811.767 113.465 810.304 113.465 808.481ZM117.016 808.481C117.016 809.435 117.398 810.177 118.172 810.75C118.935 811.322 119.963 811.608 121.299 811.608C122.634 811.608 123.694 811.322 124.5 810.75C125.263 810.177 125.645 809.435 125.645 808.481C125.645 807.527 125.263 806.785 124.5 806.213C123.705 805.64 122.645 805.354 121.299 805.354C119.953 805.354 118.935 805.64 118.172 806.213C117.408 806.785 117.016 807.559 117.016 808.481Z" fill="#595B56"/>
<path d="M135.334 838.151H123.059V848.349H119.476V838.151H107.264V835.12H135.323V838.151H135.334ZM123.154 820.831C123.09 821.721 122.931 822.558 122.677 823.353L131.751 830.222L129.578 832.618L121.235 826.321C119.571 828.813 116.826 831.081 113.052 833.063L110.815 830.668C116.571 827.403 119.476 824.085 119.603 820.693V819.188H123.154V820.82V820.831Z" fill="#595B56"/>
<path d="M117.207 861.789L124.394 868.849L121.935 870.958L115.829 864.789C114.483 867.121 112.501 869.326 109.946 871.404L107.519 869.294C111.992 865.552 114.324 861.524 114.578 857.21V854.846H118.034V856.606C118.034 858.397 117.78 860.125 117.207 861.779V861.789ZM130.85 883.329H114.388V872.718H117.875V880.329H130.85V883.329ZM135.429 864.026H130.51V874.828H127.023V852.906H130.51V860.867H135.429V864.026Z" fill="#595B56"/>
<path d="M117.303 895.967L124.617 902.422L122.285 904.5L116.02 898.84C114.674 901.172 112.66 903.376 109.978 905.454L107.519 903.408C111.992 899.825 114.324 895.956 114.578 891.812V889.511H118.034V891.239C118.034 892.872 117.811 894.43 117.303 895.967ZM130.945 918.948H127.458V910.256H114.038V907.256H130.945V918.959V918.948ZM127.754 906.355V887.879H131.242V906.355H127.754Z" fill="#595B56"/>
<path d="M119.507 942.447V939.702H107.264V936.67H135.323V939.702H123.08V942.447H129.217V952.931H113.296V942.447H119.497H119.507ZM130.436 935.218H112.087V932.218H115.479V931.158C115.479 930.331 115.416 929.653 115.32 929.207C115.193 928.794 115.034 928.317 114.78 927.766L117.907 926.801C118.384 927.437 118.702 928.116 118.829 928.815C118.924 929.547 118.988 930.32 118.988 931.115V932.197H123.525V926.473H112.342V923.473H130.171V926.473H127.012V932.197H130.436V935.197V935.218ZM125.709 949.952V945.415H116.857V949.952H125.709Z" fill="#595B56"/>
<path d="M107.264 970.614H117.811V964.477H121.426V970.614H135.334V973.646H107.275V970.614H107.264ZM129.482 957.48C129.482 959.94 129.387 962.081 129.228 963.936C129.037 965.823 128.814 967.487 128.496 968.95H125.041C125.263 967.286 125.454 965.685 125.645 964.095C125.804 962.558 125.899 961.35 125.899 960.48H112.638V957.48H129.482ZM113.497 981.098C113.497 979.434 114.197 977.971 115.67 976.688C117.08 975.437 118.967 974.801 121.331 974.801C123.695 974.801 125.581 975.437 127.055 976.688C128.496 977.971 129.228 979.434 129.228 981.098C129.228 982.762 128.496 984.267 127.055 985.507C125.581 986.79 123.663 987.394 121.331 987.394C118.999 987.394 117.112 986.79 115.67 985.507C114.197 984.257 113.497 982.794 113.497 981.098ZM117.048 981.098C117.048 981.956 117.43 982.73 118.204 983.366C118.935 984.066 119.995 984.384 121.331 984.384C122.666 984.384 123.758 984.066 124.532 983.366C125.295 982.73 125.687 981.956 125.687 981.098C125.687 980.239 125.306 979.497 124.532 978.798C123.769 978.162 122.677 977.801 121.331 977.801C119.984 977.801 118.935 978.151 118.204 978.798C117.44 979.497 117.048 980.271 117.048 981.098Z" fill="#595B56"/>
<path d="M117.143 1003.06L124.691 1011.34L122.2 1013.45L115.776 1006.32C114.366 1009 112.352 1011.46 109.734 1013.74L107.275 1011.6C111.748 1007.7 114.175 1003.13 114.631 997.821V995.043H118.119V996.835C118.087 999.008 117.769 1001.09 117.165 1003.07L117.143 1003.06ZM135.556 1006.07H130.51V1021.57H127.023V991.938H130.51V1002.9H135.556V1006.07Z" fill="#595B56"/>
</g>
<g clip-path="url(#clip4_3218_16093)">
<path d="M259.472 437.717C259.472 441.606 254.932 444.758 249.336 444.758C243.741 444.758 239.201 441.606 239.201 437.717C239.201 433.828 243.741 430.676 249.336 430.676C254.932 430.676 259.472 433.828 259.472 437.717Z" fill="#BD1339"/>
<path d="M257.607 429.848C257.607 429.848 273.005 428.879 273.699 438.205C273.699 438.205 273.67 456.075 236.006 459.213L257.014 476.331C257.014 476.331 292.075 461.295 283.863 439.043C283.863 439.043 279.641 428.026 257.607 429.848Z" fill="#00549C"/>
<path d="M241.153 446.13C241.153 446.13 220.42 446.549 223.76 434.997C223.76 434.997 225.842 419.136 256.175 416.779C256.175 416.779 277.183 413.859 295.415 420.958L321.57 394.528C321.57 394.528 283.733 382.556 241.992 397.579C241.992 397.579 214.304 405.791 212.497 427.493C212.497 427.493 209.995 447.532 241.153 446.13Z" fill="#35959A"/>
<path d="M87.4754 502.616L97.7697 513.908L94.372 516.785L85.6102 507.069C83.6873 510.727 80.9402 514.081 77.369 517.19L74.0146 514.269C80.1161 508.949 83.427 502.717 84.0487 495.474V491.686H88.8055V494.129C88.7621 497.093 88.3284 499.927 87.5043 502.63L87.4754 502.616ZM107.312 527.86H102.555V504.756H93.4033V500.664H102.555V487.449H107.312V527.86Z" fill="#595B56"/>
<path d="M128.363 512.697V509.169H111.664V505.12H149.935V509.169H133.236V512.697H141.564V522.933H124.821V525.333H142.562V529.381H119.978V518.957H136.72V516.687H119.717V512.682H128.349L128.363 512.697ZM120.122 495.737C120.122 493.38 121.12 491.414 123.216 489.852C125.226 488.32 127.756 487.539 130.807 487.539C133.858 487.539 136.388 488.32 138.484 489.852C140.537 491.414 141.578 493.38 141.578 495.737C141.578 498.094 140.537 500.06 138.484 501.578C136.388 503.154 133.858 503.935 130.807 503.935C127.756 503.935 125.226 503.154 123.216 501.578C121.12 500.06 120.122 498.094 120.122 495.737ZM124.966 495.737C124.966 496.908 125.486 497.877 126.585 498.614C127.626 499.395 129.029 499.785 130.807 499.785C132.585 499.785 134.031 499.395 135.115 498.614C136.156 497.877 136.735 496.908 136.735 495.737C136.735 494.566 136.171 493.597 135.115 492.816C134.031 492.079 132.585 491.689 130.807 491.689C129.029 491.689 127.626 492.079 126.585 492.816C125.501 493.597 124.966 494.609 124.966 495.737Z" fill="#595B56"/>
<path d="M164.379 502.616L174.847 513.431L171.449 516.308L162.557 506.982C160.634 510.64 157.887 514.038 154.273 517.19L150.918 514.269C157.02 508.949 160.331 502.717 160.953 495.474V491.686H165.709V494.129C165.666 497.093 165.232 499.927 164.408 502.63L164.379 502.616ZM183.594 527.86H178.837V487.449H183.594V527.86Z" fill="#595B56"/>
<path d="M218.309 503.2H209.764V507.378H226.247V511.513H187.976V507.378H204.935V503.2H196.26V488.684H201.147V499.108H218.324V503.2H218.309ZM196.419 521.547C196.419 519.104 197.417 517.051 199.47 515.489C201.48 513.913 204.053 513.133 207.104 513.133C210.155 513.133 212.728 513.913 214.825 515.489C216.834 517.051 217.875 519.104 217.875 521.547C217.875 523.991 216.834 526.044 214.825 527.605C212.728 529.167 210.155 529.962 207.104 529.962C204.053 529.962 201.48 529.181 199.47 527.605C197.417 526.029 196.419 524.034 196.419 521.547ZM201.263 521.547C201.263 522.849 201.783 523.861 202.839 524.641C203.88 525.422 205.282 525.813 207.118 525.813C208.955 525.813 210.386 525.422 211.47 524.641C212.511 523.861 213.046 522.849 213.046 521.547C213.046 520.246 212.526 519.234 211.47 518.453C210.386 517.673 208.94 517.282 207.118 517.282C205.297 517.282 203.894 517.673 202.839 518.453C201.783 519.234 201.263 520.29 201.263 521.547Z" fill="#595B56"/>
<path d="M265.472 514.837H248.729V528.746H243.842V514.837H227.186V510.702H265.457V514.837H265.472ZM248.859 491.198C248.773 492.413 248.556 493.555 248.209 494.639L260.585 504.008L257.621 507.276L246.242 498.687C243.972 502.085 240.228 505.179 235.081 507.883L232.03 504.615C239.881 500.162 243.842 495.637 244.016 491.01V488.957H248.859V491.184V491.198Z" fill="#595B56"/>
<path d="M279.988 499.565L289.791 509.195L286.436 512.072L278.108 503.657C276.272 506.838 273.568 509.845 270.084 512.679L266.773 509.802C272.874 504.698 276.055 499.204 276.402 493.319V490.095H281.116V492.495C281.116 494.939 280.769 497.295 279.988 499.551V499.565ZM298.61 528.959H276.156V514.486H280.913V524.867H298.61V528.959ZM304.842 502.616H298.133V517.349H293.376V487.449H298.133V498.307H304.842V502.616Z" fill="#595B56"/>
<path d="M319.618 498.481L329.609 507.286L326.428 510.12L317.883 502.399C316.047 505.58 313.3 508.587 309.642 511.421L306.288 508.631C312.389 503.744 315.57 498.466 315.917 492.799V489.661H320.63V492.018C320.63 494.245 320.327 496.37 319.633 498.466L319.618 498.481ZM338.24 529.827H333.484V517.971H315.179V513.879H338.24V529.841V529.827ZM333.874 512.65V487.449H338.631V512.65H333.874Z" fill="#595B56"/>
<path d="M359.682 514.877V511.132H342.983V506.997H381.254V511.132H364.555V514.877H372.926V529.176H351.209V514.877H359.668H359.682ZM374.589 505.016H349.561V500.924H354.188V499.478C354.188 498.351 354.101 497.425 353.971 496.818C353.798 496.254 353.581 495.604 353.234 494.852L357.513 493.536C358.164 494.404 358.598 495.329 358.771 496.283C358.901 497.281 358.988 498.336 358.988 499.421V500.895H365.176V493.088H349.923V488.996H374.242V493.088H369.919V500.895H374.589V504.987V505.016ZM368.14 525.113V518.925H356.067V525.113H368.14Z" fill="#595B56"/>
<path d="M382.223 507.113H396.609V498.742H401.539V507.113H420.508V511.248H382.237V507.113H382.223ZM412.527 489.199C412.527 492.554 412.397 495.474 412.18 498.004C411.92 500.578 411.616 502.848 411.183 504.843H406.469C406.773 502.573 407.033 500.39 407.293 498.221C407.51 496.125 407.64 494.477 407.64 493.291H389.553V489.199H412.527ZM390.724 521.412C390.724 519.142 391.678 517.147 393.688 515.398C395.611 513.692 398.185 512.824 401.409 512.824C404.633 512.824 407.207 513.692 409.216 515.398C411.183 517.147 412.18 519.142 412.18 521.412C412.18 523.682 411.183 525.735 409.216 527.427C407.207 529.177 404.59 530.001 401.409 530.001C398.228 530.001 395.654 529.177 393.688 527.427C391.678 525.721 390.724 523.726 390.724 521.412ZM395.568 521.412C395.568 522.583 396.088 523.639 397.144 524.506C398.141 525.461 399.587 525.894 401.423 525.894C403.26 525.894 404.734 525.461 405.775 524.506C406.816 523.639 407.351 522.583 407.351 521.412C407.351 520.241 406.831 519.229 405.775 518.275C404.734 517.407 403.245 516.916 401.423 516.916C399.602 516.916 398.156 517.393 397.144 518.275C396.103 519.229 395.568 520.285 395.568 521.412Z" fill="#595B56"/>
<path d="M434.938 502.616L445.232 513.908L441.835 516.785L433.073 507.069C431.15 510.727 428.403 514.081 424.832 517.19L421.477 514.269C427.579 508.949 430.89 502.717 431.497 495.474V491.686H436.254V494.129C436.21 497.093 435.777 499.927 434.952 502.63L434.938 502.616ZM460.038 506.722H453.155V527.86H448.399V487.449H453.155V502.399H460.038V506.722Z" fill="#595B56"/>
</g>
<path d="M295.574 769.464C297.084 772.644 300.314 774.834 304.064 774.834C308.564 774.834 312.324 771.674 313.244 767.454H290.794C290.694 766.794 290.644 766.124 290.644 765.434C290.644 758.014 296.654 752.004 304.074 752.004C310.084 752.004 315.174 755.954 316.884 761.404H312.564C311.054 758.224 307.824 756.034 304.074 756.034C299.574 756.034 295.814 759.194 294.894 763.424H317.354C317.454 764.084 317.504 764.754 317.504 765.434C317.504 772.854 311.494 778.864 304.074 778.864C298.064 778.864 292.974 774.914 291.264 769.464H295.584H295.574Z" fill="#595B56"/>
<path d="M352.374 767.454V778.864H348.344V765.434C348.344 758.014 354.354 752.004 361.774 752.004H375.204V756.034H361.774C357.274 756.034 353.514 759.194 352.594 763.414H375.204V767.444H352.374V767.454Z" fill="#595B56"/>
<path d="M381.214 767.454V778.864H377.184V765.434C377.184 758.014 383.194 752.004 390.614 752.004H404.044V756.034H390.614C386.114 756.034 382.354 759.194 381.434 763.414H404.044V767.444H381.214V767.454Z" fill="#595B56"/>
<path d="M431.774 770.816C429.704 775.556 424.974 778.876 419.464 778.876C412.044 778.876 406.034 772.866 406.034 765.446C406.034 758.026 412.044 752.016 419.464 752.016C424.974 752.016 429.704 755.326 431.774 760.076H427.174C425.474 757.646 422.654 756.046 419.464 756.046C414.274 756.046 410.064 760.256 410.064 765.446C410.064 770.636 414.274 774.846 419.464 774.846C422.654 774.846 425.484 773.256 427.174 770.816H431.774Z" fill="#595B56"/>
<path d="M332.924 752.016C325.504 752.016 319.494 758.026 319.494 765.446V778.876H323.524V767.466H342.324V778.876H346.354V765.446C346.354 758.026 340.344 752.016 332.924 752.016ZM323.734 763.426C324.654 759.206 328.414 756.036 332.914 756.036C337.414 756.036 341.174 759.196 342.094 763.426H323.734Z" fill="#595B56"/>
<path d="M260.236 725.558L266.042 731.927L264.126 733.55L259.184 728.07C258.1 730.133 256.55 732.025 254.536 733.778L252.644 732.131C256.085 729.13 257.953 725.615 258.304 721.53V719.393H260.986V720.771C260.962 722.443 260.717 724.042 260.253 725.566L260.236 725.558ZM271.425 739.797H268.742V726.765H263.58V724.457H268.742V717.004H271.425V739.797Z" fill="#595B56"/>
<path d="M283.298 731.244V729.254H273.879V726.971H295.465V729.254H286.046V731.244H290.743V737.018H281.3V738.371H291.306V740.655H278.568V734.775H288.011V733.495H278.421V731.236H283.29L283.298 731.244ZM278.65 721.678C278.65 720.349 279.212 719.24 280.395 718.359C281.528 717.495 282.955 717.055 284.676 717.055C286.397 717.055 287.824 717.495 289.006 718.359C290.164 719.24 290.752 720.349 290.752 721.678C290.752 723.008 290.164 724.117 289.006 724.973C287.824 725.862 286.397 726.302 284.676 726.302C282.955 726.302 281.528 725.862 280.395 724.973C279.212 724.117 278.65 723.008 278.65 721.678ZM281.382 721.678C281.382 722.339 281.675 722.885 282.295 723.301C282.882 723.742 283.673 723.962 284.676 723.962C285.679 723.962 286.495 723.742 287.106 723.301C287.693 722.885 288.02 722.339 288.02 721.678C288.02 721.018 287.702 720.472 287.106 720.031C286.495 719.615 285.679 719.395 284.676 719.395C283.673 719.395 282.882 719.615 282.295 720.031C281.683 720.472 281.382 721.042 281.382 721.678Z" fill="#595B56"/>
<path d="M303.612 725.558L309.516 731.658L307.599 733.281L302.584 728.021C301.5 730.084 299.95 732.001 297.911 733.778L296.02 732.131C299.461 729.13 301.328 725.615 301.679 721.53V719.393H304.362V720.771C304.337 722.443 304.093 724.042 303.628 725.566L303.612 725.558ZM314.449 739.797H311.767V717.004H314.449V739.797Z" fill="#595B56"/>
<path d="M334.03 725.887H329.21V728.243H338.507V730.576H316.921V728.243H326.486V725.887H321.593V717.699H324.35V723.579H334.038V725.887H334.03ZM321.683 736.235C321.683 734.857 322.246 733.699 323.404 732.818C324.537 731.929 325.989 731.489 327.71 731.489C329.43 731.489 330.882 731.929 332.064 732.818C333.198 733.699 333.785 734.857 333.785 736.235C333.785 737.613 333.198 738.771 332.064 739.652C330.882 740.533 329.43 740.981 327.71 740.981C325.989 740.981 324.537 740.541 323.404 739.652C322.246 738.763 321.683 737.638 321.683 736.235ZM324.415 736.235C324.415 736.969 324.709 737.54 325.304 737.98C325.891 738.421 326.682 738.641 327.718 738.641C328.753 738.641 329.561 738.421 330.172 737.98C330.759 737.54 331.061 736.969 331.061 736.235C331.061 735.501 330.768 734.93 330.172 734.49C329.561 734.05 328.745 733.829 327.718 733.829C326.69 733.829 325.899 734.05 325.304 734.49C324.709 734.93 324.415 735.526 324.415 736.235Z" fill="#595B56"/>
<path d="M360.63 732.453H351.187V740.298H348.431V732.453H339.036V730.12H360.622V732.453H360.63ZM351.26 719.119C351.212 719.804 351.089 720.449 350.894 721.06L357.874 726.345L356.202 728.188L349.784 723.344C348.504 725.26 346.392 727.005 343.489 728.53L341.768 726.687C346.196 724.175 348.431 721.623 348.529 719.013V717.855H351.26V719.111V719.119Z" fill="#595B56"/>
<path d="M368.818 723.838L374.347 729.269L372.455 730.892L367.758 726.145C366.722 727.94 365.197 729.636 363.232 731.234L361.364 729.611C364.806 726.733 366.6 723.634 366.795 720.315V718.496H369.454V719.85C369.454 721.228 369.258 722.557 368.818 723.83V723.838ZM379.321 740.416H366.657V732.253H369.34V738.109H379.321V740.416ZM382.836 725.558H379.052V733.868H376.369V717.004H379.052V723.128H382.836V725.558Z" fill="#595B56"/>
<path d="M391.17 723.226L396.805 728.192L395.011 729.791L390.192 725.436C389.156 727.23 387.606 728.926 385.543 730.525L383.651 728.951C387.093 726.194 388.887 723.218 389.082 720.021V718.252H391.741V719.581C391.741 720.837 391.57 722.035 391.178 723.218L391.17 723.226ZM401.674 740.906H398.991V734.219H388.667V731.911H401.674V740.914V740.906ZM399.211 731.218V717.004H401.894V731.218H399.211Z" fill="#595B56"/>
<path d="M413.767 732.472V730.36H404.348V728.028H425.934V730.36H416.515V732.472H421.237V740.537H408.988V732.472H413.759H413.767ZM422.175 726.911H408.059V724.603H410.668V723.787C410.668 723.151 410.619 722.629 410.546 722.287C410.448 721.969 410.326 721.602 410.13 721.178L412.544 720.436C412.911 720.925 413.156 721.447 413.253 721.985C413.327 722.548 413.376 723.143 413.376 723.755V724.586H416.866V720.183H408.263V717.875H421.979V720.183H419.541V724.586H422.175V726.894V726.911ZM418.538 738.246V734.756H411.729V738.246H418.538Z" fill="#595B56"/>
<path d="M426.481 728.096H434.595V723.374H437.376V728.096H448.075V730.428H426.489V728.096H426.481ZM443.573 717.992C443.573 719.884 443.5 721.531 443.378 722.958C443.231 724.41 443.06 725.69 442.815 726.816H440.156C440.328 725.535 440.474 724.304 440.621 723.081C440.744 721.898 440.817 720.969 440.817 720.3H430.615V717.992H443.573ZM431.276 736.161C431.276 734.881 431.814 733.755 432.948 732.769C434.032 731.806 435.484 731.317 437.302 731.317C439.121 731.317 440.572 731.806 441.706 732.769C442.815 733.755 443.378 734.881 443.378 736.161C443.378 737.441 442.815 738.599 441.706 739.554C440.572 740.54 439.096 741.005 437.302 741.005C435.508 741.005 434.057 740.54 432.948 739.554C431.814 738.591 431.276 737.466 431.276 736.161ZM434.008 736.161C434.008 736.822 434.301 737.417 434.897 737.906C435.459 738.445 436.275 738.689 437.31 738.689C438.346 738.689 439.178 738.445 439.765 737.906C440.352 737.417 440.654 736.822 440.654 736.161C440.654 735.501 440.36 734.93 439.765 734.392C439.178 733.902 438.338 733.625 437.31 733.625C436.283 733.625 435.467 733.894 434.897 734.392C434.309 734.93 434.008 735.525 434.008 736.161Z" fill="#595B56"/>
<path d="M456.213 725.558L462.02 731.927L460.103 733.55L455.161 728.07C454.077 730.133 452.527 732.025 450.513 733.778L448.621 732.131C452.062 729.13 453.93 725.615 454.272 721.53V719.393H456.955V720.771C456.931 722.443 456.686 724.042 456.221 725.566L456.213 725.558ZM470.37 727.874H466.488V739.797H463.805V717.004H466.488V725.436H470.37V727.874Z" fill="#595B56"/>
<path d="M365.254 662.025C365.254 666.425 360.114 669.995 353.774 669.995C347.434 669.995 342.294 666.425 342.294 662.025C342.294 657.625 347.434 654.055 353.774 654.055C360.114 654.055 365.254 657.615 365.254 662.025Z" fill="#BD1339"/>
<path d="M363.144 653.114C363.144 653.114 380.584 652.024 381.364 662.574C381.364 662.574 381.334 682.814 338.674 686.364L362.454 705.744C362.454 705.744 402.144 688.724 392.854 663.534C392.854 663.534 388.064 651.064 363.134 653.124" fill="#00549C"/>
<path d="M344.504 671.555C344.504 671.555 321.034 672.035 324.814 658.955C324.814 658.955 327.174 640.995 361.514 638.325C361.514 638.325 385.304 635.015 405.934 643.045L435.554 613.115C435.554 613.115 392.714 599.565 345.454 616.575C345.454 616.575 314.104 625.865 312.054 650.435C312.054 650.435 309.224 673.125 344.504 671.545" fill="#35959A"/>
<defs>
<clipPath id="clip0_3218_16093">
<rect width="800" height="136.86" fill="white" transform="translate(103 70)"/>
</clipPath>
<clipPath id="clip1_3218_16093">
<rect width="141" height="136" fill="white" transform="translate(764 387)"/>
</clipPath>
<clipPath id="clip2_3218_16093">
<rect width="279.394" height="80" fill="white" transform="translate(687.978 692.871)"/>
</clipPath>
<clipPath id="clip3_3218_16093">
<rect width="80" height="413.271" fill="white" transform="translate(88.7349 608.301)"/>
</clipPath>
<clipPath id="clip4_3218_16093">
<rect width="386.037" height="140" fill="white" transform="translate(74 390)"/>
</clipPath>
</defs>
</svg>
