<svg width="127" height="129" viewBox="0 0 127 129" fill="none" xmlns="http://www.w3.org/2000/svg">
<g clip-path="url(#clip0_2910_133966)">
<path fill-rule="evenodd" clip-rule="evenodd" d="M35.3125 128.597C26.377 128.597 17.1901 125.088 10.2371 118.315C-3.41757 104.273 -3.41757 81.7061 10.2371 67.6604L40.5263 37.3209C41.5196 50.3592 46.9806 62.3984 56.4148 71.9232C65.849 81.2024 77.7644 86.9681 90.673 87.9713L60.3839 118.311C53.4308 125.08 44.4953 128.593 35.3084 128.593L35.3125 128.597ZM71.8088 62.1486C70.8155 62.1486 69.8222 61.8989 69.0762 61.6491L60.388 70.4245C69.5749 79.2 81.4903 83.9666 94.1516 83.9666C99.1181 77.6972 101.847 69.925 101.847 61.8989C101.847 52.8736 98.6194 44.3479 92.6596 37.8246L81.2388 49.3601C81.7334 50.1136 81.9848 51.1168 81.9848 52.1201C81.9848 53.8769 81.2388 55.3797 80.2456 56.383L76.0251 60.6458C74.7845 61.6491 73.2925 62.1486 71.8046 62.1486H71.8088ZM66.595 58.8891C66.1004 58.1356 65.849 57.1323 65.849 56.129C65.849 54.6262 66.595 53.1192 67.5883 51.8662L71.5615 47.8531C72.8021 46.8498 74.2941 46.0963 76.0292 46.0963C76.7752 46.0963 77.7685 46.3461 78.5104 46.8498L89.9312 35.3143C83.4768 29.2947 75.2832 26.0352 66.3477 26.0352C58.1541 26.0352 50.4592 28.7952 44.2522 33.8074C44.2522 46.3461 49.2186 58.3812 57.6595 67.9101L66.595 58.8849V58.8891ZM76.0292 49.6099C75.2832 49.6099 74.7886 49.8596 74.2899 50.3634L70.0695 54.6262C69.8222 55.1258 69.3235 55.6295 69.3235 56.383C69.3235 56.6327 69.5708 57.1365 69.5708 57.3862C69.8181 57.636 70.0654 57.636 70.3168 57.8858C70.3168 57.8858 70.5641 58.1356 70.5641 58.3853C71.5574 58.8849 72.5506 58.6351 73.5439 58.1356L77.5171 53.8727C77.7644 53.6229 78.2631 52.8694 78.2631 52.116C78.2631 51.6164 78.0158 51.1127 77.5171 50.6131C77.0225 49.8596 76.5238 49.6099 76.0292 49.6099Z" fill="#2F5BC1"/>
<path fill-rule="evenodd" clip-rule="evenodd" d="M104.332 38.0785C103.338 38.0785 102.592 37.579 102.592 36.5757C102.345 33.5659 101.105 30.5561 98.8665 28.5496C96.6326 26.0435 93.9 24.5365 90.6729 24.2867C89.6796 24.2867 88.9336 23.2835 88.9336 22.2802C88.9336 21.2769 89.9269 20.5234 90.9202 20.5234C94.8933 21.023 98.6151 23.0295 101.348 26.0393C104.08 28.7994 105.815 32.3087 106.063 36.3218C106.31 37.325 105.568 38.0785 104.575 38.0785H104.328H104.332Z" fill="#2F5BC1"/>
<path fill-rule="evenodd" clip-rule="evenodd" d="M114.263 38.5795C113.27 38.5795 112.524 37.826 112.524 36.8228C112.277 31.0571 110.043 25.537 106.07 21.5281C102.096 17.2653 96.6354 14.7592 90.9271 14.2555C89.6865 14.2555 88.9405 13.2522 89.1878 12.2489C89.1878 11.2457 90.1811 10.4922 91.1744 10.4922C97.876 10.9917 104.083 14.0015 108.802 19.0179C113.27 23.7803 116.003 30.0497 116.25 36.5688C116.25 37.5721 115.257 38.5754 114.263 38.5754V38.5795Z" fill="#2F5BC1"/>
<path fill-rule="evenodd" clip-rule="evenodd" d="M124.686 38.8291C123.693 38.8291 122.947 37.8258 122.947 36.8226C122.7 28.5466 119.472 20.5247 113.76 14.2553C107.8 7.98591 99.858 4.22678 91.1698 3.72306C90.1765 3.72306 89.4305 2.96957 89.682 1.71653C89.682 0.713258 90.428 -0.0402334 91.4213 0.213706C101.103 0.713258 109.791 4.9761 116.497 11.7492C122.951 18.5181 126.425 27.5475 126.677 36.8267C126.43 37.83 125.684 38.8333 124.69 38.8333L124.686 38.8291Z" fill="#2F5BC1"/>
</g>
<defs>
<clipPath id="clip0_2910_133966">
<rect width="126.676" height="128.435" fill="white" transform="translate(0 0.164062)"/>
</clipPath>
</defs>
</svg>
