<svg width="160" height="160" viewBox="0 0 160 160" fill="none" xmlns="http://www.w3.org/2000/svg">
<g clip-path="url(#clip0_2818_32789)">
<circle cx="79.7532" cy="80" r="80" fill="#2F5BC1"/>
<path d="M55.6425 120.22C55.5867 119.707 55.3554 119.305 54.9484 119.016C54.547 118.726 54.023 118.581 53.3763 118.581C52.9192 118.581 52.5206 118.648 52.1805 118.781C51.846 118.915 51.5896 119.102 51.4112 119.342C51.2328 119.581 51.1436 119.855 51.1436 120.161C51.1436 120.618 51.3359 120.975 51.7206 121.232C52.1053 121.482 52.6042 121.68 53.2174 121.825L54.3547 122.126C55.3972 122.366 56.2474 122.765 56.9052 123.322C57.5686 123.874 57.9003 124.635 57.9003 125.605C57.9003 126.313 57.7191 126.937 57.3567 127.478C56.9944 128.019 56.4676 128.44 55.7763 128.741C55.0906 129.036 54.2711 129.184 53.3178 129.184C52.3812 129.184 51.5645 129.039 50.8677 128.749C50.1764 128.454 49.6356 128.024 49.2454 127.461C48.8552 126.898 48.6461 126.224 48.6182 125.438H50.759C50.8091 126.045 51.0656 126.511 51.5283 126.834C51.991 127.158 52.5819 127.322 53.3011 127.328C53.7749 127.328 54.193 127.255 54.5554 127.11C54.9233 126.96 55.2104 126.753 55.4167 126.491C55.623 126.229 55.7261 125.928 55.7261 125.588C55.7205 125.142 55.5366 124.797 55.1742 124.551C54.8118 124.3 54.2655 124.083 53.5352 123.899L52.1638 123.548C50.0119 122.985 48.936 121.898 48.936 120.287C48.936 119.584 49.1283 118.965 49.513 118.43C49.8976 117.889 50.4273 117.471 51.1018 117.176C51.7764 116.875 52.5373 116.724 53.3847 116.724C54.2265 116.724 54.9735 116.872 55.6258 117.167C56.2836 117.463 56.7965 117.878 57.1644 118.413C57.5323 118.943 57.7219 119.545 57.733 120.22H55.6425ZM59.1713 116.892H68.8213V118.714H65.0918V129H62.9176V118.714H59.1713V116.892ZM70.5272 116.892H78.4044V118.714H72.7014V122.026H77.9863V123.849H72.7014V127.16H78.4379V129H70.5272V116.892ZM80.495 116.892H85.044C85.9471 116.892 86.7165 117.062 87.352 117.402C87.9931 117.742 88.4781 118.216 88.807 118.823C89.1359 119.425 89.3032 120.119 89.3088 120.905C89.3032 121.686 89.1331 122.377 88.7987 122.979C88.4697 123.581 87.9819 124.052 87.3353 124.392C86.6942 124.732 85.9193 124.903 85.0106 124.903H82.6692V129H80.495V116.892ZM84.7095 123.113C85.5012 123.107 86.0949 122.907 86.4907 122.511C86.8865 122.11 87.0844 121.574 87.0844 120.905C87.0844 120.231 86.8865 119.698 86.4907 119.308C86.0949 118.912 85.5012 118.714 84.7095 118.714H82.6692V123.113H84.7095ZM99.4772 129.167C98.5072 129.167 97.6737 128.925 96.9769 128.44C96.28 127.949 95.7476 127.238 95.3797 126.307C95.0118 125.376 94.8278 124.256 94.8278 122.946C94.8278 121.641 95.0118 120.524 95.3797 119.593C95.7532 118.656 96.2884 117.945 96.9853 117.46C97.6821 116.97 98.5128 116.724 99.4772 116.724C100.442 116.724 101.272 116.97 101.969 117.46C102.666 117.945 103.198 118.656 103.566 119.593C103.94 120.524 104.127 121.641 104.127 122.946C104.127 124.256 103.94 125.379 103.566 126.316C103.198 127.247 102.666 127.955 101.969 128.44C101.278 128.925 100.447 129.167 99.4772 129.167ZM97.0187 122.946C97.0187 124.378 97.2333 125.468 97.6626 126.215C98.0974 126.962 98.7023 127.339 99.4772 127.344C99.9845 127.339 100.422 127.171 100.79 126.843C101.158 126.514 101.44 126.02 101.635 125.362C101.835 124.705 101.936 123.899 101.936 122.946C101.936 121.998 101.835 121.195 101.635 120.537C101.44 119.874 101.158 119.375 100.79 119.041C100.422 118.706 99.9845 118.536 99.4772 118.531C98.9699 118.536 98.5323 118.706 98.1643 119.041C97.7964 119.375 97.5121 119.874 97.3114 120.537C97.1163 121.195 97.0187 121.998 97.0187 122.946ZM110.867 129H108.676V119.016H108.609L105.782 120.822V118.832L108.776 116.892H110.867V129Z" fill="white"/>
<path d="M115 89.9766H45V97.2637H115V89.9766Z" fill="#F2F2F2"/>
<path d="M62.4199 88.0602H80.7981H91.9847V82.306H78.1533L72.329 66.4844H45.1597L53.6288 88.0602H62.4199Z" fill="#F2F2F2"/>
<path d="M53.2902 43.2924L60.2544 48.6654C60.2834 48.6884 60.3184 48.7005 60.3512 48.7212C60.3657 48.7284 60.3802 48.738 60.3948 48.7454C60.9961 49.0805 61.7934 48.9038 62.3258 48.3183C62.3403 48.3001 62.3571 48.2904 62.3718 48.2723L70.9063 38.177C71.3927 37.6314 71.4 36.8474 70.9282 36.4263C70.4539 36.0042 69.6772 36.107 69.192 36.6514L61.2153 45.1739L55.0542 40.8847C54.4783 40.4601 53.6144 40.656 53.1281 41.3239C52.6404 41.9868 52.7118 42.87 53.2902 43.2924Z" fill="#F2F2F2"/>
<path d="M59.6566 58.1226C59.6566 59.0614 60.4164 59.8201 61.3541 59.8201C62.2917 59.8201 63.0516 59.0614 63.0516 58.1226C63.0516 57.1836 62.2917 56.4238 61.3541 56.4238C60.4164 56.424 59.6566 57.1836 59.6566 58.1226Z" fill="#F2F2F2"/>
<path d="M61.354 34.1324C62.2916 34.1324 63.0515 33.3725 63.0515 32.4338C63.0515 31.495 62.2916 30.7363 61.354 30.7363C60.4162 30.7363 59.6565 31.495 59.6565 32.4338C59.6566 33.3727 60.4164 34.1324 61.354 34.1324Z" fill="#F2F2F2"/>
<path d="M69.234 53.1594C68.5711 53.8225 68.5711 54.8979 69.234 55.561C69.8983 56.224 70.9739 56.224 71.6369 55.561C72.2998 54.8992 72.2998 53.8225 71.6369 53.1594C70.9738 52.4963 69.8983 52.4963 69.234 53.1594Z" fill="#F2F2F2"/>
<path d="M53.4728 37.3976C54.1371 36.7346 54.1371 35.6591 53.4728 34.9949C52.8086 34.3318 51.7341 34.333 51.0712 34.9949C50.4081 35.6591 50.4081 36.7348 51.0712 37.3976C51.7343 38.0607 52.8098 38.0595 53.4728 37.3976Z" fill="#F2F2F2"/>
<path d="M74.1971 46.9772C75.136 46.9772 75.8959 46.2173 75.8959 45.2784C75.8959 44.3419 75.136 43.582 74.1971 43.582C73.2595 43.582 72.4996 44.3419 72.4996 45.2795C72.4996 46.2173 73.2595 46.9772 74.1971 46.9772Z" fill="#F2F2F2"/>
<path d="M48.5111 46.9772C49.4499 46.9772 50.2086 46.2173 50.2098 45.2795C50.2098 44.3419 49.4487 43.5797 48.5111 43.582C47.5722 43.582 46.8125 44.3419 46.8125 45.2784C46.8125 46.2173 47.5722 46.9772 48.5111 46.9772Z" fill="#F2F2F2"/>
<path d="M51.0713 53.1603C50.4082 53.8233 50.4095 54.8989 51.0713 55.5607C51.7355 56.2237 52.8112 56.2249 53.474 55.5619C54.1371 54.8989 54.1371 53.8221 53.474 53.1603C52.8111 52.496 51.7343 52.496 51.0713 53.1603Z" fill="#F2F2F2"/>
<path d="M88.3062 54.3668C88.7296 56.5058 89.4428 58.3946 90.3792 59.3237C90.3792 60.438 90.3792 61.2535 90.3792 61.9044C90.3792 61.9684 90.3666 62.0387 90.346 62.1088L95.1801 64.1838L100.011 62.1088C99.9912 62.0387 99.9767 61.971 99.9767 61.9044C99.9767 61.2535 99.9767 60.438 99.9767 59.3237C100.917 58.3946 101.627 56.5058 102.05 54.3668C103.039 54.0522 103.606 53.5478 104.311 51.3458C105.06 49.0009 103.182 49.0784 103.182 49.0784C104.7 44.5946 102.7 40.3782 99.3489 40.6866C97.0367 37.0811 89.2941 41.5117 86.866 41.2008C86.866 42.4398 87.4436 43.3654 87.4436 43.3654C86.5996 44.793 86.9252 47.6374 87.1629 49.0784C87.0262 49.0773 85.3257 49.093 86.048 51.3458C86.7526 53.5478 87.317 54.0522 88.3062 54.3668Z" fill="#F2F2F2"/>
<path d="M97.0006 65.2383H93.3569V68.0525H97.0006V65.2383Z" fill="#F2F2F2"/>
<path d="M94.4578 79.8342V88.0601H114.839C113.756 77.9503 108.879 68.4888 105.522 67.3698C105.15 67.2465 104.755 67.0734 104.346 66.875L97.4867 75.3177L97.0004 69.7825H93.3567L92.8699 75.3177L86.0212 66.875C85.599 67.0855 85.1913 67.2586 84.832 67.3698C83.0473 67.9276 80.7184 72.2263 78.8973 77.1578L79.8762 79.8342H94.4578Z" fill="#F2F2F2"/>
</g>
<defs>
<clipPath id="clip0_2818_32789">
<rect width="160" height="160" fill="white"/>
</clipPath>
</defs>
</svg>
