<svg width="209" height="53" viewBox="0 0 209 53" fill="none" xmlns="http://www.w3.org/2000/svg">
<path d="M18.7623 52.5626C10.827 52.5626 5.24538 49.8054 1.61396 45.5687L7.12834 38.0369C10.1545 40.8613 13.6514 42.8788 17.5519 42.8788C22.192 42.8788 25.2182 40.9286 25.2182 37.1627C25.2182 32.8588 22.9317 30.3033 12.441 30.3033V21.83C20.9815 21.83 23.6715 19.2746 23.6715 15.3069C23.6715 11.8772 21.654 9.99429 17.9553 9.99429C14.5929 9.99429 12.0375 11.4738 9.0113 14.1637L2.95893 6.83361C7.59908 2.9332 12.5755 0.646749 18.4933 0.646749C28.8496 0.646749 35.6417 5.48864 35.6417 14.4327C35.6417 19.4091 32.9518 23.3095 27.6391 25.4614V25.7977C33.1535 27.4789 37.2557 31.5138 37.2557 37.9697C37.2557 47.3172 28.7151 52.5626 18.7623 52.5626Z" fill="#1BBCBC"/>
<path d="M52.268 51.6211V23.3111H59.602L64.086 35.5471C64.656 37.1811 65.112 38.9671 65.644 40.6771H65.834C66.404 38.9671 66.86 37.1811 67.392 35.5471L71.724 23.3111H79.096V51.6211H72.902V41.9311C72.902 39.1191 73.434 34.9011 73.814 32.1271H73.624L71.268 38.8911L67.468 49.2271H63.744L59.906 38.8911L57.626 32.1271H57.474C57.816 34.9011 58.348 39.1191 58.348 41.9311V51.6211H52.268ZM81.8319 51.6211L90.6099 23.3111H98.7419L107.52 51.6211H100.376L96.8419 37.4851C96.0819 34.6731 95.3599 31.2911 94.5999 28.4031H94.4479C93.7639 31.3671 93.0039 34.6731 92.2819 37.4851L88.7479 51.6211H81.8319ZM87.7979 45.1231V39.8791H101.478V45.1231H87.7979ZM110.302 51.6211V23.3111H120.676C126.718 23.3111 131.734 25.4011 131.734 32.2411C131.734 38.8911 126.718 41.6651 120.676 41.6651H117.104V51.6211H110.302ZM117.104 36.3071H120.144C123.374 36.3071 125.122 34.9011 125.122 32.2411C125.122 29.5811 123.374 28.7071 120.144 28.7071H117.104V36.3071ZM125.578 51.6211L119.46 39.9171L124.058 35.4711L133.178 51.6211H125.578ZM137.018 51.6211V23.3111H143.82V34.5211H143.934L151.952 23.3111H159.4L150.85 34.6731L160.996 51.6211H153.586L146.898 40.0311L143.82 44.2111V51.6211H137.018ZM163.734 51.6211V23.3111H181.67V28.9731H170.536V34.2171H179.998V39.9171H170.536V45.9211H182.088V51.6211H163.734ZM192.953 51.6211V28.9731H185.315V23.3111H207.431V28.9731H199.755V51.6211H192.953Z" fill="#1BBCBC"/>
</svg>
