<svg width="835" height="370" viewBox="0 0 835 370" fill="none" xmlns="http://www.w3.org/2000/svg">
<g opacity="0.9" filter="url(#filter0_d_2981_11233)">
<circle cx="153" cy="150" r="150" fill="#FFB466"/>
</g>
<path d="M90.0466 106.667H86.2683V94.0542H84.2125V105.445H80.5731V81.5525H84.2125V90.8871H86.2683V81.1636H90.0466V106.667ZM68.5715 84.0807H78.0728V87.2755H72.5998V97.7075C73.7666 97.689 74.8779 97.638 75.9336 97.5547C76.9985 97.4713 78.082 97.3324 79.184 97.138L79.4618 100.361C78.0265 100.638 76.6189 100.824 75.2391 100.916C73.8685 101 72.2572 101.046 70.4051 101.055H68.5715V84.0807ZM116.161 87.72H112.827V89.8036H116.161V93.0819H112.827V96.5546H108.827V81.1914H112.827V84.414H116.161V87.72ZM93.3526 82.6916H105.132V90.4982H97.3809V92.3318C99.5201 92.3132 101.326 92.253 102.798 92.1512C104.28 92.0401 105.743 91.8595 107.188 91.6094L107.605 94.7488C105.956 95.0821 104.252 95.3044 102.493 95.4155C100.742 95.5266 98.4366 95.5822 95.5751 95.5822H93.3804V87.5533H101.215V85.8031H93.3526V82.6916ZM95.5196 101.805C95.5196 100.787 95.8761 99.9069 96.5891 99.166C97.3115 98.4159 98.3348 97.8418 99.659 97.4436C100.993 97.0361 102.558 96.8324 104.354 96.8324C106.123 96.8324 107.66 97.0361 108.966 97.4436C110.281 97.8418 111.295 98.4159 112.008 99.166C112.721 99.9069 113.077 100.787 113.077 101.805C113.077 102.815 112.721 103.681 112.008 104.403C111.295 105.125 110.281 105.676 108.966 106.056C107.66 106.445 106.123 106.639 104.354 106.639C102.548 106.639 100.983 106.449 99.659 106.07C98.3348 105.69 97.3115 105.134 96.5891 104.403C95.8761 103.681 95.5196 102.815 95.5196 101.805ZM99.4923 101.805C99.4645 103.046 101.048 103.667 104.243 103.667C105.891 103.667 107.114 103.518 107.91 103.222C108.716 102.917 109.123 102.444 109.133 101.805C109.123 101.166 108.725 100.694 107.938 100.388C107.151 100.074 105.956 99.9161 104.354 99.9161C101.085 99.9161 99.4645 100.546 99.4923 101.805ZM144.137 90.4982H137.081V92.7763H146.776V95.9711H123.468V92.7763H133.136V90.4982H126.329V81.5248H130.33V87.3033H144.137V90.4982ZM126.079 101.889C126.079 100.898 126.436 100.046 127.149 99.3327C127.871 98.6196 128.904 98.0779 130.246 97.7075C131.589 97.3278 133.191 97.138 135.053 97.138C136.896 97.138 138.484 97.3278 139.817 97.7075C141.151 98.0779 142.169 98.6196 142.873 99.3327C143.586 100.046 143.943 100.898 143.943 101.889C143.943 102.898 143.586 103.759 142.873 104.472C142.169 105.195 141.151 105.741 139.817 106.111C138.484 106.491 136.896 106.676 135.053 106.667C133.191 106.676 131.589 106.491 130.246 106.111C128.904 105.741 127.871 105.195 127.149 104.472C126.436 103.759 126.079 102.898 126.079 101.889ZM130.163 101.889C130.145 102.481 130.538 102.926 131.344 103.222C132.149 103.509 133.386 103.657 135.053 103.667C136.683 103.657 137.9 103.509 138.706 103.222C139.521 102.926 139.933 102.481 139.942 101.889C139.933 101.296 139.539 100.865 138.761 100.597C137.984 100.328 136.789 100.194 135.178 100.194C133.437 100.194 132.163 100.328 131.358 100.597C130.552 100.856 130.154 101.287 130.163 101.889ZM161.806 83.025C161.806 84.0343 162.116 85.0299 162.737 86.0115C163.367 86.9838 164.339 87.8358 165.654 88.5674C166.969 89.2897 168.613 89.7666 170.585 89.9981L169.029 93.2208C166.816 92.9152 164.918 92.304 163.334 91.3872C161.76 90.4704 160.547 89.3267 159.695 87.9562C158.834 89.3267 157.616 90.4704 156.042 91.3872C154.477 92.304 152.601 92.9152 150.416 93.2208L148.86 89.9981C150.814 89.7666 152.444 89.2851 153.75 88.5535C155.065 87.8219 156.032 86.9699 156.653 85.9976C157.273 85.016 157.583 84.0251 157.583 83.025V81.8581H161.806V83.025ZM148.054 94.8599H171.308V98.1103H161.584V106.667H157.611V98.1103H148.054V94.8599ZM182.309 85.4142C182.3 86.5254 182.494 87.5811 182.892 88.5813C183.291 89.5721 183.925 90.4611 184.795 91.2483C185.666 92.0262 186.782 92.6281 188.143 93.0541L186.032 96.1934C184.698 95.7489 183.559 95.1192 182.615 94.3042C181.67 93.4801 180.915 92.4985 180.35 91.3594C179.767 92.6003 178.971 93.6699 177.961 94.5682C176.961 95.4664 175.753 96.1471 174.336 96.6101L172.113 93.4708C173.549 93.0356 174.725 92.4012 175.641 91.5678C176.558 90.7343 177.225 89.7898 177.642 88.7341C178.058 87.6784 178.271 86.5625 178.281 85.3864V82.7471H182.309V85.4142ZM176.225 97.9714H180.281V103.055H193.811V106.25H176.225V97.9714ZM188.949 81.1914H192.949V88.4146H196.255V91.7761H192.949V99.805H188.949V81.1914ZM220.481 94.2209H210.813V95.5544H217.703V102.361H203.812V103.528H218.314V106.528H199.867V99.555H213.73V98.5548H199.867V95.5544H206.785V94.2209H197.228V91.0816H220.481V94.2209ZM200.061 81.8859H217.564V89.9981H200.061V81.8859ZM213.563 86.9421V84.9697H203.979V86.9421H213.563ZM230.038 82.8305C231.371 82.8305 232.58 83.1037 233.663 83.65C234.747 84.1871 235.599 84.9372 236.219 85.9003C236.849 86.8634 237.168 87.9515 237.178 89.1647C237.168 90.3778 236.849 91.4705 236.219 92.4429C235.599 93.406 234.747 94.1561 233.663 94.6932C232.58 95.2303 231.371 95.4989 230.038 95.4989C228.713 95.4989 227.505 95.2303 226.412 94.6932C225.329 94.1561 224.472 93.406 223.842 92.4429C223.213 91.4705 222.898 90.3778 222.898 89.1647C222.898 87.9515 223.213 86.8634 223.842 85.9003C224.472 84.9372 225.329 84.1871 226.412 83.65C227.505 83.1037 228.713 82.8305 230.038 82.8305ZM222.856 98.4159C229.088 98.4159 234.149 98.1474 238.039 97.6103L238.344 100.5C235.872 100.981 233.348 101.291 230.774 101.43C228.209 101.569 225.407 101.639 222.37 101.639L221.925 98.4159H222.856ZM226.871 89.1647C226.871 89.7759 227.005 90.2991 227.273 90.7343C227.551 91.1696 227.926 91.4983 228.399 91.7206C228.871 91.9428 229.403 92.0539 229.996 92.0539C230.95 92.0539 231.732 91.8039 232.344 91.3038C232.964 90.8038 233.279 90.0907 233.288 89.1647C233.279 88.5627 233.131 88.0441 232.844 87.6089C232.566 87.1737 232.181 86.8449 231.691 86.6227C231.209 86.3911 230.658 86.2754 230.038 86.2754C229.436 86.2754 228.894 86.3911 228.412 86.6227C227.931 86.8449 227.551 87.1737 227.273 87.6089C227.005 88.0441 226.871 88.5627 226.871 89.1647ZM239.4 81.1636H243.373V106.723H239.4V81.1636ZM114.3 137.416H110.272V135.583H105.521V132.888H110.272V118.191H114.3V137.416ZM92.4358 129.332C95.7326 129.304 98.682 129.244 101.284 129.151C103.886 129.049 106.364 128.85 108.716 128.554L108.938 131.388C107.16 131.693 105.206 131.939 103.076 132.124V136.888H99.5479V140.055H114.828V143.25H95.5473V135.583H99.0478V132.36C97.3717 132.434 95.3158 132.471 92.8803 132.471L92.4358 129.332ZM94.2694 123.609C94.2694 122.72 94.5379 121.928 95.0751 121.233C95.6214 120.53 96.3808 119.983 97.3531 119.594C98.3348 119.196 99.446 118.997 100.687 118.997C101.909 118.997 103.007 119.196 103.979 119.594C104.951 119.983 105.711 120.53 106.257 121.233C106.803 121.928 107.077 122.72 107.077 123.609C107.077 124.507 106.803 125.299 106.257 125.984C105.711 126.669 104.951 127.202 103.979 127.582C103.016 127.952 101.919 128.137 100.687 128.137C99.4368 128.137 98.3255 127.952 97.3531 127.582C96.3808 127.202 95.6214 126.669 95.0751 125.984C94.5379 125.299 94.2694 124.507 94.2694 123.609ZM98.0477 123.609C98.0477 124.155 98.2838 124.572 98.7561 124.859C99.2284 125.137 99.872 125.276 100.687 125.276C101.474 125.276 102.104 125.137 102.576 124.859C103.048 124.572 103.289 124.155 103.298 123.609C103.289 123.062 103.044 122.646 102.562 122.359C102.09 122.062 101.465 121.914 100.687 121.914C99.8813 121.914 99.2377 122.062 98.7561 122.359C98.2838 122.646 98.0477 123.062 98.0477 123.609ZM137.636 124.025H140.72V127.359H137.636V133.166H133.636V118.164H137.636V124.025ZM116.772 130.304C119.338 130.304 121.329 130.286 122.745 130.249V129.262C121.366 129.086 120.287 128.716 119.509 128.151C118.74 127.577 118.356 126.85 118.356 125.97C118.356 125.294 118.615 124.711 119.134 124.22C119.652 123.72 120.389 123.34 121.342 123.081C122.296 122.822 123.412 122.692 124.69 122.692C125.968 122.692 127.084 122.822 128.038 123.081C128.992 123.34 129.728 123.72 130.246 124.22C130.765 124.711 131.024 125.294 131.024 125.97C131.024 126.85 130.645 127.572 129.885 128.137C129.126 128.693 128.07 129.068 126.718 129.262V130.11C128.783 130.008 130.737 129.841 132.58 129.61L132.858 132.054C130.469 132.462 128.029 132.721 125.537 132.832C123.056 132.943 120.273 132.999 117.189 132.999L116.772 130.304ZM117.439 119.664H122.745V117.969H126.718V119.664H131.969V122.303H117.439V119.664ZM120.162 133.999H137.636V139.889H124.19V140.889H138.442V143.528H120.19V137.5H133.636V136.611H120.162V133.999ZM122.19 125.97C122.181 126.285 122.384 126.521 122.801 126.679C123.227 126.827 123.857 126.906 124.69 126.915C125.524 126.906 126.149 126.827 126.565 126.679C126.982 126.53 127.19 126.294 127.19 125.97C127.19 125.683 126.982 125.475 126.565 125.345C126.158 125.215 125.533 125.146 124.69 125.137C123.847 125.146 123.218 125.215 122.801 125.345C122.384 125.475 122.181 125.683 122.19 125.97ZM162.001 125.831H165.307V129.082H162.001V137.222H158V118.191H162.001V125.831ZM141.665 120.747H147.221V118.164H151.222V120.747H156.778V123.859H141.665V120.747ZM142.859 129.582C142.859 128.609 143.128 127.744 143.665 126.984C144.202 126.225 144.952 125.637 145.915 125.22C146.888 124.794 147.99 124.581 149.221 124.581C150.444 124.581 151.532 124.794 152.486 125.22C153.449 125.637 154.199 126.225 154.736 126.984C155.282 127.734 155.555 128.6 155.555 129.582C155.555 130.554 155.282 131.415 154.736 132.165C154.199 132.906 153.449 133.48 152.486 133.888C151.532 134.295 150.444 134.499 149.221 134.499C147.99 134.499 146.888 134.295 145.915 133.888C144.952 133.48 144.202 132.906 143.665 132.165C143.128 131.415 142.859 130.554 142.859 129.582ZM145.276 135.749H149.277V140.055H162.834V143.25H145.276V135.749ZM146.749 129.582C146.749 130.202 146.966 130.675 147.402 130.999C147.846 131.323 148.453 131.489 149.221 131.499C149.999 131.489 150.61 131.323 151.055 130.999C151.509 130.675 151.74 130.202 151.749 129.582C151.74 128.952 151.509 128.471 151.055 128.137C150.601 127.804 149.99 127.637 149.221 127.637C148.462 127.637 147.86 127.804 147.415 128.137C146.971 128.471 146.749 128.952 146.749 129.582ZM195.922 135.444H190.671V143.667H186.615V135.444H181.809V143.667H177.725V135.444H172.613V132.249H195.922V135.444ZM174.864 124.776C174.864 123.618 175.253 122.599 176.03 121.72C176.818 120.84 177.92 120.164 179.336 119.692C180.753 119.21 182.374 118.969 184.198 118.969C186.022 118.969 187.643 119.21 189.06 119.692C190.486 120.164 191.597 120.84 192.394 121.72C193.19 122.599 193.588 123.618 193.588 124.776C193.588 125.915 193.19 126.91 192.394 127.762C191.607 128.614 190.5 129.276 189.074 129.748C187.657 130.212 186.032 130.443 184.198 130.443C182.365 130.443 180.739 130.212 179.323 129.748C177.915 129.276 176.818 128.614 176.03 127.762C175.253 126.91 174.864 125.915 174.864 124.776ZM178.975 124.776C178.966 125.591 179.42 126.216 180.337 126.651C181.263 127.077 182.55 127.294 184.198 127.304C185.856 127.294 187.143 127.077 188.06 126.651C188.986 126.216 189.449 125.591 189.449 124.776C189.449 123.924 188.99 123.275 188.074 122.831C187.157 122.377 185.865 122.146 184.198 122.136C182.55 122.146 181.263 122.377 180.337 122.831C179.42 123.275 178.966 123.924 178.975 124.776ZM220.481 134.305H197.172V131.165H206.785V129.915H200.034V118.747H217.814V121.803H204.006V122.914H217.258V125.776H204.006V126.887H218.064V129.915H210.813V131.165H220.481V134.305ZM199.839 139.416C199.839 138.527 200.186 137.768 200.881 137.138C201.585 136.509 202.608 136.032 203.951 135.708C205.294 135.384 206.914 135.221 208.813 135.221C210.674 135.221 212.271 135.384 213.605 135.708C214.938 136.032 215.952 136.513 216.647 137.152C217.351 137.782 217.703 138.537 217.703 139.416C217.703 140.343 217.351 141.12 216.647 141.75C215.952 142.389 214.943 142.871 213.619 143.195C212.295 143.519 210.692 143.676 208.813 143.667C205.942 143.686 203.729 143.329 202.173 142.597C200.617 141.866 199.839 140.806 199.839 139.416ZM203.84 139.416C203.83 139.889 204.215 140.231 204.993 140.444C205.78 140.648 207.053 140.75 208.813 140.75C210.526 140.75 211.767 140.648 212.535 140.444C213.304 140.231 213.693 139.889 213.702 139.416C213.693 138.972 213.313 138.652 212.563 138.458C211.822 138.264 210.632 138.166 208.993 138.166C207.16 138.166 205.84 138.264 205.034 138.458C204.229 138.643 203.83 138.963 203.84 139.416Z" fill="white"/>
<g clip-path="url(#clip0_2981_11233)">
<path d="M130.465 224.312C126.923 224.312 124.061 227.372 124.061 231.156C124.061 234.941 126.933 238 130.465 238C133.996 238 136.869 234.931 136.869 231.156C136.869 227.382 133.996 224.312 130.465 224.312Z" fill="white"/>
<path d="M191.101 219.086H147.473C146.421 219.086 145.575 218.173 145.575 217.05V186.714C145.575 185.592 144.719 184.678 143.666 184.678H126.313C125.752 184.678 125.211 184.946 124.857 185.413L112.443 201.316C112.157 201.683 112 202.14 112 202.617V223.874C112 224.997 112.856 225.911 113.899 225.911H123.46C125.015 223.566 127.563 222.027 130.455 222.027C133.347 222.027 135.895 223.566 137.449 225.911H168.889C170.443 223.566 172.991 222.027 175.883 222.027C178.775 222.027 181.323 223.566 182.877 225.911H191.101C192.154 225.911 193 225.007 193 223.874V221.123C193 220 192.144 219.086 191.101 219.086ZM138.57 204.236C138.57 205.389 137.695 206.332 136.603 206.332H120.913C119.83 206.332 118.955 205.389 118.955 204.236V202.836C118.955 202.359 119.112 201.892 119.398 201.515L127.326 191.095C127.7 190.608 128.261 190.32 128.851 190.32H136.613C137.695 190.32 138.58 191.254 138.58 192.416V204.246L138.57 204.236Z" fill="white"/>
<path d="M175.884 224.312C172.342 224.312 169.479 227.372 169.479 231.156C169.479 234.941 172.352 238 175.884 238C179.415 238 182.288 234.931 182.288 231.156C182.288 227.382 179.425 224.312 175.884 224.312Z" fill="white"/>
<path d="M159.967 192C159.386 192 158.914 192.477 158.914 193.063C158.914 193.649 159.386 194.126 159.967 194.126C160.547 194.126 161.019 193.649 161.019 193.063C161.019 192.477 160.547 192 159.967 192Z" fill="white"/>
<path d="M188.082 177H152.303C151.143 177 150.198 178.003 150.198 179.245V212.78C150.198 214.021 151.143 215.024 152.303 215.024H188.082C189.242 215.024 190.187 214.021 190.187 212.78V179.245C190.187 178.003 189.242 177 188.082 177ZM180.91 191.324C181.058 191.473 181.186 191.622 181.304 191.791C181.156 192.446 181.195 193.151 181.432 193.787C181.392 193.807 181.363 193.827 181.323 193.847V193.827L180.979 194.055C180.704 194.244 180.448 194.492 180.251 194.771C180.192 194.473 180.044 194.125 179.848 193.797C179.848 193.678 179.828 193.499 179.828 193.31C179.887 192.526 180.281 191.81 180.9 191.344L180.91 191.324ZM177.192 195.853C177.388 195.088 177.89 194.453 178.589 194.095C179.051 194.691 179.248 195.456 179.13 196.221V196.241V196.34C179.1 196.449 179.051 196.598 178.982 196.747C178.471 196.926 178.008 197.234 177.644 197.641C177.575 197.234 177.398 196.807 177.152 196.419C177.152 196.231 177.152 196.042 177.202 195.863L177.192 195.853ZM176.129 197.025C176.129 197.025 176.178 197.095 176.198 197.125C176.513 197.562 176.69 198.068 176.729 198.605C176.739 198.774 176.729 198.952 176.7 199.121C176.7 199.121 176.611 199.489 176.601 199.529C176.07 199.658 175.578 199.916 175.165 200.284C175.165 200.214 175.155 200.144 175.146 200.085C175.116 199.866 175.077 199.658 175.008 199.469C174.919 199.221 174.831 199.042 174.732 198.873C174.949 198.039 175.441 197.403 176.129 197.045V197.025ZM173.601 199.558C173.719 199.757 173.818 199.956 173.886 200.174C173.936 200.333 173.975 200.492 173.995 200.651V200.76H174.024C174.044 200.949 174.044 201.138 174.014 201.326C174.014 201.396 174.004 201.436 173.985 201.475C173.955 201.575 173.936 201.664 173.906 201.754C173.345 201.833 172.804 202.062 172.342 202.399C172.342 202.34 172.342 202.29 172.342 202.23C172.362 201.942 172.322 201.634 172.253 201.336C172.214 201.168 172.155 200.999 172.086 200.84C172.332 200.174 172.824 199.618 173.454 199.31C173.503 199.39 173.562 199.469 173.601 199.548V199.558ZM160.508 196.598C158.275 195.724 156.799 193.936 156.681 193.161C156.681 192.238 159.376 189.317 162.957 189.238L165.171 187.132C165.298 187.013 165.476 186.963 165.643 187.003C165.81 187.043 165.948 187.172 166.007 187.331L166.499 188.681C166.548 188.83 166.538 188.989 166.459 189.128C166.381 189.268 166.243 189.357 166.085 189.377L165.112 189.516C168.427 190.35 169.184 192.029 169.873 192.108L173.109 189.695C173.168 189.645 173.257 189.645 173.316 189.695C173.375 189.744 173.404 189.824 173.375 189.893L172.125 193.142L173.375 196.39C173.404 196.459 173.375 196.549 173.316 196.588C173.257 196.638 173.168 196.638 173.109 196.588L169.873 194.175C169.164 194.254 168.407 195.982 164.993 196.797L165.672 197.343C165.8 197.453 165.869 197.611 165.869 197.78C165.869 197.949 165.771 198.098 165.633 198.188L165.131 198.525C165.003 198.605 164.856 198.635 164.718 198.595C164.58 198.555 164.452 198.456 164.393 198.327L163.734 197.025C162.839 197.115 162.003 197.025 161.236 196.807L160.508 196.568V196.598ZM166.292 204.972C165.239 205.081 164.187 205.141 163.134 205.141H162.377L161.885 205.091C161.668 205.081 161.511 204.902 161.521 204.684C161.531 204.465 161.708 204.306 161.924 204.316L162.367 204.336C163.636 204.366 164.915 204.316 166.184 204.177C166.961 204.088 167.709 203.979 168.476 203.83L168.525 204.018C168.555 204.138 168.594 204.267 168.633 204.406C168.653 204.465 168.673 204.525 168.702 204.585C167.945 204.744 167.138 204.873 166.292 204.972ZM169.253 202.469C169.41 201.694 169.892 201.038 170.571 200.651C170.729 200.85 170.866 201.058 170.975 201.287C171.063 201.466 171.132 201.644 171.171 201.833C171.23 202.062 171.25 202.3 171.24 202.528C171.24 202.628 171.23 202.717 171.211 202.807C171.191 202.936 171.161 203.065 171.112 203.184C171.004 203.154 170.906 203.134 170.797 203.124C170.679 203.105 170.552 203.095 170.424 203.095C169.991 203.095 169.607 203.154 169.253 203.273C169.204 203.005 169.204 202.737 169.253 202.469ZM171.811 206.353C171.457 206.353 171.102 206.283 170.778 206.144C170.119 205.826 169.617 205.22 169.41 204.495C169.401 204.465 169.391 204.426 169.381 204.396C169.381 204.396 169.391 204.396 169.401 204.396L169.489 204.376L169.696 204.297L169.853 204.247C169.942 204.227 170.04 204.197 170.129 204.177L170.276 204.148C170.325 204.148 170.384 204.128 170.433 204.128C170.512 204.128 170.591 204.118 170.66 204.118C170.729 204.118 170.797 204.118 170.866 204.118L171.014 204.138C171.093 204.138 171.142 204.148 171.181 204.157H171.211L171.289 204.187L171.545 204.277C171.673 204.336 171.722 204.356 171.762 204.386C171.919 204.465 172.066 204.575 172.204 204.704C172.371 204.853 172.519 205.032 172.647 205.23C172.804 205.489 172.932 205.767 173.021 206.065C172.647 206.243 172.234 206.343 171.821 206.343L171.811 206.353ZM174.555 204.783H174.418C174.054 204.753 173.699 204.634 173.385 204.436C173.316 204.297 173.158 204.108 172.991 203.929C172.863 203.8 172.726 203.691 172.568 203.601L172.804 203.393L173.001 203.254L173.306 203.075L173.601 202.936L173.788 202.876C173.857 202.856 173.926 202.836 173.985 202.826H174.25C174.319 202.826 174.368 202.826 174.418 202.826C174.467 202.826 174.683 202.826 174.683 202.826C174.919 202.856 175.175 202.926 175.421 203.045C175.46 203.065 175.519 203.105 175.569 203.124C175.795 203.254 176.011 203.432 176.198 203.631C176.306 203.74 176.415 203.85 176.503 203.959C175.992 204.485 175.293 204.783 174.555 204.783ZM177.202 202.807C177.093 202.777 176.985 202.737 176.887 202.697C176.483 202.26 175.893 201.942 175.244 201.823L175.224 201.803L175.401 201.595L175.569 201.436L175.667 201.346C175.736 201.297 175.775 201.257 175.824 201.227L176.011 201.108C176.06 201.078 176.09 201.058 176.129 201.048C176.178 201.019 176.218 201.009 176.247 200.989L176.336 200.939C176.474 200.909 176.513 200.889 176.562 200.879C176.651 200.86 176.71 200.84 176.779 200.83L176.906 200.81H177.083H177.211C177.329 200.81 177.438 200.81 177.556 200.84C177.831 200.889 178.107 200.979 178.352 201.118C178.648 201.277 178.913 201.485 179.139 201.724C178.677 202.35 177.989 202.737 177.221 202.816L177.202 202.807ZM179.838 200.045C179.7 200.075 179.543 200.085 179.395 200.085C179.248 200.085 179.09 200.065 178.933 200.035C178.697 199.896 178.382 199.797 178.057 199.727C177.959 199.668 177.841 199.598 177.713 199.509C177.811 199.31 177.9 199.171 178.008 199.032C178.087 198.933 178.166 198.843 178.254 198.754L178.431 198.575C178.51 198.505 178.598 198.436 178.697 198.366L178.864 198.267C178.982 198.217 179.021 198.198 179.061 198.188C179.13 198.158 179.189 198.138 179.258 198.118H179.277L179.366 198.098C179.553 198.058 179.74 198.039 179.926 198.039C180.31 198.039 180.704 198.128 181.048 198.307C181.225 198.386 181.382 198.486 181.54 198.595C181.205 199.3 180.586 199.827 179.828 200.045H179.838ZM182.307 196.906C182.071 197.075 181.805 197.194 181.52 197.254C181.117 197.075 180.694 196.986 180.251 196.986C180.222 196.986 180.192 196.986 180.153 196.986C180.212 196.668 180.32 196.36 180.467 196.072C180.645 195.744 180.89 195.466 181.186 195.257C181.353 195.138 181.52 195.049 181.707 194.979C181.815 194.939 181.923 194.91 182.032 194.88C182.199 194.84 182.366 194.82 182.523 194.82H182.533C182.868 194.82 183.133 194.85 183.389 194.92C183.32 195.704 182.937 196.419 182.307 196.886V196.906ZM184.353 192.377C184.058 192.913 183.566 193.33 182.986 193.539C182.966 193.539 182.956 193.539 182.937 193.539C182.819 193.539 182.671 193.559 182.523 193.589C182.366 193.142 182.307 192.655 182.366 192.188C182.405 191.92 182.484 191.671 182.612 191.433C183.006 190.748 183.655 190.281 184.412 190.122C184.717 190.847 184.698 191.671 184.353 192.387V192.377Z" fill="white"/>
</g>
<g opacity="0.8" filter="url(#filter1_d_2981_11233)">
<circle cx="413" cy="150" r="150" fill="#FDB528"/>
<circle cx="413" cy="150" r="150" fill="#FF8201"/>
</g>
<g clip-path="url(#clip1_2981_11233)">
<path d="M431.1 208.56C431.65 208.56 432.18 208.67 432.68 208.9C433.68 209.34 434.84 209.57 436.05 209.57C437.26 209.57 438.54 209.32 439.71 208.84C440.49 208.52 441.23 208.16 441.89 207.8H425.83L438.19 179.37L449.77 205.99C449.97 206.25 450.92 207.11 453.18 208.22C453.21 208.14 453.25 208.06 453.27 207.98L453.3 207.89L453.26 207.8L440.21 177.79C441.79 177.91 443.1 178.02 444.08 178.11L444.46 174C440.09 173.6 429.55 172.82 418.15 172.6C417.86 171.53 417.3 170.57 416.54 169.81C415.43 168.69 413.87 168 412.16 168C410.45 168 408.89 168.69 407.78 169.81C407.02 170.57 406.46 171.53 406.18 172.6C394.78 172.82 384.23 173.6 379.86 174L380.24 178.12C381.22 178.03 382.53 177.92 384.11 177.8L371.07 207.8H371C371 207.8 371.02 207.86 371.03 207.89L371 207.95L371.05 207.97C373.07 214.38 379.06 219.02 386.13 219.02C393.2 219.02 399.19 214.37 401.21 207.97L401.26 207.95L401.23 207.89C401.23 207.89 401.25 207.83 401.26 207.8H401.19L388.02 177.52C393.1 177.19 399.66 176.85 406.5 176.72C406.81 177.42 407.24 178.04 407.77 178.57C408.31 179.11 408.96 179.56 409.67 179.87V223.47H404.69C404.69 223.47 403.5 230.92 398.13 232.12V236H426.16V232.12C420.79 230.93 419.6 223.47 419.6 223.47H414.62V179.88C415.34 179.57 415.98 179.12 416.52 178.58C417.05 178.05 417.49 177.42 417.8 176.73C424.63 176.86 431.2 177.2 436.28 177.53L423.11 207.81H423.04C423.04 207.81 423.06 207.87 423.07 207.9L423.04 207.96L423.09 207.98C423.89 210.52 425.33 212.77 427.2 214.58C427.18 213.89 427.16 213.19 427.16 212.49C427.16 210.33 428.91 208.57 431.07 208.57L431.1 208.56ZM398.5 207.8H373.77L386.14 179.37L398.5 207.8ZM414.51 176.53C414.46 176.58 414.4 176.63 414.34 176.68C413.76 177.2 413.01 177.5 412.17 177.5C411.33 177.5 410.58 177.2 410 176.68C409.94 176.64 409.89 176.59 409.84 176.53C409.24 175.93 408.87 175.11 408.87 174.19C408.87 173.59 409.03 173.03 409.3 172.55C409.45 172.29 409.63 172.06 409.83 171.85C410.43 171.25 411.25 170.88 412.17 170.88C413.09 170.88 413.91 171.25 414.5 171.85C414.71 172.06 414.89 172.29 415.03 172.55C415.31 173.03 415.47 173.59 415.47 174.19C415.47 175.11 415.1 175.93 414.5 176.53H414.51Z" fill="white"/>
<path d="M463.65 212.831C461.4 213.821 458.52 214.081 455.68 213.311C455.15 213.171 454.63 213.001 454.11 212.791C453.71 212.631 453.21 212.401 452.66 212.141C451.4 211.531 449.89 210.681 448.83 209.771C448.3 209.311 447.53 209.321 447 209.771C445.48 211.081 443.03 212.251 441.73 212.781C438.41 214.161 434.86 213.991 432.2 212.821C431.72 212.611 431.18 212.951 431.18 213.481C431.18 215.091 431.24 216.601 431.35 218.041C431.45 219.361 431.59 220.601 431.76 221.781C434.68 241.791 447.93 242.791 447.93 242.791C447.93 242.791 464.68 241.561 464.68 213.481C464.68 212.961 464.14 212.611 463.66 212.821L463.65 212.831ZM447.93 239.421C446.23 239.131 437.96 237.001 435.34 222.931C435.14 221.851 434.97 220.701 434.84 219.481C434.76 218.671 434.68 217.851 434.63 216.971C435.36 217.071 436.1 217.131 436.85 217.131C438.98 217.131 441.05 216.721 443.02 215.901C444.09 215.461 446.12 214.541 447.93 213.291C448.83 213.911 449.79 214.451 450.65 214.891C451.52 215.331 452.3 215.671 452.84 215.901C453.13 216.021 453.42 216.111 453.71 216.211C455.42 216.811 457.2 217.131 459.01 217.131C459.76 217.131 460.5 217.081 461.23 216.971C460.13 236.451 449.84 239.101 447.93 239.421Z" fill="white"/>
<path d="M447.95 217.24C446.3 218.38 444.43 219.2 442.42 219.65C441.09 220.05 439.72 220.32 438.33 220.42C439.99 232.66 445.95 235.4 447.94 235.98C449.93 235.4 455.89 232.67 457.55 220.42C455.49 220.27 453.49 219.79 451.57 218.99C450.75 218.65 449.4 218.05 447.97 217.24H447.95Z" fill="white"/>
</g>
<path d="M350.769 85.6642H345.921C345.977 86.6365 346.208 87.5719 346.616 88.4701C347.032 89.3591 347.658 90.1648 348.491 90.8871C349.324 91.6094 350.371 92.1743 351.63 92.5818L349.686 95.6655C348.334 95.2581 347.181 94.6469 346.227 93.832C345.273 93.0078 344.504 92.0262 343.921 90.8871C343.347 92.1466 342.555 93.23 341.546 94.1376C340.536 95.0451 339.314 95.7211 337.878 96.1656L335.823 93.0263C337.147 92.6096 338.244 92.0169 339.115 91.2483C339.994 90.4797 340.647 89.6184 341.073 88.6646C341.509 87.7015 341.754 86.7014 341.81 85.6642H336.934V82.4971H350.769V85.6642ZM340.018 97.388H357.631V106.667H353.658V100.555H340.018V97.388ZM350.075 87.1366H353.658V81.1636H357.631V96.3323H353.658V90.3871H350.075V87.1366ZM382.218 96.3045H378.245V90.4704H374.633V87.2477H378.245V81.1636H382.218V96.3045ZM360.381 93.2208C361.696 92.7948 362.789 92.1975 363.66 91.4289C364.539 90.651 365.197 89.7805 365.632 88.8174C366.077 87.8543 366.331 86.8495 366.396 85.8031H361.521V82.6082H375.356V85.8031H370.522C370.624 87.294 371.142 88.6507 372.077 89.8731C373.013 91.0955 374.393 92.0076 376.217 92.6096L374.272 95.7489C372.929 95.3229 371.777 94.6978 370.813 93.8736C369.86 93.0495 369.096 92.0725 368.521 90.9427C367.947 92.2206 367.156 93.3273 366.146 94.2626C365.137 95.1979 363.91 95.9063 362.465 96.3879L360.381 93.2208ZM364.604 101.75C364.604 100.722 364.956 99.8374 365.66 99.0966C366.373 98.3465 367.392 97.7723 368.716 97.3741C370.04 96.9759 371.605 96.7768 373.411 96.7768C375.245 96.7768 376.823 96.9759 378.148 97.3741C379.481 97.7723 380.505 98.3418 381.218 99.0827C381.94 99.8235 382.301 100.713 382.301 101.75C382.301 102.787 381.94 103.676 381.218 104.417C380.505 105.158 379.481 105.727 378.148 106.125C376.823 106.523 375.245 106.723 373.411 106.723C371.605 106.723 370.04 106.523 368.716 106.125C367.392 105.727 366.373 105.153 365.66 104.403C364.956 103.662 364.604 102.778 364.604 101.75ZM368.577 101.75C368.577 103.028 370.151 103.667 373.3 103.667C374.976 103.667 376.231 103.514 377.064 103.208C377.898 102.893 378.319 102.407 378.328 101.75C378.319 101.083 377.907 100.592 377.092 100.277C376.277 99.9624 375.05 99.805 373.411 99.805C371.8 99.805 370.591 99.9624 369.786 100.277C368.98 100.592 368.577 101.083 368.577 101.75ZM411.805 90.7482H415.222V94.0264H411.805V106.584H407.805V81.1636H411.805V90.7482ZM391.163 99.2771C394.117 97.7862 396.382 96.0545 397.956 94.082C399.54 92.1002 400.503 89.7388 400.845 86.9977H392.691V83.7195H404.915C404.915 87.8682 404.026 91.5029 402.248 94.6237C400.479 97.7445 397.535 100.314 393.414 102.333L391.163 99.2771ZM429.863 82.7194C429.863 83.5435 429.798 84.3585 429.669 85.1641H433.78V81.1914H437.753V96.3045H433.78V93.7486H428.279V90.5537H433.78V88.3034H428.766C427.914 90.2574 426.571 91.9104 424.737 93.2624C422.913 94.6145 420.63 95.647 417.889 96.3601L416.417 93.193C419.139 92.517 421.269 91.5492 422.807 90.2898C424.344 89.0211 425.261 87.5719 425.557 85.942H417.889V82.7194H429.863ZM420.14 97.3324H437.753V106.584H433.78V100.444H420.14V97.3324ZM470.396 98.4437H465.146V106.667H461.089V98.4437H456.283V106.667H452.199V98.4437H447.088V95.2488H470.396V98.4437ZM449.338 87.7756C449.338 86.618 449.727 85.5994 450.505 84.7196C451.292 83.8399 452.394 83.1639 453.811 82.6916C455.228 82.21 456.848 81.9693 458.672 81.9693C460.497 81.9693 462.117 82.21 463.534 82.6916C464.96 83.1639 466.072 83.8399 466.868 84.7196C467.664 85.5994 468.063 86.618 468.063 87.7756C468.063 88.9146 467.664 89.9101 466.868 90.7621C466.081 91.6141 464.974 92.2762 463.548 92.7485C462.131 93.2115 460.506 93.443 458.672 93.443C456.839 93.443 455.214 93.2115 453.797 92.7485C452.389 92.2762 451.292 91.6141 450.505 90.7621C449.727 89.9101 449.338 88.9146 449.338 87.7756ZM453.45 87.7756C453.44 88.5905 453.894 89.2156 454.811 89.6508C455.737 90.0768 457.024 90.2945 458.672 90.3037C460.33 90.2945 461.617 90.0768 462.534 89.6508C463.46 89.2156 463.923 88.5905 463.923 87.7756C463.923 86.9236 463.465 86.2754 462.548 85.8309C461.631 85.3771 460.339 85.1456 458.672 85.1363C457.024 85.1456 455.737 85.3771 454.811 85.8309C453.894 86.2754 453.44 86.9236 453.45 87.7756ZM481.814 87.8312C481.814 89.248 482.032 90.6325 482.467 91.9845C482.903 93.3273 483.583 94.5404 484.509 95.6239C485.445 96.7074 486.621 97.5362 488.038 98.1103L485.898 101.25C484.463 100.648 483.241 99.7865 482.231 98.6659C481.222 97.5454 480.425 96.2258 479.842 94.7071C479.259 96.374 478.453 97.8279 477.425 99.0688C476.406 100.3 475.175 101.24 473.73 101.889L471.452 98.7493C472.86 98.1288 474.031 97.2445 474.966 96.0962C475.911 94.9386 476.605 93.6468 477.05 92.2206C477.504 90.7945 477.731 89.3314 477.731 87.8312V86.831H472.508V83.5806H486.926V86.831H481.814V87.8312ZM489.093 81.1636H493.122V106.667H489.093V81.1636ZM307.499 122.553C307.49 123.988 307.842 125.294 308.555 126.47C309.268 127.637 310.389 128.545 311.917 129.193V118.636H315.612V124.22H317.334V118.191H321.14V133.749H317.334V127.443H315.612V132.943H311.917V129.596L310.027 132.332C308.055 131.582 306.583 130.258 305.61 128.359C305.138 129.461 304.504 130.425 303.707 131.249C302.911 132.064 301.952 132.703 300.832 133.166L298.693 130.082C300.397 129.341 301.637 128.295 302.415 126.943C303.193 125.591 303.582 124.127 303.582 122.553V119.719H307.499V122.553ZM303.443 138.833C303.443 137.842 303.804 136.986 304.527 136.263C305.249 135.541 306.282 134.985 307.624 134.596C308.967 134.198 310.537 133.999 312.333 133.999C314.13 133.999 315.7 134.198 317.042 134.596C318.385 134.985 319.422 135.541 320.154 136.263C320.895 136.986 321.27 137.842 321.279 138.833C321.27 139.824 320.895 140.685 320.154 141.417C319.422 142.148 318.385 142.709 317.042 143.098C315.7 143.486 314.13 143.676 312.333 143.667C310.537 143.676 308.967 143.486 307.624 143.098C306.291 142.709 305.258 142.148 304.527 141.417C303.804 140.685 303.443 139.824 303.443 138.833ZM307.444 138.833C307.435 139.453 307.837 139.917 308.652 140.222C309.467 140.518 310.657 140.667 312.222 140.667C315.547 140.667 317.223 140.055 317.251 138.833C317.241 138.213 316.815 137.75 315.973 137.444C315.13 137.129 313.917 136.981 312.333 136.999C310.741 136.981 309.523 137.129 308.68 137.444C307.847 137.75 307.435 138.213 307.444 138.833ZM333.42 122.414C333.41 123.525 333.605 124.581 334.003 125.581C334.401 126.572 335.035 127.461 335.906 128.248C336.776 129.026 337.892 129.628 339.254 130.054L337.142 133.193C335.809 132.749 334.67 132.119 333.725 131.304C332.781 130.48 332.026 129.498 331.461 128.359C330.877 129.6 330.081 130.67 329.072 131.568C328.072 132.466 326.863 133.147 325.446 133.61L323.224 130.471C324.659 130.036 325.835 129.401 326.752 128.568C327.669 127.734 328.335 126.79 328.752 125.734C329.169 124.678 329.382 123.562 329.391 122.386V119.747H333.42V122.414ZM327.335 134.971H331.391V140.055H344.921V143.25H327.335V134.971ZM340.059 118.191H344.06V125.415H347.366V128.776H344.06V136.805H340.059V118.191ZM358.006 124.831C357.997 126.174 358.205 127.512 358.631 128.846C359.066 130.17 359.742 131.388 360.659 132.499C361.585 133.61 362.738 134.481 364.118 135.11L361.896 138.25C360.544 137.638 359.377 136.763 358.395 135.624C357.413 134.485 356.631 133.156 356.048 131.638C355.473 133.314 354.677 134.782 353.658 136.041C352.64 137.3 351.422 138.259 350.005 138.916L347.699 135.749C349.107 135.101 350.278 134.194 351.214 133.027C352.158 131.86 352.848 130.568 353.283 129.151C353.728 127.734 353.95 126.294 353.95 124.831V123.831H348.755V120.581H362.951V123.831H358.006V124.831ZM364.563 118.164H368.563V127.72H372.175V131.026H368.563V143.667H364.563V118.164ZM380.509 119.636C381.806 119.636 382.986 119.909 384.051 120.456C385.126 121.002 385.973 121.757 386.593 122.72C387.223 123.683 387.538 124.766 387.538 125.97C387.538 126.961 387.325 127.873 386.899 128.707C386.473 129.54 385.88 130.244 385.121 130.818C384.371 131.392 383.51 131.804 382.537 132.054V135.277C384.639 135.166 386.482 134.999 388.066 134.777L388.344 137.722C386.464 138.092 384.51 138.347 382.482 138.486C380.463 138.625 378.361 138.694 376.175 138.694C375.416 138.694 374.407 138.685 373.147 138.666L372.647 135.471C375.166 135.471 377.129 135.458 378.537 135.43V132.082C377.527 131.841 376.634 131.439 375.856 130.874C375.087 130.299 374.49 129.591 374.064 128.748C373.638 127.906 373.425 126.98 373.425 125.97C373.425 124.757 373.73 123.674 374.342 122.72C374.953 121.757 375.796 121.002 376.87 120.456C377.953 119.909 379.166 119.636 380.509 119.636ZM377.342 125.97C377.342 126.581 377.476 127.109 377.745 127.554C378.013 127.998 378.389 128.341 378.87 128.582C379.352 128.813 379.898 128.924 380.509 128.915C381.093 128.924 381.616 128.813 382.079 128.582C382.551 128.341 382.922 127.998 383.19 127.554C383.459 127.109 383.593 126.581 383.593 125.97C383.593 125.35 383.459 124.817 383.19 124.373C382.922 123.928 382.551 123.595 382.079 123.373C381.616 123.141 381.093 123.025 380.509 123.025C379.565 123.025 378.796 123.285 378.203 123.803C377.62 124.313 377.333 125.035 377.342 125.97ZM389.344 118.164H393.344V127.998H396.595V131.36H393.344V143.667H389.344V118.164ZM427.182 140.722H403.873V137.527H413.402V131.915H417.375V137.527H427.182V140.722ZM404.318 129.554C406.281 129.267 407.93 128.697 409.263 127.845C410.606 126.984 411.601 125.979 412.25 124.831C412.898 123.674 413.227 122.498 413.236 121.303V119.553H417.514V121.303C417.505 122.516 417.824 123.697 418.473 124.845C419.121 125.993 420.121 126.993 421.473 127.845C422.825 128.697 424.497 129.267 426.488 129.554L424.793 132.888C422.552 132.499 420.635 131.772 419.042 130.707C417.449 129.642 416.222 128.327 415.361 126.762C414.509 128.318 413.291 129.633 411.708 130.707C410.124 131.772 408.226 132.499 406.013 132.888L404.318 129.554ZM449.88 143.723H445.851V118.164H449.88V143.723ZM429.655 120.164H433.683V126.192H438.489V120.164H442.434V137.833H429.655V120.164ZM438.489 134.582V129.276H433.683V134.582H438.489ZM462.715 124.831C462.705 126.174 462.914 127.512 463.34 128.846C463.775 130.17 464.451 131.388 465.368 132.499C466.294 133.61 467.447 134.481 468.827 135.11L466.604 138.25C465.252 137.638 464.085 136.763 463.104 135.624C462.122 134.485 461.34 133.156 460.756 131.638C460.182 133.314 459.386 134.782 458.367 136.041C457.348 137.3 456.13 138.259 454.714 138.916L452.408 135.749C453.815 135.101 454.987 134.194 455.922 133.027C456.867 131.86 457.557 130.568 457.992 129.151C458.436 127.734 458.659 126.294 458.659 124.831V123.831H453.463V120.581H467.66V123.831H462.715V124.831ZM469.271 118.164H473.272V127.72H476.883V131.026H473.272V143.667H469.271V118.164ZM507.304 140.806H483.995V137.555H493.636V133.082H486.385V119.747H490.385V123.498H500.803V119.747H504.804V133.082H497.581V137.555H507.304V140.806ZM500.803 129.915V126.637H490.385V129.915H500.803ZM530.835 124.387H509.527V121.22H518.167V118.386H522.167V121.22H530.835V124.387ZM508.582 138H518.167V135.263C516.75 135.124 515.527 134.842 514.499 134.416C513.481 133.981 512.698 133.416 512.152 132.721C511.606 132.027 511.332 131.221 511.332 130.304C511.332 129.267 511.689 128.373 512.402 127.623C513.115 126.873 514.134 126.299 515.458 125.901C516.791 125.503 518.361 125.303 520.167 125.303C521.945 125.303 523.496 125.503 524.82 125.901C526.145 126.299 527.163 126.878 527.876 127.637C528.589 128.387 528.946 129.276 528.946 130.304C528.946 131.212 528.673 132.013 528.126 132.707C527.589 133.402 526.811 133.967 525.793 134.402C524.774 134.837 523.565 135.124 522.167 135.263V138H531.891V141.194H508.582V138ZM515.472 130.304C515.463 130.971 515.842 131.452 516.611 131.749C517.379 132.045 518.565 132.193 520.167 132.193C521.732 132.193 522.899 132.045 523.667 131.749C524.445 131.443 524.834 130.962 524.834 130.304C524.834 129.647 524.445 129.17 523.667 128.873C522.889 128.568 521.723 128.415 520.167 128.415C518.574 128.415 517.389 128.568 516.611 128.873C515.842 129.17 515.463 129.647 515.472 130.304Z" fill="white"/>
<g opacity="0.8" filter="url(#filter2_d_2981_11233)">
<circle cx="682" cy="150" r="150" fill="#1BBCBC"/>
</g>
<path d="M696.673 182.648C697.913 182.648 699.124 182.281 700.155 181.592C701.186 180.903 701.989 179.924 702.464 178.779C702.938 177.634 703.062 176.374 702.82 175.158C702.578 173.942 701.982 172.825 701.105 171.949C700.228 171.072 699.112 170.475 697.896 170.233C696.68 169.991 695.42 170.116 694.274 170.59C693.129 171.064 692.15 171.868 691.462 172.898C690.773 173.929 690.405 175.141 690.405 176.381C690.407 178.042 691.068 179.636 692.243 180.811C693.418 181.986 695.011 182.647 696.673 182.648Z" fill="white"/>
<path d="M671.353 182.536C672.593 182.538 673.806 182.172 674.838 181.484C675.87 180.797 676.675 179.818 677.151 178.673C677.627 177.528 677.753 176.268 677.512 175.051C677.271 173.835 676.675 172.717 675.799 171.839C674.923 170.962 673.806 170.364 672.59 170.121C671.374 169.879 670.113 170.002 668.967 170.476C667.821 170.95 666.842 171.754 666.153 172.785C665.464 173.816 665.096 175.028 665.096 176.268C665.098 177.928 665.757 179.519 666.93 180.694C668.103 181.869 669.693 182.531 671.353 182.536Z" fill="white"/>
<path d="M688.842 190.627C688.682 184.228 679.317 184.228 679.157 190.627C679.317 197.012 688.682 197.012 688.842 190.627Z" fill="white"/>
<path d="M670.75 210.727C671.006 210.922 671.327 211.01 671.646 210.973C671.965 210.937 672.258 210.778 672.463 210.53C672.667 210.282 672.768 209.965 672.744 209.645C672.72 209.324 672.573 209.026 672.333 208.811C665.403 202.918 662.516 198.329 666.134 191.944C666.333 191.656 666.636 191.459 666.978 191.393C667.321 191.328 667.676 191.4 667.966 191.594C668.256 191.788 668.458 192.088 668.529 192.43C668.599 192.772 668.532 193.127 668.343 193.42C665.975 197.517 667.544 200.537 671.615 204.608C674.952 201.414 679.392 199.63 684.011 199.627C688.629 199.625 693.071 201.404 696.411 204.594C700.455 200.51 702.025 197.517 699.657 193.42C699.559 193.275 699.49 193.112 699.455 192.941C699.42 192.769 699.419 192.593 699.453 192.421C699.486 192.249 699.553 192.086 699.65 191.94C699.747 191.794 699.871 191.669 700.016 191.571C702.411 190.307 703.409 195.349 703.409 197.038C703.462 200.723 700.894 204.515 695.667 208.811C695.427 209.026 695.28 209.324 695.256 209.645C695.232 209.965 695.333 210.282 695.537 210.53C695.742 210.778 696.035 210.937 696.354 210.973C696.673 211.01 696.994 210.922 697.25 210.727C702.584 206.111 705.524 202.838 705.896 197.251C706.242 189.137 697.276 183.017 689.8 185.864C690.563 186.794 691.092 187.893 691.341 189.07C691.591 190.247 691.554 191.466 691.233 192.626C690.912 193.785 690.318 194.85 689.499 195.732C688.681 196.613 687.662 197.285 686.53 197.69C685.397 198.096 684.184 198.223 682.992 198.061C681.8 197.899 680.665 197.454 679.681 196.761C678.698 196.069 677.895 195.15 677.341 194.082C676.787 193.015 676.497 191.829 676.497 190.627C676.493 188.889 677.096 187.205 678.2 185.864C676.522 185.281 674.737 185.072 672.97 185.251C671.203 185.43 669.497 185.994 667.97 186.902C665.902 188.094 664.249 189.89 663.231 192.049C662.213 194.208 661.88 196.627 662.277 198.981C663.248 203.477 665.895 206.616 670.75 210.727Z" fill="white"/>
<path d="M692.581 209.543C692.627 208.91 692.818 208.295 693.139 207.746C693.459 207.197 693.901 206.729 694.43 206.377C691.602 203.728 687.875 202.249 684 202.24C680.13 202.243 676.407 203.728 673.598 206.39C674.12 206.744 674.555 207.212 674.87 207.758C675.186 208.304 675.374 208.914 675.42 209.543C675.457 210.217 675.318 210.889 675.017 211.493C674.717 212.097 674.264 212.612 673.704 212.989C676.971 215.263 680.414 217.273 684 219.001C687.579 217.267 691.017 215.256 694.283 212.989C693.729 212.607 693.282 212.09 692.984 211.487C692.686 210.884 692.547 210.215 692.581 209.543Z" fill="white"/>
<path d="M713.758 196.617C713.492 196.875 713.281 197.184 713.138 197.526C712.995 197.868 712.923 198.235 712.926 198.606V212.802C712.903 213.74 712.522 214.634 711.86 215.299L700.835 226.323C700.589 226.558 700.26 226.687 699.92 226.682C699.579 226.678 699.254 226.54 699.014 226.298C698.775 226.057 698.639 225.731 698.637 225.39C698.634 225.05 698.766 224.722 699.002 224.477L710.027 213.452C710.124 213.359 710.201 213.248 710.254 213.124C710.307 213.001 710.335 212.868 710.336 212.734C710.338 212.599 710.312 212.466 710.261 212.342C710.21 212.217 710.135 212.104 710.04 212.009C708.961 210.936 707.502 210.333 705.98 210.33C704.458 210.328 702.997 210.927 701.914 211.996L691.917 221.123C690.964 221.992 690.203 223.05 689.682 224.23C689.16 225.409 688.89 226.685 688.888 227.974V240H704.45C704.256 237.602 704.935 235.216 706.361 233.278L717.151 218.874C718.056 217.681 718.545 216.224 718.542 214.727V198.606C718.534 198.055 718.366 197.519 718.057 197.063C717.748 196.607 717.312 196.251 716.804 196.04C716.295 195.828 715.736 195.77 715.194 195.873C714.653 195.975 714.154 196.234 713.758 196.617Z" fill="white"/>
<path d="M666.137 212.036C665.058 210.95 663.593 210.337 662.063 210.329C660.533 210.322 659.062 210.921 657.973 211.996C657.781 212.19 657.674 212.452 657.674 212.724C657.674 212.997 657.781 213.259 657.973 213.452L668.997 224.477C669.234 224.722 669.366 225.05 669.364 225.39C669.361 225.731 669.226 226.057 668.986 226.299C668.746 226.541 668.42 226.679 668.08 226.683C667.739 226.688 667.41 226.559 667.164 226.323L656.139 215.299C655.476 214.635 655.094 213.741 655.073 212.802C655.076 212.789 655.069 198.617 655.073 198.606C655.077 198.238 655.006 197.874 654.866 197.534C654.725 197.195 654.517 196.887 654.254 196.63C653.86 196.243 653.361 195.981 652.818 195.875C652.276 195.769 651.715 195.825 651.204 196.035C650.693 196.246 650.255 196.602 649.945 197.058C649.634 197.515 649.465 198.053 649.457 198.606V214.727C649.456 216.228 649.944 217.688 650.848 218.887L661.639 233.266C663.063 235.208 663.741 237.599 663.55 240H679.112V227.974C679.11 226.685 678.839 225.41 678.318 224.23C677.796 223.05 677.035 221.992 676.082 221.123L666.137 212.036Z" fill="white"/>
<path d="M655.635 84.3029V85.1363C655.635 86.1457 655.603 87.1088 655.538 88.0256C655.473 88.9424 655.348 89.9148 655.163 90.9427H658.302V94.1098H648.606V97.4158H655.607V106.667H651.607V100.555H637.299V97.4158H644.578V94.1098H634.993V90.9427H651.107C651.301 89.9426 651.435 89.0072 651.51 88.1368C651.584 87.257 651.625 86.3495 651.635 85.4142H637.799V82.2471H655.635V84.3029ZM673.443 95.5822H660.858V83.1639H673.443V95.5822ZM663.72 97.6103H667.776V103H681.639V106.195H663.72V97.6103ZM669.498 92.4429V86.3032H664.803V92.4429H669.498ZM676.999 81.1914H681V99.2771H676.999V81.1914ZM692.501 85.5531C692.492 86.9884 692.844 88.2942 693.557 89.4703C694.27 90.6371 695.39 91.5446 696.918 92.1929V81.6359H700.613V87.22H702.336V81.1914H706.142V96.749H702.336V90.4426H700.613V95.9434H696.918V92.5957L695.029 95.3322C693.057 94.5821 691.584 93.2578 690.612 91.3594C690.14 92.4614 689.505 93.4245 688.709 94.2487C687.913 95.0636 686.954 95.7026 685.834 96.1656L683.694 93.0819C685.398 92.341 686.639 91.2946 687.417 89.9426C688.195 88.5905 688.584 87.1274 688.584 85.5531V82.7194H692.501V85.5531ZM688.445 101.833C688.445 100.842 688.806 99.9856 689.529 99.2633C690.251 98.5409 691.283 97.9853 692.626 97.5964C693.969 97.1982 695.539 96.9991 697.335 96.9991C699.132 96.9991 700.701 97.1982 702.044 97.5964C703.387 97.9853 704.424 98.5409 705.156 99.2633C705.897 99.9856 706.272 100.842 706.281 101.833C706.272 102.824 705.897 103.685 705.156 104.417C704.424 105.148 703.387 105.709 702.044 106.098C700.701 106.486 699.132 106.676 697.335 106.667C695.539 106.676 693.969 106.486 692.626 106.098C691.293 105.709 690.26 105.148 689.529 104.417C688.806 103.685 688.445 102.824 688.445 101.833ZM692.446 101.833C692.436 102.453 692.839 102.917 693.654 103.222C694.469 103.518 695.659 103.667 697.224 103.667C700.549 103.667 702.225 103.055 702.253 101.833C702.243 101.213 701.817 100.75 700.975 100.444C700.132 100.129 698.919 99.9809 697.335 99.9995C695.742 99.9809 694.525 100.129 693.682 100.444C692.848 100.75 692.436 101.213 692.446 101.833ZM729.284 87.0255H732.368V90.3593H729.284V96.1656H725.283V81.1636H729.284V87.0255ZM708.42 93.3041C710.985 93.3041 712.976 93.2856 714.393 93.2486V92.2623C713.013 92.0864 711.934 91.7159 711.156 91.151C710.388 90.5769 710.004 89.8499 710.004 88.9702C710.004 88.2942 710.263 87.7108 710.781 87.22C711.3 86.7199 712.036 86.3402 712.99 86.0809C713.944 85.8216 715.06 85.692 716.338 85.692C717.616 85.692 718.732 85.8216 719.685 86.0809C720.639 86.3402 721.375 86.7199 721.894 87.22C722.413 87.7108 722.672 88.2942 722.672 88.9702C722.672 89.8499 722.292 90.5723 721.533 91.1372C720.774 91.6928 719.718 92.0678 718.366 92.2623V93.1096C720.431 93.0078 722.385 92.8411 724.228 92.6096L724.506 95.0544C722.116 95.4618 719.676 95.7211 717.185 95.8322C714.703 95.9434 711.92 95.9989 708.837 95.9989L708.42 93.3041ZM709.087 82.6638H714.393V80.9691H718.366V82.6638H723.617V85.303H709.087V82.6638ZM711.809 96.9991H729.284V102.889H715.838V103.889H730.09V106.528H711.837V100.5H725.283V99.6105H711.809V96.9991ZM713.837 88.9702C713.828 89.2851 714.032 89.5212 714.449 89.6786C714.875 89.8268 715.504 89.9055 716.338 89.9148C717.171 89.9055 717.796 89.8268 718.213 89.6786C718.63 89.5305 718.838 89.2943 718.838 88.9702C718.838 88.6831 718.63 88.4748 718.213 88.3451C717.806 88.2155 717.18 88.146 716.338 88.1368C715.495 88.146 714.865 88.2155 714.449 88.3451C714.032 88.4748 713.828 88.6831 713.837 88.9702ZM652.121 125.359H655.427V128.637H652.121V136.666H648.12V118.191H652.121V125.359ZM631.896 126.304C631.887 125.063 632.192 123.947 632.813 122.956C633.442 121.956 634.299 121.178 635.382 120.622C636.475 120.057 637.674 119.775 638.98 119.775C640.277 119.775 641.462 120.057 642.536 120.622C643.61 121.178 644.458 121.956 645.078 122.956C645.699 123.947 646.009 125.063 646.009 126.304C646.009 127.535 645.699 128.651 645.078 129.651C644.458 130.642 643.61 131.42 642.536 131.985C641.462 132.55 640.277 132.832 638.98 132.832C637.674 132.832 636.48 132.55 635.396 131.985C634.313 131.42 633.456 130.642 632.827 129.651C632.197 128.651 631.887 127.535 631.896 126.304ZM635.396 134.721H639.397V140.055H652.954V143.25H635.396V134.721ZM635.813 126.304C635.813 126.924 635.952 127.466 636.23 127.929C636.508 128.392 636.887 128.748 637.369 128.998C637.85 129.239 638.387 129.36 638.98 129.36C639.573 129.36 640.105 129.239 640.578 128.998C641.05 128.748 641.425 128.396 641.703 127.943C641.981 127.48 642.119 126.933 642.119 126.304C642.119 125.655 641.981 125.104 641.703 124.651C641.425 124.188 641.05 123.836 640.578 123.595C640.105 123.354 639.573 123.238 638.98 123.248C638.387 123.238 637.85 123.354 637.369 123.595C636.887 123.836 636.508 124.188 636.23 124.651C635.952 125.114 635.813 125.665 635.813 126.304ZM677.985 133.305H674.013V127.47H670.401V124.248H674.013V118.164H677.985V133.305ZM656.149 130.221C657.464 129.795 658.557 129.197 659.427 128.429C660.307 127.651 660.965 126.78 661.4 125.817C661.844 124.854 662.099 123.85 662.164 122.803H657.288V119.608H671.123V122.803H666.289C666.391 124.294 666.91 125.651 667.845 126.873C668.78 128.095 670.16 129.008 671.985 129.61L670.04 132.749C668.697 132.323 667.544 131.698 666.581 130.874C665.627 130.049 664.863 129.072 664.289 127.943C663.715 129.221 662.923 130.327 661.914 131.263C660.904 132.198 659.677 132.906 658.233 133.388L656.149 130.221ZM660.372 138.75C660.372 137.722 660.724 136.837 661.428 136.097C662.141 135.346 663.159 134.772 664.484 134.374C665.808 133.976 667.373 133.777 669.179 133.777C671.012 133.777 672.591 133.976 673.915 134.374C675.249 134.772 676.272 135.342 676.985 136.083C677.708 136.824 678.069 137.713 678.069 138.75C678.069 139.787 677.708 140.676 676.985 141.417C676.272 142.158 675.249 142.727 673.915 143.125C672.591 143.523 671.012 143.723 669.179 143.723C667.373 143.723 665.808 143.523 664.484 143.125C663.159 142.727 662.141 142.153 661.428 141.403C660.724 140.662 660.372 139.778 660.372 138.75ZM664.345 138.75C664.345 140.028 665.919 140.667 669.067 140.667C670.744 140.667 671.998 140.514 672.832 140.208C673.665 139.893 674.087 139.407 674.096 138.75C674.087 138.083 673.675 137.592 672.86 137.277C672.045 136.962 670.818 136.805 669.179 136.805C667.567 136.805 666.359 136.962 665.553 137.277C664.747 137.592 664.345 138.083 664.345 138.75ZM708.184 132.554H700.933V137.611H710.656V140.861H687.348V137.611H696.988V132.554H690.015V119.886H708.017V123.053H694.015V129.415H708.184V132.554ZM735.243 140.778H711.934V137.527H721.575V132.61H714.324V119.969H732.743V132.61H725.52V137.527H735.243V140.778ZM728.77 129.498V123.164H718.269V129.498H728.77Z" fill="white"/>
<path d="M18.9191 357.484L21.9367 354.477L18.9191 351.469L20.4621 349.945L23.4699 352.953L26.4777 349.945L28.0012 351.469L24.9933 354.477L28.0012 357.484L26.4777 359.008L23.4699 356L20.4621 359.008L18.9191 357.484ZM17.5129 354.457C17.5129 354.092 17.6431 353.793 17.9035 353.559C18.1639 353.318 18.5155 353.194 18.9582 353.188C19.3879 353.194 19.7329 353.314 19.9933 353.549C20.2538 353.783 20.384 354.079 20.384 354.438C20.384 354.809 20.257 355.115 20.0031 355.355C19.7492 355.59 19.4009 355.707 18.9582 355.707C18.5155 355.707 18.1639 355.59 17.9035 355.355C17.6431 355.121 17.5129 354.822 17.5129 354.457ZM22.0051 358.93C22.0051 358.565 22.1288 358.266 22.3762 358.031C22.6301 357.797 22.9751 357.68 23.4113 357.68C23.841 357.68 24.1893 357.797 24.4562 358.031C24.7232 358.259 24.8566 358.552 24.8566 358.91C24.8566 359.275 24.7264 359.577 24.466 359.818C24.2056 360.053 23.8605 360.173 23.4308 360.18C22.9946 360.173 22.6463 360.053 22.3859 359.818C22.132 359.584 22.0051 359.288 22.0051 358.93ZM22.0051 350.062C22.0051 349.691 22.1288 349.389 22.3762 349.154C22.6301 348.913 22.9751 348.793 23.4113 348.793C23.841 348.793 24.1893 348.91 24.4562 349.145C24.7232 349.372 24.8566 349.672 24.8566 350.043C24.8566 350.401 24.7264 350.701 24.466 350.941C24.2056 351.176 23.8605 351.293 23.4308 351.293C22.9946 351.293 22.6463 351.176 22.3859 350.941C22.132 350.707 22.0051 350.414 22.0051 350.062ZM26.4387 354.457C26.4452 354.092 26.5786 353.793 26.8391 353.559C27.106 353.318 27.4608 353.194 27.9035 353.188C28.3267 353.194 28.6685 353.314 28.9289 353.549C29.1958 353.783 29.3293 354.079 29.3293 354.438C29.3293 354.809 29.1991 355.115 28.9387 355.355C28.6782 355.59 28.3332 355.707 27.9035 355.707C27.4608 355.707 27.106 355.59 26.8391 355.355C26.5786 355.121 26.4452 354.822 26.4387 354.457ZM51.5043 362.738H49.434V353.734H47.4418V361.84H45.4496V345.414H47.4418V351.996H49.434V345.082H51.5043V362.738ZM36.8558 347.172H43.4574V348.93H39.0433V356.781C40.0655 356.768 40.99 356.729 41.8168 356.664C42.6436 356.599 43.4835 356.488 44.3363 356.332L44.4926 358.109C43.5095 358.305 42.5427 358.435 41.5922 358.5C40.6482 358.565 39.4665 358.604 38.0473 358.617H36.8558V347.172ZM70.1504 349.398H67.6699V351.312H70.1504V353.129H67.6699V355.766H65.5019V345.102H67.6699V347.602H70.1504V349.398ZM54.4082 346.176H62.4746V351.254H56.5957V353.109C58.1712 353.096 59.5189 353.054 60.6387 352.982C61.765 352.904 62.9043 352.771 64.0566 352.582L64.291 354.32C63.0931 354.542 61.8919 354.691 60.6875 354.77C59.4896 354.848 58.0312 354.887 56.3125 354.887H55.873H54.4277V349.613H60.3457V347.895H54.4082V346.176ZM55.9316 359.438C55.9316 358.747 56.1693 358.155 56.6445 357.66C57.1263 357.159 57.8164 356.775 58.7148 356.508C59.6133 356.234 60.6777 356.098 61.9082 356.098C63.1191 356.098 64.1706 356.234 65.0625 356.508C65.9544 356.775 66.6413 357.159 67.123 357.66C67.6048 358.161 67.8457 358.754 67.8457 359.438C67.8457 360.121 67.6048 360.707 67.123 361.195C66.6413 361.684 65.9544 362.055 65.0625 362.309C64.1706 362.569 63.1191 362.699 61.9082 362.699C60.6777 362.699 59.6133 362.569 58.7148 362.309C57.8164 362.055 57.1263 361.684 56.6445 361.195C56.1693 360.707 55.9316 360.121 55.9316 359.438ZM58.0605 359.438C58.054 359.958 58.3795 360.359 59.0371 360.639C59.6947 360.919 60.6322 361.059 61.8496 361.059C63.0931 361.059 64.0436 360.922 64.7012 360.648C65.3652 360.368 65.6973 359.965 65.6973 359.438C65.6973 358.904 65.3685 358.497 64.7109 358.217C64.0599 357.937 63.1256 357.797 61.9082 357.797C60.6712 357.797 59.7174 357.94 59.0469 358.227C58.3828 358.507 58.054 358.91 58.0605 359.438ZM90.3527 351.43H85.1965V353.363H92.1887V355.141H76.0754V353.363H83.048V351.43H78.1652V345.395H80.3332V349.672H90.3527V351.43ZM77.9504 359.457C77.9504 358.773 78.1945 358.191 78.6828 357.709C79.1776 357.221 79.884 356.846 80.8019 356.586C81.7264 356.326 82.8267 356.195 84.1027 356.195C85.3657 356.195 86.4562 356.326 87.3742 356.586C88.2922 356.846 88.9953 357.221 89.4836 357.709C89.9719 358.191 90.216 358.773 90.216 359.457C90.216 360.141 89.9719 360.727 89.4836 361.215C88.9953 361.703 88.2922 362.074 87.3742 362.328C86.4562 362.589 85.3657 362.719 84.1027 362.719C82.8267 362.719 81.7264 362.589 80.8019 362.328C79.884 362.074 79.1776 361.703 78.6828 361.215C78.1945 360.727 77.9504 360.141 77.9504 359.457ZM80.1574 359.457C80.1509 359.965 80.4862 360.355 81.1633 360.629C81.8404 360.902 82.8202 361.039 84.1027 361.039C85.3657 361.039 86.3358 360.902 87.0129 360.629C87.69 360.355 88.035 359.965 88.048 359.457C88.0415 358.936 87.6997 358.546 87.0226 358.285C86.3521 358.018 85.3788 357.882 84.1027 357.875C82.8071 357.882 81.8241 358.018 81.1535 358.285C80.4829 358.546 80.1509 358.936 80.1574 359.457ZM102.71 346.547C102.703 347.289 102.96 348.012 103.481 348.715C104.009 349.418 104.748 350.02 105.698 350.521C106.655 351.023 107.742 351.352 108.96 351.508L108.1 353.266C106.616 353.044 105.301 352.589 104.155 351.898C103.009 351.202 102.147 350.352 101.567 349.35C100.988 350.352 100.128 351.202 98.9891 351.898C97.8497 352.589 96.5444 353.044 95.073 353.266L94.2137 351.508C95.4246 351.352 96.5021 351.023 97.4461 350.521C98.3901 350.02 99.1225 349.421 99.6433 348.725C100.164 348.021 100.425 347.296 100.425 346.547V345.648H102.71V346.547ZM93.5105 354.789H109.604V356.586H102.593V362.738H100.444V356.586H93.5105V354.789ZM117.274 348.207C117.267 348.988 117.424 349.74 117.743 350.463C118.068 351.179 118.55 351.814 119.188 352.367C119.826 352.921 120.594 353.344 121.493 353.637L120.36 355.355C119.403 355.03 118.573 354.551 117.87 353.92C117.173 353.282 116.629 352.53 116.239 351.664C115.842 352.621 115.278 353.448 114.549 354.145C113.82 354.841 112.951 355.368 111.942 355.727L110.731 354.008C111.668 353.702 112.463 353.253 113.114 352.66C113.771 352.068 114.263 351.387 114.588 350.619C114.92 349.851 115.086 349.04 115.086 348.188V346.176H117.274V348.207ZM113.563 356.781H115.789V360.629H125.575V362.387H113.563V356.781ZM122.704 345.082H124.871V350.297H127.332V352.133H124.871V358.051H122.704V345.082ZM144.475 353.969H137.482V355.297H142.463V359.633H132.424V360.922H142.951V362.582H130.295V358.07H140.334V356.938H130.275V355.297H135.314V353.969H128.381V352.25H144.475V353.969ZM130.412 345.629H142.404V351.137H130.412V345.629ZM140.236 349.438V347.328H132.541V349.438H140.236ZM152.861 361.156C152.587 361.156 152.333 361.088 152.099 360.951C151.864 360.814 151.679 360.629 151.542 360.395C151.405 360.16 151.337 359.906 151.337 359.633C151.337 359.366 151.405 359.118 151.542 358.891C151.679 358.656 151.864 358.471 152.099 358.334C152.333 358.197 152.587 358.129 152.861 358.129C153.127 358.129 153.375 358.197 153.603 358.334C153.837 358.471 154.023 358.656 154.159 358.891C154.296 359.118 154.364 359.366 154.364 359.633C154.364 359.906 154.296 360.16 154.159 360.395C154.023 360.629 153.837 360.814 153.603 360.951C153.375 361.088 153.127 361.156 152.861 361.156ZM152.861 353.578C152.587 353.578 152.333 353.51 152.099 353.373C151.864 353.236 151.679 353.051 151.542 352.816C151.405 352.582 151.337 352.328 151.337 352.055C151.337 351.788 151.405 351.54 151.542 351.312C151.679 351.078 151.864 350.893 152.099 350.756C152.333 350.619 152.587 350.551 152.861 350.551C153.127 350.551 153.375 350.619 153.603 350.756C153.837 350.893 154.023 351.078 154.159 351.312C154.296 351.54 154.364 351.788 154.364 352.055C154.364 352.328 154.296 352.582 154.159 352.816C154.023 353.051 153.837 353.236 153.603 353.373C153.375 353.51 153.127 353.578 152.861 353.578ZM167.555 348.852C167.549 349.503 167.711 350.134 168.043 350.746C168.382 351.352 168.873 351.892 169.518 352.367C170.162 352.842 170.934 353.201 171.832 353.441L170.817 355.121C169.821 354.848 168.955 354.431 168.219 353.871C167.49 353.305 166.92 352.631 166.51 351.85C166.113 352.735 165.547 353.5 164.811 354.145C164.075 354.789 163.193 355.264 162.164 355.57L161.149 353.891C162.047 353.617 162.815 353.223 163.454 352.709C164.092 352.188 164.573 351.596 164.899 350.932C165.224 350.268 165.387 349.574 165.387 348.852V348.754H161.696V347.035H165.387V345.004H167.575V347.035H171.246V348.754H167.555V348.852ZM164.02 359.398C164.013 358.708 164.251 358.119 164.733 357.631C165.215 357.136 165.905 356.762 166.803 356.508C167.708 356.247 168.779 356.117 170.016 356.117C171.259 356.117 172.33 356.247 173.229 356.508C174.134 356.762 174.83 357.136 175.319 357.631C175.807 358.119 176.051 358.708 176.051 359.398C176.051 360.089 175.807 360.684 175.319 361.186C174.83 361.687 174.134 362.068 173.229 362.328C172.324 362.589 171.253 362.719 170.016 362.719C168.779 362.719 167.708 362.585 166.803 362.318C165.905 362.058 165.215 361.677 164.733 361.176C164.251 360.681 164.013 360.089 164.02 359.398ZM166.168 359.398C166.162 359.919 166.494 360.323 167.164 360.609C167.842 360.896 168.792 361.039 170.016 361.039C171.259 361.039 172.213 360.899 172.877 360.619C173.548 360.333 173.883 359.926 173.883 359.398C173.883 358.871 173.551 358.471 172.887 358.197C172.23 357.924 171.273 357.784 170.016 357.777C168.779 357.784 167.825 357.927 167.155 358.207C166.491 358.48 166.162 358.878 166.168 359.398ZM170.719 349.926H173.825V345.082H175.993V355.766H173.825V351.684H170.719V349.926ZM188.506 348.168C188.506 349.327 188.477 350.424 188.418 351.459C188.366 352.488 188.232 353.669 188.018 355.004L185.869 354.828C186.058 353.637 186.185 352.556 186.25 351.586C186.315 350.616 186.351 349.639 186.357 348.656H179.424V346.918H188.506V348.168ZM178.486 357.289C180.01 357.276 181.149 357.26 181.904 357.24V351.957H184.053V357.172C186.084 357.081 187.861 356.944 189.385 356.762L189.502 358.383C186.852 358.812 183.542 359.027 179.57 359.027H178.701L178.486 357.289ZM190.303 345.082H192.49V352.27H195.049V354.105H192.49V362.738H190.303V345.082ZM212.191 357.211H208.304V362.738H206.117V357.211H202.152V362.738H199.984V357.211H196.058V355.512H212.191V357.211ZM197.953 345.668H210.316V350.609H200.179V352.289H210.707V354.047H197.992V348.988H208.089V347.445H197.953V345.668ZM215.661 356.332C215.388 356.332 215.134 356.264 214.9 356.127C214.665 355.99 214.48 355.805 214.343 355.57C214.206 355.336 214.138 355.082 214.138 354.809C214.138 354.542 214.206 354.294 214.343 354.066C214.48 353.832 214.665 353.646 214.9 353.51C215.134 353.373 215.388 353.305 215.661 353.305C215.928 353.305 216.176 353.373 216.404 353.51C216.638 353.646 216.823 353.832 216.96 354.066C217.097 354.294 217.165 354.542 217.165 354.809C217.165 355.082 217.097 355.336 216.96 355.57C216.823 355.805 216.638 355.99 216.404 356.127C216.176 356.264 215.928 356.332 215.661 356.332ZM235.44 349.223H233.038V351.234H235.44V353.031H233.038V355.453H230.87V345.082H233.038V347.445H235.44V349.223ZM219.307 350.316C219.307 349.503 219.512 348.773 219.923 348.129C220.339 347.484 220.909 346.983 221.632 346.625C222.361 346.267 223.175 346.091 224.073 346.098C224.971 346.091 225.782 346.267 226.505 346.625C227.227 346.983 227.794 347.484 228.204 348.129C228.621 348.767 228.832 349.496 228.839 350.316C228.832 351.13 228.621 351.859 228.204 352.504C227.794 353.142 227.227 353.643 226.505 354.008C225.782 354.372 224.971 354.555 224.073 354.555C223.175 354.555 222.361 354.372 221.632 354.008C220.909 353.643 220.339 353.142 219.923 352.504C219.512 351.859 219.307 351.13 219.307 350.316ZM221.319 359.301C221.319 358.591 221.56 357.979 222.042 357.465C222.53 356.951 223.223 356.557 224.122 356.283C225.02 356.003 226.078 355.863 227.296 355.863C228.5 355.863 229.545 356 230.43 356.273C231.322 356.547 232.009 356.944 232.491 357.465C232.973 357.979 233.214 358.591 233.214 359.301C233.214 360.004 232.973 360.613 232.491 361.127C232.009 361.641 231.322 362.035 230.43 362.309C229.545 362.582 228.5 362.719 227.296 362.719C226.085 362.719 225.03 362.582 224.132 362.309C223.233 362.035 222.54 361.641 222.052 361.127C221.563 360.613 221.319 360.004 221.319 359.301ZM221.436 350.316C221.436 350.798 221.547 351.221 221.768 351.586C221.996 351.944 222.309 352.224 222.706 352.426C223.109 352.621 223.565 352.719 224.073 352.719C224.574 352.719 225.024 352.621 225.421 352.426C225.818 352.224 226.13 351.944 226.358 351.586C226.593 351.221 226.71 350.798 226.71 350.316C226.71 349.841 226.593 349.421 226.358 349.057C226.13 348.692 225.818 348.412 225.421 348.217C225.024 348.015 224.574 347.914 224.073 347.914C223.565 347.914 223.109 348.015 222.706 348.217C222.309 348.412 221.996 348.692 221.768 349.057C221.547 349.421 221.436 349.841 221.436 350.316ZM223.487 359.301C223.487 359.854 223.816 360.274 224.473 360.561C225.131 360.84 226.072 360.98 227.296 360.98C228.513 360.98 229.444 360.84 230.089 360.561C230.74 360.274 231.065 359.854 231.065 359.301C231.065 358.754 230.74 358.334 230.089 358.041C229.438 357.748 228.507 357.602 227.296 357.602C226.078 357.602 225.137 357.748 224.473 358.041C223.816 358.334 223.487 358.754 223.487 359.301ZM252.602 355.023H236.586V353.285H242.797V349.887H244.946V353.285H252.602V355.023ZM238.246 356.723H250.551V362.738H248.364V358.461H238.246V356.723ZM238.422 346H250.649V347.27C250.649 348.201 250.623 349.04 250.571 349.789C250.525 350.531 250.408 351.358 250.219 352.27L248.051 352.074C248.22 351.26 248.331 350.521 248.383 349.857C248.442 349.193 248.474 348.48 248.481 347.719H238.422V346ZM270.096 357.211H266.209V362.738H264.021V357.211H260.057V362.738H257.889V357.211H253.963V355.512H270.096V357.211ZM255.857 345.668H268.221V350.609H258.084V352.289H268.611V354.047H255.896V348.988H265.994V347.445H255.857V345.668ZM273.566 356.332C273.293 356.332 273.039 356.264 272.804 356.127C272.57 355.99 272.384 355.805 272.248 355.57C272.111 355.336 272.043 355.082 272.043 354.809C272.043 354.542 272.111 354.294 272.248 354.066C272.384 353.832 272.57 353.646 272.804 353.51C273.039 353.373 273.293 353.305 273.566 353.305C273.833 353.305 274.08 353.373 274.308 353.51C274.543 353.646 274.728 353.832 274.865 354.066C275.002 354.294 275.07 354.542 275.07 354.809C275.07 355.082 275.002 355.336 274.865 355.57C274.728 355.805 274.543 355.99 274.308 356.127C274.08 356.264 273.833 356.332 273.566 356.332ZM290.982 352.367H293.462V354.184H290.982V362.738H288.794V345.082H290.982V352.367ZM276.802 357.836C278.729 357.836 280.233 357.823 281.314 357.797V356.146C280.676 356.036 280.116 355.834 279.634 355.541C279.159 355.248 278.791 354.88 278.53 354.438C278.277 353.995 278.15 353.5 278.15 352.953C278.15 352.296 278.329 351.716 278.687 351.215C279.045 350.714 279.546 350.326 280.191 350.053C280.842 349.773 281.587 349.633 282.427 349.633C283.26 349.633 283.999 349.773 284.644 350.053C285.295 350.326 285.803 350.714 286.167 351.215C286.532 351.716 286.717 352.296 286.724 352.953C286.717 353.5 286.581 353.998 286.314 354.447C286.047 354.89 285.669 355.258 285.181 355.551C284.699 355.844 284.139 356.042 283.501 356.146V357.719C285.187 357.628 286.639 357.497 287.857 357.328L287.993 358.91C286.32 359.216 284.611 359.415 282.866 359.506C281.122 359.59 279.204 359.633 277.114 359.633L276.802 357.836ZM277.134 347.113H281.314V345.16H283.501V347.113H287.661V348.832H277.134V347.113ZM280.2 352.953C280.194 353.448 280.389 353.839 280.786 354.125C281.19 354.411 281.727 354.555 282.398 354.555C283.081 354.555 283.625 354.415 284.029 354.135C284.432 353.855 284.634 353.461 284.634 352.953C284.634 352.445 284.432 352.045 284.029 351.752C283.625 351.452 283.091 351.299 282.427 351.293C281.75 351.299 281.206 351.452 280.796 351.752C280.392 352.045 280.194 352.445 280.2 352.953ZM303.28 348.637H294.55V346.957H297.889V345.316H299.96V346.957H303.28V348.637ZM294.139 355.355C298.124 355.342 301.184 355.186 303.319 354.887L303.456 356.488C302.382 356.677 301.197 356.824 299.901 356.928V361.898H297.85V357.055C296.724 357.107 295.565 357.133 294.374 357.133L294.139 355.355ZM295.077 351.859C295.077 351.319 295.236 350.847 295.555 350.443C295.881 350.033 296.333 349.717 296.913 349.496C297.499 349.268 298.169 349.151 298.925 349.145C299.68 349.151 300.347 349.268 300.927 349.496C301.512 349.717 301.968 350.033 302.294 350.443C302.626 350.847 302.792 351.319 302.792 351.859C302.792 352.387 302.626 352.855 302.294 353.266C301.968 353.669 301.512 353.982 300.927 354.203C300.341 354.424 299.673 354.535 298.925 354.535C298.169 354.535 297.499 354.424 296.913 354.203C296.333 353.982 295.881 353.669 295.555 353.266C295.236 352.855 295.077 352.387 295.077 351.859ZM297.03 351.859C297.03 352.23 297.196 352.52 297.528 352.729C297.86 352.93 298.313 353.031 298.886 353.031C299.478 353.031 299.95 352.93 300.302 352.729C300.653 352.527 300.832 352.237 300.839 351.859C300.832 351.482 300.66 351.189 300.321 350.98C299.983 350.772 299.53 350.668 298.964 350.668C298.365 350.668 297.893 350.772 297.548 350.98C297.203 351.182 297.03 351.475 297.03 351.859ZM301.288 357.777H304.296V345.414H306.327V361.918H304.296V359.34H301.288V357.777ZM307.753 345.082H309.803V362.738H307.753V345.082ZM328 357.211H324.114V362.738H321.926V357.211H317.961V362.738H315.793V357.211H311.868V355.512H328V357.211ZM313.762 345.668H326.125V350.609H315.989V352.289H326.516V354.047H313.801V348.988H323.899V347.445H313.762V345.668ZM331.471 356.332C331.197 356.332 330.943 356.264 330.709 356.127C330.475 355.99 330.289 355.805 330.152 355.57C330.016 355.336 329.947 355.082 329.947 354.809C329.947 354.542 330.016 354.294 330.152 354.066C330.289 353.832 330.475 353.646 330.709 353.51C330.943 353.373 331.197 353.305 331.471 353.305C331.738 353.305 331.985 353.373 332.213 353.51C332.447 353.646 332.633 353.832 332.77 354.066C332.906 354.294 332.975 354.542 332.975 354.809C332.975 355.082 332.906 355.336 332.77 355.57C332.633 355.805 332.447 355.99 332.213 356.127C331.985 356.264 331.738 356.332 331.471 356.332ZM351.054 360.609H334.921V358.832H341.894V354.77H344.062V358.832H351.054V360.609ZM335.625 353.793C336.777 353.604 337.822 353.236 338.759 352.689C339.697 352.136 340.436 351.475 340.976 350.707C341.517 349.932 341.796 349.125 341.816 348.285H336.269V346.508H349.668V348.285H344.101C344.121 349.125 344.404 349.926 344.951 350.688C345.498 351.449 346.246 352.097 347.197 352.631C348.154 353.158 349.225 353.513 350.41 353.695L349.55 355.414C348.053 355.147 346.725 354.636 345.566 353.881C344.407 353.119 343.545 352.188 342.978 351.088C342.412 352.201 341.556 353.148 340.41 353.93C339.264 354.704 337.955 355.232 336.484 355.512L335.625 353.793ZM361.556 346.547C361.549 347.289 361.806 348.012 362.327 348.715C362.855 349.418 363.594 350.02 364.544 350.521C365.501 351.023 366.588 351.352 367.806 351.508L366.946 353.266C365.462 353.044 364.147 352.589 363.001 351.898C361.855 351.202 360.993 350.352 360.413 349.35C359.834 350.352 358.974 351.202 357.835 351.898C356.696 352.589 355.39 353.044 353.919 353.266L353.06 351.508C354.271 351.352 355.348 351.023 356.292 350.521C357.236 350.02 357.969 349.421 358.489 348.725C359.01 348.021 359.271 347.296 359.271 346.547V345.648H361.556V346.547ZM352.357 354.789H368.45V356.586H361.439V362.738H359.29V356.586H352.357V354.789ZM385.886 355.16H381.862V356.996H383.913V362.738H381.745V358.695H371.569V356.996H373.757V355.16H369.792V353.422H385.886V355.16ZM371.452 348.891C371.452 348.188 371.712 347.579 372.233 347.064C372.754 346.544 373.493 346.146 374.45 345.873C375.414 345.593 376.537 345.453 377.819 345.453C379.102 345.453 380.221 345.593 381.178 345.873C382.142 346.146 382.884 346.544 383.405 347.064C383.926 347.579 384.186 348.188 384.186 348.891C384.186 349.6 383.926 350.215 383.405 350.736C382.884 351.257 382.145 351.658 381.188 351.938C380.231 352.211 379.108 352.348 377.819 352.348C376.537 352.348 375.414 352.211 374.45 351.938C373.493 351.658 372.754 351.257 372.233 350.736C371.712 350.215 371.452 349.6 371.452 348.891ZM373.718 348.891C373.711 349.464 374.066 349.903 374.782 350.209C375.505 350.508 376.517 350.661 377.819 350.668C379.121 350.661 380.134 350.508 380.856 350.209C381.579 349.903 381.94 349.464 381.94 348.891C381.94 348.344 381.576 347.917 380.846 347.611C380.124 347.305 379.115 347.152 377.819 347.152C376.524 347.152 375.514 347.305 374.792 347.611C374.069 347.917 373.711 348.344 373.718 348.891ZM379.714 356.996V355.16H375.925V356.996H379.714ZM403.34 357.211H399.453V362.738H397.266V357.211H393.301V362.738H391.133V357.211H387.207V355.512H403.34V357.211ZM389.102 345.668H401.465V350.609H391.328V352.289H401.856V354.047H389.141V348.988H399.239V347.445H389.102V345.668ZM405.717 355.609C405.717 352.159 406.693 349.04 408.646 346.254H410.99C410.528 346.918 410.089 347.768 409.672 348.803C409.262 349.831 408.93 350.945 408.676 352.143C408.422 353.334 408.295 354.49 408.295 355.609C408.295 356.729 408.422 357.888 408.676 359.086C408.93 360.284 409.262 361.397 409.672 362.426C410.089 363.461 410.528 364.314 410.99 364.984H408.646C407.696 363.617 406.97 362.159 406.469 360.609C405.967 359.06 405.717 357.393 405.717 355.609ZM415.107 355.58H428.807V357.28H415.107V355.58ZM416.327 353.02H430.847V354.68H416.327V353.02ZM416.387 348.06H426.747V349.54H416.387V348.06ZM428.087 355.58H430.347C430.347 355.58 430.327 356.12 430.307 356.4C430.047 360 429.747 361.52 429.247 362.1C428.827 362.54 428.407 362.7 427.827 362.78C427.327 362.84 426.487 362.86 425.567 362.82C425.547 362.24 425.307 361.42 425.007 360.9C425.727 360.96 426.387 360.96 426.687 360.96C426.987 360.96 427.147 360.94 427.327 360.76C427.627 360.4 427.907 359.14 428.087 355.88V355.58ZM420.207 343.9L423.087 344.12C422.667 345.1 422.087 346.02 421.707 346.64L419.587 346.28C419.827 345.56 420.107 344.6 420.207 343.9ZM416.547 345.52H428.027V352.14H416.547V350.5H425.667V347.18H416.547V345.52ZM415.107 345.52H417.487V356.36H415.107V345.52ZM420.447 358.42L422.247 357.98C422.727 359.02 423.147 360.4 423.267 361.26L421.327 361.78C421.247 360.9 420.867 359.48 420.447 358.42ZM423.547 358.04L425.247 357.44C425.767 358.24 426.327 359.34 426.547 360.04L424.747 360.72C424.547 360 424.047 358.88 423.547 358.04ZM417.187 358.46L419.167 358.16C419.487 359.34 419.687 360.86 419.667 361.86L417.587 362.18C417.647 361.2 417.467 359.64 417.187 358.46ZM414.387 357.64L416.367 358.36C415.947 359.94 415.287 361.66 414.187 362.76L412.267 361.58C413.267 360.62 414.007 359.1 414.387 357.64ZM435.397 352.56V353.4H440.337V352.56H435.397ZM435.397 350.38V351.22H440.337V350.38H435.397ZM433.277 348.96H442.557V354.82H433.277V348.96ZM432.457 355.4H443.417V357.08H432.457V355.4ZM434.737 360.42H441.017V362.08H434.737V360.42ZM442.837 349.4H451.137V351.6H442.837V349.4ZM436.857 349.6H438.797V354.26H436.857V349.6ZM445.397 344.02H447.717V349.52C447.717 353.46 447.197 358.98 443.517 362.8C443.117 362.32 442.297 361.54 441.697 361.16C445.237 357.86 445.397 352.84 445.397 349.52V344.02ZM447.877 350.74C448.357 354.94 449.357 358.86 451.497 360.86C450.977 361.3 450.197 362.2 449.817 362.84C447.457 360.34 446.497 356 445.957 351.02L447.877 350.74ZM447.857 345.34L449.737 344.64C450.397 345.7 451.057 347.1 451.277 348.04L449.277 348.82C449.097 347.88 448.477 346.42 447.857 345.34ZM434.757 345.78V346.98H435.777V345.78H434.757ZM433.117 344.42H437.497V348.34H433.117V344.42ZM439.837 345.78V346.98H440.957V345.78H439.837ZM438.177 344.42H442.717V348.34H438.177V344.42ZM433.637 357.7H442.317V362.52H440.037V359.32H435.817V362.78H433.637V357.7ZM460.947 344.08H463.487C463.227 349.06 462.607 352.78 457.807 354.86C457.547 354.28 456.887 353.46 456.367 353.04C460.487 351.32 460.767 348.28 460.947 344.08ZM460.927 351.1L462.447 349.48C464.087 350.42 466.367 351.86 467.467 352.84L465.827 354.7C464.807 353.68 462.607 352.12 460.927 351.1ZM460.967 353.38H463.447C462.907 356.28 461.767 358.98 457.787 360.66C457.527 360.08 456.907 359.26 456.387 358.84C459.807 357.58 460.547 355.4 460.967 353.38ZM461.067 356.86L462.767 355.36C464.207 356.38 466.267 357.9 467.267 358.9L465.447 360.62C464.527 359.6 462.527 357.98 461.067 356.86ZM453.667 346.86H468.847V349.2H456.067V362.8H453.667V346.86ZM467.947 346.86H470.327V360.14C470.327 361.34 470.087 362.02 469.327 362.4C468.567 362.8 467.427 362.86 465.847 362.86C465.767 362.18 465.447 361.1 465.127 360.46C466.107 360.52 467.207 360.52 467.527 360.52C467.847 360.5 467.947 360.4 467.947 360.08V346.86ZM473.057 355H481.717V357.06H473.057V355ZM473.057 347.44H481.557V349.3H473.057V347.44ZM479.677 344.36L481.657 344.88C481.157 345.8 480.677 346.7 480.297 347.32L478.757 346.82C479.097 346.12 479.477 345.08 479.677 344.36ZM476.257 344.26H478.337V353.2H476.257V344.26ZM473.217 345.04L474.817 344.44C475.277 345.16 475.717 346.1 475.857 346.74L474.157 347.4C474.057 346.76 473.657 345.78 473.217 345.04ZM476.477 358.66L477.877 357.22C479.097 357.98 480.797 359.16 481.637 359.92L480.157 361.54C479.377 360.76 477.697 359.5 476.477 358.66ZM478.237 349.24C478.957 349.58 481.277 350.96 481.817 351.34L480.577 353.02C479.797 352.28 477.957 350.86 477.057 350.26L478.237 349.24ZM476.117 348.5L477.657 349.06C476.857 350.76 475.417 352.56 473.997 353.52C473.697 353.06 473.057 352.34 472.617 351.98C473.957 351.24 475.377 349.82 476.117 348.5ZM481.797 344.8H491.337V346.86H481.797V344.8ZM484.517 352.8V354.02H488.537V352.8H484.517ZM484.517 355.68V356.94H488.537V355.68H484.517ZM484.517 349.92V351.14H488.537V349.92H484.517ZM482.357 348.12H490.797V358.72H482.357V348.12ZM485.317 345.9L487.957 346.2C487.497 347.44 486.977 348.68 486.577 349.52L484.577 349.12C484.877 348.2 485.177 346.86 485.317 345.9ZM484.077 358.74L486.037 360C485.017 361.04 483.337 362.18 481.897 362.82C481.517 362.36 480.857 361.68 480.337 361.28C481.717 360.7 483.297 359.6 484.077 358.74ZM486.777 360.06L488.477 358.88C489.577 359.62 491.077 360.74 491.837 361.5L489.997 362.78C489.337 362.04 487.877 360.86 486.777 360.06ZM476.197 353.62H478.357V355.8C478.357 358.08 477.777 360.84 473.817 362.54C473.577 362.02 472.957 361.16 472.537 360.76C475.797 359.42 476.197 357.38 476.197 355.74V353.62ZM498.146 355.609C498.146 357.393 497.896 359.06 497.395 360.609C496.893 362.159 496.167 363.617 495.217 364.984H492.873C493.335 364.314 493.771 363.461 494.182 362.426C494.598 361.397 494.934 360.284 495.188 359.086C495.441 357.888 495.568 356.729 495.568 355.609C495.568 354.49 495.441 353.334 495.188 352.143C494.934 350.945 494.598 349.831 494.182 348.803C493.771 347.768 493.335 346.918 492.873 346.254H495.217C497.17 349.04 498.146 352.159 498.146 355.609ZM502.671 356.332C502.398 356.332 502.144 356.264 501.91 356.127C501.675 355.99 501.49 355.805 501.353 355.57C501.216 355.336 501.148 355.082 501.148 354.809C501.148 354.542 501.216 354.294 501.353 354.066C501.49 353.832 501.675 353.646 501.91 353.51C502.144 353.373 502.398 353.305 502.671 353.305C502.938 353.305 503.186 353.373 503.414 353.51C503.648 353.646 503.834 353.832 503.97 354.066C504.107 354.294 504.175 354.542 504.175 354.809C504.175 355.082 504.107 355.336 503.97 355.57C503.834 355.805 503.648 355.99 503.414 356.127C503.186 356.264 502.938 356.332 502.671 356.332ZM510.946 346.371C511.734 346.371 512.447 346.583 513.085 347.006C513.723 347.429 514.244 348.035 514.648 348.822C515.051 349.604 515.305 350.525 515.409 351.586H518.779V345.082H520.927V362.758H518.779V353.344H515.429C515.351 354.464 515.113 355.44 514.716 356.273C514.319 357.1 513.795 357.738 513.144 358.188C512.493 358.63 511.76 358.852 510.946 358.852C510.061 358.852 509.273 358.598 508.583 358.09C507.9 357.576 507.366 356.846 506.982 355.902C506.604 354.958 506.415 353.858 506.415 352.602C506.415 351.352 506.604 350.258 506.982 349.32C507.366 348.376 507.903 347.65 508.593 347.143C509.283 346.628 510.068 346.371 510.946 346.371ZM508.505 352.602C508.505 353.493 508.606 354.262 508.808 354.906C509.01 355.551 509.293 356.042 509.657 356.381C510.029 356.719 510.458 356.892 510.946 356.898C511.435 356.892 511.864 356.719 512.236 356.381C512.607 356.042 512.893 355.551 513.095 354.906C513.303 354.262 513.407 353.493 513.407 352.602C513.407 351.716 513.303 350.951 513.095 350.307C512.893 349.662 512.607 349.171 512.236 348.832C511.864 348.493 511.435 348.324 510.946 348.324C510.458 348.324 510.029 348.497 509.657 348.842C509.293 349.18 509.01 349.672 508.808 350.316C508.606 350.954 508.505 351.716 508.505 352.602ZM539.671 357.211H535.784V362.738H533.596V357.211H529.632V362.738H527.464V357.211H523.538V355.512H539.671V357.211ZM525.432 345.668H537.796V350.609H527.659V352.289H538.186V354.047H525.471V348.988H535.569V347.445H525.432V345.668ZM543.141 356.332C542.868 356.332 542.614 356.264 542.379 356.127C542.145 355.99 541.959 355.805 541.823 355.57C541.686 355.336 541.618 355.082 541.618 354.809C541.618 354.542 541.686 354.294 541.823 354.066C541.959 353.832 542.145 353.646 542.379 353.51C542.614 353.373 542.868 353.305 543.141 353.305C543.408 353.305 543.655 353.373 543.883 353.51C544.118 353.646 544.303 353.832 544.44 354.066C544.577 354.294 544.645 354.542 544.645 354.809C544.645 355.082 544.577 355.336 544.44 355.57C544.303 355.805 544.118 355.99 543.883 356.127C543.655 356.264 543.408 356.332 543.141 356.332ZM562.725 360.609H546.592V358.832H553.564V354.77H555.732V358.832H562.725V360.609ZM547.295 353.793C548.447 353.604 549.492 353.236 550.43 352.689C551.367 352.136 552.106 351.475 552.646 350.707C553.187 349.932 553.467 349.125 553.486 348.285H547.939V346.508H561.338V348.285H555.771C555.791 349.125 556.074 349.926 556.621 350.688C557.168 351.449 557.917 352.097 558.867 352.631C559.824 353.158 560.895 353.513 562.08 353.695L561.221 355.414C559.723 355.147 558.395 354.636 557.236 353.881C556.077 353.119 555.215 352.188 554.648 351.088C554.082 352.201 553.226 353.148 552.08 353.93C550.934 354.704 549.626 355.232 548.154 355.512L547.295 353.793ZM579.183 362.738H577.093V353.676H575.199V361.918H573.168V345.551H575.199V351.918H577.093V345.082H579.183V362.738ZM563.89 357.543C565.713 356.488 567.071 355.268 567.962 353.881C568.861 352.488 569.391 350.876 569.554 349.047H564.711V347.309H571.664C571.664 348.995 571.462 350.541 571.058 351.947C570.655 353.354 569.971 354.659 569.007 355.863C568.044 357.061 566.755 358.122 565.14 359.047L563.89 357.543ZM597.575 357.211H593.689V362.738H591.501V357.211H587.536V362.738H585.368V357.211H581.443V355.512H597.575V357.211ZM583.337 345.668H595.7V350.609H585.564V352.289H596.091V354.047H583.376V348.988H593.474V347.445H583.337V345.668ZM601.046 356.332C600.772 356.332 600.518 356.264 600.284 356.127C600.05 355.99 599.864 355.805 599.727 355.57C599.591 355.336 599.522 355.082 599.522 354.809C599.522 354.542 599.591 354.294 599.727 354.066C599.864 353.832 600.05 353.646 600.284 353.51C600.518 353.373 600.772 353.305 601.046 353.305C601.313 353.305 601.56 353.373 601.788 353.51C602.022 353.646 602.208 353.832 602.345 354.066C602.481 354.294 602.55 354.542 602.55 354.809C602.55 355.082 602.481 355.336 602.345 355.57C602.208 355.805 602.022 355.99 601.788 356.127C601.56 356.264 601.313 356.332 601.046 356.332ZM618.422 349.047H620.883V350.824H618.422V354.652H616.215V345.082H618.422V349.047ZM604.457 353.109C605.825 352.81 606.99 352.4 607.953 351.879C608.917 351.358 609.662 350.753 610.19 350.062C610.724 349.372 611.039 348.624 611.137 347.816H605.317V346.078H613.559C613.559 348.35 612.846 350.229 611.42 351.713C610.001 353.191 607.947 354.242 605.258 354.867L604.457 353.109ZM606.957 355.375H609.145V357.27H616.254V355.375H618.422V362.523H606.957V355.375ZM616.254 360.766V358.969H609.145V360.766H616.254ZM635.857 349.34H638.318V351.156H635.857V355.375H633.689V345.082H635.857V349.34ZM621.756 353.617C623.11 353.266 624.279 352.807 625.262 352.24C626.245 351.667 627.016 351.013 627.576 350.277C628.136 349.535 628.478 348.734 628.602 347.875H622.635V346.117H630.936C630.936 347.647 630.61 349.021 629.959 350.238C629.314 351.456 628.374 352.488 627.137 353.334C625.906 354.18 624.412 354.828 622.654 355.277L621.756 353.617ZM624.1 356.117H635.857V362.738H633.689V357.855H624.1V356.117ZM655.48 357.211H651.593V362.738H649.406V357.211H645.441V362.738H643.273V357.211H639.347V355.512H655.48V357.211ZM641.242 345.668H653.605V350.609H643.468V352.289H653.996V354.047H641.281V348.988H651.378V347.445H641.242V345.668ZM658.95 356.332C658.677 356.332 658.423 356.264 658.189 356.127C657.954 355.99 657.769 355.805 657.632 355.57C657.495 355.336 657.427 355.082 657.427 354.809C657.427 354.542 657.495 354.294 657.632 354.066C657.769 353.832 657.954 353.646 658.189 353.51C658.423 353.373 658.677 353.305 658.95 353.305C659.217 353.305 659.465 353.373 659.693 353.51C659.927 353.646 660.112 353.832 660.249 354.066C660.386 354.294 660.454 354.542 660.454 354.809C660.454 355.082 660.386 355.336 660.249 355.57C660.112 355.805 659.927 355.99 659.693 356.127C659.465 356.264 659.217 356.332 658.95 356.332ZM671.014 349.633H662.362V347.895H665.643V345.59H667.792V347.895H671.014V349.633ZM662.87 354.672C662.863 353.884 663.023 353.178 663.348 352.553C663.68 351.928 664.139 351.443 664.725 351.098C665.318 350.746 665.982 350.57 666.718 350.57C667.46 350.57 668.121 350.746 668.7 351.098C669.286 351.443 669.742 351.928 670.067 352.553C670.399 353.178 670.565 353.884 670.565 354.672C670.565 355.479 670.399 356.199 670.067 356.83C669.742 357.462 669.286 357.953 668.7 358.305C668.121 358.656 667.46 358.832 666.718 358.832C665.982 358.832 665.318 358.656 664.725 358.305C664.139 357.953 663.68 357.462 663.348 356.83C663.023 356.199 662.863 355.479 662.87 354.672ZM664.784 354.672C664.784 355.141 664.862 355.551 665.018 355.902C665.181 356.247 665.409 356.514 665.702 356.703C666.001 356.885 666.34 356.977 666.718 356.977C667.095 356.977 667.43 356.885 667.723 356.703C668.016 356.514 668.244 356.247 668.407 355.902C668.57 355.551 668.651 355.141 668.651 354.672C668.651 354.216 668.57 353.816 668.407 353.471C668.244 353.119 668.016 352.849 667.723 352.66C667.43 352.465 667.095 352.367 666.718 352.367C666.34 352.367 666.005 352.465 665.712 352.66C665.419 352.849 665.191 353.119 665.028 353.471C664.865 353.816 664.784 354.216 664.784 354.672ZM671.757 345.453H673.788V352.348H675.507V345.082H677.577V362.738H675.507V354.105H673.788V361.938H671.757V345.453ZM695.969 360.609H679.836V358.832H686.809V354.77H688.977V358.832H695.969V360.609ZM680.539 353.793C681.692 353.604 682.737 353.236 683.674 352.689C684.612 352.136 685.351 351.475 685.891 350.707C686.431 349.932 686.711 349.125 686.731 348.285H681.184V346.508H694.582V348.285H689.016C689.036 349.125 689.319 349.926 689.866 350.688C690.412 351.449 691.161 352.097 692.112 352.631C693.069 353.158 694.14 353.513 695.325 353.695L694.465 355.414C692.968 355.147 691.64 354.636 690.481 353.881C689.322 353.119 688.459 352.188 687.893 351.088C687.327 352.201 686.47 353.148 685.325 353.93C684.179 354.704 682.87 355.232 681.399 355.512L680.539 353.793ZM713.385 357.211H709.498V362.738H707.311V357.211H703.346V362.738H701.178V357.211H697.252V355.512H713.385V357.211ZM699.146 345.668H711.51V350.609H701.373V352.289H711.9V354.047H699.186V348.988H709.283V347.445H699.146V345.668ZM729.017 353.52H720.501V346.176H729.017V353.52ZM721.556 361.02C722.643 360.928 723.61 360.72 724.456 360.395C725.309 360.069 725.98 359.678 726.468 359.223C726.963 358.76 727.243 358.292 727.308 357.816H722.279V356.176H727.357V354.633H729.544V356.176H734.642V357.816H729.603C729.668 358.279 729.941 358.738 730.423 359.193C730.911 359.643 731.575 360.033 732.415 360.365C733.262 360.691 734.225 360.909 735.306 361.02L734.564 362.68C733.164 362.53 731.933 362.198 730.872 361.684C729.818 361.169 729.014 360.538 728.46 359.789C727.907 360.544 727.096 361.176 726.029 361.684C724.961 362.191 723.717 362.523 722.298 362.68L721.556 361.02ZM726.868 351.82V347.895H722.65V351.82H726.868ZM732.122 345.082H734.271V355.141H732.122V345.082ZM756.641 355.102H754.453V345.102H756.641V355.102ZM742.246 350.16C742.246 349.346 742.452 348.62 742.862 347.982C743.278 347.338 743.848 346.837 744.571 346.479C745.293 346.12 746.107 345.941 747.012 345.941C747.911 345.941 748.721 346.12 749.444 346.479C750.166 346.837 750.733 347.338 751.143 347.982C751.553 348.62 751.758 349.346 751.758 350.16C751.758 350.961 751.553 351.68 751.143 352.318C750.733 352.95 750.166 353.445 749.444 353.803C748.721 354.161 747.911 354.34 747.012 354.34C746.114 354.34 745.3 354.161 744.571 353.803C743.848 353.445 743.278 352.95 742.862 352.318C742.452 351.68 742.246 350.961 742.246 350.16ZM744.375 350.16C744.375 350.629 744.486 351.042 744.707 351.4C744.929 351.752 745.238 352.025 745.635 352.221C746.039 352.41 746.498 352.504 747.012 352.504C747.513 352.504 747.963 352.41 748.36 352.221C748.757 352.025 749.066 351.752 749.287 351.4C749.515 351.042 749.629 350.629 749.629 350.16C749.629 349.678 749.515 349.258 749.287 348.9C749.066 348.542 748.757 348.266 748.36 348.07C747.963 347.875 747.513 347.777 747.012 347.777C746.498 347.777 746.039 347.875 745.635 348.07C745.238 348.266 744.929 348.542 744.707 348.9C744.486 349.258 744.375 349.678 744.375 350.16ZM744.922 355.961H756.641V362.523H744.922V355.961ZM754.512 360.766V357.68H747.071V360.766H754.512ZM765.697 348.207C765.691 348.988 765.847 349.74 766.166 350.463C766.492 351.179 766.973 351.814 767.611 352.367C768.249 352.921 769.018 353.344 769.916 353.637L768.783 355.355C767.826 355.03 766.996 354.551 766.293 353.92C765.596 353.282 765.053 352.53 764.662 351.664C764.265 352.621 763.702 353.448 762.973 354.145C762.243 354.841 761.374 355.368 760.365 355.727L759.154 354.008C760.092 353.702 760.886 353.253 761.537 352.66C762.195 352.068 762.686 351.387 763.012 350.619C763.344 349.851 763.51 349.04 763.51 348.188V346.176H765.697V348.207ZM761.986 356.781H764.213V360.629H773.998V362.387H761.986V356.781ZM771.127 345.082H773.295V350.297H775.756V352.133H773.295V358.051H771.127V345.082ZM792.898 353.969H785.906V355.297H790.886V359.633H780.847V360.922H791.375V362.582H778.718V358.07H788.757V356.938H778.699V355.297H783.738V353.969H776.804V352.25H792.898V353.969ZM778.836 345.629H790.828V351.137H778.836V345.629ZM788.66 349.438V347.328H780.964V349.438H788.66ZM815.249 355.043H799.136V353.266H815.249V355.043ZM801.011 359.477C801.011 358.799 801.255 358.22 801.743 357.738C802.238 357.257 802.944 356.892 803.862 356.645C804.787 356.397 805.887 356.273 807.163 356.273C808.426 356.273 809.516 356.397 810.434 356.645C811.352 356.892 812.055 357.257 812.544 357.738C813.032 358.22 813.276 358.799 813.276 359.477C813.276 360.167 813.032 360.753 812.544 361.234C812.055 361.723 811.352 362.09 810.434 362.338C809.523 362.592 808.432 362.719 807.163 362.719C805.887 362.719 804.787 362.592 803.862 362.338C802.944 362.09 802.238 361.723 801.743 361.234C801.255 360.746 801.011 360.16 801.011 359.477ZM801.108 345.648H813.296V347.406H803.276V350.141H813.393V351.879H801.108V345.648ZM803.218 359.477C803.211 359.997 803.543 360.388 804.214 360.648C804.884 360.909 805.867 361.039 807.163 361.039C808.439 361.039 809.412 360.909 810.083 360.648C810.76 360.388 811.102 359.997 811.108 359.477C811.095 358.975 810.75 358.594 810.073 358.334C809.396 358.067 808.426 357.934 807.163 357.934C805.88 357.934 804.901 358.067 804.223 358.334C803.546 358.594 803.211 358.975 803.218 359.477Z" fill="#757575"/>
<defs>
<filter id="filter0_d_2981_11233" x="0.62931" y="0" width="304.741" height="304.741" filterUnits="userSpaceOnUse" color-interpolation-filters="sRGB">
<feFlood flood-opacity="0" result="BackgroundImageFix"/>
<feColorMatrix in="SourceAlpha" type="matrix" values="0 0 0 0 0 0 0 0 0 0 0 0 0 0 0 0 0 0 127 0" result="hardAlpha"/>
<feOffset dy="2.37069"/>
<feGaussianBlur stdDeviation="1.18534"/>
<feComposite in2="hardAlpha" operator="out"/>
<feColorMatrix type="matrix" values="0 0 0 0 0 0 0 0 0 0 0 0 0 0 0 0 0 0 0.25 0"/>
<feBlend mode="normal" in2="BackgroundImageFix" result="effect1_dropShadow_2981_11233"/>
<feBlend mode="normal" in="SourceGraphic" in2="effect1_dropShadow_2981_11233" result="shape"/>
</filter>
<filter id="filter1_d_2981_11233" x="260.629" y="0" width="304.741" height="304.741" filterUnits="userSpaceOnUse" color-interpolation-filters="sRGB">
<feFlood flood-opacity="0" result="BackgroundImageFix"/>
<feColorMatrix in="SourceAlpha" type="matrix" values="0 0 0 0 0 0 0 0 0 0 0 0 0 0 0 0 0 0 127 0" result="hardAlpha"/>
<feOffset dy="2.37069"/>
<feGaussianBlur stdDeviation="1.18534"/>
<feComposite in2="hardAlpha" operator="out"/>
<feColorMatrix type="matrix" values="0 0 0 0 0 0 0 0 0 0 0 0 0 0 0 0 0 0 0.25 0"/>
<feBlend mode="normal" in2="BackgroundImageFix" result="effect1_dropShadow_2981_11233"/>
<feBlend mode="normal" in="SourceGraphic" in2="effect1_dropShadow_2981_11233" result="shape"/>
</filter>
<filter id="filter2_d_2981_11233" x="529.629" y="0" width="304.741" height="304.741" filterUnits="userSpaceOnUse" color-interpolation-filters="sRGB">
<feFlood flood-opacity="0" result="BackgroundImageFix"/>
<feColorMatrix in="SourceAlpha" type="matrix" values="0 0 0 0 0 0 0 0 0 0 0 0 0 0 0 0 0 0 127 0" result="hardAlpha"/>
<feOffset dy="2.37069"/>
<feGaussianBlur stdDeviation="1.18534"/>
<feComposite in2="hardAlpha" operator="out"/>
<feColorMatrix type="matrix" values="0 0 0 0 0 0 0 0 0 0 0 0 0 0 0 0 0 0 0.25 0"/>
<feBlend mode="normal" in2="BackgroundImageFix" result="effect1_dropShadow_2981_11233"/>
<feBlend mode="normal" in="SourceGraphic" in2="effect1_dropShadow_2981_11233" result="shape"/>
</filter>
<clipPath id="clip0_2981_11233">
<rect width="81" height="61" fill="white" transform="translate(112 177)"/>
</clipPath>
<clipPath id="clip1_2981_11233">
<rect width="93.68" height="74.8" fill="white" transform="translate(371 168)"/>
</clipPath>
</defs>
</svg>
