<svg width="800" height="56" viewBox="0 0 800 56" fill="none" xmlns="http://www.w3.org/2000/svg">
<path d="M8.01157 28.7873C10.4659 33.9466 15.721 37.5139 21.8162 37.5139C29.1276 37.5139 35.2376 32.3767 36.7338 25.5148H0.243222C0.0810739 24.4461 0 23.3553 0 22.2423C0 10.1916 9.76571 0.425781 21.8162 0.425781C31.5819 0.425781 39.8515 6.84545 42.6301 15.6974H35.6135C33.1592 10.5381 27.9041 6.97075 21.8089 6.97075C14.4975 6.97075 8.38746 12.108 6.89128 18.9699H43.3819C43.544 20.0386 43.6251 21.1294 43.6251 22.2423C43.6251 34.2931 33.8594 44.0589 21.8089 44.0589C12.0432 44.0589 3.77362 37.6392 0.994997 28.7873H8.01157Z" fill="#595B56"/>
<path d="M100.296 25.5148V44.0589H93.751V22.2423C93.751 10.1916 103.517 0.425781 115.567 0.425781H137.383V6.97075H115.567C108.256 6.97075 102.146 12.108 100.65 18.9699H137.383V25.5148H100.296Z" fill="#595B56"/>
<path d="M147.171 25.5148V44.0589H140.626V22.2423C140.626 10.1916 150.392 0.425781 162.442 0.425781H184.259V6.97075H162.442C155.131 6.97075 149.021 12.108 147.525 18.9699H184.259V25.5148H147.171Z" fill="#595B56"/>
<path d="M229.321 30.969C225.953 38.6711 218.266 44.0589 209.318 44.0589C197.267 44.0589 187.502 34.2931 187.502 22.2423C187.502 10.1916 197.267 0.425781 209.318 0.425781C218.266 0.425781 225.953 5.81359 229.321 13.5157H221.855C219.098 9.55778 214.514 6.97075 209.318 6.97075C200.886 6.97075 194.047 13.8105 194.047 22.2423C194.047 30.6742 200.886 37.5139 209.318 37.5139C214.507 37.5139 219.091 34.9269 221.855 30.969H229.321Z" fill="#595B56"/>
<path d="M68.6917 0.425781C56.6412 0.425781 46.8755 10.1916 46.8755 22.2423V44.0589H53.4204V25.5148H83.9631V44.0589H90.508V22.2423C90.508 10.1916 80.7422 0.425781 68.6917 0.425781ZM53.7741 18.9699C55.2703 12.108 61.3803 6.97075 68.6917 6.97075C76.0031 6.97075 82.1131 12.108 83.6093 18.9699H53.7668H53.7741Z" fill="#595B56"/>
<path d="M293.348 28.7873C295.802 33.9466 301.057 37.5139 307.152 37.5139C314.464 37.5139 320.574 32.3767 322.07 25.5148H285.579C285.417 24.4461 285.336 23.3553 285.336 22.2424C285.336 10.1916 295.102 0.425781 307.152 0.425781C316.918 0.425781 325.188 6.84545 327.966 15.6974H320.95C318.495 10.5381 313.24 6.97075 307.145 6.97075C299.834 6.97075 293.724 12.108 292.227 18.9699H328.718C328.88 20.0386 328.961 21.1294 328.961 22.2424C328.961 34.2931 319.196 44.0589 307.145 44.0589C297.379 44.0589 289.11 37.6392 286.331 28.7873H293.348Z" fill="#595B56"/>
<path d="M385.632 25.5148V44.0589H379.087V22.2424C379.087 10.1916 388.853 0.425781 400.903 0.425781H422.719V6.97075H400.903C393.592 6.97075 387.482 12.108 385.986 18.9699H422.719V25.5148H385.632Z" fill="#00549C"/>
<path d="M432.507 25.5148V44.0589H425.962V22.2424C425.962 10.1916 435.728 0.425781 447.779 0.425781H469.595V6.97075H447.779C440.467 6.97075 434.357 12.108 432.861 18.9699H469.595V25.5148H432.507Z" fill="#BD1339"/>
<path d="M514.657 30.969C511.289 38.6711 503.602 44.0589 494.654 44.0589C482.604 44.0589 472.838 34.2931 472.838 22.2424C472.838 10.1916 482.604 0.425781 494.654 0.425781C503.602 0.425781 511.289 5.81358 514.657 13.5157H507.191C504.435 9.55778 499.85 6.97075 494.654 6.97075C486.222 6.97075 479.383 13.8105 479.383 22.2424C479.383 30.6742 486.222 37.5139 494.654 37.5139C499.843 37.5139 504.427 34.9269 507.191 30.969H514.657Z" fill="#595B56"/>
<path d="M354.028 0.425781C341.978 0.425781 332.212 10.1916 332.212 22.2424V44.0589H338.757V25.5148H369.3V44.0589H375.844V22.2424C375.844 10.1916 366.079 0.425781 354.028 0.425781ZM339.111 18.9699C340.607 12.108 346.717 6.97075 354.028 6.97075C361.34 6.97075 367.45 12.108 368.946 18.9699H339.103H339.111Z" fill="#35959A"/>
<path d="M575.53 53.4357C575.53 54.1654 575.272 54.7108 574.756 55.0572C574.232 55.411 573.54 55.5879 572.685 55.5879C572.353 55.5879 572.014 55.5584 571.682 55.4847C571.336 55.4258 571.041 55.3594 570.813 55.2857V54.2907C571.012 54.3939 571.269 54.4897 571.586 54.5708C571.756 54.6224 571.955 54.6666 572.169 54.7035C572.375 54.755 572.574 54.7771 572.773 54.7771C572.994 54.7771 573.201 54.755 573.414 54.7035C573.613 54.6592 573.79 54.6003 573.945 54.5044C574.078 54.4234 574.218 54.2981 574.35 54.1285C574.476 53.9811 574.542 53.7821 574.542 53.5536C574.542 53.3252 574.483 53.1335 574.372 52.9714C574.254 52.824 574.129 52.6987 573.997 52.5955C573.694 52.367 573.392 52.1754 573.075 52.0132C572.847 51.91 572.596 51.7847 572.323 51.6373C572.043 51.512 571.778 51.3572 571.55 51.1803C571.299 50.9887 571.1 50.7824 570.953 50.5539C570.805 50.3254 570.731 50.0601 570.731 49.7726C570.731 49.0945 570.96 48.5933 571.424 48.2764C571.874 47.9668 572.456 47.8047 573.171 47.8047C573.348 47.8047 573.54 47.8268 573.746 47.8489C573.938 47.8784 574.114 47.9079 574.269 47.9447C574.571 48.0037 574.837 48.0774 575.043 48.1511V49.0503C574.896 48.9692 574.623 48.866 574.24 48.7481C573.842 48.6449 573.458 48.5786 573.075 48.5786C572.692 48.5786 572.368 48.6744 572.102 48.8587C571.83 49.0577 571.704 49.3377 571.704 49.6915C571.704 49.8463 571.749 49.9863 571.83 50.0895C571.903 50.2075 571.999 50.3107 572.102 50.4138C572.22 50.517 572.353 50.6128 572.508 50.7087C572.655 50.8118 572.81 50.9003 572.957 50.9592C573.503 51.2172 573.908 51.431 574.203 51.5784C574.476 51.7331 574.704 51.8953 574.881 52.0574C575.05 52.2048 575.198 52.3891 575.323 52.6029C575.441 52.8313 575.5 53.1041 575.522 53.4357H575.53Z" fill="#595B56"/>
<path d="M581.065 55.4701H576.672V47.9375H580.961V48.7556H577.645V51.1289H580.821V51.947H577.645V54.6667H581.065V55.4849V55.4701Z" fill="#595B56"/>
<path d="M588.914 51.7106C588.914 52.2413 588.833 52.7572 588.671 53.2363C588.501 53.7301 588.266 54.1576 587.949 54.5114C587.632 54.8652 587.271 55.1379 586.828 55.3148C586.386 55.499 585.937 55.5875 585.48 55.5875C585.023 55.5875 584.573 55.5064 584.131 55.3148C583.689 55.1379 583.313 54.8652 583.01 54.5114C582.686 54.1576 582.443 53.7301 582.303 53.2363C582.148 52.7572 582.074 52.2413 582.074 51.7106C582.074 51.1799 582.148 50.6566 582.303 50.1628C582.45 49.6837 582.686 49.2562 583.01 48.8877C583.313 48.5339 583.689 48.2612 584.131 48.0696C584.573 47.8927 585.023 47.7969 585.48 47.7969C585.937 47.7969 586.386 47.8927 586.828 48.0696C587.271 48.2612 587.632 48.5266 587.949 48.8877C588.266 49.2562 588.501 49.6837 588.671 50.1628C588.826 50.6566 588.914 51.1652 588.914 51.7106ZM587.941 51.7106C587.941 51.2831 587.875 50.863 587.75 50.4576C587.624 50.0596 587.447 49.7279 587.234 49.4405C587.013 49.1678 586.755 48.9467 586.452 48.7919C586.136 48.6445 585.811 48.5708 585.48 48.5708C585.148 48.5708 584.831 48.6445 584.529 48.7919C584.212 48.9467 583.947 49.1678 583.725 49.4405C583.504 49.7206 583.335 50.0596 583.232 50.4576C583.106 50.863 583.055 51.2831 583.055 51.7106C583.055 52.1381 583.106 52.5435 583.232 52.9341C583.335 53.3321 583.504 53.6785 583.725 53.9586C583.947 54.2387 584.204 54.4524 584.521 54.5924C584.824 54.7399 585.148 54.8136 585.487 54.8136C585.826 54.8136 586.143 54.7399 586.46 54.5924C586.762 54.445 587.027 54.2387 587.241 53.9586C587.447 53.6785 587.624 53.3321 587.757 52.9341C587.882 52.5508 587.949 52.1381 587.949 51.7106H587.941Z" fill="#595B56"/>
<path d="M592.901 54.7695C593.218 54.7916 593.498 54.74 593.749 54.5999C593.977 54.4746 594.169 54.3199 594.294 54.1209C594.42 53.8998 594.523 53.6639 594.589 53.3986C594.648 53.148 594.685 52.89 594.685 52.6026V47.9297H595.65V52.6394C595.65 52.9563 595.621 53.2806 595.555 53.6197C595.481 53.9735 595.348 54.2978 595.149 54.5705C594.943 54.8726 594.655 55.1159 594.302 55.2928C593.933 55.4844 593.476 55.5729 592.909 55.5729C592.341 55.5729 591.884 55.477 591.53 55.2928C591.155 55.1159 590.874 54.8727 590.683 54.5852C590.476 54.3051 590.336 53.9808 590.277 53.627C590.218 53.2806 590.182 52.9563 590.182 52.6468V47.937H591.155V52.6099C591.155 52.89 591.177 53.1553 591.236 53.4059C591.287 53.6639 591.383 53.9071 591.508 54.1282C591.634 54.3125 591.81 54.4747 592.054 54.5852C592.282 54.7105 592.577 54.7695 592.909 54.7695H592.901Z" fill="#595B56"/>
<path d="M601.613 55.4701H597.213V47.9375H598.186V54.652H601.613V55.4701Z" fill="#595B56"/>
<path d="M606.456 55.4701H605.431L608.107 47.9375H609.138L611.836 55.4701H610.804L610.023 53.1484H607.252L606.456 55.4701ZM609.743 52.3229L608.652 49.0947L607.546 52.3229H609.743Z" fill="#595B56"/>
<path d="M618.359 50.0674H617.334C617.334 49.7947 617.282 49.5662 617.187 49.3893C617.083 49.2198 616.966 49.0798 616.818 48.9619C616.671 48.8439 616.516 48.7628 616.324 48.7039C616.125 48.6523 615.926 48.6228 615.742 48.6007C615.41 48.6007 615.101 48.6597 614.821 48.7776C614.526 48.9029 614.268 49.1019 614.047 49.3599C613.818 49.6105 613.642 49.9421 613.524 50.3549C613.398 50.775 613.332 51.1804 613.332 51.5857C613.332 51.8437 613.361 52.1606 613.435 52.5292C613.494 52.905 613.634 53.2588 613.818 53.6052C614.01 53.9369 614.275 54.2096 614.637 54.4381C614.983 54.6813 615.433 54.7919 615.985 54.7919C616.28 54.7919 616.568 54.7624 616.84 54.6961C617.113 54.6371 617.268 54.5929 617.312 54.5708V52.2417H615.484V51.4162H618.277V55.0425C617.879 55.2415 617.504 55.3742 617.128 55.4626C616.744 55.5437 616.287 55.5879 615.772 55.5879C615.167 55.5879 614.651 55.47 614.224 55.2341C613.782 55.0056 613.428 54.7034 613.133 54.3128C612.831 53.9295 612.617 53.4947 612.506 53.0156C612.381 52.5586 612.33 52.0722 612.33 51.5857C612.33 51.0993 612.396 50.6128 612.529 50.1559C612.654 49.7136 612.86 49.323 613.155 48.9619C613.435 48.6302 613.796 48.3427 614.231 48.129C614.651 47.9226 615.152 47.8047 615.727 47.8047C616.081 47.8047 616.42 47.8563 616.73 47.9595C617.032 48.0774 617.305 48.2174 617.555 48.4091C617.784 48.6081 617.983 48.8365 618.13 49.1093C618.277 49.382 618.351 49.7063 618.351 50.0674H618.359Z" fill="#595B56"/>
<path d="M624.793 50.1118C624.793 50.4582 624.697 50.7678 624.535 51.0405C624.358 51.3206 624.137 51.5417 623.879 51.6891C623.732 51.7701 623.51 51.8586 623.238 51.9397C623.761 52.2198 624.13 52.6177 624.336 53.141C624.609 53.8191 624.815 54.593 624.985 55.4701H623.96C623.754 54.2466 623.488 53.4211 623.179 53.001C622.81 52.5293 622.405 52.2934 621.948 52.2934H621.204V51.4458H621.933C622.184 51.4458 622.412 51.4237 622.633 51.3721C622.84 51.3279 623.039 51.2542 623.208 51.151C623.378 51.0552 623.525 50.9078 623.651 50.7235C623.768 50.5466 623.827 50.3403 623.827 50.1044C623.827 49.8538 623.768 49.6327 623.651 49.4558C623.525 49.2863 623.37 49.1536 623.201 49.0504C623.024 48.9546 622.825 48.8809 622.619 48.822C622.398 48.7704 622.176 48.7409 621.963 48.7409H620.82V55.4701H619.847V47.9375H621.963C622.316 47.9375 622.663 47.9817 622.995 48.0554C623.319 48.1365 623.614 48.2544 623.872 48.424C624.13 48.6008 624.351 48.822 624.542 49.0799C624.712 49.3526 624.8 49.699 624.8 50.1118H624.793Z" fill="#595B56"/>
<path d="M632.569 51.7106C632.569 52.2413 632.488 52.7572 632.325 53.2363C632.156 53.7301 631.92 54.1576 631.603 54.5114C631.286 54.8652 630.925 55.1379 630.483 55.3148C630.041 55.499 629.591 55.5875 629.134 55.5875C628.677 55.5875 628.228 55.5064 627.785 55.3148C627.343 55.1379 626.967 54.8652 626.665 54.5114C626.341 54.1576 626.098 53.7301 625.957 53.2363C625.803 52.7572 625.729 52.2413 625.729 51.7106C625.729 51.1799 625.803 50.6566 625.957 50.1628C626.105 49.6837 626.341 49.2562 626.665 48.8877C626.967 48.5339 627.343 48.2612 627.785 48.0696C628.228 47.8927 628.677 47.7969 629.134 47.7969C629.591 47.7969 630.041 47.8927 630.483 48.0696C630.925 48.2612 631.286 48.5266 631.603 48.8877C631.92 49.2562 632.156 49.6837 632.325 50.1628C632.48 50.6566 632.569 51.1652 632.569 51.7106ZM631.596 51.7106C631.596 51.2831 631.529 50.863 631.404 50.4576C631.279 50.0596 631.102 49.7279 630.888 49.4405C630.667 49.1678 630.409 48.9467 630.107 48.7919C629.79 48.6445 629.466 48.5708 629.134 48.5708C628.802 48.5708 628.486 48.6445 628.183 48.7919C627.866 48.9467 627.601 49.1678 627.38 49.4405C627.159 49.7206 626.989 50.0596 626.886 50.4576C626.761 50.863 626.709 51.2831 626.709 51.7106C626.709 52.1381 626.761 52.5435 626.886 52.9341C626.989 53.3321 627.159 53.6785 627.38 53.9586C627.601 54.2387 627.859 54.4524 628.176 54.5924C628.478 54.7399 628.802 54.8136 629.141 54.8136C629.481 54.8136 629.797 54.7399 630.114 54.5924C630.417 54.445 630.682 54.2387 630.896 53.9586C631.102 53.6785 631.279 53.3321 631.412 52.9341C631.537 52.5508 631.603 52.1381 631.603 51.7106H631.596Z" fill="#595B56"/>
<path d="M637.028 52.1597H633.527V51.3047H637.028V52.1597Z" fill="#595B56"/>
<path d="M642.592 48.7561H639.276V51.1294H642.474V51.9475H639.276V55.4779H638.303V47.9453H642.592V48.7634V48.7561Z" fill="#595B56"/>
<path d="M644.781 55.4701H643.808V47.9375H644.781V55.4701Z" fill="#595B56"/>
<path d="M650.81 53.4357C650.81 54.1654 650.552 54.7108 650.036 55.0572C649.513 55.411 648.82 55.5879 647.965 55.5879C647.634 55.5879 647.295 55.5584 646.963 55.4847C646.617 55.4258 646.322 55.3594 646.093 55.2857V54.2907C646.292 54.3939 646.55 54.4897 646.867 54.5708C647.037 54.6224 647.236 54.6666 647.449 54.7035C647.656 54.755 647.855 54.7771 648.054 54.7771C648.275 54.7771 648.481 54.755 648.695 54.7035C648.894 54.6592 649.071 54.6003 649.226 54.5044C649.358 54.4234 649.498 54.2981 649.631 54.1285C649.756 53.9811 649.823 53.7821 649.823 53.5536C649.823 53.3252 649.764 53.1335 649.653 52.9714C649.535 52.824 649.41 52.6987 649.277 52.5955C648.975 52.367 648.673 52.1754 648.356 52.0132C648.127 51.91 647.877 51.7847 647.604 51.6373C647.324 51.512 647.059 51.3572 646.83 51.1803C646.58 50.9887 646.381 50.7824 646.233 50.5539C646.086 50.3254 646.012 50.0601 646.012 49.7726C646.012 49.0945 646.241 48.5933 646.705 48.2764C647.155 47.9668 647.737 47.8047 648.452 47.8047C648.629 47.8047 648.82 47.8268 649.027 47.8489C649.218 47.8784 649.395 47.9079 649.55 47.9447C649.852 48.0037 650.117 48.0774 650.324 48.1511V49.0503C650.176 48.9692 649.904 48.866 649.52 48.7481C649.122 48.6449 648.739 48.5786 648.356 48.5786C647.973 48.5786 647.648 48.6744 647.383 48.8587C647.11 49.0577 646.985 49.3377 646.985 49.6915C646.985 49.8463 647.029 49.9863 647.11 50.0895C647.184 50.2075 647.28 50.3107 647.383 50.4138C647.501 50.517 647.634 50.6128 647.788 50.7087C647.936 50.8118 648.091 50.9003 648.238 50.9592C648.783 51.2172 649.189 51.431 649.484 51.5784C649.756 51.7331 649.985 51.8953 650.162 52.0574C650.331 52.2048 650.479 52.3891 650.604 52.6029C650.722 52.8313 650.781 53.1041 650.803 53.4357H650.81Z" fill="#595B56"/>
<path d="M657.289 55.4701H656.316V51.9618H652.926V55.4701H651.953V47.9375H652.926V51.1437H656.316V47.9375H657.289V55.4701Z" fill="#595B56"/>
<path d="M663.252 55.4701H658.859V47.9375H663.148V48.7556H659.832V51.1289H663.008V51.947H659.832V54.6667H663.252V55.4849V55.4701Z" fill="#595B56"/>
<path d="M669.539 50.1118C669.539 50.4582 669.443 50.7678 669.281 51.0405C669.104 51.3206 668.883 51.5417 668.625 51.6891C668.477 51.7701 668.256 51.8586 667.983 51.9397C668.507 52.2198 668.875 52.6177 669.082 53.141C669.354 53.8191 669.561 54.593 669.73 55.4701H668.706C668.499 54.2466 668.234 53.4211 667.924 53.001C667.556 52.5293 667.151 52.2934 666.694 52.2934H665.949V51.4458H666.679C666.929 51.4458 667.158 51.4237 667.379 51.3721C667.585 51.3279 667.784 51.2542 667.954 51.151C668.123 51.0552 668.271 50.9078 668.396 50.7235C668.514 50.5466 668.573 50.3403 668.573 50.1044C668.573 49.8538 668.514 49.6327 668.396 49.4558C668.271 49.2863 668.116 49.1536 667.947 49.0504C667.77 48.9546 667.571 48.8809 667.364 48.822C667.143 48.7704 666.922 48.7409 666.708 48.7409H665.566V55.4701H664.593V47.9375H666.708C667.062 47.9375 667.408 47.9817 667.74 48.0554C668.064 48.1365 668.359 48.2544 668.617 48.424C668.875 48.6008 669.096 48.822 669.288 49.0799C669.457 49.3526 669.546 49.699 669.546 50.1118H669.539Z" fill="#595B56"/>
<path d="M671.823 55.4701H670.85V47.9375H671.823V55.4701Z" fill="#595B56"/>
<path d="M677.823 55.4701H673.43V47.9375H677.719V48.7556H674.403V51.1289H677.579V51.947H674.403V54.6667H677.823V55.4849V55.4701Z" fill="#595B56"/>
<path d="M683.579 53.4357C683.579 54.1654 683.321 54.7108 682.805 55.0572C682.282 55.411 681.589 55.5879 680.734 55.5879C680.402 55.5879 680.063 55.5584 679.732 55.4847C679.385 55.4258 679.09 55.3594 678.862 55.2857V54.2907C679.061 54.3939 679.319 54.4897 679.636 54.5708C679.805 54.6224 680.004 54.6666 680.218 54.7035C680.424 54.755 680.623 54.7771 680.822 54.7771C681.043 54.7771 681.25 54.755 681.464 54.7035C681.663 54.6592 681.839 54.6003 681.994 54.5044C682.127 54.4234 682.267 54.2981 682.4 54.1285C682.525 53.9811 682.591 53.7821 682.591 53.5536C682.591 53.3252 682.532 53.1335 682.422 52.9714C682.304 52.824 682.178 52.6987 682.046 52.5955C681.744 52.367 681.441 52.1754 681.125 52.0132C680.896 51.91 680.645 51.7847 680.373 51.6373C680.093 51.512 679.827 51.3572 679.599 51.1803C679.348 50.9887 679.149 50.7824 679.002 50.5539C678.854 50.3254 678.781 50.0601 678.781 49.7726C678.781 49.0945 679.009 48.5933 679.474 48.2764C679.923 47.9668 680.505 47.8047 681.22 47.8047C681.397 47.8047 681.589 47.8268 681.795 47.8489C681.987 47.8784 682.164 47.9079 682.319 47.9447C682.621 48.0037 682.886 48.0774 683.092 48.1511V49.0503C682.945 48.9692 682.672 48.866 682.289 48.7481C681.891 48.6449 681.508 48.5786 681.125 48.5786C680.741 48.5786 680.417 48.6744 680.152 48.8587C679.879 49.0577 679.754 49.3377 679.754 49.6915C679.754 49.8463 679.798 49.9863 679.879 50.0895C679.953 50.2075 680.048 50.3107 680.152 50.4138C680.27 50.517 680.402 50.6128 680.557 50.7087C680.704 50.8118 680.859 50.9003 681.007 50.9592C681.552 51.2172 681.957 51.431 682.252 51.5784C682.525 51.7331 682.753 51.8953 682.93 52.0574C683.1 52.2048 683.247 52.3891 683.372 52.6029C683.49 52.8313 683.549 53.1041 683.571 53.4357H683.579Z" fill="#595B56"/>
<path d="M693.182 54.4385C692.865 54.7112 692.534 54.9618 692.158 55.183C691.679 55.4778 691.141 55.6252 690.581 55.6252C690.131 55.6252 689.704 55.5294 689.283 55.323C688.863 55.1387 688.539 54.8292 688.333 54.4164C688.156 54.0626 688.104 53.6646 688.185 53.2224C688.244 52.8023 688.443 52.4412 688.768 52.1242C689.114 51.7926 689.424 51.542 689.711 51.3577C689.984 51.1882 690.161 51.0629 690.264 51.0039C689.969 50.6796 689.748 50.3995 689.615 50.1489C689.468 49.9057 689.387 49.6772 689.365 49.4487C689.342 49.2276 689.372 49.0212 689.46 48.8149C689.541 48.6232 689.659 48.4611 689.807 48.3137C689.976 48.1663 690.183 48.041 690.426 47.9452C690.654 47.8641 690.898 47.8125 691.17 47.8125C691.377 47.8125 691.598 47.842 691.826 47.8936C692.047 47.9525 692.246 48.041 692.431 48.1515C692.608 48.2768 692.755 48.4316 692.88 48.6233C692.983 48.8223 693.05 49.0434 693.072 49.2939C693.072 49.5372 692.976 49.7878 692.814 50.0384C692.637 50.3111 692.416 50.5396 692.143 50.7459C691.937 50.9155 691.738 51.0555 691.539 51.1882L693.286 53.2077C693.558 52.9128 693.853 52.5886 694.163 52.2348L694.841 52.8097C694.494 53.1782 694.163 53.5172 693.824 53.8415L695.268 55.4999H694.089L693.19 54.4459L693.182 54.4385ZM690.802 51.623C690.36 51.8957 689.947 52.22 689.549 52.5738C689.372 52.7507 689.247 52.9792 689.18 53.2666C689.099 53.5615 689.129 53.8342 689.261 54.0995C689.342 54.3059 689.512 54.4975 689.777 54.6449C690.028 54.8144 690.293 54.8881 690.581 54.8881C690.905 54.8881 691.273 54.7702 691.686 54.5344C692.018 54.3501 692.342 54.1142 692.659 53.8268L690.794 51.6304L690.802 51.623ZM692.114 49.2203C692.114 49.0213 692.018 48.8444 691.841 48.6748C691.649 48.5201 691.436 48.4316 691.17 48.4316C690.927 48.4316 690.728 48.5127 690.588 48.6822C690.419 48.8591 690.345 49.0581 690.345 49.2792C690.345 49.5077 690.419 49.7362 690.588 49.972C690.743 50.2226 690.883 50.4143 690.993 50.5396C691.089 50.4953 691.244 50.3921 691.45 50.2153C691.583 50.1121 691.73 49.972 691.893 49.7878C692.04 49.6183 692.114 49.434 692.114 49.2203Z" fill="#595B56"/>
<path d="M704.039 48.7561H700.722V51.1294H703.921V51.9475H700.722V55.4779H699.75V47.9453H704.039V48.7634V48.7561Z" fill="#595B56"/>
<path d="M711.719 51.7106C711.719 52.2413 711.638 52.7572 711.476 53.2363C711.306 53.7301 711.07 54.1576 710.753 54.5114C710.436 54.8652 710.075 55.1379 709.633 55.3148C709.191 55.499 708.741 55.5875 708.284 55.5875C707.827 55.5875 707.378 55.5064 706.935 55.3148C706.493 55.1379 706.117 54.8652 705.815 54.5114C705.491 54.1576 705.248 53.7301 705.108 53.2363C704.953 52.7572 704.879 52.2413 704.879 51.7106C704.879 51.1799 704.953 50.6566 705.108 50.1628C705.255 49.6837 705.491 49.2562 705.815 48.8877C706.117 48.5339 706.493 48.2612 706.935 48.0696C707.378 47.8927 707.827 47.7969 708.284 47.7969C708.741 47.7969 709.191 47.8927 709.633 48.0696C710.075 48.2612 710.436 48.5266 710.753 48.8877C711.07 49.2562 711.306 49.6837 711.476 50.1628C711.63 50.6566 711.719 51.1652 711.719 51.7106ZM710.746 51.7106C710.746 51.2831 710.687 50.863 710.554 50.4576C710.429 50.0596 710.252 49.7279 710.038 49.4405C709.817 49.1678 709.559 48.9467 709.257 48.7919C708.948 48.6445 708.616 48.5708 708.284 48.5708C707.953 48.5708 707.636 48.6445 707.333 48.7919C707.017 48.9467 706.751 49.1678 706.53 49.4405C706.309 49.7206 706.139 50.0596 706.036 50.4576C705.911 50.863 705.859 51.2831 705.859 51.7106C705.859 52.1381 705.911 52.5435 706.036 52.9341C706.139 53.3321 706.309 53.6785 706.53 53.9586C706.751 54.2387 707.009 54.4524 707.326 54.5924C707.628 54.7399 707.953 54.8136 708.292 54.8136C708.631 54.8136 708.948 54.7399 709.265 54.5924C709.567 54.445 709.832 54.2387 710.046 53.9586C710.252 53.6785 710.436 53.3321 710.562 52.9341C710.687 52.5508 710.753 52.1381 710.753 51.7106H710.746Z" fill="#595B56"/>
<path d="M719.494 51.7106C719.494 52.2413 719.413 52.7572 719.251 53.2363C719.082 53.7301 718.846 54.1576 718.529 54.5114C718.212 54.8652 717.851 55.1379 717.409 55.3148C716.966 55.499 716.517 55.5875 716.06 55.5875C715.603 55.5875 715.153 55.5064 714.711 55.3148C714.269 55.1379 713.893 54.8652 713.591 54.5114C713.267 54.1576 713.023 53.7301 712.883 53.2363C712.728 52.7572 712.655 52.2413 712.655 51.7106C712.655 51.1799 712.728 50.6566 712.883 50.1628C713.031 49.6837 713.267 49.2562 713.591 48.8877C713.893 48.5339 714.269 48.2612 714.711 48.0696C715.153 47.8927 715.603 47.7969 716.06 47.7969C716.517 47.7969 716.966 47.8927 717.409 48.0696C717.851 48.2612 718.212 48.5266 718.529 48.8877C718.846 49.2562 719.082 49.6837 719.251 50.1628C719.406 50.6566 719.494 51.1652 719.494 51.7106ZM718.522 51.7106C718.522 51.2831 718.463 50.863 718.33 50.4576C718.205 50.0596 718.028 49.7279 717.814 49.4405C717.593 49.1678 717.335 48.9467 717.033 48.7919C716.716 48.6445 716.392 48.5708 716.06 48.5708C715.728 48.5708 715.411 48.6445 715.109 48.7919C714.792 48.9467 714.527 49.1678 714.306 49.4405C714.085 49.7206 713.915 50.0596 713.812 50.4576C713.687 50.863 713.635 51.2831 713.635 51.7106C713.635 52.1381 713.687 52.5435 713.812 52.9341C713.915 53.3321 714.085 53.6785 714.306 53.9586C714.527 54.2387 714.785 54.4524 715.102 54.5924C715.404 54.7399 715.728 54.8136 716.067 54.8136C716.406 54.8136 716.723 54.7399 717.04 54.5924C717.342 54.445 717.608 54.2387 717.821 53.9586C718.028 53.6785 718.212 53.3321 718.337 52.9341C718.463 52.5508 718.529 52.1381 718.529 51.7106H718.522Z" fill="#595B56"/>
<path d="M720.748 47.9375H722.502C722.73 47.9375 722.981 47.9449 723.253 47.967C723.511 47.9965 723.747 48.026 723.946 48.0702C724.271 48.1439 724.573 48.2765 724.853 48.4756C725.126 48.6819 725.384 48.9325 725.627 49.22C725.833 49.5148 726.017 49.8612 726.157 50.2666C726.29 50.6867 726.364 51.1731 726.364 51.7186C726.364 52.264 726.29 52.7136 726.157 53.1263C726.01 53.5538 725.833 53.9076 725.627 54.195C725.384 54.4899 725.126 54.7257 724.853 54.9247C724.573 55.1311 724.271 55.2785 723.946 55.3448C723.747 55.3891 723.519 55.4185 723.253 55.4406C722.981 55.4628 722.73 55.4701 722.502 55.4701H720.748V47.9375ZM721.713 48.7556V54.6594H722.531C722.686 54.6594 722.885 54.6594 723.128 54.6372C723.357 54.6299 723.534 54.593 723.674 54.5562C723.858 54.512 724.049 54.4235 724.256 54.2982C724.447 54.1729 724.632 53.996 724.809 53.7454C724.963 53.5169 725.103 53.2442 725.229 52.9126C725.347 52.5883 725.406 52.1903 725.406 51.7333C725.406 51.2763 725.347 50.8562 725.229 50.5245C725.103 50.2076 724.963 49.9275 724.809 49.6991C724.632 49.4558 724.44 49.2716 724.256 49.1463C724.049 49.021 723.858 48.9399 723.674 48.8883C723.541 48.8441 723.357 48.8146 723.128 48.7925C722.885 48.7851 722.686 48.7704 722.531 48.7704H721.713V48.7556Z" fill="#595B56"/>
<path d="M736.756 50.067H735.732C735.732 49.7943 735.68 49.5658 735.584 49.3889C735.481 49.2194 735.363 49.0793 735.216 48.9614C735.068 48.8435 734.913 48.7624 734.722 48.7034C734.523 48.6519 734.324 48.6224 734.14 48.6003C733.808 48.6003 733.498 48.6592 733.218 48.7772C732.923 48.9025 732.673 49.1015 732.444 49.3594C732.216 49.61 732.039 49.9417 731.921 50.3544C731.796 50.7745 731.737 51.1873 731.737 51.6C731.737 51.858 731.766 52.1749 731.84 52.5435C731.899 52.9193 732.032 53.2879 732.231 53.6269C732.43 53.9586 732.702 54.246 733.056 54.4598C733.388 54.6883 733.837 54.8062 734.397 54.8062C734.803 54.8062 735.193 54.7399 735.547 54.6146C735.894 54.4893 736.203 54.3419 736.476 54.165V55.1231C736.38 55.1673 736.277 55.2189 736.159 55.2705C736.034 55.3295 735.886 55.3885 735.717 55.4253C735.26 55.5432 734.737 55.5948 734.169 55.5948C733.565 55.5948 733.049 55.4769 732.629 55.2484C732.186 55.0273 731.825 54.7251 731.53 54.3271C731.213 53.9439 731.007 53.509 730.904 53.0299C730.779 52.5582 730.727 52.0791 730.727 51.5853C730.727 51.0915 730.786 50.6124 730.926 50.1554C731.051 49.7058 731.258 49.3078 731.553 48.954C731.833 48.6224 732.194 48.3349 732.629 48.1212C733.049 47.9148 733.55 47.7969 734.125 47.7969C734.479 47.7969 734.818 47.8485 735.127 47.9517C735.429 48.0696 735.702 48.2096 735.953 48.4013C736.181 48.6003 736.38 48.8288 736.528 49.1015C736.675 49.3742 736.749 49.6985 736.749 50.0596L736.756 50.067Z" fill="#595B56"/>
<path d="M744.443 51.7106C744.443 52.2413 744.362 52.7572 744.2 53.2363C744.03 53.7301 743.795 54.1576 743.478 54.5114C743.161 54.8652 742.8 55.1379 742.357 55.3148C741.915 55.499 741.466 55.5875 741.009 55.5875C740.552 55.5875 740.102 55.5064 739.66 55.3148C739.218 55.1379 738.842 54.8652 738.54 54.5114C738.215 54.1576 737.972 53.7301 737.832 53.2363C737.677 52.7572 737.604 52.2413 737.604 51.7106C737.604 51.1799 737.677 50.6566 737.832 50.1628C737.979 49.6837 738.215 49.2562 738.54 48.8877C738.842 48.5339 739.218 48.2612 739.66 48.0696C740.102 47.8927 740.552 47.7969 741.009 47.7969C741.466 47.7969 741.915 47.8927 742.357 48.0696C742.8 48.2612 743.161 48.5266 743.478 48.8877C743.795 49.2562 744.03 49.6837 744.2 50.1628C744.355 50.6566 744.443 51.1652 744.443 51.7106ZM743.47 51.7106C743.47 51.2831 743.411 50.863 743.279 50.4576C743.153 50.0596 742.977 49.7279 742.763 49.4405C742.542 49.1678 742.284 48.9467 741.981 48.7919C741.665 48.6445 741.34 48.5708 741.009 48.5708C740.677 48.5708 740.36 48.6445 740.058 48.7919C739.741 48.9467 739.476 49.1678 739.254 49.4405C739.033 49.7206 738.864 50.0596 738.761 50.4576C738.635 50.863 738.584 51.2831 738.584 51.7106C738.584 52.1381 738.635 52.5435 738.761 52.9341C738.864 53.3321 739.033 53.6785 739.254 53.9586C739.476 54.2387 739.734 54.4524 740.05 54.5924C740.353 54.7399 740.677 54.8136 741.016 54.8136C741.355 54.8136 741.672 54.7399 741.989 54.5924C742.291 54.445 742.556 54.2387 742.77 53.9586C742.976 53.6785 743.161 53.3321 743.286 52.9341C743.411 52.5508 743.478 52.1381 743.478 51.7106H743.47Z" fill="#595B56"/>
<path d="M750.656 50.1118C750.656 50.4582 750.561 50.7678 750.398 51.0405C750.222 51.3206 750 51.5417 749.743 51.6891C749.595 51.7701 749.374 51.8586 749.101 51.9397C749.625 52.2198 749.993 52.6177 750.199 53.141C750.472 53.8191 750.679 54.593 750.848 55.4701H749.824C749.617 54.2466 749.352 53.4211 749.042 53.001C748.674 52.5293 748.268 52.2934 747.811 52.2934H747.067V51.4458H747.797C748.047 51.4458 748.276 51.4237 748.497 51.3721C748.703 51.3279 748.902 51.2542 749.072 51.151C749.241 51.0552 749.389 50.9078 749.514 50.7235C749.632 50.5466 749.691 50.3403 749.691 50.1044C749.691 49.8538 749.632 49.6327 749.514 49.4558C749.389 49.2863 749.234 49.1536 749.064 49.0504C748.888 48.9546 748.689 48.8809 748.482 48.822C748.261 48.7704 748.04 48.7409 747.826 48.7409H746.684V55.4701H745.711V47.9375H747.826C748.18 47.9375 748.526 47.9817 748.858 48.0554C749.182 48.1365 749.477 48.2544 749.735 48.424C749.993 48.6008 750.214 48.822 750.406 49.0799C750.575 49.3526 750.664 49.699 750.664 50.1118H750.656Z" fill="#595B56"/>
<path d="M756.87 50.1707C756.87 50.554 756.774 50.9004 756.612 51.1953C756.435 51.5048 756.214 51.748 755.956 51.9175C755.698 52.1018 755.403 52.2345 755.079 52.2934C754.747 52.3672 754.386 52.3966 754.032 52.3966H753.339V51.549H754.01C754.261 51.549 754.489 51.5269 754.718 51.4901C754.924 51.4458 755.116 51.3721 755.285 51.2616C755.455 51.1584 755.602 51.011 755.727 50.812C755.845 50.6203 755.904 50.414 755.904 50.1707C755.904 49.8759 755.845 49.6401 755.727 49.4632C755.602 49.2937 755.447 49.1684 755.278 49.0652C755.101 48.962 754.902 48.8883 754.696 48.822C754.474 48.7704 754.253 48.7409 754.04 48.7409H752.897V55.4701H751.924V47.9375H754.04C754.393 47.9375 754.74 47.9817 755.064 48.0554C755.381 48.1365 755.683 48.2544 755.956 48.424C756.229 48.5935 756.45 48.822 756.627 49.1168C756.796 49.4116 756.885 49.7654 756.885 50.1855L756.87 50.1707Z" fill="#595B56"/>
<path d="M764.527 51.7106C764.527 52.2413 764.446 52.7572 764.284 53.2363C764.115 53.7301 763.879 54.1576 763.562 54.5114C763.245 54.8652 762.884 55.1379 762.442 55.3148C761.999 55.499 761.55 55.5875 761.093 55.5875C760.636 55.5875 760.186 55.5064 759.744 55.3148C759.302 55.1379 758.926 54.8652 758.624 54.5114C758.299 54.1576 758.056 53.7301 757.916 53.2363C757.761 52.7572 757.688 52.2413 757.688 51.7106C757.688 51.1799 757.761 50.6566 757.916 50.1628C758.064 49.6837 758.299 49.2562 758.624 48.8877C758.926 48.5339 759.302 48.2612 759.744 48.0696C760.186 47.8927 760.636 47.7969 761.093 47.7969C761.55 47.7969 761.999 47.8927 762.442 48.0696C762.884 48.2612 763.245 48.5266 763.562 48.8877C763.879 49.2562 764.115 49.6837 764.284 50.1628C764.439 50.6566 764.527 51.1652 764.527 51.7106ZM763.555 51.7106C763.555 51.2831 763.496 50.863 763.363 50.4576C763.238 50.0596 763.061 49.7279 762.847 49.4405C762.626 49.1678 762.368 48.9467 762.066 48.7919C761.756 48.6445 761.424 48.5708 761.093 48.5708C760.761 48.5708 760.444 48.6445 760.142 48.7919C759.825 48.9467 759.56 49.1678 759.339 49.4405C759.118 49.7206 758.948 50.0596 758.845 50.4576C758.72 50.863 758.668 51.2831 758.668 51.7106C758.668 52.1381 758.72 52.5435 758.845 52.9341C758.948 53.3321 759.118 53.6785 759.339 53.9586C759.56 54.2387 759.818 54.4524 760.135 54.5924C760.437 54.7399 760.761 54.8136 761.1 54.8136C761.439 54.8136 761.756 54.7399 762.073 54.5924C762.375 54.445 762.641 54.2387 762.854 53.9586C763.061 53.6785 763.245 53.3321 763.37 52.9341C763.496 52.5508 763.562 52.1381 763.562 51.7106H763.555Z" fill="#595B56"/>
<path d="M770.74 50.1118C770.74 50.4582 770.645 50.7678 770.482 51.0405C770.306 51.3206 770.084 51.5417 769.827 51.6891C769.679 51.7701 769.458 51.8586 769.185 51.9397C769.709 52.2198 770.077 52.6177 770.283 53.141C770.556 53.8191 770.763 54.593 770.932 55.4701H769.908C769.701 54.2466 769.436 53.4211 769.126 53.001C768.758 52.5293 768.352 52.2934 767.895 52.2934H767.151V51.4458H767.881C768.131 51.4458 768.36 51.4237 768.581 51.3721C768.787 51.3279 768.986 51.2542 769.156 51.151C769.325 51.0552 769.473 50.9078 769.598 50.7235C769.716 50.5466 769.775 50.3403 769.775 50.1044C769.775 49.8538 769.716 49.6327 769.598 49.4558C769.473 49.2863 769.318 49.1536 769.148 49.0504C768.972 48.9546 768.773 48.8809 768.566 48.822C768.345 48.7704 768.124 48.7409 767.91 48.7409H766.768V55.4701H765.795V47.9375H767.91C768.264 47.9375 768.61 47.9817 768.942 48.0554C769.266 48.1365 769.561 48.2544 769.819 48.424C770.077 48.6008 770.298 48.822 770.49 49.0799C770.659 49.3526 770.748 49.699 770.748 50.1118H770.74Z" fill="#595B56"/>
<path d="M772.429 55.4701H771.404L774.079 47.9375H775.119L777.816 55.4701H776.777L775.996 53.1484H773.225L772.429 55.4701ZM775.716 52.3229L774.625 49.0947L773.519 52.3229H775.716Z" fill="#595B56"/>
<path d="M783.204 48.7556H780.816V55.4775H779.843V48.7556H777.455V47.9375H783.197V48.7556H783.204Z" fill="#595B56"/>
<path d="M785.282 55.4701H784.31V47.9375H785.282V55.4701Z" fill="#595B56"/>
<path d="M793.412 51.7106C793.412 52.2413 793.331 52.7572 793.169 53.2363C792.999 53.7301 792.763 54.1576 792.446 54.5114C792.13 54.8652 791.768 55.1379 791.326 55.3148C790.884 55.499 790.434 55.5875 789.977 55.5875C789.52 55.5875 789.071 55.5064 788.629 55.3148C788.186 55.1379 787.81 54.8652 787.508 54.5114C787.184 54.1576 786.941 53.7301 786.801 53.2363C786.646 52.7572 786.572 52.2413 786.572 51.7106C786.572 51.1799 786.646 50.6566 786.801 50.1628C786.948 49.6837 787.184 49.2562 787.508 48.8877C787.81 48.5339 788.186 48.2612 788.629 48.0696C789.071 47.8927 789.52 47.7969 789.977 47.7969C790.434 47.7969 790.884 47.8927 791.326 48.0696C791.768 48.2612 792.13 48.5266 792.446 48.8877C792.763 49.2562 792.999 49.6837 793.169 50.1628C793.324 50.6566 793.412 51.1652 793.412 51.7106ZM792.439 51.7106C792.439 51.2831 792.38 50.863 792.247 50.4576C792.122 50.0596 791.945 49.7279 791.732 49.4405C791.51 49.1678 791.252 48.9467 790.95 48.7919C790.641 48.6445 790.309 48.5708 789.977 48.5708C789.646 48.5708 789.329 48.6445 789.027 48.7919C788.71 48.9467 788.444 49.1678 788.223 49.4405C788.002 49.7206 787.833 50.0596 787.729 50.4576C787.604 50.863 787.553 51.2831 787.553 51.7106C787.553 52.1381 787.604 52.5435 787.729 52.9341C787.833 53.3321 788.002 53.6785 788.223 53.9586C788.444 54.2387 788.702 54.4524 789.019 54.5924C789.321 54.7399 789.646 54.8136 789.985 54.8136C790.324 54.8136 790.641 54.7399 790.958 54.5924C791.26 54.445 791.525 54.2387 791.739 53.9586C791.945 53.6785 792.13 53.3321 792.255 52.9341C792.38 52.5508 792.446 52.1381 792.446 51.7106H792.439Z" fill="#595B56"/>
<path d="M800.001 55.4701H798.881L795.593 49.2937V55.4701H794.665V47.9375H795.763L799.065 54.1361V47.9375H799.994V55.4701H800.001Z" fill="#595B56"/>
<path d="M578.684 28.7873C581.138 33.9466 586.393 37.5139 592.489 37.5139C599.8 37.5139 605.91 32.3767 607.406 25.5148H570.916C570.753 24.4461 570.672 23.3553 570.672 22.2424C570.672 10.1916 580.438 0.425781 592.489 0.425781C602.254 0.425781 610.524 6.84545 613.302 15.6974H606.286C603.832 10.5381 598.577 6.97075 592.481 6.97075C585.17 6.97075 579.06 12.108 577.564 18.9699H614.054C614.216 20.0386 614.297 21.1294 614.297 22.2424C614.297 34.2931 604.532 44.0589 592.481 44.0589C582.716 44.0589 574.446 37.6392 571.667 28.7873H578.684Z" fill="#595B56"/>
<path d="M670.968 25.5148V44.0589H664.423V22.2424C664.423 10.1916 674.189 0.425781 686.24 0.425781H708.056V6.97075H686.24C678.928 6.97075 672.818 12.108 671.322 18.9699H708.056V25.5148H670.968Z" fill="#00549C"/>
<path d="M717.843 25.5148V44.0589H711.299V22.2424C711.299 10.1916 721.064 0.425781 733.115 0.425781H754.931V6.97075H733.115C725.803 6.97075 719.693 12.108 718.197 18.9699H754.931V25.5148H717.843Z" fill="#BD1339"/>
<path d="M799.993 30.969C796.625 38.6711 788.938 44.0589 779.99 44.0589C767.94 44.0589 758.174 34.2931 758.174 22.2424C758.174 10.1916 767.94 0.425781 779.99 0.425781C788.938 0.425781 796.625 5.8136 799.993 13.5157H792.527C789.771 9.55779 785.186 6.97075 779.99 6.97075C771.559 6.97075 764.719 13.8105 764.719 22.2424C764.719 30.6742 771.559 37.5139 779.99 37.5139C785.179 37.5139 789.763 34.9269 792.527 30.969H799.993Z" fill="#595B56"/>
<path d="M639.364 0.425781C627.314 0.425781 617.548 10.1916 617.548 22.2424V44.0589H624.093V25.5148H654.635V44.0589H661.18V22.2424C661.18 10.1916 651.415 0.425781 639.364 0.425781ZM624.446 18.9699C625.943 12.108 632.053 6.97075 639.364 6.97075C646.675 6.97075 652.785 12.108 654.282 18.9699H624.439H624.446Z" fill="#35959A"/>
</svg>
