<svg width="310" height="40" viewBox="0 0 310 40" fill="none" xmlns="http://www.w3.org/2000/svg">
<path d="M309.631 0.5V23.408H301.857V0.5H309.631ZM296.797 0.960002V14.576H280.605V16.83H290.725C294.267 16.83 297.717 16.324 299.787 15.45V21.338C297.763 22.212 294.313 22.718 290.633 22.718H272.923V9.102H289.115V6.848H272.831V0.960002H296.797ZM309.631 24.788V39.784H274.487V24.788H309.631ZM282.215 33.712H301.903V30.86H282.215V33.712Z" fill="#2F5BC1"/>
<path d="M265.969 1.41992V8.64192H238.507V18.5319H266.429V25.7079H230.549V1.41992H265.969ZM268.131 31.1359V38.4039H228.387V31.1359H268.131Z" fill="#2F5BC1"/>
<path d="M215.637 0.5H223.319V39.784H215.637V26.674H209.933V19.406H215.637V15.082H209.933V7.814H215.637V0.5ZM194.431 30.952H201.699C205.425 30.952 209.473 30.308 211.865 29.342V36.242C209.473 37.346 205.057 37.944 201.285 37.944H186.703V16.14H199.905V8.412H186.611V1.42H207.541V23.04H194.431V30.952Z" fill="#2F5BC1"/>
<path d="M178.783 5.882H183.383V13.426H178.783V19.728H171.009V0.5H178.783V5.882ZM166.639 10.068C166.639 15.772 161.809 19.59 154.173 19.59C146.537 19.59 141.707 15.772 141.707 10.068C141.707 4.41 146.537 0.546002 154.173 0.546002C161.809 0.546002 166.639 4.41 166.639 10.068ZM149.389 10.068C149.389 12.138 151.229 13.472 154.173 13.472C157.117 13.472 158.957 12.138 158.957 10.068C158.957 7.998 157.117 6.664 154.173 6.664C151.229 6.664 149.389 7.998 149.389 10.068ZM152.287 32.838V34.402H179.197V39.784H144.605V28.054H171.101V26.49H144.513V21.108H178.783V32.838H152.287Z" fill="#2F5BC1"/>
<path d="M117.156 0.5H124.93V39.784H117.156V22.304H111.544V15.036H117.156V0.5ZM96.0885 30.814H103.54C107.266 30.814 111.314 30.078 113.706 28.928V36.058C111.314 37.254 107.312 37.944 103.54 37.944H88.3145V1.42H110.9V8.55H96.0885V16.002H109.06V23.086H96.0885V30.814Z" fill="#2F5BC1"/>
<path d="M81.4983 0.5V39.784H73.7243V0.5H81.4983ZM57.0263 0.960002C64.4323 0.960002 69.3543 6.756 69.3543 19.682C69.3543 32.608 64.4323 38.404 57.0263 38.404C49.6203 38.404 44.6523 32.608 44.6523 19.682C44.6523 6.756 49.6203 0.960002 57.0263 0.960002ZM57.0263 8.09C54.4043 8.09 52.3343 10.896 52.3343 19.682C52.3343 28.514 54.4043 31.274 57.0263 31.274C59.6023 31.274 61.6723 28.514 61.6723 19.682C61.6723 10.896 59.6023 8.09 57.0263 8.09Z" fill="#2F5BC1"/>
<path d="M32.0863 0.5H39.3543V39.784H32.0863V0.5ZM22.1963 14.944V0.684001H29.3723V39.094H22.1963V22.212H14.5603V14.944H22.1963ZM8.44234 31.136H11.1103C14.1923 31.136 17.8723 30.538 20.2643 29.572V36.288C17.9183 37.346 13.7323 37.944 10.4203 37.944H0.944336V1.42H18.5623V8.228H8.44234V31.136Z" fill="#2F5BC1"/>
</svg>
