<svg width="835" height="305" viewBox="0 0 835 305" fill="none" xmlns="http://www.w3.org/2000/svg">
<g opacity="0.9" filter="url(#filter0_d_2839_6405)">
<circle cx="153" cy="150" r="150" fill="#0584BF"/>
</g>
<path d="M120.605 96.418H124.929V100.145H120.605V110.551H116.105V87.2422H120.605V96.418ZM95.4333 97.4375C95.4333 95.8789 95.8201 94.4844 96.5935 93.2539C97.3669 92.0117 98.4216 91.0449 99.7576 90.3535C101.105 89.6621 102.594 89.3164 104.222 89.3164C105.84 89.3164 107.31 89.6621 108.635 90.3535C109.97 91.0449 111.019 92.0117 111.781 93.2539C112.554 94.4844 112.941 95.8789 112.941 97.4375C112.941 98.9727 112.554 100.361 111.781 101.604C111.019 102.834 109.97 103.801 108.635 104.504C107.31 105.207 105.84 105.559 104.222 105.559C102.594 105.559 101.105 105.207 99.7576 104.504C98.4216 103.801 97.3669 102.834 96.5935 101.604C95.8201 100.361 95.4333 98.9727 95.4333 97.4375ZM99.863 108.09H104.328V115.086H121.765V118.672H99.863V108.09ZM99.863 97.4375C99.8513 98.2812 100.033 99.0254 100.408 99.6699C100.795 100.303 101.322 100.795 101.99 101.146C102.658 101.486 103.402 101.656 104.222 101.656C105.043 101.656 105.781 101.486 106.437 101.146C107.105 100.795 107.627 100.303 108.002 99.6699C108.388 99.0254 108.582 98.2812 108.582 97.4375C108.582 96.5703 108.388 95.8203 108.002 95.1875C107.627 94.543 107.105 94.0508 106.437 93.7109C105.781 93.3711 105.043 93.207 104.222 93.2188C103.402 93.207 102.658 93.3711 101.99 93.7109C101.322 94.0508 100.795 94.543 100.408 95.1875C100.033 95.8203 99.8513 96.5703 99.863 97.4375ZM153.301 110.621H148.836V99.1602H143.597V95.5391H148.836V87.2773H153.301V110.621ZM126.16 103.414C127.859 102.887 129.283 102.113 130.431 101.094C131.58 100.062 132.435 98.8965 132.998 97.5957C133.56 96.2832 133.847 94.918 133.859 93.5V93.0078H127.426V89.4219H144.793V93.0078H138.429V93.5352C138.418 94.8125 138.681 96.0664 139.22 97.2969C139.76 98.5156 140.58 99.6172 141.681 100.602C142.783 101.574 144.148 102.324 145.777 102.852L143.562 106.402C141.84 105.84 140.357 105.014 139.115 103.924C137.885 102.822 136.912 101.533 136.197 100.057C135.459 101.709 134.439 103.139 133.138 104.346C131.838 105.553 130.273 106.461 128.445 107.07L126.16 103.414ZM132.066 108.582H136.566V115.086H154.074V118.672H132.066V108.582ZM182.691 99.7578H187.402V103.449H182.691V119.234H178.261V87.2422H182.691V99.7578ZM157.273 92.0234H164.515V87.7344H169.015V92.0234H176.082V95.6094H157.273V92.0234ZM158.574 105.031C158.574 103.566 158.926 102.254 159.629 101.094C160.332 99.9336 161.304 99.0312 162.547 98.3867C163.801 97.7305 165.207 97.4023 166.765 97.4023C168.301 97.4023 169.689 97.7305 170.931 98.3867C172.174 99.0312 173.146 99.9336 173.849 101.094C174.564 102.254 174.922 103.566 174.922 105.031C174.922 106.496 174.564 107.809 173.849 108.969C173.146 110.117 172.174 111.02 170.931 111.676C169.689 112.332 168.301 112.66 166.765 112.66C165.207 112.66 163.801 112.332 162.547 111.676C161.304 111.02 160.332 110.117 159.629 108.969C158.926 107.809 158.574 106.496 158.574 105.031ZM162.863 105.031C162.863 105.84 163.027 106.543 163.355 107.141C163.695 107.738 164.158 108.195 164.744 108.512C165.33 108.828 166.004 108.98 166.765 108.969C167.515 108.98 168.183 108.828 168.769 108.512C169.355 108.195 169.812 107.738 170.14 107.141C170.469 106.543 170.633 105.84 170.633 105.031C170.633 104.223 170.469 103.52 170.14 102.922C169.812 102.324 169.355 101.861 168.769 101.533C168.183 101.205 167.515 101.035 166.765 101.023C166.004 101.035 165.33 101.205 164.744 101.533C164.158 101.861 163.695 102.324 163.355 102.922C163.027 103.52 162.863 104.223 162.863 105.031ZM214.929 93.043C214.918 94.9062 214.888 96.5059 214.842 97.8418C214.806 99.166 214.695 100.725 214.508 102.518C214.32 104.299 214.027 106.238 213.629 108.336L209.129 107.879C209.679 105.195 210.031 102.781 210.183 100.637C210.336 98.4805 210.418 96.125 210.429 93.5703H191.586V90.0195H214.929V93.043ZM188.562 111.676H199.004V100.672H203.469V111.676H217.742V115.332H188.562V111.676ZM88.6306 151.555H72.9861V137.141H88.6306V151.555ZM76.8181 154.824H98.3337V158.41H81.2478V163.297H98.8962V166.883H76.8181V154.824ZM84.1658 148.004V140.727H77.4158V148.004H84.1658ZM93.658 135.277H98.158V153.277H93.658V135.277ZM117.072 135.699C119.521 135.699 121.613 135.91 123.347 136.332C125.094 136.754 126.424 137.375 127.338 138.195C128.252 139.004 128.709 139.988 128.709 141.148C128.709 142.332 128.252 143.334 127.338 144.154C126.424 144.963 125.099 145.578 123.365 146C121.631 146.422 119.533 146.633 117.072 146.633C114.611 146.633 112.508 146.422 110.761 146C109.015 145.578 107.685 144.963 106.771 144.154C105.857 143.334 105.4 142.332 105.4 141.148C105.4 139.988 105.857 139.004 106.771 138.195C107.685 137.375 109.015 136.754 110.761 136.332C112.508 135.91 114.611 135.699 117.072 135.699ZM102.482 148.145H131.662V151.695H102.482V148.145ZM105.857 153.559H128.111V161.715H110.287V163.648H128.955V167.023H105.892V158.586H123.681V156.828H105.857V153.559ZM110.111 141.148C110.099 141.922 110.656 142.479 111.781 142.818C112.918 143.158 114.681 143.328 117.072 143.328C119.474 143.328 121.238 143.158 122.363 142.818C123.5 142.479 124.068 141.922 124.068 141.148C124.068 139.695 121.736 138.969 117.072 138.969C114.74 138.969 112.994 139.156 111.834 139.531C110.674 139.895 110.099 140.434 110.111 141.148ZM158.873 137.738C158.861 139.039 159.289 140.316 160.156 141.57C161.035 142.812 162.318 143.891 164.006 144.805C165.693 145.707 167.709 146.305 170.052 146.598L168.295 150.219C165.552 149.82 163.168 149.023 161.14 147.828C159.125 146.621 157.584 145.133 156.517 143.363C155.439 145.133 153.892 146.621 151.877 147.828C149.873 149.023 147.517 149.82 144.81 150.219L143.017 146.598C145.338 146.305 147.336 145.707 149.011 144.805C150.699 143.891 151.976 142.812 152.844 141.57C153.711 140.316 154.15 139.039 154.162 137.738V136.191H158.873V137.738ZM141.892 152.645H171.072V156.301H158.627V167.234H154.197V156.301H141.892V152.645ZM192.939 155.773C192.939 157.133 193.244 158.428 193.853 159.658C194.463 160.889 195.383 161.926 196.613 162.77C197.879 161.879 198.828 160.807 199.461 159.553C200.105 158.299 200.427 157.039 200.427 155.773V154.684H204.857V155.773C204.834 157.543 205.32 159.119 206.316 160.502C207.312 161.873 208.83 162.875 210.869 163.508L208.689 166.777C207.201 166.273 205.941 165.553 204.91 164.615C203.89 163.689 203.094 162.588 202.519 161.311C201.969 162.611 201.207 163.76 200.234 164.756C199.273 165.752 198.107 166.52 196.736 167.059C195.295 166.531 194.082 165.781 193.097 164.809C192.113 163.848 191.351 162.723 190.812 161.434C190.226 162.664 189.429 163.736 188.422 164.65C187.414 165.564 186.201 166.273 184.783 166.777L182.568 163.508C183.916 163.051 185.035 162.418 185.926 161.609C186.828 160.801 187.49 159.898 187.912 158.902C188.345 157.895 188.568 156.852 188.58 155.773V154.684H192.939V155.773ZM181.795 144.594C181.795 143.105 182.176 141.781 182.937 140.621C183.699 139.449 184.742 138.535 186.066 137.879C187.402 137.223 188.896 136.895 190.549 136.895C192.189 136.895 193.672 137.223 194.996 137.879C196.332 138.535 197.381 139.449 198.142 140.621C198.916 141.781 199.302 143.105 199.302 144.594C199.302 146.059 198.916 147.371 198.142 148.531C197.381 149.691 196.332 150.6 194.996 151.256C193.672 151.9 192.189 152.223 190.549 152.223C188.908 152.223 187.42 151.9 186.084 151.256C184.748 150.6 183.699 149.691 182.937 148.531C182.176 147.371 181.795 146.059 181.795 144.594ZM186.189 144.594C186.177 145.379 186.353 146.07 186.717 146.668C187.092 147.254 187.607 147.705 188.263 148.021C188.931 148.338 189.693 148.496 190.549 148.496C191.381 148.496 192.119 148.338 192.763 148.021C193.42 147.705 193.935 147.254 194.31 146.668C194.685 146.07 194.873 145.379 194.873 144.594C194.873 143.785 194.685 143.088 194.31 142.502C193.935 141.904 193.42 141.447 192.763 141.131C192.119 140.814 191.381 140.656 190.549 140.656C189.693 140.656 188.931 140.814 188.263 141.131C187.607 141.447 187.092 141.904 186.717 142.502C186.353 143.088 186.177 143.785 186.189 144.594ZM203.592 135.277H208.092V153.348H203.592V135.277ZM238.396 147.477H216.037V136.367H220.502V143.961H238.396V147.477ZM212.381 150.922H241.666V154.438H212.381V150.922ZM215.756 157.039H220.256V162.945H238.607V166.531H215.756V157.039ZM121.168 194.844H112.062V198.043H124.472V201.629H95.2224V198.043H107.597V194.844H98.9138V183.734H103.379V191.258H121.168V194.844ZM98.5623 209.293C98.5623 208.039 99.0076 206.967 99.8982 206.076C100.801 205.186 102.09 204.512 103.765 204.055C105.453 203.586 107.457 203.352 109.777 203.352C112.086 203.352 114.072 203.586 115.736 204.055C117.4 204.512 118.677 205.186 119.568 206.076C120.459 206.967 120.91 208.039 120.922 209.293C120.91 210.547 120.459 211.619 119.568 212.51C118.677 213.4 117.4 214.074 115.736 214.531C114.072 215 112.086 215.234 109.777 215.234C107.457 215.234 105.453 215 103.765 214.531C102.09 214.074 100.801 213.4 99.8982 212.51C99.0076 211.619 98.5623 210.547 98.5623 209.293ZM103.133 209.293C103.121 210.125 103.672 210.758 104.785 211.191C105.91 211.613 107.574 211.824 109.777 211.824C111.945 211.824 113.592 211.613 114.717 211.191C115.842 210.758 116.41 210.125 116.422 209.293C116.41 207.629 114.242 206.797 109.918 206.797C107.633 206.797 105.927 207.002 104.802 207.412C103.677 207.811 103.121 208.438 103.133 209.293ZM143.316 185.738C143.304 187.039 143.732 188.316 144.599 189.57C145.478 190.812 146.761 191.891 148.449 192.805C150.136 193.707 152.152 194.305 154.496 194.598L152.738 198.219C149.996 197.82 147.611 197.023 145.584 195.828C143.568 194.621 142.027 193.133 140.961 191.363C139.883 193.133 138.336 194.621 136.32 195.828C134.316 197.023 131.961 197.82 129.254 198.219L127.461 194.598C129.781 194.305 131.779 193.707 133.455 192.805C135.142 191.891 136.42 190.812 137.287 189.57C138.154 188.316 138.594 187.039 138.605 185.738V184.191H143.316V185.738ZM126.336 200.645H155.515V204.301H143.07V215.234H138.64V204.301H126.336V200.645ZM169.261 188.727C169.25 190.133 169.513 191.475 170.052 192.752C170.603 194.029 171.435 195.166 172.549 196.162C173.674 197.158 175.074 197.926 176.75 198.465L174.394 201.98C172.683 201.406 171.213 200.574 169.982 199.484C168.763 198.395 167.797 197.1 167.082 195.6C166.355 197.24 165.347 198.658 164.058 199.854C162.769 201.049 161.222 201.957 159.418 202.578L156.922 199.027C158.679 198.488 160.138 197.691 161.299 196.637C162.47 195.582 163.338 194.375 163.9 193.016C164.463 191.645 164.75 190.203 164.761 188.691V185.211H169.261V188.727ZM162.054 204.371H166.625V211.086H184.027V214.672H162.054V204.371ZM178.332 183.242H182.832V192.488H187.156V196.285H182.832V206.691H178.332V183.242ZM217.742 199.484H205.367V201.523H214.191V209.715H196.367V211.648H215.035V215.023H191.972V206.551H209.761V204.898H191.937V201.523H200.867V199.484H188.562V195.934H217.742V199.484ZM192.183 184.156H214.051V194.246H192.183V184.156ZM209.586 190.801V187.637H196.578V190.801H209.586Z" fill="white"/>
<g opacity="0.8" filter="url(#filter1_d_2839_6405)">
<circle cx="413" cy="150" r="150" fill="#2F5BC1"/>
</g>
<path d="M349.054 98.8438H339.949V102.043H352.359V105.629H323.109V102.043H335.484V98.8438H326.801V87.7344H331.265V95.2578H349.054V98.8438ZM326.449 113.293C326.449 112.039 326.894 110.967 327.785 110.076C328.687 109.186 329.976 108.512 331.652 108.055C333.34 107.586 335.344 107.352 337.664 107.352C339.972 107.352 341.959 107.586 343.623 108.055C345.287 108.512 346.564 109.186 347.455 110.076C348.345 110.967 348.797 112.039 348.808 113.293C348.797 114.547 348.345 115.619 347.455 116.51C346.564 117.4 345.287 118.074 343.623 118.531C341.959 119 339.972 119.234 337.664 119.234C335.344 119.234 333.34 119 331.652 118.531C329.976 118.074 328.687 117.4 327.785 116.51C326.894 115.619 326.449 114.547 326.449 113.293ZM331.019 113.293C331.008 114.125 331.558 114.758 332.672 115.191C333.797 115.613 335.461 115.824 337.664 115.824C339.832 115.824 341.478 115.613 342.603 115.191C343.728 114.758 344.297 114.125 344.308 113.293C344.297 111.629 342.129 110.797 337.804 110.797C335.519 110.797 333.814 111.002 332.689 111.412C331.564 111.811 331.008 112.438 331.019 113.293ZM371.203 89.7383C371.191 91.0391 371.619 92.3164 372.486 93.5703C373.365 94.8125 374.648 95.8906 376.336 96.8047C378.023 97.707 380.039 98.3047 382.383 98.5977L380.625 102.219C377.883 101.82 375.498 101.023 373.47 99.8281C371.455 98.6211 369.914 97.1328 368.847 95.3633C367.769 97.1328 366.222 98.6211 364.207 99.8281C362.203 101.023 359.847 101.82 357.14 102.219L355.347 98.5977C357.668 98.3047 359.666 97.707 361.342 96.8047C363.029 95.8906 364.306 94.8125 365.174 93.5703C366.041 92.3164 366.48 91.0391 366.492 89.7383V88.1914H371.203V89.7383ZM354.222 104.645H383.402V108.301H370.957V119.234H366.527V108.301H354.222V104.645ZM397.148 92.7266C397.136 94.1328 397.4 95.4746 397.939 96.752C398.49 98.0293 399.322 99.166 400.435 100.162C401.56 101.158 402.961 101.926 404.636 102.465L402.281 105.98C400.57 105.406 399.099 104.574 397.869 103.484C396.65 102.395 395.683 101.1 394.969 99.5996C394.242 101.24 393.234 102.658 391.945 103.854C390.656 105.049 389.109 105.957 387.304 106.578L384.808 103.027C386.566 102.488 388.025 101.691 389.185 100.637C390.357 99.582 391.224 98.375 391.787 97.0156C392.349 95.6445 392.636 94.2031 392.648 92.6914V89.2109H397.148V92.7266ZM389.941 108.371H394.511V115.086H411.914V118.672H389.941V108.371ZM406.219 87.2422H410.719V96.4883H415.043V100.285H410.719V110.691H406.219V87.2422ZM428.719 91.7773C428.707 93.1484 428.97 94.4609 429.51 95.7148C430.049 96.957 430.881 98.0645 432.006 99.0371C433.131 99.998 434.543 100.73 436.242 101.234L433.992 104.75C432.211 104.188 430.681 103.361 429.404 102.271C428.127 101.182 427.125 99.8867 426.398 98.3867C425.66 100.004 424.635 101.404 423.322 102.588C422.01 103.771 420.433 104.656 418.594 105.242L416.344 101.727C418.054 101.176 419.484 100.385 420.633 99.3535C421.793 98.3223 422.648 97.1562 423.199 95.8555C423.761 94.543 424.043 93.1836 424.043 91.7773V88.7188H428.719V91.7773ZM421.23 107.703H443.238V119.234H438.738V111.289H421.23V107.703ZM438.738 87.2422H443.238V106.332H438.738V87.2422ZM476.742 105.77H464.367V108.512H473.261V118.883H450.937V108.512H459.902V105.77H447.562V102.219H476.742V105.77ZM450.129 88.1211H474.14V91.707H469.957V96.5938H473.929V100.18H450.34V96.5938H454.277V91.707H450.129V88.1211ZM468.867 115.297V111.992H455.367V115.297H468.867ZM465.457 96.5938V91.707H458.777V96.5938H465.457ZM489.047 89.3867C490.722 89.3867 492.234 89.7207 493.582 90.3887C494.929 91.0566 495.984 91.9883 496.746 93.1836C497.519 94.3672 497.906 95.7148 497.906 97.2266C497.906 98.7383 497.519 100.092 496.746 101.287C495.984 102.482 494.929 103.42 493.582 104.1C492.234 104.768 490.722 105.102 489.047 105.102C487.383 105.102 485.871 104.768 484.511 104.1C483.152 103.42 482.086 102.482 481.312 101.287C480.539 100.092 480.152 98.7383 480.152 97.2266C480.152 95.7266 480.539 94.3789 481.312 93.1836C482.086 91.9883 483.152 91.0566 484.511 90.3887C485.871 89.7207 487.383 89.3867 489.047 89.3867ZM480.135 109.109C483.65 109.109 487.008 109.039 490.207 108.898C493.418 108.758 496.441 108.488 499.277 108.09L499.629 111.324C496.488 111.934 493.295 112.326 490.049 112.502C486.814 112.678 483.246 112.766 479.344 112.766L478.816 109.109H480.135ZM484.617 97.2266C484.617 98.0469 484.804 98.7617 485.179 99.3711C485.566 99.9688 486.094 100.426 486.761 100.742C487.441 101.059 488.203 101.211 489.047 101.199C489.902 101.211 490.67 101.059 491.349 100.742C492.029 100.426 492.562 99.9688 492.949 99.3711C493.347 98.7617 493.547 98.0469 493.547 97.2266C493.547 96.418 493.347 95.7148 492.949 95.1172C492.562 94.5078 492.029 94.0449 491.349 93.7285C490.67 93.4121 489.902 93.2539 489.047 93.2539C488.203 93.2539 487.441 93.4121 486.761 93.7285C486.094 94.0449 485.566 94.5078 485.179 95.1172C484.804 95.7148 484.617 96.418 484.617 97.2266ZM501.105 87.2422H505.57V119.305H501.105V87.2422ZM396.885 159.43H392.385V156.898H386.267V153.84H392.385V135.277H396.885V159.43ZM369.674 149.445C373.693 149.422 377.373 149.352 380.713 149.234C384.052 149.105 387.217 148.859 390.205 148.496L390.451 151.695C388.013 152.105 385.435 152.41 382.717 152.609V158.691H378.217V163.086H397.588V166.672H373.752V157.109H378.217V152.873C375.99 152.955 373.318 152.996 370.201 152.996L369.674 149.445ZM372.029 142.098C372.029 140.973 372.369 139.977 373.049 139.109C373.728 138.242 374.677 137.568 375.896 137.088C377.115 136.607 378.51 136.367 380.08 136.367C381.615 136.367 382.986 136.607 384.193 137.088C385.4 137.568 386.344 138.242 387.023 139.109C387.715 139.977 388.06 140.973 388.06 142.098C388.06 143.223 387.715 144.213 387.023 145.068C386.344 145.924 385.4 146.58 384.193 147.037C382.986 147.494 381.615 147.723 380.08 147.723C378.498 147.723 377.097 147.494 375.879 147.037C374.672 146.58 373.728 145.924 373.049 145.068C372.369 144.213 372.029 143.223 372.029 142.098ZM376.283 142.098C376.271 142.859 376.611 143.451 377.302 143.873C378.006 144.283 378.955 144.488 380.15 144.488C381.228 144.488 382.101 144.277 382.769 143.855C383.449 143.434 383.795 142.848 383.806 142.098C383.795 141.324 383.443 140.721 382.752 140.287C382.072 139.854 381.181 139.637 380.08 139.637C378.92 139.637 377.994 139.854 377.302 140.287C376.611 140.721 376.271 141.324 376.283 142.098ZM426.486 142.801H430.564V146.527H426.486V154.086H421.986V135.242H426.486V142.801ZM400.541 150.641C403.869 150.641 406.459 150.623 408.31 150.588V149.182C406.529 148.959 405.14 148.49 404.144 147.775C403.16 147.061 402.674 146.141 402.685 145.016C402.685 144.16 402.996 143.428 403.617 142.818C404.25 142.197 405.152 141.723 406.324 141.395C407.496 141.066 408.867 140.902 410.437 140.902C412.031 140.902 413.42 141.066 414.603 141.395C415.799 141.711 416.724 142.18 417.381 142.801C418.037 143.422 418.365 144.16 418.365 145.016C418.353 146.129 417.855 147.043 416.871 147.758C415.886 148.473 414.521 148.941 412.775 149.164V150.43C415.635 150.277 418.213 150.055 420.51 149.762L420.826 152.539C417.814 153.043 414.715 153.371 411.527 153.523C408.351 153.664 404.842 153.734 400.998 153.734L400.541 150.641ZM401.385 137.246H408.31V134.961H412.775V137.246H419.701V140.234H401.385V137.246ZM404.795 155.211H426.486V162.383H409.33V164.035H427.541V167.023H404.83V159.676H421.986V158.199H404.795V155.211ZM406.974 145.016C406.963 145.496 407.261 145.859 407.871 146.105C408.48 146.352 409.365 146.48 410.525 146.492C411.662 146.48 412.535 146.352 413.144 146.105C413.754 145.859 414.064 145.496 414.076 145.016C414.064 144.125 412.881 143.68 410.525 143.68C408.146 143.68 406.963 144.125 406.974 145.016ZM457.388 145.086H461.713V148.742H457.388V159.148H452.888V135.277H457.388V145.086ZM432.006 138.617H439.283V135.207H443.748V138.617H450.99V142.168H432.006V138.617ZM433.552 149.48C433.552 148.262 433.886 147.184 434.554 146.246C435.234 145.309 436.177 144.582 437.385 144.066C438.592 143.551 439.963 143.293 441.498 143.293C443.033 143.293 444.392 143.551 445.576 144.066C446.771 144.582 447.703 145.309 448.371 146.246C449.039 147.184 449.373 148.262 449.373 149.48C449.373 150.699 449.039 151.771 448.371 152.697C447.715 153.611 446.789 154.326 445.594 154.842C444.398 155.346 443.033 155.598 441.498 155.598C439.951 155.598 438.574 155.346 437.367 154.842C436.172 154.326 435.234 153.605 434.554 152.68C433.886 151.754 433.552 150.688 433.552 149.48ZM436.646 157.32H441.111V163.086H458.549V166.672H436.646V157.32ZM437.947 149.48C437.935 150.348 438.252 151.016 438.896 151.484C439.541 151.953 440.408 152.188 441.498 152.188C442.599 152.188 443.478 151.953 444.135 151.484C444.791 151.016 445.119 150.348 445.119 149.48C445.119 148.613 444.791 147.939 444.135 147.459C443.478 146.967 442.599 146.715 441.498 146.703C440.408 146.715 439.541 146.967 438.896 147.459C438.252 147.939 437.935 148.613 437.947 149.48ZM379.324 204.652H372.469V215.234H367.898V204.652H361.359V215.234H356.754V204.652H350.039V201.031H379.324V204.652ZM352.992 191.539C352.992 190.086 353.478 188.814 354.451 187.725C355.424 186.635 356.783 185.791 358.529 185.193C360.287 184.596 362.308 184.297 364.594 184.297C366.879 184.297 368.9 184.596 370.658 185.193C372.427 185.791 373.804 186.635 374.789 187.725C375.773 188.814 376.265 190.086 376.265 191.539C376.265 192.957 375.773 194.199 374.789 195.266C373.804 196.32 372.427 197.135 370.658 197.709C368.9 198.283 366.879 198.57 364.594 198.57C362.32 198.57 360.304 198.283 358.547 197.709C356.789 197.135 355.424 196.32 354.451 195.266C353.478 194.199 352.992 192.957 352.992 191.539ZM357.597 191.539C357.586 192.652 358.201 193.514 359.443 194.123C360.697 194.732 362.414 195.043 364.594 195.055C366.785 195.043 368.502 194.732 369.744 194.123C370.998 193.514 371.625 192.652 371.625 191.539C371.625 190.379 370.998 189.482 369.744 188.85C368.502 188.217 366.785 187.895 364.594 187.883C362.414 187.895 360.697 188.217 359.443 188.85C358.201 189.482 357.586 190.379 357.597 191.539ZM410.367 203.246H381.117V199.73H393.492V197.762H384.773V184.016H406.957V187.461H389.273V189.254H406.219V192.488H389.273V194.316H407.238V197.762H397.992V199.73H410.367V203.246ZM384.527 209.961C384.527 208.836 384.961 207.881 385.828 207.096C386.707 206.311 387.984 205.719 389.66 205.32C391.336 204.91 393.363 204.711 395.742 204.723C398.086 204.711 400.084 204.91 401.736 205.32C403.4 205.719 404.672 206.316 405.551 207.113C406.429 207.898 406.875 208.848 406.886 209.961C406.875 211.672 405.896 212.979 403.951 213.881C402.017 214.795 399.281 215.246 395.742 215.234C392.144 215.246 389.373 214.795 387.427 213.881C385.494 212.979 384.527 211.672 384.527 209.961ZM389.027 209.961C389.015 210.641 389.549 211.139 390.627 211.455C391.717 211.771 393.422 211.93 395.742 211.93C398.004 211.93 399.674 211.771 400.752 211.455C401.83 211.139 402.375 210.641 402.386 209.961C402.375 209.305 401.842 208.818 400.787 208.502C399.732 208.186 398.115 208.027 395.935 208.027C393.545 208.027 391.793 208.186 390.679 208.502C389.566 208.807 389.015 209.293 389.027 209.961ZM446.683 201.102H437.402V207.922H449.883V211.578H420.597V207.922H432.937V201.102H424.043V185.492H446.437V189.078H428.543V197.551H446.683V201.102ZM480.996 211.508H451.711V207.816H464.051V201.277H454.804V185.598H477.726V201.277H468.515V207.816H480.996V211.508ZM473.297 197.762V189.184H459.234V197.762H473.297Z" fill="white"/>
<g opacity="0.8" filter="url(#filter2_d_2839_6405)">
<circle cx="682" cy="150" r="150" fill="#0F316A"/>
</g>
<path d="M640.179 92.5859H633.816C633.828 93.8867 634.097 95.1465 634.625 96.3652C635.164 97.5723 635.984 98.6621 637.086 99.6348C638.187 100.607 639.547 101.363 641.164 101.902L638.949 105.348C637.238 104.809 635.761 104 634.519 102.922C633.277 101.832 632.299 100.543 631.584 99.0547C630.845 100.707 629.826 102.137 628.525 103.344C627.224 104.539 625.66 105.43 623.832 106.016L621.547 102.465C623.234 101.926 624.652 101.141 625.801 100.109C626.949 99.0781 627.804 97.9121 628.367 96.6113C628.941 95.2988 629.234 93.957 629.246 92.5859H622.812V89.0352H640.179V92.5859ZM626.715 107.703H648.687V119.234H644.222V111.289H626.715V107.703ZM639.265 94.9414H644.222V87.2422H648.687V106.297H644.222V98.5977H639.265V94.9414ZM679.801 106.227H675.336V98.668H670.344V95.0469H675.336V87.2422H679.801V106.227ZM652.625 102.711C654.301 102.148 655.713 101.346 656.861 100.303C658.01 99.2598 658.871 98.0879 659.445 96.7871C660.019 95.4863 660.324 94.1445 660.359 92.7617H653.926V89.1758H671.293V92.7617H664.929C664.965 94.0508 665.252 95.293 665.791 96.4883C666.33 97.6719 667.144 98.7383 668.234 99.6875C669.336 100.637 670.683 101.375 672.277 101.902L670.062 105.418C668.351 104.867 666.875 104.047 665.633 102.957C664.402 101.855 663.429 100.566 662.715 99.0898C661.988 100.766 660.974 102.225 659.674 103.467C658.373 104.697 656.797 105.629 654.945 106.262L652.625 102.711ZM657.863 113.117C657.863 111.84 658.302 110.738 659.181 109.812C660.072 108.875 661.344 108.16 662.996 107.668C664.648 107.176 666.605 106.93 668.867 106.93C671.14 106.93 673.103 107.176 674.756 107.668C676.408 108.16 677.679 108.869 678.57 109.795C679.461 110.721 679.906 111.828 679.906 113.117C679.906 114.406 679.461 115.508 678.57 116.422C677.679 117.348 676.408 118.051 674.756 118.531C673.103 119.023 671.14 119.27 668.867 119.27C666.605 119.27 664.648 119.023 662.996 118.531C661.344 118.051 660.072 117.348 659.181 116.422C658.302 115.496 657.863 114.395 657.863 113.117ZM662.328 113.117C662.328 114.02 662.885 114.705 663.998 115.174C665.111 115.631 666.734 115.859 668.867 115.859C671.011 115.859 672.64 115.631 673.754 115.174C674.867 114.717 675.429 114.031 675.441 113.117C675.429 112.215 674.873 111.535 673.771 111.078C672.681 110.609 671.088 110.375 668.99 110.375C664.549 110.375 662.328 111.289 662.328 113.117ZM709.191 99.5117H713.726V103.203H709.191V119.164H704.691V87.2422H709.191V99.5117ZM683.597 110.199C687.406 108.289 690.336 106.027 692.386 103.414C694.437 100.801 695.674 97.7188 696.095 94.168H685.426V90.5117H700.648C700.625 95.6094 699.476 100.109 697.203 104.012C694.941 107.914 691.25 111.125 686.129 113.645L683.597 110.199ZM732.183 89.2461C732.183 90.3945 732.09 91.4609 731.902 92.4453H737.562V87.2773H742.027V106.262H737.562V102.781H730.285V99.1953H737.562V95.9609H730.865C729.799 98.4336 728.099 100.537 725.767 102.271C723.447 103.994 720.558 105.312 717.101 106.227L715.414 102.641C718.953 101.738 721.736 100.438 723.763 98.7383C725.802 97.0273 727.004 95.0703 727.367 92.8672H717.242V89.2461H732.183ZM720.054 107.562H742.027V119.164H737.562V111.078H720.054V107.562ZM631.267 156.652H624.412V167.234H619.842V156.652H613.302V167.234H608.697V156.652H601.982V153.031H631.267V156.652ZM604.935 143.539C604.935 142.086 605.422 140.814 606.394 139.725C607.367 138.635 608.726 137.791 610.472 137.193C612.23 136.596 614.252 136.297 616.537 136.297C618.822 136.297 620.844 136.596 622.601 137.193C624.371 137.791 625.748 138.635 626.732 139.725C627.717 140.814 628.209 142.086 628.209 143.539C628.209 144.957 627.717 146.199 626.732 147.266C625.748 148.32 624.371 149.135 622.601 149.709C620.844 150.283 618.822 150.57 616.537 150.57C614.263 150.57 612.248 150.283 610.49 149.709C608.732 149.135 607.367 148.32 606.394 147.266C605.422 146.199 604.935 144.957 604.935 143.539ZM609.541 143.539C609.529 144.652 610.144 145.514 611.386 146.123C612.64 146.732 614.357 147.043 616.537 147.055C618.728 147.043 620.445 146.732 621.687 146.123C622.941 145.514 623.568 144.652 623.568 143.539C623.568 142.379 622.941 141.482 621.687 140.85C620.445 140.217 618.728 139.895 616.537 139.883C614.357 139.895 612.64 140.217 611.386 140.85C610.144 141.482 609.529 142.379 609.541 143.539ZM645.541 143.961C645.529 145.73 645.828 147.471 646.437 149.182C647.047 150.881 647.955 152.416 649.162 153.787C650.369 155.146 651.834 156.184 653.556 156.898L651.131 160.414C649.302 159.641 647.732 158.51 646.42 157.021C645.107 155.521 644.076 153.77 643.326 151.766C642.576 153.934 641.533 155.844 640.197 157.496C638.873 159.137 637.291 160.379 635.451 161.223L632.885 157.672C634.595 156.91 636.054 155.803 637.261 154.35C638.48 152.896 639.394 151.268 640.004 149.463C640.625 147.646 640.935 145.812 640.935 143.961V141.992H634.15V138.336H652.22V141.992H645.541V143.961ZM655.385 135.242H659.92V167.234H655.385V135.242ZM693.494 152.926H664.209V149.586H693.494V152.926ZM667.549 154.508H689.978V162.066H672.049V163.895H690.927V166.953H667.584V159.219H685.549V157.602H667.549V154.508ZM667.795 135.805H689.943V143.328H672.33V145.051H690.506V148.074H667.865V140.48H685.443V138.863H667.795V135.805ZM732.834 155.246H703.584V151.73H715.959V149.762H707.24V136.016H729.424V139.461H711.74V141.254H728.685V144.488H711.74V146.316H729.705V149.762H720.459V151.73H732.834V155.246ZM706.994 161.961C706.994 160.836 707.427 159.881 708.295 159.096C709.174 158.311 710.451 157.719 712.127 157.32C713.802 156.91 715.83 156.711 718.209 156.723C720.552 156.711 722.551 156.91 724.203 157.32C725.867 157.719 727.138 158.316 728.017 159.113C728.896 159.898 729.342 160.848 729.353 161.961C729.342 163.672 728.363 164.979 726.418 165.881C724.484 166.795 721.748 167.246 718.209 167.234C714.611 167.246 711.84 166.795 709.894 165.881C707.961 164.979 706.994 163.672 706.994 161.961ZM711.494 161.961C711.482 162.641 712.015 163.139 713.094 163.455C714.183 163.771 715.888 163.93 718.209 163.93C720.47 163.93 722.14 163.771 723.219 163.455C724.297 163.139 724.842 162.641 724.853 161.961C724.842 161.305 724.308 160.818 723.254 160.502C722.199 160.186 720.582 160.027 718.402 160.027C716.011 160.027 714.26 160.186 713.146 160.502C712.033 160.807 711.482 161.293 711.494 161.961ZM760.15 145.086H764.474V148.742H760.15V159.148H755.65V135.277H760.15V145.086ZM734.767 138.617H742.045V135.207H746.51V138.617H753.752V142.168H734.767V138.617ZM736.314 149.48C736.314 148.262 736.648 147.184 737.316 146.246C737.996 145.309 738.939 144.582 740.146 144.066C741.353 143.551 742.724 143.293 744.26 143.293C745.795 143.293 747.154 143.551 748.338 144.066C749.533 144.582 750.465 145.309 751.133 146.246C751.801 147.184 752.135 148.262 752.135 149.48C752.135 150.699 751.801 151.771 751.133 152.697C750.476 153.611 749.551 154.326 748.355 154.842C747.16 155.346 745.795 155.598 744.26 155.598C742.713 155.598 741.336 155.346 740.129 154.842C738.933 154.326 737.996 153.605 737.316 152.68C736.648 151.754 736.314 150.688 736.314 149.48ZM739.408 157.32H743.873V163.086H761.31V166.672H739.408V157.32ZM740.709 149.48C740.697 150.348 741.013 151.016 741.658 151.484C742.302 151.953 743.17 152.188 744.26 152.188C745.361 152.188 746.24 151.953 746.896 151.484C747.552 151.016 747.881 150.348 747.881 149.48C747.881 148.613 747.552 147.939 746.896 147.459C746.24 146.967 745.361 146.715 744.26 146.703C743.17 146.715 742.302 146.967 741.658 147.459C741.013 147.939 740.697 148.613 740.709 149.48ZM647.527 187.145V188.146C647.527 189.447 647.48 190.689 647.386 191.873C647.304 193.045 647.135 194.305 646.877 195.652H651.008V199.238H638.562V203.844H647.562V215.234H643.062V207.359H624.676V203.844H634.062V199.238H621.722V195.652H642.342C642.611 194.305 642.793 193.057 642.886 191.908C642.98 190.76 643.039 189.523 643.062 188.199H625.308V184.648H647.527V187.145ZM670.097 201.242H654.453V185.809H670.097V201.242ZM658.179 203.914H662.715V210.91H680.469V214.531H658.179V203.914ZM665.633 197.691V189.359H658.883V197.691H665.633ZM675.125 183.277H679.625V206.023H675.125V183.277ZM694.179 188.938C694.179 190.777 694.677 192.465 695.674 194C696.681 195.523 698.199 196.672 700.226 197.445L697.836 200.855C696.5 200.352 695.351 199.648 694.39 198.746C693.429 197.844 692.656 196.783 692.07 195.564C691.461 197.006 690.64 198.266 689.609 199.344C688.59 200.422 687.359 201.266 685.918 201.875L683.492 198.43C684.933 197.797 686.129 196.971 687.078 195.951C688.027 194.932 688.719 193.824 689.152 192.629C689.597 191.422 689.82 190.191 689.82 188.938V185.176H694.179V188.938ZM689.433 209.258C689.433 208.027 689.879 206.961 690.769 206.059C691.672 205.156 692.955 204.471 694.619 204.002C696.295 203.521 698.258 203.281 700.508 203.281C702.746 203.281 704.697 203.521 706.361 204.002C708.037 204.471 709.326 205.156 710.228 206.059C711.142 206.961 711.605 208.027 711.617 209.258C711.605 210.477 711.142 211.537 710.228 212.439C709.326 213.342 708.037 214.033 706.361 214.514C704.697 214.994 702.746 215.234 700.508 215.234C698.258 215.234 696.295 214.994 694.619 214.514C692.955 214.033 691.672 213.342 690.769 212.439C689.879 211.537 689.433 210.477 689.433 209.258ZM693.933 209.258C693.922 210.113 694.484 210.764 695.621 211.209C696.758 211.643 698.386 211.859 700.508 211.859C702.617 211.859 704.24 211.643 705.377 211.209C706.513 210.764 707.082 210.113 707.082 209.258C707.082 208.391 706.513 207.734 705.377 207.289C704.24 206.844 702.617 206.621 700.508 206.621C698.386 206.621 696.758 206.844 695.621 207.289C694.484 207.734 693.922 208.391 693.933 209.258ZM700.332 183.84H704.515V191.082H707.187V183.277H711.441V202.824H707.187V194.703H704.515V201.84H700.332V183.84ZM740.656 190.801H744.734V194.527H740.656V202.086H736.156V183.242H740.656V190.801ZM714.711 198.641C718.039 198.641 720.629 198.623 722.48 198.588V197.182C720.699 196.959 719.31 196.49 718.314 195.775C717.33 195.061 716.844 194.141 716.855 193.016C716.855 192.16 717.166 191.428 717.787 190.818C718.42 190.197 719.322 189.723 720.494 189.395C721.666 189.066 723.037 188.902 724.607 188.902C726.201 188.902 727.59 189.066 728.773 189.395C729.969 189.711 730.894 190.18 731.551 190.801C732.207 191.422 732.535 192.16 732.535 193.016C732.523 194.129 732.025 195.043 731.041 195.758C730.056 196.473 728.691 196.941 726.945 197.164V198.43C729.804 198.277 732.383 198.055 734.679 197.762L734.996 200.539C731.984 201.043 728.885 201.371 725.697 201.523C722.521 201.664 719.011 201.734 715.168 201.734L714.711 198.641ZM715.554 185.246H722.48V182.961H726.945V185.246H733.871V188.234H715.554V185.246ZM718.965 203.211H740.656V210.383H723.5V212.035H741.711V215.023H719V207.676H736.156V206.199H718.965V203.211ZM721.144 193.016C721.133 193.496 721.431 193.859 722.041 194.105C722.65 194.352 723.535 194.48 724.695 194.492C725.832 194.48 726.705 194.352 727.314 194.105C727.924 193.859 728.234 193.496 728.246 193.016C728.234 192.125 727.051 191.68 724.695 191.68C722.316 191.68 721.133 192.125 721.144 193.016Z" fill="white"/>
<defs>
<filter id="filter0_d_2839_6405" x="0.62931" y="0" width="304.741" height="304.741" filterUnits="userSpaceOnUse" color-interpolation-filters="sRGB">
<feFlood flood-opacity="0" result="BackgroundImageFix"/>
<feColorMatrix in="SourceAlpha" type="matrix" values="0 0 0 0 0 0 0 0 0 0 0 0 0 0 0 0 0 0 127 0" result="hardAlpha"/>
<feOffset dy="2.37069"/>
<feGaussianBlur stdDeviation="1.18534"/>
<feComposite in2="hardAlpha" operator="out"/>
<feColorMatrix type="matrix" values="0 0 0 0 0 0 0 0 0 0 0 0 0 0 0 0 0 0 0.25 0"/>
<feBlend mode="normal" in2="BackgroundImageFix" result="effect1_dropShadow_2839_6405"/>
<feBlend mode="normal" in="SourceGraphic" in2="effect1_dropShadow_2839_6405" result="shape"/>
</filter>
<filter id="filter1_d_2839_6405" x="260.629" y="0" width="304.741" height="304.741" filterUnits="userSpaceOnUse" color-interpolation-filters="sRGB">
<feFlood flood-opacity="0" result="BackgroundImageFix"/>
<feColorMatrix in="SourceAlpha" type="matrix" values="0 0 0 0 0 0 0 0 0 0 0 0 0 0 0 0 0 0 127 0" result="hardAlpha"/>
<feOffset dy="2.37069"/>
<feGaussianBlur stdDeviation="1.18534"/>
<feComposite in2="hardAlpha" operator="out"/>
<feColorMatrix type="matrix" values="0 0 0 0 0 0 0 0 0 0 0 0 0 0 0 0 0 0 0.25 0"/>
<feBlend mode="normal" in2="BackgroundImageFix" result="effect1_dropShadow_2839_6405"/>
<feBlend mode="normal" in="SourceGraphic" in2="effect1_dropShadow_2839_6405" result="shape"/>
</filter>
<filter id="filter2_d_2839_6405" x="529.629" y="0" width="304.741" height="304.741" filterUnits="userSpaceOnUse" color-interpolation-filters="sRGB">
<feFlood flood-opacity="0" result="BackgroundImageFix"/>
<feColorMatrix in="SourceAlpha" type="matrix" values="0 0 0 0 0 0 0 0 0 0 0 0 0 0 0 0 0 0 127 0" result="hardAlpha"/>
<feOffset dy="2.37069"/>
<feGaussianBlur stdDeviation="1.18534"/>
<feComposite in2="hardAlpha" operator="out"/>
<feColorMatrix type="matrix" values="0 0 0 0 0 0 0 0 0 0 0 0 0 0 0 0 0 0 0.25 0"/>
<feBlend mode="normal" in2="BackgroundImageFix" result="effect1_dropShadow_2839_6405"/>
<feBlend mode="normal" in="SourceGraphic" in2="effect1_dropShadow_2839_6405" result="shape"/>
</filter>
</defs>
</svg>
