<svg width="801" height="105" viewBox="0 0 801 105" fill="none" xmlns="http://www.w3.org/2000/svg">
<path d="M795.519 93.6062L794.369 66.9722H800.211L799.015 93.6062H795.519ZM797.267 104.554C795.335 104.554 793.863 103.082 793.863 101.15C793.863 99.2642 795.335 97.7922 797.267 97.7922C799.199 97.7922 800.671 99.2642 800.671 101.15C800.671 103.082 799.199 104.554 797.267 104.554Z" fill="white"/>
<path d="M780.291 98.7119H789.307V102.898H750.069V98.7119H759.085V88.0859C754.577 86.0159 751.955 82.5659 751.955 78.1499C751.955 70.8819 758.947 66.1899 769.665 66.1899C780.383 66.1899 787.375 70.8819 787.375 78.1499C787.375 82.5199 784.753 86.0159 780.291 88.0399V98.7119ZM756.785 78.1499C756.785 82.8419 761.937 85.9239 769.665 85.9239C777.393 85.9239 782.591 82.8419 782.591 78.1499C782.591 73.3659 777.393 70.3299 769.665 70.3299C761.937 70.3299 756.785 73.3659 756.785 78.1499ZM763.639 89.5119V98.7119H775.737V89.5119C773.897 89.8799 771.873 90.0639 769.665 90.0639C767.503 90.0639 765.479 89.8799 763.639 89.5119Z" fill="white"/>
<path d="M739.763 65.5H744.087V104.784H739.763V65.5ZM729.873 78.932V65.73H734.197V104.094H729.873V83.256H723.663V78.932H729.873ZM719.385 66.65C719.385 72.768 719.063 78.058 718.511 82.612L728.033 99.908L724.215 101.932L717.315 89.052C715.337 96.918 711.887 101.334 706.643 102.438V97.838C712.853 95.814 714.969 83.992 715.015 66.466L719.385 66.65Z" fill="white"/>
<path d="M684.469 98.6199H701.811V102.898H662.573V98.6199H679.823V89.7879H665.149V66.6499H669.657V73.6879H694.681V66.6499H699.189V89.7879H684.469V98.6199ZM669.657 77.7819V85.6939H694.681V77.7819H669.657Z" fill="white"/>
<path d="M630.693 65.4082V71.6182H638.927V75.7122H617.951V71.6182H626.185V65.4082H630.693ZM652.359 65.5002H656.591V104.784H652.359V85.6022H646.057V104.094H641.825V65.7302H646.057V81.3242H652.359V65.5002ZM628.623 78.7942C633.913 78.7942 637.777 83.0262 637.777 90.8462C637.777 98.6662 633.913 102.898 628.623 102.898C623.379 102.898 619.515 98.6662 619.515 90.8462C619.515 83.0262 623.379 78.7942 628.623 78.7942ZM628.623 98.8962C631.475 98.8962 633.591 95.9982 633.591 90.8462C633.591 85.6942 631.475 82.7962 628.623 82.7962C625.817 82.7962 623.747 85.6942 623.747 90.8462C623.747 95.9982 625.817 98.8962 628.623 98.8962Z" fill="white"/>
<path d="M608.519 65.5H612.843V89.696H608.519V78.656H601.849V89.282H597.525V65.73H601.849V74.378H608.519V65.5ZM585.565 79.852C583.495 84.59 580.091 87.718 575.077 88.592V84.36C581.241 82.75 583.587 75.436 583.587 65.96L587.957 66.098C587.957 69.502 587.635 72.63 586.991 75.436L596.329 85.326L593.201 88.132L585.565 79.852ZM578.435 95.768V91.858H612.843V104.784H608.335V95.768H578.435Z" fill="white"/>
<path d="M563.759 65.5H568.313V86.844H563.759V78.334H553.179C549.775 83.624 542.369 85.97 532.571 85.97V82.014C543.657 81.968 550.603 78.61 550.603 71.526V70.33H532.571V66.466H555.203V70.744C555.203 71.94 555.065 73.09 554.881 74.148H563.759V65.5ZM534.871 104.278V89.006H568.313V104.278H534.871ZM539.425 92.87V100.414H563.759V92.87H539.425Z" fill="white"/>
<path d="M478.04 80.726V71.848H507.204V69.18H478.04V65.96H511.62V74.884H482.456V77.506H512.172V80.726H478.04ZM475.188 86.89V83.578H514.426V86.89H475.188ZM477.902 104.324V95.492H507.296V92.962H477.81V89.742H511.712V98.528H482.318V101.104H512.402V104.324H477.902Z" fill="white"/>
<path d="M453.336 98.6199H470.678V102.898H431.44V98.6199H448.69V89.7879H434.016V66.6499H438.524V73.6879H463.548V66.6499H468.056V89.7879H453.336V98.6199ZM438.524 77.7819V85.6939H463.548V77.7819H438.524Z" fill="white"/>
<path d="M412.486 72.906H420.122V65.5H424.676V87.58H420.122V76.862H412.486V72.906ZM401.538 78.656C398.824 82.934 394.27 85.878 388.474 86.43V82.336C394.96 81.462 399.008 76.816 399.56 70.422H388.98V66.512H414.05V70.422H404.114C404.022 72.032 403.7 73.55 403.24 75.022L415.338 82.658L413.084 86.062L401.538 78.656ZM408.024 88.868C417.546 88.868 424.998 91.076 424.998 96.826C424.998 102.576 417.546 104.784 408.024 104.784C398.502 104.784 391.05 102.576 391.05 96.826C391.05 91.076 398.502 88.868 408.024 88.868ZM408.024 101.058C414.786 101.058 420.168 99.724 420.168 96.826C420.168 93.928 414.786 92.594 408.024 92.594C401.262 92.594 395.88 93.928 395.88 96.826C395.88 99.724 401.262 101.058 408.024 101.058Z" fill="white"/>
<path d="M334.358 81.6V65.96H367.984V69.778H338.958V77.828H368.444V81.6H334.358ZM331.552 89.696V85.832H370.79V89.696H331.552ZM334.266 104.324V92.824H338.912V100.414H368.766V104.324H334.266Z" fill="white"/>
<path d="M309.699 98.6198H327.041V102.898H287.803V98.6198H305.053V89.1898H290.379V66.9258H324.419V89.1898H309.699V98.6198ZM294.933 71.2038V84.9578H319.865V71.2038H294.933Z" fill="white"/>
<path d="M258.205 69.2261V72.9521H231.525V69.2261H242.565V64.8101H247.165V69.2261H258.205ZM267.221 76.2641H272.741V80.6341H267.221V94.9401H262.667V65.5001H267.221V76.2641ZM244.865 91.2601C238.333 91.2601 233.227 88.3621 233.227 83.2101C233.227 78.0581 238.333 75.1601 244.865 75.1601C251.397 75.1601 256.457 78.0581 256.457 83.2101C256.457 88.3621 251.397 91.2601 244.865 91.2601ZM244.865 78.6561C240.449 78.6561 237.643 80.5881 237.643 83.2101C237.643 85.8781 240.449 87.7641 244.865 87.7641C249.281 87.7641 252.087 85.8781 252.087 83.2101C252.087 80.5881 249.281 78.6561 244.865 78.6561ZM238.977 93.5141V100.23H268.279V104.278H234.377V93.5141H238.977Z" fill="white"/>
<path d="M221.357 65.5H225.681V104.784H221.357V85.602H214.963V104.094H210.639V65.73H214.963V81.324H221.357V65.5ZM193.573 98.39H198.633C201.991 98.39 205.395 97.838 207.787 96.872V100.874C205.441 101.886 201.669 102.438 198.127 102.438H189.111V66.926H206.085V70.974H193.573V98.39Z" fill="white"/>
<path d="M165.216 65.5H169.54V104.784H165.216V65.5ZM155.74 81.876V65.73H160.018V104.094H155.74V86.2H150.542C150.266 97.838 147.138 102.944 141.434 102.944C135.5 102.944 132.28 97.378 132.28 84.682C132.28 71.986 135.5 66.42 141.434 66.42C146.908 66.42 150.036 71.158 150.496 81.876H155.74ZM141.434 98.804C144.7 98.804 146.218 94.342 146.218 84.682C146.218 75.022 144.7 70.56 141.434 70.56C138.168 70.56 136.604 75.022 136.604 84.682C136.604 94.342 138.168 98.804 141.434 98.804Z" fill="white"/>
<path d="M109.876 82.244H127.264V85.786H88.0261V82.244H105.368V78.702H90.8321V65.96H124.412V78.702H109.876V82.244ZM95.3401 69.41V75.206H119.904V69.41H95.3401ZM95.2021 98.16V100.92H125.24V104.324H90.7401V94.94H120.088V92.18H90.6481V88.776H124.55V98.16H95.2021Z" fill="white"/>
<path d="M85.3562 74.746V79.116H79.8362V90.064H75.2822V65.5H79.8362V74.746H85.3562ZM45.6582 75.528H63.9662V70.284H45.5662V66.466H68.4742V79.254H50.1662V84.59H60.0562C65.3922 84.59 69.9002 83.992 72.4302 82.842V86.66C70.0382 87.718 65.3462 88.408 59.7802 88.408H45.6582V75.528ZM46.6242 96.136V92.226H79.8362V104.784H75.2362V96.136H46.6242Z" fill="white"/>
<path d="M41.6081 81.416V85.786H36.0881V104.784H31.5341V65.5H36.0881V81.416H41.6081ZM1.95605 71.112V66.926H23.3461V76.402C23.3461 92.042 15.2961 102.346 1.95605 102.346V98.022C12.6281 97.976 18.7001 89.65 18.7001 76.494V71.112H1.95605Z" fill="white"/>
<path d="M766.362 17.048V21.418H760.934V40.784H756.38V1.5H760.934V17.048H766.362ZM744.604 28.042V7.25H726.71V3.018H749.204V28.042H744.604ZM736.738 34.16H740.234C745.524 34.16 750.308 33.7 753.114 32.504V36.782C750.308 37.932 745.662 38.438 740.28 38.438H725.284V34.16H732.138V17.508H736.738V34.16Z" fill="white"/>
<path d="M713.966 1.5H718.52V21.648H713.966V13.598H705.962C704.996 18.244 700.58 21.372 694.048 21.372C686.596 21.372 681.904 17.37 681.904 11.666C681.904 5.962 686.596 1.96 694.048 1.96C700.396 1.96 704.766 4.904 705.87 9.366H713.966V1.5ZM694.048 17.6C698.556 17.6 701.592 15.346 701.592 11.666C701.592 7.986 698.556 5.732 694.048 5.732C689.54 5.732 686.458 7.986 686.458 11.666C686.458 15.346 689.54 17.6 694.048 17.6ZM714.012 27.95V23.81H718.52V40.278H685.538V23.81H690V27.95H714.012ZM690 36.552H714.012V31.584H690V36.552Z" fill="white"/>
<path d="M678.866 17.416V21.786H673.346V40.784H668.792V1.5H673.346V17.416H678.866ZM654.762 2.65C654.716 8.768 654.21 14.242 653.198 18.98L665.572 35.724L661.892 38.346L651.772 24.316C648.966 32.872 644.228 37.978 638.11 38.438V33.838C645.976 32.596 650.07 18.98 650.116 2.466L654.762 2.65Z" fill="white"/>
<path d="M608.189 5.22606V8.95206H581.509V5.22606H592.549V0.810059H597.149V5.22606H608.189ZM617.205 12.2641H622.725V16.6341H617.205V30.9401H612.651V1.50006H617.205V12.2641ZM594.849 27.2601C588.317 27.2601 583.211 24.3621 583.211 19.2101C583.211 14.0581 588.317 11.1601 594.849 11.1601C601.381 11.1601 606.441 14.0581 606.441 19.2101C606.441 24.3621 601.381 27.2601 594.849 27.2601ZM594.849 14.6561C590.433 14.6561 587.627 16.5881 587.627 19.2101C587.627 21.8781 590.433 23.7641 594.849 23.7641C599.265 23.7641 602.071 21.8781 602.071 19.2101C602.071 16.5881 599.265 14.6561 594.849 14.6561ZM588.961 29.5141V36.2301H618.263V40.2781H584.361V29.5141H588.961Z" fill="white"/>
<path d="M578.977 9.182H573.457V14.702H578.977V18.566H573.457V23.212H568.903V1.5H573.457V5.272H578.977V9.182ZM562.279 11.896C562.279 17.83 557.587 21.878 550.181 21.878C542.729 21.878 538.037 17.83 538.037 11.896C538.037 6.008 542.729 1.914 550.181 1.914C557.587 1.914 562.279 6.008 562.279 11.896ZM542.591 11.896C542.591 15.806 545.673 18.106 550.181 18.106C554.689 18.106 557.725 15.806 557.725 11.896C557.725 7.986 554.689 5.686 550.181 5.686C545.673 5.686 542.591 7.986 542.591 11.896ZM557.449 24.5C566.741 24.5 574.055 26.754 574.055 32.642C574.055 38.53 566.741 40.784 557.449 40.784C548.203 40.784 540.843 38.53 540.843 32.642C540.843 26.754 548.203 24.5 557.449 24.5ZM557.449 37.012C564.027 37.012 569.179 35.678 569.179 32.642C569.179 29.652 564.027 28.272 557.449 28.272C550.917 28.272 545.719 29.652 545.719 32.642C545.719 35.678 550.917 37.012 557.449 37.012Z" fill="white"/>
<path d="M535.229 17.416V21.786H529.709V40.784H525.155V1.5H529.709V17.416H535.229ZM500.637 34.298H511.585C515.311 34.298 519.359 33.562 521.751 32.412V36.552C519.359 37.748 515.127 38.438 511.355 38.438H495.991V2.926H518.669V7.066H500.637V34.298Z" fill="white"/>
<path d="M470.257 40.784V1.5H474.81V40.784H470.257ZM451.488 27.076C444.404 27.076 439.345 22.016 439.345 14.702C439.345 7.388 444.404 2.328 451.488 2.328C458.526 2.328 463.633 7.388 463.633 14.702C463.633 22.016 458.526 27.076 451.488 27.076ZM451.488 22.936C456.134 22.936 459.171 19.394 459.171 14.702C459.171 10.01 456.134 6.422 451.488 6.422C446.796 6.422 443.806 10.01 443.806 14.702C443.806 19.394 446.796 22.936 451.488 22.936ZM438.01 38.438V34.16H454.065C459.447 34.16 464.276 33.562 466.944 32.32V36.552C464.322 37.748 459.447 38.438 453.789 38.438H438.01Z" fill="white"/>
<path d="M435.34 17.416V21.786H429.82V40.784H425.266V1.5H429.82V17.416H435.34ZM411.236 2.65C411.19 8.768 410.684 14.242 409.672 18.98L422.046 35.724L418.366 38.346L408.246 24.316C405.44 32.872 400.702 37.978 394.584 38.438V33.838C402.45 32.596 406.544 18.98 406.59 2.466L411.236 2.65Z" fill="white"/>
<path d="M382.3 15.3V5.82396H353.136V1.95996H386.854V15.3H382.3ZM369.834 18.06H389.752V21.832H350.514V18.06H365.234V10.378H369.834V18.06ZM370.11 25.512C379.494 25.512 387.36 27.674 387.36 33.148C387.36 38.668 379.494 40.83 370.11 40.83C360.726 40.83 352.86 38.668 352.86 33.148C352.86 27.49 360.726 25.512 370.11 25.512ZM370.11 37.196C376.458 37.196 382.576 35.954 382.576 33.148C382.576 30.388 376.458 29.146 370.11 29.146C363.762 29.146 357.644 30.25 357.644 33.148C357.644 35.954 363.762 37.196 370.11 37.196Z" fill="white"/>
<path d="M343.704 13.092V16.68H309.02V13.092H315.966V5.54796H309.434V1.95996H343.29V5.54796H336.758V13.092H343.704ZM320.52 5.54796V13.092H332.204V5.54796H320.52ZM346.004 23.764H328.616V27.858H343.244V40.324H309.48V27.858H324.108V23.764H306.766V20.13H346.004V23.764ZM338.736 36.782V31.354H314.034V36.782H338.736Z" fill="white"/>
<path d="M295.126 1.5H299.68V24.96H295.126V1.5ZM276.818 14.978C273.874 19.716 269.274 23.074 263.616 23.81V19.578C271.068 18.244 275.714 10.654 275.806 1.868L280.36 2.144C280.36 5.364 279.762 8.492 278.658 11.298L291.124 19.946L288.548 23.258L276.818 14.978ZM266.008 31.078V27.122H299.68V40.784H295.08V31.078H266.008Z" fill="white"/>
<path d="M254.828 10.424H260.348V14.794H254.828V30.664H250.274V1.5H254.828V10.424ZM232.426 15.484C229.574 20.452 225.066 23.994 219.362 24.73V20.452C226.814 19.118 231.184 11.022 231.276 1.868L235.83 2.144C235.83 5.502 235.278 8.722 234.22 11.666L246.64 21.05L243.88 24.316L232.426 15.484ZM226.584 27.766V36.138H255.886V40.278H221.984V27.766H226.584Z" fill="white"/>
<path d="M194.704 12.6321C190.334 18.5661 183.618 22.2921 176.442 22.3381V18.0141C184.906 18.0601 192.91 10.5161 194.612 1.22412L199.304 1.96012C198.844 4.49012 198.016 6.92812 196.912 9.13612L213.748 18.4741L211.632 22.2921L194.704 12.6321ZM214.76 26.4781V30.7101H197.418V41.7041H192.772V30.7101H175.522V26.4781H214.76Z" fill="white"/>
<path d="M153.624 19.532H171.012V23.212H131.774V19.532H149.116V15.346H134.58V1.5H139.18V11.666H168.666V15.346H153.624V19.532ZM151.37 26.478C160.754 26.478 168.666 28.318 168.666 33.7C168.666 39.082 160.754 40.922 151.37 40.922C141.986 40.922 134.074 39.082 134.074 33.7C134.074 28.318 141.986 26.478 151.37 26.478ZM151.37 37.288C157.764 37.288 163.882 36.414 163.882 33.7C163.882 30.986 157.764 30.112 151.37 30.112C144.976 30.112 138.858 30.986 138.858 33.7C138.858 36.414 144.976 37.288 151.37 37.288Z" fill="white"/>
<path d="M120.134 1.5H124.688V40.784H120.134V1.5ZM105.598 2.65C105.552 8.676 105.046 14.104 104.034 18.796L116.73 35.724L113.05 38.346L102.608 24.086C99.7101 32.734 94.9261 37.978 88.7161 38.438V33.838C96.5821 32.596 100.906 18.98 100.952 2.466L105.598 2.65Z" fill="white"/>
<path d="M63.8741 15.6678C54.3981 15.6678 46.6241 13.7358 46.6241 8.49182C46.6241 3.29382 54.3981 1.36182 63.8741 1.36182C73.3501 1.36182 81.1241 3.29382 81.1241 8.49182C81.1241 13.7358 73.3501 15.6678 63.8741 15.6678ZM63.8741 4.81182C57.0201 4.81182 51.3161 5.91582 51.3161 8.49182C51.3161 11.1138 57.0201 12.1718 63.8741 12.1718C70.7281 12.1718 76.4321 11.1138 76.4321 8.49182C76.4321 5.91582 70.7281 4.81182 63.8741 4.81182ZM83.5161 21.2338H66.1281V24.7758H80.8021V34.1598H51.4541V36.9198H81.4921V40.3238H46.9921V30.9398H76.3401V28.1798H46.9001V24.7758H61.6201V21.2338H44.2781V17.6918H83.5161V21.2338Z" fill="white"/>
<path d="M32.9601 1.5H37.514V40.784H32.9601V19.992H22.84V15.714H32.9601V1.5ZM16.9521 2.65C16.9521 8.032 16.5381 12.908 15.8021 17.278L28.0841 36.046L24.2661 38.53L14.4681 23.074C11.8001 32.366 7.06205 37.932 0.852051 38.438V33.792C8.39605 32.55 12.2601 18.98 12.3061 2.466L16.9521 2.65Z" fill="white"/>
</svg>
