<svg width="24" height="24" viewBox="0 0 24 24" fill="none" xmlns="http://www.w3.org/2000/svg">
<g clip-path="url(#clip0_2563_5486)">
<path d="M17.8801 16.46L22.1601 20.74L20.7401 22.16L16.4601 17.88C15.6734 18.5067 14.8134 18.9867 13.8801 19.32C12.8934 19.6667 11.8801 19.84 10.8401 19.84C9.21342 19.84 7.70009 19.4333 6.30009 18.62C4.94009 17.82 3.86675 16.74 3.08009 15.38C2.25342 13.98 1.84009 12.4667 1.84009 10.84C1.84009 9.21334 2.25342 7.7 3.08009 6.3C3.86675 4.94 4.94009 3.86667 6.30009 3.08C7.70009 2.25334 9.21342 1.84 10.8401 1.84C12.4668 1.84 13.9801 2.25334 15.3801 3.08C16.7401 3.86667 17.8201 4.94 18.6201 6.3C19.4334 7.7 19.8401 9.21334 19.8401 10.84C19.8401 11.88 19.6668 12.8933 19.3201 13.88C18.9868 14.8133 18.5068 15.6733 17.8801 16.46ZM15.8601 15.72C16.4868 15.08 16.9734 14.3467 17.3201 13.52C17.6668 12.6667 17.8401 11.7733 17.8401 10.84C17.8401 9.57334 17.5201 8.39334 16.8801 7.3C16.2668 6.24667 15.4334 5.41334 14.3801 4.8C13.2868 4.16 12.1068 3.84 10.8401 3.84C9.57342 3.84 8.39342 4.16 7.30009 4.8C6.24675 5.41334 5.41342 6.24667 4.80009 7.3C4.16009 8.39334 3.84009 9.57334 3.84009 10.84C3.84009 12.1067 4.16009 13.2867 4.80009 14.38C5.41342 15.4333 6.24675 16.2667 7.30009 16.88C8.39342 17.52 9.57342 17.84 10.8401 17.84C11.7734 17.84 12.6668 17.6667 13.5201 17.32C14.3468 16.9733 15.0801 16.4867 15.7201 15.86L15.8601 15.72Z" fill="#0C0C0C"/>
</g>
<defs>
<clipPath id="clip0_2563_5486">
<rect width="24" height="24" fill="white"/>
</clipPath>
</defs>
</svg>
