<svg width="950" height="1008" viewBox="0 0 950 1008" fill="none" xmlns="http://www.w3.org/2000/svg">
<path d="M90.791 241V745.25" stroke="#2F5BC1" stroke-width="3" stroke-linecap="round" stroke-linejoin="round" stroke-dasharray="1 9"/>
<path d="M96.2162 743.908L90.7913 753.3L85.3662 743.908H96.2162Z" fill="#225B6D" stroke="#2F5BC1"/>
<path d="M469.98 292.661V421.491" stroke="#2F5BC1" stroke-width="3" stroke-linecap="round" stroke-linejoin="round" stroke-dasharray="1 9"/>
<path d="M462.5 419.963L469.98 429L477.46 419.963H462.5Z" fill="#2F5BC1"/>
<path d="M714.98 427.933V298.51" stroke="#2F5BC1" stroke-width="3" stroke-linecap="round" stroke-linejoin="round" stroke-dasharray="1 9"/>
<path d="M722.46 300.037L714.98 291L707.5 300.037H722.46Z" fill="#2F5BC1"/>
<path d="M375.98 717.288V585.638" stroke="#2F5BC1" stroke-width="3" stroke-linecap="round" stroke-linejoin="round" stroke-dasharray="1 9"/>
<path d="M383.46 587.193L375.98 578L368.5 587.193H383.46Z" fill="#2F5BC1"/>
<path d="M599.98 717.288V585.638" stroke="#2F5BC1" stroke-width="3" stroke-linecap="round" stroke-linejoin="round" stroke-dasharray="1 9"/>
<path d="M607.46 587.193L599.98 578L592.5 587.193H607.46Z" fill="#2F5BC1"/>
<path d="M823.98 717.288V585.638" stroke="#2F5BC1" stroke-width="3" stroke-linecap="round" stroke-linejoin="round" stroke-dasharray="1 9"/>
<path d="M831.46 587.193L823.98 578L816.5 587.193H831.46Z" fill="#2F5BC1"/>
<rect x="0.5" y="50" width="180" height="180" rx="90" fill="#2F5BC1"/>
<path d="M71.7695 131.75V133.836H69.918V140.105C70.8438 140.023 71.7461 139.941 72.6133 139.836L72.8008 141.758C68.5352 142.473 63.6602 142.555 60.0742 142.555L59.793 140.445C60.5547 140.445 61.375 140.434 62.2305 140.422V133.836H60.3555V131.75H71.7695ZM62.9805 150.664V144.031H65.582V148.555H77.3945V150.664H62.9805ZM64.7383 140.363C65.6055 140.34 66.4961 140.305 67.3867 140.258V133.836H64.7383V140.363ZM73.9492 145.508V129.922H76.5508V136.039H79.5039V138.219H76.5508V145.508H73.9492ZM99.1133 129.898V151.086H96.6055V140.234H94.3555V150.055H91.8945V130.273H94.3555V138.078H96.6055V129.898H99.1133ZM81.4883 145.625V132.195H89.8086V145.625H81.4883ZM83.9258 143.562H87.3711V134.258H83.9258V143.562ZM109.418 135.922C109.406 139.191 111.375 142.918 114.715 144.477L113.262 146.539C110.871 145.414 109.102 143.141 108.152 140.492C107.191 143.398 105.34 145.883 102.902 147.055L101.379 145.016C104.754 143.41 106.805 139.449 106.816 135.922V134.141H102.199V131.984H113.848V134.141H109.418V135.922ZM115.816 151.086V129.898H118.418V138.148H121.676V140.328H118.418V151.086H115.816Z" fill="white"/>
<rect x="259.5" y="2" width="688" height="276" stroke="#D7D9FF" stroke-width="4"/>
<rect x="297.5" y="40" width="160" height="160" rx="80" fill="#496BD6"/>
<path d="M414.998 110V81.2533C414.998 80.5649 414.442 80 413.745 80H341.247C340.559 80 339.994 80.556 339.994 81.2533V110C338.617 110 337.496 111.121 337.496 112.498V118.747C337.496 120.124 338.617 121.244 339.994 121.244H341.247V157.493H338.749C338.061 157.493 337.496 158.049 337.496 158.747C337.496 159.444 338.052 160 338.749 160H416.252C416.94 160 417.505 159.444 417.505 158.747C417.505 158.049 416.949 157.493 416.252 157.493H413.754V121.244H415.007C416.384 121.244 417.505 120.124 417.505 118.747V112.498C417.505 111.121 416.384 110 415.007 110H414.998ZM342.5 82.4978H412.5V110H342.5V82.4978ZM347.505 157.493H343.754V121.244H347.505V157.493ZM363.127 155.622C362.095 155.622 361.256 154.784 361.256 153.751C361.256 152.718 362.095 151.88 363.127 151.88C364.16 151.88 364.998 152.718 364.998 153.751C364.998 154.784 364.16 155.622 363.127 155.622ZM367.505 137.493H368.758V144.369H357.505V144.034L360.779 137.493H367.505ZM363.754 134.996C363.754 134.307 364.31 133.742 365.007 133.742C365.704 133.742 366.26 134.298 366.26 134.996H363.763H363.754ZM368.749 146.876V152.498H367.32C366.622 150.185 364.186 148.87 361.874 149.568C360.462 149.991 359.358 151.094 358.944 152.498H357.505V146.876H368.758H368.749ZM365.369 157.493C366.305 156.937 367.002 156.037 367.32 154.996H376.428C376.746 156.046 377.434 156.937 378.379 157.493H365.369ZM371.256 152.498V137.502H397.505V152.498H395.448C394.751 150.185 392.315 148.87 390.003 149.568C388.591 149.991 387.487 151.094 387.072 152.498H384.83C384.133 150.185 381.697 148.87 379.385 149.568C377.973 149.991 376.869 151.094 376.455 152.498H371.265H371.256ZM380.629 155.622C379.597 155.622 378.758 154.784 378.758 153.751C378.758 152.718 379.597 151.88 380.629 151.88C381.662 151.88 382.5 152.718 382.5 153.751C382.5 154.784 381.662 155.622 380.629 155.622ZM382.871 157.493C383.807 156.937 384.504 156.037 384.822 154.996H387.064C387.381 156.046 388.07 156.937 389.014 157.493H382.871ZM391.247 155.622C390.214 155.622 389.376 154.784 389.376 153.751C389.376 152.718 390.214 151.88 391.247 151.88C392.28 151.88 393.118 152.718 393.118 153.751C393.118 154.784 392.28 155.622 391.247 155.622ZM404.998 157.493H393.489C394.425 156.937 395.122 156.037 395.44 154.996H398.749C399.438 154.996 400.003 154.44 400.003 153.742V136.24C400.003 135.552 399.447 134.987 398.749 134.987H368.749C368.749 132.913 367.072 131.236 364.998 131.236C362.924 131.236 361.247 132.913 361.247 134.987H359.994C359.517 134.987 359.085 135.252 358.873 135.684L355.122 143.186C355.034 143.363 354.99 143.548 354.99 143.742V153.742C354.99 154.431 355.546 154.996 356.243 154.996H358.926C359.244 156.046 359.932 156.937 360.876 157.493H349.994V121.244H404.989V157.493H404.998ZM411.247 157.493H407.496V121.244H411.247V157.493ZM412.5 118.747H340.003V112.498H414.998V118.747H412.5Z" fill="#FBF8F7" stroke="#7BB6C4" stroke-width="0.5" stroke-miterlimit="10"/>
<path d="M356.252 84.9961H348.749C348.061 84.9961 347.496 85.5521 347.496 86.2494V93.7516C347.496 94.44 348.052 95.0049 348.749 95.0049H356.252C356.94 95.0049 357.505 94.4489 357.505 93.7516V86.2494C357.505 85.561 356.949 84.9961 356.252 84.9961ZM354.998 92.4983H350.003V87.5027H354.998V92.4983Z" fill="#FBF8F7" stroke="#7BB6C4" stroke-width="0.5" stroke-miterlimit="10"/>
<path d="M368.75 84.9961H361.247C360.559 84.9961 359.994 85.5521 359.994 86.2494V93.7516C359.994 94.44 360.55 95.0049 361.247 95.0049H368.75C369.438 95.0049 370.003 94.4489 370.003 93.7516V86.2494C370.003 85.561 369.447 84.9961 368.75 84.9961ZM367.505 92.4983H362.509V87.5027H367.505V92.4983Z" fill="#FBF8F7" stroke="#7BB6C4" stroke-width="0.5" stroke-miterlimit="10"/>
<path d="M381.256 84.9961H373.753C373.065 84.9961 372.5 85.5521 372.5 86.2494V93.7516C372.5 94.44 373.056 95.0049 373.753 95.0049H381.256C381.944 95.0049 382.509 94.4489 382.509 93.7516V86.2494C382.509 85.561 381.953 84.9961 381.256 84.9961ZM380.002 92.4983H375.007V87.5027H380.002V92.4983Z" fill="#FBF8F7" stroke="#7BB6C4" stroke-width="0.5" stroke-miterlimit="10"/>
<path d="M393.753 84.9961H386.251C385.563 84.9961 384.998 85.5521 384.998 86.2494V93.7516C384.998 94.44 385.554 95.0049 386.251 95.0049H393.753C394.442 95.0049 395.007 94.4489 395.007 93.7516V86.2494C395.007 85.561 394.451 84.9961 393.753 84.9961ZM392.5 92.4983H387.505V87.5027H392.5V92.4983Z" fill="#FBF8F7" stroke="#7BB6C4" stroke-width="0.5" stroke-miterlimit="10"/>
<path d="M406.252 84.9961H398.749C398.061 84.9961 397.496 85.5521 397.496 86.2494V93.7516C397.496 94.44 398.052 95.0049 398.749 95.0049H406.252C406.94 95.0049 407.505 94.4489 407.505 93.7516V86.2494C407.505 85.561 406.949 84.9961 406.252 84.9961ZM404.998 92.4983H400.003V87.5027H404.998V92.4983Z" fill="#FBF8F7" stroke="#7BB6C4" stroke-width="0.5" stroke-miterlimit="10"/>
<path d="M356.252 97.502H348.749C348.061 97.502 347.496 98.058 347.496 98.7552V106.257C347.496 106.946 348.052 107.511 348.749 107.511H356.252C356.94 107.511 357.505 106.955 357.505 106.257V98.7552C357.505 98.0668 356.949 97.502 356.252 97.502ZM354.998 104.995H350.003V99.9998H354.998V104.995Z" fill="#FBF8F7" stroke="#7BB6C4" stroke-width="0.5" stroke-miterlimit="10"/>
<path d="M368.75 97.502H361.247C360.559 97.502 359.994 98.058 359.994 98.7552V106.257C359.994 106.946 360.55 107.511 361.247 107.511H368.75C369.438 107.511 370.003 106.955 370.003 106.257V98.7552C370.003 98.0668 369.447 97.502 368.75 97.502ZM367.505 104.995H362.509V99.9998H367.505V104.995Z" fill="#FBF8F7" stroke="#7BB6C4" stroke-width="0.5" stroke-miterlimit="10"/>
<path d="M381.256 97.502H373.753C373.065 97.502 372.5 98.058 372.5 98.7552V106.257C372.5 106.946 373.056 107.511 373.753 107.511H381.256C381.944 107.511 382.509 106.955 382.509 106.257V98.7552C382.509 98.0668 381.953 97.502 381.256 97.502ZM380.002 104.995H375.007V99.9998H380.002V104.995Z" fill="#FBF8F7" stroke="#7BB6C4" stroke-width="0.5" stroke-miterlimit="10"/>
<path d="M393.753 97.502H386.251C385.563 97.502 384.998 98.058 384.998 98.7552V106.257C384.998 106.946 385.554 107.511 386.251 107.511H393.753C394.442 107.511 395.007 106.955 395.007 106.257V98.7552C395.007 98.0668 394.451 97.502 393.753 97.502ZM392.5 104.995H387.505V99.9998H392.5V104.995Z" fill="#FBF8F7" stroke="#7BB6C4" stroke-width="0.5" stroke-miterlimit="10"/>
<path d="M406.252 97.502H398.749C398.061 97.502 397.496 98.058 397.496 98.7552V106.257C397.496 106.946 398.052 107.511 398.749 107.511H406.252C406.94 107.511 407.505 106.955 407.505 106.257V98.7552C407.505 98.0668 406.949 97.502 406.252 97.502ZM404.998 104.995H400.003V99.9998H404.998V104.995Z" fill="#FBF8F7" stroke="#7BB6C4" stroke-width="0.5" stroke-miterlimit="10"/>
<path d="M395.942 146.875C395.942 146.187 395.386 145.622 394.689 145.622H393.126V141.871H394.689C395.377 141.871 395.942 141.315 395.942 140.618C395.942 139.92 395.386 139.364 394.689 139.364H374.062C373.373 139.364 372.809 139.92 372.809 140.618C372.809 141.315 373.365 141.871 374.062 141.871H375.624V145.622H374.062C373.373 145.622 372.809 146.178 372.809 146.875C372.809 147.573 373.365 148.129 374.062 148.129H394.689C395.377 148.129 395.942 147.573 395.942 146.875ZM380.628 145.622H378.131V141.871H380.628V145.622ZM385.624 145.622H383.126V141.871H385.624V145.622ZM390.628 145.622H388.131V141.871H390.628V145.622Z" fill="#FBF8F7" stroke="#7BB6C4" stroke-width="0.5" stroke-miterlimit="10"/>
<path d="M339.941 227.109V228.828H334.707V232.871H341.738V234.648H325.605V232.871H332.559V228.828H327.559V220.391H339.805V222.129H329.727V227.109H339.941ZM358.375 219.082V236.738H356.285V227.695H354.41V235.879H352.359V219.395H354.41V225.898H356.285V219.082H358.375ZM343.688 232.188V220.996H350.621V232.188H343.688ZM345.719 230.469H348.59V222.715H345.719V230.469ZM367.355 223.32C367.336 226.562 369.045 229.805 371.906 231.035L370.617 232.773C368.586 231.836 367.102 229.971 366.281 227.666C365.471 230.146 363.947 232.178 361.809 233.184L360.48 231.367C363.42 230.098 365.139 226.729 365.148 223.32V220.508H367.355V223.32ZM373.176 236.758V219.082H375.363V236.758H373.176ZM384.539 222.266C384.539 224.424 385.936 226.455 388.699 227.305L387.664 229.004C385.682 228.379 384.275 227.119 383.504 225.527C382.723 227.383 381.238 228.857 379.109 229.57L378.016 227.852C380.857 226.924 382.352 224.629 382.352 222.285V222.07H378.621V220.312H388.211V222.07H384.539V222.266ZM380.418 233.34C380.418 231.23 382.703 230 386.395 230C390.057 230 392.303 231.23 392.312 233.34C392.303 235.469 390.057 236.719 386.395 236.719C382.703 236.719 380.418 235.469 380.418 233.34ZM382.586 233.34C382.586 234.434 383.973 235.01 386.395 235.02C388.807 235.01 390.164 234.434 390.164 233.34C390.164 232.266 388.807 231.699 386.395 231.699C383.973 231.699 382.586 232.266 382.586 233.34ZM389.969 229.609V219.082H392.137V223.32H394.598V225.098H392.137V229.609H389.969ZM398.715 220V222.402H402.66V220H404.809V223.223H408.363V219.082H410.531V228.73H408.363V225.02H404.809V228.184H396.547V220H398.715ZM398.715 226.426H402.66V224.082H398.715V226.426ZM398.891 236.484V229.512H401.059V231.309H408.363V229.512H410.531V236.484H398.891ZM401.059 234.727H408.363V232.988H401.059V234.727ZM427.988 219.102V231.855H425.801V219.102H427.988ZM413.594 224.668C413.594 222.1 415.674 220.264 418.359 220.254C421.045 220.264 423.115 222.1 423.105 224.668C423.115 227.275 421.045 229.102 418.359 229.102C415.674 229.102 413.594 227.275 413.594 224.668ZM415.723 224.668C415.713 226.23 416.846 227.207 418.359 227.207C419.834 227.207 420.977 226.23 420.977 224.668C420.977 223.145 419.834 222.148 418.359 222.148C416.846 222.148 415.713 223.145 415.723 224.668ZM416.309 236.387V230.566H418.496V234.629H428.477V236.387H416.309Z" fill="#496BD6"/>
<rect x="523.5" y="40" width="160" height="160" rx="80" fill="#647EEC"/>
<path d="M634.941 132.14C635.363 132.14 635.75 132.132 636.137 132.14C637.562 132.184 638.415 133.02 638.494 134.453C638.494 134.541 638.494 134.62 638.494 134.708C638.494 142.271 638.494 149.834 638.494 157.397C638.494 158.786 637.949 159.578 636.823 159.903C636.533 159.982 636.216 160 635.908 160C614.31 160 592.72 160 571.122 160C569.451 160 568.528 159.138 568.519 157.494C568.501 149.878 568.501 142.253 568.519 134.638C568.519 133.002 569.407 132.167 571.034 132.131C571.368 132.131 571.694 132.131 572.098 132.131C572.116 131.753 572.142 131.454 572.142 131.155C572.142 124.015 572.142 116.874 572.151 109.733C572.151 109.179 572.001 108.827 571.562 108.458C570.067 107.235 569.337 105.609 569.258 103.683C569.258 103.656 569.258 103.63 569.258 103.595C568.862 99.6637 569.654 96.0317 571.509 92.5053C573.145 89.3834 574.438 86.0768 575.827 82.8318C576.671 80.8707 578.078 79.9913 580.224 80.0001C595.798 80.0352 611.382 80.0264 626.956 80.0001C629.005 80.0001 630.35 80.8795 631.159 82.7351C633.252 87.5103 635.381 92.2766 637.474 97.0518C637.65 97.4476 637.755 97.9137 637.746 98.3446C637.729 100.482 637.755 102.618 637.597 104.738C637.482 106.286 636.568 107.49 635.425 108.519C635.152 108.766 634.897 109.188 634.897 109.539C634.87 116.821 634.87 124.103 634.879 131.384C634.879 131.604 634.915 131.815 634.941 132.123V132.14ZM603.555 133.688C592.87 133.688 582.185 133.688 571.5 133.688C570.155 133.688 570.093 133.741 570.093 135.042C570.093 142.412 570.093 149.772 570.093 157.142C570.093 158.355 570.216 158.47 571.465 158.47C592.835 158.47 614.213 158.47 635.583 158.47C636.823 158.47 636.946 158.347 636.946 157.133C636.946 149.764 636.946 142.403 636.946 135.034C636.946 133.758 636.876 133.679 635.618 133.679C624.933 133.679 614.248 133.679 603.564 133.679L603.555 133.688ZM608.444 123.012C608.444 121.561 608.444 120.154 608.444 118.756C608.444 117.313 609.007 116.214 610.37 115.572C610.616 115.458 610.739 115.08 610.915 114.825C611.452 114.06 611.936 113.251 612.534 112.529C612.877 112.116 613.431 111.94 613.844 112.468C614.24 112.978 613.958 113.391 613.492 113.743C612.929 114.165 612.455 114.666 612.419 115.379C612.938 115.704 613.387 115.986 613.861 116.293C614.046 116.161 614.222 115.968 614.451 115.88C615.128 115.616 615.4 115.106 615.682 114.447C615.998 113.708 616.632 113.092 617.186 112.485C617.537 112.099 618.065 111.975 618.434 112.459C618.812 112.952 618.584 113.391 618.1 113.734C617.52 114.148 617.071 114.666 617.027 115.396C617.546 115.722 618.012 116.012 618.47 116.293C618.698 116.126 618.883 115.915 619.103 115.836C619.789 115.607 619.982 115.08 620.255 114.464C620.571 113.752 621.16 113.145 621.697 112.547C622.057 112.142 622.585 111.94 623.016 112.442C623.491 112.996 623.078 113.374 622.664 113.778C622.207 114.227 621.847 114.763 621.38 115.361C623.377 116.126 623.913 117.489 623.808 119.275C623.737 120.523 623.79 121.781 623.79 123.021C626.147 123.355 626.631 123.927 626.631 126.248C626.631 127.937 626.631 129.625 626.631 131.314C626.631 131.577 626.657 131.85 626.675 132.096H628.574C628.609 131.991 628.644 131.938 628.644 131.894C628.644 124.525 628.653 117.164 628.644 109.794C628.644 109.619 628.583 109.39 628.46 109.284C627.554 108.493 626.622 107.728 625.681 106.954C624.441 108.854 622.629 109.988 620.211 109.979C617.792 109.979 616.016 108.801 614.662 106.769C613.307 108.81 611.514 109.97 609.095 109.979C606.65 109.979 604.856 108.783 603.502 106.769C602.121 108.845 600.319 109.988 597.891 109.979C595.473 109.97 593.697 108.783 592.351 106.769C590.988 108.827 589.194 109.979 586.767 109.979C584.322 109.979 582.528 108.783 581.288 106.919C580.505 107.64 579.82 108.387 579.011 108.977C578.544 109.311 578.351 109.601 578.351 110.173C578.369 117.199 578.36 124.234 578.369 131.261C578.369 131.534 578.395 131.806 578.404 132.105H580.426C579.186 128.842 579.793 127.33 582.915 125.888C582.915 125.65 582.915 125.404 582.915 125.149C582.95 123.504 583.715 122.282 585.201 121.623C585.799 121.359 586.125 121.086 586.204 120.409C586.266 119.934 586.556 119.45 586.855 119.063C587.831 117.797 589.159 117.261 590.724 117.586C592.316 117.92 593.327 118.923 593.749 120.523C593.829 120.831 593.987 121.28 594.224 121.376C596.291 122.194 597.144 123.707 596.968 125.861C600.081 127.242 600.688 128.719 599.509 132.096H605.648C605.648 129.836 605.639 127.646 605.648 125.457C605.648 124.375 606.184 123.575 607.072 123.293C607.468 123.17 607.899 123.135 608.409 123.038L608.444 123.012ZM624.784 97.0343C623.253 91.8458 621.741 86.7188 620.228 81.6006H613.079C613.844 86.7715 614.6 91.8897 615.356 97.0343H624.784ZM582.273 97.0255H591.7C592.457 91.8721 593.213 86.754 593.978 81.5654C591.621 81.5654 589.44 81.5479 587.251 81.5918C587.048 81.5918 586.741 81.9524 586.661 82.2074C585.844 84.8808 585.061 87.5718 584.269 90.2628C583.61 92.5141 582.941 94.7566 582.273 97.0255ZM613.765 97.0343C613.088 92.3558 612.419 87.7829 611.742 83.2099C611.496 81.5566 611.478 81.5566 609.772 81.5566C607.987 81.5566 606.193 81.5566 604.39 81.5566V97.0343H613.765ZM602.684 81.6006H595.561C594.805 86.7539 594.048 91.8721 593.292 97.0255H602.693V81.6006H602.684ZM585.201 81.5566C583.399 81.5566 581.746 81.5742 580.092 81.5566C578.764 81.5303 577.876 82.0755 577.34 83.3243C575.906 86.6396 574.429 89.9374 572.96 93.244C572.406 94.4928 571.852 95.7415 571.263 97.0782C574.323 97.0782 577.269 97.087 580.215 97.0518C580.418 97.0518 580.725 96.6825 580.804 96.4362C581.596 93.842 582.352 91.2302 583.126 88.6271C583.803 86.3231 584.489 84.019 585.219 81.5742L585.201 81.5566ZM621.943 81.6006C621.943 81.7413 621.926 81.8293 621.943 81.9084C623.385 86.7979 624.845 91.6787 626.27 96.577C626.411 97.0606 626.674 97.087 627.061 97.087C629.726 97.087 632.4 97.087 635.064 97.087C635.275 97.087 635.477 97.0694 635.776 97.0518C633.639 92.2415 631.582 87.5279 629.418 82.8494C629.163 82.2954 628.337 81.7149 627.73 81.6622C625.813 81.5127 623.878 81.6094 621.934 81.6094L621.943 81.6006ZM625.048 132.114C625.048 129.819 625.056 127.603 625.048 125.395C625.048 124.815 624.617 124.674 624.107 124.674C618.795 124.674 613.475 124.674 608.163 124.674C607.495 124.674 607.204 124.956 607.222 125.641C607.248 127.242 607.231 128.843 607.231 130.452C607.231 130.997 607.231 131.551 607.231 132.114H625.056H625.048ZM570.832 98.67C570.832 100.464 570.753 102.152 570.85 103.823C570.99 106.33 572.899 108.264 575.211 108.379C577.788 108.511 580.022 106.945 580.312 104.492C580.541 102.592 580.356 100.64 580.356 98.6612H570.832V98.67ZM636.075 98.6875H626.631C626.631 100.464 626.604 102.17 626.631 103.885C626.674 106.127 628.583 108.176 630.772 108.379C633.323 108.616 635.732 107.068 636.014 104.685C636.251 102.733 636.058 100.728 636.058 98.6875H636.075ZM582.044 98.67C582.018 98.9162 581.983 99.1008 581.983 99.2943C582 100.948 581.93 102.61 582.088 104.254C582.308 106.567 584.243 108.308 586.468 108.387C588.957 108.484 591.173 106.936 591.454 104.571C591.683 102.645 591.498 100.666 591.498 98.67H582.044ZM615.48 98.67C615.48 100.42 615.453 102.126 615.48 103.832C615.532 106.11 617.37 108.132 619.569 108.37C622.066 108.642 624.485 107.191 624.828 104.817C625.118 102.821 624.889 100.754 624.889 98.67H615.48ZM602.64 98.67H593.195C593.195 100.534 593.107 102.355 593.222 104.157C593.362 106.418 595.323 108.264 597.513 108.379C600.037 108.511 602.324 106.954 602.596 104.588C602.825 102.662 602.64 100.684 602.64 98.67ZM613.826 98.6788H604.346C604.346 100.49 604.285 102.276 604.364 104.061C604.461 106.409 606.536 108.335 608.91 108.387C611.452 108.44 613.642 106.681 613.809 104.272C613.932 102.46 613.835 100.631 613.835 98.6788H613.826ZM630.254 109.97V132.079H633.226V109.83C632.206 109.874 631.265 109.926 630.254 109.97ZM573.787 109.821V132.079H576.759V109.979C575.739 109.926 574.798 109.874 573.787 109.821ZM622.242 123.047C622.242 121.42 622.269 119.881 622.233 118.342C622.207 117.498 621.565 116.918 620.774 116.891C620.017 116.865 619.279 117.401 619.252 118.166C619.191 119.776 619.235 121.394 619.235 123.038H622.251L622.242 123.047ZM610.054 123.038H613.008C613.008 121.385 613.061 119.767 612.982 118.149C612.947 117.357 612.208 116.856 611.452 116.9C610.696 116.944 610.08 117.498 610.062 118.316C610.018 119.855 610.054 121.403 610.054 123.038ZM617.669 123.03C617.669 122.089 617.669 121.253 617.669 120.409C617.669 119.705 617.705 119.002 617.643 118.307C617.573 117.498 616.966 116.944 616.209 116.909C615.488 116.874 614.714 117.375 614.688 118.079C614.627 119.723 614.67 121.367 614.67 123.091C615.471 123.091 616.201 123.091 616.922 123.091C617.142 123.091 617.362 123.056 617.678 123.038L617.669 123.03ZM587.646 121.35C587.629 122.678 588.631 123.716 589.942 123.733C591.226 123.751 592.316 122.704 592.342 121.429C592.369 120.172 591.287 119.055 590.021 119.028C588.754 119.002 587.664 120.066 587.655 121.35H587.646ZM593.917 129.37C593.846 130.892 594.761 131.929 596.009 132.105C597.179 132.263 598.331 131.393 598.577 130.162C598.797 129.054 598.006 127.761 596.88 127.515C596.616 127.453 596.264 127.62 596.009 127.77C595.508 128.06 595.025 128.403 594.558 128.755C594.268 128.983 594.013 129.265 593.908 129.37H593.917ZM581.367 129.722C581.35 131.023 582.396 132.105 583.671 132.123C584.902 132.14 585.984 131.103 586.028 129.845C586.046 129.317 585.967 128.895 585.325 128.693C584.894 128.561 584.445 128.262 584.155 127.91C583.636 127.286 583.126 127.374 582.537 127.717C581.772 128.165 581.385 128.834 581.359 129.713L581.367 129.722ZM589.959 127.682C589.361 128.042 588.719 128.412 588.095 128.816C587.91 128.939 587.708 129.159 587.673 129.361C587.514 130.294 587.822 131.085 588.596 131.639C589.396 132.219 590.258 132.272 591.12 131.789C591.955 131.322 592.342 130.566 592.316 129.634C592.316 129.37 592.149 129.001 591.947 128.86C591.296 128.403 590.584 128.033 589.959 127.673V127.682ZM589.106 125.615C588.174 124.762 587.312 124.12 586.635 123.32C586.266 122.88 586.046 122.854 585.632 123.109C584.753 123.645 584.304 124.727 584.577 125.712C584.894 126.855 585.826 127.515 587.013 127.453C588.139 127.391 588.895 126.67 589.106 125.615ZM590.83 125.228C590.97 126.635 591.885 127.471 593.16 127.453C594.347 127.435 595.324 126.556 595.42 125.404C595.535 124.102 594.831 123.144 593.573 122.933C593.019 124.094 592.105 124.868 590.821 125.228H590.83Z" fill="white"/>
<path d="M602.737 149.297C601.55 149.042 600.46 148.892 599.413 148.585C595.79 147.521 593.996 144.9 593.407 141.321C593.284 140.608 593.266 139.87 593.222 139.14C593.178 138.383 593.583 138.049 594.304 138.085C598.296 138.269 601.708 139.43 603.458 143.528C603.555 143.423 603.652 143.37 603.687 143.282C605.041 140.142 607.627 138.744 610.837 138.252C611.496 138.146 612.191 138.041 612.842 138.12C613.185 138.155 613.712 138.533 613.774 138.841C614.424 142.112 612.147 146.606 609.069 147.995C607.943 148.506 606.668 148.717 605.463 149.051C605.12 149.147 604.751 149.165 604.32 149.227C604.32 150.352 604.32 151.443 604.32 152.533C604.32 152.788 604.399 153.096 604.276 153.281C604.092 153.571 603.792 153.932 603.493 153.975C602.939 154.055 602.737 153.589 602.737 153.087C602.728 151.83 602.737 150.563 602.737 149.297ZM602.596 147.494C602.684 142.728 599.474 139.667 594.866 139.808C594.972 144.276 597.513 147.477 602.596 147.494ZM612.226 139.808C607.513 139.703 604.338 142.745 604.452 147.503C608.876 147.758 611.83 144.856 612.226 139.808Z" fill="white"/>
<path d="M616.077 129.15C614.644 129.15 613.219 129.15 611.786 129.15C611.267 129.15 610.792 129.071 610.775 128.429C610.748 127.743 611.214 127.603 611.786 127.603C614.706 127.603 617.625 127.603 620.545 127.603C621.108 127.603 621.53 127.822 621.538 128.385C621.547 128.974 621.108 129.159 620.554 129.15C619.067 129.133 617.581 129.15 616.095 129.15H616.077Z" fill="white"/>
<path d="M585.857 230.117C589.695 230.127 592.117 231.338 592.127 233.438C592.117 235.488 589.695 236.719 585.857 236.719C582.059 236.719 579.607 235.488 579.607 233.438C579.607 231.338 582.059 230.127 585.857 230.117ZM577.947 228.848V227.09H584.158V223.887H586.307V227.09H593.963V228.848H577.947ZM579.783 221.641V219.922H592.01V221.387C592.02 222.783 592.02 224.268 591.521 226.074L589.373 225.879C589.812 224.17 589.842 222.92 589.842 221.641H579.783ZM581.795 233.438C581.775 234.473 583.309 235.039 585.857 235.039C588.416 235.039 589.959 234.473 589.979 233.438C589.959 232.363 588.416 231.758 585.857 231.758C583.309 231.758 581.775 232.363 581.795 233.438ZM605.385 220.625V222.363H603.842V227.588C604.613 227.52 605.365 227.451 606.088 227.363L606.244 228.965C602.689 229.561 598.627 229.629 595.639 229.629L595.404 227.871C596.039 227.871 596.723 227.861 597.436 227.852V222.363H595.873V220.625H605.385ZM598.061 236.387V230.859H600.229V234.629H610.072V236.387H598.061ZM599.525 227.803C600.248 227.783 600.99 227.754 601.732 227.715V222.363H599.525V227.803ZM607.201 232.09V219.102H609.369V224.199H611.83V226.016H609.369V232.09H607.201ZM619.307 222.266C619.307 224.424 620.703 226.455 623.467 227.305L622.432 229.004C620.449 228.379 619.043 227.119 618.271 225.527C617.49 227.383 616.006 228.857 613.877 229.57L612.783 227.852C615.625 226.924 617.119 224.629 617.119 222.285V222.07H613.389V220.312H622.979V222.07H619.307V222.266ZM615.186 233.34C615.186 231.23 617.471 230 621.162 230C624.824 230 627.07 231.23 627.08 233.34C627.07 235.469 624.824 236.719 621.162 236.719C617.471 236.719 615.186 235.469 615.186 233.34ZM617.354 233.34C617.354 234.434 618.74 235.01 621.162 235.02C623.574 235.01 624.932 234.434 624.932 233.34C624.932 232.266 623.574 231.699 621.162 231.699C618.74 231.699 617.354 232.266 617.354 233.34ZM624.736 229.609V219.082H626.904V223.32H629.365V225.098H626.904V229.609H624.736Z" fill="#496BD6"/>
<rect x="749.5" y="40" width="160" height="160" rx="80" fill="#7F95FA"/>
<path d="M868.303 124.839H860.593C864.275 122.483 865.349 117.588 862.993 113.907C862.022 112.382 860.55 111.239 858.835 110.667L861.052 108.06C862.274 106.622 862.092 104.465 860.654 103.252C860.498 103.122 860.333 103.009 860.16 102.905L858.02 101.667C857.683 101.476 857.319 101.337 856.946 101.268C856.851 100.315 856.392 99.4403 855.664 98.8166C856.331 96.9802 855.673 94.9271 854.07 93.8183C852.433 92.7009 849.964 91.4189 847.019 91.159L847.868 87.5034C848.63 84.2029 846.577 80.9199 843.285 80.1576C840.808 79.5858 838.227 80.5993 836.815 82.7216L834.727 85.8488C832.527 83.8825 829.902 82.9555 827.97 82.5224C826.238 82.1499 824.445 82.8776 823.474 84.3589C821.231 84.8786 819.481 86.6198 818.944 88.8547L818.736 89.7123C818.364 91.1503 816.943 92.0512 815.488 91.774C813.859 91.4968 812.204 91.4708 810.567 91.696C808.22 92.0166 806.582 94.1822 806.903 96.5211C807.015 97.3613 807.379 98.1496 807.943 98.782C807.466 99.397 807.033 100.047 806.643 100.722C804.937 98.3835 802.806 96.2438 800.813 95.8887C800.406 95.8194 799.999 95.9666 799.73 96.2698C798.396 97.7858 798.084 100.8 798.223 103.685C796.361 102.966 794.056 102.377 792.428 102.966C792.047 103.105 791.761 103.442 791.683 103.841C791.016 107.219 795.451 113.058 797.495 114.816C797.721 115.007 797.955 115.189 798.206 115.353C798.111 115.561 798.024 115.778 797.955 115.994C797.426 117.649 797.703 119.451 798.717 120.863L801.532 124.839H790.669C790.02 124.839 789.5 125.367 789.5 126.008V132.263C789.5 132.912 790.028 133.432 790.669 133.432H792.384V155.703C792.384 158.077 794.308 160 796.681 160H862.317C864.691 160 866.614 158.077 866.614 155.703V133.432H868.329C868.979 133.432 869.498 132.904 869.498 132.263V126.008C869.498 125.359 868.97 124.839 868.329 124.839H868.303ZM861.901 118.186C861.893 120.334 860.654 122.292 858.713 123.228C857.605 123.756 856.591 124.302 855.699 124.847H848.041C847.14 124.302 846.127 123.756 845.027 123.228C842.246 121.911 841.059 118.584 842.376 115.804C843.294 113.855 845.261 112.616 847.417 112.616H856.34C859.415 112.616 861.91 115.111 861.919 118.195L861.901 118.186ZM823.18 121.149L829.14 123.73L828.992 124.839H820.157L823.18 121.149ZM839.509 118.784C839.708 121.261 841.051 123.496 843.13 124.847H831.357L831.531 123.539C833.765 121.331 836.503 119.702 839.509 118.784ZM849.133 101.875C849.003 101.138 849.488 100.428 850.224 100.298C850.302 100.281 850.38 100.281 850.467 100.281H853.256C854.001 100.281 854.607 100.887 854.607 101.632C854.607 101.71 854.607 101.797 854.581 101.875L853.057 110.268H850.649L849.124 101.875H849.133ZM846.881 103.685C846.941 103.65 847.002 103.624 847.062 103.598L848.275 110.251H847.608L844.455 106.535C844.074 106.084 844.126 105.409 844.585 105.028C844.637 104.984 844.689 104.95 844.741 104.915L846.881 103.676V103.685ZM858.991 104.924C859.502 105.218 859.675 105.877 859.38 106.388C859.346 106.44 859.311 106.492 859.268 106.544L856.115 110.26H855.448L856.661 103.607C856.721 103.633 856.79 103.659 856.842 103.694L858.982 104.924H858.991ZM824.843 98.4355C826.35 96.5817 828.429 92.0165 825.536 87.9971C825.068 87.3474 824.956 86.5851 825.224 85.9441C825.588 85.0779 826.524 84.6014 827.433 84.8007C829.348 85.2251 832.042 86.204 833.999 88.4476C834.424 88.9327 835.169 88.9847 835.654 88.5602C835.732 88.4909 835.801 88.4129 835.862 88.3263L838.746 84.0124C839.916 82.2799 842.272 81.8294 844.005 82.9988C845.295 83.8738 845.919 85.4504 845.572 86.9663L844.403 92.0166C844.256 92.6489 844.646 93.2726 845.278 93.4199C845.382 93.4459 845.486 93.4545 845.59 93.4458C848.561 93.3332 851.117 94.624 852.736 95.7328C853.438 96.2179 853.732 97.1101 853.481 97.9244H850.475C848.578 97.9244 846.984 99.3624 846.794 101.251C846.413 101.32 846.049 101.459 845.72 101.649L843.58 102.888C841.951 103.832 841.388 105.92 842.341 107.557C842.445 107.73 842.558 107.895 842.688 108.051L844.905 110.658C842.333 111.525 840.384 113.647 839.725 116.28C836.13 117.199 832.83 119.026 830.144 121.59L828.178 120.733L831.392 113.309L837.724 110.806C838.331 110.572 838.625 109.887 838.383 109.281C838.149 108.675 837.464 108.38 836.858 108.623L832.7 110.268L835.688 103.364L840.669 101.398C841.276 101.164 841.57 100.48 841.336 99.8735C841.102 99.2671 840.418 98.9726 839.812 99.2064L837.014 100.315L839.301 95.0398C839.561 94.4421 839.292 93.7577 838.694 93.4978C838.097 93.2379 837.412 93.5065 837.153 94.1042L834.866 99.3797L833.757 96.5817C833.523 95.9753 832.838 95.6808 832.232 95.9234C831.626 96.1573 831.331 96.8415 831.574 97.4479L833.549 102.438L830.56 109.342L828.914 105.184C828.681 104.586 827.996 104.283 827.39 104.525C826.783 104.768 826.489 105.443 826.731 106.05L829.235 112.391L826.021 119.815L824.055 118.966C824.107 116.488 823.682 109.316 817.697 103.598C816.363 102.273 816.363 100.116 817.697 98.782C818.493 97.985 819.628 97.6299 820.737 97.8464C821.673 98.0543 822.591 98.3575 823.466 98.756C823.951 98.9812 824.531 98.8426 824.86 98.4182L824.843 98.4355ZM809.155 95.8367C809.207 94.9012 809.909 94.1302 810.827 94.0003C812.222 93.8097 813.642 93.827 815.028 94.0609C817.705 94.5547 820.295 92.8828 820.971 90.2494L821.187 89.3918C821.413 88.4736 821.984 87.668 822.773 87.1482C822.868 87.9452 823.162 88.7075 823.63 89.3572C825.571 92.0599 824.289 94.9358 823.5 96.2439C822.755 95.9493 821.984 95.7241 821.196 95.5508C818.078 94.9358 815.063 96.9629 814.448 100.081C814.076 101.978 814.682 103.945 816.068 105.296C821.69 110.658 821.75 117.675 821.69 119.26L817.575 124.276L816.977 114.409C816.882 112.677 815.964 111.083 814.509 110.13C814.318 110 814.119 109.887 813.911 109.783C813.998 109.498 814.067 109.212 814.127 108.926C814.621 106.284 814.422 98.9379 811.78 96.7376C811.468 96.4778 811.035 96.3911 810.654 96.5297C810.264 96.6683 809.891 96.8676 809.562 97.1101C809.268 96.7463 809.121 96.2872 809.147 95.8194L809.155 95.8367ZM810.767 99.1458C811.919 101.112 812.3 106.024 811.832 108.519C811.789 108.761 811.728 108.995 811.65 109.229C811.147 109.212 810.654 109.264 810.169 109.385C810.186 108.285 810.013 107.193 809.649 106.162C809.216 105.045 808.687 103.971 808.064 102.949C808.956 101.181 809.935 99.8128 810.767 99.1458ZM801.082 98.4528C803.308 99.6222 806.496 104.239 807.449 106.942C807.813 107.99 807.916 109.108 807.76 110.208L803.23 111.802C802.424 111.048 801.809 110.104 801.437 109.064C800.484 106.353 800.077 100.766 801.082 98.4615V98.4528ZM793.952 105.062C795.018 105.062 796.646 105.521 798.448 106.336C798.604 107.522 798.864 108.692 799.228 109.835C799.592 110.866 800.137 111.828 800.839 112.677C800.389 112.885 799.964 113.162 799.592 113.482C799.384 113.344 799.193 113.196 799.003 113.04C797.062 111.386 794.282 107.323 793.952 105.062ZM802.173 121.738L805.205 120.672C805.811 120.456 806.132 119.789 805.924 119.174C805.716 118.558 805.041 118.247 804.426 118.455L800.753 119.745L800.588 119.511C799.575 118.073 799.912 116.09 801.35 115.068C801.593 114.894 801.853 114.764 802.13 114.66L810.411 111.75C812.066 111.169 813.885 112.036 814.474 113.699C814.569 113.976 814.63 114.271 814.647 114.565L815.028 120.88L811.433 122.145C810.827 122.361 810.507 123.028 810.715 123.643C810.931 124.25 811.598 124.57 812.213 124.362L815.167 123.323L815.254 124.847H804.356L802.164 121.738H802.173ZM864.24 155.712C864.24 156.786 863.365 157.661 862.283 157.67H796.647C795.572 157.67 794.698 156.795 794.689 155.712V133.441H864.232V155.712H864.24ZM867.133 131.093H791.804V127.186H867.133V131.093Z" fill="#FBF8F7" stroke="#96C4CF" stroke-width="0.5" stroke-miterlimit="10"/>
<path d="M820.095 145.672H838.85C841.223 145.672 843.146 143.749 843.146 141.376C843.146 139.002 841.223 137.079 838.85 137.079H820.095C817.722 137.079 815.799 139.002 815.799 141.376C815.799 143.749 817.722 145.672 820.095 145.672ZM820.095 139.427H838.85C839.933 139.427 840.808 140.302 840.808 141.384C840.808 142.467 839.933 143.342 838.85 143.342H820.095C819.013 143.342 818.138 142.467 818.138 141.384C818.138 140.302 819.013 139.427 820.095 139.427Z" fill="#FBF8F7" stroke="#96C4CF" stroke-width="0.5" stroke-miterlimit="10"/>
<path d="M783.934 222.207C783.914 224.521 785.379 226.738 788.152 227.637L787.02 229.355C785.066 228.691 783.67 227.363 782.898 225.664C782.117 227.539 780.662 229.004 778.602 229.727L777.391 228.008C780.291 227.061 781.746 224.697 781.746 222.188V220.176H783.934V222.207ZM780.223 236.387V230.781H782.449V234.629H792.234V236.387H780.223ZM789.363 232.051V219.082H791.531V224.297H793.992V226.133H791.531V232.051H789.363ZM801.801 224.102C801.801 226.992 803.5 230.039 806.352 231.23L805.16 232.949C803.07 232.041 801.547 230.195 800.736 227.949C799.926 230.371 798.373 232.402 796.312 233.379L795.062 231.68C797.846 230.391 799.584 227.1 799.594 224.102V222.617H795.707V220.82H805.668V222.617H801.801V224.102ZM807.641 236.738V219.082H809.828V236.738H807.641ZM828.73 226.719V228.32H821.777V229.609H826.758V233.75H816.719V234.961H827.246V236.582H814.59V232.266H824.629V231.172H814.57V229.609H819.629V228.32H812.715V226.719H828.73ZM813.418 224.512C816.904 224.336 818.955 223.398 819.404 222.148H814.258V220.527H819.629V219.043H821.777V220.527H827.188V222.148H822.002C822.432 223.398 824.482 224.336 828.008 224.512L827.363 226.133C824.189 225.938 821.816 225.078 820.703 223.652C819.59 225.078 817.227 225.938 814.023 226.133L813.418 224.512ZM844.039 219.082V226.113H846.754V227.91H844.039V236.738H841.891V219.082H844.039ZM830.113 223.535V221.797H834.293V219.336H836.461V221.797H840.523V223.535H830.113ZM830.934 228.848C830.914 226.406 832.809 224.678 835.387 224.688C837.926 224.678 839.811 226.406 839.82 228.848C839.811 231.279 837.926 232.988 835.387 232.988C832.809 232.988 830.914 231.279 830.934 228.848ZM833.004 228.848C832.994 230.283 834 231.201 835.387 231.191C836.744 231.201 837.73 230.283 837.75 228.848C837.73 227.412 836.744 226.465 835.387 226.465C834 226.465 832.994 227.412 833.004 228.848ZM863.879 232.832V234.609H847.746V232.832H854.719V228.77H856.887V232.832H863.879ZM848.449 227.793C851.965 227.207 854.582 224.824 854.641 222.285H849.094V220.508H862.492V222.285H856.926C856.994 224.824 859.611 227.148 863.234 227.695L862.375 229.414C859.396 228.877 856.945 227.295 855.803 225.088C854.67 227.324 852.248 228.955 849.309 229.512L848.449 227.793ZM871.98 222.148C871.98 224.326 873.484 226.504 876.297 227.383L875.184 229.062C873.182 228.418 871.727 227.09 870.916 225.41C870.125 227.236 868.621 228.691 866.531 229.395L865.418 227.715C868.26 226.758 869.773 224.463 869.793 222.148V221.934H865.984V220.195H875.691V221.934H871.98V222.148ZM867.938 232.305V230.547H879.988V236.738H877.801V232.305H867.938ZM877.801 229.727V219.082H879.988V229.727H877.801Z" fill="#496BD6"/>
<rect x="259.5" y="442" width="688" height="124" stroke="#2F5BC1" stroke-width="4"/>
<rect width="692" height="64" transform="translate(257.5 440)" fill="#2F5BC1"/>
<path d="M556.434 472.281V474.039H540.34V472.281H547.273V470.719C544.041 470.484 542 469.195 542 467.145C542 464.928 544.51 463.57 548.367 463.57C552.215 463.57 554.725 464.928 554.734 467.145C554.725 469.195 552.684 470.484 549.461 470.719V472.281H556.434ZM542.332 480.387V475.25H544.5V478.629H554.617V480.387H542.332ZM544.266 467.145C544.246 468.365 545.799 469.01 548.367 469C550.945 469.01 552.488 468.365 552.488 467.145C552.488 465.982 550.945 465.299 548.367 465.289C545.799 465.299 544.246 465.982 544.266 467.145ZM571.703 463.082V469.859H574.418V471.676H571.703V480.758H569.555V463.082H571.703ZM558.578 466.383V464.625H566.703V471.285H560.766V474.801C563.568 474.781 565.746 474.664 568.207 474.234L568.402 475.992C565.678 476.48 563.275 476.598 560.062 476.598H558.617V469.547H564.535V466.383H558.578ZM590.117 463.102V475.855H587.93V463.102H590.117ZM575.723 468.668C575.723 466.1 577.803 464.264 580.488 464.254C583.174 464.264 585.244 466.1 585.234 468.668C585.244 471.275 583.174 473.102 580.488 473.102C577.803 473.102 575.723 471.275 575.723 468.668ZM577.852 468.668C577.842 470.23 578.975 471.207 580.488 471.207C581.963 471.207 583.105 470.23 583.105 468.668C583.105 467.145 581.963 466.148 580.488 466.148C578.975 466.148 577.842 467.145 577.852 468.668ZM578.438 480.387V474.566H580.625V478.629H590.605V480.387H578.438ZM612.277 471.109V472.828H607.043V476.871H614.074V478.648H597.941V476.871H604.895V472.828H599.895V464.391H612.141V466.129H602.062V471.109H612.277ZM630.711 463.082V480.738H628.621V471.695H626.746V479.879H624.695V463.395H626.746V469.898H628.621V463.082H630.711ZM616.023 476.188V464.996H622.957V476.188H616.023ZM618.055 474.469H620.926V466.715H618.055V474.469ZM639.691 467.32C639.672 470.562 641.381 473.805 644.242 475.035L642.953 476.773C640.922 475.836 639.438 473.971 638.617 471.666C637.807 474.146 636.283 476.178 634.145 477.184L632.816 475.367C635.756 474.098 637.475 470.729 637.484 467.32V464.508H639.691V467.32ZM645.512 480.758V463.082H647.699V480.758H645.512ZM656.875 466.266C656.875 468.424 658.271 470.455 661.035 471.305L660 473.004C658.018 472.379 656.611 471.119 655.84 469.527C655.059 471.383 653.574 472.857 651.445 473.57L650.352 471.852C653.193 470.924 654.688 468.629 654.688 466.285V466.07H650.957V464.312H660.547V466.07H656.875V466.266ZM652.754 477.34C652.754 475.23 655.039 474 658.73 474C662.393 474 664.639 475.23 664.648 477.34C664.639 479.469 662.393 480.719 658.73 480.719C655.039 480.719 652.754 479.469 652.754 477.34ZM654.922 477.34C654.922 478.434 656.309 479.01 658.73 479.02C661.143 479.01 662.5 478.434 662.5 477.34C662.5 476.266 661.143 475.699 658.73 475.699C656.309 475.699 654.922 476.266 654.922 477.34ZM662.305 473.609V463.082H664.473V467.32H666.934V469.098H664.473V473.609H662.305Z" fill="white"/>
<path d="M548.012 543V528.859H553.324C556.566 528.859 558.295 530.832 558.305 533.547C558.295 536.252 556.547 538.215 553.285 538.215H550.551V543H548.012ZM550.551 536.125H552.934C554.848 536.115 555.707 535.041 555.707 533.547C555.707 532.033 554.848 530.988 552.934 530.988H550.551V536.125ZM570.137 533.625C569.834 531.926 568.477 530.949 566.758 530.949C564.443 530.949 562.803 532.727 562.812 535.93C562.803 539.182 564.453 540.91 566.758 540.91C568.438 540.91 569.795 539.973 570.137 538.312H572.695C572.305 541.027 570.068 543.195 566.719 543.195C562.988 543.195 560.244 540.49 560.254 535.93C560.244 531.359 563.018 528.664 566.719 528.664C569.844 528.664 572.256 530.48 572.695 533.625H570.137ZM584.25 543.195C581.359 543.205 579.582 541.496 579.582 539.25C579.582 537.58 580.656 536.564 582.238 535.471C581.428 534.465 580.793 533.43 580.793 532.18C580.793 530.168 582.258 528.684 584.484 528.684C586.711 528.684 588.088 530.158 588.078 531.887C588.088 533.234 587.385 534.26 586.203 535.109L585.305 535.773L587.893 538.811C588.264 538.107 588.488 537.277 588.488 536.34H590.637C590.627 538.283 590.09 539.66 589.406 540.578L591.477 543H588.781L587.873 541.965C586.867 542.814 585.49 543.205 584.25 543.195ZM582.023 539.133C582.023 540.256 582.932 541.154 584.328 541.164C585.08 541.164 585.852 540.891 586.516 540.412L583.576 537.033L583.352 537.199C582.395 537.902 582.023 538.645 582.023 539.133ZM583 532.219C583.01 532.863 583.439 533.518 584.025 534.25L584.836 533.703C585.578 533.225 585.969 532.717 585.969 532.004C585.969 531.389 585.422 530.725 584.523 530.734C583.625 530.725 583.01 531.447 583 532.219ZM598.07 528.859H601.195L605.395 539.133H605.57L609.77 528.859H612.895V543H610.453V533.273H610.316L606.391 542.961H604.574L600.648 533.234H600.531V543H598.07V528.859ZM620.273 543.215C617.178 543.215 615.195 541.018 615.195 537.746C615.195 534.445 617.178 532.258 620.273 532.258C623.379 532.258 625.361 534.445 625.352 537.746C625.361 541.018 623.379 543.215 620.273 543.215ZM617.715 537.727C617.715 539.67 618.564 541.223 620.293 541.223C621.992 541.223 622.842 539.67 622.832 537.727C622.842 535.783 621.992 534.221 620.293 534.23C618.564 534.221 617.715 535.783 617.715 537.727ZM627.652 543V528.859H630.152V534.133H630.25C630.631 533.381 631.402 532.258 633.277 532.258C635.729 532.258 637.662 534.172 637.672 537.707C637.662 541.193 635.787 543.186 633.297 543.195C631.461 543.186 630.641 542.102 630.25 541.32H630.094V543H627.652ZM630.094 537.688C630.094 539.758 631.002 541.145 632.594 541.145C634.254 541.145 635.123 539.689 635.133 537.688C635.123 535.715 634.273 534.299 632.594 534.289C630.982 534.299 630.094 535.627 630.094 537.688ZM639.875 543V532.395H642.375V543H639.875ZM639.699 529.523C639.699 528.781 640.354 528.176 641.145 528.176C641.936 528.176 642.59 528.781 642.59 529.523C642.59 530.275 641.936 530.881 641.145 530.891C640.354 530.881 639.699 530.275 639.699 529.523ZM647.508 528.859V543H645.008V528.859H647.508ZM654.848 543.215C651.654 543.215 649.691 541.086 649.691 537.766C649.691 534.484 651.684 532.258 654.711 532.258C657.309 532.258 659.555 533.889 659.555 537.609V538.391H652.152C652.191 540.197 653.256 541.271 654.867 541.262C655.961 541.271 656.693 540.803 657.016 540.168H659.457C659.008 542.004 657.309 543.215 654.848 543.215ZM652.162 536.691H657.172C657.162 535.246 656.186 534.191 654.75 534.191C653.256 534.191 652.25 535.344 652.162 536.691Z" fill="#496BD6"/>
<rect x="0.5" y="778" width="180" height="180" rx="90" fill="#2F5BC1"/>
<path d="M76.7852 859.188V861.086C76.7734 863.066 76.7734 865.234 76.2227 868.234H79.1523V870.344H70.7383V879.109H68.1133V870.344H59.8398V868.234H73.5742C74.1602 865.352 74.1836 863.184 74.1836 861.297H62.1133V859.188H76.7852ZM99.1133 857.898V879.086H96.6055V868.234H94.3555V878.055H91.8945V858.273H94.3555V866.078H96.6055V857.898H99.1133ZM81.4883 873.625V860.195H89.8086V873.625H81.4883ZM83.9258 871.562H87.3711V862.258H83.9258V871.562ZM109.418 863.922C109.406 867.191 111.375 870.918 114.715 872.477L113.262 874.539C110.871 873.414 109.102 871.141 108.152 868.492C107.191 871.398 105.34 873.883 102.902 875.055L101.379 873.016C104.754 871.41 106.805 867.449 106.816 863.922V862.141H102.199V859.984H113.848V862.141H109.418V863.922ZM115.816 879.086V857.898H118.418V866.148H121.676V868.328H118.418V879.086H115.816Z" fill="white"/>
<rect x="259.5" y="730" width="688" height="276" stroke="#D7D9FF" stroke-width="4"/>
<rect x="297.5" y="768" width="160" height="160" rx="80" fill="#496BD6"/>
<path d="M371.846 839.804C371.64 839.804 371.443 839.886 371.303 840.035C369.748 841.59 367.213 841.59 365.658 840.035C365.51 839.886 365.321 839.804 365.115 839.804C364.909 839.804 364.712 839.886 364.572 840.035C364.424 840.183 364.35 840.372 364.35 840.578C364.35 840.783 364.432 840.981 364.58 841.121C365.625 842.166 367.016 842.742 368.497 842.742C369.978 842.742 371.369 842.166 372.414 841.121C372.718 840.816 372.718 840.331 372.414 840.026C372.266 839.878 372.077 839.796 371.871 839.796L371.846 839.804Z" fill="white"/>
<path d="M368.809 831.056C368.702 831.007 368.595 830.982 368.48 830.982C368.389 830.982 368.307 830.999 368.217 831.024C368.019 831.089 367.863 831.229 367.78 831.419L366.34 834.471C366.192 834.792 366.275 835.171 366.546 835.393L367.986 836.594C368.299 836.858 368.809 836.808 369.072 836.496C369.344 836.167 369.303 835.681 368.974 835.41L367.986 834.587L369.171 832.077C369.262 831.888 369.27 831.682 369.204 831.484C369.138 831.287 368.998 831.131 368.809 831.048V831.056Z" fill="white"/>
<path d="M361.609 829.798V832.11C361.609 832.538 361.955 832.884 362.383 832.884C362.811 832.884 363.156 832.538 363.156 832.11V829.798C363.156 829.37 362.811 829.024 362.383 829.024C361.955 829.024 361.609 829.37 361.609 829.798Z" fill="white"/>
<path d="M375.352 832.11V829.798C375.352 829.37 375.006 829.024 374.578 829.024C374.15 829.024 373.805 829.37 373.805 829.798V832.11C373.805 832.538 374.15 832.884 374.578 832.884C375.006 832.884 375.352 832.538 375.352 832.11Z" fill="white"/>
<path d="M355.66 887.984H406.95C407.814 887.984 408.513 887.284 408.513 886.42V873.246C408.513 872.818 408.168 872.472 407.74 872.472C407.312 872.472 406.966 872.818 406.966 873.246V879.187H381.803V857.652H387.513V862.655C387.513 863.083 387.859 863.429 388.287 863.429C388.715 863.429 389.06 863.083 389.06 862.655V857.652H399.717V862.655C399.717 863.083 400.062 863.429 400.49 863.429C400.918 863.429 401.264 863.083 401.264 862.655V857.652H406.974V874.571C406.974 874.999 407.32 875.344 407.748 875.344C408.176 875.344 408.522 874.999 408.522 874.571V857.669C408.522 856.805 407.822 856.105 406.958 856.105H401.264V854.896C401.264 851.11 398.178 848.025 394.393 848.025C391.562 848.025 389.052 849.728 388.007 852.378L387.801 852.904L387.365 852.542C387.003 852.246 386.625 851.975 386.23 851.744L386.024 851.621V841.22L386.238 841.104C388.221 840.043 389.447 837.986 389.447 835.747V834.661C389.447 832.423 388.213 830.374 386.238 829.304L386.024 829.189V821.8C386.024 815.34 380.774 810.09 374.315 810.09H370.25L370.134 809.991C368.595 808.708 366.645 808 364.637 808H362.161C355.981 808 350.953 813.028 350.953 819.208V829.197L350.739 829.313C348.756 830.374 347.53 832.431 347.53 834.669V835.756C347.53 837.994 348.764 840.043 350.739 841.113L350.953 841.228V851.629L350.747 851.752C348.114 853.308 346.477 856.171 346.477 859.216V886.428C346.477 887.292 347.176 887.992 348.04 887.992H358.252C358.68 887.992 359.025 887.646 359.025 887.218C359.025 886.79 358.68 886.445 358.252 886.445H354.837V874.595C354.837 873.731 354.138 873.032 353.274 873.032H348.024V859.216C348.024 855.291 351.216 852.098 355.141 852.098H359.741L359.758 852.493C359.939 857.2 363.782 860.886 368.489 860.886C373.195 860.886 377.038 857.2 377.219 852.493L377.236 852.098H381.836C384.033 852.098 386.082 853.094 387.439 854.83L387.53 854.945V856.122H381.836C380.972 856.122 380.272 856.821 380.272 857.685V886.453H355.668C355.24 886.453 354.895 886.799 354.895 887.227C354.895 887.654 355.24 888 355.668 888L355.66 887.984ZM389.093 854.328C389.381 851.612 391.661 849.572 394.393 849.572C397.33 849.572 399.717 851.958 399.717 854.896V856.105H389.916L389.809 855.85C389.628 855.414 389.406 854.994 389.151 854.591L389.077 854.468L389.093 854.328ZM353.282 874.571V886.437H348.015V874.571H353.282ZM387.9 834.661V835.747C387.9 838.241 385.868 840.273 383.374 840.273H381.687L381.786 839.779C381.934 839.055 382.008 838.315 382.017 837.582C382.017 837.377 381.943 837.179 381.795 837.031C381.646 836.883 381.457 836.801 381.251 836.801C380.823 836.801 380.478 837.146 380.478 837.566C380.453 842.874 376.117 847.194 370.809 847.194H366.176C360.844 847.194 356.507 842.857 356.507 837.525V828.333C356.507 827.453 357.223 826.737 358.104 826.737H367.707C368.842 826.737 369.953 826.416 370.908 825.815L375.203 823.116C376.265 822.45 377.565 822.4 378.684 822.985C379.778 823.561 380.429 824.581 380.486 825.791C380.486 825.848 380.486 825.906 380.486 825.972V832.053C380.486 832.481 380.832 832.826 381.26 832.826C381.687 832.826 382.033 832.481 382.033 832.053V830.135H383.391C385.884 830.135 387.917 832.168 387.917 834.661H387.9ZM371.731 848.708V852.131C371.731 853.925 370.274 855.381 368.48 855.381C366.686 855.381 365.23 853.925 365.23 852.131V848.708L365.658 848.724C365.822 848.724 365.995 848.741 366.16 848.741H370.793C370.965 848.741 371.13 848.741 371.295 848.724L371.723 848.708H371.731ZM362.144 809.547H364.621C366.308 809.547 367.946 810.156 369.221 811.259C369.501 811.506 369.871 811.637 370.25 811.637H374.298C379.902 811.637 384.461 816.196 384.461 821.8V828.671L384.008 828.621C383.794 828.597 383.58 828.588 383.358 828.588H382V825.963C382 825.881 382 825.799 382 825.717C381.918 823.972 380.939 822.442 379.367 821.619C377.754 820.771 375.878 820.845 374.347 821.808L370.052 824.507C369.336 824.96 368.513 825.19 367.674 825.19H358.071C356.384 825.19 355.01 826.507 354.936 828.193L354.919 828.588H353.578C353.356 828.588 353.142 828.597 352.928 828.621L352.475 828.671V819.208C352.475 813.884 356.804 809.547 362.136 809.547H362.144ZM349.061 835.747V834.661C349.061 832.168 351.093 830.135 353.586 830.135H354.944V837.525C354.944 838.274 355.018 839.039 355.174 839.779L355.273 840.273H353.586C351.093 840.273 349.061 838.241 349.061 835.747ZM355.133 850.543C354.417 850.543 353.693 850.633 353.002 850.806L352.492 850.938V841.738L352.944 841.787C353.158 841.812 353.372 841.82 353.595 841.82H355.8L355.907 842.067C357.289 845.186 360.087 847.548 363.37 848.395L363.683 848.477V850.543H355.133ZM375.672 852.518C375.466 856.336 372.315 859.331 368.48 859.331C364.646 859.331 361.494 856.336 361.288 852.518L361.264 852.082H363.667L363.691 852.468C363.864 854.97 365.962 856.928 368.472 856.928C370.982 856.928 373.08 854.97 373.253 852.468L373.278 852.082H375.68L375.656 852.518H375.672ZM384.469 850.938L383.959 850.806C383.259 850.633 382.543 850.543 381.827 850.543H373.278V848.469L373.59 848.387C376.874 847.539 379.663 845.178 381.054 842.059L381.161 841.812H383.374C383.597 841.812 383.811 841.804 384.025 841.779L384.477 841.73V850.929L384.469 850.938ZM381.811 880.726H406.974V886.437H381.811V880.726Z" fill="white"/>
<path d="M359.234 955.188V956.945H352.242V958.43C355.396 958.635 357.271 959.729 357.281 961.555C357.271 963.586 354.967 964.719 351.168 964.719C347.311 964.719 345.016 963.586 345.016 961.555C345.016 959.729 346.891 958.625 350.094 958.42V956.945H343.141V955.188H359.234ZM343.922 952.668C347.164 952.365 349.283 951.047 349.645 949.602H344.605V947.863H357.789V949.602H352.701C353.053 951.057 355.152 952.365 358.473 952.668L357.711 954.387C354.498 954.055 352.125 952.775 351.168 950.988C350.211 952.775 347.867 954.055 344.664 954.387L343.922 952.668ZM347.223 961.555C347.213 962.531 348.6 963.068 351.168 963.059C353.697 963.068 355.094 962.531 355.113 961.555C355.094 960.578 353.697 960.061 351.168 960.051C348.6 960.061 347.213 960.578 347.223 961.555ZM375.012 955.109V956.828H369.777V960.871H376.809V962.648H360.676V960.871H367.629V956.828H362.629V948.391H374.875V950.129H364.797V955.109H375.012ZM393.445 947.082V964.738H391.355V955.695H389.48V963.879H387.43V947.395H389.48V953.898H391.355V947.082H393.445ZM378.758 960.188V948.996H385.691V960.188H378.758ZM380.789 958.469H383.66V950.715H380.789V958.469ZM410.453 947.102V959.855H408.266V947.102H410.453ZM396.059 952.668C396.059 950.1 398.139 948.264 400.824 948.254C403.51 948.264 405.58 950.1 405.57 952.668C405.58 955.275 403.51 957.102 400.824 957.102C398.139 957.102 396.059 955.275 396.059 952.668ZM398.188 952.668C398.178 954.23 399.311 955.207 400.824 955.207C402.299 955.207 403.441 954.23 403.441 952.668C403.441 951.145 402.299 950.148 400.824 950.148C399.311 950.148 398.178 951.145 398.188 952.668ZM398.773 964.387V958.566H400.961V962.629H410.941V964.387H398.773Z" fill="#496BD6"/>
<rect x="523.5" y="768" width="160" height="160" rx="80" fill="#647EEC"/>
<path d="M578.842 838.201C578.842 840.924 581.048 843.129 583.77 843.129C586.492 843.129 588.697 840.924 588.697 838.201V831.137H578.834V838.201H578.842Z" stroke="white" stroke-width="1.98" stroke-linecap="round" stroke-linejoin="round"/>
<path d="M598.561 838.201C598.561 840.924 600.766 843.129 603.489 843.129C606.211 843.129 608.416 840.924 608.416 838.201V831.137H598.553V838.201H598.561Z" stroke="white" stroke-width="1.98" stroke-linecap="round" stroke-linejoin="round"/>
<path d="M618.288 831.137V838.201C618.288 840.924 620.493 843.129 623.215 843.129C625.938 843.129 628.142 840.924 628.142 838.201V831.137H618.279H618.288Z" stroke="white" stroke-width="1.98" stroke-linecap="round" stroke-linejoin="round"/>
<path d="M568.979 838.201C568.979 840.924 571.184 843.129 573.907 843.129C576.629 843.129 578.834 840.924 578.834 838.201V831.137H568.971V838.201H568.979Z" stroke="white" stroke-width="1.98" stroke-linecap="round" stroke-linejoin="round"/>
<path d="M588.706 838.201C588.706 840.924 590.911 843.129 593.633 843.129C596.356 843.129 598.561 840.924 598.561 838.201V831.137H588.697V838.201H588.706Z" stroke="white" stroke-width="1.98" stroke-linecap="round" stroke-linejoin="round"/>
<path d="M608.423 838.201C608.423 840.924 610.628 843.129 613.35 843.129C616.072 843.129 618.277 840.924 618.277 838.201V831.137H608.414V838.201H608.423Z" stroke="white" stroke-width="1.98" stroke-linecap="round" stroke-linejoin="round"/>
<path d="M628.149 831.137V838.201C628.149 840.924 630.354 843.129 633.077 843.129C635.799 843.129 638.004 840.924 638.004 838.201V831.137H628.141H628.149Z" stroke="white" stroke-width="1.98" stroke-linecap="round" stroke-linejoin="round"/>
<path d="M570.13 824.385C569.494 824.385 568.977 824.902 568.977 825.538V831.135H578.84V824.385H570.139H570.13Z" stroke="white" stroke-width="1.98" stroke-linecap="round" stroke-linejoin="round"/>
<path d="M588.705 831.136H578.842V824.386H588.705V831.136Z" stroke="white" stroke-width="1.98" stroke-linecap="round" stroke-linejoin="round"/>
<path d="M598.559 831.136H588.695V824.386H598.559V831.136Z" stroke="white" stroke-width="1.98" stroke-linecap="round" stroke-linejoin="round"/>
<path d="M608.424 831.136H598.561V824.386H608.424V831.136Z" stroke="white" stroke-width="1.98" stroke-linecap="round" stroke-linejoin="round"/>
<path d="M618.285 831.136H608.422V824.386H618.285V831.136Z" stroke="white" stroke-width="1.98" stroke-linecap="round" stroke-linejoin="round"/>
<path d="M628.15 831.136H618.287V824.386H628.15V831.136Z" stroke="white" stroke-width="1.98" stroke-linecap="round" stroke-linejoin="round"/>
<path d="M636.85 824.385H628.148V831.135H638.012V825.538C638.012 824.902 637.494 824.385 636.858 824.385H636.85Z" stroke="white" stroke-width="1.98" stroke-linecap="round" stroke-linejoin="round"/>
<path d="M631.423 809.171H575.56C574.644 809.171 573.906 809.909 573.906 810.825V817.567C573.906 818.483 574.644 819.221 575.56 819.221H631.423C632.339 819.221 633.077 818.483 633.077 817.567V810.825C633.077 809.909 632.339 809.171 631.423 809.171Z" stroke="white" stroke-width="1.98" stroke-linecap="round" stroke-linejoin="round"/>
<path d="M578.842 824.386H583.371V819.229H578.842V824.386Z" stroke="white" stroke-width="1.98" stroke-linecap="round" stroke-linejoin="round"/>
<path d="M623.621 824.386H628.15V819.229H623.621V824.386Z" stroke="white" stroke-width="1.98" stroke-linecap="round" stroke-linejoin="round"/>
<path d="M568.977 886.83H638.011" stroke="white" stroke-width="1.98" stroke-linecap="round" stroke-linejoin="round"/>
<path d="M603.496 886.829H588.705V856.569H603.496V886.829Z" stroke="white" stroke-width="1.98" stroke-linecap="round" stroke-linejoin="round"/>
<path d="M618.287 886.829H603.496V856.569H618.287V886.829Z" stroke="white" stroke-width="1.98" stroke-linecap="round" stroke-linejoin="round"/>
<path d="M571.922 886.831H588.705V881.521H571.922V886.831Z" stroke="white" stroke-width="1.98" stroke-linecap="round" stroke-linejoin="round"/>
<path d="M618.287 886.831H635.071V881.521H618.287V886.831Z" stroke="white" stroke-width="1.98" stroke-linecap="round" stroke-linejoin="round"/>
<path d="M598.695 870.316V874.014" stroke="white" stroke-width="1.98" stroke-linecap="round" stroke-linejoin="round"/>
<path d="M608.285 870.316V874.014" stroke="white" stroke-width="1.98" stroke-linecap="round" stroke-linejoin="round"/>
<path d="M609.763 851.253H589.926C589.248 851.253 588.705 851.804 588.705 852.474V856.562H618.286V852.474C618.286 851.796 617.735 851.253 617.065 851.253H606.235" stroke="white" stroke-width="1.98" stroke-linecap="round" stroke-linejoin="round"/>
<path d="M635.07 867.604V842.712C634.459 842.984 633.789 843.136 633.077 843.136C630.354 843.136 628.149 840.931 628.149 838.209C628.149 840.931 625.944 843.136 623.222 843.136C620.5 843.136 618.295 840.931 618.295 838.209C618.295 840.931 616.09 843.136 613.367 843.136C610.645 843.136 608.44 840.931 608.44 838.209C608.44 840.931 606.235 843.136 603.513 843.136C600.79 843.136 598.585 840.931 598.585 838.209C598.585 840.931 596.38 843.136 593.658 843.136C590.935 843.136 588.73 840.931 588.73 838.209C588.73 840.931 586.525 843.136 583.803 843.136C581.08 843.136 578.876 840.931 578.876 838.209C578.876 840.931 576.671 843.136 573.948 843.136C573.236 843.136 572.566 842.984 571.955 842.712V886.83H635.104V865.254" stroke="white" stroke-width="1.98" stroke-linecap="round" stroke-linejoin="round"/>
<path d="M566.955 949.602C566.945 951.926 568.41 954.113 571.213 954.992L570.139 956.711C568.107 956.037 566.652 954.689 565.852 952.961C565.061 954.816 563.576 956.291 561.486 957.004L560.393 955.305C563.244 954.338 564.719 951.994 564.709 949.602V947.922H566.955V949.602ZM563.029 960.188V958.449H575.08V964.738H572.893V960.188H563.029ZM572.893 957.648V947.082H575.08V957.648H572.893ZM584.236 952.102C584.227 954.826 585.867 957.932 588.65 959.23L587.439 960.949C585.447 960.012 583.973 958.117 583.182 955.91C582.381 958.332 580.838 960.402 578.807 961.379L577.537 959.68C580.35 958.342 582.059 955.041 582.068 952.102V950.617H578.221V948.82H587.928V950.617H584.236V952.102ZM589.568 964.738V947.082H591.736V953.957H594.451V955.773H591.736V964.738H589.568ZM610.756 947.082V964.738H608.686V955.793H606.869V963.879H604.818V947.395H606.869V953.996H608.686V947.082H610.756ZM595.15 959.602C597.768 958.117 598.822 955.041 598.822 951.594V950.754H595.678V949.016H603.822V950.754H600.932V951.594C600.932 954.729 601.986 957.629 604.604 958.977L603.334 960.637C601.654 959.729 600.551 958.176 599.926 956.262C599.33 958.459 598.227 960.227 596.479 961.262L595.15 959.602ZM621.963 948.801V960.363H613.604V948.801H621.963ZM615.732 958.625H619.795V950.5H615.732V958.625ZM624.639 964.738V947.082H626.807V953.859H629.521V955.695H626.807V964.738H624.639ZM644.869 956.34V958.059H632.486V948.469H644.713V950.227H634.693V952.355H644.303V954.055H634.693V956.34H644.869ZM630.514 962.59V960.812H646.646V962.59H630.514Z" fill="#496BD6"/>
<rect x="749.5" y="768" width="160" height="160" rx="80" fill="#7F95FA"/>
<path d="M820.796 817.474H817.635C816.344 817.474 815.299 818.527 815.299 819.81V822.971C815.299 824.262 816.352 825.307 817.635 825.307H820.796C822.087 825.307 823.132 824.254 823.132 822.971V819.81C823.132 818.519 822.079 817.474 820.796 817.474ZM821.611 822.971C821.611 823.429 821.255 823.786 820.796 823.786H817.635C817.185 823.786 816.82 823.421 816.82 822.971V819.81C816.82 819.36 817.185 818.994 817.635 818.994H820.796C821.246 818.994 821.611 819.36 821.611 819.81V822.971Z" fill="white"/>
<path d="M831.058 817.474H827.897C826.606 817.474 825.561 818.527 825.561 819.81V822.971C825.561 824.262 826.614 825.307 827.897 825.307H831.058C832.349 825.307 833.394 824.254 833.394 822.971V819.81C833.394 818.519 832.34 817.474 831.058 817.474ZM831.882 822.971C831.882 823.429 831.525 823.786 831.066 823.786H827.906C827.455 823.786 827.09 823.421 827.09 822.971V819.81C827.09 819.36 827.455 818.994 827.906 818.994H831.066C831.516 818.994 831.882 819.36 831.882 819.81V822.971Z" fill="white"/>
<path d="M841.331 817.474H838.17C836.879 817.474 835.834 818.527 835.834 819.81V822.971C835.834 824.262 836.888 825.307 838.17 825.307H841.331C842.622 825.307 843.667 824.254 843.667 822.971V819.81C843.667 818.519 842.614 817.474 841.331 817.474ZM842.147 822.971C842.147 823.429 841.79 823.786 841.331 823.786H838.17C837.72 823.786 837.355 823.421 837.355 822.971V819.81C837.355 819.36 837.72 818.994 838.17 818.994H841.331C841.781 818.994 842.147 819.36 842.147 819.81V822.971Z" fill="white"/>
<path d="M820.796 827.737H817.635C816.344 827.737 815.299 828.791 815.299 830.074V833.234C815.299 834.526 816.352 835.571 817.635 835.571H820.796C822.087 835.571 823.132 834.517 823.132 833.234V830.074C823.132 828.782 822.079 827.737 820.796 827.737ZM821.611 833.234C821.611 833.693 821.255 834.05 820.796 834.05H817.635C817.185 834.05 816.82 833.685 816.82 833.234V830.074C816.82 829.623 817.185 829.258 817.635 829.258H820.796C821.246 829.258 821.611 829.623 821.611 830.074V833.234Z" fill="white"/>
<path d="M831.058 827.737H827.897C826.606 827.737 825.561 828.791 825.561 830.074V833.234C825.561 834.526 826.614 835.571 827.897 835.571H831.058C832.349 835.571 833.394 834.517 833.394 833.234V830.074C833.394 828.782 832.34 827.737 831.058 827.737ZM831.882 833.234C831.882 833.693 831.525 834.05 831.066 834.05H827.906C827.455 834.05 827.09 833.685 827.09 833.234V830.074C827.09 829.623 827.455 829.258 827.906 829.258H831.066C831.516 829.258 831.882 829.623 831.882 830.074V833.234Z" fill="white"/>
<path d="M841.331 827.737H838.17C836.879 827.737 835.834 828.791 835.834 830.074V833.234C835.834 834.526 836.888 835.571 838.17 835.571H841.331C842.622 835.571 843.667 834.517 843.667 833.234V830.074C843.667 828.782 842.614 827.737 841.331 827.737ZM842.147 833.234C842.147 833.693 841.79 834.05 841.331 834.05H838.17C837.72 834.05 837.355 833.685 837.355 833.234V830.074C837.355 829.623 837.72 829.258 838.17 829.258H841.331C841.781 829.258 842.147 829.623 842.147 830.074V833.234Z" fill="white"/>
<path d="M820.796 838H817.635C816.344 838 815.299 839.054 815.299 840.336V843.497C815.299 844.788 816.352 845.833 817.635 845.833H820.796C822.087 845.833 823.132 844.78 823.132 843.497V840.336C823.132 839.045 822.079 838 820.796 838ZM821.611 843.506C821.611 843.964 821.255 844.321 820.796 844.321H817.635C817.185 844.321 816.82 843.956 816.82 843.506V840.345C816.82 839.895 817.185 839.529 817.635 839.529H820.796C821.246 839.529 821.611 839.895 821.611 840.345V843.506Z" fill="white"/>
<path d="M831.058 838H827.897C826.606 838 825.561 839.054 825.561 840.336V843.497C825.561 844.788 826.614 845.833 827.897 845.833H831.058C832.349 845.833 833.394 844.78 833.394 843.497V840.336C833.394 839.045 832.34 838 831.058 838ZM831.882 843.506C831.882 843.964 831.525 844.321 831.066 844.321H827.906C827.455 844.321 827.09 843.956 827.09 843.506V840.345C827.09 839.895 827.455 839.529 827.906 839.529H831.066C831.516 839.529 831.882 839.895 831.882 840.345V843.506Z" fill="white"/>
<path d="M841.331 838H838.17C836.879 838 835.834 839.054 835.834 840.336V843.497C835.834 844.788 836.888 845.833 838.17 845.833H841.331C842.622 845.833 843.667 844.78 843.667 843.497V840.336C843.667 839.045 842.614 838 841.331 838ZM842.147 843.506C842.147 843.964 841.79 844.321 841.331 844.321H838.17C837.72 844.321 837.355 843.956 837.355 843.506V840.345C837.355 839.895 837.72 839.529 838.17 839.529H841.331C841.781 839.529 842.147 839.895 842.147 840.345V843.506Z" fill="white"/>
<path d="M820.796 848.272H817.635C816.344 848.272 815.299 849.326 815.299 850.609V853.769C815.299 855.061 816.352 856.106 817.635 856.106H820.796C822.087 856.106 823.132 855.052 823.132 853.769V850.609C823.132 849.317 822.079 848.272 820.796 848.272ZM821.611 853.769C821.611 854.228 821.255 854.585 820.796 854.585H817.635C817.185 854.585 816.82 854.22 816.82 853.769V850.609C816.82 850.159 817.185 849.793 817.635 849.793H820.796C821.246 849.793 821.611 850.159 821.611 850.609V853.769Z" fill="white"/>
<path d="M831.058 848.272H827.897C826.606 848.272 825.561 849.326 825.561 850.609V853.769C825.561 855.061 826.614 856.106 827.897 856.106H831.058C832.349 856.106 833.394 855.052 833.394 853.769V850.609C833.394 849.317 832.34 848.272 831.058 848.272ZM831.882 853.769C831.882 854.228 831.525 854.585 831.066 854.585H827.906C827.455 854.585 827.09 854.22 827.09 853.769V850.609C827.09 850.159 827.455 849.793 827.906 849.793H831.066C831.516 849.793 831.882 850.159 831.882 850.609V853.769Z" fill="white"/>
<path d="M857.126 828.688H853.965C852.674 828.688 851.629 829.741 851.629 831.024V834.185C851.629 835.476 852.682 836.521 853.965 836.521H857.126C858.417 836.521 859.462 835.467 859.462 834.185V831.024C859.462 829.733 858.409 828.688 857.126 828.688ZM857.942 834.185C857.942 834.643 857.585 835 857.126 835H853.965C853.515 835 853.15 834.635 853.15 834.185V831.024C853.15 830.574 853.515 830.208 853.965 830.208H857.126C857.576 830.208 857.942 830.574 857.942 831.024V834.185Z" fill="white"/>
<path d="M857.126 838.951H853.965C852.674 838.951 851.629 840.005 851.629 841.288V844.448C851.629 845.74 852.682 846.785 853.965 846.785H857.126C858.417 846.785 859.462 845.731 859.462 844.448V841.288C859.462 839.996 858.409 838.951 857.126 838.951ZM857.942 844.448C857.942 844.907 857.585 845.264 857.126 845.264H853.965C853.515 845.264 853.15 844.899 853.15 844.448V841.288C853.15 840.837 853.515 840.472 853.965 840.472H857.126C857.576 840.472 857.942 840.837 857.942 841.288V844.448Z" fill="white"/>
<path d="M857.126 849.215H853.965C852.674 849.215 851.629 850.268 851.629 851.551V854.712C851.629 856.003 852.682 857.048 853.965 857.048H857.126C858.417 857.048 859.462 855.995 859.462 854.712V851.551C859.462 850.26 858.409 849.215 857.126 849.215ZM857.942 854.72C857.942 855.179 857.585 855.536 857.126 855.536H853.965C853.515 855.536 853.15 855.171 853.15 854.72V851.56C853.15 851.11 853.515 850.744 853.965 850.744H857.126C857.576 850.744 857.942 851.11 857.942 851.56V854.72Z" fill="white"/>
<path d="M857.126 859.486H853.965C852.674 859.486 851.629 860.54 851.629 861.823V864.983C851.629 866.275 852.682 867.32 853.965 867.32H857.126C858.417 867.32 859.462 866.266 859.462 864.983V861.823C859.462 860.531 858.409 859.486 857.126 859.486ZM857.942 864.983C857.942 865.442 857.585 865.799 857.126 865.799H853.965C853.515 865.799 853.15 865.434 853.15 864.983V861.823C853.15 861.372 853.515 861.007 853.965 861.007H857.126C857.576 861.007 857.942 861.372 857.942 861.823V864.983Z" fill="white"/>
<path d="M805.001 828.688H801.84C800.549 828.688 799.504 829.741 799.504 831.024V834.185C799.504 835.476 800.557 836.521 801.84 836.521H805.001C806.292 836.521 807.337 835.467 807.337 834.185V831.024C807.337 829.733 806.284 828.688 805.001 828.688ZM805.817 834.185C805.817 834.643 805.46 835 805.001 835H801.84C801.39 835 801.025 834.635 801.025 834.185V831.024C801.025 830.574 801.39 830.208 801.84 830.208H805.001C805.451 830.208 805.817 830.574 805.817 831.024V834.185Z" fill="white"/>
<path d="M805.001 838.951H801.84C800.549 838.951 799.504 840.005 799.504 841.288V844.448C799.504 845.74 800.557 846.785 801.84 846.785H805.001C806.292 846.785 807.337 845.731 807.337 844.448V841.288C807.337 839.996 806.284 838.951 805.001 838.951ZM805.817 844.448C805.817 844.907 805.46 845.264 805.001 845.264H801.84C801.39 845.264 801.025 844.899 801.025 844.448V841.288C801.025 840.837 801.39 840.472 801.84 840.472H805.001C805.451 840.472 805.817 840.837 805.817 841.288V844.448Z" fill="white"/>
<path d="M805.001 849.215H801.84C800.549 849.215 799.504 850.268 799.504 851.551V854.712C799.504 856.003 800.557 857.048 801.84 857.048H805.001C806.292 857.048 807.337 855.995 807.337 854.712V851.551C807.337 850.26 806.284 849.215 805.001 849.215ZM805.817 854.72C805.817 855.179 805.46 855.536 805.001 855.536H801.84C801.39 855.536 801.025 855.171 801.025 854.72V851.56C801.025 851.11 801.39 850.744 801.84 850.744H805.001C805.451 850.744 805.817 851.11 805.817 851.56V854.72Z" fill="white"/>
<path d="M805.001 859.486H801.84C800.549 859.486 799.504 860.54 799.504 861.823V864.983C799.504 866.275 800.557 867.32 801.84 867.32H805.001C806.292 867.32 807.337 866.266 807.337 864.983V861.823C807.337 860.531 806.284 859.486 805.001 859.486ZM805.817 864.983C805.817 865.442 805.46 865.799 805.001 865.799H801.84C801.39 865.799 801.025 865.434 801.025 864.983V861.823C801.025 861.372 801.39 861.007 801.84 861.007H805.001C805.451 861.007 805.817 861.372 805.817 861.823V864.983Z" fill="white"/>
<path d="M841.331 848.272H838.17C836.879 848.272 835.834 849.326 835.834 850.609V853.769C835.834 855.061 836.888 856.106 838.17 856.106H841.331C842.622 856.106 843.667 855.052 843.667 853.769V850.609C843.667 849.317 842.614 848.272 841.331 848.272ZM842.147 853.769C842.147 854.228 841.79 854.585 841.331 854.585H838.17C837.72 854.585 837.355 854.22 837.355 853.769V850.609C837.355 850.159 837.72 849.793 838.17 849.793H841.331C841.781 849.793 842.147 850.159 842.147 850.609V853.769Z" fill="white"/>
<path d="M868.798 882.919L868.577 882.639L868.824 882.376C869.257 881.9 869.503 881.271 869.503 880.625C869.503 879.164 868.314 877.966 866.853 877.966C865.935 877.966 865.153 877.473 864.763 876.683C864.644 876.445 864.491 876.199 864.295 875.944L864.21 875.834V824.44L864.491 824.338C865.74 823.896 866.581 822.707 866.581 821.39C866.581 819.665 865.179 818.263 863.454 818.263H848.416V814.177L848.696 814.075C849.945 813.633 850.786 812.443 850.786 811.127C850.786 809.402 849.384 808 847.66 808H811.33C809.605 808 808.203 809.402 808.203 811.127C808.203 812.443 809.045 813.633 810.293 814.075L810.574 814.177V818.263H795.536C793.811 818.263 792.409 819.665 792.409 821.39C792.409 822.707 793.25 823.896 794.499 824.338L794.779 824.44V875.834L794.695 875.944C794.499 876.199 794.346 876.445 794.227 876.683C793.836 877.456 793.038 877.958 792.188 877.958C790.676 877.958 789.486 879.147 789.486 880.617C789.486 881.263 789.724 881.891 790.166 882.367L790.412 882.63L790.192 882.911C789.733 883.489 789.495 884.168 789.495 884.873C789.495 886.598 790.897 888 792.621 888H866.385C868.11 888 869.512 886.598 869.512 884.873C869.512 884.16 869.274 883.48 868.815 882.911L868.798 882.919ZM863.446 819.776C864.329 819.776 865.051 820.498 865.051 821.381C865.051 822.265 864.329 822.987 863.446 822.987H848.407V819.767H863.446V819.776ZM862.681 824.517V874.576L862.129 874.406C861.135 874.092 860.243 874.092 859.206 874.406L858.934 874.491L858.756 874.27C857.711 873.004 856.164 872.274 854.516 872.274C852.868 872.274 851.322 873.004 850.277 874.27L850.09 874.5L849.809 874.406C849.478 874.296 849.138 874.219 848.79 874.194L848.399 874.16V824.525H862.673L862.681 824.517ZM809.707 811.127C809.707 810.243 810.429 809.521 811.313 809.521H847.643C848.526 809.521 849.249 810.243 849.249 811.127C849.249 812.01 848.526 812.732 847.643 812.732H811.313C810.429 812.732 809.707 812.01 809.707 811.127ZM819.214 864.856C818.331 864.856 817.609 864.134 817.609 863.251C817.609 862.367 818.331 861.645 819.214 861.645H839.75C840.633 861.645 841.356 862.367 841.356 863.251C841.356 864.134 840.633 864.856 839.75 864.856H819.214ZM838.985 866.377V881.755H830.243V866.377H838.985ZM828.722 866.377V881.755H819.979V866.377H828.722ZM840.506 866.292L840.786 866.19C842.035 865.749 842.876 864.559 842.876 863.242C842.876 861.517 841.475 860.116 839.75 860.116H819.214C817.49 860.116 816.088 861.517 816.088 863.242C816.088 864.559 816.929 865.749 818.178 866.19L818.458 866.292V881.755H812.078V814.253H846.887V881.755H840.506V866.292ZM793.913 821.39C793.913 820.506 794.635 819.784 795.519 819.784H810.557V823.004H795.519C794.635 823.004 793.913 822.282 793.913 821.399V821.39ZM810.557 824.517V874.168L810.166 874.202C809.818 874.228 809.478 874.304 809.147 874.415L808.866 874.508L808.679 874.279C807.634 873.013 806.088 872.282 804.44 872.282C802.791 872.282 801.245 873.013 800.2 874.279L800.013 874.508L799.733 874.415C798.883 874.126 797.881 874.083 796.819 874.415L796.266 874.585V824.508H810.54L810.557 824.517ZM792.129 879.487H792.18C793.633 879.487 794.933 878.68 795.57 877.371C796.088 876.335 797.124 875.698 798.288 875.698C798.849 875.698 799.401 875.859 799.886 876.156C800.064 876.267 800.285 876.301 800.489 876.25C800.693 876.199 800.863 876.071 800.956 875.876C801.67 874.593 803.012 873.803 804.457 873.803C805.901 873.803 807.252 874.593 807.957 875.868C808.059 876.046 808.237 876.19 808.45 876.25C808.637 876.301 808.858 876.267 809.036 876.156C809.316 875.969 809.673 875.834 810.073 875.757L810.582 875.655V881.764H792.154C791.526 881.764 791.016 881.254 791.016 880.625C791.016 879.997 791.5 879.487 792.12 879.487H792.129ZM866.36 886.496H792.596C791.712 886.496 790.99 885.774 790.99 884.89C790.99 884.007 791.712 883.285 792.596 883.285H866.36C867.243 883.285 867.966 884.007 867.966 884.89C867.966 885.774 867.243 886.496 866.36 886.496ZM866.836 881.755H848.407V875.647L848.917 875.749C849.316 875.825 849.673 875.969 849.962 876.156C850.141 876.258 850.353 876.292 850.557 876.241C850.761 876.19 850.931 876.063 851.024 875.868C851.738 874.585 853.08 873.794 854.525 873.794C855.969 873.794 857.312 874.585 858.025 875.859C858.127 876.037 858.305 876.182 858.518 876.241C858.713 876.284 858.926 876.258 859.104 876.139C859.588 875.842 860.141 875.681 860.701 875.681C861.865 875.681 862.902 876.318 863.42 877.354C864.049 878.663 865.332 879.47 866.785 879.47H866.836C867.464 879.47 867.974 879.98 867.974 880.608C867.974 881.237 867.464 881.747 866.836 881.747V881.755Z" fill="white"/>
<path d="M810.336 947.082V964.738H808.266V955.734H806.273V963.84H804.281V947.414H806.273V953.996H808.266V947.082H810.336ZM795.688 960.617V949.172H802.289V950.93H797.875V958.781C799.789 958.762 801.371 958.664 803.168 958.332L803.324 960.109C801.186 960.539 799.34 960.598 796.879 960.617H795.688ZM822.578 948.84V950.559H812.715V948.84H816.66V946.926H818.828V948.84H822.578ZM813.633 954.562C813.623 952.59 815.303 951.262 817.715 951.262C820.117 951.262 821.846 952.59 821.855 954.562C821.846 956.525 820.117 957.824 817.715 957.824C815.303 957.824 813.623 956.525 813.633 954.562ZM815.488 961.652C815.488 959.709 817.783 958.576 821.523 958.586C825.254 958.576 827.549 959.709 827.559 961.652C827.549 963.566 825.254 964.719 821.523 964.719C817.783 964.719 815.488 963.566 815.488 961.652ZM815.664 954.562C815.654 955.598 816.465 956.203 817.715 956.203C818.965 956.203 819.824 955.598 819.824 954.562C819.824 953.508 818.965 952.883 817.715 952.883C816.465 952.883 815.654 953.508 815.664 954.562ZM817.773 961.652C817.764 962.57 819.141 963.068 821.523 963.059C823.887 963.068 825.234 962.57 825.234 961.652C825.234 960.715 823.887 960.246 821.523 960.246C819.141 960.246 817.764 960.715 817.773 961.652ZM822.676 956.32V954.582H825.293V952.844H822.695V951.086H825.293V947.082H827.461V958.391H825.293V956.32H822.676ZM839.195 948.801V960.363H830.836V948.801H839.195ZM832.965 958.625H837.027V950.5H832.965V958.625ZM841.871 964.738V947.082H844.039V953.859H846.754V955.695H844.039V964.738H841.871ZM862.102 956.34V958.059H849.719V948.469H861.945V950.227H851.926V952.355H861.535V954.055H851.926V956.34H862.102ZM847.746 962.59V960.812H863.879V962.59H847.746Z" fill="#496BD6"/>
<rect width="160" height="48" transform="translate(389.5 335)" fill="#F5F5F5"/>
<path d="M433.454 351.859V366H430.896V354.34H430.818L427.517 356.449V354.125L431.013 351.859H433.454ZM440.173 366.156C439.333 366.156 438.64 365.473 438.65 364.633C438.64 363.812 439.333 363.139 440.173 363.129C440.984 363.139 441.677 363.812 441.677 364.633C441.677 365.473 440.984 366.156 440.173 366.156ZM456.391 352.895C456.391 355.111 457.826 357.211 460.551 358.07L459.379 359.77C457.475 359.125 456.107 357.836 455.336 356.195C454.574 358.07 453.148 359.545 451.117 360.258L449.945 358.559C452.787 357.572 454.213 355.219 454.223 352.699V351.02H456.391V352.895ZM452.348 364.359C452.348 362.27 454.643 361.029 458.324 361.039C461.977 361.029 464.232 362.27 464.242 364.359C464.232 366.498 461.977 367.719 458.324 367.719C454.643 367.719 452.348 366.498 452.348 364.359ZM454.516 364.359C454.516 365.453 455.902 366 458.324 366C460.736 366 462.094 365.453 462.094 364.359C462.094 363.324 460.736 362.738 458.324 362.738C455.902 362.738 454.516 363.324 454.516 364.359ZM461.898 360.648V350.082H464.066V354.379H466.527V356.176H464.066V360.648H461.898ZM483.77 358.441V360.18H476.777V361.879H481.816V367.523H469.57V361.879H474.629V360.18H467.676V358.441H483.77ZM469.121 352.348V350.609H482.285V352.348H479.863V355.375H482.188V357.133H469.219V355.375H471.543V352.348H469.121ZM471.719 365.766H479.707V363.559H471.719V365.766ZM473.711 355.375H477.676V352.348H473.711V355.375ZM501.324 358.266V360.043H485.211V358.266H501.324ZM487.086 364.477C487.086 362.426 489.4 361.264 493.238 361.273C497.047 361.264 499.342 362.426 499.352 364.477C499.342 366.557 497.047 367.719 493.238 367.719C489.4 367.719 487.086 366.557 487.086 364.477ZM487.184 356.879V350.648H499.371V352.406H489.352V355.141H499.469V356.879H487.184ZM489.293 364.477C489.283 365.521 490.67 366.039 493.238 366.039C495.768 366.039 497.164 365.521 497.184 364.477C497.164 363.48 495.768 362.934 493.238 362.934C490.67 362.934 489.283 363.48 489.293 364.477ZM518.859 359.633V361.391H502.727V359.633H509.719V358.168H504.777V353.48H514.699V352.172H504.719V350.473H516.867V355.062H506.926V356.469H517.219V358.168H511.867V359.633H518.859ZM504.523 364.223V362.504H516.965V367.621H514.777V364.223H504.523Z" fill="#1C3575"/>
<rect width="160" height="48" transform="translate(295.5 627)" fill="#F5F5F5"/>
<path d="M349.783 658V656.164L354.783 651.34C356.208 649.914 356.951 649.074 356.951 647.883C356.951 646.564 355.906 645.734 354.529 645.734C353.074 645.734 352.136 646.643 352.146 648.078H349.724C349.714 645.402 351.726 643.664 354.548 643.664C357.439 643.664 359.382 645.393 359.392 647.766C359.382 649.357 358.621 650.646 355.837 653.273L353.318 655.773V655.871H359.607V658H349.783ZM363.708 658.156C362.869 658.156 362.175 657.473 362.185 656.633C362.175 655.812 362.869 655.139 363.708 655.129C364.519 655.139 365.212 655.812 365.212 656.633C365.212 657.473 364.519 658.156 363.708 658.156ZM387.797 643.156V644.738C387.787 646.389 387.787 648.195 387.328 650.695H389.77V652.453H382.758V659.758H380.57V652.453H373.676V650.695H385.121C385.609 648.293 385.629 646.486 385.629 644.914H375.57V643.156H387.797ZM406.445 642.082V659.738H404.355V650.695H402.48V658.879H400.43V642.395H402.48V648.898H404.355V642.082H406.445ZM391.758 655.188V643.996H398.691V655.188H391.758ZM393.789 653.469H396.66V645.715H393.789V653.469Z" fill="#1C3575"/>
<rect width="160" height="48" transform="translate(10.5 480)" fill="#F5F5F5"/>
<path d="M52.0912 511.195C49.0736 511.195 46.9154 509.555 46.8568 507.172H49.4154C49.4838 508.305 50.6166 509.057 52.0912 509.047C53.6439 509.057 54.767 508.197 54.767 506.938C54.767 505.668 53.6732 504.76 51.8373 504.75H50.5678V502.797H51.8373C53.3412 502.797 54.3861 501.957 54.3764 500.727C54.3861 499.535 53.4877 498.734 52.1107 498.734C50.7826 498.734 49.64 499.477 49.5912 500.668H47.1498C47.2084 498.295 49.3666 496.664 52.1303 496.664C55.0014 496.664 56.8568 498.422 56.8373 500.59C56.8568 502.172 55.8022 503.314 54.2592 503.637V503.754C56.2514 504.018 57.3842 505.297 57.3647 507.074C57.3842 509.467 55.1479 511.195 52.0912 511.195ZM61.1732 511.156C60.3334 511.156 59.64 510.473 59.6498 509.633C59.64 508.812 60.3334 508.139 61.1732 508.129C61.9838 508.139 62.6772 508.812 62.6772 509.633C62.6772 510.473 61.9838 511.156 61.1732 511.156ZM77.3906 497.895C77.3906 500.111 78.8262 502.211 81.5508 503.07L80.3789 504.77C78.4746 504.125 77.1074 502.836 76.3359 501.195C75.5742 503.07 74.1484 504.545 72.1172 505.258L70.9453 503.559C73.7871 502.572 75.2129 500.219 75.2227 497.699V496.02H77.3906V497.895ZM73.3477 509.359C73.3477 507.27 75.6426 506.029 79.3242 506.039C82.9766 506.029 85.2324 507.27 85.2422 509.359C85.2324 511.498 82.9766 512.719 79.3242 512.719C75.6426 512.719 73.3477 511.498 73.3477 509.359ZM75.5156 509.359C75.5156 510.453 76.9023 511 79.3242 511C81.7363 511 83.0938 510.453 83.0938 509.359C83.0938 508.324 81.7363 507.738 79.3242 507.738C76.9023 507.738 75.5156 508.324 75.5156 509.359ZM82.8984 505.648V495.082H85.0664V499.379H87.5273V501.176H85.0664V505.648H82.8984ZM104.77 503.441V505.18H97.7773V506.879H102.816V512.523H90.5703V506.879H95.6289V505.18H88.6758V503.441H104.77ZM90.1211 497.348V495.609H103.285V497.348H100.863V500.375H103.188V502.133H90.2188V500.375H92.543V497.348H90.1211ZM92.7188 510.766H100.707V508.559H92.7188V510.766ZM94.7109 500.375H98.6758V497.348H94.7109V500.375ZM122.324 503.812V505.551H115.508V508.793H113.301V505.551H106.191V503.812H122.324ZM107.91 499.086C107.9 496.869 110.439 495.473 114.238 495.473C118.057 495.473 120.566 496.869 120.566 499.086C120.566 501.312 118.057 502.689 114.238 502.68C110.439 502.689 107.9 501.312 107.91 499.086ZM108.164 512.387V507.152H110.352V510.609H120.547V512.387H108.164ZM110.254 499.086C110.234 500.258 111.816 500.941 114.238 500.941C116.68 500.941 118.252 500.258 118.242 499.086C118.252 497.875 116.68 497.191 114.238 497.191C111.816 497.191 110.234 497.875 110.254 499.086ZM132.848 501.312V503.617H139.84V505.355H123.746V503.617H130.699V501.312H132.848ZM124.625 500.609C128.268 500.15 130.66 498.148 130.66 496.039V495.375H132.867V496.039C132.867 498.197 135.24 500.15 138.922 500.609L138.082 502.309C135.191 501.869 132.877 500.561 131.754 498.705C130.621 500.551 128.316 501.869 125.406 502.309L124.625 500.609ZM125.621 509.613C125.621 507.631 127.916 506.498 131.773 506.508C135.602 506.498 137.877 507.631 137.887 509.613C137.877 511.615 135.602 512.719 131.773 512.719C127.916 512.719 125.621 511.615 125.621 509.613ZM127.828 509.613C127.818 510.58 129.176 511.078 131.773 511.078C134.322 511.078 135.699 510.58 135.719 509.613C135.699 508.646 134.322 508.168 131.773 508.168C129.176 508.168 127.818 508.646 127.828 509.613Z" fill="#1C3575"/>
<rect width="160" height="48" transform="translate(519.5 627)" fill="#F5F5F5"/>
<path d="M555.525 655.363V653.332L561.638 643.859H564.802V653.273H566.658V655.363H564.802V658H562.38V655.363H555.525ZM558.122 653.273H562.419V646.75H562.263L558.122 653.176V653.273ZM570.173 658.156C569.333 658.156 568.64 657.473 568.65 656.633C568.64 655.812 569.333 655.139 570.173 655.129C570.984 655.139 571.677 655.812 571.677 656.633C571.677 657.473 570.984 658.156 570.173 658.156ZM586.391 644.895C586.391 647.111 587.826 649.211 590.551 650.07L589.379 651.77C587.475 651.125 586.107 649.836 585.336 648.195C584.574 650.07 583.148 651.545 581.117 652.258L579.945 650.559C582.787 649.572 584.213 647.219 584.223 644.699V643.02H586.391V644.895ZM582.348 656.359C582.348 654.27 584.643 653.029 588.324 653.039C591.977 653.029 594.232 654.27 594.242 656.359C594.232 658.498 591.977 659.719 588.324 659.719C584.643 659.719 582.348 658.498 582.348 656.359ZM584.516 656.359C584.516 657.453 585.902 658 588.324 658C590.736 658 592.094 657.453 592.094 656.359C592.094 655.324 590.736 654.738 588.324 654.738C585.902 654.738 584.516 655.324 584.516 656.359ZM591.898 652.648V642.082H594.066V646.379H596.527V648.176H594.066V652.648H591.898ZM613.77 650.441V652.18H606.777V653.879H611.816V659.523H599.57V653.879H604.629V652.18H597.676V650.441H613.77ZM599.121 644.348V642.609H612.285V644.348H609.863V647.375H612.188V649.133H599.219V647.375H601.543V644.348H599.121ZM601.719 657.766H609.707V655.559H601.719V657.766ZM603.711 647.375H607.676V644.348H603.711V647.375ZM629.918 642.102V654.855H627.73V642.102H629.918ZM615.523 647.668C615.523 645.1 617.604 643.264 620.289 643.254C622.975 643.264 625.045 645.1 625.035 647.668C625.045 650.275 622.975 652.102 620.289 652.102C617.604 652.102 615.523 650.275 615.523 647.668ZM617.652 647.668C617.643 649.23 618.775 650.207 620.289 650.207C621.764 650.207 622.906 649.23 622.906 647.668C622.906 646.145 621.764 645.148 620.289 645.148C618.775 645.148 617.643 646.145 617.652 647.668ZM618.238 659.387V653.566H620.426V657.629H630.406V659.387H618.238ZM641.945 643.547C641.936 645.764 644.426 648.02 648.195 648.508L647.336 650.266C644.338 649.816 641.955 648.342 640.803 646.35C639.65 648.342 637.277 649.816 634.309 650.266L633.449 648.508C637.18 648.02 639.66 645.783 639.66 643.547V642.648H641.945V643.547ZM632.746 653.586V651.789H648.84V653.586H641.828V659.738H639.68V653.586H632.746Z" fill="#1C3575"/>
<rect width="160" height="48" transform="translate(743.5 627)" fill="#F5F5F5"/>
<path d="M785.169 658.195C782.406 658.176 779.652 656.535 779.662 651.32C779.662 646.486 781.859 643.664 785.326 643.664C788.05 643.664 789.925 645.373 790.247 647.668H787.728C787.474 646.584 786.615 645.861 785.326 645.871C783.275 645.861 782.132 647.678 782.122 650.656H782.259C782.982 649.436 784.339 648.713 785.892 648.723C788.431 648.713 790.394 650.637 790.384 653.312C790.394 656.125 788.294 658.215 785.169 658.195ZM782.396 653.391C782.415 654.865 783.568 656.135 785.169 656.145C786.742 656.135 787.913 654.924 787.923 653.371C787.913 651.867 786.781 650.656 785.208 650.656C783.617 650.656 782.415 651.916 782.396 653.391ZM794.173 658.156C793.333 658.156 792.64 657.473 792.65 656.633C792.64 655.812 793.333 655.139 794.173 655.129C794.984 655.139 795.677 655.812 795.677 656.633C795.677 657.473 794.984 658.156 794.173 658.156ZM819.336 642.082V659.738H817.266V650.734H815.273V658.84H813.281V642.414H815.273V648.996H817.266V642.082H819.336ZM804.688 655.617V644.172H811.289V645.93H806.875V653.781C808.789 653.762 810.371 653.664 812.168 653.332L812.324 655.109C810.186 655.539 808.34 655.598 805.879 655.617H804.688ZM835.836 642.941V644.309C835.846 645.686 835.846 647.248 835.406 649.328H837.809V651.086H821.676V649.328H833.209C833.629 647.414 833.668 645.969 833.668 644.68H823.668V642.941H835.836ZM823.609 659.523V653.137H835.816V659.523H823.609ZM825.738 657.766H833.668V654.836H825.738V657.766ZM853.996 642.082V652.57H851.828V648.254H848.82V646.477H851.828V642.082H853.996ZM839.152 650.812C841.994 649.836 843.488 647.463 843.488 645.129V644.992H839.816V643.234H849.348V644.992H845.695V645.109C845.695 647.258 847.121 649.426 849.855 650.344L848.762 652.062C846.799 651.398 845.412 650.051 844.631 648.391C843.859 650.266 842.385 651.789 840.285 652.531L839.152 650.812ZM842.023 656.379C842.004 654.26 844.299 653.02 848.02 653.02C851.76 653.02 854.045 654.26 854.055 656.379C854.045 658.498 851.76 659.729 848.02 659.738C844.299 659.729 842.004 658.498 842.023 656.379ZM844.172 656.379C844.162 657.473 845.568 658.068 848.02 658.059C850.49 658.068 851.887 657.473 851.887 656.379C851.887 655.275 850.49 654.68 848.02 654.68C845.568 654.68 844.162 655.275 844.172 656.379ZM863.074 645.207C863.055 647.521 864.52 649.738 867.293 650.637L866.16 652.355C864.207 651.691 862.811 650.363 862.039 648.664C861.258 650.539 859.803 652.004 857.742 652.727L856.531 651.008C859.432 650.061 860.887 647.697 860.887 645.188V643.176H863.074V645.207ZM859.363 659.387V653.781H861.59V657.629H871.375V659.387H859.363ZM868.504 655.051V642.082H870.672V647.297H873.133V649.133H870.672V655.051H868.504Z" fill="#1C3575"/>
<rect width="160" height="48" transform="translate(634.5 335)" fill="#F5F5F5"/>
<path d="M676.111 366.195C673.288 366.195 671.208 364.506 671.13 362.172H673.611C673.689 363.314 674.773 364.135 676.111 364.145C677.693 364.135 678.835 362.992 678.826 361.43C678.835 359.809 677.663 358.666 676.033 358.656C674.929 358.646 674.128 359.037 673.689 359.867H671.326L672.185 351.859H680.544V353.988H674.275L673.845 357.738H673.982C674.529 357.123 675.554 356.674 676.716 356.664C679.343 356.674 681.296 358.627 681.287 361.352C681.296 364.174 679.167 366.195 676.111 366.195ZM685.173 366.156C684.333 366.156 683.64 365.473 683.65 364.633C683.64 363.812 684.333 363.139 685.173 363.129C685.984 363.139 686.677 363.812 686.677 364.633C686.677 365.473 685.984 366.156 685.173 366.156ZM710.336 350.082V367.738H708.266V358.734H706.273V366.84H704.281V350.414H706.273V356.996H708.266V350.082H710.336ZM695.688 363.617V352.172H702.289V353.93H697.875V361.781C699.789 361.762 701.371 361.664 703.168 361.332L703.324 363.109C701.186 363.539 699.34 363.598 696.879 363.617H695.688ZM726.836 350.941V352.309C726.846 353.686 726.846 355.248 726.406 357.328H728.809V359.086H712.676V357.328H724.209C724.629 355.414 724.668 353.969 724.668 352.68H714.668V350.941H726.836ZM714.609 367.523V361.137H726.816V367.523H714.609ZM716.738 365.766H724.668V362.836H716.738V365.766ZM736.871 355.102C736.871 357.992 738.57 361.039 741.422 362.23L740.23 363.949C738.141 363.041 736.617 361.195 735.807 358.949C734.996 361.371 733.443 363.402 731.383 364.379L730.133 362.68C732.916 361.391 734.654 358.1 734.664 355.102V353.617H730.777V351.82H740.738V353.617H736.871V355.102ZM742.711 367.738V350.082H744.898V367.738H742.711ZM751.867 360.141V362.172H759.699V360.141H761.848V367.523H749.738V360.141H751.867ZM747.746 358.832V357.094H759.328C759.699 355.229 759.738 353.822 759.738 352.582H749.738V350.844H761.906V352.211C761.916 353.559 761.916 355.023 761.477 357.094H763.879V358.832H747.746ZM751.867 365.766H759.699V363.852H751.867V365.766Z" fill="#1C3575"/>
</svg>
