<svg width="1029" height="626" viewBox="0 0 1029 626" fill="none" xmlns="http://www.w3.org/2000/svg">
<g clip-path="url(#clip0_618_1707)">
<path d="M107.8 15.6V10.8H109V3.6H105.4V0H40.6V3.6H37V10.8H38.2V15.6V17.4V58.8H37V72H58.6H61H85H87.4H109V58.8H107.8V17.4V15.6ZM105.4 15.6V17.4C105.4 19.0548 104.055 20.4 102.4 20.4C100.745 20.4 99.4 19.0548 99.4 17.4V10.8H105.4V15.6ZM97 17.4C97 19.0548 95.6548 20.4 94 20.4C92.3452 20.4 91 19.0548 91 17.4V10.8H97V17.4ZM88.6 17.4C88.6 18.8184 87.61 20.0016 86.2852 20.3136L85.9804 20.3592C85.8556 20.376 85.7296 20.4 85.6 20.4C83.9452 20.4 82.6 19.0548 82.6 17.4V10.8H88.6V17.4ZM59.9752 20.352L59.7112 20.3124C58.3888 20.0004 57.4 18.8172 57.4 17.4V10.8H63.4V17.4C63.4 19.0548 62.0548 20.4 60.4 20.4C60.2704 20.4 60.1444 20.376 59.9752 20.352ZM55 17.4C55 19.0548 53.6548 20.4 52 20.4C50.3452 20.4 49 19.0548 49 17.4V10.8H55V17.4ZM80.2 17.4C80.2 19.0548 78.8548 20.4 77.2 20.4C75.5452 20.4 74.2 19.0548 74.2 17.4V10.8H80.2V17.4ZM71.8 17.4C71.8 19.0548 70.4548 20.4 68.8 20.4C67.1452 20.4 65.8 19.0548 65.8 17.4V10.8H71.8V17.4ZM65.8 21.8856C65.8084 21.8916 65.8192 21.8952 65.8276 21.9012C66.0796 22.068 66.3484 22.212 66.628 22.3356C66.6784 22.3584 66.7288 22.3788 66.7804 22.4004C67.0648 22.5156 67.3588 22.6104 67.666 22.6752C67.7116 22.6848 67.7572 22.6908 67.8028 22.6992C68.1268 22.7604 68.458 22.8 68.8 22.8C69.142 22.8 69.4732 22.7604 69.7984 22.6992C69.844 22.6908 69.8896 22.6848 69.9352 22.6752C70.2412 22.6092 70.5352 22.5156 70.8208 22.4004C70.8724 22.38 70.9228 22.3584 70.9732 22.3356C71.2528 22.212 71.5204 22.068 71.7736 21.9012C71.812 21.876 71.848 21.8472 71.8864 21.8208C72.1444 21.6396 72.3916 21.4428 72.6136 21.2208C72.6196 21.2148 72.6256 21.2076 72.6316 21.2004C72.7612 21.0696 72.886 20.934 73.0012 20.79C73.1176 20.934 73.2412 21.0696 73.3708 21.2004C73.3768 21.2064 73.3828 21.2136 73.3888 21.2208C73.6108 21.4428 73.858 21.6396 74.116 21.8208C74.1532 21.8472 74.1892 21.8748 74.2288 21.9012C74.4808 22.068 74.7496 22.212 75.0292 22.3356C75.0796 22.3584 75.13 22.3788 75.1816 22.4004C75.466 22.5156 75.76 22.6104 76.0672 22.6752C76.1128 22.6848 76.1584 22.6908 76.204 22.6992C76.5268 22.7604 76.858 22.8 77.2 22.8C77.542 22.8 77.8732 22.7604 78.1984 22.6992C78.244 22.6908 78.2896 22.6848 78.3352 22.6752C78.6412 22.6092 78.9352 22.5156 79.2208 22.4004C79.2724 22.38 79.3228 22.3584 79.3732 22.3356C79.6528 22.212 79.9204 22.068 80.1736 21.9012C80.182 21.8952 80.1928 21.8916 80.2012 21.8856V39.6H65.8V21.8856ZM43 2.4H103V3.6H43V2.4ZM39.4 6H40.6H105.4H106.6V8.4H99.4H97H91H88.6H82.6H80.2H74.2H71.8H65.8H63.4H57.4H55H49H46.6H39.4V6ZM46.6 10.8V17.4C46.6 19.0548 45.2548 20.4 43.6 20.4C41.9452 20.4 40.6 19.0548 40.6 17.4V15.6V10.8H46.6ZM40.6 21.8856C41.4592 22.4616 42.49 22.8 43.6 22.8C45.3052 22.8 46.81 21.99 47.8 20.7528C48.79 21.99 50.2948 22.8 52 22.8C53.7052 22.8 55.21 21.99 56.2 20.7528C56.8216 21.5304 57.6448 22.128 58.6 22.4688V58.8H40.6V21.8856ZM53.8 69.6C54.4636 69.6 55 69.0636 55 68.4C55 67.7364 54.4636 67.2 53.8 67.2H52.6C51.9364 67.2 51.4 67.7364 51.4 68.4C51.4 69.0636 51.9364 69.6 52.6 69.6H49C49.6636 69.6 50.2 69.0636 50.2 68.4C50.2 67.7364 49.6636 67.2 49 67.2H47.8C47.1364 67.2 46.6 67.7364 46.6 68.4C46.6 69.0636 47.1364 69.6 47.8 69.6H44.2C44.8636 69.6 45.4 69.0636 45.4 68.4C45.4 67.7364 44.8636 67.2 44.2 67.2H43C42.3364 67.2 41.8 67.7364 41.8 68.4C41.8 69.0636 42.3364 69.6 43 69.6H39.4C40.0636 69.6 40.6 69.0636 40.6 68.4C40.6 67.7364 40.0636 67.2 39.4 67.2V66H40.6C41.2636 66 41.8 65.4636 41.8 64.8C41.8 64.1364 41.2636 63.6 40.6 63.6H39.4V61.2H40.6C40.6 61.8636 41.1364 62.4 41.8 62.4H43C43.6636 62.4 44.2 61.8636 44.2 61.2H45.4C45.4 61.8636 45.9364 62.4 46.6 62.4H47.8C48.4636 62.4 49 61.8636 49 61.2H50.2C50.2 61.8636 50.7364 62.4 51.4 62.4H52.6C53.2636 62.4 53.8 61.8636 53.8 61.2H55C55 61.8636 55.5364 62.4 56.2 62.4H57.4C58.0636 62.4 58.6 61.8636 58.6 61.2V63.6C57.9364 63.6 57.4 64.1364 57.4 64.8C57.4 65.4636 57.9364 66 58.6 66V67.2H57.4C56.7364 67.2 56.2 67.7364 56.2 68.4C56.2 69.0636 56.7364 69.6 57.4 69.6H53.8ZM85 69.6H61V58.8V22.7676C61.0852 22.758 61.162 22.728 61.246 22.7148C61.4248 22.686 61.5976 22.6476 61.7716 22.602C61.942 22.5564 62.1088 22.5072 62.2732 22.446C62.44 22.3836 62.6008 22.3128 62.7604 22.2348C62.9152 22.1592 63.0652 22.08 63.2104 21.99C63.2716 21.9516 63.3412 21.9264 63.4012 21.8856V42H82.6012V21.8856C82.6612 21.9264 82.7308 21.9516 82.792 21.99C82.9384 22.08 83.0884 22.1592 83.242 22.2348C83.4016 22.3128 83.5612 22.3836 83.7292 22.446C83.8924 22.5072 84.0592 22.5564 84.2308 22.602C84.4036 22.6476 84.5764 22.686 84.7564 22.7148C84.8404 22.728 84.9172 22.758 85.0024 22.7676V58.8V69.6H85ZM101.8 69.6C102.464 69.6 103 69.0636 103 68.4C103 67.7364 102.464 67.2 101.8 67.2H100.6C99.9364 67.2 99.4 67.7364 99.4 68.4C99.4 69.0636 99.9364 69.6 100.6 69.6H97C97.6636 69.6 98.2 69.0636 98.2 68.4C98.2 67.7364 97.6636 67.2 97 67.2H95.8C95.1364 67.2 94.6 67.7364 94.6 68.4C94.6 69.0636 95.1364 69.6 95.8 69.6H92.2C92.8636 69.6 93.4 69.0636 93.4 68.4C93.4 67.7364 92.8636 67.2 92.2 67.2H91C90.3364 67.2 89.8 67.7364 89.8 68.4C89.8 69.0636 90.3364 69.6 91 69.6H87.4C88.0636 69.6 88.6 69.0636 88.6 68.4C88.6 67.7364 88.0636 67.2 87.4 67.2V66H88.6C89.2636 66 89.8 65.4636 89.8 64.8C89.8 64.1364 89.2636 63.6 88.6 63.6H87.4V61.2H88.6C88.6 61.8636 89.1364 62.4 89.8 62.4H91C91.6636 62.4 92.2 61.8636 92.2 61.2H93.4C93.4 61.8636 93.9364 62.4 94.6 62.4H95.8C96.4636 62.4 97 61.8636 97 61.2H98.2C98.2 61.8636 98.7364 62.4 99.4 62.4H100.6C101.264 62.4 101.8 61.8636 101.8 61.2H103C103 61.8636 103.536 62.4 104.2 62.4H105.4C106.064 62.4 106.6 61.8636 106.6 61.2V63.6C105.936 63.6 105.4 64.1364 105.4 64.8C105.4 65.4636 105.936 66 106.6 66V67.2H105.4C104.736 67.2 104.2 67.7364 104.2 68.4C104.2 69.0636 104.736 69.6 105.4 69.6H101.8ZM87.4 58.8V22.4688C88.3552 22.128 89.1784 21.5304 89.8 20.7528C90.79 21.99 92.2948 22.8 94 22.8C95.7052 22.8 97.21 21.99 98.2 20.7528C99.19 21.99 100.695 22.8 102.4 22.8C103.51 22.8 104.541 22.4616 105.4 21.8856V58.8H87.4Z" fill="#333333"/>
<path d="M63.3999 67.1996H82.5999V45.5996H63.3999V67.1996ZM65.7999 47.9996H80.1999V64.7996H65.7999V47.9996Z" fill="#333333"/>
<path d="M45.4 63.5996H44.2C43.5364 63.5996 43 64.136 43 64.7996C43 65.4632 43.5364 65.9996 44.2 65.9996H45.4C46.0636 65.9996 46.6 65.4632 46.6 64.7996C46.6 64.136 46.0636 63.5996 45.4 63.5996Z" fill="#333333"/>
<path d="M55.0001 63.5996H53.8001C53.1365 63.5996 52.6001 64.136 52.6001 64.7996C52.6001 65.4632 53.1365 65.9996 53.8001 65.9996H55.0001C55.6637 65.9996 56.2001 65.4632 56.2001 64.7996C56.2001 64.136 55.6637 63.5996 55.0001 63.5996Z" fill="#333333"/>
<path d="M50.1998 63.5996H48.9998C48.3362 63.5996 47.7998 64.136 47.7998 64.7996C47.7998 65.4632 48.3362 65.9996 48.9998 65.9996H50.1998C50.8634 65.9996 51.3998 65.4632 51.3998 64.7996C51.3998 64.136 50.8634 63.5996 50.1998 63.5996Z" fill="#333333"/>
<path d="M93.4 63.5996H92.2C91.5364 63.5996 91 64.136 91 64.7996C91 65.4632 91.5364 65.9996 92.2 65.9996H93.4C94.0636 65.9996 94.6 65.4632 94.6 64.7996C94.6 64.136 94.0636 63.5996 93.4 63.5996Z" fill="#333333"/>
<path d="M103 63.5996H101.8C101.136 63.5996 100.6 64.136 100.6 64.7996C100.6 65.4632 101.136 65.9996 101.8 65.9996H103C103.664 65.9996 104.2 65.4632 104.2 64.7996C104.2 64.136 103.664 63.5996 103 63.5996Z" fill="#333333"/>
<path d="M98.1998 63.5996H96.9998C96.3362 63.5996 95.7998 64.136 95.7998 64.7996C95.7998 65.4632 96.3362 65.9996 96.9998 65.9996H98.1998C98.8634 65.9996 99.3998 65.4632 99.3998 64.7996C99.3998 64.136 98.8634 63.5996 98.1998 63.5996Z" fill="#333333"/>
<path d="M43.0001 32.3995C43.3073 32.3995 43.6145 32.2819 43.8485 32.0479L48.6485 27.2479C49.1177 26.7787 49.1177 26.0203 48.6485 25.5511C48.1793 25.0819 47.4209 25.0819 46.9517 25.5511L42.1517 30.3511C41.6825 30.8203 41.6825 31.5787 42.1517 32.0479C42.3857 32.2819 42.6929 32.3995 43.0001 32.3995Z" fill="#333333"/>
<path d="M43.0001 38.3999C43.3073 38.3999 43.6145 38.2823 43.8485 38.0483L46.2485 35.6483C46.7177 35.1791 46.7177 34.4207 46.2485 33.9515C45.7793 33.4823 45.0209 33.4823 44.5517 33.9515L42.1517 36.3515C41.6825 36.8207 41.6825 37.5791 42.1517 38.0483C42.3857 38.2823 42.6929 38.3999 43.0001 38.3999Z" fill="#333333"/>
<path d="M46.9481 31.5478C46.7309 31.7746 46.6001 32.0878 46.6001 32.3998C46.6001 32.7238 46.7309 33.0238 46.9481 33.2518C47.1749 33.4678 47.4881 33.5998 47.8001 33.5998C48.1241 33.5998 48.4241 33.4678 48.6521 33.2518C48.8681 33.0238 49.0001 32.7238 49.0001 32.3998C49.0001 32.0878 48.8681 31.7746 48.6521 31.5478C48.2081 31.1038 47.4041 31.1038 46.9481 31.5478Z" fill="#333333"/>
<path d="M49.3514 30.8479C49.5854 31.0819 49.8926 31.1995 50.1998 31.1995C50.507 31.1995 50.8142 31.0819 51.0482 30.8479L54.6482 27.2479C55.1174 26.7787 55.1174 26.0203 54.6482 25.5511C54.179 25.0819 53.4206 25.0819 52.9514 25.5511L49.3514 29.1511C48.8822 29.6203 48.8822 30.3787 49.3514 30.8479Z" fill="#333333"/>
<path d="M52.9517 31.5511L42.1517 42.3511C41.6825 42.8203 41.6825 43.5787 42.1517 44.0479C42.3857 44.2819 42.6929 44.3995 43.0001 44.3995C43.3073 44.3995 43.6145 44.2819 43.8485 44.0479L54.6485 33.2479C55.1177 32.7787 55.1177 32.0203 54.6485 31.5511C54.1793 31.0819 53.4209 31.0819 52.9517 31.5511Z" fill="#333333"/>
<path d="M57.052 29.1484C56.608 28.7044 55.7788 28.7044 55.348 29.1484C55.1308 29.3752 55 29.6752 55 30.0004C55 30.3244 55.1308 30.6244 55.348 30.8524C55.5748 31.0684 55.8748 31.2004 56.2 31.2004C56.524 31.2004 56.824 31.0684 57.052 30.8524C57.268 30.6244 57.4 30.3244 57.4 30.0004C57.4 29.6752 57.268 29.3752 57.052 29.1484Z" fill="#333333"/>
<path d="M89.7999 32.3995C90.1071 32.3995 90.4143 32.2819 90.6483 32.0479L95.4483 27.2479C95.9175 26.7787 95.9175 26.0203 95.4483 25.5511C94.9791 25.0819 94.2207 25.0819 93.7515 25.5511L88.9515 30.3511C88.4823 30.8203 88.4823 31.5787 88.9515 32.0479C89.1855 32.2819 89.4927 32.3995 89.7999 32.3995Z" fill="#333333"/>
<path d="M89.7999 38.3999C90.1071 38.3999 90.4143 38.2823 90.6483 38.0483L93.0483 35.6483C93.5175 35.1791 93.5175 34.4207 93.0483 33.9515C92.5791 33.4823 91.8207 33.4823 91.3515 33.9515L88.9515 36.3515C88.4823 36.8207 88.4823 37.5791 88.9515 38.0483C89.1855 38.2823 89.4927 38.3999 89.7999 38.3999Z" fill="#333333"/>
<path d="M93.7479 31.5478C93.5307 31.7746 93.3999 32.0878 93.3999 32.3998C93.3999 32.7118 93.5307 33.0238 93.7479 33.2518C93.9747 33.4678 94.2747 33.5998 94.5999 33.5998C94.9119 33.5998 95.2239 33.4678 95.4519 33.2518C95.6679 33.0238 95.7999 32.7118 95.7999 32.3998C95.7999 32.0878 95.6679 31.7746 95.4519 31.5478C94.9959 31.1038 94.1919 31.1038 93.7479 31.5478Z" fill="#333333"/>
<path d="M96.1517 30.8479C96.3857 31.0819 96.6929 31.1995 97.0001 31.1995C97.3073 31.1995 97.6145 31.0819 97.8485 30.8479L101.449 27.2479C101.918 26.7787 101.918 26.0203 101.449 25.5511C100.979 25.0819 100.221 25.0819 99.7517 25.5511L96.1517 29.1511C95.6825 29.6203 95.6825 30.3787 96.1517 30.8479Z" fill="#333333"/>
<path d="M99.7515 31.5511L88.9515 42.3511C88.4823 42.8203 88.4823 43.5787 88.9515 44.0479C89.1855 44.2819 89.4927 44.3995 89.7999 44.3995C90.1071 44.3995 90.4143 44.2819 90.6483 44.0479L101.448 33.2479C101.918 32.7787 101.918 32.0203 101.448 31.5511C100.979 31.0819 100.221 31.0819 99.7515 31.5511Z" fill="#333333"/>
<path d="M103.852 29.1484C103.408 28.7044 102.592 28.7044 102.148 29.1484C101.931 29.3752 101.8 29.6752 101.8 30.0004C101.8 30.3244 101.931 30.6244 102.148 30.8524C102.375 31.0684 102.688 31.2004 103 31.2004C103.312 31.2004 103.624 31.0684 103.852 30.8524C104.068 30.6244 104.2 30.3124 104.2 30.0004C104.2 29.6884 104.068 29.3752 103.852 29.1484Z" fill="#333333"/>
</g>
<path d="M245.816 591.359C246.322 590.776 246.926 590.479 247.629 590.469C247.895 590.474 248.158 590.516 248.418 590.594C248.678 590.667 248.993 590.779 249.363 590.93C249.749 591.081 250.061 591.193 250.301 591.266C250.54 591.339 250.785 591.375 251.035 591.375C251.754 591.365 252.348 591.036 252.816 590.391V591.688C252.296 592.281 251.691 592.578 251.004 592.578C250.733 592.578 250.465 592.539 250.199 592.461C249.934 592.383 249.618 592.268 249.254 592.117C248.863 591.966 248.548 591.854 248.309 591.781C248.074 591.708 247.832 591.672 247.582 591.672C246.879 591.682 246.29 592.01 245.816 592.656V591.359Z" fill="#555555"/>
<path d="M148.818 22C137.773 22 128.818 30.9543 128.818 42C128.818 53.0457 137.773 62 148.818 62V22ZM279.364 500.809L283.48 481.237L281.444 480.809H279.364V500.809ZM280.273 501L276.157 520.572L278.192 521H280.273V501ZM148.818 62H662.591V22H148.818V62ZM662.591 22H662.137V62H662.591V22ZM662.137 62C727.115 62 766 105.104 766 156.702H806C806 81.6085 747.776 22 662.137 22V62ZM766 156.702C766 208.301 727.115 251.404 662.137 251.404V291.404C747.776 291.404 806 231.796 806 156.702H766ZM662.137 291.404H662.591V251.404H662.137V291.404ZM662.591 251.404H279.364V291.404H662.591V251.404ZM279.364 251.404C236.982 251.404 201.697 265.964 176.979 290.929C152.357 315.797 139.5 349.701 139.5 386.107H179.5C179.5 359.166 188.921 335.719 205.403 319.072C221.789 302.523 246.436 291.404 279.364 291.404V251.404ZM139.5 386.107C139.5 422.512 152.357 456.417 176.979 481.284C201.697 506.249 236.982 520.809 279.364 520.809V480.809C246.436 480.809 221.789 469.69 205.403 453.141C188.921 436.494 179.5 413.047 179.5 386.107H139.5ZM275.247 520.381L276.157 520.572L284.389 481.428L283.48 481.237L275.247 520.381ZM280.273 521H962V481H280.273V521Z" fill="url(#paint0_linear_618_1707)"/>
<path d="M151 42H662.591H662.137C737.446 42 786 93.356 786 156.702C786 220.048 737.446 271.404 662.137 271.404H662.591H279.364C204.055 271.404 159.5 322.76 159.5 386.107C159.5 449.453 204.055 500.809 279.364 500.809L280.273 501H962" stroke="white" stroke-width="2" stroke-miterlimit="10" stroke-dasharray="4 4"/>
<path d="M988.768 502.768C989.744 501.791 989.744 500.209 988.768 499.232L972.858 483.322C971.882 482.346 970.299 482.346 969.322 483.322C968.346 484.299 968.346 485.882 969.322 486.858L983.464 501L969.322 515.142C968.346 516.118 968.346 517.701 969.322 518.678C970.299 519.654 971.882 519.654 972.858 518.678L988.768 502.768ZM986 503.5H987V498.5H986V503.5Z" fill="#3258B9"/>
<path d="M1001.77 502.768C1002.74 501.791 1002.74 500.209 1001.77 499.232L985.858 483.322C984.882 482.346 983.299 482.346 982.322 483.322C981.346 484.299 981.346 485.882 982.322 486.858L996.464 501L982.322 515.142C981.346 516.118 981.346 517.701 982.322 518.678C983.299 519.654 984.882 519.654 985.858 518.678L1001.77 502.768ZM999 503.5H1000V498.5H999V503.5Z" fill="#2F5BC1"/>
<path d="M1014.77 502.768C1015.74 501.791 1015.74 500.209 1014.77 499.232L998.858 483.322C997.882 482.346 996.299 482.346 995.322 483.322C994.346 484.299 994.346 485.882 995.322 486.858L1009.46 501L995.322 515.142C994.346 516.118 994.346 517.701 995.322 518.678C996.299 519.654 997.882 519.654 998.858 518.678L1014.77 502.768ZM1012 503.5H1013V498.5H1012V503.5Z" fill="#22469A"/>
<path d="M1027.77 502.768C1028.74 501.791 1028.74 500.209 1027.77 499.232L1011.86 483.322C1010.88 482.346 1009.3 482.346 1008.32 483.322C1007.35 484.299 1007.35 485.882 1008.32 486.858L1022.46 501L1008.32 515.142C1007.35 516.118 1007.35 517.701 1008.32 518.678C1009.3 519.654 1010.88 519.654 1011.86 518.678L1027.77 502.768ZM1025 503.5H1026V498.5H1025V503.5Z" fill="#1C3575"/>
<circle cx="501" cy="42" r="10" fill="white"/>
<circle cx="501" cy="42" r="6" fill="#959292"/>
<path d="M501 52V80" stroke="#333333" stroke-width="2" stroke-dasharray="4 4"/>
<circle cx="786" cy="158" r="10" transform="rotate(-90 786 158)" fill="white"/>
<circle cx="786" cy="158" r="6" transform="rotate(-90 786 158)" fill="#959292"/>
<path d="M796 158L824 158" stroke="#333333" stroke-width="2" stroke-dasharray="4 4"/>
<path d="M504 92.0312V109H499.992V95.7812H499.898L496.078 98.125V94.6562L500.273 92.0312H504ZM513.441 91.7969C517.132 91.8086 520.484 94.0117 520.496 100.141C520.507 105.824 517.683 109.234 513.347 109.234C509.761 109.234 507.347 106.984 507.019 104.078H510.98C511.226 105.215 512.14 105.824 513.347 105.812C515.48 105.824 516.546 103.855 516.558 100.727H516.441C515.703 102.238 513.992 103.152 512.082 103.141C509.023 103.152 506.855 100.879 506.855 97.75C506.832 94.2461 509.503 91.7852 513.441 91.7969ZM510.722 97.6094C510.746 99.1562 511.859 100.34 513.441 100.352C515 100.34 516.195 99.1211 516.183 97.6094C516.171 96.0977 515.023 94.8789 513.464 94.8672C511.871 94.8789 510.711 96.0742 510.722 97.6094ZM528.671 109.234C524.675 109.234 521.792 107.172 521.804 104.406C521.792 102.297 523.48 100.586 525.624 100.258V100.141C523.749 99.7891 522.437 98.2539 522.437 96.3906C522.437 93.7305 525.073 91.7969 528.671 91.7969C532.245 91.7969 534.882 93.7422 534.882 96.3906C534.882 98.2656 533.534 99.7891 531.694 100.141V100.258C533.804 100.586 535.515 102.297 535.515 104.406C535.515 107.172 532.632 109.234 528.671 109.234ZM525.999 103.984C525.987 105.32 527.077 106.27 528.671 106.281C530.241 106.27 531.319 105.32 531.319 103.984C531.319 102.648 530.194 101.664 528.671 101.664C527.112 101.664 525.987 102.637 525.999 103.984ZM526.351 96.8125C526.339 98.043 527.312 98.9219 528.671 98.9219C530.007 98.9219 530.98 98.043 530.968 96.8125C530.98 95.6055 530.019 94.75 528.671 94.75C527.3 94.75 526.339 95.6055 526.351 96.8125ZM543.878 109.234C540.175 109.223 536.8 107.02 536.8 100.82C536.823 95.1953 539.635 91.7969 543.971 91.7969C547.534 91.7969 549.948 94.0586 550.276 96.9062H546.339C546.081 95.8047 545.167 95.207 543.971 95.2188C541.827 95.207 540.76 97.1758 540.76 100.258H540.878C541.604 98.7227 543.315 97.8203 545.214 97.8203C548.284 97.8203 550.475 100.105 550.464 103.258C550.475 106.797 547.792 109.234 543.878 109.234ZM541.135 103.398C541.135 104.934 542.284 106.152 543.854 106.141C545.436 106.152 546.596 104.957 546.573 103.375C546.596 101.816 545.448 100.633 543.878 100.633C542.307 100.633 541.135 101.84 541.135 103.398ZM553.647 109.234C552.487 109.234 551.514 108.285 551.537 107.102C551.514 105.953 552.487 105.016 553.647 105.016C554.772 105.016 555.768 105.953 555.78 107.102C555.768 108.285 554.772 109.234 553.647 109.234ZM568.333 109.234C563.927 109.234 561.232 106.082 561.232 100.516C561.232 94.9492 563.927 91.7969 568.333 91.7969C572.74 91.7969 575.447 94.9727 575.435 100.516C575.447 106.094 572.74 109.234 568.333 109.234ZM565.333 100.516C565.322 104.277 566.529 105.977 568.333 105.977C570.138 105.977 571.345 104.277 571.333 100.516C571.333 96.8125 570.138 95.043 568.333 95.0312C566.541 95.043 565.345 96.8125 565.333 100.516ZM583.868 109.234C580.165 109.223 576.79 107.02 576.79 100.82C576.814 95.1953 579.626 91.7969 583.962 91.7969C587.524 91.7969 589.939 94.0586 590.267 96.9062H586.329C586.071 95.8047 585.157 95.207 583.962 95.2188C581.817 95.207 580.751 97.1758 580.751 100.258H580.868C581.595 98.7227 583.306 97.8203 585.204 97.8203C588.274 97.8203 590.466 100.105 590.454 103.258C590.466 106.797 587.782 109.234 583.868 109.234ZM581.126 103.398C581.126 104.934 582.274 106.152 583.845 106.141C585.427 106.152 586.587 104.957 586.564 103.375C586.587 101.816 585.439 100.633 583.868 100.633C582.298 100.633 581.126 101.84 581.126 103.398ZM593.637 109.234C592.477 109.234 591.505 108.285 591.528 107.102C591.505 105.953 592.477 105.016 593.637 105.016C594.762 105.016 595.758 105.953 595.77 107.102C595.758 108.285 594.762 109.234 593.637 109.234Z" fill="#2F5BC1"/>
<path d="M506.422 123.328V128.906H508.594V130.141H506.422V137.312H504.938V123.328H506.422ZM495.531 133.578C499.039 131.828 500.945 129.297 501.25 126.031H496.234V124.797H502.766C502.75 128.844 500.969 132.461 496.359 134.734L495.531 133.578ZM515.597 124.156V128.156H510.722V129.953C513.152 129.938 514.871 129.859 516.91 129.516L517.066 130.719C514.902 131.086 513.05 131.18 510.363 131.172H509.238V127H514.144V125.359H509.222V124.156H515.597ZM510.41 133.75V132.547H519.66V137.312H518.175V133.75H510.41ZM518.175 131.844V123.344H519.66V126.844H521.707V128.078H519.66V131.844H518.175ZM526.944 126.891C526.929 129.445 528.476 132.023 530.648 132.984L529.757 134.156C528.148 133.391 526.874 131.82 526.218 129.906C525.569 131.961 524.28 133.648 522.601 134.469L521.694 133.219C523.898 132.242 525.444 129.562 525.444 126.891V124.5H526.944V126.891ZM531.913 137.359V123.328H533.398V137.359H531.913ZM539.839 125.906C539.831 127.688 541.073 129.312 543.198 129.984L542.495 131.141C540.901 130.633 539.737 129.578 539.12 128.25C538.51 129.781 537.284 130.992 535.604 131.578L534.839 130.391C537.026 129.672 538.346 127.867 538.354 125.922V125.531H535.276V124.328H542.854V125.531H539.839V125.906ZM536.729 134.672C536.729 133.031 538.518 132.07 541.432 132.078C544.315 132.07 546.073 133.031 546.073 134.672C546.073 136.336 544.315 137.305 541.432 137.297C538.518 137.305 536.729 136.336 536.729 134.672ZM538.214 134.672C538.206 135.609 539.409 136.133 541.432 136.125C543.44 136.133 544.628 135.609 544.62 134.672C544.628 133.758 543.44 133.242 541.432 133.25C539.409 133.242 538.206 133.758 538.214 134.672ZM544.464 131.734V123.328H545.948V126.797H547.979V128.016H545.948V131.734H544.464ZM556.502 125.844C556.502 127.641 557.838 129.367 560.002 130.047L559.236 131.203C557.627 130.672 556.408 129.57 555.775 128.164C555.143 129.68 553.9 130.883 552.236 131.469L551.471 130.328C553.65 129.57 554.994 127.742 555.002 125.844V125.453H551.861V124.25H559.58V125.453H556.502V125.844ZM553.439 133.688V132.484H562.924V137.328H561.439V133.688H553.439ZM561.439 131.781V123.328H562.924V131.781H561.439ZM572.412 124.594V125.797H571.083V130.188C571.748 130.141 572.396 130.078 573.021 130L573.115 131.109C570.294 131.555 567.029 131.617 564.63 131.625L564.458 130.406C564.998 130.406 565.576 130.398 566.177 130.391V125.797H564.849V124.594H572.412ZM566.583 137.031V132.656H568.068V135.828H576.052V137.031H566.583ZM567.615 130.359C568.279 130.336 568.951 130.312 569.63 130.281V125.797H567.615V130.359ZM573.974 133.641V123.344H575.458V127.484H577.49V128.734H575.458V133.641H573.974ZM582.743 126.891C582.728 129.445 584.274 132.023 586.446 132.984L585.556 134.156C583.946 133.391 582.673 131.82 582.017 129.906C581.368 131.961 580.079 133.648 578.399 134.469L577.493 133.219C579.696 132.242 581.243 129.562 581.243 126.891V124.5H582.743V126.891ZM587.712 137.359V123.328H589.196V137.359H587.712ZM595.637 125.906C595.63 127.688 596.872 129.312 598.997 129.984L598.294 131.141C596.7 130.633 595.536 129.578 594.919 128.25C594.309 129.781 593.083 130.992 591.403 131.578L590.637 130.391C592.825 129.672 594.145 127.867 594.153 125.922V125.531H591.075V124.328H598.653V125.531H595.637V125.906ZM592.528 134.672C592.528 133.031 594.317 132.07 597.231 132.078C600.114 132.07 601.872 133.031 601.872 134.672C601.872 136.336 600.114 137.305 597.231 137.297C594.317 137.305 592.528 136.336 592.528 134.672ZM594.012 134.672C594.005 135.609 595.208 136.133 597.231 136.125C599.239 136.133 600.426 135.609 600.419 134.672C600.426 133.758 599.239 133.242 597.231 133.25C595.208 133.242 594.005 133.758 594.012 134.672ZM600.262 131.734V123.328H601.747V126.797H603.778V128.016H601.747V131.734H600.262ZM619.098 123.328V137.328H617.676V130.062H615.941V136.656H614.551V123.703H615.941V128.859H617.676V123.328H619.098ZM607.066 133.328C610.176 131.562 611.48 129.18 611.715 126.328H607.66V125.109H613.16C613.152 128.789 611.933 132.102 607.926 134.359L607.066 133.328ZM625.148 125.906C625.14 127.688 626.382 129.312 628.507 129.984L627.804 131.141C626.21 130.633 625.046 129.578 624.429 128.25C623.82 129.781 622.593 130.992 620.913 131.578L620.148 130.391C622.335 129.672 623.656 127.867 623.663 125.922V125.531H620.585V124.328H628.163V125.531H625.148V125.906ZM622.038 134.672C622.038 133.031 623.828 132.07 626.742 132.078C629.624 132.07 631.382 133.031 631.382 134.672C631.382 136.336 629.624 137.305 626.742 137.297C623.828 137.305 622.038 136.336 622.038 134.672ZM623.523 134.672C623.515 135.609 624.718 136.133 626.742 136.125C628.749 136.133 629.937 135.609 629.929 134.672C629.937 133.758 628.749 133.242 626.742 133.25C624.718 133.242 623.515 133.758 623.523 134.672ZM629.773 131.734V123.328H631.257V126.797H633.288V128.016H631.257V131.734H629.773Z" fill="black"/>
<circle cx="427" cy="270" r="10" fill="white"/>
<circle cx="427" cy="270" r="6" fill="#959292"/>
<path d="M427 280V308" stroke="#333333" stroke-width="2" stroke-dasharray="4 4"/>
<circle cx="674" cy="270" r="10" fill="white"/>
<circle cx="674" cy="270" r="6" fill="#959292"/>
<path d="M674 280V308" stroke="#333333" stroke-width="2" stroke-dasharray="4 4"/>
<path d="M847 152.031V169H842.992V155.781H842.898L839.078 158.125V154.656L843.273 152.031H847ZM856.441 151.797C860.132 151.809 863.484 154.012 863.496 160.141C863.507 165.824 860.683 169.234 856.347 169.234C852.761 169.234 850.347 166.984 850.019 164.078H853.98C854.226 165.215 855.14 165.824 856.347 165.812C858.48 165.824 859.546 163.855 859.558 160.727H859.441C858.703 162.238 856.992 163.152 855.082 163.141C852.023 163.152 849.855 160.879 849.855 157.75C849.832 154.246 852.503 151.785 856.441 151.797ZM853.722 157.609C853.746 159.156 854.859 160.34 856.441 160.352C858 160.34 859.195 159.121 859.183 157.609C859.171 156.098 858.023 154.879 856.464 154.867C854.871 154.879 853.711 156.074 853.722 157.609ZM871.671 169.234C867.675 169.234 864.792 167.172 864.804 164.406C864.792 162.297 866.48 160.586 868.624 160.258V160.141C866.749 159.789 865.437 158.254 865.437 156.391C865.437 153.73 868.073 151.797 871.671 151.797C875.245 151.797 877.882 153.742 877.882 156.391C877.882 158.266 876.534 159.789 874.694 160.141V160.258C876.804 160.586 878.515 162.297 878.515 164.406C878.515 167.172 875.632 169.234 871.671 169.234ZM868.999 163.984C868.987 165.32 870.077 166.27 871.671 166.281C873.241 166.27 874.319 165.32 874.319 163.984C874.319 162.648 873.194 161.664 871.671 161.664C870.112 161.664 868.987 162.637 868.999 163.984ZM869.351 156.812C869.339 158.043 870.312 158.922 871.671 158.922C873.007 158.922 873.98 158.043 873.968 156.812C873.98 155.605 873.019 154.75 871.671 154.75C870.3 154.75 869.339 155.605 869.351 156.812ZM886.714 169.234C882.718 169.234 879.835 167.172 879.846 164.406C879.835 162.297 881.522 160.586 883.667 160.258V160.141C881.792 159.789 880.479 158.254 880.479 156.391C880.479 153.73 883.116 151.797 886.714 151.797C890.288 151.797 892.925 153.742 892.925 156.391C892.925 158.266 891.577 159.789 889.737 160.141V160.258C891.846 160.586 893.557 162.297 893.557 164.406C893.557 167.172 890.675 169.234 886.714 169.234ZM884.042 163.984C884.03 165.32 885.12 166.27 886.714 166.281C888.284 166.27 889.362 165.32 889.362 163.984C889.362 162.648 888.237 161.664 886.714 161.664C885.155 161.664 884.03 162.637 884.042 163.984ZM884.393 156.812C884.382 158.043 885.354 158.922 886.714 158.922C888.05 158.922 889.022 158.043 889.01 156.812C889.022 155.605 888.061 154.75 886.714 154.75C885.343 154.75 884.382 155.605 884.393 156.812ZM896.881 169.234C895.721 169.234 894.748 168.285 894.772 167.102C894.748 165.953 895.721 165.016 896.881 165.016C898.006 165.016 899.002 165.953 899.014 167.102C899.002 168.285 898.006 169.234 896.881 169.234ZM911.568 169.234C907.162 169.234 904.466 166.082 904.466 160.516C904.466 154.949 907.162 151.797 911.568 151.797C915.974 151.797 918.681 154.973 918.669 160.516C918.681 166.094 915.974 169.234 911.568 169.234ZM908.568 160.516C908.556 164.277 909.763 165.977 911.568 165.977C913.373 165.977 914.58 164.277 914.568 160.516C914.568 156.812 913.373 155.043 911.568 155.031C909.775 155.043 908.58 156.812 908.568 160.516ZM926.939 169.234C922.942 169.234 920.06 167.172 920.071 164.406C920.06 162.297 921.747 160.586 923.892 160.258V160.141C922.017 159.789 920.704 158.254 920.704 156.391C920.704 153.73 923.341 151.797 926.939 151.797C930.513 151.797 933.149 153.742 933.149 156.391C933.149 158.266 931.802 159.789 929.962 160.141V160.258C932.071 160.586 933.782 162.297 933.782 164.406C933.782 167.172 930.899 169.234 926.939 169.234ZM924.267 163.984C924.255 165.32 925.345 166.27 926.939 166.281C928.509 166.27 929.587 165.32 929.587 163.984C929.587 162.648 928.462 161.664 926.939 161.664C925.38 161.664 924.255 162.637 924.267 163.984ZM924.618 156.812C924.607 158.043 925.579 158.922 926.939 158.922C928.274 158.922 929.247 158.043 929.235 156.812C929.247 155.605 928.286 154.75 926.939 154.75C925.567 154.75 924.607 155.605 924.618 156.812ZM937.106 169.234C935.946 169.234 934.973 168.285 934.997 167.102C934.973 165.953 935.946 165.016 937.106 165.016C938.231 165.016 939.227 165.953 939.239 167.102C939.227 168.285 938.231 169.234 937.106 169.234Z" fill="#2F5BC1"/>
<path d="M851.5 185.312V186.531H849.516V188.312H851.5V189.547H849.516V191.594H848.031V183.328H849.516V185.312H851.5ZM838.734 187.469C838.719 185.5 840.312 184.141 842.453 184.141C844.602 184.141 846.172 185.5 846.188 187.469C846.172 189.422 844.602 190.789 842.453 190.797C840.312 190.789 838.719 189.422 838.734 187.469ZM840.188 187.469C840.172 188.711 841.141 189.531 842.453 189.547C843.766 189.531 844.727 188.711 844.734 187.469C844.727 186.234 843.766 185.383 842.453 185.391C841.141 185.383 840.172 186.234 840.188 187.469ZM840.297 194.641C840.297 192.961 842.109 191.977 845 191.969C847.859 191.977 849.641 192.961 849.641 194.641C849.641 196.312 847.859 197.305 845 197.297C842.109 197.305 840.297 196.312 840.297 194.641ZM841.781 194.641C841.773 195.594 842.977 196.117 845 196.109C847.008 196.117 848.195 195.594 848.188 194.641C848.195 193.703 847.008 193.164 845 193.172C842.977 193.164 841.773 193.703 841.781 194.641ZM864.41 189.906V191.109H851.675V189.906H856.785V187.141H858.238V189.906H864.41ZM853.019 193.781V192.594H862.785V197.328H861.285V193.781H853.019ZM853.16 185.25V184.078H862.832V185.109C862.816 186.164 862.816 187.398 862.488 189.016L860.988 188.875C861.332 187.359 861.347 186.25 861.347 185.25H853.16ZM869.944 186.891C869.929 189.445 871.476 192.023 873.648 192.984L872.757 194.156C871.148 193.391 869.874 191.82 869.218 189.906C868.569 191.961 867.28 193.648 865.601 194.469L864.694 193.219C866.898 192.242 868.444 189.562 868.444 186.891V184.5H869.944V186.891ZM874.913 197.359V183.328H876.398V197.359H874.913ZM882.839 185.906C882.831 187.688 884.073 189.312 886.198 189.984L885.495 191.141C883.901 190.633 882.737 189.578 882.12 188.25C881.51 189.781 880.284 190.992 878.604 191.578L877.839 190.391C880.026 189.672 881.346 187.867 881.354 185.922V185.531H878.276V184.328H885.854V185.531H882.839V185.906ZM879.729 194.672C879.729 193.031 881.518 192.07 884.432 192.078C887.315 192.07 889.073 193.031 889.073 194.672C889.073 196.336 887.315 197.305 884.432 197.297C881.518 197.305 879.729 196.336 879.729 194.672ZM881.214 194.672C881.206 195.609 882.409 196.133 884.432 196.125C886.44 196.133 887.628 195.609 887.62 194.672C887.628 193.758 886.44 193.242 884.432 193.25C882.409 193.242 881.206 193.758 881.214 194.672ZM887.464 191.734V183.328H888.948V186.797H890.979V188.016H888.948V191.734H887.464ZM906.299 183.328V197.328H904.877V190.062H903.143V196.656H901.752V183.703H903.143V188.859H904.877V183.328H906.299ZM894.268 193.328C897.377 191.562 898.682 189.18 898.916 186.328H894.861V185.109H900.361C900.353 188.789 899.135 192.102 895.127 194.359L894.268 193.328ZM912.349 185.906C912.341 187.688 913.583 189.312 915.708 189.984L915.005 191.141C913.412 190.633 912.248 189.578 911.63 188.25C911.021 189.781 909.794 190.992 908.115 191.578L907.349 190.391C909.537 189.672 910.857 187.867 910.865 185.922V185.531H907.787V184.328H915.365V185.531H912.349V185.906ZM909.24 194.672C909.24 193.031 911.029 192.07 913.943 192.078C916.826 192.07 918.583 193.031 918.583 194.672C918.583 196.336 916.826 197.305 913.943 197.297C911.029 197.305 909.24 196.336 909.24 194.672ZM910.724 194.672C910.716 195.609 911.919 196.133 913.943 196.125C915.951 196.133 917.138 195.609 917.13 194.672C917.138 193.758 915.951 193.242 913.943 193.25C911.919 193.242 910.716 193.758 910.724 194.672ZM916.974 191.734V183.328H918.458V186.797H920.49V188.016H918.458V191.734H916.974Z" fill="black"/>
<path d="M422.242 337V334.117L428.43 328.68C429.871 327.367 430.691 326.5 430.703 325.211C430.691 323.793 429.648 322.926 428.219 322.914C426.766 322.926 425.793 323.84 425.805 325.375H422.008C421.996 321.953 424.504 319.797 428.242 319.797C432.062 319.797 434.559 321.871 434.57 324.906C434.559 326.852 433.598 328.48 429.93 331.68L427.797 333.648V333.766H434.781V337H422.242ZM443.332 337.234C438.925 337.234 436.23 334.082 436.23 328.516C436.23 322.949 438.925 319.797 443.332 319.797C447.738 319.797 450.445 322.973 450.433 328.516C450.445 334.094 447.738 337.234 443.332 337.234ZM440.332 328.516C440.32 332.277 441.527 333.977 443.332 333.977C445.136 333.977 446.343 332.277 446.332 328.516C446.332 324.812 445.136 323.043 443.332 323.031C441.539 323.043 440.343 324.812 440.332 328.516ZM459.007 337.234C454.601 337.234 451.905 334.082 451.905 328.516C451.905 322.949 454.601 319.797 459.007 319.797C463.413 319.797 466.12 322.973 466.109 328.516C466.12 334.094 463.413 337.234 459.007 337.234ZM456.007 328.516C455.995 332.277 457.202 333.977 459.007 333.977C460.812 333.977 462.019 332.277 462.007 328.516C462.007 324.812 460.812 323.043 459.007 323.031C457.214 323.043 456.019 324.812 456.007 328.516ZM467.51 334.141V331.023L474.542 320.031H479.581V331H481.643V334.141H479.581V337H475.76V334.141H467.51ZM471.495 331H475.831V324.273H475.69L471.495 330.859V331ZM485.155 337.234C483.994 337.234 483.022 336.285 483.045 335.102C483.022 333.953 483.994 333.016 485.155 333.016C486.28 333.016 487.276 333.953 487.287 335.102C487.276 336.285 486.28 337.234 485.155 337.234ZM499.841 337.234C495.435 337.234 492.74 334.082 492.74 328.516C492.74 322.949 495.435 319.797 499.841 319.797C504.248 319.797 506.955 322.973 506.943 328.516C506.955 334.094 504.248 337.234 499.841 337.234ZM496.841 328.516C496.83 332.277 498.037 333.977 499.841 333.977C501.646 333.977 502.853 332.277 502.841 328.516C502.841 324.812 501.646 323.043 499.841 323.031C498.048 323.043 496.853 324.812 496.841 328.516ZM515.376 337.234C511.673 337.223 508.298 335.02 508.298 328.82C508.321 323.195 511.134 319.797 515.47 319.797C519.032 319.797 521.446 322.059 521.774 324.906H517.837C517.579 323.805 516.665 323.207 515.47 323.219C513.325 323.207 512.259 325.176 512.259 328.258H512.376C513.103 326.723 514.814 325.82 516.712 325.82C519.782 325.82 521.974 328.105 521.962 331.258C521.974 334.797 519.29 337.234 515.376 337.234ZM512.634 331.398C512.634 332.934 513.782 334.152 515.353 334.141C516.935 334.152 518.095 332.957 518.071 331.375C518.095 329.816 516.946 328.633 515.376 328.633C513.806 328.633 512.634 329.84 512.634 331.398ZM525.145 337.234C523.985 337.234 523.012 336.285 523.036 335.102C523.012 333.953 523.985 333.016 525.145 333.016C526.27 333.016 527.266 333.953 527.278 335.102C527.266 336.285 526.27 337.234 525.145 337.234Z" fill="#2F5BC1"/>
<path d="M432.516 351.328V354.859H434.547V356.062H432.516V359.641H431.031V351.328H432.516ZM421.5 358.547C424.781 357.625 426.789 355.797 427.062 353.531H422.125V352.328H428.672C428.672 355.945 426.211 358.562 422.109 359.75L421.5 358.547ZM423.406 362.547C423.391 360.844 425.234 359.789 428.047 359.797C430.867 359.789 432.672 360.844 432.672 362.547C432.672 364.266 430.867 365.305 428.047 365.312C425.234 365.305 423.391 364.266 423.406 362.547ZM424.875 362.547C424.867 363.531 426.086 364.133 428.047 364.141C429.992 364.133 431.219 363.531 431.219 362.547C431.219 361.562 429.992 360.961 428.047 360.969C426.086 360.961 424.867 361.562 424.875 362.547ZM439.707 354.891C439.707 357.453 441.144 360.008 443.285 360.969L442.378 362.156C440.793 361.359 439.589 359.781 438.972 357.867C438.355 359.883 437.136 361.586 435.519 362.422L434.582 361.219C436.753 360.18 438.199 357.484 438.207 354.891V352.5H439.707V354.891ZM441.738 357.188V355.984H444.863V351.328H446.332V365.359H444.863V357.188H441.738ZM452.944 354.891C452.929 357.445 454.476 360.023 456.648 360.984L455.757 362.156C454.148 361.391 452.874 359.82 452.218 357.906C451.569 359.961 450.28 361.648 448.601 362.469L447.694 361.219C449.898 360.242 451.444 357.562 451.444 354.891V352.5H452.944V354.891ZM457.913 365.359V351.328H459.398V365.359H457.913ZM465.839 353.906C465.831 355.688 467.073 357.312 469.198 357.984L468.495 359.141C466.901 358.633 465.737 357.578 465.12 356.25C464.51 357.781 463.284 358.992 461.604 359.578L460.839 358.391C463.026 357.672 464.346 355.867 464.354 353.922V353.531H461.276V352.328H468.854V353.531H465.839V353.906ZM462.729 362.672C462.729 361.031 464.518 360.07 467.432 360.078C470.315 360.07 472.073 361.031 472.073 362.672C472.073 364.336 470.315 365.305 467.432 365.297C464.518 365.305 462.729 364.336 462.729 362.672ZM464.214 362.672C464.206 363.609 465.409 364.133 467.432 364.125C469.44 364.133 470.628 363.609 470.62 362.672C470.628 361.758 469.44 361.242 467.432 361.25C465.409 361.242 464.206 361.758 464.214 362.672ZM470.464 359.734V351.328H471.948V354.797H473.979V356.016H471.948V359.734H470.464ZM426.656 378.891C426.641 381.445 428.188 384.023 430.359 384.984L429.469 386.156C427.859 385.391 426.586 383.82 425.93 381.906C425.281 383.961 423.992 385.648 422.312 386.469L421.406 385.219C423.609 384.242 425.156 381.562 425.156 378.891V376.5H426.656V378.891ZM431.625 389.359V375.328H433.109V389.359H431.625ZM439.55 377.906C439.543 379.688 440.785 381.312 442.91 381.984L442.207 383.141C440.613 382.633 439.449 381.578 438.832 380.25C438.222 381.781 436.996 382.992 435.316 383.578L434.55 382.391C436.738 381.672 438.058 379.867 438.066 377.922V377.531H434.988V376.328H442.566V377.531H439.55V377.906ZM436.441 386.672C436.441 385.031 438.23 384.07 441.144 384.078C444.027 384.07 445.785 385.031 445.785 386.672C445.785 388.336 444.027 389.305 441.144 389.297C438.23 389.305 436.441 388.336 436.441 386.672ZM437.925 386.672C437.918 387.609 439.121 388.133 441.144 388.125C443.152 388.133 444.339 387.609 444.332 386.672C444.339 385.758 443.152 385.242 441.144 385.25C439.121 385.242 437.918 385.758 437.925 386.672ZM444.175 383.734V375.328H445.66V378.797H447.691V380.016H445.66V383.734H444.175ZM459.148 381.781V382.969H454.913V386.391H460.616V387.609H447.804V386.391H453.444V382.969H449.398V376.406H459.023V377.609H450.882V381.781H459.148ZM466.854 376.906V380.547H468.729V375.594H470.151V388.641H468.729V381.766H466.854V385.641H461.417V376.906H466.854ZM462.823 384.453H465.464V378.078H462.823V384.453ZM471.573 389.328V375.328H472.995V389.328H471.573ZM485.701 375.344V385.516H484.217V375.344H485.701ZM474.373 379.75C474.381 377.727 475.991 376.289 478.108 376.281C480.217 376.289 481.826 377.727 481.826 379.75C481.826 381.805 480.217 383.234 478.108 383.234C475.991 383.234 474.381 381.805 474.373 379.75ZM475.826 379.75C475.819 381.07 476.803 381.938 478.108 381.938C479.389 381.938 480.373 381.07 480.373 379.75C480.373 378.461 479.389 377.578 478.108 377.578C476.803 377.578 475.819 378.461 475.826 379.75ZM476.545 389.031V384.484H478.045V387.828H486.123V389.031H476.545ZM499.252 375.328V389.328H497.83V375.328H499.252ZM487.033 385.469C489.018 384.273 490.025 381.727 490.033 379.234V378.109H487.455V376.906H493.861V378.109H491.455V379.234C491.455 381.625 492.424 384.023 494.393 385.156L493.502 386.25C492.166 385.453 491.252 384.023 490.76 382.336C490.26 384.164 489.307 385.727 487.939 386.578L487.033 385.469ZM492.83 381.5V380.281H495.002V375.625H496.408V388.625H495.002V381.5H492.83ZM505.521 378.891C505.505 381.445 507.052 384.023 509.224 384.984L508.333 386.156C506.724 385.391 505.451 383.82 504.794 381.906C504.146 383.961 502.857 385.648 501.177 386.469L500.271 385.219C502.474 384.242 504.021 381.562 504.021 378.891V376.5H505.521V378.891ZM510.49 389.359V375.328H511.974V389.359H510.49ZM518.415 377.906C518.407 379.688 519.649 381.312 521.774 381.984L521.071 383.141C519.478 382.633 518.314 381.578 517.696 380.25C517.087 381.781 515.86 382.992 514.181 383.578L513.415 382.391C515.603 381.672 516.923 379.867 516.931 377.922V377.531H513.853V376.328H521.431V377.531H518.415V377.906ZM515.306 386.672C515.306 385.031 517.095 384.07 520.009 384.078C522.892 384.07 524.649 385.031 524.649 386.672C524.649 388.336 522.892 389.305 520.009 389.297C517.095 389.305 515.306 388.336 515.306 386.672ZM516.79 386.672C516.782 387.609 517.985 388.133 520.009 388.125C522.017 388.133 523.204 387.609 523.196 386.672C523.204 385.758 522.017 385.242 520.009 385.25C517.985 385.242 516.782 385.758 516.79 386.672ZM523.04 383.734V375.328H524.524V378.797H526.556V380.016H524.524V383.734H523.04ZM541.875 375.328V389.328H540.453V382.062H538.719V388.656H537.328V375.703H538.719V380.859H540.453V375.328H541.875ZM529.844 385.328C532.953 383.562 534.258 381.18 534.492 378.328H530.438V377.109H535.938C535.93 380.789 534.711 384.102 530.703 386.359L529.844 385.328ZM547.926 377.906C547.918 379.688 549.16 381.312 551.285 381.984L550.582 383.141C548.988 382.633 547.824 381.578 547.207 380.25C546.598 381.781 545.371 382.992 543.691 383.578L542.926 382.391C545.113 381.672 546.433 379.867 546.441 377.922V377.531H543.363V376.328H550.941V377.531H547.926V377.906ZM544.816 386.672C544.816 385.031 546.605 384.07 549.519 384.078C552.402 384.07 554.16 385.031 554.16 386.672C554.16 388.336 552.402 389.305 549.519 389.297C546.605 389.305 544.816 388.336 544.816 386.672ZM546.301 386.672C546.293 387.609 547.496 388.133 549.519 388.125C551.527 388.133 552.715 387.609 552.707 386.672C552.715 385.758 551.527 385.242 549.519 385.25C547.496 385.242 546.293 385.758 546.301 386.672ZM552.551 383.734V375.328H554.035V378.797H556.066V380.016H554.035V383.734H552.551Z" fill="black"/>
<path d="M669.242 337V334.117L675.43 328.68C676.871 327.367 677.691 326.5 677.703 325.211C677.691 323.793 676.648 322.926 675.219 322.914C673.766 322.926 672.793 323.84 672.805 325.375H669.008C668.996 321.953 671.504 319.797 675.242 319.797C679.062 319.797 681.559 321.871 681.57 324.906C681.559 326.852 680.598 328.48 676.93 331.68L674.797 333.648V333.766H681.781V337H669.242ZM690.332 337.234C685.925 337.234 683.23 334.082 683.23 328.516C683.23 322.949 685.925 319.797 690.332 319.797C694.738 319.797 697.445 322.973 697.433 328.516C697.445 334.094 694.738 337.234 690.332 337.234ZM687.332 328.516C687.32 332.277 688.527 333.977 690.332 333.977C692.136 333.977 693.343 332.277 693.332 328.516C693.332 324.812 692.136 323.043 690.332 323.031C688.539 323.043 687.343 324.812 687.332 328.516ZM706.007 337.234C701.601 337.234 698.905 334.082 698.905 328.516C698.905 322.949 701.601 319.797 706.007 319.797C710.413 319.797 713.12 322.973 713.109 328.516C713.12 334.094 710.413 337.234 706.007 337.234ZM703.007 328.516C702.995 332.277 704.202 333.977 706.007 333.977C707.812 333.977 709.019 332.277 709.007 328.516C709.007 324.812 707.812 323.043 706.007 323.031C704.214 323.043 703.019 324.812 703.007 328.516ZM714.51 334.141V331.023L721.542 320.031H726.581V331H728.643V334.141H726.581V337H722.76V334.141H714.51ZM718.495 331H722.831V324.273H722.69L718.495 330.859V331ZM732.155 337.234C730.994 337.234 730.022 336.285 730.045 335.102C730.022 333.953 730.994 333.016 732.155 333.016C733.28 333.016 734.276 333.953 734.287 335.102C734.276 336.285 733.28 337.234 732.155 337.234ZM746.841 337.234C742.435 337.234 739.74 334.082 739.74 328.516C739.74 322.949 742.435 319.797 746.841 319.797C751.248 319.797 753.955 322.973 753.943 328.516C753.955 334.094 751.248 337.234 746.841 337.234ZM743.841 328.516C743.83 332.277 745.037 333.977 746.841 333.977C748.646 333.977 749.853 332.277 749.841 328.516C749.841 324.812 748.646 323.043 746.841 323.031C745.048 323.043 743.853 324.812 743.841 328.516ZM755.579 337V334.117L761.767 328.68C763.208 327.367 764.028 326.5 764.04 325.211C764.028 323.793 762.985 322.926 761.556 322.914C760.103 322.926 759.13 323.84 759.142 325.375H755.345C755.333 321.953 757.841 319.797 761.579 319.797C765.399 319.797 767.896 321.871 767.907 324.906C767.896 326.852 766.935 328.48 763.267 331.68L761.134 333.648V333.766H768.118V337H755.579ZM771.981 337.234C770.821 337.234 769.848 336.285 769.872 335.102C769.848 333.953 770.821 333.016 771.981 333.016C773.106 333.016 774.102 333.953 774.114 335.102C774.102 336.285 773.106 337.234 771.981 337.234Z" fill="#2F5BC1"/>
<path d="M679.516 351.328V354.859H681.547V356.062H679.516V359.641H678.031V351.328H679.516ZM668.5 358.547C671.781 357.625 673.789 355.797 674.062 353.531H669.125V352.328H675.672C675.672 355.945 673.211 358.562 669.109 359.75L668.5 358.547ZM670.406 362.547C670.391 360.844 672.234 359.789 675.047 359.797C677.867 359.789 679.672 360.844 679.672 362.547C679.672 364.266 677.867 365.305 675.047 365.312C672.234 365.305 670.391 364.266 670.406 362.547ZM671.875 362.547C671.867 363.531 673.086 364.133 675.047 364.141C676.992 364.133 678.219 363.531 678.219 362.547C678.219 361.562 676.992 360.961 675.047 360.969C673.086 360.961 671.867 361.562 671.875 362.547ZM686.707 354.891C686.707 357.453 688.144 360.008 690.285 360.969L689.378 362.156C687.793 361.359 686.589 359.781 685.972 357.867C685.355 359.883 684.136 361.586 682.519 362.422L681.582 361.219C683.753 360.18 685.199 357.484 685.207 354.891V352.5H686.707V354.891ZM688.738 357.188V355.984H691.863V351.328H693.332V365.359H691.863V357.188H688.738ZM699.944 354.891C699.929 357.445 701.476 360.023 703.648 360.984L702.757 362.156C701.148 361.391 699.874 359.82 699.218 357.906C698.569 359.961 697.28 361.648 695.601 362.469L694.694 361.219C696.898 360.242 698.444 357.562 698.444 354.891V352.5H699.944V354.891ZM704.913 365.359V351.328H706.398V365.359H704.913ZM712.839 353.906C712.831 355.688 714.073 357.312 716.198 357.984L715.495 359.141C713.901 358.633 712.737 357.578 712.12 356.25C711.51 357.781 710.284 358.992 708.604 359.578L707.839 358.391C710.026 357.672 711.346 355.867 711.354 353.922V353.531H708.276V352.328H715.854V353.531H712.839V353.906ZM709.729 362.672C709.729 361.031 711.518 360.07 714.432 360.078C717.315 360.07 719.073 361.031 719.073 362.672C719.073 364.336 717.315 365.305 714.432 365.297C711.518 365.305 709.729 364.336 709.729 362.672ZM711.214 362.672C711.206 363.609 712.409 364.133 714.432 364.125C716.44 364.133 717.628 363.609 717.62 362.672C717.628 361.758 716.44 361.242 714.432 361.25C712.409 361.242 711.206 361.758 711.214 362.672ZM717.464 359.734V351.328H718.948V354.797H720.979V356.016H718.948V359.734H717.464ZM680.188 375.344V383.625H678.703V381.922H675.172V380.703H678.703V379H675.32C674.414 381.25 672.312 382.836 669.281 383.703L668.688 382.547C672 381.602 673.938 379.82 674.203 377.562H669.406V376.344H675.812C675.812 376.859 675.758 377.359 675.664 377.828H678.703V375.344H680.188ZM670.859 386.516C670.859 384.82 672.703 383.789 675.578 383.781C678.414 383.789 680.273 384.82 680.281 386.516C680.273 388.219 678.414 389.266 675.578 389.266C672.703 389.266 670.859 388.219 670.859 386.516ZM672.328 386.516C672.328 387.5 673.578 388.07 675.578 388.078C677.539 388.07 678.789 387.5 678.797 386.516C678.789 385.516 677.539 384.945 675.578 384.953C673.578 384.945 672.328 385.516 672.328 386.516ZM693.707 375.328V389.328H692.285V382.031H690.55V388.641H689.144V375.594H690.55V380.812H692.285V375.328H693.707ZM682.128 385.641V376.906H687.566V385.641H682.128ZM683.535 384.453H686.175V378.078H683.535V384.453ZM706.819 375.328V389.328H705.398V375.328H706.819ZM694.601 385.469C696.585 384.273 697.593 381.727 697.601 379.234V378.109H695.023V376.906H701.429V378.109H699.023V379.234C699.023 381.625 699.991 384.023 701.96 385.156L701.069 386.25C699.734 385.453 698.819 384.023 698.327 382.336C697.827 384.164 696.874 385.727 695.507 386.578L694.601 385.469ZM700.398 381.5V380.281H702.569V375.625H703.976V388.625H702.569V381.5H700.398ZM713.089 378.891C713.073 381.445 714.62 384.023 716.792 384.984L715.901 386.156C714.292 385.391 713.018 383.82 712.362 381.906C711.714 383.961 710.425 385.648 708.745 386.469L707.839 385.219C710.042 384.242 711.589 381.562 711.589 378.891V376.5H713.089V378.891ZM718.057 389.359V375.328H719.542V389.359H718.057ZM725.983 377.906C725.975 379.688 727.217 381.312 729.342 381.984L728.639 383.141C727.045 382.633 725.881 381.578 725.264 380.25C724.655 381.781 723.428 382.992 721.748 383.578L720.983 382.391C723.17 381.672 724.491 379.867 724.498 377.922V377.531H721.42V376.328H728.998V377.531H725.983V377.906ZM722.873 386.672C722.873 385.031 724.662 384.07 727.576 384.078C730.459 384.07 732.217 385.031 732.217 386.672C732.217 388.336 730.459 389.305 727.576 389.297C724.662 389.305 722.873 388.336 722.873 386.672ZM724.358 386.672C724.35 387.609 725.553 388.133 727.576 388.125C729.584 388.133 730.772 387.609 730.764 386.672C730.772 385.758 729.584 385.242 727.576 385.25C725.553 385.242 724.35 385.758 724.358 386.672ZM730.608 383.734V375.328H732.092V378.797H734.123V380.016H732.092V383.734H730.608ZM749.443 375.328V389.328H748.021V382.062H746.287V388.656H744.896V375.703H746.287V380.859H748.021V375.328H749.443ZM737.412 385.328C740.521 383.562 741.826 381.18 742.06 378.328H738.005V377.109H743.505C743.498 380.789 742.279 384.102 738.271 386.359L737.412 385.328ZM755.493 377.906C755.485 379.688 756.728 381.312 758.853 381.984L758.149 383.141C756.556 382.633 755.392 381.578 754.774 380.25C754.165 381.781 752.939 382.992 751.259 383.578L750.493 382.391C752.681 381.672 754.001 379.867 754.009 377.922V377.531H750.931V376.328H758.509V377.531H755.493V377.906ZM752.384 386.672C752.384 385.031 754.173 384.07 757.087 384.078C759.97 384.07 761.728 385.031 761.728 386.672C761.728 388.336 759.97 389.305 757.087 389.297C754.173 389.305 752.384 388.336 752.384 386.672ZM753.868 386.672C753.86 387.609 755.064 388.133 757.087 388.125C759.095 388.133 760.282 387.609 760.274 386.672C760.282 385.758 759.095 385.242 757.087 385.25C755.064 385.242 753.86 385.758 753.868 386.672ZM760.118 383.734V375.328H761.603V378.797H763.634V380.016H761.603V383.734H760.118Z" fill="black"/>
<circle cx="254" cy="502" r="10" fill="white"/>
<circle cx="254" cy="502" r="6" fill="#959292"/>
<path d="M254 512V540" stroke="#333333" stroke-width="2" stroke-dasharray="4 4"/>
<path d="M249.242 569V566.117L255.43 560.68C256.871 559.367 257.691 558.5 257.703 557.211C257.691 555.793 256.648 554.926 255.219 554.914C253.766 554.926 252.793 555.84 252.805 557.375H249.008C248.996 553.953 251.504 551.797 255.242 551.797C259.062 551.797 261.559 553.871 261.57 556.906C261.559 558.852 260.598 560.48 256.93 563.68L254.797 565.648V565.766H261.781V569H249.242ZM270.332 569.234C265.925 569.234 263.23 566.082 263.23 560.516C263.23 554.949 265.925 551.797 270.332 551.797C274.738 551.797 277.445 554.973 277.433 560.516C277.445 566.094 274.738 569.234 270.332 569.234ZM267.332 560.516C267.32 564.277 268.527 565.977 270.332 565.977C272.136 565.977 273.343 564.277 273.332 560.516C273.332 556.812 272.136 555.043 270.332 555.031C268.539 555.043 267.343 556.812 267.332 560.516ZM286.827 552.031V569H282.819V555.781H282.726L278.905 558.125V554.656L283.101 552.031H286.827ZM296.667 569.234C292.964 569.223 289.589 567.02 289.589 560.82C289.612 555.195 292.425 551.797 296.76 551.797C300.323 551.797 302.737 554.059 303.065 556.906H299.128C298.87 555.805 297.956 555.207 296.76 555.219C294.616 555.207 293.55 557.176 293.55 560.258H293.667C294.393 558.723 296.104 557.82 298.003 557.82C301.073 557.82 303.264 560.105 303.253 563.258C303.264 566.797 300.581 569.234 296.667 569.234ZM293.925 563.398C293.925 564.934 295.073 566.152 296.643 566.141C298.225 566.152 299.385 564.957 299.362 563.375C299.385 561.816 298.237 560.633 296.667 560.633C295.096 560.633 293.925 561.84 293.925 563.398ZM306.436 569.234C305.276 569.234 304.303 568.285 304.326 567.102C304.303 565.953 305.276 565.016 306.436 565.016C307.561 565.016 308.557 565.953 308.569 567.102C308.557 568.285 307.561 569.234 306.436 569.234ZM321.123 569.234C316.716 569.234 314.021 566.082 314.021 560.516C314.021 554.949 316.716 551.797 321.123 551.797C325.529 551.797 328.236 554.973 328.224 560.516C328.236 566.094 325.529 569.234 321.123 569.234ZM318.123 560.516C318.111 564.277 319.318 565.977 321.123 565.977C322.927 565.977 324.134 564.277 324.123 560.516C324.123 556.812 322.927 555.043 321.123 555.031C319.33 555.043 318.134 556.812 318.123 560.516ZM330.095 569L337.032 555.383V555.266H328.923V552.031H341.181V555.289L334.22 569H330.095ZM342.044 569.234C340.883 569.234 339.911 568.285 339.934 567.102C339.911 565.953 340.883 565.016 342.044 565.016C343.169 565.016 344.165 565.953 344.176 567.102C344.165 568.285 343.169 569.234 342.044 569.234Z" fill="#2F5BC1"/>
<path d="M253.656 586.891C253.641 589.445 255.188 592.023 257.359 592.984L256.469 594.156C254.859 593.391 253.586 591.82 252.93 589.906C252.281 591.961 250.992 593.648 249.312 594.469L248.406 593.219C250.609 592.242 252.156 589.562 252.156 586.891V584.5H253.656V586.891ZM258.625 597.359V583.328H260.109V597.359H258.625ZM273.332 583.328V590.531H271.847V586.938H268.894V585.734H271.847V583.328H273.332ZM261.613 589.406C263.8 588.711 265.105 586.969 265.113 585V583.781H266.582V585C266.582 586.781 267.863 588.438 269.972 589.109L269.191 590.266C267.652 589.734 266.488 588.68 265.871 587.344C265.261 588.852 264.066 590.023 262.41 590.594L261.613 589.406ZM264.175 592.359V591.188H273.332V594.672H265.66V595.969H273.816V597.156H264.207V593.547H271.863V592.359H264.175ZM286.476 583.344V594.016H284.991V591.125H282.741V589.938H284.991V588.203H282.741V586.984H284.991V583.344H286.476ZM274.819 586.172V584.969H278.101V583.328H279.569V584.969H282.694V586.172H274.819ZM275.601 589.531C275.601 587.93 276.929 586.836 278.819 586.844C280.702 586.836 282.046 587.93 282.054 589.531C282.046 591.141 280.702 592.234 278.819 592.234C276.929 592.234 275.601 591.141 275.601 589.531ZM276.991 589.531C276.984 590.484 277.734 591.078 278.819 591.078C279.89 591.078 280.648 590.484 280.663 589.531C280.648 588.609 279.89 588.016 278.819 588C277.734 588.016 276.984 588.609 276.991 589.531ZM277.335 597.031V593.078H278.835V595.828H286.788V597.031H277.335ZM299.964 583.328V597.328H298.542V590.094H296.729V596.609H295.37V583.609H296.729V588.875H298.542V583.328H299.964ZM288.417 593.969V585.016H293.667V586.219H289.901V592.703C291.62 592.695 292.917 592.617 294.417 592.328L294.526 593.547C292.846 593.898 291.393 593.953 289.354 593.969H288.417ZM312.061 583.328V589.188H314.17V590.438H312.061V597.328H310.576V583.328H312.061ZM300.92 593.516C302.022 593.516 303.303 593.516 304.639 593.477V592.055C303.061 591.82 302.03 590.867 302.045 589.516C302.03 587.938 303.397 586.898 305.389 586.891C307.373 586.898 308.756 587.938 308.764 589.516C308.756 590.867 307.709 591.828 306.123 592.055V593.422C307.366 593.359 308.616 593.258 309.78 593.094L309.873 594.188C306.842 594.727 303.569 594.758 301.155 594.75L300.92 593.516ZM301.186 586.172V584.984H304.639V583.359H306.123V584.984H309.576V586.172H301.186ZM303.436 589.516C303.436 590.406 304.217 590.961 305.389 590.953C306.561 590.961 307.334 590.406 307.342 589.516C307.334 588.617 306.561 588.047 305.389 588.047C304.217 588.047 303.436 588.617 303.436 589.516ZM319.096 586.891C319.08 589.367 320.525 591.906 322.611 592.922L321.689 594.109C320.166 593.312 318.986 591.75 318.369 589.883C317.744 591.867 316.518 593.547 314.924 594.375L314.002 593.172C316.15 592.141 317.603 589.453 317.611 586.891V584.5H319.096V586.891ZM323.658 597.328V583.328H325.143V588.906H327.393V590.172H325.143V597.328H323.658ZM331.255 583.969C333.099 583.953 334.529 585.023 334.833 586.594H337.568V583.328H339.052V590.844H337.568V587.812H334.841C334.552 589.422 333.115 590.5 331.255 590.5C329.115 590.5 327.576 589.148 327.583 587.219C327.576 585.312 329.115 583.953 331.255 583.969ZM329.005 587.219C328.998 588.414 329.935 589.25 331.255 589.25C332.552 589.25 333.474 588.414 333.474 587.219C333.474 586.016 332.552 585.195 331.255 585.203C329.935 585.195 328.998 586.016 329.005 587.219ZM329.927 597.156V591.516H331.396V593.141H337.568V591.516H339.052V597.156H329.927ZM331.396 595.938H337.568V594.312H331.396V595.938ZM348.528 584.688V596H346.794V586.406H346.731L344.028 588.172V586.531L346.84 584.688H348.528ZM361.235 583.312V587.375H363.282V588.609H361.235V593.453H359.75V583.312H361.235ZM350.86 591.031V584.516H357.11V585.719H352.328V589.797C355.055 589.805 356.586 589.719 358.344 589.359L358.516 590.562C356.625 590.938 354.969 591.031 351.969 591.031H350.86ZM352.36 597.031V592.406H353.844V595.828H361.828V597.031H352.36ZM375.41 583.328V597.328H374.004V583.328H375.41ZM363.301 593.281C366.277 591.516 367.699 589.164 367.957 586.281H363.988V585.062H369.426C369.426 585.781 369.371 586.477 369.262 587.156H371.144V583.688H372.551V596.641H371.144V591.875H368.754V590.656H371.144V588.375H368.988C368.308 590.727 366.816 592.773 364.176 594.344L363.301 593.281ZM259.422 607.328V612.906H261.594V614.141H259.422V621.312H257.938V607.328H259.422ZM248.531 617.578C252.039 615.828 253.945 613.297 254.25 610.031H249.234V608.797H255.766C255.75 612.844 253.969 616.461 249.359 618.734L248.531 617.578ZM268.597 608.156V612.156H263.722V613.953C266.152 613.938 267.871 613.859 269.91 613.516L270.066 614.719C267.902 615.086 266.05 615.18 263.363 615.172H262.238V611H267.144V609.359H262.222V608.156H268.597ZM263.41 617.75V616.547H272.66V621.312H271.175V617.75H263.41ZM271.175 615.844V607.344H272.66V610.844H274.707V612.078H272.66V615.844H271.175ZM287.569 613.312V614.516H274.804V613.312H280.429V612.094H276.444V607.781H285.929V612.094H281.882V613.312H287.569ZM276.335 616.672V615.531H285.96V618.812H277.804V620.047H286.351V621.188H276.351V617.734H284.491V616.672H276.335ZM277.898 610.922H284.444V608.953H277.898V610.922ZM303.155 607.328V621.328H301.733V614.062H299.998V620.656H298.608V607.703H299.998V612.859H301.733V607.328H303.155ZM291.123 617.328C294.233 615.562 295.537 613.18 295.772 610.328H291.717V609.109H297.217C297.209 612.789 295.991 616.102 291.983 618.359L291.123 617.328ZM309.205 609.906C309.197 611.688 310.439 613.312 312.564 613.984L311.861 615.141C310.268 614.633 309.103 613.578 308.486 612.25C307.877 613.781 306.65 614.992 304.971 615.578L304.205 614.391C306.393 613.672 307.713 611.867 307.721 609.922V609.531H304.643V608.328H312.221V609.531H309.205V609.906ZM306.096 618.672C306.096 617.031 307.885 616.07 310.799 616.078C313.682 616.07 315.439 617.031 315.439 618.672C315.439 620.336 313.682 621.305 310.799 621.297C307.885 621.305 306.096 620.336 306.096 618.672ZM307.58 618.672C307.572 619.609 308.775 620.133 310.799 620.125C312.807 620.133 313.994 619.609 313.986 618.672C313.994 617.758 312.807 617.242 310.799 617.25C308.775 617.242 307.572 617.758 307.58 618.672ZM313.83 615.734V607.328H315.314V610.797H317.346V612.016H315.314V615.734H313.83Z" fill="black"/>
<circle cx="490" cy="502" r="10" fill="white"/>
<circle cx="490" cy="502" r="6" fill="#959292"/>
<path d="M490 512V540" stroke="#333333" stroke-width="2" stroke-dasharray="4 4"/>
<path d="M485.242 569V566.117L491.43 560.68C492.871 559.367 493.691 558.5 493.703 557.211C493.691 555.793 492.648 554.926 491.219 554.914C489.766 554.926 488.793 555.84 488.805 557.375H485.008C484.996 553.953 487.504 551.797 491.242 551.797C495.062 551.797 497.559 553.871 497.57 556.906C497.559 558.852 496.598 560.48 492.93 563.68L490.797 565.648V565.766H497.781V569H485.242ZM506.332 569.234C501.925 569.234 499.23 566.082 499.23 560.516C499.23 554.949 501.925 551.797 506.332 551.797C510.738 551.797 513.445 554.973 513.433 560.516C513.445 566.094 510.738 569.234 506.332 569.234ZM503.332 560.516C503.32 564.277 504.527 565.977 506.332 565.977C508.136 565.977 509.343 564.277 509.332 560.516C509.332 556.812 508.136 555.043 506.332 555.031C504.539 555.043 503.343 556.812 503.332 560.516ZM515.069 569V566.117L521.257 560.68C522.698 559.367 523.519 558.5 523.53 557.211C523.519 555.793 522.476 554.926 521.046 554.914C519.593 554.926 518.62 555.84 518.632 557.375H514.835C514.823 553.953 517.331 551.797 521.069 551.797C524.89 551.797 527.386 553.871 527.398 556.906C527.386 558.852 526.425 560.48 522.757 563.68L520.624 565.648V565.766H527.609V569H515.069ZM536.979 552.031V569H532.971V555.781H532.878L529.057 558.125V554.656L533.253 552.031H536.979ZM541.405 569.234C540.244 569.234 539.272 568.285 539.295 567.102C539.272 565.953 540.244 565.016 541.405 565.016C542.53 565.016 543.526 565.953 543.537 567.102C543.526 568.285 542.53 569.234 541.405 569.234ZM556.091 569.234C551.685 569.234 548.99 566.082 548.99 560.516C548.99 554.949 551.685 551.797 556.091 551.797C560.498 551.797 563.205 554.973 563.193 560.516C563.205 566.094 560.498 569.234 556.091 569.234ZM553.091 560.516C553.08 564.277 554.287 565.977 556.091 565.977C557.896 565.977 559.103 564.277 559.091 560.516C559.091 556.812 557.896 555.043 556.091 555.031C554.298 555.043 553.103 556.812 553.091 560.516ZM564.829 569V566.117L571.017 560.68C572.458 559.367 573.278 558.5 573.29 557.211C573.278 555.793 572.235 554.926 570.806 554.914C569.353 554.926 568.38 555.84 568.392 557.375H564.595C564.583 553.953 567.091 551.797 570.829 551.797C574.649 551.797 577.146 553.871 577.157 556.906C577.146 558.852 576.185 560.48 572.517 563.68L570.384 565.648V565.766H577.368V569H564.829ZM581.231 569.234C580.071 569.234 579.098 568.285 579.122 567.102C579.098 565.953 580.071 565.016 581.231 565.016C582.356 565.016 583.352 565.953 583.364 567.102C583.352 568.285 582.356 569.234 581.231 569.234Z" fill="#2F5BC1"/>
<path d="M489.656 586.891C489.641 589.445 491.188 592.023 493.359 592.984L492.469 594.156C490.859 593.391 489.586 591.82 488.93 589.906C488.281 591.961 486.992 593.648 485.312 594.469L484.406 593.219C486.609 592.242 488.156 589.562 488.156 586.891V584.5H489.656V586.891ZM494.625 597.359V583.328H496.109V597.359H494.625ZM509.332 583.328V590.531H507.847V586.938H504.894V585.734H507.847V583.328H509.332ZM497.613 589.406C499.8 588.711 501.105 586.969 501.113 585V583.781H502.582V585C502.582 586.781 503.863 588.438 505.972 589.109L505.191 590.266C503.652 589.734 502.488 588.68 501.871 587.344C501.261 588.852 500.066 590.023 498.41 590.594L497.613 589.406ZM500.175 592.359V591.188H509.332V594.672H501.66V595.969H509.816V597.156H500.207V593.547H507.863V592.359H500.175ZM522.476 583.344V594.016H520.991V591.125H518.741V589.938H520.991V588.203H518.741V586.984H520.991V583.344H522.476ZM510.819 586.172V584.969H514.101V583.328H515.569V584.969H518.694V586.172H510.819ZM511.601 589.531C511.601 587.93 512.929 586.836 514.819 586.844C516.702 586.836 518.046 587.93 518.054 589.531C518.046 591.141 516.702 592.234 514.819 592.234C512.929 592.234 511.601 591.141 511.601 589.531ZM512.991 589.531C512.984 590.484 513.734 591.078 514.819 591.078C515.89 591.078 516.648 590.484 516.663 589.531C516.648 588.609 515.89 588.016 514.819 588C513.734 588.016 512.984 588.609 512.991 589.531ZM513.335 597.031V593.078H514.835V595.828H522.788V597.031H513.335ZM535.964 583.328V597.328H534.542V590.094H532.729V596.609H531.37V583.609H532.729V588.875H534.542V583.328H535.964ZM524.417 593.969V585.016H529.667V586.219H525.901V592.703C527.62 592.695 528.917 592.617 530.417 592.328L530.526 593.547C528.846 593.898 527.393 593.953 525.354 593.969H524.417ZM548.061 583.328V589.188H550.17V590.438H548.061V597.328H546.576V583.328H548.061ZM536.92 593.516C538.022 593.516 539.303 593.516 540.639 593.477V592.055C539.061 591.82 538.03 590.867 538.045 589.516C538.03 587.938 539.397 586.898 541.389 586.891C543.373 586.898 544.756 587.938 544.764 589.516C544.756 590.867 543.709 591.828 542.123 592.055V593.422C543.366 593.359 544.616 593.258 545.78 593.094L545.873 594.188C542.842 594.727 539.569 594.758 537.155 594.75L536.92 593.516ZM537.186 586.172V584.984H540.639V583.359H542.123V584.984H545.576V586.172H537.186ZM539.436 589.516C539.436 590.406 540.217 590.961 541.389 590.953C542.561 590.961 543.334 590.406 543.342 589.516C543.334 588.617 542.561 588.047 541.389 588.047C540.217 588.047 539.436 588.617 539.436 589.516ZM555.096 586.891C555.08 589.367 556.525 591.906 558.611 592.922L557.689 594.109C556.166 593.312 554.986 591.75 554.369 589.883C553.744 591.867 552.518 593.547 550.924 594.375L550.002 593.172C552.15 592.141 553.603 589.453 553.611 586.891V584.5H555.096V586.891ZM559.658 597.328V583.328H561.143V588.906H563.393V590.172H561.143V597.328H559.658ZM567.255 583.969C569.099 583.953 570.529 585.023 570.833 586.594H573.568V583.328H575.052V590.844H573.568V587.812H570.841C570.552 589.422 569.115 590.5 567.255 590.5C565.115 590.5 563.576 589.148 563.583 587.219C563.576 585.312 565.115 583.953 567.255 583.969ZM565.005 587.219C564.998 588.414 565.935 589.25 567.255 589.25C568.552 589.25 569.474 588.414 569.474 587.219C569.474 586.016 568.552 585.195 567.255 585.203C565.935 585.195 564.998 586.016 565.005 587.219ZM565.927 597.156V591.516H567.396V593.141H573.568V591.516H575.052V597.156H565.927ZM567.396 595.938H573.568V594.312H567.396V595.938ZM495.859 613.781V614.969H491.625V618.391H497.328V619.609H484.516V618.391H490.156V614.969H486.109V608.406H495.734V609.609H487.594V613.781H495.859ZM509.707 607.328V621.328H508.285V614.031H506.55V620.641H505.144V607.594H506.55V612.812H508.285V607.328H509.707ZM498.128 617.641V608.906H503.566V617.641H498.128ZM499.535 616.453H502.175V610.078H499.535V616.453ZM522.523 607.344V617.906H521.023V616.078H518.054V614.891H521.023V607.344H522.523ZM510.71 612.797C512.468 612.789 514.655 612.766 516.819 612.625C517.054 611.203 517.116 610.109 517.124 609.328H511.976V608.125H518.616V608.672C518.609 609.43 518.609 610.727 518.319 612.508C518.835 612.453 519.343 612.398 519.835 612.328L519.944 613.406C518.687 613.617 517.382 613.758 516.101 613.844V617H514.616V613.922C513.28 613.984 512.015 614 510.913 614L510.71 612.797ZM512.757 621.031V616.766H514.241V619.828H522.866V621.031H512.757ZM531.951 608.688V620H530.217V610.406H530.155L527.451 612.172V610.531L530.264 608.688H531.951ZM539.971 616.125C543.002 616.125 544.916 617.086 544.924 618.719C544.916 620.344 543.002 621.305 539.971 621.297C536.971 621.305 535.049 620.344 535.049 618.719C535.049 617.086 536.971 616.125 539.971 616.125ZM533.674 614.969V613.766H538.783V611.141H540.236V613.766H546.408V614.969H533.674ZM535.158 609.203V608.016H544.814V609.188C544.822 610.305 544.822 611.461 544.424 612.906L542.971 612.75C543.346 611.32 543.346 610.289 543.346 609.203H535.158ZM536.533 618.719C536.518 619.625 537.853 620.148 539.971 620.156C542.111 620.148 543.439 619.625 543.455 618.719C543.439 617.797 542.111 617.258 539.971 617.25C537.853 617.258 536.518 617.797 536.533 618.719ZM557.943 608.203V609.438C557.943 610.766 557.943 612.211 557.552 614.203H559.568V615.422H553.896V621.344H552.396V615.422H546.802V614.203H556.052C556.466 612.203 556.466 610.742 556.474 609.438V609.422H548.365V608.203H557.943ZM568.075 610.359C568.075 612.008 569.34 613.57 571.481 614.172L570.778 615.359C569.176 614.875 567.981 613.852 567.364 612.555C566.747 613.977 565.528 615.086 563.887 615.609L563.153 614.453C565.294 613.805 566.606 612.148 566.606 610.359V610.156H563.559V608.969H566.606V607.281H568.09V608.969H571.122V610.156H568.075V610.359ZM564.919 617.766V616.562H574.169V621.344H572.684V617.766H564.919ZM572.684 615.891V607.328H574.169V610.969H576.2V612.234H574.169V615.891H572.684ZM582.625 616.125C585.657 616.125 587.571 617.086 587.578 618.719C587.571 620.344 585.657 621.305 582.625 621.297C579.625 621.305 577.703 620.344 577.703 618.719C577.703 617.086 579.625 616.125 582.625 616.125ZM576.328 614.969V613.766H581.438V611.141H582.891V613.766H589.063V614.969H576.328ZM577.813 609.203V608.016H587.469V609.188C587.477 610.305 587.477 611.461 587.078 612.906L585.625 612.75C586 611.32 586 610.289 586 609.203H577.813ZM579.188 618.719C579.172 619.625 580.508 620.148 582.625 620.156C584.766 620.148 586.094 619.625 586.11 618.719C586.094 617.797 584.766 617.258 582.625 617.25C580.508 617.258 579.172 617.797 579.188 618.719Z" fill="black"/>
<circle cx="726" cy="502" r="10" fill="white"/>
<circle cx="726" cy="502" r="6" fill="#959292"/>
<path d="M726 512V540" stroke="#333333" stroke-width="2" stroke-dasharray="4 4"/>
<path d="M721.242 569V566.117L727.43 560.68C728.871 559.367 729.691 558.5 729.703 557.211C729.691 555.793 728.648 554.926 727.219 554.914C725.766 554.926 724.793 555.84 724.805 557.375H721.008C720.996 553.953 723.504 551.797 727.242 551.797C731.062 551.797 733.559 553.871 733.57 556.906C733.559 558.852 732.598 560.48 728.93 563.68L726.797 565.648V565.766H733.781V569H721.242ZM742.332 569.234C737.925 569.234 735.23 566.082 735.23 560.516C735.23 554.949 737.925 551.797 742.332 551.797C746.738 551.797 749.445 554.973 749.433 560.516C749.445 566.094 746.738 569.234 742.332 569.234ZM739.332 560.516C739.32 564.277 740.527 565.977 742.332 565.977C744.136 565.977 745.343 564.277 745.332 560.516C745.332 556.812 744.136 555.043 742.332 555.031C740.539 555.043 739.343 556.812 739.332 560.516ZM751.069 569V566.117L757.257 560.68C758.698 559.367 759.519 558.5 759.53 557.211C759.519 555.793 758.476 554.926 757.046 554.914C755.593 554.926 754.62 555.84 754.632 557.375H750.835C750.823 553.953 753.331 551.797 757.069 551.797C760.89 551.797 763.386 553.871 763.398 556.906C763.386 558.852 762.425 560.48 758.757 563.68L756.624 565.648V565.766H763.609V569H751.069ZM765.221 569V566.117L771.409 560.68C772.85 559.367 773.671 558.5 773.682 557.211C773.671 555.793 772.628 554.926 771.198 554.914C769.745 554.926 768.772 555.84 768.784 557.375H764.987C764.975 553.953 767.483 551.797 771.221 551.797C775.042 551.797 777.538 553.871 777.55 556.906C777.538 558.852 776.577 560.48 772.909 563.68L770.776 565.648V565.766H777.76V569H765.221ZM781.623 569.234C780.463 569.234 779.491 568.285 779.514 567.102C779.491 565.953 780.463 565.016 781.623 565.016C782.748 565.016 783.744 565.953 783.756 567.102C783.744 568.285 782.748 569.234 781.623 569.234ZM796.31 569.234C791.904 569.234 789.208 566.082 789.208 560.516C789.208 554.949 791.904 551.797 796.31 551.797C800.716 551.797 803.423 554.973 803.412 560.516C803.423 566.094 800.716 569.234 796.31 569.234ZM793.31 560.516C793.298 564.277 794.505 565.977 796.31 565.977C798.115 565.977 799.322 564.277 799.31 560.516C799.31 556.812 798.115 555.043 796.31 555.031C794.517 555.043 793.322 556.812 793.31 560.516ZM811.493 569.234C807.626 569.234 804.872 567.102 804.837 564.055H808.868C808.903 565.191 810.005 565.965 811.517 565.977C813.017 565.965 814.095 565.121 814.071 563.891C814.095 562.66 812.946 561.793 811.165 561.781H809.524V558.922H811.165C812.712 558.934 813.79 558.102 813.79 556.883C813.79 555.734 812.876 554.926 811.517 554.914C810.122 554.926 809.032 555.723 809.009 556.906H805.165C805.212 553.895 807.884 551.797 811.54 551.797C815.161 551.797 817.646 553.883 817.634 556.648C817.646 558.547 816.263 559.871 814.306 560.164V560.281C816.907 560.598 818.278 562.086 818.267 564.195C818.278 567.137 815.454 569.234 811.493 569.234ZM821.637 569.234C820.477 569.234 819.505 568.285 819.528 567.102C819.505 565.953 820.477 565.016 821.637 565.016C822.762 565.016 823.758 565.953 823.77 567.102C823.758 568.285 822.762 569.234 821.637 569.234Z" fill="#2F5BC1"/>
<path d="M725.656 586.891C725.641 589.445 727.188 592.023 729.359 592.984L728.469 594.156C726.859 593.391 725.586 591.82 724.93 589.906C724.281 591.961 722.992 593.648 721.312 594.469L720.406 593.219C722.609 592.242 724.156 589.562 724.156 586.891V584.5H725.656V586.891ZM730.625 597.359V583.328H732.109V597.359H730.625ZM745.332 583.328V590.531H743.847V586.938H740.894V585.734H743.847V583.328H745.332ZM733.613 589.406C735.8 588.711 737.105 586.969 737.113 585V583.781H738.582V585C738.582 586.781 739.863 588.438 741.972 589.109L741.191 590.266C739.652 589.734 738.488 588.68 737.871 587.344C737.261 588.852 736.066 590.023 734.41 590.594L733.613 589.406ZM736.175 592.359V591.188H745.332V594.672H737.66V595.969H745.816V597.156H736.207V593.547H743.863V592.359H736.175ZM758.476 583.344V594.016H756.991V591.125H754.741V589.938H756.991V588.203H754.741V586.984H756.991V583.344H758.476ZM746.819 586.172V584.969H750.101V583.328H751.569V584.969H754.694V586.172H746.819ZM747.601 589.531C747.601 587.93 748.929 586.836 750.819 586.844C752.702 586.836 754.046 587.93 754.054 589.531C754.046 591.141 752.702 592.234 750.819 592.234C748.929 592.234 747.601 591.141 747.601 589.531ZM748.991 589.531C748.984 590.484 749.734 591.078 750.819 591.078C751.89 591.078 752.648 590.484 752.663 589.531C752.648 588.609 751.89 588.016 750.819 588C749.734 588.016 748.984 588.609 748.991 589.531ZM749.335 597.031V593.078H750.835V595.828H758.788V597.031H749.335ZM771.964 583.328V597.328H770.542V590.094H768.729V596.609H767.37V583.609H768.729V588.875H770.542V583.328H771.964ZM760.417 593.969V585.016H765.667V586.219H761.901V592.703C763.62 592.695 764.917 592.617 766.417 592.328L766.526 593.547C764.846 593.898 763.393 593.953 761.354 593.969H760.417ZM784.061 583.328V589.188H786.17V590.438H784.061V597.328H782.576V583.328H784.061ZM772.92 593.516C774.022 593.516 775.303 593.516 776.639 593.477V592.055C775.061 591.82 774.03 590.867 774.045 589.516C774.03 587.938 775.397 586.898 777.389 586.891C779.373 586.898 780.756 587.938 780.764 589.516C780.756 590.867 779.709 591.828 778.123 592.055V593.422C779.366 593.359 780.616 593.258 781.78 593.094L781.873 594.188C778.842 594.727 775.569 594.758 773.155 594.75L772.92 593.516ZM773.186 586.172V584.984H776.639V583.359H778.123V584.984H781.576V586.172H773.186ZM775.436 589.516C775.436 590.406 776.217 590.961 777.389 590.953C778.561 590.961 779.334 590.406 779.342 589.516C779.334 588.617 778.561 588.047 777.389 588.047C776.217 588.047 775.436 588.617 775.436 589.516ZM791.096 586.891C791.08 589.367 792.525 591.906 794.611 592.922L793.689 594.109C792.166 593.312 790.986 591.75 790.369 589.883C789.744 591.867 788.518 593.547 786.924 594.375L786.002 593.172C788.15 592.141 789.603 589.453 789.611 586.891V584.5H791.096V586.891ZM795.658 597.328V583.328H797.143V588.906H799.393V590.172H797.143V597.328H795.658ZM803.255 583.969C805.099 583.953 806.529 585.023 806.833 586.594H809.568V583.328H811.052V590.844H809.568V587.812H806.841C806.552 589.422 805.115 590.5 803.255 590.5C801.115 590.5 799.576 589.148 799.583 587.219C799.576 585.312 801.115 583.953 803.255 583.969ZM801.005 587.219C800.998 588.414 801.935 589.25 803.255 589.25C804.552 589.25 805.474 588.414 805.474 587.219C805.474 586.016 804.552 585.195 803.255 585.203C801.935 585.195 800.998 586.016 801.005 587.219ZM801.927 597.156V591.516H803.396V593.141H809.568V591.516H811.052V597.156H801.927ZM803.396 595.938H809.568V594.312H803.396V595.938ZM731.859 613.781V614.969H727.625V618.391H733.328V619.609H720.516V618.391H726.156V614.969H722.109V608.406H731.734V609.609H723.594V613.781H731.859ZM745.707 607.328V621.328H744.285V614.031H742.55V620.641H741.144V607.594H742.55V612.812H744.285V607.328H745.707ZM734.128 617.641V608.906H739.566V617.641H734.128ZM735.535 616.453H738.175V610.078H735.535V616.453ZM758.523 607.344V617.906H757.023V616.078H754.054V614.891H757.023V607.344H758.523ZM746.71 612.797C748.468 612.789 750.655 612.766 752.819 612.625C753.054 611.203 753.116 610.109 753.124 609.328H747.976V608.125H754.616V608.672C754.609 609.43 754.609 610.727 754.319 612.508C754.835 612.453 755.343 612.398 755.835 612.328L755.944 613.406C754.687 613.617 753.382 613.758 752.101 613.844V617H750.616V613.922C749.28 613.984 748.015 614 746.913 614L746.71 612.797ZM748.757 621.031V616.766H750.241V619.828H758.866V621.031H748.757ZM763.655 620V618.75L767.576 614.797C768.819 613.508 769.436 612.789 769.436 611.797C769.436 610.68 768.53 609.969 767.342 609.969C766.084 609.969 765.287 610.766 765.28 611.969H763.655C763.639 609.898 765.217 608.531 767.373 608.531C769.553 608.531 771.061 609.914 771.076 611.75C771.061 613.016 770.467 614.023 768.342 616.109L766.045 618.438V618.531H771.264V620H763.655ZM778.314 616.125C781.346 616.125 783.26 617.086 783.268 618.719C783.26 620.344 781.346 621.305 778.314 621.297C775.314 621.305 773.393 620.344 773.393 618.719C773.393 617.086 775.314 616.125 778.314 616.125ZM772.018 614.969V613.766H777.127V611.141H778.58V613.766H784.752V614.969H772.018ZM773.502 609.203V608.016H783.158V609.188C783.166 610.305 783.166 611.461 782.768 612.906L781.314 612.75C781.689 611.32 781.689 610.289 781.689 609.203H773.502ZM774.877 618.719C774.861 619.625 776.197 620.148 778.314 620.156C780.455 620.148 781.783 619.625 781.799 618.719C781.783 617.797 780.455 617.258 778.314 617.25C776.197 617.258 774.861 617.797 774.877 618.719ZM796.287 608.203V609.438C796.287 610.766 796.287 612.211 795.896 614.203H797.912V615.422H792.24V621.344H790.74V615.422H785.146V614.203H794.396C794.81 612.203 794.81 610.742 794.818 609.438V609.422H786.708V608.203H796.287ZM813.184 607.328V614.531H811.7V610.938H808.747V609.734H811.7V607.328H813.184ZM801.465 613.406C803.653 612.711 804.958 610.969 804.965 609V607.781H806.434V609C806.434 610.781 807.715 612.438 809.825 613.109L809.044 614.266C807.505 613.734 806.34 612.68 805.723 611.344C805.114 612.852 803.919 614.023 802.262 614.594L801.465 613.406ZM804.028 616.359V615.188H813.184V618.672H805.512V619.969H813.669V621.156H804.059V617.547H811.715V616.359H804.028ZM826.688 607.328V621.328H825.282V607.328H826.688ZM814.578 617.281C817.555 615.516 818.977 613.164 819.235 610.281H815.266V609.062H820.703C820.703 609.781 820.649 610.477 820.539 611.156H822.422V607.688H823.828V620.641H822.422V615.875H820.032V614.656H822.422V612.375H820.266C819.586 614.727 818.094 616.773 815.453 618.344L814.578 617.281ZM843.788 614.156V615.359H831.023V614.156H834.085V612.273C832.999 611.836 832.39 611.133 832.398 610.203C832.39 608.539 834.32 607.57 837.398 607.578C840.468 607.57 842.39 608.539 842.398 610.203C842.39 611.133 841.781 611.836 840.695 612.281V614.156H843.788ZM832.538 618.797C832.538 617.195 834.351 616.312 837.398 616.312C840.406 616.312 842.218 617.195 842.226 618.797C842.218 620.414 840.406 621.297 837.398 621.297C834.351 621.297 832.538 620.414 832.538 618.797ZM833.929 610.203C833.921 611.141 835.218 611.664 837.398 611.672C839.562 611.664 840.874 611.141 840.867 610.203C840.874 609.266 839.562 608.727 837.398 608.719C835.218 608.727 833.921 609.266 833.929 610.203ZM834.038 618.797C834.031 619.672 835.257 620.172 837.398 620.156C839.507 620.172 840.742 619.672 840.742 618.797C840.742 617.938 839.507 617.453 837.398 617.453C835.257 617.453 834.031 617.938 834.038 618.797ZM835.585 614.156H839.226V612.664C838.679 612.75 838.062 612.797 837.398 612.797C836.742 612.797 836.132 612.75 835.585 612.672V614.156ZM855.839 616.312V621.328H854.354V617.484H846.354V616.312H855.839ZM844.37 611.484C844.362 609.508 845.933 608.102 848.042 608.109C849.229 608.102 850.253 608.562 850.901 609.328H854.354V607.328H855.839V615.578H854.354V613.656H850.901C850.245 614.422 849.229 614.883 848.042 614.875C845.933 614.883 844.362 613.477 844.37 611.484ZM845.792 611.484C845.784 612.766 846.729 613.617 848.042 613.625C849.3 613.617 850.261 612.766 850.261 611.484C850.261 610.234 849.3 609.367 848.042 609.359C846.729 609.367 845.784 610.234 845.792 611.484ZM851.55 612.438H854.354V610.547H851.558C851.636 610.844 851.683 611.156 851.683 611.484C851.683 611.82 851.636 612.141 851.55 612.438ZM865.674 610.891C865.658 613.445 867.205 616.023 869.377 616.984L868.486 618.156C866.877 617.391 865.604 615.82 864.947 613.906C864.299 615.961 863.01 617.648 861.33 618.469L860.424 617.219C862.627 616.242 864.174 613.562 864.174 610.891V608.5H865.674V610.891ZM870.643 621.359V607.328H872.127V621.359H870.643ZM885.615 607.328V616.156H884.209V612.25H882.584V615.672H881.193V607.594H882.584V611.031H884.209V607.328H885.615ZM873.599 610.094V608.922H876.428V607.438H877.896V608.922H880.678V610.094H873.599ZM874.146 613.156C874.146 611.703 875.396 610.75 877.146 610.75C878.935 610.75 880.178 611.703 880.178 613.156C880.178 614.609 878.935 615.562 877.146 615.562C875.396 615.562 874.146 614.609 874.146 613.156ZM875.474 613.156C875.474 613.953 876.154 614.477 877.146 614.484C878.154 614.477 878.842 613.953 878.834 613.156C878.842 612.359 878.154 611.836 877.146 611.844C876.154 611.836 875.474 612.359 875.474 613.156ZM876.193 618.844C876.178 617.258 877.959 616.359 880.928 616.359C883.904 616.359 885.685 617.258 885.693 618.844C885.685 620.414 883.904 621.305 880.928 621.297C877.959 621.305 876.178 620.414 876.193 618.844ZM877.662 618.844C877.646 619.688 878.849 620.172 880.928 620.156C883.013 620.172 884.201 619.688 884.209 618.844C884.201 617.961 883.013 617.492 880.928 617.5C878.849 617.492 877.646 617.961 877.662 618.844Z" fill="black"/>
<path d="M1.24219 400V397.117L7.42969 391.68C8.87109 390.367 9.69141 389.5 9.70312 388.211C9.69141 386.793 8.64844 385.926 7.21875 385.914C5.76562 385.926 4.79297 386.84 4.80469 388.375H1.00781C0.996094 384.953 3.50391 382.797 7.24219 382.797C11.0625 382.797 13.5586 384.871 13.5703 387.906C13.5586 389.852 12.5977 391.48 8.92969 394.68L6.79688 396.648V396.766H13.7812V400H1.24219ZM22.3316 400.234C17.9254 400.234 15.2301 397.082 15.2301 391.516C15.2301 385.949 17.9254 382.797 22.3316 382.797C26.7379 382.797 29.4449 385.973 29.4332 391.516C29.4449 397.094 26.7379 400.234 22.3316 400.234ZM19.3316 391.516C19.3199 395.277 20.5269 396.977 22.3316 396.977C24.1363 396.977 25.3433 395.277 25.3316 391.516C25.3316 387.812 24.1363 386.043 22.3316 386.031C20.5387 386.043 19.3433 387.812 19.3316 391.516ZM38.8273 383.031V400H34.8195V386.781H34.7257L30.9054 389.125V385.656L35.1007 383.031H38.8273ZM49.6277 383.031V400H45.6199V386.781H45.5261L41.7058 389.125V385.656L45.9011 383.031H49.6277ZM54.0531 400.234C52.8929 400.234 51.9202 399.285 51.9437 398.102C51.9202 396.953 52.8929 396.016 54.0531 396.016C55.1781 396.016 56.1742 396.953 56.1859 398.102C56.1742 399.285 55.1781 400.234 54.0531 400.234ZM68.7397 400.234C64.3335 400.234 61.6382 397.082 61.6382 391.516C61.6382 385.949 64.3335 382.797 68.7397 382.797C73.146 382.797 75.853 385.973 75.8413 391.516C75.853 397.094 73.146 400.234 68.7397 400.234ZM65.7397 391.516C65.728 395.277 66.9351 396.977 68.7397 396.977C70.5444 396.977 71.7515 395.277 71.7397 391.516C71.7397 387.812 70.5444 386.043 68.7397 386.031C66.9468 386.043 65.7515 387.812 65.7397 391.516ZM84.2745 400.234C80.5714 400.223 77.1964 398.02 77.1964 391.82C77.2198 386.195 80.0323 382.797 84.3682 382.797C87.9307 382.797 90.3448 385.059 90.6729 387.906H86.7354C86.4776 386.805 85.5636 386.207 84.3682 386.219C82.2237 386.207 81.1573 388.176 81.1573 391.258H81.2745C82.0011 389.723 83.712 388.82 85.6104 388.82C88.6807 388.82 90.8722 391.105 90.8604 394.258C90.8722 397.797 88.1886 400.234 84.2745 400.234ZM81.5323 394.398C81.5323 395.934 82.6807 397.152 84.2511 397.141C85.8331 397.152 86.9932 395.957 86.9698 394.375C86.9932 392.816 85.8448 391.633 84.2745 391.633C82.7042 391.633 81.5323 392.84 81.5323 394.398ZM94.0436 400.234C92.8835 400.234 91.9108 399.285 91.9342 398.102C91.9108 396.953 92.8835 396.016 94.0436 396.016C95.1686 396.016 96.1647 396.953 96.1764 398.102C96.1647 399.285 95.1686 400.234 94.0436 400.234Z" fill="#2F5BC1"/>
<path d="M11.4219 414.328V419.906H13.5938V421.141H11.4219V428.312H9.9375V414.328H11.4219ZM0.53125 424.578C4.03906 422.828 5.94531 420.297 6.25 417.031H1.23438V415.797H7.76562C7.75 419.844 5.96875 423.461 1.35938 425.734L0.53125 424.578ZM20.5972 415.156V419.156H15.7222V420.953C18.1519 420.938 19.8707 420.859 21.9097 420.516L22.066 421.719C19.9019 422.086 18.0504 422.18 15.3629 422.172H14.2379V418H19.1441V416.359H14.2222V415.156H20.5972ZM15.4097 424.75V423.547H24.6597V428.312H23.1754V424.75H15.4097ZM23.1754 422.844V414.344H24.6597V417.844H26.7066V419.078H24.6597V422.844H23.1754ZM31.9445 417.891C31.9289 420.445 33.4757 423.023 35.6476 423.984L34.757 425.156C33.1476 424.391 31.8742 422.82 31.2179 420.906C30.5695 422.961 29.2804 424.648 27.6007 425.469L26.6945 424.219C28.8976 423.242 30.4445 420.562 30.4445 417.891V415.5H31.9445V417.891ZM36.9132 428.359V414.328H38.3976V428.359H36.9132ZM44.8386 416.906C44.8308 418.688 46.073 420.312 48.198 420.984L47.4949 422.141C45.9011 421.633 44.7371 420.578 44.1199 419.25C43.5105 420.781 42.2839 421.992 40.6042 422.578L39.8386 421.391C42.0261 420.672 43.3464 418.867 43.3542 416.922V416.531H40.2761V415.328H47.8542V416.531H44.8386V416.906ZM41.7292 425.672C41.7292 424.031 43.5183 423.07 46.4324 423.078C49.3152 423.07 51.073 424.031 51.073 425.672C51.073 427.336 49.3152 428.305 46.4324 428.297C43.5183 428.305 41.7292 427.336 41.7292 425.672ZM43.2136 425.672C43.2058 426.609 44.4089 427.133 46.4324 427.125C48.4402 427.133 49.6277 426.609 49.6199 425.672C49.6277 424.758 48.4402 424.242 46.4324 424.25C44.4089 424.242 43.2058 424.758 43.2136 425.672ZM49.4636 422.734V414.328H50.948V417.797H52.9792V419.016H50.948V422.734H49.4636ZM5.65625 441.891C5.64062 444.445 7.1875 447.023 9.35938 447.984L8.46875 449.156C6.85938 448.391 5.58594 446.82 4.92969 444.906C4.28125 446.961 2.99219 448.648 1.3125 449.469L0.40625 448.219C2.60938 447.242 4.15625 444.562 4.15625 441.891V439.5H5.65625V441.891ZM10.625 452.359V438.328H12.1094V452.359H10.625ZM25.3316 438.328V445.531H23.8472V441.938H20.8941V440.734H23.8472V438.328H25.3316ZM13.6129 444.406C15.8004 443.711 17.1051 441.969 17.1129 440V438.781H18.5816V440C18.5816 441.781 19.8629 443.438 21.9722 444.109L21.191 445.266C19.6519 444.734 18.4879 443.68 17.8707 442.344C17.2613 443.852 16.066 445.023 14.4097 445.594L13.6129 444.406ZM16.1754 447.359V446.188H25.3316V449.672H17.6597V450.969H25.816V452.156H16.2066V448.547H23.8629V447.359H16.1754ZM38.4757 438.344V449.016H36.9914V446.125H34.7414V444.938H36.9914V443.203H34.7414V441.984H36.9914V438.344H38.4757ZM26.8195 441.172V439.969H30.1007V438.328H31.5695V439.969H34.6945V441.172H26.8195ZM27.6007 444.531C27.6007 442.93 28.9289 441.836 30.8195 441.844C32.7023 441.836 34.0461 442.93 34.0539 444.531C34.0461 446.141 32.7023 447.234 30.8195 447.234C28.9289 447.234 27.6007 446.141 27.6007 444.531ZM28.9914 444.531C28.9836 445.484 29.7336 446.078 30.8195 446.078C31.8898 446.078 32.6476 445.484 32.6632 444.531C32.6476 443.609 31.8898 443.016 30.8195 443C29.7336 443.016 28.9836 443.609 28.9914 444.531ZM29.3351 452.031V448.078H30.8351V450.828H38.7882V452.031H29.3351ZM51.9636 438.328V452.328H50.5417V445.094H48.7292V451.609H47.3699V438.609H48.7292V443.875H50.5417V438.328H51.9636ZM40.4167 448.969V440.016H45.6667V441.219H41.9011V447.703C43.6199 447.695 44.9167 447.617 46.4167 447.328L46.5261 448.547C44.8464 448.898 43.3933 448.953 41.3542 448.969H40.4167ZM64.0609 438.328V444.188H66.1702V445.438H64.0609V452.328H62.5765V438.328H64.0609ZM52.9202 448.516C54.0218 448.516 55.3031 448.516 56.639 448.477V447.055C55.0609 446.82 54.0296 445.867 54.0452 444.516C54.0296 442.938 55.3968 441.898 57.389 441.891C59.3734 441.898 60.7562 442.938 60.764 444.516C60.7562 445.867 59.7093 446.828 58.1234 447.055V448.422C59.3656 448.359 60.6156 448.258 61.7796 448.094L61.8734 449.188C58.8421 449.727 55.5687 449.758 53.1546 449.75L52.9202 448.516ZM53.1859 441.172V439.984H56.639V438.359H58.1234V439.984H61.5765V441.172H53.1859ZM55.4359 444.516C55.4359 445.406 56.2171 445.961 57.389 445.953C58.5609 445.961 59.3343 445.406 59.3421 444.516C59.3343 443.617 58.5609 443.047 57.389 443.047C56.2171 443.047 55.4359 443.617 55.4359 444.516ZM71.0956 441.891C71.08 444.367 72.5253 446.906 74.6113 447.922L73.6894 449.109C72.1659 448.312 70.9863 446.75 70.3691 444.883C69.7441 446.867 68.5175 448.547 66.9238 449.375L66.0019 448.172C68.1503 447.141 69.6034 444.453 69.6113 441.891V439.5H71.0956V441.891ZM75.6581 452.328V438.328H77.1425V443.906H79.3925V445.172H77.1425V452.328H75.6581ZM83.2554 438.969C85.0991 438.953 86.5288 440.023 86.8335 441.594H89.5679V438.328H91.0522V445.844H89.5679V442.812H86.8413C86.5522 444.422 85.1147 445.5 83.2554 445.5C81.1147 445.5 79.5757 444.148 79.5835 442.219C79.5757 440.312 81.1147 438.953 83.2554 438.969ZM81.0054 442.219C80.9976 443.414 81.9351 444.25 83.2554 444.25C84.5522 444.25 85.4741 443.414 85.4741 442.219C85.4741 441.016 84.5522 440.195 83.2554 440.203C81.9351 440.195 80.9976 441.016 81.0054 442.219ZM81.9272 452.156V446.516H83.396V448.141H89.5679V446.516H91.0522V452.156H81.9272ZM83.396 450.938H89.5679V449.312H83.396V450.938ZM100.653 441.359C100.653 443.008 101.919 444.57 104.059 445.172L103.356 446.359C101.755 445.875 100.559 444.852 99.9421 443.555C99.3249 444.977 98.1061 446.086 96.4655 446.609L95.7311 445.453C97.8717 444.805 99.1842 443.148 99.1842 441.359V441.156H96.1374V439.969H99.1842V438.281H100.669V439.969H103.7V441.156H100.653V441.359ZM97.4967 448.766V447.562H106.747V452.344H105.262V448.766H97.4967ZM105.262 446.891V438.328H106.747V441.969H108.778V443.234H106.747V446.891H105.262ZM115.203 447.125C118.235 447.125 120.149 448.086 120.157 449.719C120.149 451.344 118.235 452.305 115.203 452.297C112.203 452.305 110.282 451.344 110.282 449.719C110.282 448.086 112.203 447.125 115.203 447.125ZM108.907 445.969V444.766H114.016V442.141H115.469V444.766H121.641V445.969H108.907ZM110.391 440.203V439.016H120.047V440.188C120.055 441.305 120.055 442.461 119.657 443.906L118.203 443.75C118.578 442.32 118.578 441.289 118.578 440.203H110.391ZM111.766 449.719C111.75 450.625 113.086 451.148 115.203 451.156C117.344 451.148 118.672 450.625 118.688 449.719C118.672 448.797 117.344 448.258 115.203 448.25C113.086 448.258 111.75 448.797 111.766 449.719Z" fill="black"/>
<circle cx="160" cy="390" r="10" transform="rotate(90 160 390)" fill="white"/>
<circle cx="160" cy="390" r="6" transform="rotate(90 160 390)" fill="#959292"/>
<path d="M150 390L104 390" stroke="#333333" stroke-width="2" stroke-dasharray="4 4"/>
<path d="M253 94.0312V111H248.992V97.7812H248.898L245.078 100.125V96.6562L249.273 94.0312H253ZM262.441 93.7969C266.132 93.8086 269.484 96.0117 269.496 102.141C269.507 107.824 266.683 111.234 262.347 111.234C258.761 111.234 256.347 108.984 256.019 106.078H259.98C260.226 107.215 261.14 107.824 262.347 107.812C264.48 107.824 265.546 105.855 265.558 102.727H265.441C264.703 104.238 262.992 105.152 261.082 105.141C258.023 105.152 255.855 102.879 255.855 99.75C255.832 96.2461 258.503 93.7852 262.441 93.7969ZM259.722 99.6094C259.746 101.156 260.859 102.34 262.441 102.352C264 102.34 265.195 101.121 265.183 99.6094C265.171 98.0977 264.023 96.8789 262.464 96.8672C260.871 96.8789 259.711 98.0742 259.722 99.6094ZM277.671 111.234C273.675 111.234 270.792 109.172 270.804 106.406C270.792 104.297 272.48 102.586 274.624 102.258V102.141C272.749 101.789 271.437 100.254 271.437 98.3906C271.437 95.7305 274.073 93.7969 277.671 93.7969C281.245 93.7969 283.882 95.7422 283.882 98.3906C283.882 100.266 282.534 101.789 280.694 102.141V102.258C282.804 102.586 284.515 104.297 284.515 106.406C284.515 109.172 281.632 111.234 277.671 111.234ZM274.999 105.984C274.987 107.32 276.077 108.27 277.671 108.281C279.241 108.27 280.319 107.32 280.319 105.984C280.319 104.648 279.194 103.664 277.671 103.664C276.112 103.664 274.987 104.637 274.999 105.984ZM275.351 98.8125C275.339 100.043 276.312 100.922 277.671 100.922C279.007 100.922 279.98 100.043 279.968 98.8125C279.98 97.6055 279.019 96.75 277.671 96.75C276.3 96.75 275.339 97.6055 275.351 98.8125ZM292.573 111.234C288.858 111.234 286.186 109.078 286.128 106.055H290.018C290.077 107.309 291.19 108.152 292.573 108.141C294.167 108.152 295.303 107.027 295.292 105.375C295.303 103.723 294.155 102.586 292.526 102.586C291.319 102.586 290.499 103.066 290.042 103.969H286.456L287.3 94.0312H298.151V97.2656H290.581L290.182 101.32H290.3C290.874 100.395 292.21 99.7148 293.792 99.7266C296.874 99.7148 299.159 102.023 299.159 105.258C299.159 108.75 296.522 111.234 292.573 111.234ZM302.436 111.234C301.276 111.234 300.303 110.285 300.326 109.102C300.303 107.953 301.276 107.016 302.436 107.016C303.561 107.016 304.557 107.953 304.569 109.102C304.557 110.285 303.561 111.234 302.436 111.234ZM317.123 111.234C312.716 111.234 310.021 108.082 310.021 102.516C310.021 96.9492 312.716 93.7969 317.123 93.7969C321.529 93.7969 324.236 96.9727 324.224 102.516C324.236 108.094 321.529 111.234 317.123 111.234ZM314.123 102.516C314.111 106.277 315.318 107.977 317.123 107.977C318.927 107.977 320.134 106.277 320.123 102.516C320.123 98.8125 318.927 97.043 317.123 97.0312C315.33 97.043 314.134 98.8125 314.123 102.516ZM332.657 111.234C328.954 111.223 325.579 109.02 325.579 102.82C325.603 97.1953 328.415 93.7969 332.751 93.7969C336.314 93.7969 338.728 96.0586 339.056 98.9062H335.118C334.86 97.8047 333.946 97.207 332.751 97.2188C330.607 97.207 329.54 99.1758 329.54 102.258H329.657C330.384 100.723 332.095 99.8203 333.993 99.8203C337.064 99.8203 339.255 102.105 339.243 105.258C339.255 108.797 336.571 111.234 332.657 111.234ZM329.915 105.398C329.915 106.934 331.064 108.152 332.634 108.141C334.216 108.152 335.376 106.957 335.353 105.375C335.376 103.816 334.228 102.633 332.657 102.633C331.087 102.633 329.915 103.84 329.915 105.398ZM342.426 111.234C341.266 111.234 340.294 110.285 340.317 109.102C340.294 107.953 341.266 107.016 342.426 107.016C343.551 107.016 344.548 107.953 344.559 109.102C344.548 110.285 343.551 111.234 342.426 111.234Z" fill="#2F5BC1"/>
<path d="M255.422 125.328V130.906H257.594V132.141H255.422V139.312H253.938V125.328H255.422ZM244.531 135.578C248.039 133.828 249.945 131.297 250.25 128.031H245.234V126.797H251.766C251.75 130.844 249.969 134.461 245.359 136.734L244.531 135.578ZM264.597 126.156V130.156H259.722V131.953C262.152 131.938 263.871 131.859 265.91 131.516L266.066 132.719C263.902 133.086 262.05 133.18 259.363 133.172H258.238V129H263.144V127.359H258.222V126.156H264.597ZM259.41 135.75V134.547H268.66V139.312H267.175V135.75H259.41ZM267.175 133.844V125.344H268.66V128.844H270.707V130.078H268.66V133.844H267.175ZM275.944 128.891C275.929 131.445 277.476 134.023 279.648 134.984L278.757 136.156C277.148 135.391 275.874 133.82 275.218 131.906C274.569 133.961 273.28 135.648 271.601 136.469L270.694 135.219C272.898 134.242 274.444 131.562 274.444 128.891V126.5H275.944V128.891ZM280.913 139.359V125.328H282.398V139.359H280.913ZM288.839 127.906C288.831 129.688 290.073 131.312 292.198 131.984L291.495 133.141C289.901 132.633 288.737 131.578 288.12 130.25C287.51 131.781 286.284 132.992 284.604 133.578L283.839 132.391C286.026 131.672 287.346 129.867 287.354 127.922V127.531H284.276V126.328H291.854V127.531H288.839V127.906ZM285.729 136.672C285.729 135.031 287.518 134.07 290.432 134.078C293.315 134.07 295.073 135.031 295.073 136.672C295.073 138.336 293.315 139.305 290.432 139.297C287.518 139.305 285.729 138.336 285.729 136.672ZM287.214 136.672C287.206 137.609 288.409 138.133 290.432 138.125C292.44 138.133 293.628 137.609 293.62 136.672C293.628 135.758 292.44 135.242 290.432 135.25C288.409 135.242 287.206 135.758 287.214 136.672ZM293.464 133.734V125.328H294.948V128.797H296.979V130.016H294.948V133.734H293.464ZM305.221 128.312C305.221 129.961 306.572 131.5 308.705 132.094L308.002 133.25C306.377 132.789 305.158 131.789 304.518 130.492C303.908 131.938 302.689 133.086 301.018 133.609L300.314 132.469C302.439 131.789 303.752 130.117 303.752 128.312V128.141H300.705V126.953H303.752V125.266H305.236V126.953H308.268V128.141H305.221V128.312ZM302.564 136.703C302.557 135.062 304.361 134.133 307.299 134.125C310.228 134.133 312.025 135.062 312.033 136.703C312.025 138.352 310.228 139.305 307.299 139.297C304.361 139.305 302.557 138.352 302.564 136.703ZM304.033 136.703C304.025 137.609 305.244 138.148 307.299 138.156C309.353 138.148 310.557 137.609 310.564 136.703C310.557 135.797 309.353 135.281 307.299 135.281C305.244 135.281 304.025 135.797 304.033 136.703ZM307.83 130.469V129.25H310.502V125.328H311.986V133.812H310.502V130.469H307.83ZM321.255 126.828V127.688C321.248 128.867 321.248 130.672 320.849 133.172L319.38 133.062C319.74 130.828 319.779 129.195 319.787 128.031H314.099V126.828H321.255ZM313.318 135.109C314.193 135.102 315.169 135.094 316.193 135.07V130.828H317.662V135.023C319.146 134.961 320.669 134.867 322.068 134.688L322.146 135.797C319.232 136.266 315.974 136.328 313.49 136.312L313.318 135.109ZM322.865 139.328V125.328H324.365V131.109H326.505V132.375H324.365V139.328H322.865ZM329.118 136.922L327.868 141.234H326.54L327.368 136.922H329.118ZM340.407 126.562C340.399 128.422 342.672 130.164 345.422 130.531L344.844 131.75C342.555 131.383 340.547 130.195 339.633 128.547C338.719 130.195 336.711 131.383 334.438 131.75L333.844 130.531C336.586 130.164 338.852 128.445 338.86 126.562V125.797H340.407V126.562ZM333.235 134.344V133.125H346V134.344H340.313V139.328H338.86V134.344H333.235ZM351.238 127.891C351.238 129.766 352.543 131.531 354.676 132.25L353.91 133.422C352.34 132.875 351.168 131.758 350.551 130.344C349.941 131.922 348.738 133.141 347.098 133.75L346.269 132.578C348.488 131.82 349.762 129.93 349.769 127.844V126.188H351.238V127.891ZM348.519 139.031V134.641H350.035V137.828H357.988V139.031H348.519ZM355.894 135.641V125.312H357.379V129.531H359.41V130.797H357.379V135.641H355.894ZM364.663 128.891C364.648 131.445 366.195 134.023 368.367 134.984L367.476 136.156C365.867 135.391 364.593 133.82 363.937 131.906C363.288 133.961 361.999 135.648 360.32 136.469L359.413 135.219C361.617 134.242 363.163 131.562 363.163 128.891V126.5H364.663V128.891ZM369.632 139.359V125.328H371.117V139.359H369.632ZM377.558 127.906C377.55 129.688 378.792 131.312 380.917 131.984L380.214 133.141C378.62 132.633 377.456 131.578 376.839 130.25C376.229 131.781 375.003 132.992 373.323 133.578L372.558 132.391C374.745 131.672 376.065 129.867 376.073 127.922V127.531H372.995V126.328H380.573V127.531H377.558V127.906ZM374.448 136.672C374.448 135.031 376.237 134.07 379.151 134.078C382.034 134.07 383.792 135.031 383.792 136.672C383.792 138.336 382.034 139.305 379.151 139.297C376.237 139.305 374.448 138.336 374.448 136.672ZM375.933 136.672C375.925 137.609 377.128 138.133 379.151 138.125C381.159 138.133 382.347 137.609 382.339 136.672C382.347 135.758 381.159 135.242 379.151 135.25C377.128 135.242 375.925 135.758 375.933 136.672ZM382.183 133.734V125.328H383.667V128.797H385.698V130.016H383.667V133.734H382.183ZM401.018 125.328V139.328H399.596V132.062H397.861V138.656H396.471V125.703H397.861V130.859H399.596V125.328H401.018ZM388.986 135.328C392.096 133.562 393.401 131.18 393.635 128.328H389.58V127.109H395.08C395.072 130.789 393.854 134.102 389.846 136.359L388.986 135.328ZM407.068 127.906C407.06 129.688 408.303 131.312 410.428 131.984L409.724 133.141C408.131 132.633 406.967 131.578 406.349 130.25C405.74 131.781 404.513 132.992 402.834 133.578L402.068 132.391C404.256 131.672 405.576 129.867 405.584 127.922V127.531H402.506V126.328H410.084V127.531H407.068V127.906ZM403.959 136.672C403.959 135.031 405.748 134.07 408.662 134.078C411.545 134.07 413.303 135.031 413.303 136.672C413.303 138.336 411.545 139.305 408.662 139.297C405.748 139.305 403.959 138.336 403.959 136.672ZM405.443 136.672C405.435 137.609 406.638 138.133 408.662 138.125C410.67 138.133 411.857 137.609 411.849 136.672C411.857 135.758 410.67 135.242 408.662 135.25C406.638 135.242 405.435 135.758 405.443 136.672ZM411.693 133.734V125.328H413.178V128.797H415.209V130.016H413.178V133.734H411.693Z" fill="black"/>
<defs>
<linearGradient id="paint0_linear_618_1707" x1="512" y1="42" x2="512" y2="501" gradientUnits="userSpaceOnUse">
<stop stop-color="#EEEEEE"/>
<stop offset="1" stop-color="#2F5BC1"/>
</linearGradient>
<clipPath id="clip0_618_1707">
<rect width="72" height="72" fill="white" transform="translate(37)"/>
</clipPath>
</defs>
</svg>
