<svg width="236" height="71" viewBox="0 0 236 71" fill="none" xmlns="http://www.w3.org/2000/svg">
<g clip-path="url(#clip0_428_1426)">
<path d="M38.7744 13.5325C38.7744 13.5325 45.0965 12.6601 49.7825 14.3603C48.9903 11.0391 47.2661 8.06486 44.8791 5.69043C44.6461 7.08832 44.0351 8.80346 43.1134 10.0824C42.1555 11.4158 41.0216 12.6254 38.7744 13.5325Z" fill="#257731"/>
<path d="M29.6771 10.7915C29.9826 7.54961 30.6091 3.12791 31.4479 0.0148712C31.2667 0.00991412 31.0803 0 30.8991 0C27.7561 0 24.7892 0.718774 22.1641 1.98282C24.5873 3.6137 27.4972 6.9845 29.6771 10.7915Z" fill="#257731"/>
<path d="M31.1372 17.0917C32.4317 15.2476 35.2432 12.9922 38.8367 11.5546C42.4715 10.0972 43.8333 7.89135 44.3148 5.15009C41.0372 2.15107 36.6516 0.237642 31.8052 0.0195312C31.3495 3.87613 30.8007 10.2906 31.1372 17.0917Z" fill="#229230"/>
<path d="M28.9415 27.0458C28.5998 22.3614 28.4134 16.9334 28.7189 11.6641C27.5021 9.20538 24.9287 4.56061 21.4596 2.33984C17.074 4.67462 13.7446 8.58079 12.3052 13.2603C14.4592 19.9077 22.1016 26.6988 28.9415 27.0458Z" fill="#8FC31F"/>
<path d="M31.5098 22.158C32.0949 27.2589 33.2961 32.2903 35.5019 36.3749C43.9728 34.4069 50.2639 27.13 50.2639 18.4551C50.2639 17.4042 50.1707 16.3781 49.9894 15.3768C45.0705 14.1722 34.5802 12.8239 31.5098 22.163V22.158Z" fill="#8FC31F"/>
<path d="M22.8992 27.66C19.5492 26.7627 15.7849 26.5545 13.7241 26.9858C16.8619 32.7063 23.0597 36.662 30.2466 36.8851C30.0187 35.0956 29.7547 32.7955 29.5217 30.1682C28.2997 29.6676 25.5451 28.3639 22.8992 27.66Z" fill="#229230"/>
<path d="M11.7617 19.0198C11.8601 21.5776 12.3623 23.8232 13.2322 25.9894C15.9143 25.3004 19.0314 25.8853 22.4384 26.0142C19.6061 24.5717 13.5481 18.7273 11.9585 14.5684C11.7255 15.9663 11.7099 17.5823 11.7617 19.0198Z" fill="#257731"/>
<path d="M56.5293 54.4881C55.6802 54.4881 54.9087 54.2204 54.3495 53.7346C53.7851 53.2389 53.4692 52.5846 53.4692 51.8857C53.4692 51.1867 53.7903 50.5324 54.3495 50.0466C54.9139 49.5509 55.6905 49.2832 56.5293 49.2832C57.3681 49.2832 58.1552 49.5558 58.7196 50.0466C59.2736 50.5274 59.5894 51.2016 59.5894 51.8857C59.5894 52.5697 59.2788 53.2489 58.7196 53.7346C58.1655 54.2204 57.3837 54.4881 56.5293 54.4881ZM56.5293 50.5522C56.0271 50.5522 55.6129 50.6861 55.3022 50.9488C54.9812 51.2065 54.8155 51.5188 54.8155 51.8857C54.8155 52.6441 55.5507 53.2142 56.5293 53.2142C57.5079 53.2142 58.238 52.6441 58.238 51.8857C58.238 51.5238 58.0827 51.2115 57.7668 50.9488C57.4406 50.6861 57.0212 50.5522 56.5242 50.5522H56.5293Z" fill="#257731"/>
<path d="M52.5889 45.8781L52.6614 45.8632C53.407 45.6947 54.1785 45.4914 54.7946 45.1345C55.271 44.8569 55.5765 44.5546 55.7266 44.2125H53.2102V42.9336H59.8171V44.2125H57.3318C57.4819 44.5496 57.7926 44.8619 58.2586 45.1345C58.8748 45.4964 59.6514 45.6996 60.4022 45.8632L60.4747 45.8781L59.8171 47.0281H59.7757C58.3466 46.7604 57.2282 46.2053 56.5396 45.4121C55.8354 46.2102 54.805 46.7208 53.2982 47.0182L53.2568 47.0281L52.594 45.8781H52.5889Z" fill="#257731"/>
<path d="M61.4998 47.7266H51.5532V48.9708H61.4998V47.7266Z" fill="#257731"/>
<path d="M7.4123 54.2204V51.4693H2.00146V50.1953H8.78442V54.2204H7.4123Z" fill="#257731"/>
<path d="M0.5 49.363V48.1138H4.78724V46.939H2.22939V44.6439C2.22939 44.049 2.05335 43.469 1.74786 43.008L1.69608 42.9287H3.62741V45.6799H8.92433V46.939H6.16972V48.1138H10.4466V49.363H0.5Z" fill="#257731"/>
<path d="M10.7676 48.0933L10.8194 48.0586C11.5235 47.6075 11.9688 47.1911 12.3623 46.6161C12.673 46.16 12.9682 45.6147 13.0251 44.6977C12.9837 44.1921 12.8232 43.7112 12.5591 43.3147L12.5073 43.2354H14.4231V44.3209C14.4231 45.1983 14.6095 45.8229 15.0704 46.4822C15.469 47.0473 15.9143 47.3943 16.5098 47.781L16.5616 47.8157L15.6347 48.822L15.5933 48.7972C14.7286 48.2668 14.1539 47.6868 13.7397 46.9333C13.3151 47.7463 12.6316 48.47 11.7565 49.0302L11.7203 49.0549L10.7779 48.0982L10.7676 48.0933Z" fill="#257731"/>
<path d="M18.6485 54.1963V51.0833H13.1807V49.8242H20.0206V54.1963H18.6485Z" fill="#257731"/>
<path d="M18.6898 49.373V46.4236H18.0218V49.259H16.6963V42.9437H18.0218V45.1645H18.6898V42.7256H20.0205V49.373H18.6898Z" fill="#257731"/>
<path d="M37.9614 54.1807V51.4593H32.5506V50.1903H35.3414V49.3575H31.0542V48.1133H41.0008V49.3575H36.7239V50.1903H39.3387V54.1807H37.9614Z" fill="#257731"/>
<path d="M32.1157 46.5521L32.1882 46.5372C32.9338 46.3687 33.7053 46.1654 34.3163 45.8085C34.803 45.521 35.0982 45.2285 35.2483 44.8865H32.7267V43.6076H35.3881C35.326 43.1763 35.1706 42.7698 34.948 42.4377L34.8962 42.3584H36.636V43.6125H39.3336V44.8915H36.8483C36.9984 45.2285 37.3091 45.5408 37.7751 45.8135C38.3913 46.1753 39.1679 46.3786 39.9187 46.5422L39.9912 46.557L39.3336 47.7071H39.2922C37.8631 47.4394 36.7447 46.8842 36.056 46.0911C35.3519 46.8892 34.3215 47.3997 32.8147 47.6972H32.7733L32.1157 46.5521Z" fill="#257731"/>
<path d="M44.5013 49.1545C43.7298 49.1545 43.0153 48.8521 42.482 48.3019C41.9538 47.7517 41.6587 46.9883 41.6587 46.1505C41.6587 45.3128 41.9487 44.5593 42.482 44.0091C43.0256 43.4489 43.7402 43.1416 44.5013 43.1416C45.2625 43.1416 45.9718 43.4589 46.5051 44.0091C47.0436 44.5643 47.3388 45.3227 47.3388 46.1505C47.3388 46.9784 47.0436 47.7467 46.5051 48.3019C45.9822 48.8422 45.2469 49.1545 44.5013 49.1545ZM44.5013 44.4651C43.6729 44.4651 43.0463 45.1889 43.0463 46.1505C43.0463 47.1122 43.6729 47.831 44.5013 47.831C44.8948 47.831 45.2417 47.6773 45.5265 47.365C45.8165 47.0428 45.9615 46.6314 45.9615 46.1456C45.9615 45.6598 45.8165 45.2484 45.5265 44.9361C45.2469 44.6238 44.9 44.4602 44.5013 44.4602V44.4651Z" fill="#257731"/>
<path d="M43.9781 54.1858V51.851C43.9678 51.2661 43.8021 50.7208 43.5018 50.2697L43.4448 50.1904H45.3762V52.9267H50.5902V54.1858H43.9781Z" fill="#257731"/>
<path d="M48.98 50.6221V44.2672C48.9489 43.7268 48.7832 43.2262 48.5088 42.8098L48.457 42.7305H50.3573V50.6221H48.9852H48.98Z" fill="#257731"/>
<path d="M28.4758 50.5873V46.9042H26.0318V46.5522C25.8558 46.8744 25.6487 47.1867 25.4105 47.4693C24.6131 48.4409 23.5102 49.2042 22.1381 49.7446L22.0967 49.7594L21.3511 48.6144L21.4132 48.5896C23.6293 47.727 24.8979 46.458 25.2914 44.7131H21.9258V43.4441H26.7567V43.4987C26.7567 44.272 26.648 44.9808 26.4305 45.6153V45.6401H28.4758V44.4207C28.4654 43.8258 28.2997 43.2756 27.9994 42.8195L27.9476 42.7402H29.8531V50.5972H28.4809L28.4758 50.5873Z" fill="#257731"/>
<path d="M23.474 54.1858V51.9006C23.474 51.3058 23.3032 50.7258 22.9925 50.2697L22.9355 50.1904H24.8669V52.9267H30.0758V54.1858H23.4637H23.474Z" fill="#257731"/>
<path d="M9.81487 61.0409C9.81487 61.0409 9.85112 61.0161 9.87701 61.0161H10.3689C10.4259 61.0161 10.4569 61.0458 10.4569 61.1053V61.8291C10.7106 61.8142 10.954 61.7944 11.187 61.7696C11.42 61.7448 11.6426 61.72 11.8446 61.6952C11.8653 61.6853 11.886 61.6853 11.9119 61.6952C11.9378 61.7051 11.9533 61.725 11.9585 61.7547L11.9947 62.1513C11.9947 62.186 11.9947 62.2058 11.9792 62.2256C11.9637 62.2405 11.9481 62.2504 11.9274 62.2554C11.71 62.2901 11.4511 62.3248 11.1559 62.3545C10.8608 62.3843 10.5501 62.409 10.2239 62.4289C9.89772 62.4487 9.57152 62.4636 9.24531 62.4735C8.91911 62.4834 8.6188 62.4883 8.34437 62.4834C8.31848 62.4834 8.29777 62.4735 8.28224 62.4536C8.2667 62.4338 8.25635 62.414 8.25635 62.3892V61.9728C8.25635 61.9183 8.28741 61.8885 8.34437 61.8885C8.5722 61.8985 8.8052 61.8985 9.05373 61.8935C9.30227 61.8935 9.5508 61.8836 9.80452 61.8687V61.1103C9.80452 61.0805 9.81487 61.0607 9.83041 61.0458L9.81487 61.0409ZM8.81038 61.1846C8.78449 61.1946 8.75342 61.1846 8.72753 61.1747C8.69646 61.1599 8.68093 61.145 8.67057 61.1252L8.53595 60.8228C8.5256 60.7881 8.5256 60.7583 8.54631 60.7286C8.56184 60.6988 8.58255 60.679 8.60844 60.6691C9.03302 60.5006 9.39547 60.3122 9.68543 60.109C9.97539 59.9057 10.2136 59.6926 10.4051 59.4645C10.4466 59.415 10.4673 59.3803 10.4673 59.3654C10.4673 59.3505 10.4362 59.3357 10.3741 59.3357H8.84144C8.78966 59.3357 8.76378 59.3109 8.76378 59.2563V58.8746C8.76378 58.8251 8.78966 58.8003 8.84144 58.8003H10.8763C11.0058 58.8003 11.1145 58.8251 11.2025 58.8796C11.2906 58.9341 11.3372 58.9986 11.3372 59.0729C11.3372 59.1275 11.3268 59.177 11.3113 59.2316C11.2957 59.2861 11.2595 59.3505 11.2025 59.4298C11.1352 59.5339 11.0524 59.643 10.954 59.757C10.8556 59.871 10.7417 59.985 10.6174 60.099C10.7676 60.1932 10.9229 60.2775 11.0938 60.3519C11.2647 60.4262 11.42 60.4907 11.5598 60.5501C11.5909 60.5601 11.6168 60.5799 11.6375 60.6047C11.6582 60.6295 11.6582 60.6592 11.6426 60.6889L11.4977 61.0062C11.4977 61.0062 11.4718 61.0409 11.4407 61.0508C11.4096 61.0607 11.3838 61.0607 11.3527 61.0508C11.1559 60.9864 10.954 60.9021 10.7469 60.793C10.5398 60.684 10.3482 60.5799 10.1773 60.4758C9.97539 60.6195 9.75792 60.7484 9.53009 60.8773C9.30227 61.0062 9.06409 61.1053 8.81038 61.1846ZM10.7676 58.4285C10.7676 58.4285 10.7262 58.4583 10.6951 58.4583H9.32298C9.32298 58.4583 9.28674 58.4483 9.26602 58.4335C9.24531 58.4186 9.23496 58.3938 9.23496 58.369V58.0171C9.23496 57.9824 9.24531 57.9625 9.26602 57.9427C9.28674 57.9279 9.30745 57.9179 9.32298 57.9179H10.6951C10.721 57.9179 10.7469 57.9279 10.7624 57.9477C10.7831 57.9675 10.7935 57.9923 10.7935 58.022V58.3641C10.7935 58.3641 10.7831 58.4087 10.7676 58.4285ZM12.7818 63.4946H12.2692C12.2692 63.4946 12.2329 63.4897 12.2122 63.4748C12.1967 63.4599 12.1863 63.4401 12.1863 63.4153V57.8039C12.1863 57.8039 12.1967 57.7643 12.2122 57.7494C12.2277 57.7345 12.2485 57.7246 12.2692 57.7246H12.7818C12.8335 57.7246 12.8646 57.7494 12.8646 57.8039V63.4153C12.8646 63.4698 12.8387 63.4946 12.7818 63.4946Z" fill="#8FC31F"/>
<path d="M18.8607 61.3679C18.8607 61.3679 18.8244 61.4026 18.8037 61.4026H16.5979V63.3557C16.5979 63.4102 16.5721 63.44 16.5151 63.44H16.0077C15.9559 63.44 15.9248 63.4102 15.9248 63.3557V61.4026H13.7191C13.7191 61.4026 13.6777 61.3927 13.6621 61.3679C13.6466 61.3481 13.6362 61.3233 13.6362 61.3035V60.9069C13.6362 60.9069 13.6466 60.8623 13.6621 60.8425C13.6777 60.8226 13.6984 60.8127 13.7191 60.8127H18.7985C18.7985 60.8127 18.8348 60.8226 18.8555 60.8425C18.8762 60.8623 18.8865 60.8821 18.8865 60.9019V61.2985C18.8865 61.2985 18.8762 61.3382 18.8555 61.363L18.8607 61.3679ZM16.2666 60.2724C16.018 60.2724 15.7799 60.2427 15.5468 60.1881C15.319 60.1336 15.1171 60.0543 14.9359 59.9502C14.7598 59.8461 14.6148 59.7172 14.5113 59.5635C14.4025 59.4099 14.3508 59.2314 14.3508 59.0331C14.3508 58.8349 14.4025 58.6614 14.5113 58.5077C14.62 58.354 14.7598 58.2251 14.9359 58.121C15.1119 58.0169 15.3138 57.9376 15.5468 57.8831C15.7747 57.8286 16.0129 57.7988 16.2666 57.7988C16.5203 57.7988 16.7533 57.8236 16.9811 57.8831C17.2089 57.9376 17.4109 58.0169 17.5921 58.121C17.7681 58.2251 17.9079 58.354 18.0167 58.5077C18.1202 58.6614 18.172 58.8349 18.172 59.0331C18.172 59.2314 18.1202 59.4099 18.0167 59.5635C17.9131 59.7172 17.7733 59.8461 17.5921 59.9502C17.416 60.0543 17.2141 60.1336 16.9811 60.1881C16.7533 60.2427 16.5099 60.2724 16.2666 60.2724ZM16.2666 58.3689C16.1164 58.3689 15.9663 58.3838 15.8213 58.4185C15.6763 58.4532 15.5468 58.4978 15.4329 58.5523C15.319 58.6068 15.2258 58.6812 15.1585 58.7655C15.0912 58.8497 15.055 58.9439 15.055 59.0431C15.055 59.1422 15.0912 59.2364 15.1585 59.3157C15.2258 59.395 15.319 59.4644 15.4329 59.5239C15.5468 59.5834 15.6763 59.628 15.8213 59.6577C15.9663 59.6875 16.1112 59.7023 16.2666 59.7023C16.4219 59.7023 16.5669 59.6875 16.7067 59.6577C16.8517 59.628 16.9811 59.5834 17.0898 59.5239C17.2038 59.4644 17.2918 59.395 17.3643 59.3157C17.4368 59.2364 17.4678 59.1422 17.4678 59.0431C17.4678 58.9439 17.4316 58.8497 17.3643 58.7655C17.297 58.6812 17.2038 58.6118 17.0898 58.5523C16.9759 58.4978 16.8465 58.4532 16.7067 58.4185C16.5617 58.3838 16.4167 58.3689 16.2666 58.3689Z" fill="#8FC31F"/>
<path d="M24.3387 61.3386C24.3387 61.3386 24.3024 61.3733 24.2817 61.3733H22.0708V63.3561C22.0708 63.4107 22.0449 63.4404 21.988 63.4404H21.4805C21.4287 63.4404 21.3977 63.4107 21.3977 63.3561V61.3733H19.1971C19.1971 61.3733 19.1557 61.3634 19.1401 61.3386C19.1246 61.3138 19.1143 61.294 19.1143 61.2742V60.8776C19.1143 60.8776 19.1246 60.833 19.1401 60.8132C19.1557 60.7933 19.1764 60.7834 19.1971 60.7834H24.2766C24.2766 60.7834 24.3128 60.7933 24.3335 60.8132C24.3542 60.833 24.3646 60.8528 24.3646 60.8726V61.2692C24.3646 61.2692 24.3542 61.3089 24.3335 61.3336L24.3387 61.3386ZM19.8392 60.2282C19.8133 60.2381 19.7874 60.2381 19.7563 60.2381C19.7304 60.2381 19.7097 60.2233 19.6994 60.2034L19.5026 59.8168C19.4922 59.787 19.4922 59.7623 19.5026 59.7325C19.513 59.7077 19.5337 59.6879 19.5647 59.6829C19.8392 59.6036 20.0877 59.5094 20.3052 59.3954C20.5226 59.2864 20.7142 59.1575 20.8747 59.0038C21.0352 58.8502 21.1595 58.6767 21.2527 58.4833C21.3459 58.2851 21.4029 58.062 21.4287 57.8141C21.4287 57.7844 21.4443 57.7596 21.4598 57.7398C21.4753 57.715 21.5012 57.7051 21.5323 57.7051L22.0242 57.7249C22.0812 57.7249 22.107 57.7596 22.107 57.824C22.1019 57.948 22.0863 58.057 22.0708 58.1562C22.1226 58.3198 22.2158 58.4784 22.3349 58.6271C22.4591 58.7758 22.5989 58.9096 22.7646 59.0336C22.9303 59.1575 23.1115 59.2665 23.3135 59.3558C23.5154 59.445 23.7173 59.5194 23.9296 59.5689C23.9555 59.5788 23.9762 59.5888 23.9918 59.6135C24.0073 59.6334 24.0073 59.6582 23.997 59.6879L23.8209 60.0894C23.8002 60.144 23.7588 60.1638 23.6966 60.1489C23.5102 60.1142 23.3187 60.0547 23.1271 59.9754C22.9355 59.8961 22.7543 59.8019 22.5834 59.6929C22.4125 59.5838 22.2572 59.4648 22.1174 59.3359C21.9776 59.2071 21.8637 59.0732 21.7808 58.9295C21.5944 59.2418 21.3355 59.5045 21.0042 59.7276C20.6728 59.9457 20.2844 60.1192 19.834 60.2332L19.8392 60.2282Z" fill="#8FC31F"/>
<path d="M26.0575 63.6582C26.0264 63.6582 26.0005 63.6384 25.9746 63.6037C25.607 63.1328 25.3429 62.6618 25.1772 62.181C25.0116 61.7002 24.9287 61.2045 24.9287 60.6889C24.9287 60.1734 25.0116 59.6827 25.1772 59.2068C25.3429 58.7259 25.607 58.2501 25.9746 57.7791C26.0005 57.7444 26.0264 57.7246 26.0575 57.7246H26.4872C26.539 57.7246 26.5494 57.7444 26.5235 57.7891C26.2128 58.2996 25.985 58.7904 25.8348 59.2663C25.6847 59.7421 25.6122 60.218 25.6122 60.6889C25.6122 61.1599 25.6847 61.6407 25.8297 62.1166C25.9746 62.5875 26.2076 63.0832 26.5183 63.5888C26.5287 63.6037 26.5338 63.6186 26.5287 63.6334C26.5287 63.6483 26.5079 63.6533 26.4821 63.6533H26.0523L26.0575 63.6582Z" fill="#8FC31F"/>
<path d="M31.9345 62.4337C31.9345 62.4337 31.8931 62.4635 31.8775 62.4635H26.8033C26.8033 62.4635 26.7618 62.4536 26.7463 62.4337C26.7308 62.4139 26.7256 62.3941 26.7256 62.3743V61.9727C26.7256 61.9727 26.7308 61.9281 26.7463 61.9083C26.7618 61.8885 26.7825 61.8786 26.8033 61.8786H30.319C30.3811 61.5167 30.4277 61.0805 30.464 60.5749C30.495 60.0742 30.5158 59.5339 30.5158 58.9589C30.5158 58.8895 30.5106 58.8399 30.495 58.8101C30.4795 58.7804 30.4381 58.7655 30.3708 58.7655H27.5489C27.5489 58.7655 27.5126 58.7556 27.4971 58.7358C27.4815 58.716 27.4712 58.6961 27.4712 58.6763V58.2748C27.4712 58.2748 27.4815 58.2351 27.4971 58.2153C27.5126 58.1955 27.5281 58.1855 27.5489 58.1855H30.7954C30.9662 58.1855 31.075 58.2302 31.1216 58.3243C31.1682 58.4136 31.1941 58.5375 31.1941 58.6862C31.1941 59.2265 31.1785 59.7668 31.1526 60.2923C31.1216 60.8227 31.0646 61.3482 30.9818 61.8686H31.8827C31.8827 61.8686 31.9241 61.8786 31.9397 61.8984C31.9604 61.9182 31.9707 61.938 31.9707 61.9579V62.3594C31.9707 62.3594 31.9604 62.3991 31.9397 62.4189L31.9345 62.4337Z" fill="#8FC31F"/>
<path d="M35.7611 60.9665C35.7611 60.9665 35.7197 61.0012 35.699 61.0012C35.5488 61.0359 35.3624 61.0706 35.1449 61.0954C34.9275 61.1202 34.6996 61.145 34.4563 61.1599C34.2129 61.1797 33.9747 61.1896 33.7314 61.1946C33.488 61.1995 33.2654 61.1946 33.0634 61.1846C32.9133 61.1747 32.8097 61.145 32.7528 61.0855C32.701 61.031 32.6699 60.9368 32.6699 60.8079V59.6975C32.6699 59.5736 32.6958 59.4844 32.7476 59.4348C32.7994 59.3852 32.8874 59.3604 33.0117 59.3604H34.3993C34.4407 59.3604 34.4614 59.3604 34.4666 59.3505C34.4718 59.3406 34.477 59.3158 34.477 59.2712V58.7111C34.477 58.6665 34.477 58.6417 34.4666 58.6367C34.4614 58.6318 34.4356 58.6268 34.3993 58.6268H32.7735C32.7735 58.6268 32.7372 58.6169 32.7165 58.602C32.701 58.5871 32.6906 58.5673 32.6906 58.5475V58.146C32.6906 58.146 32.701 58.1063 32.7165 58.0914C32.7321 58.0766 32.7528 58.0716 32.7735 58.0716H34.7566C34.9067 58.0716 35.0103 58.1013 35.0673 58.1658C35.1242 58.2302 35.1501 58.3294 35.1501 58.4731V59.4794C35.1501 59.6281 35.119 59.7322 35.0621 59.7867C34.9999 59.8413 34.9067 59.871 34.7877 59.871H33.4207C33.3896 59.871 33.3689 59.876 33.3586 59.8859C33.3482 59.8958 33.343 59.9206 33.343 59.9553V60.5154C33.343 60.5551 33.3534 60.5799 33.3689 60.5947C33.3845 60.6047 33.4104 60.6146 33.4518 60.6195C33.6071 60.6294 33.778 60.6294 33.9696 60.6195C34.156 60.6146 34.3475 60.6047 34.5443 60.5848C34.7411 60.57 34.9326 60.5501 35.119 60.5254C35.3054 60.5055 35.4711 60.4807 35.6213 60.456C35.6472 60.456 35.6731 60.456 35.699 60.4659C35.7248 60.4758 35.7352 60.4956 35.7404 60.5154L35.7973 60.8872C35.7973 60.8872 35.7973 60.9318 35.7714 60.9517L35.7611 60.9665ZM36.9831 63.3608C36.9831 63.3608 36.9468 63.3806 36.9261 63.3806H33.8764C33.7003 63.3806 33.5812 63.3459 33.5191 63.2815C33.457 63.217 33.4259 63.108 33.4259 62.9494V61.7745C33.4259 61.7745 33.4362 61.7349 33.4518 61.715C33.4673 61.6952 33.488 61.6903 33.5139 61.6903H34.0162C34.0162 61.6903 34.0628 61.7002 34.0783 61.715C34.099 61.7349 34.1094 61.7547 34.1094 61.7745V62.7015C34.1094 62.7412 34.1197 62.7659 34.1352 62.7808C34.1508 62.7907 34.1767 62.8006 34.2181 62.8006H36.9261C36.9261 62.8006 36.9623 62.8106 36.9831 62.8254C36.9986 62.8403 37.0089 62.8601 37.0089 62.88V63.3112C37.0089 63.3112 36.9986 63.3558 36.9831 63.3657V63.3608ZM36.8329 61.834C36.8329 61.8885 36.807 61.9133 36.7501 61.9133H36.2374C36.2374 61.9133 36.2012 61.9034 36.1805 61.8885C36.165 61.8737 36.1546 61.8538 36.1546 61.8291V57.8039C36.1546 57.8039 36.165 57.7643 36.1805 57.7494C36.196 57.7345 36.2167 57.7246 36.2374 57.7246H36.7501C36.8018 57.7246 36.8329 57.7494 36.8329 57.8039V61.834Z" fill="#8FC31F"/>
<path d="M39.2303 62.8504C39.1785 62.8504 39.1474 62.8256 39.1474 62.7711V59.1772L38.7176 59.5688C38.7176 59.5688 38.6762 59.5936 38.6503 59.5985C38.6244 59.5985 38.6037 59.5985 38.5882 59.5787L38.3241 59.2515C38.3241 59.2515 38.3086 59.2168 38.3086 59.1921C38.3086 59.1722 38.319 59.1474 38.3397 59.1276L39.2303 58.2701C39.2303 58.2701 39.251 58.2552 39.2717 58.2453C39.2924 58.2353 39.3079 58.2354 39.3183 58.2354H39.6289C39.6963 58.2354 39.7325 58.2403 39.748 58.2552C39.7636 58.27 39.7687 58.3147 39.7687 58.3989V62.7661C39.7687 62.8206 39.7429 62.8454 39.6911 62.8454H39.2251L39.2303 62.8504Z" fill="#8FC31F"/>
<path d="M46.4169 60.9469C46.4169 60.9469 46.3755 60.9767 46.3599 60.9767H41.2909C41.2909 60.9767 41.2494 60.9668 41.2339 60.9469C41.2184 60.9271 41.208 60.9073 41.208 60.8825V60.476C41.208 60.4215 41.2339 60.3918 41.2909 60.3918H46.3599C46.3599 60.3918 46.4014 60.4017 46.4169 60.4215C46.4376 60.4413 46.448 60.4612 46.448 60.481V60.8875C46.448 60.8875 46.4376 60.9271 46.4169 60.9469ZM45.6609 62.4341C45.6609 62.7662 45.5004 63.024 45.1846 63.2123C44.8687 63.4007 44.4131 63.4899 43.8228 63.4899C43.2325 63.4899 42.7769 63.3957 42.461 63.2123C42.1452 63.024 41.9847 62.7662 41.9847 62.4341C41.9847 62.1019 42.1452 61.8491 42.461 61.6608C42.7769 61.4724 43.2325 61.3782 43.8228 61.3782C44.4131 61.3782 44.8687 61.4724 45.1846 61.6608C45.5004 61.8491 45.6609 62.1069 45.6609 62.4341ZM45.6402 59.8465C45.6402 59.8465 45.6092 59.8663 45.5885 59.8663H42.4714C42.3161 59.8663 42.2073 59.8316 42.1452 59.7573C42.0831 59.6829 42.052 59.5788 42.052 59.435V58.2354C42.052 58.0818 42.0831 57.9777 42.1504 57.9231C42.2177 57.8686 42.3212 57.8389 42.4714 57.8389H45.5367C45.5936 57.8389 45.6195 57.8637 45.6195 57.9182V58.3296C45.6195 58.3841 45.5936 58.4139 45.5367 58.4139H42.839C42.7665 58.4139 42.7303 58.4486 42.7303 58.518V59.1872C42.7303 59.2219 42.7355 59.2467 42.751 59.2665C42.7665 59.2863 42.7976 59.2962 42.839 59.2962H45.5677C45.5988 59.2962 45.6247 59.2962 45.6402 59.3062C45.6558 59.3161 45.6609 59.3359 45.6609 59.3656V59.7721C45.6609 59.8068 45.6558 59.8266 45.6402 59.8415V59.8465ZM43.8228 61.9136C43.4345 61.9136 43.1445 61.9631 42.9478 62.0672C42.751 62.1713 42.6526 62.2953 42.6526 62.439C42.6526 62.5828 42.751 62.7017 42.9478 62.8058C43.1445 62.9099 43.4345 62.9595 43.8228 62.9595C44.2111 62.9595 44.5063 62.9099 44.6979 62.8058C44.8946 62.7017 44.993 62.5778 44.993 62.439C44.993 62.3002 44.8946 62.1713 44.6979 62.0672C44.5011 61.9631 44.2111 61.9136 43.8228 61.9136Z" fill="#8FC31F"/>
<path d="M51.1441 58.28C51.1441 58.3742 51.1441 58.4832 51.1338 58.6071C51.1286 58.7311 51.1183 58.8649 51.1079 59.0037C51.0975 59.1425 51.082 59.2863 51.0665 59.435C51.0509 59.5837 51.0251 59.7274 50.9992 59.8662H51.8432C51.8432 59.8662 51.8846 59.8761 51.9001 59.896C51.9156 59.9158 51.9312 59.9356 51.9312 59.9555V60.352C51.9312 60.352 51.9208 60.3917 51.9001 60.4165C51.8794 60.4363 51.8587 60.4512 51.8432 60.4512H46.7637C46.7637 60.4512 46.7223 60.4412 46.7067 60.4165C46.6912 60.3917 46.686 60.3719 46.686 60.352V59.9555C46.686 59.9555 46.6912 59.9108 46.7067 59.891C46.7223 59.8712 46.743 59.8613 46.7637 59.8613H50.3727C50.4089 59.658 50.4348 59.4498 50.4555 59.2367C50.4762 59.0235 50.4866 58.7905 50.4866 58.5377C50.4866 58.4832 50.471 58.4436 50.4451 58.4336C50.4193 58.4188 50.3778 58.4138 50.3209 58.4138H47.6025C47.6025 58.4138 47.5611 58.4089 47.5456 58.394C47.5248 58.3791 47.5145 58.3642 47.5145 58.3444V57.9181C47.5145 57.9181 47.5248 57.8735 47.5456 57.8636C47.5663 57.8537 47.587 57.8438 47.6025 57.8438H50.7506C50.8749 57.8438 50.9681 57.8784 51.0354 57.9478C51.1027 58.0172 51.1338 58.1263 51.1338 58.275L51.1441 58.28ZM50.9992 63.2271C50.937 63.2965 50.8231 63.3312 50.6574 63.3312H47.9598C47.7889 63.3312 47.6698 63.3015 47.6077 63.242C47.5456 63.1825 47.5145 63.0685 47.5145 62.9V61.0361C47.5145 61.0361 47.5197 60.9964 47.5404 60.9865C47.5559 60.9717 47.5714 60.9667 47.5922 60.9667H48.1048C48.1048 60.9667 48.141 60.9717 48.1617 60.9865C48.1773 61.0014 48.1876 61.0163 48.1876 61.0361V61.6855H50.4244V61.0361C50.4244 61.0361 50.4296 60.9964 50.4451 60.9816C50.4607 60.9667 50.4762 60.9568 50.4969 60.9568H51.0147C51.0147 60.9568 51.0509 60.9667 51.0665 60.9816C51.082 60.9964 51.0872 61.0163 51.0872 61.0361V62.9247C51.0872 63.0586 51.0561 63.1577 50.994 63.2271H50.9992ZM50.4193 62.2407H48.1824V62.667C48.1824 62.7364 48.2187 62.7711 48.2912 62.7711H50.3105C50.383 62.7711 50.4193 62.7364 50.4193 62.667V62.2407Z" fill="#8FC31F"/>
<path d="M52.7132 63.6036C52.6925 63.6383 52.6614 63.6581 52.6303 63.6581H52.2006C52.1747 63.6581 52.1592 63.6532 52.154 63.6383C52.154 63.6234 52.154 63.6086 52.1643 63.5937C52.4802 63.0831 52.708 62.5924 52.853 62.1214C52.998 61.6456 53.0704 61.1747 53.0704 60.6938C53.0704 60.213 52.998 59.747 52.8478 59.2711C52.6976 58.7953 52.4698 58.3045 52.1591 57.7939C52.1333 57.7493 52.1436 57.7295 52.1954 57.7295H52.6252C52.6562 57.7295 52.6821 57.7493 52.708 57.784C53.0756 58.2549 53.3397 58.7358 53.5054 59.2117C53.6711 59.6925 53.7539 60.1832 53.7539 60.6938C53.7539 61.2044 53.6711 61.7051 53.5054 62.1859C53.3397 62.6667 53.0756 63.1377 52.708 63.6086L52.7132 63.6036Z" fill="#8FC31F"/>
<path d="M22.2831 67.9717L20.7867 69.1366L21.408 71.0004L19.8288 69.8454L18.2547 71.0004L18.8709 69.1366L17.3745 67.9717H19.2385L19.8288 66.2119L20.4191 67.9717H22.2831Z" fill="#8FC31F"/>
<path d="M29.7289 67.9717L28.2325 69.1366L28.8538 71.0004L27.2746 69.8454L25.7005 71.0004L26.3167 69.1366L24.8203 67.9717H26.6843L27.2746 66.2119L27.8649 67.9717H29.7289Z" fill="#8FC31F"/>
<path d="M37.1796 67.9717L35.6832 69.1366L36.3045 71.0004L34.7253 69.8454L33.1512 71.0004L33.7674 69.1366L32.271 67.9717H34.135L34.7253 66.2119L35.3156 67.9717H37.1796Z" fill="#8FC31F"/>
<path d="M44.6254 67.9717L43.129 69.1366L43.7503 71.0004L42.1711 69.8454L40.597 71.0004L41.2132 69.1366L39.7168 67.9717H41.5808L42.1711 66.2119L42.7614 67.9717H44.6254Z" fill="#8FC31F"/>
</g>
<g clip-path="url(#clip1_428_1426)">
<path d="M109.534 37.6604C118.76 47.416 143.923 40.2831 138.062 28.5394C131.721 15.8334 110.207 18.5406 106.515 33.3722C103.538 45.3274 112.446 55.2416 124.751 55.2416C135.602 55.2416 141.307 49.0869 142.647 46.9983C140.968 49.9646 134.482 56.8913 123.852 56.8913C109.755 56.8913 97.2409 48.3783 101.036 33.4568C105.175 17.1923 133.772 11.3601 141.975 28.5024C149.133 43.4609 119.713 49.0869 109.534 37.6604Z" fill="#F39800"/>
<path d="M124.906 31.1188C124.95 31.7057 125.133 32.2397 125.165 32.8267C125.202 33.6568 125.789 34.3865 125.768 35.2325C125.698 35.0633 125.655 34.8888 125.649 34.7143C125.612 35.4334 126.171 36.0574 126.903 36.0944C127.641 36.1367 128.271 35.5921 128.314 34.8624C128.357 34.6985 128.459 34.5293 128.421 34.3812C128.147 33.3713 127.226 32.8901 126.57 32.1499C126.139 31.674 125.633 31.2668 125.009 31.05C124.987 31.0183 124.95 31.013 124.928 31.0342C124.896 31.0553 124.89 31.1029 124.912 31.1241L124.906 31.1188Z" fill="#E8380D"/>
<path d="M129.563 28.8983C129.826 30.0563 130.467 31.1032 130.575 32.2824C130.58 32.4146 130.483 32.5838 130.575 32.8006C130.747 33.3928 131.377 33.7417 131.985 33.5725C132.588 33.4086 132.943 32.7953 132.771 32.1925L132.792 32.2242C132.658 31.9651 132.598 31.669 132.405 31.4522C131.56 30.474 130.855 29.3531 129.606 28.856C129.6 28.8507 129.573 28.8402 129.563 28.856C129.557 28.8613 129.547 28.8878 129.563 28.8983Z" fill="#E8380D"/>
<path d="M103.985 21.0044C104.179 20.0368 103.533 19.2489 102.855 18.6673C100.82 16.9118 98.99 15.2198 96.6863 13.9349C96.4011 13.7816 96.0351 13.845 95.7014 13.9032C94.9909 13.5066 94.092 13.7551 93.6937 14.4425C93.29 15.1405 93.543 16.0235 94.2427 16.4148L94.3127 16.6104C94.4634 16.8219 94.571 17.1022 94.781 17.2132C97.7521 18.6673 100.535 20.4016 103.727 21.2C103.775 21.2688 103.877 21.2846 103.947 21.237C104.028 21.1895 104.05 21.0784 103.985 21.0097V21.0044Z" fill="#004EA2"/>
<path d="M137.851 16.6474C139.326 16.1874 140.532 15.1986 141.883 14.4214C142.857 13.8662 143.708 13.1365 144.58 12.4332C144.526 12.4967 144.477 12.5707 144.423 12.6342C145.425 12.0948 145.791 10.8628 145.247 9.87934C144.698 8.89586 143.444 8.5363 142.443 9.07034L142.636 9.15495C142.163 9.05448 141.834 9.41404 141.576 9.75244C140.952 10.5773 140.537 11.4286 139.956 12.2905C139.025 13.6652 138.142 14.9184 137.679 16.4518C137.625 16.4941 137.62 16.5787 137.668 16.6368C137.712 16.6897 137.798 16.695 137.857 16.6474H137.851Z" fill="#004EA2"/>
<path d="M113.69 12.4966C113.286 9.91629 112.123 7.52632 110.966 5.26853C110.353 4.31148 109.168 4.0894 108.334 4.7715C107.5 5.45888 107.317 6.79135 107.936 7.75368C109.621 9.41398 110.702 11.7775 112.527 13.2475C112.715 13.6176 113.13 13.7392 113.453 13.5277C113.77 13.3215 113.878 12.8509 113.69 12.4913V12.4966Z" fill="#004EA2"/>
<path d="M126.893 11.1742C127.092 10.9997 127.28 10.82 127.447 10.6085C128.685 9.04334 129.304 7.29844 130.128 5.50596C130.171 5.40021 130.128 5.26273 130.122 5.14112C130.295 4.14177 129.611 3.20058 128.599 3.02609C127.582 2.85689 126.624 3.52841 126.446 4.52247H126.575C126.495 4.63351 126.381 4.73926 126.36 4.85559C126.053 6.64807 125.908 8.37182 125.854 10.1907C125.849 10.4551 125.886 10.7724 126.091 11.0156C126.032 11.1795 126.128 11.3646 126.295 11.4227C126.473 11.4809 126.656 11.391 126.715 11.2271L126.887 11.1795L126.893 11.1742Z" fill="#004EA2"/>
<path d="M108.119 63.7808C108.087 64.0505 108.027 64.3043 107.936 64.537C107.844 64.7696 107.726 64.9705 107.586 65.1345C107.435 65.3037 107.268 65.4358 107.075 65.531C106.881 65.6262 106.671 65.6685 106.445 65.6632C106.181 65.6632 105.95 65.6156 105.74 65.5046C105.53 65.3935 105.352 65.2402 105.207 65.0393C105.056 64.8436 104.949 64.6163 104.868 64.3466C104.793 64.0822 104.755 63.7914 104.755 63.4794C104.755 63.1675 104.798 62.8872 104.879 62.6229C104.959 62.3585 105.072 62.1258 105.223 61.9249C105.374 61.7293 105.551 61.5759 105.756 61.4649C105.966 61.3486 106.192 61.2957 106.445 61.2957C106.666 61.2957 106.87 61.3433 107.059 61.4279C107.247 61.5178 107.414 61.6447 107.554 61.8033C107.704 61.9619 107.823 62.1523 107.914 62.3743C108.006 62.5964 108.07 62.8344 108.108 63.0935H108.743V61.9355C108.743 61.7451 108.7 61.6182 108.619 61.5548C108.533 61.4913 108.431 61.4596 108.302 61.4596V61.2322H109.093C109.255 61.2322 109.378 61.2692 109.454 61.3433C109.535 61.4173 109.572 61.5336 109.572 61.6922V67.5244H108.743V63.7861H108.114L108.119 63.7808ZM107.333 63.4794C107.333 63.2732 107.312 63.0829 107.268 62.8925C107.225 62.7075 107.161 62.5435 107.085 62.4008C107.005 62.258 106.913 62.147 106.806 62.0624C106.698 61.9778 106.58 61.9355 106.456 61.9355C106.321 61.9355 106.203 61.9778 106.09 62.0624C105.977 62.147 105.885 62.258 105.81 62.4008C105.729 62.5435 105.67 62.7075 105.627 62.8925C105.584 63.0776 105.562 63.2732 105.562 63.4794C105.562 63.6857 105.584 63.8866 105.627 64.0664C105.67 64.2514 105.729 64.4153 105.81 64.5528C105.885 64.6956 105.977 64.8013 106.09 64.8859C106.203 64.9652 106.321 65.0075 106.456 65.0075C106.58 65.0075 106.693 64.9652 106.806 64.8859C106.913 64.8066 107.01 64.6956 107.085 64.5528C107.166 64.4101 107.225 64.2514 107.268 64.0664C107.312 63.8813 107.333 63.6857 107.333 63.4794ZM110.218 61.835C110.218 61.6605 110.175 61.5389 110.094 61.4807C110.008 61.4173 109.906 61.3856 109.777 61.3856V61.1582H110.557C110.719 61.1582 110.842 61.1952 110.918 61.2692C110.999 61.3433 111.036 61.4596 111.036 61.6182V67.7412H110.223V61.8403L110.218 61.835Z" fill="#231815" stroke="#231815" stroke-miterlimit="10"/>
<path d="M116.198 65.7002H113.184C112.888 65.7002 112.662 65.6473 112.511 65.5363C112.36 65.4253 112.285 65.2191 112.285 64.9124V62.0518C112.285 61.872 112.242 61.7504 112.161 61.687C112.075 61.6235 111.973 61.5918 111.844 61.5918V61.375H112.635C112.796 61.375 112.92 61.412 112.996 61.486C113.071 61.5601 113.114 61.6764 113.114 61.8403V65.0234H116.198V65.7002ZM116.769 67.7306V63.5217H114.756V62.8449H116.769V61.8403C116.769 61.6552 116.726 61.5336 116.645 61.4702C116.559 61.4067 116.457 61.375 116.327 61.375V61.1582H117.129C117.296 61.1582 117.42 61.1952 117.501 61.264C117.581 61.3327 117.619 61.449 117.619 61.6076V67.7306H116.774H116.769Z" fill="#231815" stroke="#231815" stroke-miterlimit="10"/>
<path d="M121.268 63.057C121.268 63.2897 121.3 63.5276 121.387 63.7655C121.473 64.0035 121.591 64.2256 121.742 64.4371C121.893 64.6433 122.076 64.8336 122.291 64.9975C122.501 65.1615 122.738 65.2884 122.985 65.3783L122.436 65.8964C122.296 65.8541 122.151 65.7907 122 65.7114C121.849 65.6321 121.699 65.5263 121.548 65.4047C121.403 65.2831 121.268 65.135 121.144 64.9605C121.021 64.786 120.918 64.5798 120.838 64.3472C120.746 64.5745 120.638 64.7755 120.509 64.95C120.38 65.1244 120.245 65.2725 120.1 65.3941C119.955 65.521 119.81 65.6268 119.659 65.7061C119.508 65.7907 119.368 65.8541 119.234 65.8964L118.685 65.3783C118.894 65.2936 119.104 65.1773 119.314 65.024C119.524 64.8706 119.707 64.6909 119.869 64.4847C120.03 64.2784 120.159 64.0564 120.256 63.8131C120.353 63.5699 120.402 63.3214 120.402 63.0623V62.0577H119.002V61.3809H122.662V62.0577H121.263V63.0623L121.268 63.057ZM124.578 61.6188V67.7418H123.733V61.8303C123.733 61.6558 123.69 61.5342 123.61 61.476C123.523 61.4126 123.421 61.3809 123.292 61.3809V61.1641H124.094C124.261 61.1641 124.385 61.2011 124.465 61.2751C124.546 61.3491 124.584 61.4655 124.584 61.6241L124.578 61.6188Z" fill="#231815" stroke="#231815" stroke-miterlimit="10"/>
<path d="M130.025 64.0564L129.493 64.6168C129.143 64.5322 128.814 64.3948 128.513 64.1938C128.212 63.9929 127.975 63.718 127.808 63.3584C127.733 63.5382 127.636 63.6968 127.506 63.8396C127.383 63.9823 127.243 64.1039 127.087 64.2097C126.936 64.3102 126.774 64.3948 126.608 64.4635C126.441 64.5322 126.279 64.5798 126.118 64.6168L125.601 64.0564C126.258 63.9189 126.721 63.6809 126.984 63.3373C127.248 62.9936 127.383 62.5706 127.383 62.0577L126.042 62.0524V61.3756H129.6V62.0524H128.244C128.244 62.5811 128.378 63.0041 128.642 63.3373C128.911 63.6704 129.374 63.9083 130.036 64.0564H130.025ZM131.543 64.9394V66.6578H128.115V67.1073H131.619V67.7418H128.131C127.862 67.7418 127.646 67.6942 127.485 67.5937C127.329 67.4986 127.248 67.2818 127.248 66.9539V66.7001C127.248 66.5257 127.205 66.4093 127.124 66.3459C127.038 66.2824 126.936 66.2507 126.807 66.2507V66.0233H130.688V65.5739H126.952V64.9394H131.543ZM131.543 61.6135V64.7437H130.698V63.2368H129.245V62.56H130.698V61.8462C130.698 61.6611 130.655 61.5395 130.574 61.476C130.488 61.4126 130.386 61.3809 130.257 61.3809V61.1641H131.059C131.226 61.1641 131.35 61.2011 131.43 61.2698C131.511 61.3386 131.549 61.4549 131.549 61.6135H131.543Z" fill="#231815" stroke="#231815" stroke-miterlimit="10"/>
<path d="M136.393 62.9724C136.393 63.2103 136.345 63.4324 136.242 63.6386C136.146 63.8449 136.011 64.0246 135.844 64.1727C135.677 64.326 135.478 64.4476 135.257 64.5322C135.031 64.6168 134.795 64.6591 134.542 64.6591C134.289 64.6591 134.041 64.6168 133.815 64.5322C133.589 64.4476 133.39 64.326 133.223 64.1727C133.051 64.0246 132.916 63.8449 132.819 63.6386C132.722 63.4324 132.674 63.2103 132.674 62.9724C132.674 62.7345 132.722 62.5124 132.819 62.3115C132.916 62.1052 133.045 61.9308 133.217 61.7721C133.384 61.6241 133.583 61.5025 133.804 61.4179C134.03 61.328 134.267 61.2857 134.525 61.2857C134.784 61.2857 135.015 61.328 135.247 61.4179C135.473 61.5078 135.672 61.6241 135.839 61.7721C136.011 61.9255 136.146 62.1052 136.248 62.3115C136.345 62.5177 136.398 62.7345 136.398 62.9724H136.393ZM135.564 62.9671C135.564 62.8349 135.537 62.708 135.483 62.5864C135.43 62.4648 135.36 62.3591 135.268 62.2639C135.177 62.1687 135.064 62.0894 134.94 62.0365C134.816 61.9783 134.681 61.9519 134.536 61.9519C134.391 61.9519 134.251 61.9783 134.127 62.0365C134.003 62.0947 133.89 62.1687 133.799 62.2639C133.707 62.3538 133.632 62.4648 133.583 62.5864C133.535 62.708 133.508 62.8349 133.508 62.9671C133.508 63.0993 133.535 63.2315 133.583 63.3584C133.637 63.48 133.707 63.5911 133.804 63.6915C133.896 63.7814 134.009 63.8554 134.132 63.9136C134.256 63.9718 134.396 63.9982 134.542 63.9982C134.687 63.9982 134.821 63.9718 134.945 63.9136C135.069 63.8554 135.177 63.7814 135.268 63.6915C135.36 63.5963 135.435 63.4853 135.489 63.3584C135.543 63.2368 135.564 63.1046 135.564 62.9671ZM138.282 65.6373V67.7312H137.357V65.8436H133.772V65.172H137.766C137.949 65.172 138.083 65.209 138.164 65.2831C138.245 65.3571 138.288 65.4734 138.288 65.6321L138.282 65.6373ZM138.282 61.9731H139.327V62.6499H138.282V63.2844H139.327V63.9612H138.282V64.8865H137.437V61.8462C137.437 61.6611 137.394 61.5395 137.314 61.476C137.227 61.4126 137.125 61.3809 136.996 61.3809V61.1641H137.798C137.965 61.1641 138.089 61.2011 138.169 61.2698C138.25 61.3386 138.288 61.4549 138.288 61.6135V61.9783L138.282 61.9731Z" fill="#231815" stroke="#231815" stroke-miterlimit="10"/>
</g>
<g clip-path="url(#clip2_428_1426)">
<path d="M220.238 43.1377V38.3789H218.874V43.3334C218.874 43.7684 219.251 44.1251 219.713 44.1251H224.014V43.2334H220.344C220.289 43.2334 220.238 43.1855 220.238 43.1333V43.1377Z" fill="#6D6F71"/>
<path d="M225.481 47.3007C225.85 47.3007 226.367 46.9745 226.367 46.3438V38.1182H225.002V40.2627H222.378V41.1544H225.002V47.2964H225.477L225.481 47.3007Z" fill="#6D6F71"/>
<path d="M234.127 38.1186V47.2968H234.602C234.97 47.2968 235.492 46.9706 235.492 46.3399V38.1143H234.127V38.1186Z" fill="#6D6F71"/>
<path d="M233.22 39.254V38.3623H227.842V39.254H229.524L227.587 44.2303H228.952L230.558 40.0979L232.029 43.8779H232.038C232.105 44.0563 232.309 44.2303 232.614 44.2303H233.534L231.597 39.254H233.224H233.22Z" fill="#6D6F71"/>
<path d="M197.801 47.3013C198.136 47.3013 198.61 47.0055 198.61 46.4313V38.123H197.352V40.5633H196.669V38.123H195.411V47.3013H195.86C196.199 47.3013 196.669 47.0055 196.669 46.4313V41.455H197.352V47.3013H197.801Z" fill="#6D6F71"/>
<path d="M193.516 43.8562C193.584 44.0389 193.787 44.2129 194.093 44.2129H194.949L193.359 39.254H194.694V38.3623H190.185V39.254H191.52L189.931 44.2129H191.253L192.444 40.3589L193.525 43.8562H193.516Z" fill="#6D6F71"/>
<path d="M185.629 43.4734V38.123H184.264V44.4304H184.739C185.108 44.4304 185.629 44.1041 185.629 43.4734Z" fill="#6D6F71"/>
<path d="M181.009 46.4097C180.958 46.4097 180.903 46.3618 180.903 46.3096V44.0303H179.539V46.5097C179.539 46.9447 179.916 47.3014 180.378 47.3014H185.625V46.4097H181.009Z" fill="#6D6F71"/>
<path d="M182.005 42.2469L182.065 42.3557C182.162 42.4949 182.34 42.6036 182.577 42.6036H183.62L181.264 38.3799H179.852L177.5 42.6036H178.924L180.564 39.5935L182.005 42.2469Z" fill="#6D6F71"/>
<path d="M214.211 40.8368H213.648C213.491 39.4275 212.639 38.3487 211.333 38.3487C209.884 38.3487 208.99 39.6754 208.99 41.3153C208.99 42.9552 209.884 44.2819 211.333 44.2819C212.656 44.2819 213.516 43.1727 213.656 41.7286H214.211V47.2964H214.66C214.995 47.2964 215.47 47.0006 215.47 46.4264C215.47 46.4134 215.47 46.4047 215.47 46.3916V38.1182H214.211V40.8368ZM211.333 43.3902C210.727 43.3902 210.316 42.4637 210.316 41.3153C210.316 40.167 210.681 39.2404 211.333 39.2404C211.986 39.2404 212.346 40.167 212.346 41.3153C212.346 42.4637 211.965 43.3902 211.333 43.3902Z" fill="#6D6F71"/>
<path d="M215.996 38.1182V47.2964H216.445C216.784 47.2964 217.254 47.0006 217.254 46.4264V38.1182H215.996Z" fill="#6D6F71"/>
<path d="M207.062 43.2994C207.397 43.2994 207.871 43.0036 207.871 42.4294V38.123H206.612V39.8717H205.968V38.123H204.709V43.0427H205.159C205.498 43.0427 205.968 42.747 205.968 42.1728V40.7634H206.612V43.3037H207.062V43.2994Z" fill="#6D6F71"/>
<path d="M203.531 42.4205H204.476L202.662 38.3838H201.251L199.437 42.4205H200.802L201.959 39.7583L202.959 42.0638C203.027 42.2465 203.234 42.4205 203.535 42.4205H203.531Z" fill="#6D6F71"/>
<path d="M204.663 43.2998C202.98 43.2998 201.887 44.2872 201.887 45.466C201.887 46.6449 202.976 47.6192 204.663 47.6192C206.35 47.6192 207.447 46.6318 207.447 45.466C207.447 44.3003 206.35 43.2998 204.663 43.2998ZM204.663 46.7232C203.93 46.7232 203.336 46.1751 203.336 45.4617C203.336 44.7483 203.93 44.1915 204.663 44.1915C205.396 44.1915 205.989 44.7527 205.989 45.4617C205.989 46.1707 205.409 46.7232 204.663 46.7232Z" fill="#6D6F71"/>
<path d="M188.591 42.5554C188.591 42.0943 188.227 41.7246 187.778 41.7246C187.329 41.7246 186.968 42.0987 186.968 42.5554C186.968 43.0122 187.333 43.3906 187.778 43.3906C188.223 43.3906 188.591 43.0165 188.591 42.5554Z" fill="#6D6F71"/>
<path d="M199.615 29.1104C199.615 29.1104 202.862 27.5836 206.358 29.3322C209.931 31.1244 211.622 32.6555 214.75 32.6555C217.878 32.6555 220.9 31.3506 224.989 26.6179C229.431 21.4807 228.872 17.4571 225.774 17.0482C223.701 16.7741 220.552 17.5136 214.441 20.8978C208.329 24.282 199.619 29.1104 199.619 29.1104H199.615Z" fill="url(#paint0_radial_428_1426)"/>
<path d="M215.08 20.5495C215.08 20.5495 211.834 22.0763 208.337 20.3277C204.765 18.5355 203.078 17 199.95 17C196.822 17 193.8 18.305 189.715 23.0376C185.273 28.1748 185.833 32.1984 188.931 32.6073C191.003 32.8814 194.152 32.1419 200.264 28.7577C206.375 25.3735 215.085 20.5451 215.085 20.5451L215.08 20.5495Z" fill="url(#paint1_linear_428_1426)"/>
<path d="M179.56 49.6416H180.361L181.552 51.9601C181.581 52.0253 181.615 52.108 181.653 52.208C181.691 52.3081 181.73 52.4299 181.768 52.5604C181.742 52.4038 181.721 52.2602 181.708 52.1297C181.696 51.9992 181.687 51.8905 181.687 51.7991V49.6416H182.264V52.9606H181.475L180.25 50.5899C180.216 50.529 180.187 50.455 180.153 50.355C180.119 50.2593 180.089 50.1462 180.055 50.0157C180.081 50.2114 180.098 50.3767 180.115 50.5159C180.127 50.6551 180.136 50.7508 180.136 50.8074V52.9606H179.56V49.6416Z" fill="#6D6F71"/>
<path d="M183.353 51.5244C183.374 51.3199 183.438 51.159 183.539 51.0459C183.641 50.9328 183.768 50.8762 183.925 50.8762C184.082 50.8762 184.205 50.9328 184.298 51.0459C184.395 51.159 184.45 51.3199 184.467 51.5244H183.353ZM184.73 50.7979C184.539 50.5804 184.272 50.4717 183.929 50.4717C183.586 50.4717 183.302 50.5848 183.086 50.811C182.87 51.0372 182.764 51.3373 182.764 51.7027C182.764 52.1159 182.874 52.4378 183.098 52.6727C183.319 52.9076 183.628 53.0207 184.022 53.0207C184.175 53.0207 184.315 53.0077 184.45 52.9859C184.582 52.9598 184.709 52.925 184.823 52.8772V52.3943C184.717 52.4552 184.603 52.4987 184.489 52.5292C184.374 52.5596 184.251 52.5727 184.128 52.5727C183.904 52.5727 183.722 52.5118 183.586 52.3943C183.45 52.2769 183.37 52.1116 183.353 51.9071H185.018V51.7114C185.018 51.3156 184.921 51.0111 184.734 50.7892L184.73 50.7979Z" fill="#6D6F71"/>
<path d="M185.163 50.5332H185.811L186.231 52.2558C186.239 52.2949 186.248 52.3471 186.256 52.4124C186.265 52.4819 186.273 52.5559 186.277 52.6385C186.286 52.5472 186.294 52.4645 186.303 52.395C186.311 52.3254 186.32 52.2775 186.324 52.2601L186.782 50.5332H187.519L187.973 52.2732C187.977 52.2949 187.985 52.3384 187.994 52.4036C188.002 52.4645 188.006 52.5472 188.015 52.6429C188.023 52.508 188.032 52.4167 188.036 52.3688C188.04 52.321 188.045 52.2906 188.049 52.2819L188.502 50.5376H189.096L188.345 52.9648H187.65L187.176 51.1509C187.163 51.1074 187.155 51.0552 187.15 50.9986C187.142 50.9421 187.138 50.8812 187.138 50.8159C187.129 50.9073 187.121 50.9812 187.112 51.0334C187.104 51.09 187.099 51.1204 187.095 51.1378L186.612 52.9648H185.904L185.167 50.5376L185.163 50.5332Z" fill="#6D6F71"/>
<path d="M192.448 52.3204C192.363 52.4031 192.274 52.4683 192.177 52.5118C192.079 52.5553 191.974 52.5771 191.868 52.5771C191.69 52.5771 191.541 52.5249 191.427 52.4161C191.312 52.3117 191.253 52.1769 191.253 52.0203C191.253 51.9072 191.287 51.7984 191.355 51.7027C191.423 51.6027 191.52 51.52 191.647 51.4461L192.452 52.3204H192.448ZM192.673 50.8371C192.796 50.6892 192.859 50.5196 192.859 50.3369C192.859 50.102 192.775 49.9149 192.609 49.7757C192.44 49.6365 192.215 49.5713 191.923 49.5713C191.63 49.5713 191.384 49.6409 191.206 49.7844C191.028 49.928 190.935 50.115 190.935 50.3456C190.935 50.4717 190.965 50.5979 191.028 50.724C191.092 50.8502 191.189 50.9806 191.321 51.1155C191.1 51.2155 190.935 51.346 190.825 51.4983C190.715 51.6505 190.66 51.8289 190.66 52.0333C190.66 52.3291 190.766 52.5684 190.973 52.7467C191.181 52.925 191.461 53.0164 191.808 53.0164C191.999 53.0164 192.177 52.9859 192.338 52.925C192.499 52.8641 192.647 52.7771 192.775 52.6597L193.042 52.9555H193.745L193.148 52.3204C193.292 52.1508 193.398 51.9681 193.474 51.7723C193.55 51.5766 193.588 51.3678 193.597 51.1459H193.08C193.071 51.3025 193.046 51.4504 192.999 51.5853C192.953 51.7245 192.889 51.8463 192.804 51.955L192.126 51.2242C192.368 51.1155 192.55 50.985 192.673 50.8328V50.8371ZM191.571 50.6153C191.516 50.5239 191.49 50.4413 191.49 50.363C191.49 50.2586 191.529 50.1716 191.609 50.1063C191.685 50.0367 191.787 50.0063 191.91 50.0063C192.033 50.0063 192.139 50.0411 192.211 50.1107C192.287 50.1803 192.325 50.2716 192.325 50.3804C192.325 50.4848 192.283 50.5805 192.202 50.6718C192.118 50.7632 191.999 50.8458 191.838 50.9241C191.715 50.811 191.63 50.711 191.575 50.6196L191.571 50.6153Z" fill="#6D6F71"/>
<path d="M196.36 50.1071C196.601 50.1071 196.775 50.1463 196.885 50.2289C196.996 50.3072 197.051 50.4334 197.051 50.6074C197.051 50.7683 196.996 50.8901 196.881 50.9771C196.771 51.0641 196.61 51.1076 196.402 51.1076H196.076V50.1115H196.356L196.36 50.1071ZM195.449 52.9606H196.076V51.5687H196.275C196.436 51.5687 196.559 51.5991 196.64 51.6557C196.72 51.7122 196.788 51.8123 196.839 51.9602L197.203 52.965H197.877L197.428 51.8123C197.36 51.6339 197.296 51.5121 197.237 51.4512C197.182 51.3903 197.106 51.3425 197.012 51.312C197.229 51.2642 197.398 51.1728 197.513 51.0336C197.631 50.8945 197.686 50.7161 197.686 50.503C197.686 50.2159 197.589 50.0027 197.39 49.8635C197.19 49.72 196.898 49.6504 196.504 49.6504H195.444V52.9693L195.449 52.9606Z" fill="#6D6F71"/>
<path d="M198.666 51.5244C198.687 51.3199 198.75 51.159 198.852 51.0459C198.954 50.9328 199.081 50.8762 199.238 50.8762C199.395 50.8762 199.517 50.9328 199.611 51.0459C199.708 51.159 199.763 51.3199 199.78 51.5244H198.666ZM200.043 50.7979C199.852 50.5804 199.585 50.4717 199.242 50.4717C198.899 50.4717 198.615 50.5848 198.399 50.811C198.182 51.0372 198.072 51.3373 198.072 51.7027C198.072 52.1159 198.182 52.4378 198.407 52.6727C198.627 52.9076 198.937 53.0207 199.331 53.0207C199.484 53.0207 199.623 53.0077 199.759 52.9859C199.89 52.9598 200.018 52.925 200.132 52.8772V52.3943C200.026 52.4552 199.912 52.4987 199.797 52.5292C199.683 52.5596 199.56 52.5727 199.437 52.5727C199.212 52.5727 199.03 52.5118 198.894 52.3943C198.759 52.2769 198.678 52.1116 198.661 51.9071H200.327V51.7114C200.327 51.3156 200.234 51.0111 200.043 50.7892V50.7979Z" fill="#6D6F71"/>
<path d="M202.997 51.5161V52.9602H202.386V51.6509C202.386 51.4247 202.348 51.2594 202.272 51.1551C202.196 51.0507 202.081 50.9941 201.92 50.9941C201.751 50.9941 201.615 51.0637 201.518 51.1986C201.416 51.3334 201.369 51.5204 201.369 51.7553V52.9602H200.763V50.533H201.318V50.9724C201.407 50.8071 201.522 50.6809 201.666 50.5939C201.806 50.5069 201.971 50.4678 202.158 50.4678C202.437 50.4678 202.645 50.5548 202.789 50.7331C202.933 50.9115 203.001 51.1724 203.001 51.5117L202.997 51.5161Z" fill="#6D6F71"/>
<path d="M204.039 51.5244C204.06 51.3199 204.124 51.159 204.226 51.0459C204.328 50.9328 204.455 50.8762 204.611 50.8762C204.768 50.8762 204.891 50.9328 204.984 51.0459C205.082 51.159 205.137 51.3199 205.154 51.5244H204.039ZM205.417 50.7979C205.226 50.5804 204.959 50.4717 204.616 50.4717C204.272 50.4717 203.988 50.5848 203.772 50.811C203.556 51.0372 203.45 51.3373 203.45 51.7027C203.45 52.1159 203.56 52.4378 203.785 52.6727C204.005 52.9076 204.315 53.0207 204.709 53.0207C204.862 53.0207 205.001 53.0077 205.137 52.9859C205.273 52.9598 205.396 52.925 205.51 52.8772V52.3943C205.404 52.4552 205.29 52.4987 205.175 52.5292C205.061 52.5596 204.938 52.5727 204.815 52.5727C204.59 52.5727 204.408 52.5118 204.272 52.3943C204.137 52.2769 204.056 52.1116 204.039 51.9071H205.705V51.7114C205.705 51.3156 205.607 51.0111 205.421 50.7892L205.417 50.7979Z" fill="#6D6F71"/>
<path d="M205.849 50.5332H206.498L206.917 52.2558C206.926 52.2949 206.934 52.3471 206.943 52.4124C206.951 52.4819 206.96 52.5559 206.964 52.6385C206.972 52.5472 206.981 52.4645 206.989 52.395C206.998 52.3254 207.006 52.2775 207.01 52.2601L207.468 50.5332H208.206L208.659 52.2732C208.663 52.2949 208.672 52.3384 208.68 52.4036C208.689 52.4645 208.693 52.5472 208.701 52.6429C208.71 52.508 208.718 52.4167 208.723 52.3688C208.723 52.321 208.731 52.2906 208.735 52.2819L209.189 50.5376H209.782L209.032 52.9648H208.337L207.862 51.1509C207.85 51.1074 207.841 51.0552 207.837 50.9986C207.828 50.9421 207.824 50.8812 207.824 50.8159C207.816 50.9073 207.807 50.9812 207.799 51.0334C207.79 51.09 207.786 51.1204 207.782 51.1378L207.299 52.9648H206.591L205.858 50.5376L205.849 50.5332Z" fill="#6D6F71"/>
<path d="M211.494 51.8027V51.9332C211.494 52.1246 211.439 52.2812 211.333 52.403C211.223 52.5248 211.088 52.5857 210.922 52.5857C210.808 52.5857 210.715 52.5509 210.643 52.4857C210.57 52.4204 210.537 52.3334 210.537 52.229C210.537 52.0898 210.6 51.9854 210.723 51.9115C210.85 51.8419 211.037 51.8071 211.282 51.8071H211.494V51.8027ZM211.833 50.737C211.672 50.5587 211.414 50.4717 211.058 50.4717C210.918 50.4717 210.782 50.4847 210.647 50.5152C210.511 50.5413 210.371 50.5891 210.231 50.6457L210.24 51.0894C210.359 51.0241 210.477 50.9763 210.587 50.9458C210.702 50.9154 210.808 50.898 210.914 50.898C211.1 50.898 211.24 50.9458 211.342 51.0372C211.444 51.1285 211.494 51.259 211.494 51.4243V51.4591H211.181C210.765 51.4591 210.456 51.5287 210.248 51.6592C210.041 51.794 209.939 51.9941 209.939 52.2638C209.939 52.49 210.011 52.6727 210.159 52.8163C210.303 52.9598 210.494 53.0294 210.732 53.0294C210.897 53.0294 211.045 52.9903 211.181 52.912C211.316 52.8337 211.431 52.7206 211.533 52.5727L211.541 52.9642H212.079V51.5852C212.079 51.2025 211.999 50.9197 211.833 50.7414V50.737Z" fill="#6D6F71"/>
<path d="M214.296 51.1595C214.398 51.3074 214.449 51.5032 214.449 51.7467C214.449 51.9816 214.398 52.1687 214.292 52.3079C214.19 52.4471 214.05 52.5167 213.881 52.5167C213.711 52.5167 213.559 52.4471 213.453 52.3035C213.347 52.16 213.296 51.9729 213.296 51.7293C213.296 51.4858 213.351 51.29 213.457 51.1465C213.567 51.0029 213.711 50.9333 213.898 50.9333C214.063 50.9333 214.194 51.0073 214.296 51.1552V51.1595ZM212.686 52.9604H213.237V52.4732C213.326 52.6428 213.44 52.7733 213.584 52.8647C213.728 52.956 213.893 52.9995 214.076 52.9995C214.372 52.9995 214.614 52.8777 214.805 52.6428C214.991 52.4036 215.084 52.0947 215.084 51.7076C215.084 51.3205 214.991 51.0334 214.809 50.8115C214.627 50.5853 214.381 50.4766 214.076 50.4766C213.91 50.4766 213.762 50.5114 213.631 50.5853C213.499 50.6593 213.389 50.7637 213.3 50.9029V49.3848H212.69V52.9691L212.686 52.9604Z" fill="#6D6F71"/>
<path d="M215.597 49.376H216.203V52.9603H215.597V49.376Z" fill="#6D6F71"/>
<path d="M217.28 51.5244C217.301 51.3199 217.364 51.159 217.466 51.0459C217.568 50.9328 217.699 50.8762 217.852 50.8762C218.004 50.8762 218.131 50.9328 218.225 51.0459C218.322 51.159 218.377 51.3199 218.394 51.5244H217.28ZM218.661 50.7979C218.47 50.5804 218.203 50.4717 217.86 50.4717C217.517 50.4717 217.233 50.5848 217.017 50.811C216.801 51.0372 216.69 51.3373 216.69 51.7027C216.69 52.1159 216.801 52.4378 217.025 52.6727C217.246 52.9076 217.555 53.0207 217.949 53.0207C218.102 53.0207 218.242 53.0077 218.377 52.9859C218.509 52.9598 218.636 52.925 218.75 52.8772V52.3943C218.644 52.4552 218.53 52.4987 218.415 52.5292C218.301 52.5596 218.178 52.5727 218.055 52.5727C217.831 52.5727 217.648 52.5118 217.513 52.3943C217.373 52.2769 217.296 52.1116 217.28 51.9071H218.945V51.7114C218.945 51.3156 218.852 51.0111 218.661 50.7892V50.7979Z" fill="#6D6F71"/>
<path d="M220.717 49.6411H222.696V50.1152H221.353V50.9939H222.624V51.4811H221.353V52.4511H222.743V52.9557H220.717V49.6367V49.6411Z" fill="#6D6F71"/>
<path d="M225.553 51.5161V52.9602H224.943V51.6509C224.943 51.4247 224.904 51.2594 224.828 51.1551C224.752 51.0507 224.637 50.9941 224.476 50.9941C224.307 50.9941 224.171 51.0637 224.074 51.1986C223.972 51.3334 223.925 51.5204 223.925 51.7553V52.9602H223.319V50.533H223.875V50.9724C223.964 50.8071 224.078 50.6809 224.222 50.5939C224.366 50.5069 224.527 50.4678 224.714 50.4678C224.993 50.4678 225.201 50.5548 225.345 50.7331C225.489 50.9115 225.557 51.1724 225.557 51.5117L225.553 51.5161Z" fill="#6D6F71"/>
<path d="M226.595 51.5244C226.617 51.3199 226.68 51.159 226.782 51.0459C226.884 50.9328 227.011 50.8762 227.168 50.8762C227.324 50.8762 227.447 50.9328 227.541 51.0459C227.638 51.159 227.693 51.3199 227.71 51.5244H226.595ZM227.973 50.7979C227.782 50.5804 227.515 50.4717 227.172 50.4717C226.829 50.4717 226.545 50.5848 226.328 50.811C226.112 51.0372 226.006 51.3373 226.006 51.7027C226.006 52.1159 226.117 52.4378 226.341 52.6727C226.562 52.9076 226.871 53.0207 227.265 53.0207C227.418 53.0207 227.558 53.0077 227.693 52.9859C227.829 52.9642 227.952 52.925 228.066 52.8772V52.3943C227.96 52.4552 227.846 52.4987 227.731 52.5292C227.617 52.5596 227.494 52.5727 227.371 52.5727C227.146 52.5727 226.964 52.5118 226.829 52.3943C226.693 52.2769 226.612 52.1116 226.595 51.9071H228.261V51.7114C228.261 51.3156 228.168 51.0111 227.977 50.7892L227.973 50.7979Z" fill="#6D6F71"/>
<path d="M230.143 50.4982L230.121 51.0594C230.088 51.0507 230.058 51.042 230.02 51.0333C229.986 51.0289 229.948 51.0246 229.91 51.0246C229.71 51.0246 229.558 51.0942 229.452 51.229C229.346 51.3638 229.295 51.5639 229.295 51.8249V52.9559H228.689V50.5287H229.236V51.0115C229.312 50.8288 229.409 50.694 229.524 50.6026C229.638 50.5113 229.778 50.4678 229.935 50.4678C229.96 50.4678 229.994 50.4678 230.028 50.4721C230.062 50.4721 230.1 50.4808 230.147 50.4895L230.143 50.4982Z" fill="#6D6F71"/>
<path d="M231.969 51.1546C232.075 51.2938 232.126 51.4852 232.126 51.7244C232.126 51.9419 232.071 52.1203 231.961 52.2595C231.851 52.3987 231.715 52.4683 231.546 52.4683C231.376 52.4683 231.236 52.3987 231.135 52.2595C231.033 52.1203 230.982 51.9332 230.982 51.6983C230.982 51.4635 231.033 51.2895 231.135 51.1546C231.236 51.0154 231.372 50.9502 231.537 50.9502C231.715 50.9502 231.859 51.0198 231.965 51.159L231.969 51.1546ZM231.825 50.5891C231.69 50.5108 231.533 50.4717 231.355 50.4717C231.054 50.4717 230.808 50.5891 230.617 50.8197C230.427 51.0502 230.333 51.3547 230.333 51.7244C230.333 52.0942 230.427 52.39 230.617 52.6118C230.804 52.838 231.054 52.9468 231.359 52.9468C231.52 52.9468 231.664 52.912 231.796 52.838C231.927 52.7641 232.041 52.651 232.147 52.4987V52.7597C232.147 53.0033 232.08 53.1947 231.94 53.3339C231.804 53.4731 231.609 53.5383 231.368 53.5383C231.249 53.5383 231.13 53.5209 231.003 53.4905C230.88 53.4557 230.753 53.4078 230.626 53.3469L230.588 53.8472C230.723 53.895 230.859 53.9342 230.995 53.9603C231.135 53.9864 231.274 53.9994 231.414 53.9994C231.855 53.9994 232.186 53.8907 232.402 53.6688C232.618 53.447 232.728 53.1121 232.728 52.664V50.5369H232.164V50.9545C232.067 50.7936 231.948 50.6718 231.813 50.5935L231.825 50.5891Z" fill="#6D6F71"/>
<path d="M233.071 50.5332H233.728L234.317 52.3862L234.889 50.5332H235.504L234.571 53.0648C234.444 53.4172 234.304 53.6608 234.156 53.7956C234.008 53.9305 233.809 54.0001 233.563 54.0001C233.52 54.0001 233.474 54.0001 233.414 53.9914C233.359 53.987 233.292 53.974 233.215 53.9653L233.266 53.4737C233.3 53.4824 233.334 53.4911 233.364 53.4998C233.397 53.5042 233.427 53.5085 233.461 53.5085C233.58 53.5085 233.681 53.4737 233.762 53.4041C233.847 53.3345 233.923 53.2127 233.999 53.0518L233.067 50.5419L233.071 50.5332Z" fill="#6D6F71"/>
</g>
<defs>
<radialGradient id="paint0_radial_428_1426" cx="0" cy="0" r="1" gradientUnits="userSpaceOnUse" gradientTransform="translate(214.139 20.68) scale(11.4774 11.7798)">
<stop stop-color="#FFE100"/>
<stop offset="1" stop-color="#F08300"/>
</radialGradient>
<linearGradient id="paint1_linear_428_1426" x1="211.688" y1="26.1311" x2="183.208" y2="26.1311" gradientUnits="userSpaceOnUse">
<stop offset="0.1" stop-color="#DAE000"/>
<stop offset="0.16" stop-color="#C5D909"/>
<stop offset="0.39" stop-color="#80C328"/>
<stop offset="0.6" stop-color="#49B241"/>
<stop offset="0.77" stop-color="#21A553"/>
<stop offset="0.91" stop-color="#089D5E"/>
<stop offset="1" stop-color="#009B63"/>
</linearGradient>
<clipPath id="clip0_428_1426">
<rect width="61" height="71" fill="white" transform="translate(0.5)"/>
</clipPath>
<clipPath id="clip1_428_1426">
<rect width="52" height="65" fill="white" transform="translate(93.5 3)"/>
</clipPath>
<clipPath id="clip2_428_1426">
<rect width="58" height="37" fill="white" transform="translate(177.5 17)"/>
</clipPath>
</defs>
</svg>
