<svg width="375" height="1708" viewBox="0 0 375 1708" fill="none" xmlns="http://www.w3.org/2000/svg">
<path d="M292 1394L292 899" stroke="#647EEC" stroke-width="3" stroke-linecap="round" stroke-linejoin="round" stroke-dasharray="1 9"/>
<path d="M285.8 903.901L292.5 890.142L299.2 903.901H285.8Z" fill="#2F5BC1" stroke="#647EEC"/>
<path d="M330 1581L330 899" stroke="#7F95FA" stroke-width="3" stroke-linecap="round" stroke-linejoin="round" stroke-dasharray="1 9"/>
<path d="M338 904.401L330.5 889L323 904.401H338Z" fill="#7F95FA"/>
<path d="M184 1227L184 897" stroke="#496BD6" stroke-width="3" stroke-linecap="round" stroke-linejoin="round" stroke-dasharray="1 9"/>
<path d="M191 1228L198 1228" stroke="#496BD6" stroke-width="3" stroke-linecap="round" stroke-dasharray="1 9"/>
<path d="M316 1581L323 1581" stroke="#7F95FA" stroke-width="3" stroke-linecap="round" stroke-dasharray="1 9"/>
<path d="M177.902 900.5L184.5 889.943L191.098 900.5H177.902Z" fill="#2F5BC1" stroke="#496BD6"/>
<rect width="120" height="48" transform="translate(160 924)" fill="#F5F5F5"/>
<path d="M199.401 954V952.531L203.401 948.672C204.542 947.531 205.135 946.859 205.135 945.906C205.135 944.852 204.3 944.188 203.198 944.188C202.034 944.188 201.284 944.914 201.292 946.062H199.354C199.346 943.922 200.956 942.531 203.214 942.531C205.526 942.531 207.081 943.914 207.089 945.812C207.081 947.086 206.471 948.117 204.245 950.219L202.229 952.219V952.297H207.26V954H199.401ZM210.542 954.125C209.87 954.125 209.315 953.578 209.323 952.906C209.315 952.25 209.87 951.711 210.542 951.703C211.19 951.711 211.745 952.25 211.745 952.906C211.745 953.578 211.19 954.125 210.542 954.125ZM229.812 942.125V943.391C229.805 944.711 229.805 946.156 229.438 948.156H231.391V949.562H225.781V955.406H224.031V949.562H218.516V948.156H227.672C228.062 946.234 228.078 944.789 228.078 943.531H220.031V942.125H229.812ZM244.781 941.266V955.391H243.109V948.156H241.609V954.703H239.969V941.516H241.609V946.719H243.109V941.266H244.781ZM233.031 951.75V942.797H238.578V951.75H233.031ZM234.656 950.375H236.953V944.172H234.656V950.375Z" fill="#1C3575"/>
<rect width="120" height="48" transform="translate(191 992)" fill="#F5F5F5"/>
<path d="M215.745 1019.89V1018.27L220.635 1010.69H223.167V1018.22H224.651V1019.89H223.167V1022H221.229V1019.89H215.745ZM217.823 1018.22H221.26V1013H221.135L217.823 1018.14V1018.22ZM227.464 1022.12C226.792 1022.12 226.237 1021.58 226.245 1020.91C226.237 1020.25 226.792 1019.71 227.464 1019.7C228.112 1019.71 228.667 1020.25 228.667 1020.91C228.667 1021.58 228.112 1022.12 227.464 1022.12ZM240.438 1011.52C240.438 1013.29 241.586 1014.97 243.766 1015.66L242.828 1017.02C241.305 1016.5 240.211 1015.47 239.594 1014.16C238.984 1015.66 237.844 1016.84 236.219 1017.41L235.281 1016.05C237.555 1015.26 238.695 1013.38 238.703 1011.36V1010.02H240.438V1011.52ZM237.203 1020.69C237.203 1019.02 239.039 1018.02 241.984 1018.03C244.906 1018.02 246.711 1019.02 246.719 1020.69C246.711 1022.4 244.906 1023.38 241.984 1023.38C239.039 1023.38 237.203 1022.4 237.203 1020.69ZM238.938 1020.69C238.938 1021.56 240.047 1022 241.984 1022C243.914 1022 245 1021.56 245 1020.69C245 1019.86 243.914 1019.39 241.984 1019.39C240.047 1019.39 238.938 1019.86 238.938 1020.69ZM244.844 1017.72V1009.27H246.578V1012.7H248.547V1014.14H246.578V1017.72H244.844ZM262.391 1015.95V1017.34H256.797V1018.7H260.828V1023.22H251.031V1018.7H255.078V1017.34H249.516V1015.95H262.391ZM250.672 1011.08V1009.69H261.203V1011.08H259.266V1013.5H261.125V1014.91H250.75V1013.5H252.609V1011.08H250.672ZM252.75 1021.81H259.141V1020.05H252.75V1021.81ZM254.344 1013.5H257.516V1011.08H254.344V1013.5ZM275.359 1009.28V1019.48H273.609V1009.28H275.359ZM263.844 1013.73C263.844 1011.68 265.508 1010.21 267.656 1010.2C269.805 1010.21 271.461 1011.68 271.453 1013.73C271.461 1015.82 269.805 1017.28 267.656 1017.28C265.508 1017.28 263.844 1015.82 263.844 1013.73ZM265.547 1013.73C265.539 1014.98 266.445 1015.77 267.656 1015.77C268.836 1015.77 269.75 1014.98 269.75 1013.73C269.75 1012.52 268.836 1011.72 267.656 1011.72C266.445 1011.72 265.539 1012.52 265.547 1013.73ZM266.016 1023.11V1018.45H267.766V1021.7H275.75V1023.11H266.016ZM285.031 1010.44C285.023 1012.21 287.016 1014.02 290.031 1014.41L289.344 1015.81C286.945 1015.45 285.039 1014.27 284.117 1012.68C283.195 1014.27 281.297 1015.45 278.922 1015.81L278.234 1014.41C281.219 1014.02 283.203 1012.23 283.203 1010.44V1009.72H285.031V1010.44ZM277.672 1018.47V1017.03H290.547V1018.47H284.938V1023.39H283.219V1018.47H277.672Z" fill="#1C3575"/>
<rect width="120" height="48" transform="translate(235 1060)" fill="#F5F5F5"/>
<path d="M264.26 1090.16C262.05 1090.14 259.846 1088.83 259.854 1084.66C259.854 1080.79 261.612 1078.53 264.385 1078.53C266.565 1078.53 268.065 1079.9 268.323 1081.73H266.307C266.104 1080.87 265.417 1080.29 264.385 1080.3C262.745 1080.29 261.831 1081.74 261.823 1084.12H261.932C262.51 1083.15 263.596 1082.57 264.839 1082.58C266.87 1082.57 268.44 1084.11 268.432 1086.25C268.44 1088.5 266.76 1090.17 264.26 1090.16ZM262.042 1086.31C262.057 1087.49 262.979 1088.51 264.26 1088.52C265.518 1088.51 266.456 1087.54 266.464 1086.3C266.456 1085.09 265.55 1084.12 264.292 1084.12C263.018 1084.12 262.057 1085.13 262.042 1086.31ZM271.464 1090.12C270.792 1090.12 270.237 1089.58 270.245 1088.91C270.237 1088.25 270.792 1087.71 271.464 1087.7C272.112 1087.71 272.667 1088.25 272.667 1088.91C272.667 1089.58 272.112 1090.12 271.464 1090.12ZM291.594 1077.27V1091.39H289.938V1084.19H288.344V1090.67H286.75V1077.53H288.344V1082.8H289.938V1077.27H291.594ZM279.875 1088.09V1078.94H285.156V1080.34H281.625V1086.62C283.156 1086.61 284.422 1086.53 285.859 1086.27L285.984 1087.69C284.273 1088.03 282.797 1088.08 280.828 1088.09H279.875ZM304.844 1077.95V1079.05C304.852 1080.15 304.852 1081.4 304.5 1083.06H306.422V1084.47H293.516V1083.06H302.742C303.078 1081.53 303.109 1080.38 303.109 1079.34H295.109V1077.95H304.844ZM295.062 1091.22V1086.11H304.828V1091.22H295.062ZM296.766 1089.81H303.109V1087.47H296.766V1089.81ZM319.422 1077.27V1085.66H317.688V1082.2H315.281V1080.78H317.688V1077.27H319.422ZM307.547 1084.25C309.82 1083.47 311.016 1081.57 311.016 1079.7V1079.59H308.078V1078.19H315.703V1079.59H312.781V1079.69C312.781 1081.41 313.922 1083.14 316.109 1083.88L315.234 1085.25C313.664 1084.72 312.555 1083.64 311.93 1082.31C311.312 1083.81 310.133 1085.03 308.453 1085.62L307.547 1084.25ZM309.844 1088.7C309.828 1087.01 311.664 1086.02 314.641 1086.02C317.633 1086.02 319.461 1087.01 319.469 1088.7C319.461 1090.4 317.633 1091.38 314.641 1091.39C311.664 1091.38 309.828 1090.4 309.844 1088.7ZM311.562 1088.7C311.555 1089.58 312.68 1090.05 314.641 1090.05C316.617 1090.05 317.734 1089.58 317.734 1088.7C317.734 1087.82 316.617 1087.34 314.641 1087.34C312.68 1087.34 311.555 1087.82 311.562 1088.7ZM326.734 1079.77C326.719 1081.62 327.891 1083.39 330.109 1084.11L329.203 1085.48C327.641 1084.95 326.523 1083.89 325.906 1082.53C325.281 1084.03 324.117 1085.2 322.469 1085.78L321.5 1084.41C323.82 1083.65 324.984 1081.76 324.984 1079.75V1078.14H326.734V1079.77ZM323.766 1091.11V1086.62H325.547V1089.7H333.375V1091.11H323.766ZM331.078 1087.64V1077.27H332.812V1081.44H334.781V1082.91H332.812V1087.64H331.078Z" fill="#1C3575"/>
<rect x="20" y="220" width="120" height="120" rx="60" fill="#2F5BC1"/>
<path d="M64.3496 272.625V274.363H62.8066V279.588C63.5781 279.52 64.3301 279.451 65.0527 279.363L65.209 280.965C61.6543 281.561 57.5918 281.629 54.6035 281.629L54.3691 279.871C55.0039 279.871 55.6875 279.861 56.4004 279.852V274.363H54.8379V272.625H64.3496ZM57.0254 288.387V282.859H59.1934V286.629H69.0371V288.387H57.0254ZM58.4902 279.803C59.2129 279.783 59.9551 279.754 60.6973 279.715V274.363H58.4902V279.803ZM66.166 284.09V271.102H68.334V276.199H70.7949V278.016H68.334V284.09H66.166ZM87.1777 271.082V288.738H85.0879V279.695H83.2129V287.879H81.1621V271.395H83.2129V277.898H85.0879V271.082H87.1777ZM72.4902 284.188V272.996H79.4238V284.188H72.4902ZM74.5215 282.469H77.3926V274.715H74.5215V282.469ZM95.8066 276.102C95.7969 278.826 97.4375 281.932 100.221 283.23L99.0098 284.949C97.0176 284.012 95.543 282.117 94.752 279.91C93.9512 282.332 92.4082 284.402 90.377 285.379L89.1074 283.68C91.9199 282.342 93.6289 279.041 93.6387 276.102V274.617H89.791V272.82H99.498V274.617H95.8066V276.102ZM101.139 288.738V271.082H103.307V277.957H106.021V279.773H103.307V288.738H101.139Z" fill="white"/>
<rect x="162" y="2" width="191" height="556" stroke="#D7D9FF" stroke-width="4"/>
<rect x="197.5" y="20" width="120" height="120" rx="60" fill="#496BD6"/>
<path d="M285.62 72.5005V50.9428C285.62 50.4265 285.203 50.0029 284.68 50.0029H230.313C229.797 50.0029 229.373 50.4199 229.373 50.9428V72.5005C228.341 72.5005 227.5 73.3411 227.5 74.3736V79.0598C227.5 80.0923 228.341 80.9329 229.373 80.9329H230.313V108.117H228.44C227.924 108.117 227.5 108.534 227.5 109.057C227.5 109.579 227.917 109.996 228.44 109.996H286.56C287.076 109.996 287.5 109.579 287.5 109.057C287.5 108.534 287.083 108.117 286.56 108.117H284.687V80.9329H285.627C286.66 80.9329 287.5 80.0923 287.5 79.0598V74.3736C287.5 73.3411 286.66 72.5005 285.627 72.5005H285.62ZM231.253 51.8761H283.747V72.5005H231.253V51.8761ZM235.006 108.117H232.193V80.9329H235.006V108.117ZM246.721 106.713C245.947 106.713 245.318 106.085 245.318 105.31C245.318 104.536 245.947 103.907 246.721 103.907C247.496 103.907 248.124 104.536 248.124 105.31C248.124 106.085 247.496 106.713 246.721 106.713ZM250.004 93.1183H250.944V98.2743H242.505V98.0228L244.961 93.1183H250.004ZM247.191 91.2451C247.191 90.7288 247.608 90.3052 248.131 90.3052C248.654 90.3052 249.071 90.7222 249.071 91.2451H247.198H247.191ZM250.937 100.154V104.37H249.865C249.342 102.636 247.515 101.65 245.781 102.173C244.722 102.491 243.895 103.318 243.584 104.37H242.505V100.154H250.944H250.937ZM248.402 108.117C249.104 107.7 249.627 107.025 249.865 106.243H256.696C256.934 107.031 257.45 107.7 258.159 108.117H248.402ZM252.817 104.37V93.1249H272.502V104.37H270.959C270.437 102.636 268.61 101.65 266.876 102.173C265.817 102.491 264.989 103.318 264.678 104.37H262.997C262.474 102.636 260.647 101.65 258.913 102.173C257.854 102.491 257.027 103.318 256.716 104.37H252.824H252.817ZM259.846 106.713C259.072 106.713 258.443 106.085 258.443 105.31C258.443 104.536 259.072 103.907 259.846 103.907C260.621 103.907 261.25 104.536 261.25 105.31C261.25 106.085 260.621 106.713 259.846 106.713ZM261.528 108.117C262.229 107.7 262.752 107.025 262.99 106.243H264.672C264.91 107.031 265.426 107.7 266.134 108.117H261.528ZM267.809 106.713C267.034 106.713 266.406 106.085 266.406 105.31C266.406 104.536 267.034 103.907 267.809 103.907C268.583 103.907 269.212 104.536 269.212 105.31C269.212 106.085 268.583 106.713 267.809 106.713ZM278.121 108.117H269.49C270.192 107.7 270.715 107.025 270.953 106.243H273.435C273.951 106.243 274.375 105.826 274.375 105.304V92.1784C274.375 91.6621 273.958 91.2385 273.435 91.2385H250.937C250.937 89.6831 249.68 88.4255 248.124 88.4255C246.569 88.4255 245.311 89.6831 245.311 91.2385H244.371C244.014 91.2385 243.69 91.4371 243.531 91.7614L240.718 97.3874C240.652 97.5198 240.619 97.6588 240.619 97.8044V105.304C240.619 105.82 241.036 106.243 241.558 106.243H243.571C243.809 107.031 244.325 107.7 245.033 108.117H236.872V80.9329H278.114V108.117H278.121ZM282.807 108.117H279.994V80.9329H282.807V108.117ZM283.747 79.0598H229.38V74.3736H285.62V79.0598H283.747Z" fill="#FBF8F7" stroke="#7BB6C4" stroke-width="0.5" stroke-miterlimit="10"/>
<path d="M241.566 53.75H235.94C235.424 53.75 235 54.167 235 54.6899V60.3159C235 60.8322 235.417 61.2558 235.94 61.2558H241.566C242.082 61.2558 242.506 60.8388 242.506 60.3159V54.6899C242.506 54.1736 242.089 53.75 241.566 53.75ZM240.626 59.376H236.88V55.6297H240.626V59.376Z" fill="#FBF8F7" stroke="#7BB6C4" stroke-width="0.5" stroke-miterlimit="10"/>
<path d="M250.937 53.75H245.311C244.795 53.75 244.371 54.167 244.371 54.6899V60.3159C244.371 60.8322 244.788 61.2558 245.311 61.2558H250.937C251.453 61.2558 251.877 60.8388 251.877 60.3159V54.6899C251.877 54.1736 251.46 53.75 250.937 53.75ZM250.004 59.376H246.257V55.6297H250.004V59.376Z" fill="#FBF8F7" stroke="#7BB6C4" stroke-width="0.5" stroke-miterlimit="10"/>
<path d="M260.316 53.75H254.69C254.174 53.75 253.75 54.167 253.75 54.6899V60.3159C253.75 60.8322 254.167 61.2558 254.69 61.2558H260.316C260.832 61.2558 261.256 60.8388 261.256 60.3159V54.6899C261.256 54.1736 260.839 53.75 260.316 53.75ZM259.376 59.376H255.63V55.6297H259.376V59.376Z" fill="#FBF8F7" stroke="#7BB6C4" stroke-width="0.5" stroke-miterlimit="10"/>
<path d="M269.687 53.75H264.061C263.545 53.75 263.121 54.167 263.121 54.6899V60.3159C263.121 60.8322 263.538 61.2558 264.061 61.2558H269.687C270.203 61.2558 270.627 60.8388 270.627 60.3159V54.6899C270.627 54.1736 270.21 53.75 269.687 53.75ZM268.747 59.376H265.001V55.6297H268.747V59.376Z" fill="#FBF8F7" stroke="#7BB6C4" stroke-width="0.5" stroke-miterlimit="10"/>
<path d="M279.06 53.75H273.434C272.918 53.75 272.494 54.167 272.494 54.6899V60.3159C272.494 60.8322 272.911 61.2558 273.434 61.2558H279.06C279.576 61.2558 280 60.8388 280 60.3159V54.6899C280 54.1736 279.583 53.75 279.06 53.75ZM278.12 59.376H274.374V55.6297H278.12V59.376Z" fill="#FBF8F7" stroke="#7BB6C4" stroke-width="0.5" stroke-miterlimit="10"/>
<path d="M241.566 63.1279H235.94C235.424 63.1279 235 63.5449 235 64.0678V69.6938C235 70.2101 235.417 70.6337 235.94 70.6337H241.566C242.082 70.6337 242.506 70.2167 242.506 69.6938V64.0678C242.506 63.5515 242.089 63.1279 241.566 63.1279ZM240.626 68.7473H236.88V65.0011H240.626V68.7473Z" fill="#FBF8F7" stroke="#7BB6C4" stroke-width="0.5" stroke-miterlimit="10"/>
<path d="M250.937 63.1279H245.311C244.795 63.1279 244.371 63.5449 244.371 64.0678V69.6938C244.371 70.2101 244.788 70.6337 245.311 70.6337H250.937C251.453 70.6337 251.877 70.2167 251.877 69.6938V64.0678C251.877 63.5515 251.46 63.1279 250.937 63.1279ZM250.004 68.7473H246.257V65.0011H250.004V68.7473Z" fill="#FBF8F7" stroke="#7BB6C4" stroke-width="0.5" stroke-miterlimit="10"/>
<path d="M260.316 63.1279H254.69C254.174 63.1279 253.75 63.5449 253.75 64.0678V69.6938C253.75 70.2101 254.167 70.6337 254.69 70.6337H260.316C260.832 70.6337 261.256 70.2167 261.256 69.6938V64.0678C261.256 63.5515 260.839 63.1279 260.316 63.1279ZM259.376 68.7473H255.63V65.0011H259.376V68.7473Z" fill="#FBF8F7" stroke="#7BB6C4" stroke-width="0.5" stroke-miterlimit="10"/>
<path d="M269.687 63.1279H264.061C263.545 63.1279 263.121 63.5449 263.121 64.0678V69.6938C263.121 70.2101 263.538 70.6337 264.061 70.6337H269.687C270.203 70.6337 270.627 70.2167 270.627 69.6938V64.0678C270.627 63.5515 270.21 63.1279 269.687 63.1279ZM268.747 68.7473H265.001V65.0011H268.747V68.7473Z" fill="#FBF8F7" stroke="#7BB6C4" stroke-width="0.5" stroke-miterlimit="10"/>
<path d="M279.06 63.1279H273.434C272.918 63.1279 272.494 63.5449 272.494 64.0678V69.6938C272.494 70.2101 272.911 70.6337 273.434 70.6337H279.06C279.576 70.6337 280 70.2167 280 69.6938V64.0678C280 63.5515 279.583 63.1279 279.06 63.1279ZM278.12 68.7473H274.374V65.0011H278.12V68.7473Z" fill="#FBF8F7" stroke="#7BB6C4" stroke-width="0.5" stroke-miterlimit="10"/>
<path d="M271.329 100.154C271.329 99.6379 270.912 99.2143 270.389 99.2143H269.217V96.4013H270.389C270.905 96.4013 271.329 95.9842 271.329 95.4614C271.329 94.9385 270.912 94.5215 270.389 94.5215H254.92C254.404 94.5215 253.98 94.9385 253.98 95.4614C253.98 95.9842 254.397 96.4013 254.92 96.4013H256.092V99.2143H254.92C254.404 99.2143 253.98 99.6313 253.98 100.154C253.98 100.677 254.397 101.094 254.92 101.094H270.389C270.905 101.094 271.329 100.677 271.329 100.154ZM259.845 99.2143H257.972V96.4013H259.845V99.2143ZM263.591 99.2143H261.718V96.4013H263.591V99.2143ZM267.344 99.2143H265.471V96.4013H267.344V99.2143Z" fill="#FBF8F7" stroke="#7BB6C4" stroke-width="0.5" stroke-miterlimit="10"/>
<path d="M227.328 167.688V169.062H223.141V172.297H228.766V173.719H215.859V172.297H221.422V169.062H217.422V162.312H227.219V163.703H219.156V167.688H227.328ZM242.125 161.266V175.391H240.453V168.156H238.953V174.703H237.312V161.516H238.953V166.719H240.453V161.266H242.125ZM230.375 171.75V162.797H235.922V171.75H230.375ZM232 170.375H234.297V164.172H232V170.375ZM249.359 164.656C249.344 167.25 250.711 169.844 253 170.828L251.969 172.219C250.344 171.469 249.156 169.977 248.5 168.133C247.852 170.117 246.633 171.742 244.922 172.547L243.859 171.094C246.211 170.078 247.586 167.383 247.594 164.656V162.406H249.359V164.656ZM254.016 175.406V161.266H255.766V175.406H254.016ZM263.156 163.812C263.156 165.539 264.273 167.164 266.484 167.844L265.656 169.203C264.07 168.703 262.945 167.695 262.328 166.422C261.703 167.906 260.516 169.086 258.812 169.656L257.938 168.281C260.211 167.539 261.406 165.703 261.406 163.828V163.656H258.422V162.25H266.094V163.656H263.156V163.812ZM259.859 172.672C259.859 170.984 261.688 170 264.641 170C267.57 170 269.367 170.984 269.375 172.672C269.367 174.375 267.57 175.375 264.641 175.375C261.688 175.375 259.859 174.375 259.859 172.672ZM261.594 172.672C261.594 173.547 262.703 174.008 264.641 174.016C266.57 174.008 267.656 173.547 267.656 172.672C267.656 171.812 266.57 171.359 264.641 171.359C262.703 171.359 261.594 171.812 261.594 172.672ZM267.5 169.688V161.266H269.234V164.656H271.203V166.078H269.234V169.688H267.5ZM274.547 162V163.922H277.703V162H279.422V164.578H282.266V161.266H284V168.984H282.266V166.016H279.422V168.547H272.812V162H274.547ZM274.547 167.141H277.703V165.266H274.547V167.141ZM274.688 175.188V169.609H276.422V171.047H282.266V169.609H284V175.188H274.688ZM276.422 173.781H282.266V172.391H276.422V173.781ZM298.016 161.281V171.484H296.266V161.281H298.016ZM286.5 165.734C286.5 163.68 288.164 162.211 290.312 162.203C292.461 162.211 294.117 163.68 294.109 165.734C294.117 167.82 292.461 169.281 290.312 169.281C288.164 169.281 286.5 167.82 286.5 165.734ZM288.203 165.734C288.195 166.984 289.102 167.766 290.312 167.766C291.492 167.766 292.406 166.984 292.406 165.734C292.406 164.516 291.492 163.719 290.312 163.719C289.102 163.719 288.195 164.516 288.203 165.734ZM288.672 175.109V170.453H290.422V173.703H298.406V175.109H288.672Z" fill="#496BD6"/>
<rect x="197.5" y="200" width="120" height="120" rx="60" fill="#647EEC"/>
<path d="M281.08 269.105C281.397 269.105 281.687 269.099 281.977 269.105C283.046 269.138 283.685 269.765 283.745 270.84C283.745 270.906 283.745 270.965 283.745 271.031C283.745 276.703 283.745 282.376 283.745 288.048C283.745 289.09 283.336 289.683 282.492 289.927C282.274 289.987 282.037 290 281.806 290C265.607 290 249.415 290 233.216 290C231.963 290 231.27 289.354 231.264 288.12C231.251 282.409 231.251 276.69 231.264 270.978C231.264 269.752 231.93 269.125 233.15 269.099C233.401 269.099 233.645 269.099 233.948 269.099C233.961 268.815 233.981 268.591 233.981 268.367C233.981 263.011 233.981 257.655 233.988 252.3C233.988 251.884 233.876 251.62 233.546 251.343C232.425 250.427 231.877 249.206 231.818 247.762C231.818 247.742 231.818 247.722 231.818 247.696C231.521 244.748 232.115 242.024 233.506 239.379C234.733 237.038 235.703 234.558 236.745 232.124C237.378 230.653 238.433 229.993 240.043 230C251.723 230.026 263.411 230.02 275.092 230C276.628 230 277.637 230.66 278.244 232.051C279.814 235.633 281.41 239.207 282.98 242.789C283.112 243.086 283.191 243.435 283.184 243.758C283.171 245.361 283.191 246.964 283.072 248.553C282.986 249.714 282.3 250.618 281.443 251.39C281.239 251.574 281.047 251.891 281.047 252.155C281.027 257.616 281.027 263.077 281.034 268.538C281.034 268.703 281.06 268.861 281.08 269.092V269.105ZM257.541 270.266C249.527 270.266 241.513 270.266 233.5 270.266C232.491 270.266 232.444 270.306 232.444 271.282C232.444 276.809 232.444 282.329 232.444 287.856C232.444 288.767 232.537 288.852 233.473 288.852C249.501 288.852 265.534 288.852 281.562 288.852C282.492 288.852 282.584 288.76 282.584 287.85C282.584 282.323 282.584 276.802 282.584 271.275C282.584 270.319 282.531 270.259 281.588 270.259C273.574 270.259 265.561 270.259 257.547 270.259L257.541 270.266ZM261.208 262.259C261.208 261.171 261.208 260.115 261.208 259.067C261.208 257.985 261.63 257.161 262.652 256.679C262.837 256.593 262.929 256.31 263.061 256.119C263.463 255.545 263.826 254.938 264.275 254.397C264.532 254.087 264.947 253.955 265.257 254.351C265.554 254.733 265.343 255.043 264.994 255.307C264.572 255.624 264.215 256 264.189 256.534C264.578 256.778 264.914 256.989 265.271 257.22C265.409 257.121 265.541 256.976 265.712 256.91C266.22 256.712 266.425 256.33 266.636 255.835C266.873 255.281 267.348 254.819 267.764 254.364C268.028 254.074 268.423 253.982 268.7 254.344C268.984 254.714 268.812 255.043 268.45 255.301C268.014 255.611 267.678 256 267.645 256.547C268.034 256.791 268.384 257.009 268.727 257.22C268.898 257.095 269.037 256.936 269.202 256.877C269.716 256.706 269.861 256.31 270.066 255.848C270.303 255.314 270.745 254.859 271.147 254.41C271.418 254.107 271.813 253.955 272.137 254.331C272.493 254.747 272.183 255.03 271.873 255.334C271.53 255.67 271.259 256.072 270.91 256.521C272.407 257.095 272.809 258.117 272.73 259.456C272.677 260.392 272.717 261.336 272.717 262.266C274.485 262.516 274.847 262.945 274.847 264.686C274.847 265.953 274.847 267.219 274.847 268.485C274.847 268.683 274.867 268.888 274.88 269.072H276.305C276.331 268.993 276.358 268.954 276.358 268.921C276.358 263.393 276.364 257.873 276.358 252.346C276.358 252.214 276.312 252.042 276.219 251.963C275.54 251.37 274.841 250.796 274.135 250.215C273.205 251.64 271.846 252.491 270.033 252.484C268.219 252.484 266.886 251.601 265.871 250.077C264.855 251.607 263.51 252.478 261.696 252.484C259.862 252.484 258.517 251.587 257.501 250.077C256.466 251.634 255.113 252.491 253.293 252.484C251.479 252.478 250.147 251.587 249.138 250.077C248.116 251.62 246.77 252.484 244.95 252.484C243.116 252.484 241.771 251.587 240.841 250.189C240.254 250.73 239.739 251.291 239.132 251.732C238.783 251.983 238.638 252.201 238.638 252.629C238.651 257.899 238.644 263.176 238.651 268.446C238.651 268.65 238.671 268.855 238.677 269.079H240.194C239.264 266.632 239.719 265.497 242.061 264.416C242.061 264.238 242.061 264.053 242.061 263.862C242.087 262.628 242.661 261.712 243.776 261.217C244.224 261.019 244.468 260.815 244.528 260.307C244.574 259.951 244.791 259.588 245.016 259.298C245.748 258.348 246.744 257.946 247.918 258.19C249.111 258.44 249.87 259.192 250.187 260.392C250.246 260.623 250.365 260.96 250.543 261.032C252.093 261.646 252.732 262.78 252.601 264.396C254.935 265.431 255.39 266.54 254.507 269.072H259.11C259.11 267.377 259.104 265.735 259.11 264.093C259.11 263.281 259.513 262.681 260.179 262.47C260.476 262.378 260.799 262.351 261.181 262.279L261.208 262.259ZM273.462 242.776C272.315 238.884 271.18 235.039 270.046 231.2H264.684C265.257 235.079 265.825 238.917 266.392 242.776H273.462ZM241.579 242.769H248.65C249.217 238.904 249.784 235.065 250.358 231.174C248.59 231.174 246.955 231.161 245.312 231.194C245.161 231.194 244.93 231.464 244.871 231.656C244.257 233.661 243.67 235.679 243.077 237.697C242.582 239.386 242.081 241.067 241.579 242.769ZM265.198 242.776C264.69 239.267 264.189 235.837 263.681 232.407C263.496 231.167 263.483 231.167 262.204 231.167C260.865 231.167 259.519 231.167 258.167 231.167V242.776H265.198ZM256.888 231.2H251.545C250.978 235.065 250.411 238.904 249.844 242.769H256.894V231.2H256.888ZM243.776 231.167C242.423 231.167 241.184 231.181 239.944 231.167C238.948 231.148 238.282 231.557 237.879 232.493C236.804 234.98 235.696 237.453 234.595 239.933C234.179 240.87 233.764 241.806 233.322 242.809C235.617 242.809 237.826 242.815 240.036 242.789C240.188 242.789 240.418 242.512 240.478 242.327C241.071 240.381 241.639 238.423 242.219 236.47C242.727 234.742 243.241 233.014 243.789 231.181L243.776 231.167ZM271.332 231.2C271.332 231.306 271.319 231.372 271.332 231.431C272.414 235.098 273.509 238.759 274.577 242.433C274.683 242.795 274.88 242.815 275.171 242.815C277.169 242.815 279.174 242.815 281.173 242.815C281.331 242.815 281.482 242.802 281.707 242.789C280.104 239.181 278.561 235.646 276.938 232.137C276.747 231.722 276.127 231.286 275.672 231.247C274.234 231.134 272.783 231.207 271.325 231.207L271.332 231.2ZM273.66 269.085C273.66 267.364 273.667 265.702 273.66 264.046C273.66 263.611 273.337 263.506 272.954 263.506C268.971 263.506 264.98 263.506 260.997 263.506C260.495 263.506 260.278 263.717 260.291 264.231C260.311 265.431 260.298 266.632 260.298 267.839C260.298 268.248 260.298 268.663 260.298 269.085H273.667H273.66ZM232.999 244.002C232.999 245.348 232.939 246.614 233.012 247.867C233.117 249.747 234.548 251.198 236.283 251.284C238.216 251.383 239.891 250.209 240.109 248.369C240.28 246.944 240.141 245.48 240.141 243.996H232.999V244.002ZM281.931 244.016H274.847C274.847 245.348 274.828 246.628 274.847 247.914C274.88 249.596 276.312 251.132 277.954 251.284C279.867 251.462 281.674 250.301 281.885 248.514C282.063 247.05 281.918 245.546 281.918 244.016H281.931ZM241.408 244.002C241.388 244.187 241.362 244.326 241.362 244.471C241.375 245.711 241.322 246.957 241.441 248.191C241.606 249.925 243.057 251.231 244.725 251.291C246.592 251.363 248.254 250.202 248.465 248.428C248.637 246.984 248.498 245.5 248.498 244.002H241.408ZM266.484 244.002C266.484 245.315 266.464 246.595 266.484 247.874C266.524 249.582 267.902 251.099 269.551 251.277C271.424 251.482 273.238 250.394 273.495 248.613C273.713 247.116 273.541 245.566 273.541 244.002H266.484ZM256.855 244.002H249.771C249.771 245.401 249.705 246.766 249.791 248.118C249.896 249.813 251.367 251.198 253.009 251.284C254.902 251.383 256.617 250.215 256.822 248.441C256.993 246.997 256.855 245.513 256.855 244.002ZM265.244 244.009H258.134C258.134 245.368 258.088 246.707 258.147 248.046C258.22 249.807 259.777 251.251 261.557 251.291C263.464 251.33 265.106 250.011 265.231 248.204C265.323 246.845 265.251 245.473 265.251 244.009H265.244ZM277.565 252.478V269.059H279.794V252.372C279.029 252.405 278.323 252.445 277.565 252.478ZM235.215 252.366V269.059H237.444V252.484C236.679 252.445 235.973 252.405 235.215 252.366ZM271.556 262.285C271.556 261.065 271.576 259.911 271.55 258.757C271.53 258.124 271.048 257.688 270.455 257.668C269.888 257.649 269.334 258.051 269.314 258.625C269.268 259.832 269.301 261.045 269.301 262.279H271.563L271.556 262.285ZM262.415 262.279H264.631C264.631 261.039 264.67 259.825 264.611 258.612C264.585 258.018 264.031 257.642 263.463 257.675C262.896 257.708 262.434 258.124 262.421 258.737C262.388 259.891 262.415 261.052 262.415 262.279ZM268.127 262.272C268.127 261.566 268.127 260.94 268.127 260.307C268.127 259.779 268.153 259.251 268.107 258.73C268.054 258.124 267.599 257.708 267.032 257.682C266.491 257.655 265.91 258.031 265.891 258.559C265.844 259.792 265.877 261.026 265.877 262.318C266.478 262.318 267.025 262.318 267.566 262.318C267.731 262.318 267.896 262.292 268.133 262.279L268.127 262.272ZM245.609 261.012C245.596 262.008 246.348 262.787 247.331 262.8C248.294 262.813 249.111 262.028 249.131 261.072C249.151 260.129 248.34 259.291 247.39 259.271C246.44 259.251 245.622 260.049 245.616 261.012H245.609ZM250.312 267.028C250.259 268.169 250.945 268.947 251.882 269.079C252.759 269.198 253.623 268.545 253.808 267.621C253.972 266.79 253.379 265.821 252.535 265.636C252.337 265.59 252.073 265.715 251.882 265.827C251.506 266.045 251.143 266.302 250.793 266.566C250.576 266.737 250.384 266.948 250.305 267.028H250.312ZM240.9 267.291C240.887 268.268 241.672 269.079 242.628 269.092C243.551 269.105 244.363 268.327 244.396 267.384C244.409 266.988 244.349 266.671 243.868 266.52C243.545 266.421 243.208 266.197 242.991 265.933C242.602 265.464 242.219 265.53 241.777 265.788C241.203 266.124 240.913 266.625 240.893 267.285L240.9 267.291ZM247.344 265.761C246.895 266.032 246.414 266.309 245.946 266.612C245.807 266.704 245.655 266.869 245.629 267.021C245.51 267.72 245.741 268.314 246.322 268.729C246.922 269.165 247.568 269.204 248.215 268.841C248.841 268.492 249.131 267.925 249.111 267.225C249.111 267.028 248.986 266.751 248.834 266.645C248.346 266.302 247.812 266.025 247.344 265.755V265.761ZM246.704 264.211C246.005 263.572 245.359 263.09 244.851 262.49C244.574 262.16 244.409 262.14 244.099 262.332C243.439 262.734 243.103 263.545 243.307 264.284C243.545 265.141 244.244 265.636 245.134 265.59C245.979 265.544 246.546 265.003 246.704 264.211ZM247.997 263.921C248.102 264.976 248.788 265.603 249.745 265.59C250.635 265.577 251.367 264.917 251.44 264.053C251.525 263.077 250.998 262.358 250.055 262.2C249.639 263.07 248.953 263.651 247.99 263.921H247.997Z" fill="white"/>
<path d="M256.928 281.973C256.038 281.781 255.22 281.669 254.435 281.439C251.717 280.64 250.372 278.675 249.93 275.991C249.838 275.456 249.824 274.902 249.791 274.355C249.759 273.788 250.062 273.537 250.603 273.563C253.597 273.702 256.156 274.573 257.469 277.646C257.541 277.567 257.614 277.527 257.64 277.461C258.656 275.107 260.595 274.058 263.002 273.689C263.497 273.61 264.018 273.53 264.506 273.59C264.763 273.616 265.159 273.9 265.205 274.131C265.693 276.584 263.985 279.954 261.677 280.997C260.833 281.379 259.876 281.537 258.972 281.788C258.715 281.861 258.438 281.874 258.115 281.92C258.115 282.764 258.115 283.582 258.115 284.4C258.115 284.591 258.175 284.822 258.082 284.961C257.944 285.178 257.719 285.449 257.495 285.482C257.08 285.541 256.928 285.191 256.928 284.815C256.921 283.872 256.928 282.923 256.928 281.973ZM256.822 280.621C256.888 277.046 254.481 274.751 251.025 274.856C251.104 278.207 253.01 280.607 256.822 280.621ZM264.045 274.856C260.509 274.777 258.128 277.059 258.214 280.627C261.532 280.819 263.748 278.642 264.045 274.856Z" fill="white"/>
<path d="M266.933 266.863C265.858 266.863 264.79 266.863 263.714 266.863C263.325 266.863 262.969 266.804 262.956 266.322C262.936 265.808 263.286 265.702 263.714 265.702C265.904 265.702 268.094 265.702 270.284 265.702C270.706 265.702 271.022 265.867 271.029 266.289C271.035 266.731 270.706 266.87 270.29 266.863C269.176 266.85 268.061 266.863 266.946 266.863H266.933Z" fill="white"/>
<path d="M243.336 350.094C246.406 350.102 248.344 351.07 248.352 352.75C248.344 354.391 246.406 355.375 243.336 355.375C240.297 355.375 238.336 354.391 238.336 352.75C238.336 351.07 240.297 350.102 243.336 350.094ZM237.008 349.078V347.672H241.977V345.109H243.695V347.672H249.82V349.078H237.008ZM238.477 343.312V341.938H248.258V343.109C248.266 344.227 248.266 345.414 247.867 346.859L246.148 346.703C246.5 345.336 246.523 344.336 246.523 343.312H238.477ZM240.086 352.75C240.07 353.578 241.297 354.031 243.336 354.031C245.383 354.031 246.617 353.578 246.633 352.75C246.617 351.891 245.383 351.406 243.336 351.406C241.297 351.406 240.07 351.891 240.086 352.75ZM259.008 342.5V343.891H257.773V348.07C258.391 348.016 258.992 347.961 259.57 347.891L259.695 349.172C256.852 349.648 253.602 349.703 251.211 349.703L251.023 348.297C251.531 348.297 252.078 348.289 252.648 348.281V343.891H251.398V342.5H259.008ZM253.148 355.109V350.688H254.883V353.703H262.758V355.109H253.148ZM254.32 348.242C254.898 348.227 255.492 348.203 256.086 348.172V343.891H254.32V348.242ZM260.461 351.672V341.281H262.195V345.359H264.164V346.812H262.195V351.672H260.461ZM270.195 343.812C270.195 345.539 271.312 347.164 273.523 347.844L272.695 349.203C271.109 348.703 269.984 347.695 269.367 346.422C268.742 347.906 267.555 349.086 265.852 349.656L264.977 348.281C267.25 347.539 268.445 345.703 268.445 343.828V343.656H265.461V342.25H273.133V343.656H270.195V343.812ZM266.898 352.672C266.898 350.984 268.727 350 271.68 350C274.609 350 276.406 350.984 276.414 352.672C276.406 354.375 274.609 355.375 271.68 355.375C268.727 355.375 266.898 354.375 266.898 352.672ZM268.633 352.672C268.633 353.547 269.742 354.008 271.68 354.016C273.609 354.008 274.695 353.547 274.695 352.672C274.695 351.812 273.609 351.359 271.68 351.359C269.742 351.359 268.633 351.812 268.633 352.672ZM274.539 349.688V341.266H276.273V344.656H278.242V346.078H276.273V349.688H274.539Z" fill="#496BD6"/>
<rect x="197.5" y="380" width="120" height="120" rx="60" fill="#7F95FA"/>
<path d="M286.602 443.629H280.82C283.581 441.862 284.387 438.191 282.62 435.43C281.892 434.287 280.788 433.429 279.501 433L281.164 431.045C282.08 429.966 281.944 428.348 280.865 427.439C280.748 427.341 280.625 427.257 280.495 427.179L278.89 426.25C278.637 426.107 278.364 426.003 278.085 425.951C278.013 425.236 277.669 424.58 277.123 424.112C277.623 422.735 277.13 421.195 275.928 420.364C274.7 419.526 272.848 418.564 270.639 418.369L271.276 415.628C271.848 413.152 270.308 410.69 267.839 410.118C265.981 409.689 264.045 410.449 262.986 412.041L261.42 414.387C259.77 412.912 257.801 412.217 256.353 411.892C255.053 411.612 253.708 412.158 252.981 413.269C251.298 413.659 249.986 414.965 249.583 416.641L249.427 417.284C249.148 418.363 248.082 419.038 246.991 418.83C245.769 418.623 244.528 418.603 243.3 418.772C241.54 419.012 240.312 420.637 240.552 422.391C240.637 423.021 240.91 423.612 241.332 424.086C240.975 424.548 240.65 425.035 240.357 425.542C239.077 423.788 237.479 422.183 235.985 421.917C235.68 421.865 235.374 421.975 235.173 422.202C234.172 423.339 233.938 425.6 234.042 427.764C232.645 427.224 230.917 426.783 229.696 427.224C229.41 427.328 229.196 427.582 229.137 427.881C228.637 430.414 231.963 434.793 233.497 436.112C233.666 436.255 233.841 436.392 234.029 436.515C233.958 436.671 233.893 436.833 233.841 436.996C233.445 438.237 233.652 439.588 234.413 440.647L236.524 443.629H228.377C227.89 443.629 227.5 444.025 227.5 444.506V449.197C227.5 449.684 227.896 450.074 228.377 450.074H229.663V466.778C229.663 468.558 231.106 470 232.886 470H282.113C283.893 470 285.335 468.558 285.335 466.778V450.074H286.622C287.109 450.074 287.499 449.678 287.499 449.197V444.506C287.499 444.019 287.102 443.629 286.622 443.629H286.602ZM281.801 438.639C281.794 440.251 280.865 441.719 279.41 442.421C278.578 442.817 277.818 443.226 277.149 443.636H271.406C270.73 443.226 269.97 442.817 269.145 442.421C267.059 441.433 266.17 438.938 267.157 436.853C267.846 435.391 269.32 434.462 270.938 434.462H277.63C279.936 434.462 281.807 436.333 281.814 438.646L281.801 438.639ZM252.76 440.861L257.23 442.798L257.119 443.629H250.492L252.76 440.861ZM265.007 439.088C265.156 440.946 266.163 442.622 267.722 443.636H258.893L259.023 442.655C260.699 440.998 262.752 439.776 265.007 439.088ZM272.224 426.406C272.127 425.854 272.491 425.321 273.043 425.223C273.102 425.21 273.16 425.21 273.225 425.21H275.317C275.876 425.21 276.331 425.665 276.331 426.224C276.331 426.282 276.331 426.347 276.311 426.406L275.168 432.701H273.361L272.218 426.406H272.224ZM270.535 427.764C270.581 427.738 270.626 427.718 270.672 427.699L271.581 432.688H271.081L268.716 429.901C268.43 429.563 268.469 429.057 268.814 428.771C268.853 428.738 268.892 428.712 268.931 428.686L270.535 427.757V427.764ZM279.618 428.693C280.001 428.914 280.131 429.407 279.91 429.791C279.884 429.83 279.858 429.869 279.826 429.908L277.461 432.695H276.961L277.87 427.705C277.916 427.725 277.968 427.744 278.007 427.77L279.612 428.693H279.618ZM254.007 423.827C255.138 422.436 256.697 419.012 254.527 415.998C254.176 415.511 254.092 414.939 254.293 414.458C254.566 413.808 255.268 413.451 255.95 413.6C257.386 413.919 259.406 414.653 260.874 416.336C261.193 416.7 261.752 416.739 262.115 416.42C262.174 416.368 262.226 416.31 262.271 416.245L264.435 413.009C265.312 411.71 267.079 411.372 268.378 412.249C269.346 412.905 269.814 414.088 269.554 415.225L268.677 419.012C268.567 419.487 268.859 419.954 269.333 420.065C269.411 420.084 269.489 420.091 269.567 420.084C271.796 420 273.712 420.968 274.927 421.8C275.454 422.163 275.674 422.833 275.486 423.443H273.232C271.809 423.443 270.613 424.522 270.47 425.938C270.184 425.99 269.912 426.094 269.665 426.237L268.06 427.166C266.839 427.874 266.416 429.44 267.131 430.668C267.209 430.798 267.293 430.921 267.391 431.038L269.054 432.994C267.125 433.643 265.663 435.235 265.169 437.21C262.473 437.899 259.997 439.27 257.983 441.193L256.509 440.55L258.919 434.982L263.668 433.104C264.123 432.929 264.344 432.415 264.162 431.961C263.986 431.506 263.473 431.285 263.018 431.467L259.9 432.701L262.141 427.523L265.877 426.049C266.332 425.873 266.553 425.36 266.377 424.905C266.202 424.45 265.689 424.229 265.234 424.405L263.135 425.236L264.851 421.28C265.046 420.832 264.844 420.318 264.396 420.123C263.948 419.928 263.434 420.13 263.239 420.578L261.524 424.535L260.693 422.436C260.517 421.981 260.004 421.761 259.549 421.943C259.094 422.118 258.873 422.631 259.055 423.086L260.537 426.828L258.295 432.006L257.061 428.888C256.885 428.439 256.372 428.212 255.917 428.394C255.463 428.576 255.242 429.083 255.424 429.537L257.301 434.293L254.891 439.861L253.416 439.224C253.455 437.366 253.137 431.987 248.647 427.699C247.647 426.705 247.647 425.087 248.647 424.086C249.245 423.489 250.096 423.222 250.928 423.385C251.629 423.541 252.318 423.768 252.974 424.067C253.338 424.236 253.773 424.132 254.02 423.814L254.007 423.827ZM242.241 421.878C242.28 421.176 242.807 420.598 243.495 420.5C244.541 420.357 245.607 420.37 246.646 420.546C248.654 420.916 250.596 419.662 251.103 417.687L251.266 417.044C251.434 416.355 251.863 415.751 252.454 415.361C252.526 415.959 252.747 416.531 253.098 417.018C254.553 419.045 253.592 421.202 253 422.183C252.442 421.962 251.863 421.793 251.272 421.663C248.933 421.202 246.672 422.722 246.211 425.061C245.932 426.484 246.386 427.959 247.426 428.972C251.642 432.994 251.688 438.256 251.642 439.445L248.556 443.207L248.108 435.807C248.037 434.507 247.348 433.312 246.256 432.597C246.114 432.5 245.964 432.416 245.808 432.338C245.873 432.123 245.925 431.909 245.971 431.694C246.341 429.713 246.192 424.203 244.21 422.553C243.976 422.358 243.651 422.293 243.365 422.397C243.073 422.501 242.794 422.651 242.547 422.833C242.326 422.56 242.215 422.215 242.235 421.865L242.241 421.878ZM243.45 424.359C244.314 425.834 244.6 429.518 244.249 431.389C244.217 431.571 244.171 431.746 244.112 431.922C243.736 431.909 243.365 431.948 243.001 432.039C243.014 431.214 242.885 430.395 242.612 429.622C242.287 428.784 241.891 427.978 241.423 427.211C242.092 425.886 242.826 424.86 243.45 424.359ZM236.186 423.84C237.856 424.717 240.247 428.18 240.962 430.207C241.234 430.993 241.312 431.831 241.195 432.656L237.797 433.851C237.193 433.286 236.732 432.578 236.453 431.798C235.738 429.765 235.433 425.574 236.186 423.846V423.84ZM230.839 428.797C231.638 428.797 232.86 429.141 234.211 429.752C234.328 430.642 234.523 431.519 234.796 432.377C235.069 433.15 235.478 433.871 236.004 434.507C235.666 434.663 235.348 434.871 235.069 435.112C234.913 435.008 234.77 434.897 234.627 434.78C233.172 433.539 231.086 430.492 230.839 428.797ZM237.005 441.303L239.279 440.504C239.734 440.342 239.974 439.841 239.818 439.38C239.662 438.919 239.155 438.685 238.694 438.841L235.939 439.809L235.816 439.634C235.056 438.555 235.309 437.067 236.388 436.301C236.57 436.171 236.764 436.073 236.972 435.995L243.183 433.812C244.424 433.377 245.789 434.027 246.23 435.274C246.302 435.482 246.347 435.703 246.36 435.924L246.646 440.66L243.95 441.609C243.495 441.771 243.255 442.271 243.411 442.733C243.573 443.187 244.074 443.428 244.535 443.272L246.75 442.492L246.815 443.636H238.642L236.998 441.303H237.005ZM283.555 466.784C283.555 467.59 282.899 468.246 282.087 468.252H232.86C232.054 468.252 231.398 467.596 231.392 466.784V450.081H283.549V466.784H283.555ZM285.725 448.32H229.228V445.39H285.725V448.32Z" fill="#FBF8F7" stroke="#96C4CF" stroke-width="0.5" stroke-miterlimit="10"/>
<path d="M250.447 459.255H264.513C266.293 459.255 267.735 457.812 267.735 456.032C267.735 454.252 266.293 452.81 264.513 452.81H250.447C248.667 452.81 247.225 454.252 247.225 456.032C247.225 457.812 248.667 459.255 250.447 459.255ZM250.447 454.57H264.513C265.325 454.57 265.981 455.226 265.981 456.039C265.981 456.851 265.325 457.507 264.513 457.507H250.447C249.635 457.507 248.979 456.851 248.979 456.039C248.979 455.226 249.635 454.57 250.447 454.57Z" fill="#FBF8F7" stroke="#96C4CF" stroke-width="0.5" stroke-miterlimit="10"/>
<path d="M220.922 523.766C220.906 525.617 222.078 527.391 224.297 528.109L223.391 529.484C221.828 528.953 220.711 527.891 220.094 526.531C219.469 528.031 218.305 529.203 216.656 529.781L215.688 528.406C218.008 527.648 219.172 525.758 219.172 523.75V522.141H220.922V523.766ZM217.953 535.109V530.625H219.734V533.703H227.562V535.109H217.953ZM225.266 531.641V521.266H227V525.438H228.969V526.906H227V531.641H225.266ZM235.266 525.281C235.266 527.594 236.625 530.031 238.906 530.984L237.953 532.359C236.281 531.633 235.062 530.156 234.414 528.359C233.766 530.297 232.523 531.922 230.875 532.703L229.875 531.344C232.102 530.312 233.492 527.68 233.5 525.281V524.094H230.391V522.656H238.359V524.094H235.266V525.281ZM239.938 535.391V521.266H241.688V535.391H239.938ZM256.859 527.375V528.656H251.297V529.688H255.281V533H247.25V533.969H255.672V535.266H245.547V531.812H253.578V530.938H245.531V529.688H249.578V528.656H244.047V527.375H256.859ZM244.609 525.609C247.398 525.469 249.039 524.719 249.398 523.719H245.281V522.422H249.578V521.234H251.297V522.422H255.625V523.719H251.477C251.82 524.719 253.461 525.469 256.281 525.609L255.766 526.906C253.227 526.75 251.328 526.062 250.438 524.922C249.547 526.062 247.656 526.75 245.094 526.906L244.609 525.609ZM269.156 521.266V526.891H271.328V528.328H269.156V535.391H267.438V521.266H269.156ZM258.016 524.828V523.438H261.359V521.469H263.094V523.438H266.344V524.828H258.016ZM258.672 529.078C258.656 527.125 260.172 525.742 262.234 525.75C264.266 525.742 265.773 527.125 265.781 529.078C265.773 531.023 264.266 532.391 262.234 532.391C260.172 532.391 258.656 531.023 258.672 529.078ZM260.328 529.078C260.32 530.227 261.125 530.961 262.234 530.953C263.32 530.961 264.109 530.227 264.125 529.078C264.109 527.93 263.32 527.172 262.234 527.172C261.125 527.172 260.32 527.93 260.328 529.078ZM285.078 532.266V533.688H272.172V532.266H277.75V529.016H279.484V532.266H285.078ZM272.734 528.234C275.547 527.766 277.641 525.859 277.688 523.828H273.25V522.406H283.969V523.828H279.516C279.57 525.859 281.664 527.719 284.562 528.156L283.875 529.531C281.492 529.102 279.531 527.836 278.617 526.07C277.711 527.859 275.773 529.164 273.422 529.609L272.734 528.234ZM291.609 523.719C291.609 525.461 292.812 527.203 295.062 527.906L294.172 529.25C292.57 528.734 291.406 527.672 290.758 526.328C290.125 527.789 288.922 528.953 287.25 529.516L286.359 528.172C288.633 527.406 289.844 525.57 289.859 523.719V523.547H286.812V522.156H294.578V523.547H291.609V523.719ZM288.375 531.844V530.438H298.016V535.391H296.266V531.844H288.375ZM296.266 529.781V521.266H298.016V529.781H296.266Z" fill="#496BD6"/>
<path d="M220.48 561V744.315" stroke="#2F5BC1" stroke-width="3" stroke-linecap="round" stroke-linejoin="round" stroke-dasharray="1 9"/>
<path d="M213 742.141L220.48 755L227.96 742.141H213Z" fill="#2F5BC1"/>
<rect width="120" height="48" transform="translate(160 600)" fill="#F5F5F5"/>
<path d="M191.089 618.688V630H189.042V620.672H188.979L186.339 622.359V620.5L189.135 618.688H191.089ZM196.464 630.125C195.792 630.125 195.237 629.578 195.245 628.906C195.237 628.25 195.792 627.711 196.464 627.703C197.112 627.711 197.667 628.25 197.667 628.906C197.667 629.578 197.112 630.125 196.464 630.125ZM209.438 619.516C209.438 621.289 210.586 622.969 212.766 623.656L211.828 625.016C210.305 624.5 209.211 623.469 208.594 622.156C207.984 623.656 206.844 624.836 205.219 625.406L204.281 624.047C206.555 623.258 207.695 621.375 207.703 619.359V618.016H209.438V619.516ZM206.203 628.688C206.203 627.016 208.039 626.023 210.984 626.031C213.906 626.023 215.711 627.016 215.719 628.688C215.711 630.398 213.906 631.375 210.984 631.375C208.039 631.375 206.203 630.398 206.203 628.688ZM207.938 628.688C207.938 629.562 209.047 630 210.984 630C212.914 630 214 629.562 214 628.688C214 627.859 212.914 627.391 210.984 627.391C209.047 627.391 207.938 627.859 207.938 628.688ZM213.844 625.719V617.266H215.578V620.703H217.547V622.141H215.578V625.719H213.844ZM231.391 623.953V625.344H225.797V626.703H229.828V631.219H220.031V626.703H224.078V625.344H218.516V623.953H231.391ZM219.672 619.078V617.688H230.203V619.078H228.266V621.5H230.125V622.906H219.75V621.5H221.609V619.078H219.672ZM221.75 629.812H228.141V628.047H221.75V629.812ZM223.344 621.5H226.516V619.078H223.344V621.5ZM245.484 623.812V625.234H232.594V623.812H245.484ZM234.094 628.781C234.094 627.141 235.945 626.211 239.016 626.219C242.062 626.211 243.898 627.141 243.906 628.781C243.898 630.445 242.062 631.375 239.016 631.375C235.945 631.375 234.094 630.445 234.094 628.781ZM234.172 622.703V617.719H243.922V619.125H235.906V621.312H244V622.703H234.172ZM235.859 628.781C235.852 629.617 236.961 630.031 239.016 630.031C241.039 630.031 242.156 629.617 242.172 628.781C242.156 627.984 241.039 627.547 239.016 627.547C236.961 627.547 235.852 627.984 235.859 628.781ZM259.562 624.906V626.312H246.656V624.906H252.25V623.734H248.297V619.984H256.234V618.938H248.25V617.578H257.969V621.25H250.016V622.375H258.25V623.734H253.969V624.906H259.562ZM248.094 628.578V627.203H258.047V631.297H256.297V628.578H248.094Z" fill="#1C3575"/>
<path d="M295.48 755.001V571.64" stroke="#2F5BC1" stroke-width="3" stroke-linecap="round" stroke-linejoin="round" stroke-dasharray="1 9"/>
<path d="M302.96 573.803L295.48 561L288 573.803H302.96Z" fill="#2F5BC1"/>
<rect width="120" height="48" transform="translate(235 668)" fill="#F5F5F5"/>
<path d="M264.214 698.156C261.956 698.156 260.292 696.805 260.229 694.938H262.214C262.276 695.852 263.143 696.508 264.214 696.516C265.479 696.508 266.393 695.594 266.385 694.344C266.393 693.047 265.456 692.133 264.151 692.125C263.268 692.117 262.628 692.43 262.276 693.094H260.385L261.073 686.688H267.76V688.391H262.745L262.401 691.391H262.51C262.948 690.898 263.768 690.539 264.698 690.531C266.8 690.539 268.362 692.102 268.354 694.281C268.362 696.539 266.659 698.156 264.214 698.156ZM271.464 698.125C270.792 698.125 270.237 697.578 270.245 696.906C270.237 696.25 270.792 695.711 271.464 695.703C272.112 695.711 272.667 696.25 272.667 696.906C272.667 697.578 272.112 698.125 271.464 698.125ZM291.594 685.266V699.391H289.938V692.188H288.344V698.672H286.75V685.531H288.344V690.797H289.938V685.266H291.594ZM279.875 696.094V686.938H285.156V688.344H281.625V694.625C283.156 694.609 284.422 694.531 285.859 694.266L285.984 695.688C284.273 696.031 282.797 696.078 280.828 696.094H279.875ZM304.844 685.953V687.047C304.852 688.148 304.852 689.398 304.5 691.062H306.422V692.469H293.516V691.062H302.742C303.078 689.531 303.109 688.375 303.109 687.344H295.109V685.953H304.844ZM295.062 699.219V694.109H304.828V699.219H295.062ZM296.766 697.812H303.109V695.469H296.766V697.812ZM312.922 689.281C312.922 691.594 314.281 694.031 316.562 694.984L315.609 696.359C313.938 695.633 312.719 694.156 312.07 692.359C311.422 694.297 310.18 695.922 308.531 696.703L307.531 695.344C309.758 694.312 311.148 691.68 311.156 689.281V688.094H308.047V686.656H316.016V688.094H312.922V689.281ZM317.594 699.391V685.266H319.344V699.391H317.594ZM324.969 693.312V694.938H331.234V693.312H332.953V699.219H323.266V693.312H324.969ZM321.672 692.266V690.875H330.938C331.234 689.383 331.266 688.258 331.266 687.266H323.266V685.875H333V686.969C333.008 688.047 333.008 689.219 332.656 690.875H334.578V692.266H321.672ZM324.969 697.812H331.234V696.281H324.969V697.812Z" fill="#1C3575"/>
<rect x="20" y="1368" width="120" height="120" rx="60" fill="#2F5BC1"/>
<path d="M68.5293 1420.16V1421.74C68.5195 1423.39 68.5195 1425.2 68.0605 1427.7H70.502V1429.45H63.4902V1436.76H61.3027V1429.45H54.4082V1427.7H65.8535C66.3418 1425.29 66.3613 1423.49 66.3613 1421.91H56.3027V1420.16H68.5293ZM87.1777 1419.08V1436.74H85.0879V1427.7H83.2129V1435.88H81.1621V1419.39H83.2129V1425.9H85.0879V1419.08H87.1777ZM72.4902 1432.19V1421H79.4238V1432.19H72.4902ZM74.5215 1430.47H77.3926V1422.71H74.5215V1430.47ZM95.8066 1424.1C95.7969 1426.83 97.4375 1429.93 100.221 1431.23L99.0098 1432.95C97.0176 1432.01 95.543 1430.12 94.752 1427.91C93.9512 1430.33 92.4082 1432.4 90.377 1433.38L89.1074 1431.68C91.9199 1430.34 93.6289 1427.04 93.6387 1424.1V1422.62H89.791V1420.82H99.498V1422.62H95.8066V1424.1ZM101.139 1436.74V1419.08H103.307V1425.96H106.021V1427.77H103.307V1436.74H101.139Z" fill="white"/>
<rect x="162" y="1150" width="191" height="556" stroke="#D7D9FF" stroke-width="4"/>
<rect x="197.5" y="1168" width="120" height="120" rx="60" fill="#496BD6"/>
<path d="M253.259 1221.85C253.105 1221.85 252.957 1221.91 252.852 1222.03C251.685 1223.19 249.784 1223.19 248.618 1222.03C248.507 1221.91 248.365 1221.85 248.211 1221.85C248.056 1221.85 247.908 1221.91 247.803 1222.03C247.692 1222.14 247.637 1222.28 247.637 1222.43C247.637 1222.59 247.698 1222.74 247.81 1222.84C248.593 1223.62 249.636 1224.06 250.747 1224.06C251.858 1224.06 252.901 1223.62 253.685 1222.84C253.913 1222.61 253.913 1222.25 253.685 1222.02C253.574 1221.91 253.432 1221.85 253.278 1221.85L253.259 1221.85Z" fill="white"/>
<path d="M250.982 1215.29C250.902 1215.25 250.822 1215.24 250.735 1215.24C250.667 1215.24 250.606 1215.25 250.538 1215.27C250.39 1215.32 250.273 1215.42 250.211 1215.56L249.131 1217.85C249.02 1218.09 249.081 1218.38 249.285 1218.54L250.365 1219.45C250.6 1219.64 250.982 1219.61 251.18 1219.37C251.383 1219.12 251.353 1218.76 251.106 1218.56L250.365 1217.94L251.254 1216.06C251.322 1215.92 251.328 1215.76 251.278 1215.61C251.229 1215.46 251.124 1215.35 250.982 1215.29V1215.29Z" fill="white"/>
<path d="M245.582 1214.35V1216.08C245.582 1216.4 245.841 1216.66 246.162 1216.66C246.483 1216.66 246.742 1216.4 246.742 1216.08V1214.35C246.742 1214.03 246.483 1213.77 246.162 1213.77C245.841 1213.77 245.582 1214.03 245.582 1214.35Z" fill="white"/>
<path d="M255.889 1216.08V1214.35C255.889 1214.03 255.63 1213.77 255.309 1213.77C254.988 1213.77 254.729 1214.03 254.729 1214.35V1216.08C254.729 1216.4 254.988 1216.66 255.309 1216.66C255.63 1216.66 255.889 1216.4 255.889 1216.08Z" fill="white"/>
<path d="M241.12 1257.99H279.587C280.235 1257.99 280.76 1257.46 280.76 1256.82V1246.93C280.76 1246.61 280.501 1246.35 280.18 1246.35C279.859 1246.35 279.6 1246.61 279.6 1246.93V1251.39H260.727V1235.24H265.01V1238.99C265.01 1239.31 265.269 1239.57 265.59 1239.57C265.911 1239.57 266.17 1239.31 266.17 1238.99V1235.24H274.162V1238.99C274.162 1239.31 274.422 1239.57 274.743 1239.57C275.064 1239.57 275.323 1239.31 275.323 1238.99V1235.24H279.606V1247.93C279.606 1248.25 279.865 1248.51 280.186 1248.51C280.507 1248.51 280.766 1248.25 280.766 1247.93V1235.25C280.766 1234.6 280.241 1234.08 279.593 1234.08H275.323V1233.17C275.323 1230.33 273.008 1228.02 270.169 1228.02C268.046 1228.02 266.164 1229.3 265.38 1231.28L265.226 1231.68L264.899 1231.41C264.627 1231.18 264.344 1230.98 264.047 1230.81L263.893 1230.72V1222.91L264.053 1222.83C265.541 1222.03 266.46 1220.49 266.46 1218.81V1218C266.46 1216.32 265.535 1214.78 264.053 1213.98L263.893 1213.89V1208.35C263.893 1203.51 259.956 1199.57 255.111 1199.57H252.062L251.976 1199.49C250.822 1198.53 249.359 1198 247.853 1198H245.995C241.361 1198 237.59 1201.77 237.59 1206.41V1213.9L237.429 1213.98C235.942 1214.78 235.022 1216.32 235.022 1218V1218.82C235.022 1220.5 235.948 1222.03 237.429 1222.83L237.59 1222.92V1230.72L237.435 1230.81C235.461 1231.98 234.232 1234.13 234.232 1236.41V1256.82C234.232 1257.47 234.757 1257.99 235.405 1257.99H243.064C243.385 1257.99 243.644 1257.73 243.644 1257.41C243.644 1257.09 243.385 1256.83 243.064 1256.83H240.503V1247.95C240.503 1247.3 239.978 1246.77 239.33 1246.77H235.393V1236.41C235.393 1233.47 237.787 1231.07 240.731 1231.07H244.181L244.193 1231.37C244.329 1234.9 247.211 1237.66 250.741 1237.66C254.272 1237.66 257.154 1234.9 257.289 1231.37L257.302 1231.07H260.752C262.399 1231.07 263.936 1231.82 264.955 1233.12L265.022 1233.21V1234.09H260.752C260.104 1234.09 259.579 1234.62 259.579 1235.26V1256.84H241.126C240.805 1256.84 240.546 1257.1 240.546 1257.42C240.546 1257.74 240.805 1258 241.126 1258L241.12 1257.99ZM266.195 1232.75C266.411 1230.71 268.121 1229.18 270.169 1229.18C272.373 1229.18 274.162 1230.97 274.162 1233.17V1234.08H266.812L266.732 1233.89C266.596 1233.56 266.43 1233.25 266.238 1232.94L266.183 1232.85L266.195 1232.75ZM239.336 1247.93V1256.83H235.387V1247.93H239.336ZM265.3 1218V1218.81C265.3 1220.68 263.776 1222.2 261.906 1222.2H260.641L260.715 1221.83C260.826 1221.29 260.881 1220.74 260.887 1220.19C260.887 1220.03 260.832 1219.88 260.721 1219.77C260.61 1219.66 260.468 1219.6 260.313 1219.6C259.993 1219.6 259.733 1219.86 259.733 1220.17C259.715 1224.16 256.462 1227.4 252.482 1227.4H249.007C245.008 1227.4 241.756 1224.14 241.756 1220.14V1213.25C241.756 1212.59 242.293 1212.05 242.953 1212.05H250.155C251.007 1212.05 251.84 1211.81 252.556 1211.36L255.777 1209.34C256.574 1208.84 257.549 1208.8 258.388 1209.24C259.209 1209.67 259.696 1210.44 259.74 1211.34C259.74 1211.39 259.74 1211.43 259.74 1211.48V1216.04C259.74 1216.36 259.999 1216.62 260.32 1216.62C260.641 1216.62 260.9 1216.36 260.9 1216.04V1214.6H261.918C263.788 1214.6 265.313 1216.13 265.313 1218H265.3ZM253.173 1228.53V1231.1C253.173 1232.44 252.081 1233.54 250.735 1233.54C249.39 1233.54 248.297 1232.44 248.297 1231.1V1228.53L248.618 1228.54C248.742 1228.54 248.871 1228.56 248.995 1228.56H252.469C252.599 1228.56 252.723 1228.56 252.846 1228.54L253.167 1228.53H253.173ZM245.983 1199.16H247.841C249.106 1199.16 250.334 1199.62 251.291 1200.44C251.501 1200.63 251.778 1200.73 252.062 1200.73H255.099C259.301 1200.73 262.72 1204.15 262.72 1208.35V1213.5L262.381 1213.47C262.221 1213.45 262.06 1213.44 261.893 1213.44H260.875V1211.47C260.875 1211.41 260.875 1211.35 260.875 1211.29C260.813 1209.98 260.079 1208.83 258.9 1208.21C257.691 1207.58 256.284 1207.63 255.136 1208.36L251.914 1210.38C251.377 1210.72 250.76 1210.89 250.13 1210.89H242.928C241.663 1210.89 240.632 1211.88 240.577 1213.15L240.564 1213.44H239.559C239.392 1213.44 239.231 1213.45 239.071 1213.47L238.732 1213.5V1206.41C238.732 1202.41 241.978 1199.16 245.977 1199.16H245.983ZM236.17 1218.81V1218C236.17 1216.13 237.695 1214.6 239.565 1214.6H240.583V1220.14C240.583 1220.71 240.639 1221.28 240.756 1221.83L240.83 1222.2H239.565C237.695 1222.2 236.17 1220.68 236.17 1218.81ZM240.725 1229.91C240.188 1229.91 239.645 1229.97 239.127 1230.1L238.744 1230.2V1223.3L239.083 1223.34C239.244 1223.36 239.404 1223.37 239.571 1223.37H241.225L241.305 1223.55C242.342 1225.89 244.44 1227.66 246.903 1228.3L247.137 1228.36V1229.91H240.725ZM256.129 1231.39C255.975 1234.25 253.611 1236.5 250.735 1236.5C247.859 1236.5 245.496 1234.25 245.341 1231.39L245.323 1231.06H247.125L247.143 1231.35C247.273 1233.23 248.847 1234.7 250.729 1234.7C252.611 1234.7 254.185 1233.23 254.315 1231.35L254.333 1231.06H256.135L256.117 1231.39H256.129ZM262.727 1230.2L262.344 1230.1C261.819 1229.97 261.282 1229.91 260.745 1229.91H254.333V1228.35L254.568 1228.29C257.03 1227.65 259.122 1225.88 260.165 1223.54L260.246 1223.36H261.906C262.072 1223.36 262.233 1223.35 262.393 1223.33L262.733 1223.3V1230.2L262.727 1230.2ZM260.733 1252.54H279.606V1256.83H260.733V1252.54Z" fill="white"/>
<path d="M242.812 1315.75V1317.16H237.219V1318.34C239.742 1318.51 241.242 1319.38 241.25 1320.84C241.242 1322.47 239.398 1323.38 236.359 1323.38C233.273 1323.38 231.438 1322.47 231.438 1320.84C231.438 1319.38 232.938 1318.5 235.5 1318.34V1317.16H229.938V1315.75H242.812ZM230.562 1313.73C233.156 1313.49 234.852 1312.44 235.141 1311.28H231.109V1309.89H241.656V1311.28H237.586C237.867 1312.45 239.547 1313.49 242.203 1313.73L241.594 1315.11C239.023 1314.84 237.125 1313.82 236.359 1312.39C235.594 1313.82 233.719 1314.84 231.156 1315.11L230.562 1313.73ZM233.203 1320.84C233.195 1321.62 234.305 1322.05 236.359 1322.05C238.383 1322.05 239.5 1321.62 239.516 1320.84C239.5 1320.06 238.383 1319.65 236.359 1319.64C234.305 1319.65 233.195 1320.06 233.203 1320.84ZM255.484 1315.69V1317.06H251.297V1320.3H256.922V1321.72H244.016V1320.3H249.578V1317.06H245.578V1310.31H255.375V1311.7H247.312V1315.69H255.484ZM270.281 1309.27V1323.39H268.609V1316.16H267.109V1322.7H265.469V1309.52H267.109V1314.72H268.609V1309.27H270.281ZM258.531 1319.75V1310.8H264.078V1319.75H258.531ZM260.156 1318.38H262.453V1312.17H260.156V1318.38ZM283.938 1309.28V1319.48H282.188V1309.28H283.938ZM272.422 1313.73C272.422 1311.68 274.086 1310.21 276.234 1310.2C278.383 1310.21 280.039 1311.68 280.031 1313.73C280.039 1315.82 278.383 1317.28 276.234 1317.28C274.086 1317.28 272.422 1315.82 272.422 1313.73ZM274.125 1313.73C274.117 1314.98 275.023 1315.77 276.234 1315.77C277.414 1315.77 278.328 1314.98 278.328 1313.73C278.328 1312.52 277.414 1311.72 276.234 1311.72C275.023 1311.72 274.117 1312.52 274.125 1313.73ZM274.594 1323.11V1318.45H276.344V1321.7H284.328V1323.11H274.594Z" fill="#496BD6"/>
<rect x="197.5" y="1348" width="120" height="120" rx="60" fill="#647EEC"/>
<path d="M239.006 1400.65C239.006 1402.69 240.66 1404.35 242.702 1404.35C244.744 1404.35 246.397 1402.69 246.397 1400.65V1395.35H239V1400.65H239.006Z" stroke="white" stroke-width="1.98" stroke-linecap="round" stroke-linejoin="round"/>
<path d="M253.795 1400.65C253.795 1402.69 255.449 1404.35 257.491 1404.35C259.533 1404.35 261.186 1402.69 261.186 1400.65V1395.35H253.789V1400.65H253.795Z" stroke="white" stroke-width="1.98" stroke-linecap="round" stroke-linejoin="round"/>
<path d="M268.59 1395.35V1400.65C268.59 1402.69 270.244 1404.35 272.286 1404.35C274.328 1404.35 275.981 1402.69 275.981 1400.65V1395.35H268.584H268.59Z" stroke="white" stroke-width="1.98" stroke-linecap="round" stroke-linejoin="round"/>
<path d="M231.608 1400.65C231.608 1402.69 233.262 1404.35 235.304 1404.35C237.345 1404.35 238.999 1402.69 238.999 1400.65V1395.35H231.602V1400.65H231.608Z" stroke="white" stroke-width="1.98" stroke-linecap="round" stroke-linejoin="round"/>
<path d="M246.403 1400.65C246.403 1402.69 248.057 1404.35 250.098 1404.35C252.14 1404.35 253.794 1402.69 253.794 1400.65V1395.35H246.396V1400.65H246.403Z" stroke="white" stroke-width="1.98" stroke-linecap="round" stroke-linejoin="round"/>
<path d="M261.19 1400.65C261.19 1402.69 262.844 1404.35 264.886 1404.35C266.927 1404.35 268.581 1402.69 268.581 1400.65V1395.35H261.184V1400.65H261.19Z" stroke="white" stroke-width="1.98" stroke-linecap="round" stroke-linejoin="round"/>
<path d="M275.987 1395.35V1400.65C275.987 1402.69 277.641 1404.35 279.682 1404.35C281.724 1404.35 283.378 1402.69 283.378 1400.65V1395.35H275.98H275.987Z" stroke="white" stroke-width="1.98" stroke-linecap="round" stroke-linejoin="round"/>
<path d="M232.471 1390.29C231.994 1390.29 231.605 1390.68 231.605 1391.15V1395.35H239.003V1390.29H232.477H232.471Z" stroke="white" stroke-width="1.98" stroke-linecap="round" stroke-linejoin="round"/>
<path d="M246.403 1395.35H239.006V1390.29H246.403V1395.35Z" stroke="white" stroke-width="1.98" stroke-linecap="round" stroke-linejoin="round"/>
<path d="M253.792 1395.35H246.395V1390.29H253.792V1395.35Z" stroke="white" stroke-width="1.98" stroke-linecap="round" stroke-linejoin="round"/>
<path d="M261.192 1395.35H253.795V1390.29H261.192V1395.35Z" stroke="white" stroke-width="1.98" stroke-linecap="round" stroke-linejoin="round"/>
<path d="M268.589 1395.35H261.191V1390.29H268.589V1395.35Z" stroke="white" stroke-width="1.98" stroke-linecap="round" stroke-linejoin="round"/>
<path d="M275.987 1395.35H268.59V1390.29H275.987V1395.35Z" stroke="white" stroke-width="1.98" stroke-linecap="round" stroke-linejoin="round"/>
<path d="M282.51 1390.29H275.984V1395.35H283.382V1391.15C283.382 1390.68 282.994 1390.29 282.517 1390.29H282.51Z" stroke="white" stroke-width="1.98" stroke-linecap="round" stroke-linejoin="round"/>
<path d="M278.443 1378.88H236.545C235.858 1378.88 235.305 1379.43 235.305 1380.12V1385.18C235.305 1385.86 235.858 1386.42 236.545 1386.42H278.443C279.13 1386.42 279.683 1385.86 279.683 1385.18V1380.12C279.683 1379.43 279.13 1378.88 278.443 1378.88Z" stroke="white" stroke-width="1.98" stroke-linecap="round" stroke-linejoin="round"/>
<path d="M239.006 1390.29H242.402V1386.42H239.006V1390.29Z" stroke="white" stroke-width="1.98" stroke-linecap="round" stroke-linejoin="round"/>
<path d="M272.59 1390.29H275.986V1386.42H272.59V1390.29Z" stroke="white" stroke-width="1.98" stroke-linecap="round" stroke-linejoin="round"/>
<path d="M231.605 1437.12H283.381" stroke="white" stroke-width="1.98" stroke-linecap="round" stroke-linejoin="round"/>
<path d="M257.495 1437.12H246.402V1414.43H257.495V1437.12Z" stroke="white" stroke-width="1.98" stroke-linecap="round" stroke-linejoin="round"/>
<path d="M268.589 1437.12H257.496V1414.43H268.589V1437.12Z" stroke="white" stroke-width="1.98" stroke-linecap="round" stroke-linejoin="round"/>
<path d="M233.816 1437.12H246.404V1433.14H233.816V1437.12Z" stroke="white" stroke-width="1.98" stroke-linecap="round" stroke-linejoin="round"/>
<path d="M268.59 1437.12H281.178V1433.14H268.59V1437.12Z" stroke="white" stroke-width="1.98" stroke-linecap="round" stroke-linejoin="round"/>
<path d="M253.895 1424.74V1427.51" stroke="white" stroke-width="1.98" stroke-linecap="round" stroke-linejoin="round"/>
<path d="M261.086 1424.74V1427.51" stroke="white" stroke-width="1.98" stroke-linecap="round" stroke-linejoin="round"/>
<path d="M262.196 1410.44H247.318C246.81 1410.44 246.402 1410.85 246.402 1411.36V1414.42H268.588V1411.36C268.588 1410.85 268.175 1410.44 267.672 1410.44H259.55" stroke="white" stroke-width="1.98" stroke-linecap="round" stroke-linejoin="round"/>
<path d="M281.176 1422.7V1404.04C280.718 1404.24 280.215 1404.35 279.681 1404.35C277.639 1404.35 275.985 1402.7 275.985 1400.66C275.985 1402.7 274.332 1404.35 272.29 1404.35C270.248 1404.35 268.594 1402.7 268.594 1400.66C268.594 1402.7 266.941 1404.35 264.899 1404.35C262.857 1404.35 261.203 1402.7 261.203 1400.66C261.203 1402.7 259.55 1404.35 257.508 1404.35C255.466 1404.35 253.812 1402.7 253.812 1400.66C253.812 1402.7 252.159 1404.35 250.117 1404.35C248.075 1404.35 246.421 1402.7 246.421 1400.66C246.421 1402.7 244.767 1404.35 242.726 1404.35C240.684 1404.35 239.03 1402.7 239.03 1400.66C239.03 1402.7 237.376 1404.35 235.335 1404.35C234.8 1404.35 234.298 1404.24 233.84 1404.04V1437.12H281.201V1420.94" stroke="white" stroke-width="1.98" stroke-linecap="round" stroke-linejoin="round"/>
<path d="M228.164 1491.28C228.156 1493.14 229.328 1494.89 231.57 1495.59L230.711 1496.97C229.086 1496.43 227.922 1495.35 227.281 1493.97C226.648 1495.45 225.461 1496.63 223.789 1497.2L222.914 1495.84C225.195 1495.07 226.375 1493.2 226.367 1491.28V1489.94H228.164V1491.28ZM225.023 1499.75V1498.36H234.664V1503.39H232.914V1499.75H225.023ZM232.914 1497.72V1489.27H234.664V1497.72H232.914ZM242.039 1493.28C242.031 1495.46 243.344 1497.95 245.57 1498.98L244.602 1500.36C243.008 1499.61 241.828 1498.09 241.195 1496.33C240.555 1498.27 239.32 1499.92 237.695 1500.7L236.68 1499.34C238.93 1498.27 240.297 1495.63 240.305 1493.28V1492.09H237.227V1490.66H244.992V1492.09H242.039V1493.28ZM246.305 1503.39V1489.27H248.039V1494.77H250.211V1496.22H248.039V1503.39H246.305ZM263.305 1489.27V1503.39H261.648V1496.23H260.195V1502.7H258.555V1489.52H260.195V1494.8H261.648V1489.27H263.305ZM250.82 1499.28C252.914 1498.09 253.758 1495.63 253.758 1492.88V1492.2H251.242V1490.81H257.758V1492.2H255.445V1492.88C255.445 1495.38 256.289 1497.7 258.383 1498.78L257.367 1500.11C256.023 1499.38 255.141 1498.14 254.641 1496.61C254.164 1498.37 253.281 1499.78 251.883 1500.61L250.82 1499.28ZM272.32 1490.64V1499.89H265.633V1490.64H272.32ZM267.336 1498.5H270.586V1492H267.336V1498.5ZM274.461 1503.39V1489.27H276.195V1494.69H278.367V1496.16H276.195V1503.39H274.461ZM290.695 1496.67V1498.05H280.789V1490.38H290.57V1491.78H282.555V1493.48H290.242V1494.84H282.555V1496.67H290.695ZM279.211 1501.67V1500.25H292.117V1501.67H279.211Z" fill="#496BD6"/>
<rect x="197.5" y="1528" width="120" height="120" rx="60" fill="#7F95FA"/>
<path d="M250.972 1565.11H248.602C247.633 1565.11 246.85 1565.9 246.85 1566.86V1569.23C246.85 1570.2 247.64 1570.98 248.602 1570.98H250.972C251.941 1570.98 252.725 1570.19 252.725 1569.23V1566.86C252.725 1565.89 251.935 1565.11 250.972 1565.11ZM251.584 1569.23C251.584 1569.57 251.316 1569.84 250.972 1569.84H248.602C248.264 1569.84 247.99 1569.57 247.99 1569.23V1566.86C247.99 1566.52 248.264 1566.25 248.602 1566.25H250.972C251.31 1566.25 251.584 1566.52 251.584 1566.86V1569.23Z" fill="white"/>
<path d="M258.67 1565.11H256.299C255.331 1565.11 254.547 1565.9 254.547 1566.86V1569.23C254.547 1570.2 255.337 1570.98 256.299 1570.98H258.67C259.638 1570.98 260.422 1570.19 260.422 1569.23V1566.86C260.422 1565.89 259.632 1565.11 258.67 1565.11ZM259.288 1569.23C259.288 1569.57 259.02 1569.84 258.676 1569.84H256.306C255.968 1569.84 255.694 1569.57 255.694 1569.23V1566.86C255.694 1566.52 255.968 1566.25 256.306 1566.25H258.676C259.014 1566.25 259.288 1566.52 259.288 1566.86V1569.23Z" fill="white"/>
<path d="M266.373 1565.11H264.002C263.034 1565.11 262.25 1565.9 262.25 1566.86V1569.23C262.25 1570.2 263.04 1570.98 264.002 1570.98H266.373C267.341 1570.98 268.125 1570.19 268.125 1569.23V1566.86C268.125 1565.89 267.335 1565.11 266.373 1565.11ZM266.984 1569.23C266.984 1569.57 266.717 1569.84 266.373 1569.84H264.002C263.665 1569.84 263.391 1569.57 263.391 1569.23V1566.86C263.391 1566.52 263.665 1566.25 264.002 1566.25H266.373C266.71 1566.25 266.984 1566.52 266.984 1566.86V1569.23Z" fill="white"/>
<path d="M250.972 1572.8H248.602C247.633 1572.8 246.85 1573.59 246.85 1574.56V1576.93C246.85 1577.89 247.64 1578.68 248.602 1578.68H250.972C251.941 1578.68 252.725 1577.89 252.725 1576.93V1574.56C252.725 1573.59 251.935 1572.8 250.972 1572.8ZM251.584 1576.93C251.584 1577.27 251.316 1577.54 250.972 1577.54H248.602C248.264 1577.54 247.99 1577.26 247.99 1576.93V1574.56C247.99 1574.22 248.264 1573.94 248.602 1573.94H250.972C251.31 1573.94 251.584 1574.22 251.584 1574.56V1576.93Z" fill="white"/>
<path d="M258.67 1572.8H256.299C255.331 1572.8 254.547 1573.59 254.547 1574.56V1576.93C254.547 1577.89 255.337 1578.68 256.299 1578.68H258.67C259.638 1578.68 260.422 1577.89 260.422 1576.93V1574.56C260.422 1573.59 259.632 1572.8 258.67 1572.8ZM259.288 1576.93C259.288 1577.27 259.02 1577.54 258.676 1577.54H256.306C255.968 1577.54 255.694 1577.26 255.694 1576.93V1574.56C255.694 1574.22 255.968 1573.94 256.306 1573.94H258.676C259.014 1573.94 259.288 1574.22 259.288 1574.56V1576.93Z" fill="white"/>
<path d="M266.373 1572.8H264.002C263.034 1572.8 262.25 1573.59 262.25 1574.56V1576.93C262.25 1577.89 263.04 1578.68 264.002 1578.68H266.373C267.341 1578.68 268.125 1577.89 268.125 1576.93V1574.56C268.125 1573.59 267.335 1572.8 266.373 1572.8ZM266.984 1576.93C266.984 1577.27 266.717 1577.54 266.373 1577.54H264.002C263.665 1577.54 263.391 1577.26 263.391 1576.93V1574.56C263.391 1574.22 263.665 1573.94 264.002 1573.94H266.373C266.71 1573.94 266.984 1574.22 266.984 1574.56V1576.93Z" fill="white"/>
<path d="M250.972 1580.5H248.602C247.633 1580.5 246.85 1581.29 246.85 1582.25V1584.62C246.85 1585.59 247.64 1586.38 248.602 1586.38H250.972C251.941 1586.38 252.725 1585.58 252.725 1584.62V1582.25C252.725 1581.28 251.935 1580.5 250.972 1580.5ZM251.584 1584.63C251.584 1584.97 251.316 1585.24 250.972 1585.24H248.602C248.264 1585.24 247.99 1584.97 247.99 1584.63V1582.26C247.99 1581.92 248.264 1581.65 248.602 1581.65H250.972C251.31 1581.65 251.584 1581.92 251.584 1582.26V1584.63Z" fill="white"/>
<path d="M258.67 1580.5H256.299C255.331 1580.5 254.547 1581.29 254.547 1582.25V1584.62C254.547 1585.59 255.337 1586.38 256.299 1586.38H258.67C259.638 1586.38 260.422 1585.58 260.422 1584.62V1582.25C260.422 1581.28 259.632 1580.5 258.67 1580.5ZM259.288 1584.63C259.288 1584.97 259.02 1585.24 258.676 1585.24H256.306C255.968 1585.24 255.694 1584.97 255.694 1584.63V1582.26C255.694 1581.92 255.968 1581.65 256.306 1581.65H258.676C259.014 1581.65 259.288 1581.92 259.288 1582.26V1584.63Z" fill="white"/>
<path d="M266.373 1580.5H264.002C263.034 1580.5 262.25 1581.29 262.25 1582.25V1584.62C262.25 1585.59 263.04 1586.38 264.002 1586.38H266.373C267.341 1586.38 268.125 1585.58 268.125 1584.62V1582.25C268.125 1581.28 267.335 1580.5 266.373 1580.5ZM266.984 1584.63C266.984 1584.97 266.717 1585.24 266.373 1585.24H264.002C263.665 1585.24 263.391 1584.97 263.391 1584.63V1582.26C263.391 1581.92 263.665 1581.65 264.002 1581.65H266.373C266.71 1581.65 266.984 1581.92 266.984 1582.26V1584.63Z" fill="white"/>
<path d="M250.972 1588.2H248.602C247.633 1588.2 246.85 1588.99 246.85 1589.96V1592.33C246.85 1593.3 247.64 1594.08 248.602 1594.08H250.972C251.941 1594.08 252.725 1593.29 252.725 1592.33V1589.96C252.725 1588.99 251.935 1588.2 250.972 1588.2ZM251.584 1592.33C251.584 1592.67 251.316 1592.94 250.972 1592.94H248.602C248.264 1592.94 247.99 1592.66 247.99 1592.33V1589.96C247.99 1589.62 248.264 1589.34 248.602 1589.34H250.972C251.31 1589.34 251.584 1589.62 251.584 1589.96V1592.33Z" fill="white"/>
<path d="M258.67 1588.2H256.299C255.331 1588.2 254.547 1588.99 254.547 1589.96V1592.33C254.547 1593.3 255.337 1594.08 256.299 1594.08H258.67C259.638 1594.08 260.422 1593.29 260.422 1592.33V1589.96C260.422 1588.99 259.632 1588.2 258.67 1588.2ZM259.288 1592.33C259.288 1592.67 259.02 1592.94 258.676 1592.94H256.306C255.968 1592.94 255.694 1592.66 255.694 1592.33V1589.96C255.694 1589.62 255.968 1589.34 256.306 1589.34H258.676C259.014 1589.34 259.288 1589.62 259.288 1589.96V1592.33Z" fill="white"/>
<path d="M278.22 1573.52H275.85C274.881 1573.52 274.098 1574.31 274.098 1575.27V1577.64C274.098 1578.61 274.888 1579.39 275.85 1579.39H278.22C279.189 1579.39 279.973 1578.6 279.973 1577.64V1575.27C279.973 1574.3 279.183 1573.52 278.22 1573.52ZM278.832 1577.64C278.832 1577.98 278.565 1578.25 278.22 1578.25H275.85C275.512 1578.25 275.238 1577.98 275.238 1577.64V1575.27C275.238 1574.93 275.512 1574.66 275.85 1574.66H278.22C278.558 1574.66 278.832 1574.93 278.832 1575.27V1577.64Z" fill="white"/>
<path d="M278.22 1581.21H275.85C274.881 1581.21 274.098 1582 274.098 1582.97V1585.34C274.098 1586.3 274.888 1587.09 275.85 1587.09H278.22C279.189 1587.09 279.973 1586.3 279.973 1585.34V1582.97C279.973 1582 279.183 1581.21 278.22 1581.21ZM278.832 1585.34C278.832 1585.68 278.565 1585.95 278.22 1585.95H275.85C275.512 1585.95 275.238 1585.67 275.238 1585.34V1582.97C275.238 1582.63 275.512 1582.35 275.85 1582.35H278.22C278.558 1582.35 278.832 1582.63 278.832 1582.97V1585.34Z" fill="white"/>
<path d="M278.22 1588.91H275.85C274.881 1588.91 274.098 1589.7 274.098 1590.66V1593.03C274.098 1594 274.888 1594.79 275.85 1594.79H278.22C279.189 1594.79 279.973 1594 279.973 1593.03V1590.66C279.973 1589.69 279.183 1588.91 278.22 1588.91ZM278.832 1593.04C278.832 1593.38 278.565 1593.65 278.22 1593.65H275.85C275.512 1593.65 275.238 1593.38 275.238 1593.04V1590.67C275.238 1590.33 275.512 1590.06 275.85 1590.06H278.22C278.558 1590.06 278.832 1590.33 278.832 1590.67V1593.04Z" fill="white"/>
<path d="M278.22 1596.62H275.85C274.881 1596.62 274.098 1597.41 274.098 1598.37V1600.74C274.098 1601.71 274.888 1602.49 275.85 1602.49H278.22C279.189 1602.49 279.973 1601.7 279.973 1600.74V1598.37C279.973 1597.4 279.183 1596.62 278.22 1596.62ZM278.832 1600.74C278.832 1601.08 278.565 1601.35 278.22 1601.35H275.85C275.512 1601.35 275.238 1601.08 275.238 1600.74V1598.37C275.238 1598.03 275.512 1597.76 275.85 1597.76H278.22C278.558 1597.76 278.832 1598.03 278.832 1598.37V1600.74Z" fill="white"/>
<path d="M239.127 1573.52H236.756C235.788 1573.52 235.004 1574.31 235.004 1575.27V1577.64C235.004 1578.61 235.794 1579.39 236.756 1579.39H239.127C240.095 1579.39 240.879 1578.6 240.879 1577.64V1575.27C240.879 1574.3 240.089 1573.52 239.127 1573.52ZM239.738 1577.64C239.738 1577.98 239.471 1578.25 239.127 1578.25H236.756C236.419 1578.25 236.145 1577.98 236.145 1577.64V1575.27C236.145 1574.93 236.419 1574.66 236.756 1574.66H239.127C239.464 1574.66 239.738 1574.93 239.738 1575.27V1577.64Z" fill="white"/>
<path d="M239.127 1581.21H236.756C235.788 1581.21 235.004 1582 235.004 1582.97V1585.34C235.004 1586.3 235.794 1587.09 236.756 1587.09H239.127C240.095 1587.09 240.879 1586.3 240.879 1585.34V1582.97C240.879 1582 240.089 1581.21 239.127 1581.21ZM239.738 1585.34C239.738 1585.68 239.471 1585.95 239.127 1585.95H236.756C236.419 1585.95 236.145 1585.67 236.145 1585.34V1582.97C236.145 1582.63 236.419 1582.35 236.756 1582.35H239.127C239.464 1582.35 239.738 1582.63 239.738 1582.97V1585.34Z" fill="white"/>
<path d="M239.127 1588.91H236.756C235.788 1588.91 235.004 1589.7 235.004 1590.66V1593.03C235.004 1594 235.794 1594.79 236.756 1594.79H239.127C240.095 1594.79 240.879 1594 240.879 1593.03V1590.66C240.879 1589.69 240.089 1588.91 239.127 1588.91ZM239.738 1593.04C239.738 1593.38 239.471 1593.65 239.127 1593.65H236.756C236.419 1593.65 236.145 1593.38 236.145 1593.04V1590.67C236.145 1590.33 236.419 1590.06 236.756 1590.06H239.127C239.464 1590.06 239.738 1590.33 239.738 1590.67V1593.04Z" fill="white"/>
<path d="M239.127 1596.62H236.756C235.788 1596.62 235.004 1597.41 235.004 1598.37V1600.74C235.004 1601.71 235.794 1602.49 236.756 1602.49H239.127C240.095 1602.49 240.879 1601.7 240.879 1600.74V1598.37C240.879 1597.4 240.089 1596.62 239.127 1596.62ZM239.738 1600.74C239.738 1601.08 239.471 1601.35 239.127 1601.35H236.756C236.419 1601.35 236.145 1601.08 236.145 1600.74V1598.37C236.145 1598.03 236.419 1597.76 236.756 1597.76H239.127C239.464 1597.76 239.738 1598.03 239.738 1598.37V1600.74Z" fill="white"/>
<path d="M266.373 1588.2H264.002C263.034 1588.2 262.25 1588.99 262.25 1589.96V1592.33C262.25 1593.3 263.04 1594.08 264.002 1594.08H266.373C267.341 1594.08 268.125 1593.29 268.125 1592.33V1589.96C268.125 1588.99 267.335 1588.2 266.373 1588.2ZM266.984 1592.33C266.984 1592.67 266.717 1592.94 266.373 1592.94H264.002C263.665 1592.94 263.391 1592.66 263.391 1592.33V1589.96C263.391 1589.62 263.665 1589.34 264.002 1589.34H266.373C266.71 1589.34 266.984 1589.62 266.984 1589.96V1592.33Z" fill="white"/>
<path d="M286.974 1614.19L286.809 1613.98L286.993 1613.78C287.318 1613.42 287.503 1612.95 287.503 1612.47C287.503 1611.37 286.611 1610.47 285.515 1610.47C284.827 1610.47 284.241 1610.1 283.947 1609.51C283.858 1609.33 283.744 1609.15 283.597 1608.96L283.533 1608.88V1570.33L283.743 1570.25C284.68 1569.92 285.311 1569.03 285.311 1568.04C285.311 1566.75 284.26 1565.7 282.966 1565.7H271.687V1562.63L271.898 1562.56C272.834 1562.22 273.465 1561.33 273.465 1560.34C273.465 1559.05 272.414 1558 271.12 1558H243.873C242.579 1558 241.528 1559.05 241.528 1560.34C241.528 1561.33 242.159 1562.22 243.096 1562.56L243.306 1562.63V1565.7H232.027C230.734 1565.7 229.682 1566.75 229.682 1568.04C229.682 1569.03 230.313 1569.92 231.25 1570.25L231.46 1570.33V1608.88L231.396 1608.96C231.25 1609.15 231.135 1609.33 231.046 1609.51C230.753 1610.09 230.154 1610.47 229.517 1610.47C228.382 1610.47 227.49 1611.36 227.49 1612.46C227.49 1612.95 227.669 1613.42 228 1613.78L228.185 1613.97L228.019 1614.18C227.675 1614.62 227.497 1615.13 227.497 1615.66C227.497 1616.95 228.548 1618 229.842 1618H285.164C286.458 1618 287.509 1616.95 287.509 1615.66C287.509 1615.12 287.331 1614.61 286.987 1614.18L286.974 1614.19ZM282.96 1566.83C283.622 1566.83 284.164 1567.37 284.164 1568.04C284.164 1568.7 283.622 1569.24 282.96 1569.24H271.681V1566.83H282.96V1566.83ZM282.386 1570.39V1607.93L281.972 1607.8C281.226 1607.57 280.557 1607.57 279.78 1607.8L279.576 1607.87L279.442 1607.7C278.659 1606.75 277.499 1606.21 276.263 1606.21C275.026 1606.21 273.867 1606.75 273.083 1607.7L272.943 1607.87L272.732 1607.8C272.484 1607.72 272.229 1607.66 271.968 1607.65L271.675 1607.62V1570.39H282.38L282.386 1570.39ZM242.656 1560.34C242.656 1559.68 243.198 1559.14 243.86 1559.14H271.107C271.77 1559.14 272.312 1559.68 272.312 1560.34C272.312 1561.01 271.77 1561.55 271.107 1561.55H243.86C243.198 1561.55 242.656 1561.01 242.656 1560.34ZM249.786 1600.64C249.124 1600.64 248.582 1600.1 248.582 1599.44C248.582 1598.78 249.124 1598.23 249.786 1598.23H265.188C265.851 1598.23 266.392 1598.78 266.392 1599.44C266.392 1600.1 265.851 1600.64 265.188 1600.64H249.786ZM264.614 1601.78V1613.32H258.057V1601.78H264.614ZM256.917 1601.78V1613.32H250.36V1601.78H256.917ZM265.755 1601.72L265.965 1601.64C266.902 1601.31 267.533 1600.42 267.533 1599.43C267.533 1598.14 266.481 1597.09 265.188 1597.09H249.786C248.493 1597.09 247.441 1598.14 247.441 1599.43C247.441 1600.42 248.072 1601.31 249.009 1601.64L249.219 1601.72V1613.32H244.434V1562.69H270.54V1613.32H265.755V1601.72ZM230.81 1568.04C230.81 1567.38 231.352 1566.84 232.015 1566.84H243.293V1569.25H232.015C231.352 1569.25 230.81 1568.71 230.81 1568.05V1568.04ZM243.293 1570.39V1607.63L243 1607.65C242.739 1607.67 242.484 1607.73 242.235 1607.81L242.025 1607.88L241.885 1607.71C241.101 1606.76 239.941 1606.21 238.705 1606.21C237.469 1606.21 236.309 1606.76 235.526 1607.71L235.385 1607.88L235.175 1607.81C234.538 1607.59 233.786 1607.56 232.989 1607.81L232.575 1607.94V1570.38H243.28L243.293 1570.39ZM229.472 1611.62H229.51C230.6 1611.62 231.575 1611.01 232.053 1610.03C232.441 1609.25 233.219 1608.77 234.092 1608.77C234.512 1608.77 234.927 1608.89 235.29 1609.12C235.424 1609.2 235.589 1609.23 235.742 1609.19C235.895 1609.15 236.023 1609.05 236.093 1608.91C236.628 1607.94 237.635 1607.35 238.718 1607.35C239.801 1607.35 240.814 1607.94 241.343 1608.9C241.42 1609.03 241.554 1609.14 241.713 1609.19C241.853 1609.23 242.019 1609.2 242.153 1609.12C242.363 1608.98 242.63 1608.88 242.93 1608.82L243.312 1608.74V1613.32H229.491C229.02 1613.32 228.637 1612.94 228.637 1612.47C228.637 1612 229 1611.62 229.466 1611.62H229.472ZM285.145 1616.87H229.823C229.16 1616.87 228.618 1616.33 228.618 1615.67C228.618 1615.01 229.16 1614.46 229.823 1614.46H285.145C285.808 1614.46 286.35 1615.01 286.35 1615.67C286.35 1616.33 285.808 1616.87 285.145 1616.87ZM285.502 1613.32H271.681V1608.73L272.063 1608.81C272.363 1608.87 272.63 1608.98 272.847 1609.12C272.981 1609.19 273.14 1609.22 273.293 1609.18C273.446 1609.14 273.573 1609.05 273.644 1608.9C274.179 1607.94 275.186 1607.35 276.269 1607.35C277.352 1607.35 278.359 1607.94 278.894 1608.89C278.971 1609.03 279.105 1609.14 279.264 1609.18C279.41 1609.21 279.57 1609.19 279.703 1609.1C280.067 1608.88 280.481 1608.76 280.902 1608.76C281.775 1608.76 282.552 1609.24 282.941 1610.02C283.412 1611 284.374 1611.6 285.464 1611.6H285.502C285.974 1611.6 286.356 1611.98 286.356 1612.46C286.356 1612.93 285.974 1613.31 285.502 1613.31V1613.32Z" fill="white"/>
<path d="M242.094 1669.27V1683.39H240.438V1676.19H238.844V1682.67H237.25V1669.53H238.844V1674.8H240.438V1669.27H242.094ZM230.375 1680.09V1670.94H235.656V1672.34H232.125V1678.62C233.656 1678.61 234.922 1678.53 236.359 1678.27L236.484 1679.69C234.773 1680.03 233.297 1680.08 231.328 1680.09H230.375ZM251.938 1670.67V1672.05H244.047V1670.67H247.203V1669.14H248.938V1670.67H251.938ZM244.781 1675.25C244.773 1673.67 246.117 1672.61 248.047 1672.61C249.969 1672.61 251.352 1673.67 251.359 1675.25C251.352 1676.82 249.969 1677.86 248.047 1677.86C246.117 1677.86 244.773 1676.82 244.781 1675.25ZM246.266 1680.92C246.266 1679.37 248.102 1678.46 251.094 1678.47C254.078 1678.46 255.914 1679.37 255.922 1680.92C255.914 1682.45 254.078 1683.38 251.094 1683.38C248.102 1683.38 246.266 1682.45 246.266 1680.92ZM246.406 1675.25C246.398 1676.08 247.047 1676.56 248.047 1676.56C249.047 1676.56 249.734 1676.08 249.734 1675.25C249.734 1674.41 249.047 1673.91 248.047 1673.91C247.047 1673.91 246.398 1674.41 246.406 1675.25ZM248.094 1680.92C248.086 1681.66 249.188 1682.05 251.094 1682.05C252.984 1682.05 254.062 1681.66 254.062 1680.92C254.062 1680.17 252.984 1679.8 251.094 1679.8C249.188 1679.8 248.086 1680.17 248.094 1680.92ZM252.016 1676.66V1675.27H254.109V1673.88H252.031V1672.47H254.109V1669.27H255.844V1678.31H254.109V1676.66H252.016ZM265.281 1670.64V1679.89H258.594V1670.64H265.281ZM260.297 1678.5H263.547V1672H260.297V1678.5ZM267.422 1683.39V1669.27H269.156V1674.69H271.328V1676.16H269.156V1683.39H267.422ZM283.656 1676.67V1678.05H273.75V1670.38H283.531V1671.78H275.516V1673.48H283.203V1674.84H275.516V1676.67H283.656ZM272.172 1681.67V1680.25H285.078V1681.67H272.172Z" fill="#496BD6"/>
<path d="M80 347L80 1348" stroke="#2F5BC1" stroke-width="3" stroke-linecap="round" stroke-linejoin="round" stroke-dasharray="1 9"/>
<path d="M85.7162 1354.5L80.2913 1363.89L74.8662 1354.5H85.7162Z" fill="#225B6D" stroke="#2F5BC1"/>
<rect x="22" y="758" width="331" height="124" fill="white"/>
<rect x="22" y="758" width="331" height="124" stroke="#2F5BC1" stroke-width="4"/>
<rect width="335" height="64" transform="translate(20 756)" fill="#2F5BC1"/>
<path d="M140.434 788.281V790.039H124.34V788.281H131.273V786.719C128.041 786.484 126 785.195 126 783.145C126 780.928 128.51 779.57 132.367 779.57C136.215 779.57 138.725 780.928 138.734 783.145C138.725 785.195 136.684 786.484 133.461 786.719V788.281H140.434ZM126.332 796.387V791.25H128.5V794.629H138.617V796.387H126.332ZM128.266 783.145C128.246 784.365 129.799 785.01 132.367 785C134.945 785.01 136.488 784.365 136.488 783.145C136.488 781.982 134.945 781.299 132.367 781.289C129.799 781.299 128.246 781.982 128.266 783.145ZM155.703 779.082V785.859H158.418V787.676H155.703V796.758H153.555V779.082H155.703ZM142.578 782.383V780.625H150.703V787.285H144.766V790.801C147.568 790.781 149.746 790.664 152.207 790.234L152.402 791.992C149.678 792.48 147.275 792.598 144.062 792.598H142.617V785.547H148.535V782.383H142.578ZM174.117 779.102V791.855H171.93V779.102H174.117ZM159.723 784.668C159.723 782.1 161.803 780.264 164.488 780.254C167.174 780.264 169.244 782.1 169.234 784.668C169.244 787.275 167.174 789.102 164.488 789.102C161.803 789.102 159.723 787.275 159.723 784.668ZM161.852 784.668C161.842 786.23 162.975 787.207 164.488 787.207C165.963 787.207 167.105 786.23 167.105 784.668C167.105 783.145 165.963 782.148 164.488 782.148C162.975 782.148 161.842 783.145 161.852 784.668ZM162.438 796.387V790.566H164.625V794.629H174.605V796.387H162.438ZM196.277 787.109V788.828H191.043V792.871H198.074V794.648H181.941V792.871H188.895V788.828H183.895V780.391H196.141V782.129H186.062V787.109H196.277ZM214.711 779.082V796.738H212.621V787.695H210.746V795.879H208.695V779.395H210.746V785.898H212.621V779.082H214.711ZM200.023 792.188V780.996H206.957V792.188H200.023ZM202.055 790.469H204.926V782.715H202.055V790.469ZM223.691 783.32C223.672 786.562 225.381 789.805 228.242 791.035L226.953 792.773C224.922 791.836 223.438 789.971 222.617 787.666C221.807 790.146 220.283 792.178 218.145 793.184L216.816 791.367C219.756 790.098 221.475 786.729 221.484 783.32V780.508H223.691V783.32ZM229.512 796.758V779.082H231.699V796.758H229.512ZM240.875 782.266C240.875 784.424 242.271 786.455 245.035 787.305L244 789.004C242.018 788.379 240.611 787.119 239.84 785.527C239.059 787.383 237.574 788.857 235.445 789.57L234.352 787.852C237.193 786.924 238.688 784.629 238.688 782.285V782.07H234.957V780.312H244.547V782.07H240.875V782.266ZM236.754 793.34C236.754 791.23 239.039 790 242.73 790C246.393 790 248.639 791.23 248.648 793.34C248.639 795.469 246.393 796.719 242.73 796.719C239.039 796.719 236.754 795.469 236.754 793.34ZM238.922 793.34C238.922 794.434 240.309 795.01 242.73 795.02C245.143 795.01 246.5 794.434 246.5 793.34C246.5 792.266 245.143 791.699 242.73 791.699C240.309 791.699 238.922 792.266 238.922 793.34ZM246.305 789.609V779.082H248.473V783.32H250.934V785.098H248.473V789.609H246.305Z" fill="white"/>
<path d="M132.012 859V844.859H137.324C140.566 844.859 142.295 846.832 142.305 849.547C142.295 852.252 140.547 854.215 137.285 854.215H134.551V859H132.012ZM134.551 852.125H136.934C138.848 852.115 139.707 851.041 139.707 849.547C139.707 848.033 138.848 846.988 136.934 846.988H134.551V852.125ZM154.137 849.625C153.834 847.926 152.477 846.949 150.758 846.949C148.443 846.949 146.803 848.727 146.812 851.93C146.803 855.182 148.453 856.91 150.758 856.91C152.438 856.91 153.795 855.973 154.137 854.312H156.695C156.305 857.027 154.068 859.195 150.719 859.195C146.988 859.195 144.244 856.49 144.254 851.93C144.244 847.359 147.018 844.664 150.719 844.664C153.844 844.664 156.256 846.48 156.695 849.625H154.137ZM168.25 859.195C165.359 859.205 163.582 857.496 163.582 855.25C163.582 853.58 164.656 852.564 166.238 851.471C165.428 850.465 164.793 849.43 164.793 848.18C164.793 846.168 166.258 844.684 168.484 844.684C170.711 844.684 172.088 846.158 172.078 847.887C172.088 849.234 171.385 850.26 170.203 851.109L169.305 851.773L171.893 854.811C172.264 854.107 172.488 853.277 172.488 852.34H174.637C174.627 854.283 174.09 855.66 173.406 856.578L175.477 859H172.781L171.873 857.965C170.867 858.814 169.49 859.205 168.25 859.195ZM166.023 855.133C166.023 856.256 166.932 857.154 168.328 857.164C169.08 857.164 169.852 856.891 170.516 856.412L167.576 853.033L167.352 853.199C166.395 853.902 166.023 854.645 166.023 855.133ZM167 848.219C167.01 848.863 167.439 849.518 168.025 850.25L168.836 849.703C169.578 849.225 169.969 848.717 169.969 848.004C169.969 847.389 169.422 846.725 168.523 846.734C167.625 846.725 167.01 847.447 167 848.219ZM182.07 844.859H185.195L189.395 855.133H189.57L193.77 844.859H196.895V859H194.453V849.273H194.316L190.391 858.961H188.574L184.648 849.234H184.531V859H182.07V844.859ZM204.273 859.215C201.178 859.215 199.195 857.018 199.195 853.746C199.195 850.445 201.178 848.258 204.273 848.258C207.379 848.258 209.361 850.445 209.352 853.746C209.361 857.018 207.379 859.215 204.273 859.215ZM201.715 853.727C201.715 855.67 202.564 857.223 204.293 857.223C205.992 857.223 206.842 855.67 206.832 853.727C206.842 851.783 205.992 850.221 204.293 850.23C202.564 850.221 201.715 851.783 201.715 853.727ZM211.652 859V844.859H214.152V850.133H214.25C214.631 849.381 215.402 848.258 217.277 848.258C219.729 848.258 221.662 850.172 221.672 853.707C221.662 857.193 219.787 859.186 217.297 859.195C215.461 859.186 214.641 858.102 214.25 857.32H214.094V859H211.652ZM214.094 853.688C214.094 855.758 215.002 857.145 216.594 857.145C218.254 857.145 219.123 855.689 219.133 853.688C219.123 851.715 218.273 850.299 216.594 850.289C214.982 850.299 214.094 851.627 214.094 853.688ZM223.875 859V848.395H226.375V859H223.875ZM223.699 845.523C223.699 844.781 224.354 844.176 225.145 844.176C225.936 844.176 226.59 844.781 226.59 845.523C226.59 846.275 225.936 846.881 225.145 846.891C224.354 846.881 223.699 846.275 223.699 845.523ZM231.508 844.859V859H229.008V844.859H231.508ZM238.848 859.215C235.654 859.215 233.691 857.086 233.691 853.766C233.691 850.484 235.684 848.258 238.711 848.258C241.309 848.258 243.555 849.889 243.555 853.609V854.391H236.152C236.191 856.197 237.256 857.271 238.867 857.262C239.961 857.271 240.693 856.803 241.016 856.168H243.457C243.008 858.004 241.309 859.215 238.848 859.215ZM236.162 852.691H241.172C241.162 851.246 240.186 850.191 238.75 850.191C237.256 850.191 236.25 851.344 236.162 852.691Z" fill="#496BD6"/>
<rect width="120" height="48" transform="translate(20 1027)" fill="#F5F5F5"/>
<path d="M49.198 1057.16C46.7839 1057.16 45.0573 1055.84 45.0105 1053.94H47.0573C47.112 1054.84 48.0183 1055.45 49.198 1055.44C50.4402 1055.45 51.3386 1054.76 51.3386 1053.75C51.3386 1052.73 50.4636 1052.01 48.9948 1052H47.9792V1050.44H48.9948C50.198 1050.44 51.0339 1049.77 51.0261 1048.78C51.0339 1047.83 50.3152 1047.19 49.2136 1047.19C48.1511 1047.19 47.237 1047.78 47.198 1048.73H45.2448C45.2917 1046.84 47.0183 1045.53 49.2292 1045.53C51.5261 1045.53 53.0105 1046.94 52.9948 1048.67C53.0105 1049.94 52.1667 1050.85 50.9323 1051.11V1051.2C52.5261 1051.41 53.4323 1052.44 53.4167 1053.86C53.4323 1055.77 51.6433 1057.16 49.198 1057.16ZM56.4636 1057.12C55.7917 1057.12 55.237 1056.58 55.2448 1055.91C55.237 1055.25 55.7917 1054.71 56.4636 1054.7C57.112 1054.71 57.6667 1055.25 57.6667 1055.91C57.6667 1056.58 57.112 1057.12 56.4636 1057.12ZM69.4375 1046.52C69.4375 1048.29 70.5859 1049.97 72.7656 1050.66L71.8281 1052.02C70.3047 1051.5 69.2109 1050.47 68.5938 1049.16C67.9844 1050.66 66.8438 1051.84 65.2188 1052.41L64.2812 1051.05C66.5547 1050.26 67.6953 1048.38 67.7031 1046.36V1045.02H69.4375V1046.52ZM66.2031 1055.69C66.2031 1054.02 68.0391 1053.02 70.9844 1053.03C73.9062 1053.02 75.7109 1054.02 75.7188 1055.69C75.7109 1057.4 73.9062 1058.38 70.9844 1058.38C68.0391 1058.38 66.2031 1057.4 66.2031 1055.69ZM67.9375 1055.69C67.9375 1056.56 69.0469 1057 70.9844 1057C72.9141 1057 74 1056.56 74 1055.69C74 1054.86 72.9141 1054.39 70.9844 1054.39C69.0469 1054.39 67.9375 1054.86 67.9375 1055.69ZM73.8438 1052.72V1044.27H75.5781V1047.7H77.5469V1049.14H75.5781V1052.72H73.8438ZM91.3906 1050.95V1052.34H85.7969V1053.7H89.8281V1058.22H80.0312V1053.7H84.0781V1052.34H78.5156V1050.95H91.3906ZM79.6719 1046.08V1044.69H90.2031V1046.08H88.2656V1048.5H90.125V1049.91H79.75V1048.5H81.6094V1046.08H79.6719ZM81.75 1056.81H88.1406V1055.05H81.75V1056.81ZM83.3438 1048.5H86.5156V1046.08H83.3438V1048.5ZM105.484 1051.25V1052.64H100.031V1055.23H98.2656V1052.64H92.5781V1051.25H105.484ZM93.9531 1047.47C93.9453 1045.7 95.9766 1044.58 99.0156 1044.58C102.07 1044.58 104.078 1045.7 104.078 1047.47C104.078 1049.25 102.07 1050.35 99.0156 1050.34C95.9766 1050.35 93.9453 1049.25 93.9531 1047.47ZM94.1562 1058.11V1053.92H95.9062V1056.69H104.062V1058.11H94.1562ZM95.8281 1047.47C95.8125 1048.41 97.0781 1048.95 99.0156 1048.95C100.969 1048.95 102.227 1048.41 102.219 1047.47C102.227 1046.5 100.969 1045.95 99.0156 1045.95C97.0781 1045.95 95.8125 1046.5 95.8281 1047.47ZM113.953 1049.25V1051.09H119.547V1052.48H106.672V1051.09H112.234V1049.25H113.953ZM107.375 1048.69C110.289 1048.32 112.203 1046.72 112.203 1045.03V1044.5H113.969V1045.03C113.969 1046.76 115.867 1048.32 118.812 1048.69L118.141 1050.05C115.828 1049.7 113.977 1048.65 113.078 1047.16C112.172 1048.64 110.328 1049.7 108 1050.05L107.375 1048.69ZM108.172 1055.89C108.172 1054.3 110.008 1053.4 113.094 1053.41C116.156 1053.4 117.977 1054.3 117.984 1055.89C117.977 1057.49 116.156 1058.38 113.094 1058.38C110.008 1058.38 108.172 1057.49 108.172 1055.89ZM109.938 1055.89C109.93 1056.66 111.016 1057.06 113.094 1057.06C115.133 1057.06 116.234 1056.66 116.25 1055.89C116.234 1055.12 115.133 1054.73 113.094 1054.73C111.016 1054.73 109.93 1055.12 109.938 1055.89Z" fill="#1C3575"/>
</svg>
