<svg width="1100" height="322" viewBox="0 0 1100 322" fill="none" xmlns="http://www.w3.org/2000/svg">
<path d="M15.5156 94.1562C13.1719 94.1562 11.5078 92.8984 11.4375 91.0469H13.1875C13.25 92.0391 14.2344 92.6719 15.5 92.6719C16.8672 92.6719 17.8594 91.9297 17.8594 90.8281C17.8594 89.7109 16.9297 88.9141 15.3125 88.9062H14.3438V87.5H15.3125C16.6016 87.5078 17.5 86.7891 17.5 85.7031C17.5 84.6719 16.7266 83.9688 15.5312 83.9688C14.3984 83.9688 13.3828 84.6016 13.3438 85.625H11.6875C11.7344 83.7812 13.4375 82.5312 15.5469 82.5312C17.7734 82.5312 19.1719 83.9375 19.1562 85.6094C19.1719 86.8984 18.375 87.8203 17.1562 88.125V88.2031C18.7031 88.4219 19.6016 89.4609 19.5938 90.8906C19.6016 92.7734 17.8594 94.1562 15.5156 94.1562ZM21.6406 94V82.6875H28.6562V84.1719H23.3594V87.5938H28.1562V89.0625H23.3594V94H21.6406Z" fill="#333333"/>
<path d="M11.5 151V149.75L15.4219 145.797C16.6641 144.508 17.2812 143.789 17.2812 142.797C17.2812 141.68 16.375 140.969 15.1875 140.969C13.9297 140.969 13.1328 141.766 13.125 142.969H11.5C11.4844 140.898 13.0625 139.531 15.2188 139.531C17.3984 139.531 18.9062 140.914 18.9219 142.75C18.9062 144.016 18.3125 145.023 16.1875 147.109L13.8906 149.438V149.531H19.1094V151H11.5ZM21.1719 151V139.688H28.1875V141.172H22.8906V144.594H27.6875V146.062H22.8906V151H21.1719Z" fill="#333333"/>
<path d="M16.7969 196.688V208H15.0625V198.406H15L12.2969 200.172V198.531L15.1094 196.688H16.7969ZM19.8281 208V196.688H26.8438V198.172H21.5469V201.594H26.3438V203.062H21.5469V208H19.8281Z" fill="#333333"/>
<path d="M12.1562 256V244.688H16.2969C18.7109 244.688 19.875 245.977 19.875 247.656C19.875 249.07 19.0078 249.781 17.9688 250.047V250.156C19.0938 250.219 20.3125 251.203 20.3125 252.953C20.3125 254.688 19.125 256 16.4844 256H12.1562ZM13.875 254.531H16.3281C17.9531 254.523 18.6094 253.812 18.6094 252.875C18.6094 251.789 17.75 250.922 16.3906 250.922H13.875V254.531ZM13.875 249.578H16.1562C17.2969 249.57 18.1875 248.883 18.1875 247.797C18.1875 246.859 17.5391 246.156 16.1875 246.156H13.875V249.578ZM26.2969 244.688V256H24.5625V246.406H24.5L21.7969 248.172V246.531L24.6094 244.688H26.2969Z" fill="#333333"/>
<path d="M11.1562 304V292.688H15.2969C17.7109 292.688 18.875 293.977 18.875 295.656C18.875 297.07 18.0078 297.781 16.9688 298.047V298.156C18.0938 298.219 19.3125 299.203 19.3125 300.953C19.3125 302.688 18.125 304 15.4844 304H11.1562ZM12.875 302.531H15.3281C16.9531 302.523 17.6094 301.812 17.6094 300.875C17.6094 299.789 16.75 298.922 15.3906 298.922H12.875V302.531ZM12.875 297.578H15.1562C16.2969 297.57 17.1875 296.883 17.1875 295.797C17.1875 294.859 16.5391 294.156 15.1875 294.156H12.875V297.578ZM21 304V302.75L24.9219 298.797C26.1641 297.508 26.7812 296.789 26.7812 295.797C26.7812 294.68 25.875 293.969 24.6875 293.969C23.4297 293.969 22.6328 294.766 22.625 295.969H21C20.9844 293.898 22.5625 292.531 24.7188 292.531C26.8984 292.531 28.4062 293.914 28.4219 295.75C28.4062 297.016 27.8125 298.023 25.6875 300.109L23.3906 302.438V302.531H28.6094V304H21Z" fill="#333333"/>
<path d="M40.5 20C40.5 9.23045 49.2304 0.5 60 0.5H176C186.77 0.5 195.5 9.23045 195.5 20V63.5H40.5V20Z" stroke="#CCCCCC"/>
<path d="M89.6562 16.7969V18.3594H86.2344V20.625H89.0938V22.1406H86.2344V24.6953C87.7578 24.6719 88.875 24.5938 90.2031 24.375L90.375 25.9844C88.7422 26.2812 87.3828 26.2969 85.2969 26.2969H84.3438V16.7969H89.6562ZM89.7656 22V20.4062H91.3594V15.4688H93.2188V28.7969H91.3594V22H89.7656ZM94.3125 29.4375V15.2188H96.2344V29.4375H94.3125ZM105.016 16.5625V25.9688H98.1875V16.5625H105.016ZM100.156 24.3906H103.031V18.125H100.156V24.3906ZM106.953 29.4375V15.2188H108.953V20.5781H111.047V22.2344H108.953V29.4375H106.953ZM124.562 21.9375V23.5H111.562V21.9375H117.094V20.7188H113.141V15.8438H123V17.3906H115.125V19.1562H123.078V20.7188H119.047V21.9375H124.562ZM113.047 26.8438C113.047 25.1562 114.922 24.2188 118.031 24.2188C121.117 24.2188 122.969 25.1562 122.984 26.8438C122.969 28.5078 121.117 29.4531 118.031 29.4531C114.922 29.4531 113.047 28.5078 113.047 26.8438ZM115.078 26.8438C115.07 27.5859 116.062 27.9375 118.031 27.9375C119.961 27.9375 120.977 27.5859 120.984 26.8438C120.977 26.1094 119.961 25.7344 118.031 25.7344C116.062 25.7344 115.07 26.1094 115.078 26.8438ZM133.703 28.1562C131.344 28.1562 129.617 26.7656 129.578 24.8125H131.859C131.914 25.6953 132.719 26.3047 133.703 26.2969C134.875 26.3047 135.711 25.4766 135.703 24.2969C135.711 23.0938 134.859 22.2578 133.672 22.25C132.82 22.25 132.227 22.5703 131.891 23.2031H129.766L130.375 16.6875H137.344V18.6094H132.312L132 21.4688H132.094C132.508 20.9141 133.367 20.5078 134.359 20.5156C136.438 20.5078 137.984 22.0625 137.984 24.2344C137.984 26.5234 136.25 28.1562 133.703 28.1562ZM147.078 16.25V17.1406C147.078 18.125 147.078 19.5469 146.75 21.3125L144.797 21.125C145.055 19.7656 145.117 18.7266 145.133 17.875H139.766V16.25H147.078ZM138.922 22.3438C139.719 22.3438 140.617 22.3438 141.562 22.3203V19.5312H143.547V22.2578C144.969 22.1953 146.414 22.0859 147.75 21.8906L147.859 23.3281C144.898 23.875 141.57 23.9297 139.094 23.9375L138.922 22.3438ZM141.016 29.1875V24.9062H143.016V27.5938H151V29.1875H141.016ZM148.516 25.8594V15.2188H150.562V19.5469H152.281V21.2188H150.562V25.8594H148.516Z" fill="#E46C0B"/>
<path d="M85.6016 39.9219C85.5078 39.0234 84.7969 38.5 83.6484 38.5C82.4609 38.5 81.7969 39.0469 81.7891 39.7969C81.7812 40.6172 82.625 40.9844 83.6016 41.2031L84.6172 41.4531C86.5547 41.8984 88 42.8828 88.0078 44.7656C88 46.8359 86.3906 48.1641 83.6328 48.1562C80.8984 48.1641 79.1562 46.8984 79.0859 44.4688H81.3672C81.4453 45.6094 82.3516 46.1875 83.6016 46.1875C84.8359 46.1875 85.6328 45.6094 85.6328 44.7656C85.6328 43.9922 84.9297 43.6328 83.6953 43.3281L82.4609 43.0312C80.5547 42.5625 79.3828 41.6094 79.3828 39.9531C79.375 37.8984 81.1875 36.5312 83.6641 36.5312C86.1719 36.5312 87.8203 37.9219 87.8516 39.9219H85.6016ZM89.5391 48V36.6875H97.1328V38.625H91.8828V41.375H96.7422V43.3125H91.8828V46.0625H97.1484V48H89.5391ZM100.852 48H98.3203L102.242 36.6875H105.258L109.164 48H106.648L105.797 45.3906H101.703L100.852 48ZM102.297 43.5625H105.203L103.789 39.2344H103.711L102.297 43.5625ZM114.133 48V36.6875H121.586V38.625H116.477V41.375H121.102V43.3125H116.477V48H114.133ZM133.492 42.3438C133.492 46.0391 131.203 48.1562 128.211 48.1562C125.195 48.1562 122.914 46.0234 122.914 42.3438C122.914 38.6484 125.195 36.5312 128.211 36.5312C131.203 36.5312 133.492 38.6484 133.492 42.3438ZM125.305 42.3438C125.305 44.7578 126.453 46.0703 128.211 46.0781C129.953 46.0703 131.109 44.7578 131.102 42.3438C131.109 39.9219 129.953 38.6172 128.211 38.6094C126.453 38.6172 125.305 39.9219 125.305 42.3438ZM145.539 42.3438C145.539 46.0391 143.25 48.1562 140.258 48.1562C137.242 48.1562 134.961 46.0234 134.961 42.3438C134.961 38.6484 137.242 36.5312 140.258 36.5312C143.25 36.5312 145.539 38.6484 145.539 42.3438ZM137.352 42.3438C137.352 44.7578 138.5 46.0703 140.258 46.0781C142 46.0703 143.156 44.7578 143.148 42.3438C143.156 39.9219 142 38.6172 140.258 38.6094C138.5 38.6172 137.352 39.9219 137.352 42.3438ZM151.211 48H147.227V36.6875H151.258C154.664 36.6875 156.75 38.8047 156.742 42.3281C156.75 45.8672 154.664 48 151.211 48ZM149.57 45.9844H151.117C153.273 45.9844 154.398 44.8672 154.398 42.3281C154.398 39.8125 153.273 38.7031 151.133 38.7031H149.57V45.9844Z" fill="#333333"/>
<mask id="path-8-inside-1_362_12197" fill="white">
<path d="M40 64H196V112H40V64Z"/>
</mask>
<path d="M196 112V113H197V112H196ZM40 112H39V113H40V112ZM195 64V112H197V64H195ZM196 111H40V113H196V111ZM41 112V64H39V112H41Z" fill="#CCCCCC" mask="url(#path-8-inside-1_362_12197)"/>
<path d="M109.094 81.3281V95.3281H107.609V81.3281H109.094ZM97.5938 91.5156C98.75 91.5078 100.062 91.5 101.438 91.4688V90.0625C99.8047 89.8438 98.7422 88.8828 98.75 87.5156C98.7422 85.9375 100.117 84.8984 102.141 84.8906C104.188 84.8984 105.586 85.9375 105.594 87.5156C105.586 88.8672 104.531 89.8203 102.906 90.0547V91.4141C104.203 91.3516 105.516 91.2578 106.75 91.0938L106.859 92.2031C103.75 92.7188 100.359 92.7578 97.7969 92.75L97.5938 91.5156ZM97.8906 84.1875V83H101.438V81.3594H102.922V83H106.438V84.1875H97.8906ZM100.156 87.5156C100.141 88.4062 100.969 88.9609 102.141 88.9531C103.352 88.9609 104.172 88.4062 104.172 87.5156C104.172 86.6172 103.352 86.0469 102.141 86.0469C100.969 86.0469 100.141 86.6172 100.156 87.5156ZM124.328 83.3125V84.5312H122.344V86.3125H124.328V87.5469H122.344V89.5938H120.859V81.3281H122.344V83.3125H124.328ZM111.562 85.4688C111.547 83.5 113.141 82.1406 115.281 82.1406C117.43 82.1406 119 83.5 119.016 85.4688C119 87.4219 117.43 88.7891 115.281 88.7969C113.141 88.7891 111.547 87.4219 111.562 85.4688ZM113.016 85.4688C113 86.7109 113.969 87.5312 115.281 87.5469C116.594 87.5312 117.555 86.7109 117.562 85.4688C117.555 84.2344 116.594 83.3828 115.281 83.3906C113.969 83.3828 113 84.2344 113.016 85.4688ZM113.125 92.6406C113.125 90.9609 114.938 89.9766 117.828 89.9688C120.688 89.9766 122.469 90.9609 122.469 92.6406C122.469 94.3125 120.688 95.3047 117.828 95.2969C114.938 95.3047 113.125 94.3125 113.125 92.6406ZM114.609 92.6406C114.602 93.5938 115.805 94.1172 117.828 94.1094C119.836 94.1172 121.023 93.5938 121.016 92.6406C121.023 91.7031 119.836 91.1641 117.828 91.1719C115.805 91.1641 114.602 91.7031 114.609 92.6406ZM127.5 82V87.7812C129.508 87.7656 131.141 87.6719 132.984 87.3438L133.141 88.5312C131.125 88.9141 129.359 89.0078 127.078 89.0156H126V82H127.5ZM127.703 95.1562V90.1562H136.844V95.1562H127.703ZM129.156 93.9531H135.375V91.3281H129.156V93.9531ZM131.547 86.4219V85.2812H135.359V83.9531H131.547V82.8125H135.359V81.3281H136.844V89.5469H135.359V86.4219H131.547Z" fill="#333333"/>
<mask id="path-11-inside-2_362_12197" fill="white">
<path d="M40 112H196V178H40V112Z"/>
</mask>
<path d="M196 178V179H197V178H196ZM40 178H39V179H40V178ZM195 112V178H197V112H195ZM196 177H40V179H196V177ZM41 178V112H39V178H41Z" fill="#CCCCCC" mask="url(#path-11-inside-2_362_12197)"/>
<path d="M116.156 138.344V152.328H114.688V138.344H116.156ZM104.5 145.938C107.203 145.945 110.664 145.945 113.719 145.578L113.828 146.703C112.539 146.891 111.211 147.008 109.922 147.07V151.891H108.438V147.125C107.109 147.164 105.836 147.164 104.703 147.156L104.5 145.938ZM105.719 144.562V138.922H107.203V140.516H111.125V138.922H112.594V144.562H105.719ZM107.203 143.359H111.125V141.672H107.203V143.359ZM130.453 138.328V152.328H129.031V138.328H130.453ZM118.188 147.703C118.594 147.703 119.062 147.703 119.562 147.695V141.266H118.484V140.047H124.906V141.266H123.828V147.523C124.305 147.484 124.766 147.43 125.188 147.375L125.297 148.453C123.078 148.891 120.172 148.953 118.359 148.953L118.188 147.703ZM120.906 147.672C121.414 147.664 121.938 147.641 122.453 147.617V141.266H120.906V147.672ZM124.531 144.906V143.578H126.281V138.641H127.688V151.609H126.281V144.906H124.531Z" fill="#333333"/>
<mask id="path-14-inside-3_362_12197" fill="white">
<path d="M40 178H196V226H40V178Z"/>
</mask>
<path d="M196 226V227H197V226H196ZM40 226H39V227H40V226ZM195 178V226H197V178H195ZM196 225H40V227H196V225ZM41 226V178H39V226H41Z" fill="#CCCCCC" mask="url(#path-14-inside-3_362_12197)"/>
<path d="M109.094 195.328V209.328H107.609V195.328H109.094ZM97.5938 205.516C98.75 205.508 100.062 205.5 101.438 205.469V204.062C99.8047 203.844 98.7422 202.883 98.75 201.516C98.7422 199.938 100.117 198.898 102.141 198.891C104.188 198.898 105.586 199.938 105.594 201.516C105.586 202.867 104.531 203.82 102.906 204.055V205.414C104.203 205.352 105.516 205.258 106.75 205.094L106.859 206.203C103.75 206.719 100.359 206.758 97.7969 206.75L97.5938 205.516ZM97.8906 198.188V197H101.438V195.359H102.922V197H106.438V198.188H97.8906ZM100.156 201.516C100.141 202.406 100.969 202.961 102.141 202.953C103.352 202.961 104.172 202.406 104.172 201.516C104.172 200.617 103.352 200.047 102.141 200.047C100.969 200.047 100.141 200.617 100.156 201.516ZM123.281 195.328V205.828H121.875V195.328H123.281ZM111.312 202.734C113.156 201.859 114.148 199.953 114.141 198.297V196.297H115.578V198.297C115.578 199.938 116.492 201.594 118.281 202.375L117.453 203.516C116.211 202.945 115.352 201.945 114.883 200.734C114.375 202.078 113.453 203.25 112.141 203.875L111.312 202.734ZM114 209.031V204.547H115.469V207.828H123.688V209.031H114ZM117.031 199.984V198.766H119.078V195.578H120.5V205.422H119.078V199.984H117.031ZM136.844 195.328V209.359H135.375V201.719H132.594V200.5H135.375V195.328H136.844ZM125.812 206.047V196.578H132.359V197.781H127.312V200.5H131.766V201.688H127.312V204.812C129.656 204.812 131.281 204.742 133.141 204.422L133.297 205.625C131.258 205.953 129.5 206.039 126.906 206.047H125.812Z" fill="#333333"/>
<mask id="path-17-inside-4_362_12197" fill="white">
<path d="M40 226H196V274H40V226Z"/>
</mask>
<path d="M40 226H196V274H40V226Z" fill="#EEEEEE"/>
<path d="M195 226V274H197V226H195ZM41 274V226H39V274H41Z" fill="#CCCCCC" mask="url(#path-17-inside-4_362_12197)"/>
<path d="M204.5 20C204.5 9.23045 213.23 0.5 224 0.5H340C350.77 0.5 359.5 9.23045 359.5 20V63.5H204.5V20Z" stroke="#CCCCCC"/>
<path d="M253.414 16.7969V18.3594H249.992V20.625H252.852V22.1406H249.992V24.6953C251.516 24.6719 252.633 24.5938 253.961 24.375L254.133 25.9844C252.5 26.2812 251.141 26.2969 249.055 26.2969H248.102V16.7969H253.414ZM253.523 22V20.4062H255.117V15.4688H256.977V28.7969H255.117V22H253.523ZM258.07 29.4375V15.2188H259.992V29.4375H258.07ZM268.773 16.5625V25.9688H261.945V16.5625H268.773ZM263.914 24.3906H266.789V18.125H263.914V24.3906ZM270.711 29.4375V15.2188H272.711V20.5781H274.805V22.2344H272.711V29.4375H270.711ZM288.32 21.9375V23.5H275.32V21.9375H280.852V20.7188H276.898V15.8438H286.758V17.3906H278.883V19.1562H286.836V20.7188H282.805V21.9375H288.32ZM276.805 26.8438C276.805 25.1562 278.68 24.2188 281.789 24.2188C284.875 24.2188 286.727 25.1562 286.742 26.8438C286.727 28.5078 284.875 29.4531 281.789 29.4531C278.68 29.4531 276.805 28.5078 276.805 26.8438ZM278.836 26.8438C278.828 27.5859 279.82 27.9375 281.789 27.9375C283.719 27.9375 284.734 27.5859 284.742 26.8438C284.734 26.1094 283.719 25.7344 281.789 25.7344C279.82 25.7344 278.828 26.1094 278.836 26.8438ZM293.117 26V24.1406L297.898 16.6875H300.852V24.1094H302.289V26H300.852V28H298.617V26H293.117ZM295.492 24.1094H298.648V19.2656H298.539L295.492 24.0156V24.1094ZM311.32 16.25V17.1406C311.32 18.125 311.32 19.5469 310.992 21.3125L309.039 21.125C309.297 19.7656 309.359 18.7266 309.375 17.875H304.008V16.25H311.32ZM303.164 22.3438C303.961 22.3438 304.859 22.3438 305.805 22.3203V19.5312H307.789V22.2578C309.211 22.1953 310.656 22.0859 311.992 21.8906L312.102 23.3281C309.141 23.875 305.812 23.9297 303.336 23.9375L303.164 22.3438ZM305.258 29.1875V24.9062H307.258V27.5938H315.242V29.1875H305.258ZM312.758 25.8594V15.2188H314.805V19.5469H316.523V21.2188H314.805V25.8594H312.758Z" fill="#E46C0B"/>
<path d="M249.602 39.9219C249.508 39.0234 248.797 38.5 247.648 38.5C246.461 38.5 245.797 39.0469 245.789 39.7969C245.781 40.6172 246.625 40.9844 247.602 41.2031L248.617 41.4531C250.555 41.8984 252 42.8828 252.008 44.7656C252 46.8359 250.391 48.1641 247.633 48.1562C244.898 48.1641 243.156 46.8984 243.086 44.4688H245.367C245.445 45.6094 246.352 46.1875 247.602 46.1875C248.836 46.1875 249.633 45.6094 249.633 44.7656C249.633 43.9922 248.93 43.6328 247.695 43.3281L246.461 43.0312C244.555 42.5625 243.383 41.6094 243.383 39.9531C243.375 37.8984 245.188 36.5312 247.664 36.5312C250.172 36.5312 251.82 37.9219 251.852 39.9219H249.602ZM253.539 48V36.6875H261.133V38.625H255.883V41.375H260.742V43.3125H255.883V46.0625H261.148V48H253.539ZM264.852 48H262.32L266.242 36.6875H269.258L273.164 48H270.648L269.797 45.3906H265.703L264.852 48ZM266.297 43.5625H269.203L267.789 39.2344H267.711L266.297 43.5625ZM278.133 48V36.6875H285.586V38.625H280.477V41.375H285.102V43.3125H280.477V48H278.133ZM297.492 42.3438C297.492 46.0391 295.203 48.1562 292.211 48.1562C289.195 48.1562 286.914 46.0234 286.914 42.3438C286.914 38.6484 289.195 36.5312 292.211 36.5312C295.203 36.5312 297.492 38.6484 297.492 42.3438ZM289.305 42.3438C289.305 44.7578 290.453 46.0703 292.211 46.0781C293.953 46.0703 295.109 44.7578 295.102 42.3438C295.109 39.9219 293.953 38.6172 292.211 38.6094C290.453 38.6172 289.305 39.9219 289.305 42.3438ZM309.539 42.3438C309.539 46.0391 307.25 48.1562 304.258 48.1562C301.242 48.1562 298.961 46.0234 298.961 42.3438C298.961 38.6484 301.242 36.5312 304.258 36.5312C307.25 36.5312 309.539 38.6484 309.539 42.3438ZM301.352 42.3438C301.352 44.7578 302.5 46.0703 304.258 46.0781C306 46.0703 307.156 44.7578 307.148 42.3438C307.156 39.9219 306 38.6172 304.258 38.6094C302.5 38.6172 301.352 39.9219 301.352 42.3438ZM315.211 48H311.227V36.6875H315.258C318.664 36.6875 320.75 38.8047 320.742 42.3281C320.75 45.8672 318.664 48 315.211 48ZM313.57 45.9844H315.117C317.273 45.9844 318.398 44.8672 318.398 42.3281C318.398 39.8125 317.273 38.7031 315.133 38.7031H313.57V45.9844Z" fill="#333333"/>
<mask id="path-21-inside-5_362_12197" fill="white">
<path d="M204 64H360V112H204V64Z"/>
</mask>
<path d="M360 112V113H361V112H360ZM204 112H203V113H204V112ZM359 64V112H361V64H359ZM360 111H204V113H360V111ZM205 112V64H203V112H205Z" fill="#CCCCCC" mask="url(#path-21-inside-5_362_12197)"/>
<path d="M273.094 81.3281V95.3281H271.609V81.3281H273.094ZM261.594 91.5156C262.75 91.5078 264.062 91.5 265.438 91.4688V90.0625C263.805 89.8438 262.742 88.8828 262.75 87.5156C262.742 85.9375 264.117 84.8984 266.141 84.8906C268.188 84.8984 269.586 85.9375 269.594 87.5156C269.586 88.8672 268.531 89.8203 266.906 90.0547V91.4141C268.203 91.3516 269.516 91.2578 270.75 91.0938L270.859 92.2031C267.75 92.7188 264.359 92.7578 261.797 92.75L261.594 91.5156ZM261.891 84.1875V83H265.438V81.3594H266.922V83H270.438V84.1875H261.891ZM264.156 87.5156C264.141 88.4062 264.969 88.9609 266.141 88.9531C267.352 88.9609 268.172 88.4062 268.172 87.5156C268.172 86.6172 267.352 86.0469 266.141 86.0469C264.969 86.0469 264.141 86.6172 264.156 87.5156ZM288.328 83.3125V84.5312H286.344V86.3125H288.328V87.5469H286.344V89.5938H284.859V81.3281H286.344V83.3125H288.328ZM275.562 85.4688C275.547 83.5 277.141 82.1406 279.281 82.1406C281.43 82.1406 283 83.5 283.016 85.4688C283 87.4219 281.43 88.7891 279.281 88.7969C277.141 88.7891 275.547 87.4219 275.562 85.4688ZM277.016 85.4688C277 86.7109 277.969 87.5312 279.281 87.5469C280.594 87.5312 281.555 86.7109 281.562 85.4688C281.555 84.2344 280.594 83.3828 279.281 83.3906C277.969 83.3828 277 84.2344 277.016 85.4688ZM277.125 92.6406C277.125 90.9609 278.938 89.9766 281.828 89.9688C284.688 89.9766 286.469 90.9609 286.469 92.6406C286.469 94.3125 284.688 95.3047 281.828 95.2969C278.938 95.3047 277.125 94.3125 277.125 92.6406ZM278.609 92.6406C278.602 93.5938 279.805 94.1172 281.828 94.1094C283.836 94.1172 285.023 93.5938 285.016 92.6406C285.023 91.7031 283.836 91.1641 281.828 91.1719C279.805 91.1641 278.602 91.7031 278.609 92.6406ZM291.5 82V87.7812C293.508 87.7656 295.141 87.6719 296.984 87.3438L297.141 88.5312C295.125 88.9141 293.359 89.0078 291.078 89.0156H290V82H291.5ZM291.703 95.1562V90.1562H300.844V95.1562H291.703ZM293.156 93.9531H299.375V91.3281H293.156V93.9531ZM295.547 86.4219V85.2812H299.359V83.9531H295.547V82.8125H299.359V81.3281H300.844V89.5469H299.359V86.4219H295.547Z" fill="#333333"/>
<mask id="path-24-inside-6_362_12197" fill="white">
<path d="M204 112H360V178H204V112Z"/>
</mask>
<path d="M360 178V179H361V178H360ZM204 178H203V179H204V178ZM359 112V178H361V112H359ZM360 177H204V179H360V177ZM205 178V112H203V178H205Z" fill="#CCCCCC" mask="url(#path-24-inside-6_362_12197)"/>
<path d="M273.094 138.328V152.328H271.609V138.328H273.094ZM261.594 148.516C262.75 148.508 264.062 148.5 265.438 148.469V147.062C263.805 146.844 262.742 145.883 262.75 144.516C262.742 142.938 264.117 141.898 266.141 141.891C268.188 141.898 269.586 142.938 269.594 144.516C269.586 145.867 268.531 146.82 266.906 147.055V148.414C268.203 148.352 269.516 148.258 270.75 148.094L270.859 149.203C267.75 149.719 264.359 149.758 261.797 149.75L261.594 148.516ZM261.891 141.188V140H265.438V138.359H266.922V140H270.438V141.188H261.891ZM264.156 144.516C264.141 145.406 264.969 145.961 266.141 145.953C267.352 145.961 268.172 145.406 268.172 144.516C268.172 143.617 267.352 143.047 266.141 143.047C264.969 143.047 264.141 143.617 264.156 144.516ZM288.328 140.312V141.531H286.344V143.312H288.328V144.547H286.344V146.594H284.859V138.328H286.344V140.312H288.328ZM275.562 142.469C275.547 140.5 277.141 139.141 279.281 139.141C281.43 139.141 283 140.5 283.016 142.469C283 144.422 281.43 145.789 279.281 145.797C277.141 145.789 275.547 144.422 275.562 142.469ZM277.016 142.469C277 143.711 277.969 144.531 279.281 144.547C280.594 144.531 281.555 143.711 281.562 142.469C281.555 141.234 280.594 140.383 279.281 140.391C277.969 140.383 277 141.234 277.016 142.469ZM277.125 149.641C277.125 147.961 278.938 146.977 281.828 146.969C284.688 146.977 286.469 147.961 286.469 149.641C286.469 151.312 284.688 152.305 281.828 152.297C278.938 152.305 277.125 151.312 277.125 149.641ZM278.609 149.641C278.602 150.594 279.805 151.117 281.828 151.109C283.836 151.117 285.023 150.594 285.016 149.641C285.023 148.703 283.836 148.164 281.828 148.172C279.805 148.164 278.602 148.703 278.609 149.641ZM291.5 139V144.781C293.508 144.766 295.141 144.672 296.984 144.344L297.141 145.531C295.125 145.914 293.359 146.008 291.078 146.016H290V139H291.5ZM291.703 152.156V147.156H300.844V152.156H291.703ZM293.156 150.953H299.375V148.328H293.156V150.953ZM295.547 143.422V142.281H299.359V140.953H295.547V139.812H299.359V138.328H300.844V146.547H299.359V143.422H295.547Z" fill="#333333"/>
<mask id="path-27-inside-7_362_12197" fill="white">
<path d="M204 178H360V226H204V178Z"/>
</mask>
<path d="M360 226V227H361V226H360ZM204 226H203V227H204V226ZM359 178V226H361V178H359ZM360 225H204V227H360V225ZM205 226V178H203V226H205Z" fill="#CCCCCC" mask="url(#path-27-inside-7_362_12197)"/>
<path d="M273.094 195.328V209.328H271.609V195.328H273.094ZM261.594 205.516C262.75 205.508 264.062 205.5 265.438 205.469V204.062C263.805 203.844 262.742 202.883 262.75 201.516C262.742 199.938 264.117 198.898 266.141 198.891C268.188 198.898 269.586 199.938 269.594 201.516C269.586 202.867 268.531 203.82 266.906 204.055V205.414C268.203 205.352 269.516 205.258 270.75 205.094L270.859 206.203C267.75 206.719 264.359 206.758 261.797 206.75L261.594 205.516ZM261.891 198.188V197H265.438V195.359H266.922V197H270.438V198.188H261.891ZM264.156 201.516C264.141 202.406 264.969 202.961 266.141 202.953C267.352 202.961 268.172 202.406 268.172 201.516C268.172 200.617 267.352 200.047 266.141 200.047C264.969 200.047 264.141 200.617 264.156 201.516ZM288.328 197.312V198.531H286.344V200.312H288.328V201.547H286.344V203.594H284.859V195.328H286.344V197.312H288.328ZM275.562 199.469C275.547 197.5 277.141 196.141 279.281 196.141C281.43 196.141 283 197.5 283.016 199.469C283 201.422 281.43 202.789 279.281 202.797C277.141 202.789 275.547 201.422 275.562 199.469ZM277.016 199.469C277 200.711 277.969 201.531 279.281 201.547C280.594 201.531 281.555 200.711 281.562 199.469C281.555 198.234 280.594 197.383 279.281 197.391C277.969 197.383 277 198.234 277.016 199.469ZM277.125 206.641C277.125 204.961 278.938 203.977 281.828 203.969C284.688 203.977 286.469 204.961 286.469 206.641C286.469 208.312 284.688 209.305 281.828 209.297C278.938 209.305 277.125 208.312 277.125 206.641ZM278.609 206.641C278.602 207.594 279.805 208.117 281.828 208.109C283.836 208.117 285.023 207.594 285.016 206.641C285.023 205.703 283.836 205.164 281.828 205.172C279.805 205.164 278.602 205.703 278.609 206.641ZM291.5 196V201.781C293.508 201.766 295.141 201.672 296.984 201.344L297.141 202.531C295.125 202.914 293.359 203.008 291.078 203.016H290V196H291.5ZM291.703 209.156V204.156H300.844V209.156H291.703ZM293.156 207.953H299.375V205.328H293.156V207.953ZM295.547 200.422V199.281H299.359V197.953H295.547V196.812H299.359V195.328H300.844V203.547H299.359V200.422H295.547Z" fill="#333333"/>
<mask id="path-30-inside-8_362_12197" fill="white">
<path d="M204 226H360V274H204V226Z"/>
</mask>
<path d="M359 226V274H361V226H359ZM205 274V226H203V274H205Z" fill="#CCCCCC" mask="url(#path-30-inside-8_362_12197)"/>
<path d="M229.828 254.391V255.656H217.016V254.391H222.641V251.406H218.141V250.234H220.234V245.828H218.109V244.625H228.656V245.828H226.516V250.234H228.609V251.406H224.109V254.391H229.828ZM221.703 250.234H225.062V245.828H221.703V250.234ZM235.641 247.828C235.641 249.984 236.961 252.266 239.047 253.266L238.203 254.391C236.68 253.672 235.531 252.211 234.938 250.5C234.32 252.352 233.102 253.898 231.5 254.641L230.672 253.5C232.805 252.523 234.18 250.133 234.188 247.828V246.906H231.094V245.719H234.172V243.609H235.672V245.719H238.719V246.906H235.641V247.828ZM240.266 257.328V243.328H241.75V248.969H244V250.219H241.75V257.328H240.266ZM255.891 244.438C255.883 248.148 254.078 250.844 249.5 252.359L248.906 251.188C251.188 250.445 252.633 249.438 253.453 248.203L249.094 248.562L248.859 247.359L254 247.141C254.172 246.664 254.281 246.164 254.328 245.641H249.562V244.438H255.891ZM251.281 257.031V252.688H252.781V255.828H260.641V257.031H251.281ZM255.844 248.938V247.719H258.766V243.344H260.25V253.703H258.766V248.938H255.844ZM274.344 243.344V251.109H272.938V243.344H274.344ZM262.344 249.812C264.195 249.008 265.211 247.258 265.203 245.688V244.031H266.641V245.672C266.641 247.227 267.594 248.789 269.344 249.547L268.547 250.656C267.289 250.141 266.414 249.172 265.938 247.992C265.422 249.273 264.477 250.375 263.156 250.953L262.344 249.812ZM265 257.156V251.672H266.469V253.172H272.891V251.672H274.344V257.156H265ZM266.469 255.953H272.891V254.359H266.469V255.953ZM268.094 247.375V246.156H270.141V243.578H271.562V251.016H270.141V247.375H268.094ZM277.078 251.688C277.094 248.742 277.93 246.297 279.391 244.203H280.922C279.844 245.75 278.812 248.898 278.812 251.688C278.812 254.484 279.844 257.633 280.922 259.188H279.391C277.93 257.086 277.094 254.641 277.078 251.688ZM287.359 244.688V245.266C287.359 246.414 287.359 248.562 286.406 251.953L284.922 251.719C285.727 249.078 285.859 247.148 285.883 245.906H282.922V244.688H287.359ZM281.953 255.328V254.109H287.875V249.688H289.328V254.109H294.719V255.328H281.953ZM288.453 245.906V244.688H293.312V245.656C293.305 247.031 293.32 248.984 292.781 251.906L291.297 251.734C291.805 249.141 291.836 247.242 291.844 245.906H288.453ZM307.375 243.328V257.328H305.891V243.328H307.375ZM295.984 253.5C298.148 252.531 299.586 250.172 299.594 247.828V246.906H296.406V245.719H299.578V243.609H301.047V245.719H304.188V246.906H301.047V247.828C301.055 250.062 302.523 252.344 304.703 253.266L303.891 254.406C302.273 253.703 300.992 252.242 300.344 250.477C299.711 252.352 298.438 253.906 296.812 254.641L295.984 253.5ZM312.125 254.922L310.875 259.234H309.547L310.375 254.922H312.125ZM322.234 248.875V250.047H315.094V244.156H322.141V245.359H316.562V246.547H321.844V247.641H316.562V248.875H322.234ZM313.844 251.344C316.562 251.352 320.047 251.344 323.125 250.969L323.203 252.062C321.914 252.266 320.602 252.383 319.312 252.461V256.875H317.828V252.531C316.477 252.578 315.18 252.578 314.016 252.578L313.844 251.344ZM324.062 257.328V243.344H325.531V257.328H324.062ZM335.125 244.203C335.117 247.789 332.586 250.312 328.438 251.406L327.844 250.234C331.211 249.359 333.258 247.602 333.531 245.391H328.625V244.203H335.125ZM330.156 257.141V251.844H339.328V257.141H330.156ZM331.625 255.953H337.875V253.031H331.625V255.953ZM337.844 251.219V243.344H339.328V251.219H337.844ZM345.391 251.688C345.375 254.641 344.539 257.086 343.078 259.188H341.547C342.625 257.633 343.656 254.484 343.656 251.688C343.656 248.898 342.625 245.75 341.547 244.203H343.078C344.539 246.297 345.375 248.742 345.391 251.688Z" fill="#333333"/>
<path d="M368.5 20C368.5 9.23045 377.23 0.5 388 0.5H588C598.77 0.5 607.5 9.23045 607.5 20V63.5H368.5V20Z" stroke="#CCCCCC"/>
<path d="M475.648 16.4062V18H474.492V21.9453C475.062 21.8984 475.617 21.8438 476.148 21.7812L476.289 23.25C473.445 23.7344 470.195 23.7812 467.82 23.7812L467.602 22.1875C468.086 22.1875 468.609 22.1797 469.148 22.1719V18H467.977V16.4062H475.648ZM469.742 29.1875V24.7031H471.727V27.5938H479.477V29.1875H469.742ZM471.07 22.125C471.562 22.1094 472.07 22.0938 472.57 22.0703V18H471.07V22.125ZM476.961 25.7031V15.2344H478.961V19.2344H480.883V20.8906H478.961V25.7031H476.961ZM493.836 15.2188V29.4375H491.93V22.2656H490.648V28.7812H488.758V15.4219H490.648V20.6406H491.93V15.2188H493.836ZM481.914 25.8594V16.6875H487.57V25.8594H481.914ZM483.773 24.2969H485.711V18.2656H483.773V24.2969ZM508.336 21.9375V23.5H495.336V21.9375H500.867V20.7188H496.914V15.8438H506.773V17.3906H498.898V19.1562H506.852V20.7188H502.82V21.9375H508.336ZM496.82 26.8438C496.82 25.1562 498.695 24.2188 501.805 24.2188C504.891 24.2188 506.742 25.1562 506.758 26.8438C506.742 28.5078 504.891 29.4531 501.805 29.4531C498.695 29.4531 496.82 28.5078 496.82 26.8438ZM498.852 26.8438C498.844 27.5859 499.836 27.9375 501.805 27.9375C503.734 27.9375 504.75 27.5859 504.758 26.8438C504.75 26.1094 503.734 25.7344 501.805 25.7344C499.836 25.7344 498.844 26.1094 498.852 26.8438Z" fill="#E46C0B"/>
<path d="M453.742 36.4062V38H452.586V41.9453C453.156 41.8984 453.711 41.8438 454.242 41.7812L454.383 43.25C451.539 43.7344 448.289 43.7812 445.914 43.7812L445.695 42.1875C446.18 42.1875 446.703 42.1797 447.242 42.1719V38H446.07V36.4062H453.742ZM447.836 49.1875V44.7031H449.82V47.5938H457.57V49.1875H447.836ZM449.164 42.125C449.656 42.1094 450.164 42.0938 450.664 42.0703V38H449.164V42.125ZM455.055 45.7031V35.2344H457.055V39.2344H458.977V40.8906H457.055V45.7031H455.055ZM471.93 35.2188V49.4375H470.023V42.2656H468.742V48.7812H466.852V35.4219H468.742V40.6406H470.023V35.2188H471.93ZM460.008 45.8594V36.6875H465.664V45.8594H460.008ZM461.867 44.2969H463.805V38.2656H461.867V44.2969ZM477.945 43.6875C477.953 40.75 478.859 38.3047 480.352 36.2031H482.555C481.477 37.7578 480.352 40.8906 480.352 43.6875C480.352 46.4922 481.477 49.6172 482.555 51.1875H480.352C478.859 49.0781 477.953 46.6328 477.945 43.6875ZM494.945 41.5781V43.1562H490.82V46.1875H496.367V47.8125H483.352V46.1875H488.836V43.1562H484.883V36.2188H494.836V37.8125H486.883V41.5781H494.945ZM510.195 46.1406V47.7344H497.18V46.1406H502.617V42.9219H504.602V46.1406H510.195ZM497.492 41.7188C500.711 41.2188 502.523 39.0547 502.539 37.0469V36.0312H504.664V37.0469C504.656 39.0781 506.492 41.2188 509.742 41.7188L508.898 43.375C506.398 42.9219 504.539 41.5859 503.602 39.8125C502.672 41.5781 500.82 42.9297 498.336 43.375L497.492 41.7188ZM523.336 35.2188V49.4375H521.43V42.2656H520.148V48.7812H518.258V35.4219H520.148V40.6406H521.43V35.2188H523.336ZM511.414 45.8594V36.6875H517.07V45.8594H511.414ZM513.273 44.2969H515.211V38.2656H513.273V44.2969ZM529.398 43.6875C529.391 46.6328 528.484 49.0781 526.992 51.1875H524.789C525.867 49.6172 526.992 46.4922 526.992 43.6875C526.992 40.8906 525.867 37.7578 524.789 36.2031H526.992C528.484 38.3047 529.391 40.75 529.398 43.6875Z" fill="#333333"/>
<mask id="path-35-inside-9_362_12197" fill="white">
<path d="M368 64H608V112H368V64Z"/>
</mask>
<path d="M608 112V113H609V112H608ZM368 112H367V113H368V112ZM607 64V112H609V64H607ZM608 111H368V113H608V111ZM369 112V64H367V112H369Z" fill="#CCCCCC" mask="url(#path-35-inside-9_362_12197)"/>
<path d="M433.109 83.3438C433.102 85.2812 434.414 87.0547 436.578 87.7656L435.828 88.9375C434.203 88.375 432.992 87.2344 432.359 85.7734C431.734 87.3359 430.5 88.5781 428.844 89.1719L428.094 88.0156C430.273 87.2422 431.586 85.3438 431.594 83.3438V82H433.109V83.3438ZM430.141 91.6094V90.4062H439.625V95.3281H438.141V91.6094H430.141ZM438.141 89.7344V81.3281H439.625V89.7344H438.141ZM446.719 85.4531C446.711 87.6641 448.172 90.1328 450.297 91.1406L449.453 92.2969C447.883 91.5469 446.633 89.9688 446 88.1406C445.359 90.1328 444.047 91.8594 442.453 92.6562L441.578 91.4844C443.703 90.4609 445.242 87.8203 445.25 85.4531V83.9688H442.094V82.7344H449.766V83.9688H446.719V85.4531ZM451.266 95.3281V81.3281H452.75V86.875H455V88.125H452.75V95.3281H451.266ZM467.766 81.3281V95.3281H466.344V88.1406H464.672V94.6406H463.266V81.5938H464.672V86.8906H466.344V81.3281H467.766ZM455.484 91.375C457.531 90.2266 458.484 87.8125 458.484 85.0312V84.125H455.859V82.9219H462.359V84.125H459.922V85.0312C459.922 87.5469 460.867 89.8281 462.906 90.875L462.031 92.0156C460.656 91.2656 459.734 89.9609 459.234 88.3516C458.758 90.1875 457.836 91.6562 456.406 92.5L455.484 91.375ZM474.25 89.6875C474.266 86.7422 475.102 84.2969 476.562 82.2031H478.094C477.016 83.75 475.984 86.8984 475.984 89.6875C475.984 92.4844 477.016 95.6328 478.094 97.1875H476.562C475.102 95.0859 474.266 92.6406 474.25 89.6875ZM490.797 81.3438V91.6562H489.312V86.7969H486.406V85.5625H489.312V81.3438H490.797ZM479.328 88.9062C482.445 87.8984 484.562 86 484.867 83.625H480.047V82.3906H486.5C486.484 86.0469 483.977 88.7969 479.953 90.0938L479.328 88.9062ZM481.781 95.0312V90.5938H483.281V93.8281H491.156V95.0312H481.781ZM496.75 82.375C498.656 82.3828 500.039 83.9922 500.266 86.5781H503.156V81.3281H504.625V95.3594H503.156V87.7812H500.281C500.117 90.5156 498.703 92.2109 496.75 92.2031C494.664 92.2109 493.188 90.3047 493.203 87.2812C493.188 84.2891 494.664 82.3828 496.75 82.375ZM494.609 87.2812C494.617 89.5078 495.484 90.875 496.75 90.875C498.016 90.875 498.883 89.5078 498.891 87.2812C498.883 85.0859 498.016 83.7109 496.75 83.7031C495.484 83.7109 494.617 85.0859 494.609 87.2812ZM509.297 92.9219L508.047 97.2344H506.719L507.547 92.9219H509.297ZM526.453 81.3281V91.7188H524.969V87.8594H522.781V86.6094H524.969V85.1406H522.781V83.9219H524.969V81.3281H526.453ZM514.797 88.4844C515.32 88.4844 515.898 88.4766 516.5 88.4766V83.625H515.188V82.4219H522.625V83.625H521.281V88.3125C521.875 88.2656 522.445 88.2188 523 88.1562L523.062 89.25C520.383 89.6719 517.227 89.7266 514.984 89.7344L514.797 88.4844ZM517.328 95.0312V90.875H518.828V93.8281H526.812V95.0312H517.328ZM517.938 88.4531C518.57 88.4375 519.211 88.4141 519.859 88.3906V83.625H517.938V88.4531ZM533.172 82.3281C535.383 82.3203 536.977 83.6875 536.984 85.6562C536.977 87.625 535.383 88.9922 533.172 89C530.969 88.9922 529.352 87.625 529.359 85.6562C529.352 83.6875 530.969 82.3203 533.172 82.3281ZM528.688 91.1094C531.234 91.1094 534.766 91.0859 537.828 90.6406L537.938 91.7188C534.773 92.3281 531.375 92.3438 528.875 92.3438L528.688 91.1094ZM530.828 85.6562C530.812 86.8984 531.812 87.7031 533.172 87.7031C534.531 87.7031 535.531 86.8984 535.531 85.6562C535.531 84.4297 534.531 83.6094 533.172 83.6094C531.812 83.6094 530.812 84.4297 530.828 85.6562ZM538.703 95.3594V81.3281H540.188V95.3594H538.703ZM546.281 89.6875C546.266 92.6406 545.43 95.0859 543.969 97.1875H542.438C543.516 95.6328 544.547 92.4844 544.547 89.6875C544.547 86.8984 543.516 83.75 542.438 82.2031H543.969C545.43 84.2969 546.266 86.7422 546.281 89.6875Z" fill="#333333"/>
<mask id="path-38-inside-10_362_12197" fill="white">
<path d="M368 112H608V178H368V112Z"/>
</mask>
<path d="M608 178V179H609V178H608ZM368 178H367V179H368V178ZM607 112V178H609V112H607ZM608 177H368V179H608V177ZM369 178V112H367V178H369Z" fill="#CCCCCC" mask="url(#path-38-inside-10_362_12197)"/>
<path d="M461.055 132.312V134.203H466.711V135.422H453.945V134.203H459.586V132.312H461.055ZM454.602 131.875C457.133 131.617 459.117 130.508 459.32 129.156H455.117V127.969H465.57V129.156H461.32C461.531 130.5 463.516 131.617 466.055 131.875L465.523 133.047C463.094 132.766 461.086 131.766 460.32 130.289C459.555 131.766 457.562 132.766 455.133 133.047L454.602 131.875ZM455.461 138.875C455.461 137.305 457.273 136.438 460.32 136.438C463.344 136.438 465.141 137.305 465.148 138.875C465.141 140.438 463.344 141.305 460.32 141.297C457.273 141.305 455.461 140.438 455.461 138.875ZM456.961 138.875C456.953 139.711 458.156 140.172 460.32 140.172C462.453 140.172 463.664 139.711 463.664 138.875C463.664 138.039 462.453 137.586 460.32 137.578C458.156 137.586 456.953 138.039 456.961 138.875ZM478.773 127.328V130.844H480.805V132.094H478.773V135.484H477.289V127.328H478.773ZM467.789 129.891V128.703H471.227V127.203H472.711V128.703H476.133V129.891H467.789ZM468.555 132.922C468.547 131.43 469.922 130.461 471.961 130.469C473.977 130.461 475.352 131.43 475.352 132.922C475.352 134.414 473.977 135.391 471.961 135.375C469.922 135.391 468.547 134.414 468.555 132.922ZM469.82 141.156V136.062H471.289V137.422H477.289V136.062H478.773V141.156H469.82ZM469.992 132.922C469.977 133.758 470.773 134.273 471.961 134.281C473.148 134.273 473.945 133.758 473.961 132.922C473.945 132.102 473.148 131.57 471.961 131.578C470.773 131.57 469.977 132.102 469.992 132.922ZM471.289 139.969H477.289V138.578H471.289V139.969ZM486.695 129.344C486.688 131.281 488 133.055 490.164 133.766L489.414 134.938C487.789 134.375 486.578 133.234 485.945 131.773C485.32 133.336 484.086 134.578 482.43 135.172L481.68 134.016C483.859 133.242 485.172 131.344 485.18 129.344V128H486.695V129.344ZM483.727 137.609V136.406H493.211V141.328H491.727V137.609H483.727ZM491.727 135.734V127.328H493.211V135.734H491.727ZM500.305 131.453C500.297 133.664 501.758 136.133 503.883 137.141L503.039 138.297C501.469 137.547 500.219 135.969 499.586 134.141C498.945 136.133 497.633 137.859 496.039 138.656L495.164 137.484C497.289 136.461 498.828 133.82 498.836 131.453V129.969H495.68V128.734H503.352V129.969H500.305V131.453ZM504.852 141.328V127.328H506.336V132.875H508.586V134.125H506.336V141.328H504.852ZM521.352 127.328V141.328H519.93V134.141H518.258V140.641H516.852V127.594H518.258V132.891H519.93V127.328H521.352ZM509.07 137.375C511.117 136.227 512.07 133.812 512.07 131.031V130.125H509.445V128.922H515.945V130.125H513.508V131.031C513.508 133.547 514.453 135.828 516.492 136.875L515.617 138.016C514.242 137.266 513.32 135.961 512.82 134.352C512.344 136.188 511.422 137.656 509.992 138.5L509.07 137.375ZM392.611 156.227C392.625 153.649 393.356 151.51 394.635 149.678H395.975C395.031 151.031 394.129 153.786 394.129 156.227C394.129 158.674 395.031 161.429 395.975 162.789H394.635C393.356 160.95 392.625 158.811 392.611 156.227ZM406.42 148.912V153.656H408.389V154.723H406.42V161.189H405.121V148.912H406.42ZM397.396 158.141V150.088H403.125V151.141H398.695V157.061C400.753 157.054 402.291 156.965 404.041 156.65L404.205 157.744C402.284 158.086 400.657 158.147 398.381 158.141H397.396ZM418.875 152.221V153.273H415.211V154.75H420.16V155.816H408.977V154.75H413.926V153.273H410.467V149.131H411.752V152.221H418.875ZM410.303 158.906C410.303 157.471 411.896 156.657 414.555 156.65C417.193 156.657 418.772 157.471 418.779 158.906C418.772 160.328 417.193 161.142 414.555 161.135C411.896 161.142 410.303 160.328 410.303 158.906ZM411.615 158.906C411.608 159.679 412.682 160.13 414.555 160.137C416.4 160.13 417.48 159.679 417.48 158.906C417.48 158.1 416.4 157.669 414.555 157.662C412.682 157.669 411.608 158.1 411.615 158.906ZM423.277 159.057L422.184 162.83H421.021L421.746 159.057H423.277ZM432.533 150.676C432.526 152.371 433.675 153.923 435.568 154.545L434.912 155.57C433.49 155.078 432.431 154.08 431.877 152.802C431.33 154.169 430.25 155.256 428.801 155.775L428.145 154.764C430.052 154.087 431.2 152.426 431.207 150.676V149.5H432.533V150.676ZM429.936 157.908V156.855H438.234V161.162H436.936V157.908H429.936ZM436.936 156.268V148.912H438.234V156.268H436.936ZM449.719 148.912V153.793H451.619V154.873H449.719V161.148H448.42V148.912H449.719ZM440.189 157.881C443.259 156.35 444.927 154.135 445.193 151.277H440.805V150.197H446.52C446.506 153.738 444.947 156.903 440.914 158.893L440.189 157.881ZM457.799 156.609C460.451 156.609 462.126 157.45 462.133 158.879C462.126 160.301 460.451 161.142 457.799 161.135C455.174 161.142 453.492 160.301 453.492 158.879C453.492 157.45 455.174 156.609 457.799 156.609ZM452.289 155.598V154.545H456.76V152.248H458.031V154.545H463.432V155.598H452.289ZM453.588 150.553V149.514H462.037V150.539C462.044 151.517 462.044 152.528 461.695 153.793L460.424 153.656C460.752 152.405 460.752 151.503 460.752 150.553H453.588ZM454.791 158.879C454.777 159.672 455.946 160.13 457.799 160.137C459.672 160.13 460.834 159.672 460.848 158.879C460.834 158.072 459.672 157.601 457.799 157.594C455.946 157.601 454.777 158.072 454.791 158.879ZM466.576 159.057L465.482 162.83H464.32L465.045 159.057H466.576ZM481 148.926V152.535H482.777V153.629H481V157.922H479.701V148.926H481ZM471.854 155.898V149.801H473.125V151.756H476.338V149.801H477.623V155.898H471.854ZM473.125 154.859H476.338V152.781H473.125V154.859ZM473.234 160.902V157.033H474.533V159.85H481.52V160.902H473.234ZM487.768 151.783C487.768 153.287 488.875 154.709 490.748 155.27L490.105 156.322C488.711 155.878 487.679 154.955 487.146 153.786C486.605 155.051 485.546 156.049 484.117 156.541L483.461 155.502C485.334 154.907 486.482 153.41 486.482 151.783V151.564H483.816V150.512H486.482V148.994H487.781V150.512H490.434V151.564H487.768V151.783ZM485.334 160.902V157.184H486.633V159.85H493.619V160.902H485.334ZM491.801 157.977V148.898H493.1V152.658H494.877V153.738H493.1V157.977H491.801ZM499.785 149.637L496.6 161.49H495.301L498.486 149.637H499.785ZM506.908 149.678C506.901 152.815 504.687 155.023 501.057 155.98L500.537 154.955C503.483 154.189 505.274 152.651 505.514 150.717H501.221V149.678H506.908ZM502.561 160.998V156.363H510.586V160.998H502.561ZM503.846 159.959H509.314V157.402H503.846V159.959ZM509.287 155.816V148.926H510.586V155.816H509.287ZM522.672 148.912V161.162H521.373V148.912H522.672ZM512.705 157.812C514.599 156.965 515.856 154.9 515.863 152.85V152.043H513.074V151.004H515.85V149.158H517.135V151.004H519.883V152.043H517.135V152.85C517.142 154.805 518.427 156.801 520.334 157.607L519.623 158.605C518.208 157.99 517.087 156.712 516.52 155.167C515.966 156.808 514.852 158.168 513.43 158.811L512.705 157.812ZM535.824 156.186V157.211H533.008V161.162H531.695V157.211H528.742V161.162H527.443V157.211H524.613V156.186H535.824ZM525.939 150.416V149.35H534.498V152.631H527.279V153.984H534.758V155.037H525.98V151.66H533.172V150.416H525.939ZM538.928 159.057L537.834 162.83H536.672L537.396 159.057H538.928ZM554.896 154.75V155.803H552.012V157.225H553.529V161.162H552.217V158.25H544.971V157.225H546.584V155.803H543.727V154.75H554.896ZM544.93 151.551C544.923 150.067 546.625 149.179 549.305 149.186C551.978 149.179 553.673 150.067 553.68 151.551C553.673 153.027 551.978 153.923 549.305 153.916C546.625 153.923 544.923 153.027 544.93 151.551ZM546.27 151.551C546.263 152.405 547.418 152.904 549.305 152.904C551.178 152.904 552.347 152.405 552.34 151.551C552.347 150.703 551.178 150.204 549.305 150.211C547.418 150.204 546.263 150.703 546.27 151.551ZM547.883 157.225H550.74V155.803H547.883V157.225ZM565.369 148.912V153.793H567.27V154.873H565.369V161.148H564.07V148.912H565.369ZM555.84 157.881C558.909 156.35 560.577 154.135 560.844 151.277H556.455V150.197H562.17C562.156 153.738 560.598 156.903 556.564 158.893L555.84 157.881ZM573.449 156.609C576.102 156.609 577.776 157.45 577.783 158.879C577.776 160.301 576.102 161.142 573.449 161.135C570.824 161.142 569.143 160.301 569.143 158.879C569.143 157.45 570.824 156.609 573.449 156.609ZM567.939 155.598V154.545H572.41V152.248H573.682V154.545H579.082V155.598H567.939ZM569.238 150.553V149.514H577.688V150.539C577.694 151.517 577.694 152.528 577.346 153.793L576.074 153.656C576.402 152.405 576.402 151.503 576.402 150.553H569.238ZM570.441 158.879C570.428 159.672 571.597 160.13 573.449 160.137C575.322 160.13 576.484 159.672 576.498 158.879C576.484 158.072 575.322 157.601 573.449 157.594C571.597 157.601 570.428 158.072 570.441 158.879ZM583.389 156.227C583.375 158.811 582.644 160.95 581.365 162.789H580.025C580.969 161.429 581.871 158.674 581.871 156.227C581.871 153.786 580.969 151.031 580.025 149.678H581.365C582.644 151.51 583.375 153.649 583.389 156.227Z" fill="#333333"/>
<mask id="path-41-inside-11_362_12197" fill="white">
<path d="M368 178H488V226H368V178Z"/>
</mask>
<path d="M369 226V178H367V226H369Z" fill="#CCCCCC" mask="url(#path-41-inside-11_362_12197)"/>
<path d="M407.688 196.562C407.68 198.422 409.953 200.164 412.703 200.531L412.125 201.75C409.836 201.383 407.828 200.195 406.914 198.547C406 200.195 403.992 201.383 401.719 201.75L401.125 200.531C403.867 200.164 406.133 198.445 406.141 196.562V195.797H407.688V196.562ZM400.516 204.344V203.125H413.281V204.344H407.594V209.328H406.141V204.344H400.516ZM419.203 197.891C419.203 199.766 420.508 201.531 422.641 202.25L421.875 203.422C420.305 202.875 419.133 201.758 418.516 200.344C417.906 201.922 416.703 203.141 415.062 203.75L414.234 202.578C416.453 201.82 417.727 199.93 417.734 197.844V196.188H419.203V197.891ZM416.484 209.031V204.641H418V207.828H425.953V209.031H416.484ZM423.859 205.641V195.312H425.344V199.531H427.375V200.797H425.344V205.641H423.859ZM433.312 198.891C433.297 201.445 434.844 204.023 437.016 204.984L436.125 206.156C434.516 205.391 433.242 203.82 432.586 201.906C431.938 203.961 430.648 205.648 428.969 206.469L428.062 205.219C430.266 204.242 431.812 201.562 431.812 198.891V196.5H433.312V198.891ZM438.281 209.359V195.328H439.766V209.359H438.281ZM446.891 197.906C446.883 199.688 448.125 201.312 450.25 201.984L449.547 203.141C447.953 202.633 446.789 201.578 446.172 200.25C445.562 201.781 444.336 202.992 442.656 203.578L441.891 202.391C444.078 201.672 445.398 199.867 445.406 197.922V197.531H442.328V196.328H449.906V197.531H446.891V197.906ZM443.781 206.672C443.781 205.031 445.57 204.07 448.484 204.078C451.367 204.07 453.125 205.031 453.125 206.672C453.125 208.336 451.367 209.305 448.484 209.297C445.57 209.305 443.781 208.336 443.781 206.672ZM445.266 206.672C445.258 207.609 446.461 208.133 448.484 208.125C450.492 208.133 451.68 207.609 451.672 206.672C451.68 205.758 450.492 205.242 448.484 205.25C446.461 205.242 445.258 205.758 445.266 206.672ZM451.516 203.734V195.328H453V198.797H455.031V200.016H453V203.734H451.516Z" fill="#333333"/>
<mask id="path-44-inside-12_362_12197" fill="white">
<path d="M488 178H608V226H488V178Z"/>
</mask>
<path d="M607 178V226H609V178H607Z" fill="#CCCCCC" mask="url(#path-44-inside-12_362_12197)"/>
<path d="M533.281 202.328V203.516H527.625V204.984H531.719V209.297H530.219V206.188H521.938V204.984H526.156V203.516H520.516V202.328H533.281ZM521.203 200.516C523.984 200.258 525.906 199.242 526.07 197.844H521.797V196.672H526.156V195.281H527.625V196.672H532V197.844H527.711C527.859 199.242 529.773 200.258 532.578 200.516L532.109 201.625C529.695 201.406 527.75 200.602 526.891 199.281C526.023 200.602 524.07 201.406 521.672 201.625L521.203 200.516ZM539.203 197.891C539.203 199.766 540.508 201.531 542.641 202.25L541.875 203.422C540.305 202.875 539.133 201.758 538.516 200.344C537.906 201.922 536.703 203.141 535.062 203.75L534.234 202.578C536.453 201.82 537.727 199.93 537.734 197.844V196.188H539.203V197.891ZM536.484 209.031V204.641H538V207.828H545.953V209.031H536.484ZM543.859 205.641V195.312H545.344V199.531H547.375V200.797H545.344V205.641H543.859ZM553.312 198.891C553.297 201.445 554.844 204.023 557.016 204.984L556.125 206.156C554.516 205.391 553.242 203.82 552.586 201.906C551.938 203.961 550.648 205.648 548.969 206.469L548.062 205.219C550.266 204.242 551.812 201.562 551.812 198.891V196.5H553.312V198.891ZM558.281 209.359V195.328H559.766V209.359H558.281ZM566.891 197.906C566.883 199.688 568.125 201.312 570.25 201.984L569.547 203.141C567.953 202.633 566.789 201.578 566.172 200.25C565.562 201.781 564.336 202.992 562.656 203.578L561.891 202.391C564.078 201.672 565.398 199.867 565.406 197.922V197.531H562.328V196.328H569.906V197.531H566.891V197.906ZM563.781 206.672C563.781 205.031 565.57 204.07 568.484 204.078C571.367 204.07 573.125 205.031 573.125 206.672C573.125 208.336 571.367 209.305 568.484 209.297C565.57 209.305 563.781 208.336 563.781 206.672ZM565.266 206.672C565.258 207.609 566.461 208.133 568.484 208.125C570.492 208.133 571.68 207.609 571.672 206.672C571.68 205.758 570.492 205.242 568.484 205.25C566.461 205.242 565.258 205.758 565.266 206.672ZM571.516 203.734V195.328H573V198.797H575.031V200.016H573V203.734H571.516Z" fill="#333333"/>
<path d="M616.5 20C616.5 9.23045 625.23 0.5 636 0.5H752C762.77 0.5 771.5 9.23045 771.5 20V63.5H616.5V20Z" stroke="#CCCCCC"/>
<path d="M665.562 16.7969V18.3594H662.141V20.625H665V22.1406H662.141V24.6953C663.664 24.6719 664.781 24.5938 666.109 24.375L666.281 25.9844C664.648 26.2812 663.289 26.2969 661.203 26.2969H660.25V16.7969H665.562ZM665.672 22V20.4062H667.266V15.4688H669.125V28.7969H667.266V22H665.672ZM670.219 29.4375V15.2188H672.141V29.4375H670.219ZM680.922 16.5625V25.9688H674.094V16.5625H680.922ZM676.062 24.3906H678.938V18.125H676.062V24.3906ZM682.859 29.4375V15.2188H684.859V20.5781H686.953V22.2344H684.859V29.4375H682.859ZM700.469 21.9375V23.5H687.469V21.9375H693V20.7188H689.047V15.8438H698.906V17.3906H691.031V19.1562H698.984V20.7188H694.953V21.9375H700.469ZM688.953 26.8438C688.953 25.1562 690.828 24.2188 693.938 24.2188C697.023 24.2188 698.875 25.1562 698.891 26.8438C698.875 28.5078 697.023 29.4531 693.938 29.4531C690.828 29.4531 688.953 28.5078 688.953 26.8438ZM690.984 26.8438C690.977 27.5859 691.969 27.9375 693.938 27.9375C695.867 27.9375 696.883 27.5859 696.891 26.8438C696.883 26.1094 695.867 25.7344 693.938 25.7344C691.969 25.7344 690.977 26.1094 690.984 26.8438ZM709.641 28.1562C707.156 28.1562 705.375 26.7891 705.328 24.8125H707.703C707.742 25.6562 708.562 26.2109 709.656 26.2188C710.781 26.2109 711.586 25.5859 711.578 24.6719C711.586 23.75 710.766 23.1016 709.438 23.0938H708.391V21.3594H709.438C710.555 21.3594 711.336 20.75 711.328 19.8594C711.336 18.9922 710.672 18.3984 709.672 18.4062C708.672 18.3984 707.852 18.9609 707.812 19.8281H705.562C705.602 17.8828 707.352 16.5312 709.672 16.5312C712.031 16.5312 713.602 17.9297 713.594 19.7188C713.602 20.9844 712.719 21.8828 711.453 22.1094V22.2031C713.117 22.4062 714.031 23.4141 714.016 24.8281C714.031 26.7656 712.195 28.1562 709.641 28.1562ZM723.172 16.25V17.1406C723.172 18.125 723.172 19.5469 722.844 21.3125L720.891 21.125C721.148 19.7656 721.211 18.7266 721.227 17.875H715.859V16.25H723.172ZM715.016 22.3438C715.812 22.3438 716.711 22.3438 717.656 22.3203V19.5312H719.641V22.2578C721.062 22.1953 722.508 22.0859 723.844 21.8906L723.953 23.3281C720.992 23.875 717.664 23.9297 715.188 23.9375L715.016 22.3438ZM717.109 29.1875V24.9062H719.109V27.5938H727.094V29.1875H717.109ZM724.609 25.8594V15.2188H726.656V19.5469H728.375V21.2188H726.656V25.8594H724.609Z" fill="#E46C0B"/>
<path d="M659.688 48V36.6875H667.141V38.625H662.031V41.375H666.656V43.3125H662.031V48H659.688ZM672.094 48.1719C669.75 48.1641 668.312 46.7812 668.312 45C668.312 43.6797 669.148 42.8828 670.383 42.0312C669.789 41.2734 669.297 40.4375 669.297 39.4375C669.297 37.7969 670.523 36.5391 672.375 36.5312C674.188 36.5391 675.305 37.7578 675.297 39.1875C675.305 40.2578 674.75 41.1172 673.797 41.7969L673.133 42.2812L675.023 44.4531C675.32 43.8984 675.5 43.2344 675.5 42.5H677.422C677.43 44.0312 677.031 45.2188 676.406 46.0469L678.109 48H675.688L674.992 47.2188C674.164 47.8828 673.086 48.1641 672.094 48.1719ZM670.562 44.875C670.562 45.6875 671.203 46.3047 672.203 46.2969C672.727 46.2969 673.258 46.1328 673.742 45.8281L671.578 43.4141L671.5 43.4688C670.859 43.9297 670.562 44.4375 670.562 44.875ZM671.281 39.4688C671.289 39.9375 671.586 40.4141 672.016 40.9609L672.609 40.5625C673.18 40.2031 673.445 39.8047 673.438 39.3125C673.445 38.875 673.055 38.3984 672.391 38.4062C671.727 38.4062 671.289 38.8906 671.281 39.4688ZM679.062 48V36.6875H683.562C686.055 36.6875 687.32 37.8906 687.312 39.5938C687.32 40.9219 686.445 41.7578 685.281 42.0156V42.125C686.555 42.1875 687.758 43.2031 687.766 44.875C687.758 46.6719 686.414 48 683.859 48H679.062ZM681.406 46.0625H683.391C684.75 46.0703 685.336 45.5078 685.328 44.6562C685.336 43.7031 684.609 43.0312 683.453 43.0312H681.406V46.0625ZM681.406 41.4219H683.219C684.203 41.4297 684.945 40.875 684.938 39.9688C684.945 39.1484 684.336 38.5938 683.266 38.5938H681.406V41.4219ZM697.781 36.1562L694.125 49.7031H692.141L695.781 36.1562H697.781ZM714.016 35.2188V45.6875H712.031V42.1875H710.219V40.5469H712.031V39.3125H710.219V37.7188H712.031V35.2188H714.016ZM702.031 42.3438C702.5 42.3438 703.016 42.3438 703.547 42.3359V37.8281H702.391V36.2344H709.969V37.8281H708.797V42.1484C709.273 42.1094 709.742 42.0625 710.188 42.0156L710.266 43.4688C707.602 43.9062 704.492 43.9688 702.234 43.9688L702.031 42.3438ZM704.562 49.1875V44.9062H706.562V47.5938H714.359V49.1875H704.562ZM705.469 42.3047L706.891 42.2578V37.8281H705.469V42.3047ZM720.469 36.1719C722.727 36.1641 724.398 37.6172 724.406 39.6562C724.398 41.7031 722.727 43.1484 720.469 43.1562C718.227 43.1484 716.508 41.7031 716.516 39.6562C716.508 37.6172 718.227 36.1641 720.469 36.1719ZM715.922 44.9375C718.461 44.9453 721.977 44.9141 725.016 44.4844L725.172 45.9219C722.016 46.5391 718.641 46.5625 716.156 46.5625L715.922 44.9375ZM718.5 39.6562C718.492 40.7812 719.344 41.4297 720.469 41.4219C721.602 41.4297 722.461 40.7812 722.469 39.6562C722.461 38.5469 721.602 37.8906 720.469 37.8906C719.344 37.8906 718.492 38.5469 718.5 39.6562ZM725.828 49.4688V35.2188H727.812V49.4688H725.828Z" fill="#333333"/>
<mask id="path-49-inside-13_362_12197" fill="white">
<path d="M616 64H772V112H616V64Z"/>
</mask>
<path d="M772 112V113H773V112H772ZM616 112H615V113H616V112ZM771 64V112H773V64H771ZM772 111H616V113H772V111ZM617 112V64H615V112H617Z" fill="#CCCCCC" mask="url(#path-49-inside-13_362_12197)"/>
<path d="M664.594 81.3281V95.3281H663.109V81.3281H664.594ZM653.094 91.5156C654.25 91.5078 655.562 91.5 656.938 91.4688V90.0625C655.305 89.8438 654.242 88.8828 654.25 87.5156C654.242 85.9375 655.617 84.8984 657.641 84.8906C659.688 84.8984 661.086 85.9375 661.094 87.5156C661.086 88.8672 660.031 89.8203 658.406 90.0547V91.4141C659.703 91.3516 661.016 91.2578 662.25 91.0938L662.359 92.2031C659.25 92.7188 655.859 92.7578 653.297 92.75L653.094 91.5156ZM653.391 84.1875V83H656.938V81.3594H658.422V83H661.938V84.1875H653.391ZM655.656 87.5156C655.641 88.4062 656.469 88.9609 657.641 88.9531C658.852 88.9609 659.672 88.4062 659.672 87.5156C659.672 86.6172 658.852 86.0469 657.641 86.0469C656.469 86.0469 655.641 86.6172 655.656 87.5156ZM679.828 83.3125V84.5312H677.844V86.3125H679.828V87.5469H677.844V89.5938H676.359V81.3281H677.844V83.3125H679.828ZM667.062 85.4688C667.047 83.5 668.641 82.1406 670.781 82.1406C672.93 82.1406 674.5 83.5 674.516 85.4688C674.5 87.4219 672.93 88.7891 670.781 88.7969C668.641 88.7891 667.047 87.4219 667.062 85.4688ZM668.516 85.4688C668.5 86.7109 669.469 87.5312 670.781 87.5469C672.094 87.5312 673.055 86.7109 673.062 85.4688C673.055 84.2344 672.094 83.3828 670.781 83.3906C669.469 83.3828 668.5 84.2344 668.516 85.4688ZM668.625 92.6406C668.625 90.9609 670.438 89.9766 673.328 89.9688C676.188 89.9766 677.969 90.9609 677.969 92.6406C677.969 94.3125 676.188 95.3047 673.328 95.2969C670.438 95.3047 668.625 94.3125 668.625 92.6406ZM670.109 92.6406C670.102 93.5938 671.305 94.1172 673.328 94.1094C675.336 94.1172 676.523 93.5938 676.516 92.6406C676.523 91.7031 675.336 91.1641 673.328 91.1719C671.305 91.1641 670.102 91.7031 670.109 92.6406ZM683 82V87.7812C685.008 87.7656 686.641 87.6719 688.484 87.3438L688.641 88.5312C686.625 88.9141 684.859 89.0078 682.578 89.0156H681.5V82H683ZM683.203 95.1562V90.1562H692.344V95.1562H683.203ZM684.656 93.9531H690.875V91.3281H684.656V93.9531ZM687.047 86.4219V85.2812H690.859V83.9531H687.047V82.8125H690.859V81.3281H692.344V89.5469H690.859V86.4219H687.047ZM703.219 82.1562L699.578 95.7031H698.094L701.734 82.1562H703.219ZM715.141 82.75C715.125 86.8828 713.859 90.5469 708.75 93.0625L707.938 91.9531C710.469 90.7109 711.977 89.2031 712.805 87.4297L708.234 87.8594L708.016 86.5781L713.266 86.2266C713.477 85.5078 713.594 84.75 713.648 83.9531H708.75V82.75H715.141ZM717.281 95.3125V81.3281H718.766V86.9219H720.938V88.1406H718.766V95.3125H717.281ZM733.797 81.3281V95.3281H732.375V81.3281H733.797ZM721.531 90.7031C721.938 90.7031 722.406 90.7031 722.906 90.6953V84.2656H721.828V83.0469H728.25V84.2656H727.172V90.5234C727.648 90.4844 728.109 90.4297 728.531 90.375L728.641 91.4531C726.422 91.8906 723.516 91.9531 721.703 91.9531L721.531 90.7031ZM724.25 90.6719C724.758 90.6641 725.281 90.6406 725.797 90.6172V84.2656H724.25V90.6719ZM727.875 87.9062V86.5781H729.625V81.6406H731.031V94.6094H729.625V87.9062H727.875Z" fill="#333333"/>
<mask id="path-52-inside-14_362_12197" fill="white">
<path d="M616 112H772V178H616V112Z"/>
</mask>
<path d="M772 178V179H773V178H772ZM616 178H615V179H616V178ZM771 112V178H773V112H771ZM772 177H616V179H772V177ZM617 178V112H615V178H617Z" fill="#CCCCCC" mask="url(#path-52-inside-14_362_12197)"/>
<path d="M660.156 151V139.688H667.172V141.172H661.875V144.594H666.672V146.062H661.875V151H660.156ZM672.25 151.156C669.977 151.156 668.578 149.812 668.578 148C668.578 146.641 669.469 145.812 670.766 144.93C670.047 144.055 669.523 143.258 669.516 142.25C669.523 140.68 670.648 139.562 672.375 139.562C674.117 139.562 675.188 140.703 675.188 142.031C675.188 143.109 674.625 143.898 673.688 144.578L672.906 145.148L675.172 147.852C675.461 147.289 675.641 146.617 675.641 145.859H677.141C677.141 147.43 676.688 148.438 676.195 149.078L677.812 151H675.938L675.172 150.102C674.398 150.82 673.273 151.156 672.25 151.156ZM670.25 147.953C670.242 148.922 671.039 149.75 672.266 149.75C672.953 149.75 673.656 149.484 674.234 149.008L671.703 146.039L671.422 146.25C670.531 146.906 670.242 147.594 670.25 147.953ZM671.078 142.266C671.078 142.844 671.484 143.422 672 144.055L672.688 143.562C673.305 143.156 673.672 142.742 673.672 142.078C673.672 141.547 673.172 140.953 672.406 140.953C671.625 140.961 671.078 141.617 671.078 142.266ZM679.047 151V139.688H683.188C685.602 139.688 686.766 140.977 686.766 142.656C686.766 144.07 685.898 144.781 684.859 145.047V145.156C685.984 145.219 687.203 146.203 687.203 147.953C687.203 149.688 686.016 151 683.375 151H679.047ZM680.766 149.531H683.219C684.844 149.523 685.5 148.812 685.5 147.875C685.5 146.789 684.641 145.922 683.281 145.922H680.766V149.531ZM680.766 144.578H683.047C684.188 144.57 685.078 143.883 685.078 142.797C685.078 141.859 684.43 141.156 683.078 141.156H680.766V144.578ZM697.125 139.156L693.484 152.703H692L695.641 139.156H697.125ZM713.438 138.328V148.719H711.953V144.859H709.766V143.609H711.953V142.141H709.766V140.922H711.953V138.328H713.438ZM701.781 145.484C702.305 145.484 702.883 145.477 703.484 145.477V140.625H702.172V139.422H709.609V140.625H708.266V145.312C708.859 145.266 709.43 145.219 709.984 145.156L710.047 146.25C707.367 146.672 704.211 146.727 701.969 146.734L701.781 145.484ZM704.312 152.031V147.875H705.812V150.828H713.797V152.031H704.312ZM704.922 145.453C705.555 145.438 706.195 145.414 706.844 145.391V140.625H704.922V145.453ZM720.156 139.328C722.367 139.32 723.961 140.688 723.969 142.656C723.961 144.625 722.367 145.992 720.156 146C717.953 145.992 716.336 144.625 716.344 142.656C716.336 140.688 717.953 139.32 720.156 139.328ZM715.672 148.109C718.219 148.109 721.75 148.086 724.812 147.641L724.922 148.719C721.758 149.328 718.359 149.344 715.859 149.344L715.672 148.109ZM717.812 142.656C717.797 143.898 718.797 144.703 720.156 144.703C721.516 144.703 722.516 143.898 722.516 142.656C722.516 141.43 721.516 140.609 720.156 140.609C718.797 140.609 717.797 141.43 717.812 142.656ZM725.688 152.359V138.328H727.172V152.359H725.688Z" fill="#333333"/>
<mask id="path-55-inside-15_362_12197" fill="white">
<path d="M616 178H772V226H616V178Z"/>
</mask>
<path d="M771 178V226H773V178H771ZM617 226V178H615V226H617Z" fill="#CCCCCC" mask="url(#path-55-inside-15_362_12197)"/>
<path d="M660.156 208V196.688H667.172V198.172H661.875V201.594H666.672V203.062H661.875V208H660.156ZM672.25 208.156C669.977 208.156 668.578 206.812 668.578 205C668.578 203.641 669.469 202.812 670.766 201.93C670.047 201.055 669.523 200.258 669.516 199.25C669.523 197.68 670.648 196.562 672.375 196.562C674.117 196.562 675.188 197.703 675.188 199.031C675.188 200.109 674.625 200.898 673.688 201.578L672.906 202.148L675.172 204.852C675.461 204.289 675.641 203.617 675.641 202.859H677.141C677.141 204.43 676.688 205.438 676.195 206.078L677.812 208H675.938L675.172 207.102C674.398 207.82 673.273 208.156 672.25 208.156ZM670.25 204.953C670.242 205.922 671.039 206.75 672.266 206.75C672.953 206.75 673.656 206.484 674.234 206.008L671.703 203.039L671.422 203.25C670.531 203.906 670.242 204.594 670.25 204.953ZM671.078 199.266C671.078 199.844 671.484 200.422 672 201.055L672.688 200.562C673.305 200.156 673.672 199.742 673.672 199.078C673.672 198.547 673.172 197.953 672.406 197.953C671.625 197.961 671.078 198.617 671.078 199.266ZM679.047 208V196.688H683.188C685.602 196.688 686.766 197.977 686.766 199.656C686.766 201.07 685.898 201.781 684.859 202.047V202.156C685.984 202.219 687.203 203.203 687.203 204.953C687.203 206.688 686.016 208 683.375 208H679.047ZM680.766 206.531H683.219C684.844 206.523 685.5 205.812 685.5 204.875C685.5 203.789 684.641 202.922 683.281 202.922H680.766V206.531ZM680.766 201.578H683.047C684.188 201.57 685.078 200.883 685.078 199.797C685.078 198.859 684.43 198.156 683.078 198.156H680.766V201.578ZM697.125 196.156L693.484 209.703H692L695.641 196.156H697.125ZM713.438 195.328V205.719H711.953V201.859H709.766V200.609H711.953V199.141H709.766V197.922H711.953V195.328H713.438ZM701.781 202.484C702.305 202.484 702.883 202.477 703.484 202.477V197.625H702.172V196.422H709.609V197.625H708.266V202.312C708.859 202.266 709.43 202.219 709.984 202.156L710.047 203.25C707.367 203.672 704.211 203.727 701.969 203.734L701.781 202.484ZM704.312 209.031V204.875H705.812V207.828H713.797V209.031H704.312ZM704.922 202.453C705.555 202.438 706.195 202.414 706.844 202.391V197.625H704.922V202.453ZM720.156 196.328C722.367 196.32 723.961 197.688 723.969 199.656C723.961 201.625 722.367 202.992 720.156 203C717.953 202.992 716.336 201.625 716.344 199.656C716.336 197.688 717.953 196.32 720.156 196.328ZM715.672 205.109C718.219 205.109 721.75 205.086 724.812 204.641L724.922 205.719C721.758 206.328 718.359 206.344 715.859 206.344L715.672 205.109ZM717.812 199.656C717.797 200.898 718.797 201.703 720.156 201.703C721.516 201.703 722.516 200.898 722.516 199.656C722.516 198.43 721.516 197.609 720.156 197.609C718.797 197.609 717.797 198.43 717.812 199.656ZM725.688 209.359V195.328H727.172V209.359H725.688Z" fill="#333333"/>
<path d="M780.5 20C780.5 9.23045 789.23 0.5 800 0.5H916C926.77 0.5 935.5 9.23045 935.5 20V63.5H780.5V20Z" stroke="#CCCCCC"/>
<path d="M829.789 16.7969V18.3594H826.367V20.625H829.227V22.1406H826.367V24.6953C827.891 24.6719 829.008 24.5938 830.336 24.375L830.508 25.9844C828.875 26.2812 827.516 26.2969 825.43 26.2969H824.477V16.7969H829.789ZM829.898 22V20.4062H831.492V15.4688H833.352V28.7969H831.492V22H829.898ZM834.445 29.4375V15.2188H836.367V29.4375H834.445ZM845.148 16.5625V25.9688H838.32V16.5625H845.148ZM840.289 24.3906H843.164V18.125H840.289V24.3906ZM847.086 29.4375V15.2188H849.086V20.5781H851.18V22.2344H849.086V29.4375H847.086ZM864.695 21.9375V23.5H851.695V21.9375H857.227V20.7188H853.273V15.8438H863.133V17.3906H855.258V19.1562H863.211V20.7188H859.18V21.9375H864.695ZM853.18 26.8438C853.18 25.1562 855.055 24.2188 858.164 24.2188C861.25 24.2188 863.102 25.1562 863.117 26.8438C863.102 28.5078 861.25 29.4531 858.164 29.4531C855.055 29.4531 853.18 28.5078 853.18 26.8438ZM855.211 26.8438C855.203 27.5859 856.195 27.9375 858.164 27.9375C860.094 27.9375 861.109 27.5859 861.117 26.8438C861.109 26.1094 860.094 25.7344 858.164 25.7344C856.195 25.7344 855.203 26.1094 855.211 26.8438ZM869.68 28L869.664 26.2969L873.727 22.5625C874.781 21.5547 875.352 20.9297 875.352 20.0312C875.352 19.0234 874.594 18.3984 873.555 18.4062C872.492 18.3984 871.797 19.0703 871.805 20.1562H869.57C869.562 17.9453 871.203 16.5312 873.586 16.5312C876.008 16.5312 877.617 17.9141 877.617 19.875C877.617 21.1641 876.992 22.2188 874.664 24.3281L872.945 26V26.0625H877.773V28H869.68ZM886.945 16.25V17.1406C886.945 18.125 886.945 19.5469 886.617 21.3125L884.664 21.125C884.922 19.7656 884.984 18.7266 885 17.875H879.633V16.25H886.945ZM878.789 22.3438C879.586 22.3438 880.484 22.3438 881.43 22.3203V19.5312H883.414V22.2578C884.836 22.1953 886.281 22.0859 887.617 21.8906L887.727 23.3281C884.766 23.875 881.438 23.9297 878.961 23.9375L878.789 22.3438ZM880.883 29.1875V24.9062H882.883V27.5938H890.867V29.1875H880.883ZM888.383 25.8594V15.2188H890.43V19.5469H892.148V21.2188H890.43V25.8594H888.383Z" fill="#E46C0B"/>
<path d="M823.688 48V36.6875H831.141V38.625H826.031V41.375H830.656V43.3125H826.031V48H823.688ZM836.094 48.1719C833.75 48.1641 832.312 46.7812 832.312 45C832.312 43.6797 833.148 42.8828 834.383 42.0312C833.789 41.2734 833.297 40.4375 833.297 39.4375C833.297 37.7969 834.523 36.5391 836.375 36.5312C838.188 36.5391 839.305 37.7578 839.297 39.1875C839.305 40.2578 838.75 41.1172 837.797 41.7969L837.133 42.2812L839.023 44.4531C839.32 43.8984 839.5 43.2344 839.5 42.5H841.422C841.43 44.0312 841.031 45.2188 840.406 46.0469L842.109 48H839.688L838.992 47.2188C838.164 47.8828 837.086 48.1641 836.094 48.1719ZM834.562 44.875C834.562 45.6875 835.203 46.3047 836.203 46.2969C836.727 46.2969 837.258 46.1328 837.742 45.8281L835.578 43.4141L835.5 43.4688C834.859 43.9297 834.562 44.4375 834.562 44.875ZM835.281 39.4688C835.289 39.9375 835.586 40.4141 836.016 40.9609L836.609 40.5625C837.18 40.2031 837.445 39.8047 837.438 39.3125C837.445 38.875 837.055 38.3984 836.391 38.4062C835.727 38.4062 835.289 38.8906 835.281 39.4688ZM843.062 48V36.6875H847.562C850.055 36.6875 851.32 37.8906 851.312 39.5938C851.32 40.9219 850.445 41.7578 849.281 42.0156V42.125C850.555 42.1875 851.758 43.2031 851.766 44.875C851.758 46.6719 850.414 48 847.859 48H843.062ZM845.406 46.0625H847.391C848.75 46.0703 849.336 45.5078 849.328 44.6562C849.336 43.7031 848.609 43.0312 847.453 43.0312H845.406V46.0625ZM845.406 41.4219H847.219C848.203 41.4297 848.945 40.875 848.938 39.9688C848.945 39.1484 848.336 38.5938 847.266 38.5938H845.406V41.4219ZM861.781 36.1562L858.125 49.7031H856.141L859.781 36.1562H861.781ZM878.016 35.2188V45.6875H876.031V42.1875H874.219V40.5469H876.031V39.3125H874.219V37.7188H876.031V35.2188H878.016ZM866.031 42.3438C866.5 42.3438 867.016 42.3438 867.547 42.3359V37.8281H866.391V36.2344H873.969V37.8281H872.797V42.1484C873.273 42.1094 873.742 42.0625 874.188 42.0156L874.266 43.4688C871.602 43.9062 868.492 43.9688 866.234 43.9688L866.031 42.3438ZM868.562 49.1875V44.9062H870.562V47.5938H878.359V49.1875H868.562ZM869.469 42.3047L870.891 42.2578V37.8281H869.469V42.3047ZM884.469 36.1719C886.727 36.1641 888.398 37.6172 888.406 39.6562C888.398 41.7031 886.727 43.1484 884.469 43.1562C882.227 43.1484 880.508 41.7031 880.516 39.6562C880.508 37.6172 882.227 36.1641 884.469 36.1719ZM879.922 44.9375C882.461 44.9453 885.977 44.9141 889.016 44.4844L889.172 45.9219C886.016 46.5391 882.641 46.5625 880.156 46.5625L879.922 44.9375ZM882.5 39.6562C882.492 40.7812 883.344 41.4297 884.469 41.4219C885.602 41.4297 886.461 40.7812 886.469 39.6562C886.461 38.5469 885.602 37.8906 884.469 37.8906C883.344 37.8906 882.492 38.5469 882.5 39.6562ZM889.828 49.4688V35.2188H891.812V49.4688H889.828Z" fill="#333333"/>
<mask id="path-60-inside-16_362_12197" fill="white">
<path d="M780 64H936V112H780V64Z"/>
</mask>
<path d="M936 112V113H937V112H936ZM780 112H779V113H780V112ZM935 64V112H937V64H935ZM936 111H780V113H936V111ZM781 112V64H779V112H781Z" fill="#CCCCCC" mask="url(#path-60-inside-16_362_12197)"/>
<path d="M801.094 81.3281V95.3281H799.609V81.3281H801.094ZM789.594 91.5156C790.75 91.5078 792.062 91.5 793.438 91.4688V90.0625C791.805 89.8438 790.742 88.8828 790.75 87.5156C790.742 85.9375 792.117 84.8984 794.141 84.8906C796.188 84.8984 797.586 85.9375 797.594 87.5156C797.586 88.8672 796.531 89.8203 794.906 90.0547V91.4141C796.203 91.3516 797.516 91.2578 798.75 91.0938L798.859 92.2031C795.75 92.7188 792.359 92.7578 789.797 92.75L789.594 91.5156ZM789.891 84.1875V83H793.438V81.3594H794.922V83H798.438V84.1875H789.891ZM792.156 87.5156C792.141 88.4062 792.969 88.9609 794.141 88.9531C795.352 88.9609 796.172 88.4062 796.172 87.5156C796.172 86.6172 795.352 86.0469 794.141 86.0469C792.969 86.0469 792.141 86.6172 792.156 87.5156ZM816.328 83.3125V84.5312H814.344V86.3125H816.328V87.5469H814.344V89.5938H812.859V81.3281H814.344V83.3125H816.328ZM803.562 85.4688C803.547 83.5 805.141 82.1406 807.281 82.1406C809.43 82.1406 811 83.5 811.016 85.4688C811 87.4219 809.43 88.7891 807.281 88.7969C805.141 88.7891 803.547 87.4219 803.562 85.4688ZM805.016 85.4688C805 86.7109 805.969 87.5312 807.281 87.5469C808.594 87.5312 809.555 86.7109 809.562 85.4688C809.555 84.2344 808.594 83.3828 807.281 83.3906C805.969 83.3828 805 84.2344 805.016 85.4688ZM805.125 92.6406C805.125 90.9609 806.938 89.9766 809.828 89.9688C812.688 89.9766 814.469 90.9609 814.469 92.6406C814.469 94.3125 812.688 95.3047 809.828 95.2969C806.938 95.3047 805.125 94.3125 805.125 92.6406ZM806.609 92.6406C806.602 93.5938 807.805 94.1172 809.828 94.1094C811.836 94.1172 813.023 93.5938 813.016 92.6406C813.023 91.7031 811.836 91.1641 809.828 91.1719C807.805 91.1641 806.602 91.7031 806.609 92.6406ZM819.5 82V87.7812C821.508 87.7656 823.141 87.6719 824.984 87.3438L825.141 88.5312C823.125 88.9141 821.359 89.0078 819.078 89.0156H818V82H819.5ZM819.703 95.1562V90.1562H828.844V95.1562H819.703ZM821.156 93.9531H827.375V91.3281H821.156V93.9531ZM823.547 86.4219V85.2812H827.359V83.9531H823.547V82.8125H827.359V81.3281H828.844V89.5469H827.359V86.4219H823.547ZM839.719 82.1562L836.078 95.7031H834.594L838.234 82.1562H839.719ZM848.109 82.375C850.203 82.3828 851.695 84.2891 851.703 87.2812C851.695 90.3047 850.203 92.2109 848.109 92.2031C846.016 92.2109 844.523 90.3047 844.531 87.2812C844.523 84.2891 846.016 82.3828 848.109 82.375ZM845.953 87.2812C845.945 89.5078 846.836 90.875 848.109 90.875C849.406 90.875 850.281 89.5078 850.281 87.2812C850.281 85.0859 849.406 83.7109 848.109 83.7031C846.836 83.7109 845.945 85.0859 845.953 87.2812ZM853.781 95.3281V81.3281H855.266V86.8125H857.516V88.0625H855.266V95.3281H853.781ZM863.328 84.8906C863.312 87.4453 864.859 90.0234 867.031 90.9844L866.141 92.1562C864.531 91.3906 863.258 89.8203 862.602 87.9062C861.953 89.9609 860.664 91.6484 858.984 92.4688L858.078 91.2188C860.281 90.2422 861.828 87.5625 861.828 84.8906V82.5H863.328V84.8906ZM868.297 95.3594V81.3281H869.781V95.3594H868.297ZM883.016 81.3125V85.5H885.047V86.75H883.016V91.6094H881.531V81.3125H883.016ZM872.234 85.7656C872.219 83.7266 873.844 82.2891 875.953 82.2812C878.07 82.2891 879.672 83.7266 879.688 85.7656C879.672 87.8047 878.07 89.2578 875.953 89.25C873.844 89.2578 872.219 87.8047 872.234 85.7656ZM873.688 85.7656C873.672 87.0703 874.672 87.9531 875.953 87.9531C877.25 87.9531 878.227 87.0703 878.234 85.7656C878.227 84.4609 877.25 83.5781 875.953 83.5781C874.672 83.5781 873.672 84.4609 873.688 85.7656ZM874.141 95.0312V90.5312H875.625V93.8281H883.609V95.0312H874.141ZM894.562 82.1562L890.922 95.7031H889.438L893.078 82.1562H894.562ZM910.203 81.3438V85.8438H912.234V87.0781H910.203V91.8125H908.719V81.3438H910.203ZM899.219 84.1719V82.9688H902.656V81.3281H904.141V82.9688H907.562V84.1719H899.219ZM899.984 87.4844C899.977 85.8828 901.359 84.8359 903.391 84.8438C905.398 84.8359 906.781 85.8828 906.781 87.4844C906.781 89.0703 905.398 90.1016 903.391 90.1094C901.359 90.1016 899.977 89.0703 899.984 87.4844ZM901.328 95.0312V90.9844H902.812V93.8281H910.797V95.0312H901.328ZM901.422 87.4844C901.406 88.3984 902.203 88.9609 903.391 88.9531C904.578 88.9609 905.375 88.3984 905.391 87.4844C905.375 86.5625 904.578 85.9922 903.391 85.9844C902.203 85.9922 901.406 86.5625 901.422 87.4844ZM918.125 83.3438C918.117 85.2812 919.43 87.0547 921.594 87.7656L920.844 88.9375C919.219 88.375 918.008 87.2344 917.375 85.7734C916.75 87.3359 915.516 88.5781 913.859 89.1719L913.109 88.0156C915.289 87.2422 916.602 85.3438 916.609 83.3438V82H918.125V83.3438ZM915.156 91.6094V90.4062H924.641V95.3281H923.156V91.6094H915.156ZM923.156 89.7344V81.3281H924.641V89.7344H923.156Z" fill="#333333"/>
<mask id="path-63-inside-17_362_12197" fill="white">
<path d="M780 112H936V178H780V112Z"/>
</mask>
<path d="M936 178V179H937V178H936ZM780 178H779V179H780V178ZM935 112V178H937V112H935ZM936 177H780V179H936V177ZM781 178V112H779V178H781Z" fill="#CCCCCC" mask="url(#path-63-inside-17_362_12197)"/>
<path d="M824.156 151V139.688H831.172V141.172H825.875V144.594H830.672V146.062H825.875V151H824.156ZM836.25 151.156C833.977 151.156 832.578 149.812 832.578 148C832.578 146.641 833.469 145.812 834.766 144.93C834.047 144.055 833.523 143.258 833.516 142.25C833.523 140.68 834.648 139.562 836.375 139.562C838.117 139.562 839.188 140.703 839.188 142.031C839.188 143.109 838.625 143.898 837.688 144.578L836.906 145.148L839.172 147.852C839.461 147.289 839.641 146.617 839.641 145.859H841.141C841.141 147.43 840.688 148.438 840.195 149.078L841.812 151H839.938L839.172 150.102C838.398 150.82 837.273 151.156 836.25 151.156ZM834.25 147.953C834.242 148.922 835.039 149.75 836.266 149.75C836.953 149.75 837.656 149.484 838.234 149.008L835.703 146.039L835.422 146.25C834.531 146.906 834.242 147.594 834.25 147.953ZM835.078 142.266C835.078 142.844 835.484 143.422 836 144.055L836.688 143.562C837.305 143.156 837.672 142.742 837.672 142.078C837.672 141.547 837.172 140.953 836.406 140.953C835.625 140.961 835.078 141.617 835.078 142.266ZM843.047 151V139.688H847.188C849.602 139.688 850.766 140.977 850.766 142.656C850.766 144.07 849.898 144.781 848.859 145.047V145.156C849.984 145.219 851.203 146.203 851.203 147.953C851.203 149.688 850.016 151 847.375 151H843.047ZM844.766 149.531H847.219C848.844 149.523 849.5 148.812 849.5 147.875C849.5 146.789 848.641 145.922 847.281 145.922H844.766V149.531ZM844.766 144.578H847.047C848.188 144.57 849.078 143.883 849.078 142.797C849.078 141.859 848.43 141.156 847.078 141.156H844.766V144.578ZM861.125 139.156L857.484 152.703H856L859.641 139.156H861.125ZM877.438 138.328V148.719H875.953V144.859H873.766V143.609H875.953V142.141H873.766V140.922H875.953V138.328H877.438ZM865.781 145.484C866.305 145.484 866.883 145.477 867.484 145.477V140.625H866.172V139.422H873.609V140.625H872.266V145.312C872.859 145.266 873.43 145.219 873.984 145.156L874.047 146.25C871.367 146.672 868.211 146.727 865.969 146.734L865.781 145.484ZM868.312 152.031V147.875H869.812V150.828H877.797V152.031H868.312ZM868.922 145.453C869.555 145.438 870.195 145.414 870.844 145.391V140.625H868.922V145.453ZM884.156 139.328C886.367 139.32 887.961 140.688 887.969 142.656C887.961 144.625 886.367 145.992 884.156 146C881.953 145.992 880.336 144.625 880.344 142.656C880.336 140.688 881.953 139.32 884.156 139.328ZM879.672 148.109C882.219 148.109 885.75 148.086 888.812 147.641L888.922 148.719C885.758 149.328 882.359 149.344 879.859 149.344L879.672 148.109ZM881.812 142.656C881.797 143.898 882.797 144.703 884.156 144.703C885.516 144.703 886.516 143.898 886.516 142.656C886.516 141.43 885.516 140.609 884.156 140.609C882.797 140.609 881.797 141.43 881.812 142.656ZM889.688 152.359V138.328H891.172V152.359H889.688Z" fill="#333333"/>
<mask id="path-66-inside-18_362_12197" fill="white">
<path d="M780 178H936V226H780V178Z"/>
</mask>
<path d="M935 178V226H937V178H935ZM781 226V178H779V226H781Z" fill="#CCCCCC" mask="url(#path-66-inside-18_362_12197)"/>
<path d="M824.156 208V196.688H831.172V198.172H825.875V201.594H830.672V203.062H825.875V208H824.156ZM836.25 208.156C833.977 208.156 832.578 206.812 832.578 205C832.578 203.641 833.469 202.812 834.766 201.93C834.047 201.055 833.523 200.258 833.516 199.25C833.523 197.68 834.648 196.562 836.375 196.562C838.117 196.562 839.188 197.703 839.188 199.031C839.188 200.109 838.625 200.898 837.688 201.578L836.906 202.148L839.172 204.852C839.461 204.289 839.641 203.617 839.641 202.859H841.141C841.141 204.43 840.688 205.438 840.195 206.078L841.812 208H839.938L839.172 207.102C838.398 207.82 837.273 208.156 836.25 208.156ZM834.25 204.953C834.242 205.922 835.039 206.75 836.266 206.75C836.953 206.75 837.656 206.484 838.234 206.008L835.703 203.039L835.422 203.25C834.531 203.906 834.242 204.594 834.25 204.953ZM835.078 199.266C835.078 199.844 835.484 200.422 836 201.055L836.688 200.562C837.305 200.156 837.672 199.742 837.672 199.078C837.672 198.547 837.172 197.953 836.406 197.953C835.625 197.961 835.078 198.617 835.078 199.266ZM843.047 208V196.688H847.188C849.602 196.688 850.766 197.977 850.766 199.656C850.766 201.07 849.898 201.781 848.859 202.047V202.156C849.984 202.219 851.203 203.203 851.203 204.953C851.203 206.688 850.016 208 847.375 208H843.047ZM844.766 206.531H847.219C848.844 206.523 849.5 205.812 849.5 204.875C849.5 203.789 848.641 202.922 847.281 202.922H844.766V206.531ZM844.766 201.578H847.047C848.188 201.57 849.078 200.883 849.078 199.797C849.078 198.859 848.43 198.156 847.078 198.156H844.766V201.578ZM861.125 196.156L857.484 209.703H856L859.641 196.156H861.125ZM877.438 195.328V205.719H875.953V201.859H873.766V200.609H875.953V199.141H873.766V197.922H875.953V195.328H877.438ZM865.781 202.484C866.305 202.484 866.883 202.477 867.484 202.477V197.625H866.172V196.422H873.609V197.625H872.266V202.312C872.859 202.266 873.43 202.219 873.984 202.156L874.047 203.25C871.367 203.672 868.211 203.727 865.969 203.734L865.781 202.484ZM868.312 209.031V204.875H869.812V207.828H877.797V209.031H868.312ZM868.922 202.453C869.555 202.438 870.195 202.414 870.844 202.391V197.625H868.922V202.453ZM884.156 196.328C886.367 196.32 887.961 197.688 887.969 199.656C887.961 201.625 886.367 202.992 884.156 203C881.953 202.992 880.336 201.625 880.344 199.656C880.336 197.688 881.953 196.32 884.156 196.328ZM879.672 205.109C882.219 205.109 885.75 205.086 888.812 204.641L888.922 205.719C885.758 206.328 882.359 206.344 879.859 206.344L879.672 205.109ZM881.812 199.656C881.797 200.898 882.797 201.703 884.156 201.703C885.516 201.703 886.516 200.898 886.516 199.656C886.516 198.43 885.516 197.609 884.156 197.609C882.797 197.609 881.797 198.43 881.812 199.656ZM889.688 209.359V195.328H891.172V209.359H889.688Z" fill="#333333"/>
<path d="M944.5 20C944.5 9.23045 953.23 0.5 964 0.5H1080C1090.77 0.5 1099.5 9.23045 1099.5 20V63.5H944.5V20Z" stroke="#CCCCCC"/>
<path d="M994.922 16.7969V18.3594H991.5V20.625H994.359V22.1406H991.5V24.6953C993.023 24.6719 994.141 24.5938 995.469 24.375L995.641 25.9844C994.008 26.2812 992.648 26.2969 990.562 26.2969H989.609V16.7969H994.922ZM995.031 22V20.4062H996.625V15.4688H998.484V28.7969H996.625V22H995.031ZM999.578 29.4375V15.2188H1001.5V29.4375H999.578ZM1010.28 16.5625V25.9688H1003.45V16.5625H1010.28ZM1005.42 24.3906H1008.3V18.125H1005.42V24.3906ZM1012.22 29.4375V15.2188H1014.22V20.5781H1016.31V22.2344H1014.22V29.4375H1012.22ZM1029.83 21.9375V23.5H1016.83V21.9375H1022.36V20.7188H1018.41V15.8438H1028.27V17.3906H1020.39V19.1562H1028.34V20.7188H1024.31V21.9375H1029.83ZM1018.31 26.8438C1018.31 25.1562 1020.19 24.2188 1023.3 24.2188C1026.38 24.2188 1028.23 25.1562 1028.25 26.8438C1028.23 28.5078 1026.38 29.4531 1023.3 29.4531C1020.19 29.4531 1018.31 28.5078 1018.31 26.8438ZM1020.34 26.8438C1020.34 27.5859 1021.33 27.9375 1023.3 27.9375C1025.23 27.9375 1026.24 27.5859 1026.25 26.8438C1026.24 26.1094 1025.23 25.7344 1023.3 25.7344C1021.33 25.7344 1020.34 26.1094 1020.34 26.8438ZM1039.69 16.6875V28H1037.33V18.9219H1037.27L1034.67 20.5469V18.4688L1037.47 16.6875H1039.69ZM1049.81 16.25V17.1406C1049.81 18.125 1049.81 19.5469 1049.48 21.3125L1047.53 21.125C1047.79 19.7656 1047.85 18.7266 1047.87 17.875H1042.5V16.25H1049.81ZM1041.66 22.3438C1042.45 22.3438 1043.35 22.3438 1044.3 22.3203V19.5312H1046.28V22.2578C1047.7 22.1953 1049.15 22.0859 1050.48 21.8906L1050.59 23.3281C1047.63 23.875 1044.3 23.9297 1041.83 23.9375L1041.66 22.3438ZM1043.75 29.1875V24.9062H1045.75V27.5938H1053.73V29.1875H1043.75ZM1051.25 25.8594V15.2188H1053.3V19.5469H1055.02V21.2188H1053.3V25.8594H1051.25Z" fill="#E46C0B"/>
<path d="M987.688 48V36.6875H995.141V38.625H990.031V41.375H994.656V43.3125H990.031V48H987.688ZM1000.09 48.1719C997.75 48.1641 996.312 46.7812 996.312 45C996.312 43.6797 997.148 42.8828 998.383 42.0312C997.789 41.2734 997.297 40.4375 997.297 39.4375C997.297 37.7969 998.523 36.5391 1000.38 36.5312C1002.19 36.5391 1003.3 37.7578 1003.3 39.1875C1003.3 40.2578 1002.75 41.1172 1001.8 41.7969L1001.13 42.2812L1003.02 44.4531C1003.32 43.8984 1003.5 43.2344 1003.5 42.5H1005.42C1005.43 44.0312 1005.03 45.2188 1004.41 46.0469L1006.11 48H1003.69L1002.99 47.2188C1002.16 47.8828 1001.09 48.1641 1000.09 48.1719ZM998.562 44.875C998.562 45.6875 999.203 46.3047 1000.2 46.2969C1000.73 46.2969 1001.26 46.1328 1001.74 45.8281L999.578 43.4141L999.5 43.4688C998.859 43.9297 998.562 44.4375 998.562 44.875ZM999.281 39.4688C999.289 39.9375 999.586 40.4141 1000.02 40.9609L1000.61 40.5625C1001.18 40.2031 1001.45 39.8047 1001.44 39.3125C1001.45 38.875 1001.05 38.3984 1000.39 38.4062C999.727 38.4062 999.289 38.8906 999.281 39.4688ZM1007.06 48V36.6875H1011.56C1014.05 36.6875 1015.32 37.8906 1015.31 39.5938C1015.32 40.9219 1014.45 41.7578 1013.28 42.0156V42.125C1014.55 42.1875 1015.76 43.2031 1015.77 44.875C1015.76 46.6719 1014.41 48 1011.86 48H1007.06ZM1009.41 46.0625H1011.39C1012.75 46.0703 1013.34 45.5078 1013.33 44.6562C1013.34 43.7031 1012.61 43.0312 1011.45 43.0312H1009.41V46.0625ZM1009.41 41.4219H1011.22C1012.2 41.4297 1012.95 40.875 1012.94 39.9688C1012.95 39.1484 1012.34 38.5938 1011.27 38.5938H1009.41V41.4219ZM1025.78 36.1562L1022.12 49.7031H1020.14L1023.78 36.1562H1025.78ZM1042.02 35.2188V45.6875H1040.03V42.1875H1038.22V40.5469H1040.03V39.3125H1038.22V37.7188H1040.03V35.2188H1042.02ZM1030.03 42.3438C1030.5 42.3438 1031.02 42.3438 1031.55 42.3359V37.8281H1030.39V36.2344H1037.97V37.8281H1036.8V42.1484C1037.27 42.1094 1037.74 42.0625 1038.19 42.0156L1038.27 43.4688C1035.6 43.9062 1032.49 43.9688 1030.23 43.9688L1030.03 42.3438ZM1032.56 49.1875V44.9062H1034.56V47.5938H1042.36V49.1875H1032.56ZM1033.47 42.3047L1034.89 42.2578V37.8281H1033.47V42.3047ZM1048.47 36.1719C1050.73 36.1641 1052.4 37.6172 1052.41 39.6562C1052.4 41.7031 1050.73 43.1484 1048.47 43.1562C1046.23 43.1484 1044.51 41.7031 1044.52 39.6562C1044.51 37.6172 1046.23 36.1641 1048.47 36.1719ZM1043.92 44.9375C1046.46 44.9453 1049.98 44.9141 1053.02 44.4844L1053.17 45.9219C1050.02 46.5391 1046.64 46.5625 1044.16 46.5625L1043.92 44.9375ZM1046.5 39.6562C1046.49 40.7812 1047.34 41.4297 1048.47 41.4219C1049.6 41.4297 1050.46 40.7812 1050.47 39.6562C1050.46 38.5469 1049.6 37.8906 1048.47 37.8906C1047.34 37.8906 1046.49 38.5469 1046.5 39.6562ZM1053.83 49.4688V35.2188H1055.81V49.4688H1053.83Z" fill="#333333"/>
<mask id="path-71-inside-19_362_12197" fill="white">
<path d="M944 64H1100V112H944V64Z"/>
</mask>
<path d="M1100 112V113H1101V112H1100ZM944 112H943V113H944V112ZM1099 64V112H1101V64H1099ZM1100 111H944V113H1100V111ZM945 112V64H943V112H945Z" fill="#CCCCCC" mask="url(#path-71-inside-19_362_12197)"/>
<path d="M988.156 94V82.6875H995.172V84.1719H989.875V87.5938H994.672V89.0625H989.875V94H988.156ZM1000.25 94.1562C997.977 94.1562 996.578 92.8125 996.578 91C996.578 89.6406 997.469 88.8125 998.766 87.9297C998.047 87.0547 997.523 86.2578 997.516 85.25C997.523 83.6797 998.648 82.5625 1000.38 82.5625C1002.12 82.5625 1003.19 83.7031 1003.19 85.0312C1003.19 86.1094 1002.62 86.8984 1001.69 87.5781L1000.91 88.1484L1003.17 90.8516C1003.46 90.2891 1003.64 89.6172 1003.64 88.8594H1005.14C1005.14 90.4297 1004.69 91.4375 1004.2 92.0781L1005.81 94H1003.94L1003.17 93.1016C1002.4 93.8203 1001.27 94.1562 1000.25 94.1562ZM998.25 90.9531C998.242 91.9219 999.039 92.75 1000.27 92.75C1000.95 92.75 1001.66 92.4844 1002.23 92.0078L999.703 89.0391L999.422 89.25C998.531 89.9062 998.242 90.5938 998.25 90.9531ZM999.078 85.2656C999.078 85.8438 999.484 86.4219 1000 87.0547L1000.69 86.5625C1001.3 86.1562 1001.67 85.7422 1001.67 85.0781C1001.67 84.5469 1001.17 83.9531 1000.41 83.9531C999.625 83.9609 999.078 84.6172 999.078 85.2656ZM1007.05 94V82.6875H1011.19C1013.6 82.6875 1014.77 83.9766 1014.77 85.6562C1014.77 87.0703 1013.9 87.7812 1012.86 88.0469V88.1562C1013.98 88.2188 1015.2 89.2031 1015.2 90.9531C1015.2 92.6875 1014.02 94 1011.38 94H1007.05ZM1008.77 92.5312H1011.22C1012.84 92.5234 1013.5 91.8125 1013.5 90.875C1013.5 89.7891 1012.64 88.9219 1011.28 88.9219H1008.77V92.5312ZM1008.77 87.5781H1011.05C1012.19 87.5703 1013.08 86.8828 1013.08 85.7969C1013.08 84.8594 1012.43 84.1562 1011.08 84.1562H1008.77V87.5781ZM1025.12 82.1562L1021.48 95.7031H1020L1023.64 82.1562H1025.12ZM1041.44 81.3281V91.7188H1039.95V87.8594H1037.77V86.6094H1039.95V85.1406H1037.77V83.9219H1039.95V81.3281H1041.44ZM1029.78 88.4844C1030.3 88.4844 1030.88 88.4766 1031.48 88.4766V83.625H1030.17V82.4219H1037.61V83.625H1036.27V88.3125C1036.86 88.2656 1037.43 88.2188 1037.98 88.1562L1038.05 89.25C1035.37 89.6719 1032.21 89.7266 1029.97 89.7344L1029.78 88.4844ZM1032.31 95.0312V90.875H1033.81V93.8281H1041.8V95.0312H1032.31ZM1032.92 88.4531C1033.55 88.4375 1034.2 88.4141 1034.84 88.3906V83.625H1032.92V88.4531ZM1048.16 82.3281C1050.37 82.3203 1051.96 83.6875 1051.97 85.6562C1051.96 87.625 1050.37 88.9922 1048.16 89C1045.95 88.9922 1044.34 87.625 1044.34 85.6562C1044.34 83.6875 1045.95 82.3203 1048.16 82.3281ZM1043.67 91.1094C1046.22 91.1094 1049.75 91.0859 1052.81 90.6406L1052.92 91.7188C1049.76 92.3281 1046.36 92.3438 1043.86 92.3438L1043.67 91.1094ZM1045.81 85.6562C1045.8 86.8984 1046.8 87.7031 1048.16 87.7031C1049.52 87.7031 1050.52 86.8984 1050.52 85.6562C1050.52 84.4297 1049.52 83.6094 1048.16 83.6094C1046.8 83.6094 1045.8 84.4297 1045.81 85.6562ZM1053.69 95.3594V81.3281H1055.17V95.3594H1053.69Z" fill="#333333"/>
<mask id="path-74-inside-20_362_12197" fill="white">
<path d="M944 112H1100V178H944V112Z"/>
</mask>
<path d="M1100 178V179H1101V178H1100ZM944 178H943V179H944V178ZM1099 112V178H1101V112H1099ZM1100 177H944V179H1100V177ZM945 178V112H943V178H945Z" fill="#CCCCCC" mask="url(#path-74-inside-20_362_12197)"/>
<path d="M1019.7 139.031V140.094C1019.71 141.188 1019.71 142.453 1019.34 144.141H1021.33V145.359H1008.52V144.141H1017.84C1018.22 142.508 1018.23 141.312 1018.23 140.25H1010.12V139.031H1019.7ZM1010.08 152.156V147.141H1019.72V152.156H1010.08ZM1011.53 150.953H1018.25V148.312H1011.53V150.953ZM1035.11 144.797V146H1032.03V147.844C1033.01 148.266 1033.54 148.93 1033.55 149.812C1033.54 151.414 1031.73 152.32 1028.72 152.328C1025.67 152.32 1023.86 151.414 1023.86 149.812C1023.86 148.906 1024.42 148.234 1025.45 147.812V146H1022.34V144.797H1035.11ZM1023.72 141.25C1023.71 139.57 1025.64 138.586 1028.72 138.578C1031.79 138.586 1033.71 139.57 1033.72 141.25C1033.71 142.891 1031.79 143.859 1028.72 143.859C1025.64 143.859 1023.71 142.891 1023.72 141.25ZM1025.25 141.25C1025.24 142.188 1026.56 142.719 1028.72 142.719C1030.86 142.719 1032.2 142.188 1032.19 141.25C1032.2 140.289 1030.86 139.758 1028.72 139.75C1026.56 139.758 1025.24 140.289 1025.25 141.25ZM1025.36 149.812C1025.35 150.695 1026.58 151.172 1028.72 151.156C1030.83 151.172 1032.06 150.695 1032.06 149.812C1032.06 148.93 1030.83 148.438 1028.72 148.438C1026.58 148.438 1025.35 148.93 1025.36 149.812ZM1026.94 147.422C1027.47 147.344 1028.07 147.297 1028.72 147.297C1029.4 147.297 1030.02 147.344 1030.56 147.438V146H1026.94V147.422Z" fill="#333333"/>
<mask id="path-77-inside-21_362_12197" fill="white">
<path d="M944 178H1100V226H944V178Z"/>
</mask>
<path d="M1099 178V226H1101V178H1099ZM945 226V178H943V226H945Z" fill="#CCCCCC" mask="url(#path-77-inside-21_362_12197)"/>
<path d="M988.156 208V196.688H995.172V198.172H989.875V201.594H994.672V203.062H989.875V208H988.156ZM1000.25 208.156C997.977 208.156 996.578 206.812 996.578 205C996.578 203.641 997.469 202.812 998.766 201.93C998.047 201.055 997.523 200.258 997.516 199.25C997.523 197.68 998.648 196.562 1000.38 196.562C1002.12 196.562 1003.19 197.703 1003.19 199.031C1003.19 200.109 1002.62 200.898 1001.69 201.578L1000.91 202.148L1003.17 204.852C1003.46 204.289 1003.64 203.617 1003.64 202.859H1005.14C1005.14 204.43 1004.69 205.438 1004.2 206.078L1005.81 208H1003.94L1003.17 207.102C1002.4 207.82 1001.27 208.156 1000.25 208.156ZM998.25 204.953C998.242 205.922 999.039 206.75 1000.27 206.75C1000.95 206.75 1001.66 206.484 1002.23 206.008L999.703 203.039L999.422 203.25C998.531 203.906 998.242 204.594 998.25 204.953ZM999.078 199.266C999.078 199.844 999.484 200.422 1000 201.055L1000.69 200.562C1001.3 200.156 1001.67 199.742 1001.67 199.078C1001.67 198.547 1001.17 197.953 1000.41 197.953C999.625 197.961 999.078 198.617 999.078 199.266ZM1007.05 208V196.688H1011.19C1013.6 196.688 1014.77 197.977 1014.77 199.656C1014.77 201.07 1013.9 201.781 1012.86 202.047V202.156C1013.98 202.219 1015.2 203.203 1015.2 204.953C1015.2 206.688 1014.02 208 1011.38 208H1007.05ZM1008.77 206.531H1011.22C1012.84 206.523 1013.5 205.812 1013.5 204.875C1013.5 203.789 1012.64 202.922 1011.28 202.922H1008.77V206.531ZM1008.77 201.578H1011.05C1012.19 201.57 1013.08 200.883 1013.08 199.797C1013.08 198.859 1012.43 198.156 1011.08 198.156H1008.77V201.578ZM1025.12 196.156L1021.48 209.703H1020L1023.64 196.156H1025.12ZM1041.44 195.328V205.719H1039.95V201.859H1037.77V200.609H1039.95V199.141H1037.77V197.922H1039.95V195.328H1041.44ZM1029.78 202.484C1030.3 202.484 1030.88 202.477 1031.48 202.477V197.625H1030.17V196.422H1037.61V197.625H1036.27V202.312C1036.86 202.266 1037.43 202.219 1037.98 202.156L1038.05 203.25C1035.37 203.672 1032.21 203.727 1029.97 203.734L1029.78 202.484ZM1032.31 209.031V204.875H1033.81V207.828H1041.8V209.031H1032.31ZM1032.92 202.453C1033.55 202.438 1034.2 202.414 1034.84 202.391V197.625H1032.92V202.453ZM1048.16 196.328C1050.37 196.32 1051.96 197.688 1051.97 199.656C1051.96 201.625 1050.37 202.992 1048.16 203C1045.95 202.992 1044.34 201.625 1044.34 199.656C1044.34 197.688 1045.95 196.32 1048.16 196.328ZM1043.67 205.109C1046.22 205.109 1049.75 205.086 1052.81 204.641L1052.92 205.719C1049.76 206.328 1046.36 206.344 1043.86 206.344L1043.67 205.109ZM1045.81 199.656C1045.8 200.898 1046.8 201.703 1048.16 201.703C1049.52 201.703 1050.52 200.898 1050.52 199.656C1050.52 198.43 1049.52 197.609 1048.16 197.609C1046.8 197.609 1045.8 198.43 1045.81 199.656ZM1053.69 209.359V195.328H1055.17V209.359H1053.69Z" fill="#333333"/>
<mask id="path-80-inside-22_362_12197" fill="white">
<path d="M368 226H1100V274H368V226Z"/>
</mask>
<path d="M368 226H1100V274H368V226Z" fill="#EEEEEE"/>
<path d="M368 226V225H367V226H368ZM1100 226H1101V225H1100V226ZM368 227H1100V225H368V227ZM1099 226V274H1101V226H1099ZM369 274V226H367V274H369Z" fill="#CCCCCC" mask="url(#path-80-inside-22_362_12197)"/>
<path d="M445.422 246.312C445.422 247.961 446.773 249.5 448.906 250.094L448.203 251.25C446.578 250.789 445.359 249.789 444.719 248.492C444.109 249.938 442.891 251.086 441.219 251.609L440.516 250.469C442.641 249.789 443.953 248.117 443.953 246.312V246.141H440.906V244.953H443.953V243.266H445.438V244.953H448.469V246.141H445.422V246.312ZM442.766 254.703C442.758 253.062 444.562 252.133 447.5 252.125C450.43 252.133 452.227 253.062 452.234 254.703C452.227 256.352 450.43 257.305 447.5 257.297C444.562 257.305 442.758 256.352 442.766 254.703ZM444.234 254.703C444.227 255.609 445.445 256.148 447.5 256.156C449.555 256.148 450.758 255.609 450.766 254.703C450.758 253.797 449.555 253.281 447.5 253.281C445.445 253.281 444.227 253.797 444.234 254.703ZM448.031 248.469V247.25H450.703V243.328H452.188V251.812H450.703V248.469H448.031ZM462.141 244.828V245.688C462.133 246.867 462.133 248.672 461.734 251.172L460.266 251.062C460.625 248.828 460.664 247.195 460.672 246.031H454.984V244.828H462.141ZM454.203 253.109C455.078 253.102 456.055 253.094 457.078 253.07V248.828H458.547V253.023C460.031 252.961 461.555 252.867 462.953 252.688L463.031 253.797C460.117 254.266 456.859 254.328 454.375 254.312L454.203 253.109ZM463.75 257.328V243.328H465.25V249.109H467.391V250.375H465.25V257.328H463.75ZM470.688 254.922L469.438 259.234H468.109L468.938 254.922H470.688ZM479.922 244.375C482.016 244.383 483.508 246.289 483.516 249.281C483.508 252.305 482.016 254.211 479.922 254.203C477.828 254.211 476.336 252.305 476.344 249.281C476.336 246.289 477.828 244.383 479.922 244.375ZM477.766 249.281C477.758 251.508 478.648 252.875 479.922 252.875C481.219 252.875 482.094 251.508 482.094 249.281C482.094 247.086 481.219 245.711 479.922 245.703C478.648 245.711 477.758 247.086 477.766 249.281ZM485.594 257.328V243.328H487.078V246.75H489.25V248.016H487.078V250.922H489.25V252.141H487.078V257.328H485.594ZM494.188 247.609C494.188 249.789 495.203 252.039 497.156 253.062L496.312 254.172C494.953 253.453 494.008 252.117 493.5 250.539C493.008 252.227 492.07 253.688 490.719 254.469L489.844 253.375C491.773 252.25 492.781 249.867 492.797 247.609V247.094H490.203V245.859H492.797V243.828H494.188V245.859H496.734V247.094H494.188V247.609ZM497.594 256.641V243.594H499V248.891H500.672V243.328H502.094V257.328H500.672V250.141H499V256.641H497.594ZM508.969 246.891C508.953 249.445 510.5 252.023 512.672 252.984L511.781 254.156C510.172 253.391 508.898 251.82 508.242 249.906C507.594 251.961 506.305 253.648 504.625 254.469L503.719 253.219C505.922 252.242 507.469 249.562 507.469 246.891V244.5H508.969V246.891ZM513.938 257.359V243.328H515.422V257.359H513.938ZM522.547 245.906C522.539 247.688 523.781 249.312 525.906 249.984L525.203 251.141C523.609 250.633 522.445 249.578 521.828 248.25C521.219 249.781 519.992 250.992 518.312 251.578L517.547 250.391C519.734 249.672 521.055 247.867 521.062 245.922V245.531H517.984V244.328H525.562V245.531H522.547V245.906ZM519.438 254.672C519.438 253.031 521.227 252.07 524.141 252.078C527.023 252.07 528.781 253.031 528.781 254.672C528.781 256.336 527.023 257.305 524.141 257.297C521.227 257.305 519.438 256.336 519.438 254.672ZM520.922 254.672C520.914 255.609 522.117 256.133 524.141 256.125C526.148 256.133 527.336 255.609 527.328 254.672C527.336 253.758 526.148 253.242 524.141 253.25C522.117 253.242 520.914 253.758 520.922 254.672ZM527.172 251.734V243.328H528.656V246.797H530.688V248.016H528.656V251.734H527.172Z" fill="#333333"/>
<rect x="40.5" y="274.5" width="525" height="47" fill="#EEEEEE"/>
<rect x="40.5" y="274.5" width="525" height="47" stroke="#CCCCCC"/>
<path d="M266.953 291.344V299.781H265.547V296.125H263.766V299.281H262.391V291.594H263.766V294.906H265.547V291.344H266.953ZM255.672 298.609V292.438H257.156V297.375C258.562 297.359 259.906 297.266 261.484 296.953L261.625 298.172C259.805 298.531 258.281 298.609 256.594 298.609H255.672ZM257.531 302.641C257.516 300.969 259.352 299.969 262.266 299.969C265.172 299.969 267.023 300.969 267.031 302.641C267.023 304.305 265.172 305.305 262.266 305.297C259.352 305.305 257.516 304.305 257.531 302.641ZM259 302.641C258.984 303.586 260.234 304.133 262.266 304.125C264.297 304.133 265.539 303.586 265.547 302.641C265.539 301.688 264.297 301.133 262.266 301.125C260.234 301.133 258.984 301.688 259 302.641ZM273.734 293.906C273.727 295.688 274.969 297.312 277.094 297.984L276.391 299.141C274.797 298.633 273.633 297.578 273.016 296.25C272.406 297.781 271.18 298.992 269.5 299.578L268.734 298.391C270.922 297.672 272.242 295.867 272.25 293.922V293.531H269.172V292.328H276.75V293.531H273.734V293.906ZM270.625 302.672C270.625 301.031 272.414 300.07 275.328 300.078C278.211 300.07 279.969 301.031 279.969 302.672C279.969 304.336 278.211 305.305 275.328 305.297C272.414 305.305 270.625 304.336 270.625 302.672ZM272.109 302.672C272.102 303.609 273.305 304.133 275.328 304.125C277.336 304.133 278.523 303.609 278.516 302.672C278.523 301.758 277.336 301.242 275.328 301.25C273.305 301.242 272.102 301.758 272.109 302.672ZM278.359 299.734V291.328H279.844V294.797H281.875V296.016H279.844V299.734H278.359ZM291.391 292.156L287.75 305.703H286.266L289.906 292.156H291.391ZM307.969 291.344V299.781H306.562V296.125H304.781V299.281H303.406V291.594H304.781V294.906H306.562V291.344H307.969ZM296.688 298.609V292.438H298.172V297.375C299.578 297.359 300.922 297.266 302.5 296.953L302.641 298.172C300.82 298.531 299.297 298.609 297.609 298.609H296.688ZM298.547 302.641C298.531 300.969 300.367 299.969 303.281 299.969C306.188 299.969 308.039 300.969 308.047 302.641C308.039 304.305 306.188 305.305 303.281 305.297C300.367 305.305 298.531 304.305 298.547 302.641ZM300.016 302.641C300 303.586 301.25 304.133 303.281 304.125C305.312 304.133 306.555 303.586 306.562 302.641C306.555 301.688 305.312 301.133 303.281 301.125C301.25 301.133 300 301.688 300.016 302.641ZM322.641 298.141V299.328H309.859V298.141H315.531V296.656H311.453V291.969H321.062V293.141H312.922V295.469H321.156V296.656H316.969V298.141H322.641ZM311.375 302.781C311.375 301.156 313.195 300.242 316.234 300.234C319.25 300.242 321.055 301.156 321.062 302.781C321.055 304.406 319.25 305.32 316.234 305.328C313.195 305.32 311.375 304.406 311.375 302.781ZM312.875 302.781C312.867 303.68 314.094 304.172 316.234 304.156C318.344 304.172 319.578 303.68 319.578 302.781C319.578 301.898 318.344 301.391 316.234 301.391C314.094 301.391 312.867 301.898 312.875 302.781ZM328.594 294.328C328.594 295.953 329.859 297.461 332 298.062L331.312 299.234C329.703 298.766 328.508 297.773 327.891 296.5C327.273 297.938 326.055 299.055 324.406 299.594L323.672 298.422C325.812 297.789 327.125 296.141 327.125 294.328V294.156H324.078V292.953H327.125V291.266H328.609V292.953H331.641V294.156H328.594V294.328ZM325.469 302.75C325.469 301.109 327.242 300.18 330.172 300.188C333.07 300.18 334.812 301.109 334.812 302.75C334.812 304.359 333.07 305.289 330.172 305.297C327.242 305.289 325.469 304.359 325.469 302.75ZM326.953 302.75C326.945 303.648 328.133 304.148 330.172 304.156C332.18 304.148 333.367 303.648 333.359 302.75C333.367 301.828 332.18 301.344 330.172 301.344C328.133 301.344 326.945 301.828 326.953 302.75ZM333.203 299.859V291.328H334.688V294.859H336.719V296.078H334.688V299.859H333.203ZM348.844 292.672V294.047C348.836 295.773 348.836 297.711 348.312 300.578L346.812 300.422C347.352 297.711 347.352 295.727 347.359 294.047V293.875H338.859V292.672H348.844ZM337.516 303.438V302.203H342.375V297.266H343.844V302.203H350.281V303.438H337.516Z" fill="#333333"/>
<mask id="path-85-inside-23_362_12197" fill="white">
<path d="M566 274H574V322H566V274Z"/>
</mask>
<path d="M566 275H574V273H566V275Z" fill="#CCCCCC" mask="url(#path-85-inside-23_362_12197)"/>
<rect x="574.5" y="274.5" width="525" height="47" fill="#EEEEEE"/>
<rect x="574.5" y="274.5" width="525" height="47" stroke="#CCCCCC"/>
<path d="M811.422 291.328V296.906H813.594V298.141H811.422V305.312H809.938V291.328H811.422ZM800.531 301.578C804.039 299.828 805.945 297.297 806.25 294.031H801.234V292.797H807.766C807.75 296.844 805.969 300.461 801.359 302.734L800.531 301.578ZM820.656 300.125C823.688 300.125 825.602 301.086 825.609 302.719C825.602 304.344 823.688 305.305 820.656 305.297C817.656 305.305 815.734 304.344 815.734 302.719C815.734 301.086 817.656 300.125 820.656 300.125ZM814.359 298.969V297.766H819.469V295.141H820.922V297.766H827.094V298.969H814.359ZM815.844 293.203V292.016H825.5V293.188C825.508 294.305 825.508 295.461 825.109 296.906L823.656 296.75C824.031 295.32 824.031 294.289 824.031 293.203H815.844ZM817.219 302.719C817.203 303.625 818.539 304.148 820.656 304.156C822.797 304.148 824.125 303.625 824.141 302.719C824.125 301.797 822.797 301.258 820.656 301.25C818.539 301.258 817.203 301.797 817.219 302.719ZM843.766 291.328V305.359H842.281V298.078H839.391V296.875H842.281V291.328H843.766ZM832.078 301.5C834.195 300.523 835.586 298.133 835.578 295.828V294.906H832.469V293.719H835.594V291.609H837.078V293.719H840.109V294.906H837.047V295.828C837.047 298.039 838.477 300.312 840.625 301.266L839.797 302.406C838.195 301.703 836.961 300.234 836.336 298.477C835.727 300.336 834.5 301.898 832.891 302.641L832.078 301.5ZM857.531 291.328V305.359H856.047V291.328H857.531ZM846.688 293.797V292.594H853.25V297.703H848.219V300.766C850.492 300.758 852.469 300.648 854.812 300.266L854.953 301.484C852.477 301.898 850.367 301.992 847.891 302H846.703V296.516H851.734V293.797H846.688ZM864.625 293.906C864.617 295.688 865.859 297.312 867.984 297.984L867.281 299.141C865.688 298.633 864.523 297.578 863.906 296.25C863.297 297.781 862.07 298.992 860.391 299.578L859.625 298.391C861.812 297.672 863.133 295.867 863.141 293.922V293.531H860.062V292.328H867.641V293.531H864.625V293.906ZM861.516 302.672C861.516 301.031 863.305 300.07 866.219 300.078C869.102 300.07 870.859 301.031 870.859 302.672C870.859 304.336 869.102 305.305 866.219 305.297C863.305 305.305 861.516 304.336 861.516 302.672ZM863 302.672C862.992 303.609 864.195 304.133 866.219 304.125C868.227 304.133 869.414 303.609 869.406 302.672C869.414 301.758 868.227 301.242 866.219 301.25C864.195 301.242 862.992 301.758 863 302.672ZM869.25 299.734V291.328H870.734V294.797H872.766V296.016H870.734V299.734H869.25Z" fill="#333333"/>
</svg>
