<svg width="100" height="100" viewBox="0 0 100 100" fill="none" xmlns="http://www.w3.org/2000/svg">
<g clip-path="url(#clip0_1_14859)">
<rect x="30" y="28" width="43" height="44" fill="#2F5BC1"/>
<mask id="path-2-inside-1_1_14859" fill="white">
<path fill-rule="evenodd" clip-rule="evenodd" d="M18 37.8228C18 32.3987 22.3814 28 27.7841 28H71.9068L49.9972 50.0096L71.9202 28H72.2293C77.6321 28 82.0134 32.3987 82.0134 37.8228V62.1772C82.0134 67.6013 77.6321 72 72.2293 72H28.1067L28.0932 72.0135H27.7841C22.3814 72.0135 18 67.6148 18 62.1907V37.8228Z"/>
</mask>
<path fill-rule="evenodd" clip-rule="evenodd" d="M18 37.8228C18 32.3987 22.3814 28 27.7841 28H71.9068L49.9972 50.0096L71.9202 28H72.2293C77.6321 28 82.0134 32.3987 82.0134 37.8228V62.1772C82.0134 67.6013 77.6321 72 72.2293 72H28.1067L28.0932 72.0135H27.7841C22.3814 72.0135 18 67.6148 18 62.1907V37.8228Z" fill="#2F5BC1"/>
<path d="M71.9068 28L72.6155 28.7055L74.3132 27H71.9068V28ZM49.9972 50.0096L49.2885 49.3041L50.7057 50.7153L49.9972 50.0096ZM71.9202 28V27H71.5048L71.2117 27.2943L71.9202 28ZM28.1067 72V71H27.6911L27.398 71.2945L28.1067 72ZM28.0932 72.0135V73.0135H28.5088L28.8019 72.719L28.0932 72.0135ZM27.7841 27C21.8254 27 17 31.8501 17 37.8228H19C19 32.9472 22.9373 29 27.7841 29V27ZM71.9068 27H27.7841V29H71.9068V27ZM50.7059 50.7151L72.6155 28.7055L71.1981 27.2945L49.2885 49.3041L50.7059 50.7151ZM71.2117 27.2943L49.2887 49.3039L50.7057 50.7153L72.6287 28.7057L71.2117 27.2943ZM72.2293 27H71.9202V29H72.2293V27ZM83.0134 37.8228C83.0134 31.8501 78.1881 27 72.2293 27V29C77.0761 29 81.0134 32.9472 81.0134 37.8228H83.0134ZM83.0134 62.1772V37.8228H81.0134V62.1772H83.0134ZM72.2293 73C78.1881 73 83.0134 68.1499 83.0134 62.1772H81.0134C81.0134 67.0528 77.0761 71 72.2293 71V73ZM28.1067 73H72.2293V71H28.1067V73ZM28.8019 72.719L28.8154 72.7055L27.398 71.2945L27.3845 71.308L28.8019 72.719ZM27.7841 73.0135H28.0932V71.0135H27.7841V73.0135ZM17 62.1907C17 68.1634 21.8254 73.0135 27.7841 73.0135V71.0135C22.9373 71.0135 19 67.0663 19 62.1907H17ZM17 37.8228V62.1907H19V37.8228H17Z" fill="#2F5BC1" mask="url(#path-2-inside-1_1_14859)"/>
<path d="M43.9521 50.0337H28.1201C25.9026 50.0337 24.1151 51.8417 24.1151 54.0545V56.3888C24.1151 54.1625 25.916 52.3679 28.1201 52.3679H43.9521C46.1697 52.3679 47.9572 54.176 47.9572 56.3888V54.0545C47.9572 51.8282 46.1562 50.0337 43.9521 50.0337Z" fill="#0F316A"/>
<path d="M32.1117 35.7313C35.4717 35.7313 38.2402 38.1735 38.7913 41.3848C38.8585 41.007 38.9122 40.6157 38.9122 40.2244C38.9122 36.46 35.8748 33.3971 32.1117 33.3971C28.3486 33.3971 25.3112 36.4465 25.3112 40.2244C25.3112 40.6292 25.365 41.007 25.4322 41.3848C25.9832 38.1735 28.7518 35.7313 32.1117 35.7313Z" fill="#0F316A"/>
<path d="M67.8883 35.7313C71.2482 35.7313 74.0168 38.1735 74.5678 41.3848C74.635 41.007 74.6888 40.6157 74.6888 40.2244C74.6888 36.46 71.6514 33.3971 67.8883 33.3971C64.1252 33.3971 61.0878 36.4465 61.0878 40.2244C61.0878 40.6292 61.1415 41.007 61.2087 41.3848C61.7598 38.1735 64.5284 35.7313 67.8883 35.7313Z" fill="#0F316A"/>
<path d="M71.8799 50.0337H56.0479C53.8303 50.0337 52.0428 51.8417 52.0428 54.0545V56.3888C52.0428 54.1625 53.8303 52.3679 56.0479 52.3679H71.8799C74.0974 52.3679 75.8849 54.176 75.8849 56.3888V54.0545C75.8849 51.8282 74.084 50.0337 71.8799 50.0337Z" fill="#0F316A"/>
<path d="M50 35.7313C53.3599 35.7313 56.1285 38.1735 56.6796 41.3848C56.7468 41.007 56.8005 40.6157 56.8005 40.2244C56.8005 36.46 53.7631 33.3971 50 33.3971C46.2369 33.3971 43.1995 36.4465 43.1995 40.2244C43.1995 40.6292 43.2533 41.007 43.3205 41.3848C43.8715 38.1735 46.6401 35.7313 50 35.7313Z" fill="#0F316A"/>
<path d="M43.9521 52.3679H28.1201C25.9082 52.3679 24.1151 54.1681 24.1151 56.3888V62.5685C24.1151 64.7891 25.9082 66.5893 28.1201 66.5893H43.9521C46.164 66.5893 47.9572 64.7891 47.9572 62.5685V56.3888C47.9572 54.1681 46.164 52.3679 43.9521 52.3679Z" fill="#0F316A"/>
<path d="M32.1117 47.0518C35.4717 47.0518 38.2402 44.6096 38.7913 41.3984C38.2402 38.1871 35.4717 35.7449 32.1117 35.7449C28.7518 35.7449 25.9832 38.1871 25.4322 41.3984C25.9832 44.6096 28.7518 47.0518 32.1117 47.0518Z" fill="#0F316A"/>
<path d="M67.8883 47.0518C71.2482 47.0518 74.0168 44.6096 74.5678 41.3984C74.0168 38.1871 71.2482 35.7449 67.8883 35.7449C64.5284 35.7449 61.7598 38.1871 61.2087 41.3984C61.7598 44.6096 64.5284 47.0518 67.8883 47.0518Z" fill="#0F316A"/>
<path d="M71.8665 52.3679H56.0344C53.8225 52.3679 52.0294 54.1681 52.0294 56.3888V62.5685C52.0294 64.7891 53.8225 66.5893 56.0344 66.5893H71.8665C74.0784 66.5893 75.8715 64.7891 75.8715 62.5685V56.3888C75.8715 54.1681 74.0784 52.3679 71.8665 52.3679Z" fill="#0F316A"/>
<path d="M50 47.0518C53.3599 47.0518 56.1285 44.6096 56.6796 41.3984C56.1285 38.1871 53.3599 35.7449 50 35.7449C46.6401 35.7449 43.8715 38.1871 43.3205 41.3984C43.8715 44.6096 46.6401 47.0518 50 47.0518Z" fill="#0F316A"/>
</g>
<defs>
<clipPath id="clip0_1_14859">
<rect width="64" height="44" fill="white" transform="translate(18 28)"/>
</clipPath>
</defs>
</svg>
