<svg width="20" height="20" viewBox="0 0 20 20" fill="none" xmlns="http://www.w3.org/2000/svg">
<g clip-path="url(#clip0_151_2379)">
<path fill-rule="evenodd" clip-rule="evenodd" d="M0.457647 19.5423C0.602641 19.6875 0.774833 19.8027 0.964375 19.8812C1.15392 19.9598 1.35709 20.0003 1.56228 20.0003C1.76746 20.0003 1.97063 19.9598 2.16018 19.8812C2.34972 19.8027 2.52191 19.6875 2.6669 19.5423L11.1048 11.1048C11.2498 10.9597 11.3649 10.7875 11.4434 10.598C11.5219 10.4085 11.5623 10.2053 11.5623 10.0002C11.5623 9.79501 11.5219 9.59187 11.4434 9.40234C11.3649 9.2128 11.2498 9.04059 11.1048 8.89553L2.6669 0.458035C2.37393 0.165069 1.97658 0.000484618 1.56226 0.000488281C1.14794 0.000491944 0.750593 0.165083 0.457627 0.458054C0.164661 0.751025 7.70138e-05 1.14838 8.06766e-05 1.5627C8.43394e-05 1.97702 0.164676 2.37437 0.457647 2.66733L7.78991 10.0001L0.457647 17.333C0.312558 17.4781 0.197464 17.6503 0.11894 17.8398C0.0404162 18.0294 0 18.2325 0 18.4377C0 18.6428 0.0404162 18.846 0.11894 19.0355C0.197464 19.225 0.312558 19.3972 0.457647 19.5423ZM19.5418 8.89557C19.687 9.04056 19.8022 9.21274 19.8808 9.40229C19.9594 9.59183 19.9999 9.79501 19.9999 10.0002C19.9999 10.2054 19.9594 10.4086 19.8808 10.5981C19.8022 10.7877 19.687 10.9598 19.5418 11.1048L11.1043 19.5423C10.8111 19.8339 10.4142 19.9973 10.0006 19.9967C9.58707 19.9962 9.19063 19.8316 8.89821 19.5392C8.60578 19.2468 8.44124 18.8503 8.44065 18.4368C8.44007 18.0232 8.60348 17.6263 8.89507 17.3331L16.2276 10.0001L8.89511 2.66733C8.60352 2.37408 8.4401 1.97717 8.44069 1.56362C8.44128 1.15008 8.60582 0.753634 8.89825 0.461211C9.19067 0.168789 9.58711 0.00424701 10.0007 0.00365887C10.4142 0.00307072 10.8111 0.166484 11.1044 0.458074L19.5418 8.89557Z" fill="#FFB724"/>
<path fill-rule="evenodd" clip-rule="evenodd" d="M0.899639 19.1001C0.986593 19.1873 1.08988 19.2564 1.20359 19.3036C1.3173 19.3508 1.43919 19.375 1.5623 19.375C1.6854 19.375 1.80729 19.3508 1.921 19.3036C2.03471 19.2564 2.138 19.1873 2.22495 19.1001L10.6628 10.6626C10.7498 10.5756 10.8189 10.4723 10.866 10.3586C10.9131 10.2449 10.9373 10.123 10.9373 9.99996C10.9373 9.87689 10.9131 9.75502 10.866 9.64132C10.8189 9.52762 10.7498 9.4243 10.6628 9.33729L2.22495 0.899788C2.13806 0.812151 2.03472 0.742538 1.92085 0.694946C1.80698 0.647354 1.68484 0.622719 1.56143 0.622457C1.43802 0.622194 1.31577 0.646308 1.2017 0.693415C1.08764 0.740522 0.983997 0.809694 0.896733 0.89696C0.80947 0.984226 0.740301 1.08787 0.693197 1.20194C0.646094 1.31601 0.621983 1.43825 0.622249 1.56166C0.622516 1.68508 0.647154 1.80722 0.694749 1.92108C0.742345 2.03495 0.81196 2.13829 0.8996 2.22518L8.67378 9.9999L0.8996 17.7747C0.812525 17.8617 0.74345 17.965 0.696321 18.0787C0.649193 18.1924 0.624935 18.3143 0.624935 18.4374C0.624935 18.5605 0.649193 18.6824 0.696321 18.7961C0.74345 18.9098 0.812564 19.0131 0.899639 19.1001ZM19.0999 9.33729C19.187 9.42425 19.2562 9.52754 19.3033 9.64125C19.3505 9.75496 19.3748 9.87686 19.3748 9.99996C19.3748 10.1231 19.3505 10.245 19.3033 10.3587C19.2562 10.4724 19.187 10.5757 19.0999 10.6626L10.6624 19.1001C10.5755 19.1878 10.4722 19.2574 10.3583 19.305C10.2444 19.3526 10.1223 19.3772 9.99889 19.3775C9.87548 19.3777 9.75323 19.3536 9.63917 19.3065C9.5251 19.2594 9.42146 19.1902 9.33419 19.103C9.24693 19.0157 9.17776 18.9121 9.13066 18.798C9.08356 18.6839 9.05944 18.5617 9.05971 18.4383C9.05998 18.3149 9.08461 18.1927 9.13221 18.0788C9.17981 17.965 9.24942 17.8616 9.33706 17.7747L17.1114 9.9999L9.33706 2.22518C9.24942 2.13829 9.17981 2.03495 9.13221 1.92108C9.08461 1.80722 9.05998 1.68508 9.05971 1.56166C9.05944 1.43825 9.08356 1.31601 9.13066 1.20194C9.17776 1.08787 9.24693 0.984226 9.33419 0.89696C9.42146 0.809694 9.5251 0.740522 9.63917 0.693415C9.75323 0.646308 9.87548 0.622194 9.99889 0.622457C10.1223 0.622719 10.2444 0.647354 10.3583 0.694946C10.4722 0.742538 10.5755 0.812151 10.6624 0.899788L19.0999 9.33729ZM0.457647 19.5421C0.312558 19.397 0.197464 19.2248 0.11894 19.0353C0.0404162 18.8457 0 18.6426 0 18.4374C0 18.2323 0.0404162 18.0291 0.11894 17.8396C0.197464 17.6501 0.312558 17.4778 0.457647 17.3328L7.78991 9.9999L0.457647 2.66709C0.166057 2.37384 0.00264359 1.97693 0.00323173 1.56338C0.00381987 1.14984 0.168362 0.753395 0.460784 0.460972C0.753207 0.168549 1.14965 0.00400769 1.5632 0.00341955C1.97674 0.00283141 2.37365 0.166245 2.6669 0.457835L11.1048 8.89534C11.2498 9.04039 11.3649 9.2126 11.4434 9.40214C11.5219 9.59167 11.5623 9.79481 11.5623 9.99996C11.5623 10.2051 11.5219 10.4083 11.4434 10.5978C11.3649 10.7873 11.2498 10.9595 11.1048 11.1046L2.6669 19.5421C2.52191 19.6873 2.34972 19.8025 2.16018 19.881C1.97063 19.9596 1.76746 20.0001 1.56228 20.0001C1.35709 20.0001 1.15392 19.9596 0.964375 19.881C0.774833 19.8025 0.602641 19.6873 0.457647 19.5421V19.5421ZM19.5418 8.89534C19.687 9.04032 19.8022 9.2125 19.8808 9.40205C19.9594 9.59159 19.9999 9.79477 19.9999 9.99996C19.9999 10.2052 19.9594 10.4083 19.8808 10.5979C19.8022 10.7874 19.687 10.9596 19.5418 11.1046L11.1043 19.5421C10.8111 19.8337 10.4142 19.9971 10.0006 19.9965C9.58707 19.9959 9.19063 19.8314 8.89821 19.539C8.60578 19.2465 8.44124 18.8501 8.44065 18.4365C8.44007 18.023 8.60348 17.6261 8.89507 17.3328L16.2276 9.9999L8.89511 2.66709C8.60352 2.37384 8.4401 1.97693 8.44069 1.56338C8.44128 1.14984 8.60582 0.753395 8.89825 0.460972C9.19067 0.168549 9.58711 0.00400769 10.0007 0.00341955C10.4142 0.00283141 10.8111 0.166245 11.1044 0.457835L19.5418 8.89534Z" fill="#FFB724"/>
</g>
<defs>
<clipPath id="clip0_151_2379">
<rect width="20" height="20" fill="white"/>
</clipPath>
</defs>
</svg>
